# This file uses meters as units for non-parametric coordinates.

v -1.112783 0.030644 -4.780860
v -1.657241 0.030644 -4.580011
v -1.186631 0.275922 -4.592736
v -1.656811 0.275922 -4.419288
v -1.023772 0.398667 -3.945887
v -1.437798 0.398667 -3.793154
v -0.845445 0.153389 -3.850790
v -1.419093 0.153389 -3.639173
v 0.807470 0.400014 -2.940818
v 0.807470 0.135657 -1.464051
v 1.174451 1.215705 -2.734607
v 1.174451 1.215705 -1.670262
v 1.317546 1.215705 -2.798654
v 1.430789 1.215705 -1.643168
v 1.365763 0.473008 -3.102796
v 1.551829 0.209246 -1.464051
v -1.728762 0.000000 0.000000
v 1.728762 0.000000 0.000000
v -1.728762 3.457526 0.000000
v 1.728762 3.457526 0.000000
v -1.728762 3.457526 -5.000000
v 1.728762 3.457526 -5.000000
v -1.728762 0.000000 -5.000000
v 1.728762 0.000000 -5.000000
v -1.141253 2.984518 -1.897207
v 1.056379 3.193466 -3.193262
v 1.365763 0.473008 -3.102793
v -0.831869 0.564708 -1.806738
v -1.619883 3.348646 -0.500000
v 1.619886 3.348646 -0.500000
v 1.619886 0.108880 -0.500000
v -1.619883 0.108880 -0.500000
v 1.619886 0.108880 -4.500000
v 1.619886 3.348646 -4.500000
v -1.619883 3.348646 -4.500000
v -1.619883 0.108880 -4.500000
v 0.000000 0.000000 0.000000
vt 0.297841 0.399625
vt 0.297841 0.399625
vt 0.297841 0.399625
vt 0.297841 0.399625
vt 0.328299 0.399625
vt 0.328299 0.399625
vt 0.328299 0.399625
vt 0.328299 0.399625
vt 0.297841 0.399625
vt 0.297841 0.399625
vt 0.297841 0.399625
vt 0.297841 0.399625
vt 0.268067 0.399625
vt 0.268067 0.399625
vt 0.268067 0.399625
vt 0.268067 0.399625
vt 0.297841 0.399625
vt 0.297841 0.399625
vt 0.297841 0.399625
vt 0.297841 0.399625
vt 0.328299 0.399625
vt 0.328299 0.399625
vt 0.328299 0.399625
vt 0.328299 0.399625
vt 0.268067 0.399625
vt 0.268067 0.399625
vt 0.268067 0.399625
vt 0.268067 0.399625
vt 0.268067 0.399625
vt 0.268067 0.399625
vt 0.268067 0.399625
vt 0.268067 0.399625
vt 0.200751 0.399625
vt 0.200751 0.399625
vt 0.200751 0.399625
vt 0.293010 0.399625
vt 0.293010 0.399625
vt 0.293010 0.399625
vt 0.268067 0.399625
vt 0.268067 0.399625
vt 0.268067 0.399625
vt 0.268067 0.399625
vt 0.268067 0.399625
vt 0.268067 0.399625
vt 0.200751 0.399625
vt 0.200751 0.399625
vt 0.268067 0.399625
vt 0.293010 0.399625
vt 0.293010 0.399625
vt 0.268067 0.399625
vt 0.268067 0.399625
vt 0.200751 0.399625
vt 0.200751 0.399625
vt 0.200751 0.399625
vt 0.268067 0.399625
vt 0.268067 0.399625
vt 0.268067 0.399625
vt 0.293010 0.399625
vt 0.293010 0.399625
vt 0.268067 0.399625
vt 0.268067 0.399625
vt 0.268067 0.399625
vt 0.293010 0.399625
vt 0.268067 0.399625
vt 0.268067 0.399625
vt 0.268067 0.399625
vt 0.200751 0.399625
vt 0.200751 0.399625
vt 0.268067 0.399625
vt 0.268067 0.399625
vt 0.293010 0.399625
vt 0.293010 0.399625
vt 0.200751 0.399625
vt 0.200751 0.399625
vt 0.200751 0.399625
vt 0.200751 0.399625
vt 0.200751 0.399625
vt 0.200751 0.399625
vt 0.200751 0.399625
vt 0.200751 0.399625
vt 0.200751 0.399625
vt 0.200751 0.399625
vt 0.293010 0.399625
vt 0.293010 0.399625
vt 0.293010 0.399625
vt 0.293010 0.399625
vt 0.293010 0.399625
vt 0.293010 0.399625
vt 0.293010 0.399625
vt 0.293010 0.399625
vt 0.293010 0.399625
vt 0.293010 0.399625
vt 0.293010 0.399625
vn -0.294758 0.524094 -0.799026
vn -0.294758 0.524094 -0.799026
vn -0.294758 0.524094 -0.799026
vn -0.294758 0.524094 -0.799026
vn -0.062983 0.983302 -0.170732
vn -0.062983 0.983302 -0.170732
vn -0.062983 0.983302 -0.170732
vn -0.062983 0.983302 -0.170732
vn 0.294759 0.524094 0.799026
vn 0.294759 0.524094 0.799026
vn 0.294759 0.524094 0.799026
vn 0.294759 0.524094 0.799026
vn 0.824203 0.480516 -0.299655
vn 0.824203 0.480516 -0.299655
vn 0.824203 0.480516 -0.299655
vn 0.824203 0.480516 -0.299655
vn -0.931890 0.360794 0.037534
vn -0.931890 0.360794 0.037534
vn -0.931890 0.360794 0.037534
vn -0.931890 0.360794 0.037534
vn 0.000000 1.000000 0.000000
vn 0.000000 1.000000 0.000000
vn 0.000000 1.000000 0.000000
vn 0.000000 1.000000 0.000000
vn -0.040261 0.186045 0.981716
vn -0.040261 0.186045 0.981716
vn -0.040261 0.186045 0.981716
vn -0.040261 0.186045 0.981716
vn -0.320047 0.353341 -0.879045
vn -0.320047 0.353341 -0.879045
vn -0.320047 0.353341 -0.879045
vn -0.320047 0.353341 -0.879045
vn 0.000000 -0.993023 -0.117925
vn 0.000000 -0.993023 -0.117925
vn 0.000000 -0.993022 -0.117925
vn -0.048898 0.987054 -0.152750
vn -0.048898 0.987055 -0.152750
vn -0.048898 0.987054 -0.152750
vn -0.906885 -0.116601 -0.404924
vn -0.906885 -0.116601 -0.404924
vn -0.906885 -0.116601 -0.404924
vn 0.983509 0.000000 -0.180858
vn 0.983509 0.000000 -0.180858
vn 0.983509 0.000000 -0.180858
vn 0.114069 -0.992913 0.033343
vn 0.114069 -0.992913 0.033343
vn 0.114069 -0.992913 0.033343
vn -0.990603 -0.109951 0.081335
vn -0.990603 -0.109951 0.081335
vn -0.990603 -0.109951 0.081335
vn 0.000000 0.944203 0.329365
vn 0.000000 0.944203 0.329365
vn 0.000000 0.944203 0.329365
vn 0.946032 0.000000 0.324075
vn 0.946032 0.000000 0.324075
vn 0.946032 0.000000 0.324075
vn 0.000000 -0.977102 0.212772
vn 0.000000 -0.977102 0.212772
vn 0.000000 -0.977102 0.212772
vn 0.000000 -0.977102 0.212772
vn -0.977103 0.000000 0.212765
vn -0.977104 0.000000 0.212765
vn -0.977104 0.000000 0.212765
vn -0.977104 0.000000 0.212765
vn 0.000000 0.977102 0.212773
vn 0.000000 0.977102 0.212773
vn 0.000000 0.977102 0.212773
vn 0.000000 0.977102 0.212773
vn 0.000000 0.977102 0.212773
vn 0.977102 0.000000 0.212772
vn 0.977102 0.000000 0.212772
vn 0.977102 0.000000 0.212772
vn 0.977102 0.000000 0.212772
vn 0.011230 -0.990008 -0.140566
vn 0.011230 -0.990008 -0.140566
vn 0.011230 -0.990008 -0.140566
vn 0.000000 -0.967678 0.252188
vn 0.000000 -0.967678 0.252188
vn 0.000000 -0.967678 0.252188
vn -0.978805 0.000000 0.204794
vn -0.978805 0.000000 0.204794
vn -0.978805 0.000000 0.204794
vn -0.983859 0.000000 -0.178944
vn -0.983859 0.000000 -0.178944
vn -0.983859 0.000000 -0.178944
vn 0.000000 0.967678 -0.252188
vn 0.000000 0.967678 -0.252188
vn 0.000000 0.967678 -0.252188
vn 0.115728 0.985189 0.126528
vn 0.115729 0.985189 0.126528
vn 0.115728 0.985189 0.126528
vn 0.948732 0.110224 -0.296242
vn 0.948732 0.110224 -0.296242
vn 0.948732 0.110224 -0.296242
vn 0.829364 0.126385 0.544226
vn 0.829364 0.126385 0.544226
vn 0.829364 0.126385 0.544226
vn -0.977104 0.000000 -0.212765
vn -0.977103 0.000000 -0.212765
vn -0.977104 0.000000 -0.212765
vn -0.977104 0.000000 -0.212765
vn 0.000000 -0.977102 -0.212772
vn 0.000000 -0.977102 -0.212772
vn 0.000000 -0.977102 -0.212772
vn 0.000000 -0.977102 -0.212772
vn 0.977102 0.000000 -0.212772
vn 0.977102 0.000000 -0.212772
vn 0.977102 0.000000 -0.212772
vn 0.977102 0.000000 -0.212772
vn 0.000000 0.977102 -0.212773
vn 0.000000 0.977102 -0.212773
vn 0.000000 0.977102 -0.212773
vn 0.000000 0.977102 -0.212773
s off
f 1/1/1 2/2/2 4/3/3 3/4/4
f 3/5/5 4/6/6 6/7/7 5/8/8
f 5/9/9 6/10/10 8/11/11 7/12/12
f 7/13/13 1/14/14 3/15/15 5/16/16
f 9/17/17 10/18/18 12/19/19 11/20/20
f 11/21/21 12/22/22 14/23/23 13/24/24
f 10/25/25 16/26/26 14/27/27 12/28/28
f 15/29/29 9/30/30 11/31/31 13/32/32
f 35/73/33 34/81/34 26/35/35
f 36/90/36 28/85/37 27/92/38
f 26/39/39 34/40/40 27/41/41
f 35/42/42 25/43/43 36/44/44
f 25/77/45 26/80/46 30/46/47
f 26/39/48 27/41/49 31/47/50
f 28/37/51 32/48/52 31/88/53
f 25/43/54 29/50/55 32/51/56
f 20/52/57 19/53/58 29/54/59 30/76/60
f 18/55/61 20/56/62 30/57/63 31/47/64
f 37/93/65 18/59/66 31/87/67 32/84/68 17/58/69
f 29/50/70 19/60/71 17/61/72 32/51/73
f 25/78/74 35/33/75 26/79/76
f 29/82/77 25/45/78 30/75/79
f 30/57/80 26/39/81 31/47/82
f 34/40/83 33/62/84 27/41/85
f 36/89/86 27/38/87 33/63/88
f 28/86/89 31/49/90 27/91/91
f 25/43/92 28/64/93 36/44/94
f 25/43/95 32/51/96 28/64/97
f 34/40/98 22/65/99 24/66/100 33/62/101
f 35/74/102 21/67/103 22/68/104 34/34/105
f 23/69/106 21/70/107 35/42/108 36/44/109
f 24/71/110 23/72/111 36/36/112 33/83/113
