# This file uses meters as units for non-parametric coordinates.

v -2.500000 5.000000 0.144372
v -2.500000 0.000000 0.144372
v 2.500000 5.000000 0.144372
v 2.500000 0.000000 0.144372
v -2.500000 4.026817 0.144372
v 2.500000 4.026817 0.144372
v -2.500000 0.955856 0.144372
v 2.500000 0.955856 0.144372
v -2.500000 0.955856 0.040443
v 2.500000 0.955856 0.040443
v -2.500000 4.026817 0.040443
v 2.500000 4.026817 0.040443
v 0.000000 4.026817 0.040443
v 0.000000 4.026817 0.144372
v 0.000000 5.000000 0.144372
v -1.000000 0.000000 0.144372
v -1.000000 0.955856 0.144372
v -1.000000 0.955856 0.040443
v -1.000000 4.026817 0.040443
v -1.000000 4.026817 0.144372
v -1.000000 5.000000 0.144372
v 1.000000 0.000000 0.144372
v 1.000000 0.955856 0.144372
v 1.000000 0.955856 0.040443
v 1.000000 4.026817 0.040443
v 1.000000 4.026817 0.144372
v 1.000000 5.000000 0.144372
v 2.500000 5.000000 -0.144372
v 2.500000 0.000000 -0.144372
v -2.500000 5.000000 -0.144372
v -2.500000 0.000000 -0.144372
v 2.500000 4.026817 -0.144372
v -2.500000 4.026817 -0.144372
v 2.500000 0.955856 -0.144372
v -2.500000 0.955856 -0.144372
v 2.500000 0.955856 -0.040443
v -2.500000 0.955856 -0.040443
v 2.500000 4.026817 -0.040443
v -2.500000 4.026817 -0.040443
v 0.000000 4.026817 -0.040443
v 0.000000 4.026817 -0.144372
v 0.000000 5.000000 -0.144372
v 1.000000 0.000000 -0.144372
v 1.000000 0.955856 -0.144372
v 1.000000 0.955856 -0.040443
v 1.000000 4.026817 -0.040443
v 1.000000 4.026817 -0.144372
v 1.000000 5.000000 -0.144372
v -1.000000 0.000000 -0.144372
v -1.000000 0.955856 -0.144372
v -1.000000 0.955856 -0.040443
v -1.000000 4.026817 -0.040443
v -1.000000 4.026817 -0.144372
v -1.000000 5.000000 -0.144372
v -2.500000 0.000000 0.000000
v -1.000000 0.000000 0.000000
v 2.500000 0.000000 0.000000
v 2.500000 5.000000 0.000000
v 1.000000 5.000000 0.000000
v -2.500000 4.026817 0.000000
v -2.500000 5.000000 0.000000
v 2.500000 4.026817 0.000000
v 0.000000 4.026817 0.000000
v 1.000000 4.026817 0.000000
v 0.000000 5.000000 0.000000
v -1.000000 5.000000 0.000000
v -1.000000 4.026817 0.000000
v 1.000000 0.000000 0.000000
v 0.970418 0.000000 0.124030
v 1.442794 0.000000 0.124030
v 0.970418 5.042894 0.124030
v 1.442794 5.042894 0.124030
v 0.970418 5.042894 -0.124030
v 1.442794 5.042894 -0.124030
v 0.970418 0.000000 -0.124030
v 1.442794 0.000000 -0.124030
v -1.442794 0.000000 0.124030
v -0.970418 0.000000 0.124030
v -1.442794 5.042894 0.124030
v -0.970418 5.042894 0.124030
v -1.442794 5.042894 -0.124030
v -0.970418 5.042894 -0.124030
v -1.442794 0.000000 -0.124030
v -0.970418 0.000000 -0.124030
vt 0.004469 0.682365
vt 0.160062 0.682365
vt 0.160062 0.837958
vt 0.004469 0.837958
vt 0.034753 0.682365
vt 0.034753 0.837958
vt 0.130317 0.682365
vt 0.130317 0.837958
vt 0.129860 0.682365
vt 0.129860 0.837958
vt 0.035314 0.682365
vt 0.035314 0.837958
vt 0.064406 0.758800
vt 0.064406 0.758800
vt 0.064406 0.758800
vt 0.064406 0.758800
vt 0.035314 0.760161
vt 0.034753 0.760161
vt 0.004469 0.760161
vt 0.160062 0.729043
vt 0.130317 0.729043
vt 0.064406 0.758800
vt 0.129860 0.729043
vt 0.035314 0.729043
vt 0.064406 0.758800
vt 0.034753 0.729043
vt 0.004469 0.729043
vt 0.160062 0.791280
vt 0.130317 0.791280
vt 0.064406 0.758800
vt 0.129860 0.791280
vt 0.035314 0.791280
vt 0.064406 0.758800
vt 0.034753 0.791280
vt 0.004469 0.791280
vt 0.004469 0.682365
vt 0.034753 0.682365
vt 0.034753 0.729043
vt 0.004469 0.729043
vt 0.035314 0.729043
vt 0.035314 0.682365
vt 0.160062 0.729043
vt 0.130317 0.729043
vt 0.130317 0.682365
vt 0.160062 0.682365
vt 0.129860 0.729043
vt 0.129860 0.682365
vt 0.064406 0.758800
vt 0.064406 0.758800
vt 0.064406 0.758800
vt 0.064406 0.758800
vt 0.035314 0.791280
vt 0.034753 0.791280
vt 0.034753 0.760161
vt 0.035314 0.760161
vt 0.004469 0.760161
vt 0.004469 0.791280
vt 0.130317 0.837958
vt 0.130317 0.791280
vt 0.160062 0.791280
vt 0.160062 0.837958
vt 0.129860 0.837958
vt 0.129860 0.791280
vt 0.064406 0.758800
vt 0.064406 0.758800
vt 0.064406 0.758800
vt 0.064406 0.758800
vt 0.034753 0.837958
vt 0.035314 0.837958
vt 0.004469 0.837958
vt 0.004632 0.683251
vt 0.004632 0.683251
vt 0.004632 0.683251
vt 0.004632 0.683251
vt 0.004632 0.683251
vt 0.004632 0.683251
vt 0.004632 0.683251
vt 0.004632 0.683251
vt 0.004632 0.683251
vt 0.004632 0.683251
vt 0.004632 0.683251
vt 0.004632 0.683251
vt 0.004632 0.683251
vt 0.004632 0.683251
vt 0.004632 0.683251
vt 0.004632 0.683251
vt 0.004632 0.683251
vt 0.004632 0.683251
vt 0.004632 0.683251
vt 0.004632 0.683251
vt 0.004632 0.683251
vt 0.004632 0.683251
vt 0.004632 0.683251
vt 0.004632 0.683251
vt 0.004632 0.683251
vt 0.004632 0.683251
vt 0.004632 0.683251
vt 0.004632 0.683251
vt 0.004632 0.683251
vt 0.004632 0.683251
vt 0.004632 0.683251
vt 0.004632 0.683251
vt 0.004632 0.683251
vt 0.004632 0.683251
vt 0.004632 0.683251
vt 0.004632 0.683251
vt 0.004632 0.683251
vt 0.004632 0.683251
vt 0.004632 0.683251
vt 0.004632 0.683251
vt 0.004632 0.683251
vt 0.004632 0.683251
vt 0.004632 0.683251
vt 0.004632 0.683251
vt 0.004632 0.683251
vt 0.004632 0.683251
vt 0.004632 0.683251
vt 0.004632 0.683251
vt 0.004632 0.683251
vt 0.004632 0.683251
vt 0.004632 0.683251
vt 0.004632 0.683251
vt 0.004632 0.683251
vt 0.004632 0.683251
vt 0.004632 0.683251
vt 0.004632 0.683251
vt 0.004632 0.683251
vt 0.004632 0.683251
vt 0.004632 0.683251
vt 0.004632 0.683251
vt 0.004632 0.683251
vt 0.004632 0.683251
vt 0.004632 0.683251
vt 0.004632 0.683251
vt 0.004632 0.683251
vt 0.004632 0.683251
vt 0.259057 0.063601
vt 0.259057 0.063601
vt 0.259057 0.063601
vt 0.259057 0.063601
vt 0.290669 0.063601
vt 0.290669 0.063601
vt 0.290669 0.063601
vt 0.290669 0.063601
vt 0.259057 0.063601
vt 0.259057 0.063601
vt 0.259057 0.063601
vt 0.259057 0.063601
vt 0.196360 0.063601
vt 0.196360 0.063601
vt 0.196360 0.063601
vt 0.196360 0.063601
vt 0.227972 0.063601
vt 0.227972 0.063601
vt 0.227972 0.063601
vt 0.227972 0.063601
vt 0.227972 0.063601
vt 0.227972 0.063601
vt 0.227972 0.063601
vt 0.227972 0.063601
vt 0.259057 0.063601
vt 0.259057 0.063601
vt 0.259057 0.063601
vt 0.259057 0.063601
vt 0.290669 0.063601
vt 0.290669 0.063601
vt 0.290669 0.063601
vt 0.290669 0.063601
vt 0.259057 0.063601
vt 0.259057 0.063601
vt 0.259057 0.063601
vt 0.259057 0.063601
vt 0.196360 0.063601
vt 0.196360 0.063601
vt 0.196360 0.063601
vt 0.196360 0.063601
vt 0.227972 0.063601
vt 0.227972 0.063601
vt 0.227972 0.063601
vt 0.227972 0.063601
vt 0.227972 0.063601
vt 0.227972 0.063601
vt 0.227972 0.063601
vt 0.227972 0.063601
vn 0.000000 0.000000 1.000000
vn 0.000000 0.000000 1.000000
vn 0.000000 0.000000 1.000000
vn 0.000000 0.000000 1.000000
vn 0.000000 -1.000000 0.000000
vn 0.000000 -1.000000 0.000000
vn 0.000000 -1.000000 0.000000
vn 0.000000 -1.000000 0.000000
vn 0.000000 0.000000 1.000000
vn 0.000000 0.000000 1.000000
vn 0.000000 0.000000 1.000000
vn 0.000000 0.000000 1.000000
vn 0.000000 1.000000 0.000000
vn 0.000000 1.000000 0.000000
vn 0.000000 1.000000 0.000000
vn 0.000000 1.000000 0.000000
vn 0.000000 0.000000 1.000000
vn 0.000000 0.000000 1.000000
vn 0.000000 0.000000 1.000000
vn 0.000000 0.000000 1.000000
vn 0.000000 -1.000000 0.000000
vn 0.000000 -1.000000 0.000000
vn 0.000000 -1.000000 0.000000
vn 0.000000 -1.000000 0.000000
vn 0.000000 0.000000 1.000000
vn 0.000000 0.000000 1.000000
vn 0.000000 0.000000 1.000000
vn 0.000000 0.000000 1.000000
vn 0.000000 -1.000000 0.000000
vn 0.000000 -1.000000 0.000000
vn 0.000000 -1.000000 0.000000
vn 0.000000 -1.000000 0.000000
vn 0.000000 0.000000 1.000000
vn 0.000000 0.000000 1.000000
vn 0.000000 0.000000 1.000000
vn 0.000000 0.000000 1.000000
vn 0.000000 0.000000 1.000000
vn 0.000000 0.000000 1.000000
vn 0.000000 0.000000 1.000000
vn 0.000000 0.000000 1.000000
vn 0.000000 1.000000 0.000000
vn 0.000000 1.000000 0.000000
vn 0.000000 1.000000 0.000000
vn 0.000000 1.000000 0.000000
vn 0.000000 0.000000 1.000000
vn 0.000000 0.000000 1.000000
vn 0.000000 0.000000 1.000000
vn 0.000000 0.000000 1.000000
vn 0.000000 -1.000000 0.000000
vn 0.000000 -1.000000 0.000000
vn 0.000000 -1.000000 0.000000
vn 0.000000 -1.000000 0.000000
vn 0.000000 0.000000 1.000000
vn 0.000000 0.000000 1.000000
vn 0.000000 0.000000 1.000000
vn 0.000000 0.000000 1.000000
vn 0.000000 0.000000 -1.000000
vn 0.000000 0.000000 -1.000000
vn 0.000000 0.000000 -1.000000
vn 0.000000 0.000000 -1.000000
vn 0.000000 -1.000000 0.000000
vn 0.000000 -1.000000 0.000000
vn 0.000000 -1.000000 0.000000
vn 0.000000 -1.000000 0.000000
vn 0.000000 0.000000 -1.000000
vn 0.000000 0.000000 -1.000000
vn 0.000000 0.000000 -1.000000
vn 0.000000 0.000000 -1.000000
vn 0.000000 1.000000 0.000000
vn 0.000000 1.000000 0.000000
vn 0.000000 1.000000 0.000000
vn 0.000000 1.000000 0.000000
vn 0.000000 0.000000 -1.000000
vn 0.000000 0.000000 -1.000000
vn 0.000000 0.000000 -1.000000
vn 0.000000 0.000000 -1.000000
vn 0.000000 -1.000000 0.000000
vn 0.000000 -1.000000 0.000000
vn 0.000000 -1.000000 0.000000
vn 0.000000 -1.000000 0.000000
vn 0.000000 0.000000 -1.000000
vn 0.000000 0.000000 -1.000000
vn 0.000000 0.000000 -1.000000
vn 0.000000 0.000000 -1.000000
vn 0.000000 -1.000000 0.000000
vn 0.000000 -1.000000 0.000000
vn 0.000000 -1.000000 0.000000
vn 0.000000 -1.000000 0.000000
vn 0.000000 0.000000 -1.000000
vn 0.000000 0.000000 -1.000000
vn 0.000000 0.000000 -1.000000
vn 0.000000 0.000000 -1.000000
vn 0.000000 0.000000 -1.000000
vn 0.000000 0.000000 -1.000000
vn 0.000000 0.000000 -1.000000
vn 0.000000 0.000000 -1.000000
vn 0.000000 1.000000 0.000000
vn 0.000000 1.000000 0.000000
vn 0.000000 1.000000 0.000000
vn 0.000000 1.000000 0.000000
vn 0.000000 0.000000 -1.000000
vn 0.000000 0.000000 -1.000000
vn 0.000000 0.000000 -1.000000
vn 0.000000 0.000000 -1.000000
vn 0.000000 -1.000000 0.000000
vn 0.000000 -1.000000 0.000000
vn 0.000000 -1.000000 0.000000
vn 0.000000 -1.000000 0.000000
vn 0.000000 0.000000 -1.000000
vn 0.000000 0.000000 -1.000000
vn 0.000000 0.000000 -1.000000
vn 0.000000 0.000000 -1.000000
vn 0.000000 -1.000000 0.000000
vn 0.000000 -1.000000 0.000000
vn 0.000000 -1.000000 0.000000
vn 0.000000 -1.000000 0.000000
vn 0.000000 -1.000000 0.000000
vn 0.000000 -1.000000 0.000000
vn 1.000000 0.000000 0.000000
vn 1.000000 0.000000 0.000000
vn 1.000000 0.000000 0.000000
vn 1.000000 0.000000 0.000000
vn 1.000000 0.000000 0.000000
vn 1.000000 0.000000 0.000000
vn 1.000000 0.000000 0.000000
vn 0.000000 1.000000 0.000001
vn 0.000000 1.000000 0.000001
vn 0.000000 1.000000 0.000001
vn 0.000000 1.000000 0.000001
vn 0.000000 1.000000 0.000001
vn 0.000000 1.000000 0.000001
vn 1.000000 0.000000 0.000000
vn 1.000000 0.000000 0.000000
vn 1.000000 0.000000 0.000000
vn 1.000000 0.000000 0.000000
vn 1.000000 0.000000 0.000000
vn 1.000000 0.000000 0.000000
vn 1.000000 0.000000 0.000000
vn 1.000000 0.000000 0.000000
vn 1.000000 0.000000 0.000000
vn 1.000000 0.000000 0.000000
vn 1.000000 0.000000 0.000000
vn 0.000000 0.000000 0.000000
vn 0.000000 0.000000 0.000000
vn 0.000000 0.000000 0.000000
vn 0.000000 0.000000 0.000000
vn 0.000000 0.000000 0.000000
vn 0.000000 0.000000 0.000000
vn 0.000000 -1.000000 0.000003
vn 0.000000 -1.000000 0.000003
vn 0.000000 -1.000000 0.000003
vn 0.000000 -1.000000 0.000003
vn 0.000000 -1.000000 0.000003
vn 0.000000 -1.000000 0.000003
vn 0.000000 1.000000 -0.000001
vn 0.000000 1.000000 -0.000001
vn 0.000000 1.000000 -0.000001
vn 0.000000 1.000000 -0.000001
vn 0.000000 1.000000 -0.000001
vn 0.000000 1.000000 -0.000001
vn 0.000000 -1.000000 0.000000
vn 0.000000 -1.000000 0.000000
vn 0.000000 -1.000000 0.000000
vn 0.000000 -1.000000 0.000000
vn 0.000000 -1.000000 0.000000
vn 0.000000 -1.000000 0.000000
vn 0.000000 1.000000 -0.000001
vn 0.000000 1.000000 -0.000001
vn 0.000000 1.000000 -0.000001
vn 0.000000 1.000000 -0.000001
vn 0.000000 1.000000 -0.000001
vn 0.000000 1.000000 -0.000001
vn 1.000000 0.000000 -0.000000
vn 1.000000 0.000000 -0.000000
vn 1.000000 0.000000 -0.000000
vn 1.000000 0.000000 -0.000000
vn 1.000000 0.000000 -0.000000
vn 1.000000 0.000000 -0.000000
vn 1.000000 0.000000 -0.000000
vn 1.000000 0.000000 -0.000001
vn 1.000000 0.000000 -0.000001
vn 1.000000 0.000000 -0.000001
vn 1.000000 0.000000 -0.000001
vn 1.000000 0.000000 -0.000001
vn 0.000000 -1.000000 0.000000
vn 0.000000 -1.000000 0.000000
vn 0.000000 -1.000000 0.000000
vn 0.000000 -1.000000 0.000000
vn 0.000000 -1.000000 0.000000
vn 0.000000 -1.000000 0.000000
vn 0.000000 1.000000 0.000000
vn 0.000000 1.000000 0.000000
vn 0.000000 1.000000 0.000000
vn 0.000000 1.000000 0.000000
vn 0.000000 1.000000 0.000000
vn 0.000000 1.000000 0.000000
vn -1.000000 0.000000 0.000000
vn -1.000000 0.000000 0.000000
vn -1.000000 0.000000 0.000000
vn -1.000000 0.000000 0.000000
vn -1.000000 0.000000 0.000000
vn -1.000000 0.000000 0.000000
vn -1.000000 0.000000 0.000000
vn -1.000000 0.000000 0.000000
vn -1.000000 0.000000 0.000000
vn -1.000000 0.000000 0.000000
vn -1.000000 0.000000 0.000000
vn -1.000000 0.000000 0.000000
vn -1.000000 0.000000 0.000000
vn -1.000000 0.000000 0.000000
vn -1.000000 0.000000 0.000000
vn -1.000000 0.000000 0.000000
vn -1.000000 0.000000 0.000000
vn -1.000000 0.000000 0.000000
vn 0.000000 0.000000 0.000000
vn 0.000000 0.000000 0.000000
vn 0.000000 0.000000 0.000000
vn 0.000000 0.000000 0.000000
vn 0.000000 0.000000 0.000000
vn 0.000000 0.000000 0.000000
vn -1.000000 0.000000 0.000000
vn -1.000000 0.000000 0.000000
vn -1.000000 0.000000 0.000000
vn -1.000000 0.000000 0.000000
vn -1.000000 0.000000 0.000000
vn -1.000000 0.000000 0.000000
vn -1.000000 0.000000 0.000000
vn -1.000000 0.000000 0.000001
vn -1.000000 0.000000 0.000001
vn -1.000000 0.000000 0.000001
vn -1.000000 0.000000 0.000001
vn -1.000000 0.000000 0.000001
vn 0.000000 0.000000 1.000000
vn 0.000000 0.000000 1.000000
vn 0.000000 0.000000 1.000000
vn 0.000000 0.000000 1.000000
vn 0.000000 1.000000 0.000000
vn 0.000000 1.000000 0.000000
vn 0.000000 1.000000 0.000000
vn 0.000000 1.000000 0.000000
vn 0.000000 0.000000 -1.000000
vn 0.000000 0.000000 -1.000000
vn 0.000000 0.000000 -1.000000
vn 0.000000 0.000000 -1.000000
vn 0.000000 -1.000000 0.000000
vn 0.000000 -1.000000 0.000000
vn 0.000000 -1.000000 0.000000
vn 0.000000 -1.000000 0.000000
vn 1.000000 0.000000 0.000000
vn 1.000000 0.000000 0.000000
vn 1.000000 0.000000 0.000000
vn 1.000000 0.000000 0.000000
vn -1.000000 0.000000 0.000000
vn -1.000000 0.000000 0.000000
vn -1.000000 0.000000 0.000000
vn -1.000000 0.000000 0.000000
vn 0.000000 0.000000 1.000000
vn 0.000000 0.000000 1.000000
vn 0.000000 0.000000 1.000000
vn 0.000000 0.000000 1.000000
vn 0.000000 1.000000 0.000000
vn 0.000000 1.000000 0.000000
vn 0.000000 1.000000 0.000000
vn 0.000000 1.000000 0.000000
vn 0.000000 0.000000 -1.000000
vn 0.000000 0.000000 -1.000000
vn 0.000000 0.000000 -1.000000
vn 0.000000 0.000000 -1.000000
vn 0.000000 -1.000000 0.000000
vn 0.000000 -1.000000 0.000000
vn 0.000000 -1.000000 0.000000
vn 0.000000 -1.000000 0.000000
vn 1.000000 0.000000 0.000000
vn 1.000000 0.000000 0.000000
vn 1.000000 0.000000 0.000000
vn 1.000000 0.000000 0.000000
vn -1.000000 0.000000 0.000000
vn -1.000000 0.000000 0.000000
vn -1.000000 0.000000 0.000000
vn -1.000000 0.000000 0.000000
s off
f 1/1/1 5/5/2 20/26/3 21/27/4
f 19/24/5 20/26/6 5/5/7 11/11/8
f 16/20/9 17/21/10 7/7/11 2/2/12
f 17/21/13 18/23/14 9/9/15 7/7/16
f 18/22/17 19/25/18 11/14/19 9/15/20
f 25/32/21 26/34/22 14/18/23 13/17/24
f 15/19/25 14/18/26 26/34/27 27/35/28
f 13/17/29 14/18/30 20/26/31 19/24/32
f 21/27/33 20/26/34 14/18/35 15/19/36
f 8/8/37 23/29/38 22/28/39 4/3/40
f 10/10/41 24/31/42 23/29/43 8/8/44
f 12/13/45 25/33/46 24/30/47 10/16/48
f 6/6/49 26/34/50 25/32/51 12/12/52
f 27/35/53 26/34/54 6/6/55 3/4/56
f 28/36/57 32/37/58 47/38/59 48/39/60
f 46/40/61 47/38/62 32/37/63 38/41/64
f 43/42/65 44/43/66 34/44/67 29/45/68
f 44/43/69 45/46/70 36/47/71 34/44/72
f 45/48/73 46/49/74 38/50/75 36/51/76
f 52/52/77 53/53/78 41/54/79 40/55/80
f 42/56/81 41/54/82 53/53/83 54/57/84
f 40/55/85 41/54/86 47/38/87 46/40/88
f 48/39/89 47/38/90 41/54/91 42/56/92
f 35/58/93 50/59/94 49/60/95 31/61/96
f 37/62/97 51/63/98 50/59/99 35/58/100
f 39/64/101 52/65/102 51/66/103 37/67/104
f 33/68/105 53/53/106 52/52/107 39/69/108
f 54/57/109 53/53/110 33/68/111 30/70/112
f 56/76/113 16/75/114 2/71/115 55/74/116 31/116/117 49/131/118
f 36/80/119 10/134/120 8/77/121 4/78/122 57/79/123 29/112/124 34/113/125
f 59/84/126 27/81/127 3/82/128 58/83/129 28/120/130 48/127/131
f 58/83/132 3/82/133 6/89/134 62/90/135 32/119/136 28/120/137
f 62/90/138 12/92/139 10/93/140 36/80/141 38/122/142
f 11/91/143 5/85/144 60/88/145
f 6/89/146 12/92/147 62/90/148
f 64/97/149 25/94/150 13/95/151 63/96/152 40/126/153 46/129/154
f 66/101/155 21/98/156 15/99/157 65/100/158 42/128/159 54/117/160
f 63/96/161 13/95/162 19/102/163 67/103/164 52/125/165 40/126/166
f 61/87/167 1/86/168 21/98/169 66/101/170 54/117/171 30/118/172
f 51/105/173 18/136/174 17/104/175 16/75/176 56/76/177 49/131/178 50/132/179
f 67/103/180 19/102/181 18/106/182 51/105/183 52/125/184
f 57/79/185 4/78/186 22/107/187 68/108/188 43/114/189 29/112/190
f 65/100/191 15/99/192 27/81/193 59/84/194 48/127/195 42/128/196
f 9/73/197 37/133/198 35/115/199 31/116/200 55/74/201 2/71/202 7/72/203
f 61/87/204 30/118/205 33/121/206 60/88/207 5/85/208 1/86/209
f 60/88/210 39/123/211 37/124/212 9/73/213 11/91/214
f 38/122/215 32/119/216 62/90/217
f 33/121/218 39/123/219 60/88/220
f 45/110/221 44/130/222 43/114/223 68/108/224 22/107/225 23/109/226 24/135/227
f 64/97/228 46/129/229 45/110/230 24/111/231 25/94/232
f 69/137/233 70/138/234 72/139/235 71/140/236
f 71/141/237 72/142/238 74/143/239 73/144/240
f 73/145/241 74/146/242 76/147/243 75/148/244
f 75/149/245 76/150/246 70/151/247 69/152/248
f 70/153/249 76/154/250 74/155/251 72/156/252
f 75/157/253 69/158/254 71/159/255 73/160/256
f 77/161/257 78/162/258 80/163/259 79/164/260
f 79/165/261 80/166/262 82/167/263 81/168/264
f 81/169/265 82/170/266 84/171/267 83/172/268
f 83/173/269 84/174/270 78/175/271 77/176/272
f 78/177/273 84/178/274 82/179/275 80/180/276
f 83/181/277 77/182/278 79/183/279 81/184/280
