# This file uses meters as units for non-parametric coordinates.

v -0.358688 0.000000 0.358686
v 0.358685 0.000000 0.358686
v -0.358688 4.999988 0.358686
v 0.358685 4.999988 0.358686
v -0.358688 4.999988 -0.358686
v 0.358685 4.999988 -0.358686
v -0.358688 0.000000 -0.358686
v 0.358685 0.000000 -0.358686
v 0.358685 4.438282 0.358686
v -0.358688 4.438282 0.358686
v -0.358688 4.438282 -0.358686
v 0.358685 4.438282 -0.358686
v -0.358688 4.090364 -0.358686
v -0.358688 4.090364 0.358686
v 0.358685 4.090364 0.358686
v 0.358685 4.090364 -0.358686
v -0.358688 0.889027 -0.358686
v -0.358688 0.889027 0.358686
v 0.358685 0.889027 0.358686
v 0.358685 0.889027 -0.358686
v -0.358688 0.525672 -0.358686
v -0.358688 0.525672 0.358686
v 0.358685 0.525672 0.358686
v 0.358685 0.525672 -0.358686
v -0.455944 4.090364 0.455942
v 0.455940 4.090364 0.455942
v 0.455940 4.438282 0.455942
v -0.455944 4.438282 0.455942
v -0.455944 4.438282 -0.455942
v 0.455940 4.438282 -0.455942
v 0.455940 4.090364 -0.455942
v -0.455944 4.090364 -0.455942
v -0.455944 0.525672 -0.455942
v -0.455944 0.525672 0.455942
v -0.455944 0.889027 0.455942
v -0.455944 0.889027 -0.455942
v 0.455940 0.525672 0.455942
v 0.455940 0.889027 0.455942
v 0.455940 0.525672 -0.455942
v 0.455940 0.889027 -0.455942
vt 0.292521 0.512440
vt 0.292521 0.512440
vt 0.292521 0.512440
vt 0.292521 0.512440
vt 0.322978 0.512440
vt 0.322978 0.512440
vt 0.322978 0.512440
vt 0.322978 0.512440
vt 0.292521 0.512440
vt 0.292521 0.512440
vt 0.292521 0.512440
vt 0.292521 0.512440
vt 0.229156 0.512440
vt 0.229156 0.512440
vt 0.229156 0.512440
vt 0.229156 0.512440
vt 0.262747 0.512440
vt 0.262747 0.512440
vt 0.262747 0.512440
vt 0.262747 0.512440
vt 0.262747 0.512440
vt 0.262747 0.512440
vt 0.262747 0.512440
vt 0.262747 0.512440
vt 0.233515 0.086947
vt 0.262747 0.512440
vt 0.292521 0.512440
vt 0.233515 0.086947
vt 0.233515 0.086947
vt 0.262747 0.512440
vt 0.292521 0.512440
vt 0.233515 0.086947
vt 0.292521 0.512440
vt 0.142473 0.085735
vt 0.142473 0.085735
vt 0.262747 0.512440
vt 0.292521 0.512440
vt 0.142473 0.085735
vt 0.142473 0.085735
vt 0.262747 0.512440
vt 0.233515 0.086947
vt 0.262747 0.512440
vt 0.292521 0.512440
vt 0.233515 0.086947
vt 0.233515 0.086947
vt 0.262747 0.512440
vt 0.292521 0.512440
vt 0.233515 0.086947
vt 0.292521 0.512440
vt 0.142473 0.085735
vt 0.142473 0.085735
vt 0.262747 0.512440
vt 0.292521 0.512440
vt 0.142473 0.085735
vt 0.142473 0.085735
vt 0.262747 0.512440
vt 0.202734 0.086579
vt 0.142473 0.085735
vt 0.202734 0.086579
vt 0.233515 0.086947
vt 0.202734 0.086579
vt 0.233515 0.086947
vt 0.202734 0.086579
vt 0.142473 0.085735
vt 0.142473 0.085735
vt 0.172960 0.086579
vt 0.233515 0.086947
vt 0.172960 0.086579
vt 0.142473 0.085735
vt 0.172960 0.086579
vt 0.233515 0.086947
vt 0.172960 0.086579
vt 0.172960 0.086579
vt 0.142473 0.085735
vt 0.172960 0.086579
vt 0.233515 0.086947
vt 0.142473 0.085735
vt 0.142473 0.085735
vt 0.202734 0.086579
vt 0.202734 0.086579
vt 0.142473 0.085735
vt 0.142473 0.085735
vt 0.172960 0.086579
vt 0.172960 0.086579
vt 0.233515 0.086947
vt 0.202734 0.086579
vt 0.142473 0.085735
vt 0.202734 0.086579
vt 0.172960 0.086579
vt 0.202734 0.086579
vt 0.142473 0.085735
vt 0.142473 0.085735
vt 0.233515 0.086947
vt 0.233515 0.086947
vt 0.172960 0.086579
vt 0.202734 0.086579
vt 0.233515 0.086947
vt 0.233515 0.086947
vt 0.262747 0.512440
vt 0.233515 0.086947
vt 0.202734 0.086579
vt 0.172960 0.086579
vt 0.292521 0.512440
vt 0.142473 0.085735
vt 0.233515 0.086947
vt 0.233515 0.086947
vt 0.292521 0.512440
vt 0.233515 0.086947
vt 0.172960 0.086579
vt 0.202734 0.086579
vt 0.262747 0.512440
vt 0.142473 0.085735
vt 0.292521 0.512440
vt 0.233515 0.086947
vt 0.262747 0.512440
vt 0.233515 0.086947
vt 0.292521 0.512440
vt 0.142473 0.085735
vt 0.262747 0.512440
vt 0.142473 0.085735
vt 0.202734 0.086579
vt 0.172960 0.086579
vt 0.233515 0.086947
vt 0.233515 0.086947
vt 0.202734 0.086579
vt 0.172960 0.086579
vt 0.142473 0.085735
vt 0.142473 0.085735
vt 0.202734 0.086579
vt 0.172960 0.086579
vt 0.233515 0.086947
vt 0.233515 0.086947
vt 0.202734 0.086579
vt 0.172960 0.086579
vt 0.142473 0.085735
vt 0.142473 0.085735
vt 0.262747 0.512440
vt 0.142473 0.085735
vt 0.292521 0.512440
vt 0.142473 0.085735
vt 0.262747 0.512440
vt 0.233515 0.086947
vt 0.292521 0.512440
vt 0.233515 0.086947
vt 0.262747 0.512440
vt 0.233515 0.086947
vt 0.292521 0.512440
vt 0.233515 0.086947
vt 0.262747 0.512440
vt 0.142473 0.085735
vt 0.292521 0.512440
vt 0.142473 0.085735
vn 0.000000 0.000000 1.000000
vn 0.000000 0.000000 1.000000
vn 0.000000 0.000000 1.000000
vn 0.000000 0.000000 1.000000
vn -0.000000 1.000000 0.000000
vn -0.000000 1.000000 0.000000
vn -0.000000 1.000000 0.000000
vn -0.000000 1.000000 0.000000
vn 0.000000 0.000000 -1.000000
vn 0.000000 0.000000 -1.000000
vn 0.000000 0.000000 -1.000000
vn 0.000000 0.000000 -1.000000
vn 0.000000 -1.000000 0.000000
vn 0.000000 -1.000000 0.000000
vn 0.000000 -1.000000 0.000000
vn 0.000000 -1.000000 0.000000
vn 1.000000 0.000000 0.000000
vn 1.000000 0.000000 0.000000
vn 1.000000 0.000000 0.000000
vn 1.000000 0.000000 0.000000
vn -1.000000 0.000000 0.000000
vn -1.000000 0.000000 0.000000
vn -1.000000 0.000000 0.000000
vn -1.000000 0.000000 0.000000
vn 0.000000 0.000000 1.000000
vn 0.000000 0.000000 1.000000
vn 0.000000 0.000000 1.000000
vn 0.000000 0.000000 1.000000
vn -1.000000 0.000000 0.000000
vn -1.000000 0.000000 0.000000
vn -1.000000 0.000000 0.000000
vn -1.000000 0.000000 0.000000
vn 0.000000 0.000000 -1.000000
vn 0.000000 0.000000 -1.000000
vn 0.000000 0.000000 -1.000000
vn 0.000000 0.000000 -1.000000
vn 1.000000 0.000000 0.000000
vn 1.000000 0.000000 0.000000
vn 1.000000 0.000000 0.000000
vn 1.000000 0.000000 0.000000
vn -1.000000 0.000000 0.000000
vn -1.000000 0.000000 0.000000
vn -1.000000 0.000000 0.000000
vn -1.000000 0.000000 0.000000
vn 0.000000 0.000000 1.000000
vn 0.000000 0.000000 1.000000
vn 0.000000 0.000000 1.000000
vn 0.000000 0.000000 1.000000
vn 1.000000 0.000000 0.000000
vn 1.000000 0.000000 0.000000
vn 1.000000 0.000000 0.000000
vn 1.000000 0.000000 0.000000
vn -0.000000 0.000000 -1.000000
vn -0.000000 0.000000 -1.000000
vn -0.000000 0.000000 -1.000000
vn -0.000000 0.000000 -1.000000
vn -1.000000 0.000000 0.000000
vn -1.000000 0.000000 0.000000
vn -1.000000 0.000000 0.000000
vn -1.000000 0.000000 0.000000
vn 0.000000 0.000000 1.000000
vn 0.000000 0.000000 1.000000
vn 0.000000 0.000000 1.000000
vn 0.000000 0.000000 1.000000
vn 1.000000 0.000000 0.000000
vn 1.000000 0.000000 0.000000
vn 1.000000 0.000000 0.000000
vn 1.000000 0.000000 0.000000
vn -0.000000 0.000000 -1.000000
vn -0.000000 0.000000 -1.000000
vn -0.000000 0.000000 -1.000000
vn -0.000000 0.000000 -1.000000
vn -1.000000 0.000000 0.000000
vn -1.000000 0.000000 0.000000
vn -1.000000 0.000000 0.000000
vn -1.000000 0.000000 0.000000
vn 0.000000 0.000000 1.000000
vn 0.000000 0.000000 1.000000
vn 0.000000 0.000000 1.000000
vn 0.000000 0.000000 1.000000
vn 1.000000 0.000000 0.000000
vn 1.000000 0.000000 0.000000
vn 1.000000 0.000000 0.000000
vn 1.000000 0.000000 0.000000
vn 0.000000 0.000000 -1.000000
vn 0.000000 0.000000 -1.000000
vn 0.000000 0.000000 -1.000000
vn 0.000000 0.000000 -1.000000
vn -0.000001 -1.000000 -0.000001
vn -0.000001 -1.000000 -0.000001
vn -0.000001 -1.000000 -0.000001
vn -0.000001 -1.000000 -0.000001
vn 0.000000 1.000000 -0.000002
vn 0.000000 1.000000 -0.000002
vn 0.000000 1.000000 -0.000002
vn 0.000000 1.000000 -0.000002
vn 0.000000 1.000000 0.000002
vn 0.000000 1.000000 0.000002
vn 0.000000 1.000000 0.000002
vn 0.000000 1.000000 0.000002
vn 0.000001 -1.000000 0.000001
vn 0.000001 -1.000000 0.000001
vn 0.000001 -1.000000 0.000001
vn 0.000001 -1.000000 0.000001
vn 0.000000 -1.000000 -0.000000
vn 0.000000 -1.000000 -0.000000
vn 0.000000 -1.000000 -0.000000
vn 0.000000 -1.000000 -0.000000
vn 0.000000 1.000000 0.000000
vn 0.000000 1.000000 0.000000
vn 0.000000 1.000000 0.000000
vn 0.000000 1.000000 0.000000
vn 0.000000 -1.000000 0.000000
vn 0.000000 -1.000000 0.000000
vn 0.000000 -1.000000 0.000000
vn 0.000000 -1.000000 0.000000
vn 0.000000 1.000000 0.000000
vn 0.000000 1.000000 0.000000
vn 0.000000 1.000000 0.000000
vn 0.000000 1.000000 0.000000
vn 0.000000 -1.000000 0.000000
vn 0.000000 -1.000000 0.000000
vn 0.000000 -1.000000 0.000000
vn 0.000000 -1.000000 0.000000
vn 0.000000 1.000000 -0.000000
vn 0.000000 1.000000 -0.000000
vn 0.000000 1.000000 -0.000000
vn 0.000000 1.000000 -0.000000
vn -0.000000 -1.000000 -0.000000
vn -0.000000 -1.000000 -0.000000
vn -0.000000 -1.000000 -0.000000
vn -0.000000 -1.000000 -0.000000
vn 0.000000 1.000000 -0.000001
vn 0.000000 1.000000 -0.000001
vn 0.000000 1.000000 -0.000001
vn 0.000000 1.000000 -0.000001
vn 0.000000 -1.000000 -0.000000
vn 0.000000 -1.000000 -0.000000
vn 0.000000 -1.000000 -0.000000
vn 0.000000 -1.000000 -0.000000
vn 0.000000 1.000000 0.000000
vn 0.000000 1.000000 0.000000
vn 0.000000 1.000000 0.000000
vn 0.000000 1.000000 0.000000
vn -0.000000 1.000000 0.000001
vn -0.000000 1.000000 0.000001
vn -0.000000 1.000000 0.000001
vn -0.000000 1.000000 0.000001
vn 0.000000 -1.000000 0.000000
vn 0.000000 -1.000000 0.000000
vn 0.000000 -1.000000 0.000000
vn 0.000000 -1.000000 0.000000
s off
f 25/57/1 26/133/2 27/59/3 28/121/4
f 3/5/5 4/6/6 6/7/7 5/8/8
f 29/61/9 30/129/10 31/63/11 32/125/12
f 7/13/13 8/14/14 2/15/15 1/16/16
f 26/134/17 31/66/18 30/130/19 27/68/20
f 32/126/21 25/70/22 28/122/23 29/72/24
f 10/27/25 9/147/26 4/3/27 3/4/28
f 11/30/29 10/145/30 3/23/31 5/24/32
f 5/9/33 6/10/34 12/31/35 11/143/36
f 9/26/37 12/141/38 6/19/39 4/20/40
f 17/42/41 18/115/42 14/36/43 13/137/44
f 18/43/45 19/107/46 15/37/47 14/151/48
f 19/46/49 20/99/50 16/40/51 15/149/52
f 13/33/53 16/139/54 20/47/55 17/113/56
f 33/73/57 34/109/58 35/75/59 36/95/60
f 34/110/61 37/101/62 38/79/63 35/80/64
f 37/102/65 39/89/66 40/83/67 38/84/68
f 36/96/69 40/86/70 39/90/71 33/88/72
f 7/21/73 1/22/74 22/52/75 21/119/76
f 1/1/77 2/2/78 23/53/79 22/117/80
f 2/17/81 8/18/82 24/56/83 23/111/84
f 21/49/85 24/103/86 8/11/87 7/12/88
f 14/35/89 15/150/90 26/58/91 25/127/92
f 9/25/93 10/146/94 28/60/95 27/131/96
f 11/29/97 12/142/98 30/62/99 29/123/100
f 16/39/101 13/138/102 32/64/103 31/135/104
f 15/38/105 16/140/106 31/136/107 26/65/108
f 12/32/109 9/148/110 27/132/111 30/67/112
f 13/34/113 14/152/114 25/128/115 32/69/116
f 10/28/117 11/144/118 29/124/119 28/71/120
f 21/50/121 22/118/122 34/74/123 33/91/124
f 18/44/125 17/114/126 36/76/127 35/105/128
f 22/51/129 23/112/130 37/78/131 34/77/132
f 19/45/133 18/116/134 35/106/135 38/97/136
f 23/54/137 24/104/138 39/82/139 37/81/140
f 20/48/141 19/108/142 38/98/143 40/93/144
f 17/41/145 20/100/146 40/94/147 36/85/148
f 24/55/149 21/120/150 33/92/151 39/87/152
