# This file uses meters as units for non-parametric coordinates.

v 2.683624 0.000000 0.495186
v 0.404633 0.000000 0.459564
v 2.686600 1.115364 0.431862
v 0.476974 1.278636 0.366150
v 1.996384 0.590000 0.996536
v 0.708954 0.709193 0.918976
v 2.035721 0.000000 1.028900
v 0.598770 0.000000 0.944191
v 1.129593 0.000000 0.981125
v 1.186584 0.709193 0.946884
v 1.383026 1.278636 0.330635
v 5.000000 5.000000 0.000000
v 0.000000 5.000000 0.000000
v 5.000000 5.000000 0.152191
v 0.000000 5.000000 0.152191
v 5.000000 0.000000 0.417137
v 0.000000 0.000000 0.417137
v 2.498901 4.988319 0.192635
v 2.498901 0.000000 0.385536
v 1.249451 4.988319 0.306938
v 1.249451 0.000000 0.573807
v 3.748734 4.988319 0.061516
v 3.748734 0.000000 0.254417
v 4.915207 0.000000 0.271645
v 1.270737 0.000000 0.244911
v 4.446701 1.678902 0.181030
v 1.802841 2.056376 0.191956
v 4.230820 1.878481 0.679382
v 2.622757 2.026773 0.776321
v 4.427200 0.000000 0.753311
v 2.186844 0.000000 0.906876
v 3.281525 0.000000 1.077980
v 3.333313 2.026773 0.957489
v 3.465652 2.056376 0.123047
v 3.200760 0.473969 0.184738
v 1.178360 0.473969 0.340683
v 2.938965 3.166969 0.173004
v 1.472260 3.166969 0.215645
v 2.919220 3.166969 0.583466
v 1.997192 3.166969 0.675224
v 3.031784 0.473969 0.624229
v 1.760269 0.473969 0.748772
v 2.255676 0.473969 0.780067
v 2.190094 3.166969 0.695755
v 2.394852 3.166969 0.173950
vt 0.738504 0.007308
vt 0.738504 0.007308
vt 0.738504 0.007308
vt 0.738504 0.007308
vt 0.708995 0.007308
vt 0.708995 0.007308
vt 0.708995 0.007308
vt 0.708995 0.007308
vt 0.677228 0.007308
vt 0.677228 0.007308
vt 0.677228 0.007308
vt 0.677228 0.007308
vt 0.677228 0.007308
vt 0.677228 0.007308
vt 0.677228 0.007308
vt 0.677228 0.007308
vt 0.708995 0.007308
vt 0.708995 0.007308
vt 0.738504 0.007308
vt 0.738504 0.007308
vt 0.738504 0.007308
vt 0.738504 0.007308
vt 0.732717 0.009399
vt 0.732717 0.009399
vt 0.732717 0.009399
vt 0.732717 0.009399
vt 0.732717 0.009399
vt 0.702890 0.007307
vt 0.702890 0.007307
vt 0.702889 0.007307
vt 0.702889 0.007307
vt 0.702890 0.007307
vt 0.702890 0.007307
vt 0.702889 0.007307
vt 0.702889 0.007307
vt 0.677421 0.007307
vt 0.677421 0.007307
vt 0.677421 0.007307
vt 0.677421 0.007307
vt 0.677421 0.007307
vt 0.677421 0.007307
vt 0.677421 0.007307
vt 0.677421 0.007307
vt 0.732717 0.009399
vt 0.732717 0.009399
vt 0.738504 0.007308
vt 0.738504 0.007308
vt 0.738504 0.007308
vt 0.738504 0.007308
vt 0.708995 0.007308
vt 0.708995 0.007308
vt 0.708995 0.007308
vt 0.708995 0.007308
vt 0.677228 0.007308
vt 0.677228 0.007308
vt 0.677228 0.007308
vt 0.677228 0.007308
vt 0.677228 0.007308
vt 0.677228 0.007308
vt 0.677228 0.007308
vt 0.677228 0.007308
vt 0.708995 0.007308
vt 0.708995 0.007308
vt 0.738504 0.007308
vt 0.738504 0.007308
vt 0.738504 0.007308
vt 0.738504 0.007308
vt 0.738504 0.007308
vt 0.738504 0.007308
vt 0.738504 0.007308
vt 0.738504 0.007308
vt 0.708995 0.007308
vt 0.708995 0.007308
vt 0.708995 0.007308
vt 0.708995 0.007308
vt 0.677228 0.007308
vt 0.677228 0.007308
vt 0.677228 0.007308
vt 0.677228 0.007308
vt 0.677228 0.007308
vt 0.677228 0.007308
vt 0.677228 0.007308
vt 0.677228 0.007308
vt 0.708995 0.007308
vt 0.708995 0.007308
vt 0.738504 0.007308
vt 0.738504 0.007308
vt 0.738504 0.007308
vt 0.738504 0.007308
vn -0.003455 0.681515 0.731796
vn -0.004203 0.683659 0.729789
vn 0.004136 0.659408 0.751774
vn 0.004136 0.659408 0.751774
vn -0.058017 0.073340 0.995618
vn -0.057861 0.073366 0.995625
vn -0.063999 0.072361 0.995323
vn -0.063999 0.072361 0.995323
vn -0.882218 0.172651 0.438044
vn -0.882218 0.172651 0.438044
vn -0.882219 0.172651 0.438044
vn -0.882218 0.172651 0.438044
vn 0.222495 0.091724 0.970610
vn 0.222495 0.091724 0.970610
vn 0.222495 0.091724 0.970610
vn 0.222495 0.091724 0.970610
vn -0.054122 0.073976 0.995790
vn -0.057861 0.073366 0.995625
vn -0.058017 0.073340 0.995618
vn -0.054122 0.073976 0.995790
vn -0.007763 0.693778 0.720147
vn -0.004203 0.683659 0.729789
vn -0.003455 0.681515 0.731796
vn -0.007763 0.693778 0.720147
vn 0.000000 1.000000 0.000000
vn 0.000000 1.000000 0.000000
vn 0.000000 1.000000 0.000000
vn 0.000000 1.000000 0.000000
vn 0.000000 1.000000 0.000000
vn -0.100050 0.046581 0.993891
vn -0.100050 0.046581 0.993891
vn -0.100050 0.046581 0.993891
vn -0.100050 0.046581 0.993891
vn 0.120076 0.046477 0.991676
vn 0.120076 0.046477 0.991676
vn 0.120076 0.046477 0.991676
vn 0.120076 0.046477 0.991676
vn -0.060072 0.054228 0.996720
vn -0.060072 0.054228 0.996720
vn -0.060072 0.054228 0.996720
vn -0.060072 0.054228 0.996720
vn 0.039745 0.039266 0.998438
vn 0.039745 0.039266 0.998438
vn 0.039745 0.039266 0.998438
vn 0.039745 0.039266 0.998438
vn 0.000000 1.000000 0.000000
vn 0.000000 1.000000 0.000000
vn 0.000000 1.000000 0.000000
vn 0.000000 1.000000 0.000000
vn 0.000000 1.000000 0.000000
vn 0.000000 1.000000 0.000000
vn 0.048312 0.998803 0.007598
vn 0.065092 0.997849 -0.007817
vn 0.000784 0.998693 0.051115
vn 0.000784 0.998693 0.051115
vn 0.036430 0.153715 0.987444
vn 0.025034 0.155498 0.987519
vn -0.077962 0.170651 0.982242
vn -0.077962 0.170651 0.982242
vn -0.252540 0.232835 0.939155
vn -0.252540 0.232835 0.939155
vn -0.252540 0.232835 0.939155
vn -0.252540 0.232835 0.939155
vn 0.622217 0.343231 0.703590
vn 0.622217 0.343231 0.703590
vn 0.622217 0.343231 0.703590
vn 0.622217 0.343231 0.703590
vn 0.086231 0.145673 0.985568
vn 0.025034 0.155498 0.987519
vn 0.036430 0.153715 0.987444
vn 0.086231 0.145673 0.985568
vn 0.106696 0.993220 -0.046155
vn 0.065092 0.997849 -0.007817
vn 0.048312 0.998803 0.007598
vn 0.106696 0.993220 -0.046155
vn 0.169139 0.985545 0.009618
vn 0.237570 0.969617 -0.058346
vn 0.003184 0.985817 0.167794
vn 0.003184 0.985817 0.167794
vn 0.038813 0.046878 0.998146
vn 0.031378 0.047208 0.998392
vn -0.074980 0.051640 0.995847
vn -0.074980 0.051640 0.995847
vn -0.250804 0.070396 0.965475
vn -0.250804 0.070396 0.965475
vn -0.250804 0.070396 0.965475
vn -0.250804 0.070396 0.965475
vn 0.861102 0.121777 0.493633
vn 0.861102 0.121777 0.493633
vn 0.861102 0.121777 0.493633
vn 0.861102 0.121777 0.493633
vn 0.091261 0.044470 0.994834
vn 0.031378 0.047208 0.998392
vn 0.038813 0.046878 0.998146
vn 0.091261 0.044470 0.994834
vn 0.327661 0.932718 -0.150583
vn 0.237570 0.969617 -0.058346
vn 0.169139 0.985545 0.009618
vn 0.327661 0.932718 -0.150583
s off
f 10/1/1 11/2/2 4/3/3 6/4/4
f 9/5/5 10/6/6 6/7/7 8/8/8
f 2/9/9 8/10/10 6/11/11 4/12/12
f 7/13/13 1/14/14 3/15/15 5/16/16
f 5/17/17 10/6/18 9/5/19 7/18/20
f 3/19/21 11/20/22 10/21/23 5/22/24
f 22/23/25 13/24/26 15/25/27 20/26/28 18/27/29
f 22/28/30 23/29/31 16/30/32 14/31/33
f 20/32/34 21/33/35 19/34/36 18/35/37
f 15/36/38 17/37/39 21/38/40 20/39/41
f 18/40/42 19/41/43 23/42/44 22/43/45
f 12/44/46 13/24/47 22/23/48
f 12/44/49 22/23/50 14/45/51
f 33/46/52 34/47/53 27/48/54 29/49/55
f 32/50/56 33/51/57 29/52/58 31/53/59
f 25/54/60 31/55/61 29/56/62 27/57/63
f 30/58/64 24/59/65 26/60/66 28/61/67
f 28/62/68 33/51/69 32/50/70 30/63/71
f 26/64/72 34/65/73 33/66/74 28/67/75
f 44/68/76 45/69/77 38/70/78 40/71/79
f 43/72/80 44/73/81 40/74/82 42/75/83
f 36/76/84 42/77/85 40/78/86 38/79/87
f 41/80/88 35/81/89 37/82/90 39/83/91
f 39/84/92 44/73/93 43/72/94 41/85/95
f 37/86/96 45/87/97 44/88/98 39/89/99
