# This file uses meters as units for non-parametric coordinates.

v 0.000000 0.000000 5.000000
v 5.000000 0.000000 5.000000
v 0.000000 0.000000 0.000000
v 5.000000 0.000000 0.000000
v 4.873444 0.000000 4.873447
v 0.126556 0.000000 4.873447
v 4.873444 0.000000 0.126553
v 0.126556 0.000000 0.126553
v 0.126556 0.000000 1.496494
v 3.040390 0.000000 4.873447
v 1.706146 0.000000 1.454800
v 3.269745 0.000000 4.873447
v 2.156898 0.000000 0.126553
v 1.860573 0.000000 1.273762
v 1.895340 0.000000 0.126553
v 0.126556 0.000000 1.208942
v 1.601532 0.000000 1.156376
v 3.040390 0.000000 4.873447
v 0.126556 0.000000 4.873447
v 1.706146 0.000000 1.454800
v 0.126556 0.000000 1.496494
vt 0.701762 0.007997
vt 0.701762 0.007997
vt 0.701762 0.007997
vt 0.701762 0.007997
vt 0.670642 0.007997
vt 0.728362 0.007997
vt 0.728362 0.007997
vt 0.701762 0.007997
vt 0.701762 0.007997
vt 0.701762 0.007997
vt 0.701762 0.007997
vt 0.701762 0.007997
vt 0.701762 0.007997
vt 0.701762 0.007997
vt 0.701762 0.007997
vt 0.701762 0.007997
vt 0.701762 0.007997
vt 0.701762 0.007997
vt 0.701762 0.007997
vt 0.701762 0.007997
vt 0.701762 0.007997
vt 0.701762 0.007997
vt 0.701762 0.007997
vt 0.701762 0.007997
vt 0.701762 0.007997
vt 0.701762 0.007997
vt 0.701762 0.007997
vt 0.701762 0.007997
vt 0.701762 0.007997
vt 0.701762 0.007997
vt 0.701762 0.007997
vt 0.701762 0.007997
vt 0.701762 0.007997
vt 0.701762 0.007997
vt 0.701762 0.007997
vt 0.701762 0.007997
vt 0.701762 0.007997
vt 0.701762 0.007997
vt 0.701762 0.007997
vt 0.701762 0.007997
vt 0.728362 0.007997
vt 0.728362 0.007997
vt 0.728362 0.007997
vt 0.728362 0.007997
vt 0.728362 0.007997
vt 0.728362 0.007997
vt 0.728362 0.007997
vt 0.670642 0.007997
vt 0.670642 0.007997
vt 0.670642 0.007997
vt 0.737024 0.007997
vt 0.670642 0.007997
vt 0.670642 0.007997
vt 0.670642 0.007997
vt 0.670642 0.007997
vt 0.737024 0.007997
vt 0.670642 0.007997
vt 0.670642 0.007997
vt 0.670642 0.007997
vt 0.737024 0.007997
vt 0.670642 0.007997
vt 0.670642 0.007997
vt 0.737024 0.007997
vt 0.670642 0.007997
vt 0.670642 0.007997
vt 0.670642 0.007997
vn 0.000000 1.000000 0.000000
vn 0.000000 1.000000 0.000000
vn 0.000000 1.000000 0.000000
vn 0.000000 1.000000 0.000000
vn 0.000000 1.000000 0.000000
vn 0.000000 1.000000 0.000002
vn 0.000000 1.000000 0.000000
vn 0.000000 1.000000 0.000000
vn 0.000000 1.000000 0.000002
vn 0.000000 1.000000 0.000000
vn 0.000000 1.000000 0.000000
vn 0.000000 1.000000 0.000002
vn 0.000000 1.000000 0.000002
vn 0.000000 1.000000 0.000000
vn 0.000000 1.000000 0.000000
vn 0.000000 1.000000 0.000002
vn 0.000000 1.000000 0.000000
vn 0.000000 1.000000 0.000000
vn 0.000000 1.000000 0.000002
vn 0.000000 1.000000 0.000000
vn 0.000000 1.000000 0.000000
vn 0.000000 1.000000 0.000002
vn 0.000000 1.000000 0.000000
vn 0.000000 1.000000 0.000000
vn 0.000000 1.000000 0.000002
vn 0.000000 1.000000 0.000002
vn 0.000000 1.000000 0.000000
vn 0.000000 1.000000 0.000000
vn 0.000000 1.000000 0.000000
vn 0.000000 1.000000 0.000000
vn 0.000000 1.000000 0.000000
vn 0.000000 1.000000 0.000000
vn 0.000000 1.000000 0.000002
vn 0.000000 1.000000 0.000002
vn 0.000000 1.000000 0.000000
vn 0.000000 1.000000 0.000000
vn 0.000000 1.000000 0.000000
vn 0.000000 1.000000 0.000002
vn 0.000000 1.000000 0.000000
vn 0.000000 1.000000 0.000000
vn 0.000000 1.000000 0.000000
vn 0.000000 1.000000 0.000000
vn 0.000000 1.000000 0.000000
vn 0.000000 1.000000 0.000000
vn 0.000000 1.000000 0.000000
vn 0.000000 1.000000 0.000000
vn 0.000000 1.000000 0.000000
vn 0.000000 1.000000 0.000000
vn 0.000000 1.000000 0.000000
vn 0.000000 1.000000 0.000000
vn 0.000000 0.000000 0.000000
vn 0.000000 0.000000 0.000000
vn 0.000000 0.000000 0.000000
vn 0.000000 1.000000 0.000002
vn 0.000000 0.000000 0.000000
vn 0.000000 0.000000 0.000000
vn 0.000000 0.000000 0.000000
vn 0.000000 0.000000 0.000000
vn 0.000000 0.000000 0.000000
vn 0.000000 0.000000 0.000000
vn 0.000000 0.000000 0.000000
vn 0.000000 0.000000 0.000000
vn 0.000000 0.000000 0.000000
vn 0.000000 0.000000 0.000000
vn 0.000000 1.000000 0.000002
vn 0.000000 0.000000 0.000000
s off
f 17/15/1 11/9/2 14/12/3
f 1/39/4 2/2/5 5/37/6 12/27/7 10/30/8 6/31/9
f 2/40/10 4/3/11 7/34/12 5/36/13
f 4/38/14 3/4/15 8/24/16 15/19/17 13/26/18 7/33/19
f 3/35/20 1/1/21 6/32/22 9/21/23 16/18/24 8/23/25
f 19/51/26 18/63/27 20/60/28 21/56/29
f 13/6/30 14/47/31 12/46/32 5/45/33 7/44/34
f 16/7/35 17/43/36 15/42/37 8/41/38
f 9/22/39 11/8/40 17/16/41 16/17/42
f 17/14/43 14/13/44 13/25/45 15/20/46
f 14/11/47 11/10/48 10/29/49 12/28/50
f 6/5/51 10/66/52 18/62/53 19/57/54
f 10/50/55 11/64/56 20/59/57 18/52/58
f 11/49/59 9/61/60 21/55/61 20/53/62
f 9/48/63 6/65/64 19/58/65 21/54/66
