# This file uses meters as units for non-parametric coordinates.

v -2.062677 0.000000 1.917024
v -2.062677 0.000000 -1.832984
v -2.062677 1.137621 1.917024
v -2.062677 3.637621 -1.832984
v -2.771959 1.137621 1.917022
v -2.771959 3.637621 -1.832986
v -2.771959 0.000000 1.917022
v -2.771959 0.000000 -1.832986
v -2.771959 0.000000 -2.500001
v -2.062677 0.000000 -2.500001
v -2.771959 3.637621 -2.500001
v -2.062677 3.637621 -2.500001
v -2.062677 0.000000 2.500001
v -2.771959 0.000000 2.499999
v -2.062677 1.137621 2.500001
v -2.771959 1.137621 2.499999
v -2.062677 0.000000 2.500001
v 2.062666 0.000000 2.500001
v -2.062677 2.500000 -2.499999
v 2.062666 2.500000 -2.500000
v 2.062666 1.940963 -0.582976
v -2.062677 1.940963 -0.582974
v 2.062666 1.334997 0.667024
v -2.062677 1.334997 0.667026
v 2.062666 2.500000 -1.832976
v -2.062677 2.500000 -1.832974
v 2.062666 1.940963 -1.832976
v -2.062677 1.940963 -1.832974
v 2.062666 1.334997 -0.582976
v -2.062677 1.334997 -0.582974
v 2.062666 0.626354 0.667024
v -2.062677 0.626354 0.667026
v -2.062677 0.626354 1.917026
v 2.062666 0.626354 1.917024
v 2.771955 0.000000 1.917022
v 2.771955 0.000000 -1.832985
v 2.771955 1.137621 1.917022
v 2.771955 3.637621 -1.832985
v 2.062666 1.137621 1.917024
v 2.062666 3.637621 -1.832984
v 2.062666 0.000000 1.917024
v 2.062666 0.000000 -1.832984
v 2.062666 0.000000 -2.500000
v 2.771955 0.000000 -2.500000
v 2.062666 3.637621 -2.500000
v 2.771955 3.637621 -2.500000
v 2.771959 0.000000 2.499999
v 2.062666 0.000000 2.500001
v 2.771959 1.137621 2.499999
v 2.062666 1.137621 2.500001
v -2.062677 0.000000 1.917026
v 2.062666 0.000000 1.917024
v 2.500002 0.000000 2.500000
v -2.500002 0.000000 2.500000
v 2.500002 3.637621 -2.500000
v -2.500002 3.637621 -2.500001
vt 0.263377 0.063783
vt 0.263377 0.063783
vt 0.263377 0.063783
vt 0.263377 0.063783
vt 0.293834 0.063783
vt 0.293834 0.063783
vt 0.293834 0.063783
vt 0.293834 0.063783
vt 0.263377 0.063783
vt 0.263377 0.063783
vt 0.263377 0.063783
vt 0.263377 0.063783
vt 0.328988 0.063783
vt 0.265096 0.062107
vt 0.233603 0.063783
vt 0.233603 0.063783
vt 0.262184 0.063466
vt 0.262184 0.063466
vt 0.290099 0.063783
vt 0.328988 0.063783
vt 0.290099 0.063783
vt 0.328988 0.063783
vt 0.290099 0.063783
vt 0.328988 0.063783
vt 0.265096 0.062107
vt 0.265096 0.062107
vt 0.265096 0.062107
vt 0.265096 0.062107
vt 0.265096 0.062107
vt 0.265096 0.062107
vt 0.265096 0.062107
vt 0.290099 0.063783
vt 0.290099 0.063783
vt 0.233603 0.063783
vt 0.290099 0.063783
vt 0.290099 0.063783
vt 0.327155 0.063466
vt 0.327155 0.063466
vt 0.327155 0.063466
vt 0.327155 0.063466
vt 0.262184 0.063466
vt 0.262184 0.063466
vt 0.262184 0.063466
vt 0.262184 0.063466
vt 0.262184 0.063466
vt 0.262184 0.063466
vt 0.233603 0.063783
vt 0.290099 0.063783
vt 0.532970 0.955549
vt 0.593770 0.955549
vt 0.593770 0.955572
vt 0.532970 0.955572
vt 0.532970 0.955601
vt 0.593770 0.955601
vt 0.593770 0.955627
vt 0.532970 0.955626
vt 0.532819 0.955574
vt 0.615773 0.955574
vt 0.615773 0.955598
vt 0.532819 0.955598
vt 0.532819 0.955629
vt 0.615773 0.955629
vt 0.615773 0.955656
vt 0.532819 0.955656
vt 0.532819 0.960468
vt 0.615773 0.960468
vt 0.615773 0.960470
vt 0.532819 0.960470
vt 0.532970 0.960440
vt 0.593770 0.960440
vt 0.593770 0.960443
vt 0.532970 0.960443
vt 0.532819 0.960413
vt 0.615773 0.960414
vt 0.615773 0.960416
vt 0.532819 0.960416
vt 0.532819 0.955574
vt 0.615773 0.955574
vt 0.593770 0.960390
vt 0.532970 0.960390
vt 0.263377 0.063783
vt 0.263377 0.063783
vt 0.263377 0.063783
vt 0.263377 0.063783
vt 0.293834 0.063783
vt 0.293834 0.063783
vt 0.293834 0.063783
vt 0.293834 0.063783
vt 0.263377 0.063783
vt 0.263377 0.063783
vt 0.263377 0.063783
vt 0.263377 0.063783
vt 0.290099 0.063783
vt 0.290099 0.063783
vt 0.290099 0.063783
vt 0.290099 0.063783
vt 0.290099 0.063783
vt 0.290099 0.063783
vt 0.290099 0.063783
vt 0.290099 0.063783
vt 0.265096 0.062107
vt 0.265096 0.062107
vt 0.265096 0.062107
vt 0.265096 0.062107
vt 0.328988 0.063783
vt 0.328988 0.063783
vt 0.328988 0.063783
vt 0.328988 0.063783
vt 0.265096 0.062107
vt 0.265096 0.062107
vt 0.265096 0.062107
vt 0.265096 0.062107
vt 0.233603 0.063783
vt 0.233603 0.063783
vt 0.233603 0.063783
vt 0.233603 0.063783
vt 0.262184 0.063466
vt 0.262184 0.063466
vt 0.262184 0.063466
vt 0.262184 0.063466
vt 0.327155 0.063466
vt 0.327155 0.063466
vt 0.327155 0.063466
vt 0.327155 0.063466
vt 0.262184 0.063466
vt 0.262184 0.063466
vt 0.262184 0.063466
vt 0.262184 0.063466
vt 0.532970 0.960388
vt 0.615773 0.955574
vt 0.532819 0.955574
vt 0.593770 0.960388
vt 0.233603 0.063783
vt 0.290099 0.063783
vt 0.233603 0.063783
vt 0.290099 0.063783
vt 0.328988 0.063783
vt 0.290099 0.063783
vt 0.328988 0.063783
vt 0.290099 0.063783
vn 1.000000 0.000000 0.000000
vn 1.000000 0.000000 0.000000
vn 1.000000 0.000000 0.000000
vn 1.000000 0.000000 0.000000
vn -0.000001 0.832051 0.554699
vn -0.000001 0.832051 0.554699
vn -0.000001 0.832051 0.554699
vn -0.000001 0.832051 0.554699
vn -1.000000 0.000000 0.000000
vn -1.000000 0.000000 0.000000
vn -1.000000 0.000000 0.000000
vn -1.000000 0.000000 0.000000
vn 0.000000 0.000000 -1.000000
vn 0.000000 0.000000 -1.000000
vn 0.000000 0.000000 -1.000000
vn 0.000000 0.000000 -1.000000
vn 0.000000 0.000000 -1.000000
vn -0.000003 0.000000 1.000000
vn -0.000003 0.000000 1.000000
vn -0.000003 0.000000 1.000000
vn -0.000003 0.000000 1.000000
vn -0.000003 0.000000 1.000000
vn -1.000000 0.000000 0.000000
vn -1.000000 0.000000 0.000000
vn -1.000000 0.000000 0.000000
vn -1.000000 0.000000 0.000000
vn 0.000000 1.000000 -0.000000
vn 0.000000 1.000000 -0.000000
vn 0.000000 1.000000 -0.000000
vn 0.000000 1.000000 -0.000000
vn 0.000000 1.000000 -0.000000
vn 1.000000 0.000000 0.000000
vn 1.000000 0.000000 0.000000
vn 1.000000 0.000000 0.000000
vn 1.000000 0.000000 0.000000
vn 0.000000 -1.000000 0.000000
vn 0.000000 -1.000000 0.000000
vn 0.000000 -1.000000 0.000000
vn 0.000000 -1.000000 0.000000
vn 0.000000 -1.000000 0.000000
vn 1.000000 0.000000 0.000000
vn 1.000000 0.000000 0.000000
vn 1.000000 0.000000 0.000000
vn 1.000000 0.000000 0.000000
vn 0.000000 1.000000 0.000000
vn 0.000000 1.000000 0.000000
vn 0.000000 1.000000 0.000000
vn 0.000000 1.000000 0.000000
vn -1.000000 0.000000 0.000000
vn -1.000000 0.000000 0.000000
vn -1.000000 0.000000 0.000000
vn -1.000000 0.000000 0.000000
vn 0.000000 1.000000 0.000000
vn 0.000000 1.000000 0.000000
vn 0.000000 1.000000 0.000000
vn 0.000000 1.000000 0.000000
vn 0.000000 1.000000 0.000000
vn 0.000000 1.000000 0.000000
vn 0.000000 1.000000 0.000000
vn 0.000000 1.000000 0.000000
vn 0.000000 1.000000 0.000000
vn 0.000000 1.000000 0.000000
vn 0.000000 1.000000 0.000000
vn 0.000000 1.000000 0.000000
vn 0.000000 1.000000 0.000000
vn 0.000000 1.000000 0.000000
vn 0.000000 1.000000 0.000000
vn 0.000000 1.000000 0.000000
vn 0.000000 0.000000 1.000000
vn 0.000000 0.000000 1.000000
vn 0.000000 0.000000 1.000000
vn 0.000000 0.000000 1.000000
vn 0.000000 0.000000 1.000000
vn 0.000000 0.000000 1.000000
vn 0.000000 0.000000 1.000000
vn 0.000000 0.000000 1.000000
vn 0.000000 0.000000 1.000000
vn 0.000000 0.000000 1.000000
vn 0.000000 0.000000 1.000000
vn 0.000000 0.000000 1.000000
vn 0.000000 0.681306 0.731999
vn 0.000000 0.681305 0.731999
vn 0.000000 0.000000 1.000000
vn 0.000000 0.000000 1.000000
vn 1.000000 0.000000 0.000000
vn 1.000000 0.000000 0.000000
vn 1.000000 0.000000 0.000000
vn 1.000000 0.000000 0.000000
vn 0.000001 0.832051 0.554699
vn 0.000001 0.832051 0.554699
vn 0.000001 0.832051 0.554699
vn 0.000001 0.832051 0.554699
vn -1.000000 0.000000 0.000000
vn -1.000000 0.000000 0.000000
vn -1.000000 0.000000 0.000000
vn -1.000000 0.000000 0.000000
vn 0.000000 0.000000 -1.000000
vn 0.000000 0.000000 -1.000000
vn 0.000000 0.000000 -1.000000
vn 0.000000 0.000000 -1.000000
vn 0.000000 0.000000 -1.000000
vn 0.000003 0.000000 1.000000
vn 0.000003 0.000000 1.000000
vn 0.000003 0.000000 1.000000
vn 0.000003 0.000000 1.000000
vn 0.000003 0.000000 1.000000
vn -1.000000 0.000000 0.000000
vn -1.000000 0.000000 0.000000
vn -1.000000 0.000000 0.000000
vn -1.000000 0.000000 0.000000
vn 0.000000 1.000000 0.000000
vn 0.000000 1.000000 0.000000
vn 0.000000 1.000000 0.000000
vn 0.000000 1.000000 0.000000
vn 0.000000 1.000000 0.000000
vn 1.000000 0.000000 0.000000
vn 1.000000 0.000000 0.000000
vn 1.000000 0.000000 0.000000
vn 1.000000 0.000000 0.000000
vn 0.000000 -1.000000 0.000000
vn 0.000000 -1.000000 0.000000
vn 0.000000 -1.000000 0.000000
vn 0.000000 -1.000000 0.000000
vn 0.000000 -1.000000 0.000000
vn 1.000000 0.000000 -0.000007
vn 1.000000 0.000000 -0.000007
vn 1.000000 0.000000 -0.000007
vn 1.000000 0.000000 -0.000007
vn 0.000000 1.000000 -0.000000
vn 0.000000 1.000000 -0.000000
vn 0.000000 1.000000 -0.000000
vn 0.000000 1.000000 -0.000000
vn -1.000000 0.000000 0.000000
vn -1.000000 0.000000 0.000000
vn -1.000000 0.000000 0.000000
vn -1.000000 0.000000 0.000000
vn 0.000000 1.000000 0.000000
vn 0.000000 1.000000 0.000000
vn 0.000000 0.681305 0.731999
vn 0.000000 0.681306 0.731999
s off
f 1/1/1 2/2/2 4/3/3 3/4/4
f 3/5/5 4/6/6 6/7/7 5/8/8
f 5/9/9 6/10/10 8/11/11 7/12/12
f 10/19/13 9/32/14 11/23/15 56/140/16 12/21/17
f 14/33/18 54/136/19 13/48/20 15/35/21 16/36/22
f 8/14/23 6/25/24 11/26/25 9/27/26
f 6/13/27 4/24/28 12/22/29 56/139/30 11/20/31
f 4/28/32 2/29/33 10/30/34 12/31/35
f 7/15/36 1/16/37 13/34/38 54/135/39 14/47/40
f 1/17/41 3/18/42 15/41/43 13/42/44
f 3/37/45 5/38/46 16/39/47 15/40/48
f 5/43/49 7/44/50 14/45/51 16/46/52
f 33/49/53 34/50/54 31/51/55 32/52/56
f 22/53/57 21/54/58 27/55/59 28/56/60
f 24/57/61 23/58/62 29/59/63 30/60/64
f 26/61/65 25/62/66 20/63/67 19/64/68
f 28/65/69 27/66/70 25/67/71 26/68/72
f 30/69/73 29/70/74 21/71/75 22/72/76
f 32/73/77 31/74/78 23/75/79 24/76/80
f 51/129/81 52/132/82 34/79/83 33/80/84
f 35/81/85 36/82/86 38/83/87 37/84/88
f 37/85/89 38/86/90 40/87/91 39/88/92
f 39/89/93 40/90/94 42/91/95 41/92/96
f 44/93/97 43/94/98 45/95/99 55/138/100 46/96/101
f 48/97/102 53/134/103 47/98/104 49/99/105 50/100/106
f 42/101/107 40/102/108 45/103/109 43/104/110
f 40/105/111 38/106/112 46/107/113 55/137/114 45/108/115
f 38/109/116 36/110/117 44/111/118 46/112/119
f 41/113/120 35/114/121 47/115/122 53/133/123 48/116/124
f 35/117/125 37/118/126 49/119/127 47/120/128
f 37/121/129 39/122/130 50/123/131 49/124/132
f 39/125/133 41/126/134 48/127/135 50/128/136
f 17/77/137 18/78/138 52/130/139 51/131/140
