# This file uses meters as units for non-parametric coordinates.

v 0.614818 0.002071 -4.533611
v 0.127027 0.002071 -5.613609
v 0.614818 0.130790 -4.533611
v 0.127027 0.130790 -5.613609
v -1.491932 0.130790 -3.582081
v -1.979723 0.130790 -4.662075
v -1.491932 0.002071 -3.582081
v -1.979723 0.002071 -4.662075
v -3.124828 0.002585 -2.621300
v -3.796606 0.002585 -2.621300
v -3.124828 0.127893 -2.591862
v -3.796606 0.127893 -2.591862
v -3.124828 -0.032566 -1.908798
v -3.796606 -0.032566 -1.908798
v -3.124828 -0.157874 -1.938232
v -3.796606 -0.157874 -1.938232
v -4.083858 -0.000000 -4.477901
v -4.686571 -0.000000 -4.181217
v -4.083858 0.128719 -4.477901
v -4.686571 0.128719 -4.181217
v -3.773977 0.128719 -3.848381
v -4.376690 0.128719 -3.551697
v -3.773977 -0.000000 -3.848381
v -4.376690 -0.000000 -3.551697
v -1.445021 0.037388 -0.530464
v -2.149142 -0.167619 -0.530464
v -1.481006 0.160975 -0.530464
v -2.185123 -0.044031 -0.530464
v -1.481006 0.160975 -0.071030
v -2.185123 -0.044031 -0.071030
v -1.445021 0.037388 -0.071030
v -2.149142 -0.167619 -0.071030
v 0.000002 0.000000 -5.000000
v -5.000000 0.000000 -5.000000
v 0.000002 0.000000 0.000000
v -5.000000 0.000000 0.000000
v -0.049201 0.000000 -4.950829
v -4.950798 0.000000 -4.950829
v -4.950798 0.000000 -0.049229
v -0.049201 0.000000 -0.049229
v -2.500014 0.000000 -0.049229
v -2.500014 0.000000 -4.950829
v -0.049201 0.000000 -2.500015
v -2.500014 0.000000 -2.500015
v -4.950798 0.000000 -2.500015
v -2.637089 0.000000 -4.950829
v -2.637089 0.000000 -2.500015
v -2.637089 0.000000 -0.049229
v -4.950798 0.000000 -2.600296
v -2.637089 0.000000 -2.600296
v -2.500014 -0.000000 -2.600296
v -0.049201 0.000000 -2.600296
v -2.637089 0.000000 -4.039803
v -4.950798 0.000000 -4.039803
v -2.637089 0.000000 -4.157475
v -4.950798 0.000000 -4.157475
v -1.605125 0.000000 -2.500015
v -1.605125 0.000000 -0.049229
v -1.734087 0.000000 -2.500015
v -1.734087 0.000000 -0.049229
v -0.779558 0.000000 -2.500015
v -0.779558 0.000000 -0.049229
v -0.908889 0.000000 -2.500015
v -0.908889 0.000000 -0.049229
v -2.637089 0.000000 -3.427059
v -4.950798 0.000000 -3.427059
v -2.637089 0.000000 -3.285275
v -4.950798 0.000000 -3.285275
v -2.500014 0.000000 -0.570026
v -1.734087 0.000000 -0.570026
v -2.500014 0.000000 -0.704147
v -1.734087 0.000000 -0.704147
v -0.779558 0.000000 -1.776268
v -0.049201 0.000000 -1.776268
v -0.779558 0.000000 -1.894772
v -0.049201 0.000000 -1.894772
v -3.319712 0.000000 -2.600296
v -3.319712 0.000000 -3.285275
v -3.435281 0.000000 -3.285275
v -3.435281 0.000000 -2.600296
v -4.109383 0.000000 -4.157475
v -4.109383 0.000000 -4.950829
v -4.228088 0.000000 -4.157475
v -4.228088 0.000000 -4.950829
v -1.293770 0.000000 -2.600296
v -1.293770 0.000000 -4.950829
v -1.180285 0.000000 -2.600296
v -1.180285 0.000000 -4.950829
v -2.637089 -0.134913 -2.500015
v -2.637089 -0.134913 -0.049229
v -4.950798 -0.134913 -2.500015
v -4.950798 -0.134913 -0.049229
v -4.228088 -0.134913 -4.157475
v -4.950798 -0.134913 -4.157475
v -4.228088 -0.134913 -4.950829
v -4.950798 -0.134913 -4.950829
v -1.734087 -0.134913 -0.570026
v -1.734087 -0.134913 -0.049229
v -2.500014 -0.134913 -0.570026
v -2.500014 -0.134913 -0.049229
v -3.319712 -0.134913 -2.600296
v -3.319712 -0.134913 -3.285275
v -2.637089 -0.134913 -2.600296
v -2.637089 -0.134913 -3.285275
v -0.049201 -0.134913 -4.950829
v -1.180285 -0.134913 -4.950829
v -1.180285 -0.134913 -2.600296
v -0.049201 -0.134913 -2.600296
vt 0.261122 0.063783
vt 0.261122 0.063783
vt 0.261122 0.063783
vt 0.261122 0.063783
vt 0.327005 0.063783
vt 0.327005 0.063783
vt 0.327005 0.063783
vt 0.327005 0.063783
vt 0.261122 0.063783
vt 0.261122 0.063783
vt 0.261122 0.063783
vt 0.261122 0.063783
vt 0.197758 0.063783
vt 0.197758 0.063783
vt 0.197758 0.063783
vt 0.197758 0.063783
vt 0.231348 0.063783
vt 0.231348 0.063783
vt 0.231348 0.063783
vt 0.231348 0.063783
vt 0.231348 0.063783
vt 0.231348 0.063783
vt 0.231348 0.063783
vt 0.231348 0.063783
vt 0.261122 0.063783
vt 0.261122 0.063783
vt 0.261122 0.063783
vt 0.261122 0.063783
vt 0.327005 0.063783
vt 0.327005 0.063783
vt 0.327005 0.063783
vt 0.327005 0.063783
vt 0.261122 0.063783
vt 0.261122 0.063783
vt 0.261122 0.063783
vt 0.261122 0.063783
vt 0.197758 0.063783
vt 0.197758 0.063783
vt 0.197758 0.063783
vt 0.197758 0.063783
vt 0.231348 0.063783
vt 0.231348 0.063783
vt 0.231348 0.063783
vt 0.231348 0.063783
vt 0.231348 0.063783
vt 0.231348 0.063783
vt 0.231348 0.063783
vt 0.231348 0.063783
vt 0.261122 0.063783
vt 0.261122 0.063783
vt 0.261122 0.063783
vt 0.261122 0.063783
vt 0.327005 0.063783
vt 0.327005 0.063783
vt 0.327005 0.063783
vt 0.327005 0.063783
vt 0.261122 0.063783
vt 0.261122 0.063783
vt 0.261122 0.063783
vt 0.261122 0.063783
vt 0.197758 0.063783
vt 0.197758 0.063783
vt 0.197758 0.063783
vt 0.197758 0.063783
vt 0.231348 0.063783
vt 0.231348 0.063783
vt 0.231348 0.063783
vt 0.231348 0.063783
vt 0.231348 0.063783
vt 0.231348 0.063783
vt 0.231348 0.063783
vt 0.231348 0.063783
vt 0.261122 0.063783
vt 0.261122 0.063783
vt 0.261122 0.063783
vt 0.261122 0.063783
vt 0.327005 0.063783
vt 0.327005 0.063783
vt 0.327005 0.063783
vt 0.327005 0.063783
vt 0.261122 0.063783
vt 0.261122 0.063783
vt 0.261122 0.063783
vt 0.261122 0.063783
vt 0.197758 0.063783
vt 0.197758 0.063783
vt 0.197758 0.063783
vt 0.197758 0.063783
vt 0.231348 0.063783
vt 0.231348 0.063783
vt 0.231348 0.063783
vt 0.231348 0.063783
vt 0.231348 0.063783
vt 0.231348 0.063783
vt 0.231348 0.063783
vt 0.231348 0.063783
vt 0.263104 0.064115
vt 0.263104 0.064115
vt 0.263104 0.064115
vt 0.263104 0.064115
vt 0.263104 0.064115
vt 0.263104 0.064115
vt 0.263104 0.064115
vt 0.263104 0.064115
vt 0.263104 0.064115
vt 0.263104 0.064115
vt 0.263104 0.064115
vt 0.263104 0.064115
vt 0.263104 0.064115
vt 0.263104 0.064115
vt 0.263104 0.064115
vt 0.263104 0.064115
vt 0.263104 0.064115
vt 0.263104 0.064115
vt 0.263104 0.064115
vt 0.263104 0.064115
vt 0.263104 0.064115
vt 0.263104 0.064115
vt 0.263104 0.064115
vt 0.263104 0.064115
vt 0.263104 0.064115
vt 0.263104 0.064115
vt 0.263104 0.064115
vt 0.263104 0.064115
vt 0.263104 0.064115
vt 0.263104 0.064115
vt 0.263104 0.064115
vt 0.263104 0.064115
vt 0.263104 0.064115
vt 0.263104 0.064115
vt 0.263104 0.064115
vt 0.263104 0.064115
vt 0.263104 0.064115
vt 0.263104 0.064115
vt 0.263104 0.064115
vt 0.263104 0.064115
vt 0.263104 0.064115
vt 0.263104 0.064115
vt 0.263104 0.064115
vt 0.263104 0.064115
vt 0.325887 0.064115
vt 0.325887 0.064115
vt 0.325887 0.064115
vt 0.325887 0.064115
vt 0.299353 0.064115
vt 0.299353 0.064115
vt 0.299353 0.064115
vt 0.299353 0.064115
vt 0.263104 0.064115
vt 0.263104 0.064115
vt 0.263104 0.064115
vt 0.263104 0.064115
vt 0.263104 0.064115
vt 0.263104 0.064115
vt 0.263104 0.064115
vt 0.263104 0.064115
vt 0.263104 0.064115
vt 0.263104 0.064115
vt 0.263104 0.064115
vt 0.263104 0.064115
vt 0.264972 0.063803
vt 0.264972 0.063803
vt 0.264971 0.063803
vt 0.264971 0.063803
vt 0.263104 0.064115
vt 0.263104 0.064115
vt 0.263104 0.064115
vt 0.263104 0.064115
vt 0.263104 0.064115
vt 0.263104 0.064115
vt 0.263104 0.064115
vt 0.263104 0.064115
vt 0.263104 0.064115
vt 0.263104 0.064115
vt 0.263104 0.064115
vt 0.263104 0.064115
vt 0.263104 0.064115
vt 0.263104 0.064115
vt 0.263104 0.064115
vt 0.263104 0.064115
vt 0.263104 0.064115
vt 0.263104 0.064115
vt 0.263104 0.064115
vt 0.263104 0.064115
vt 0.263104 0.064115
vt 0.263104 0.064115
vt 0.263104 0.064115
vt 0.263104 0.064115
vt 0.263104 0.064115
vt 0.263104 0.064115
vt 0.264971 0.063803
vt 0.264971 0.063803
vt 0.264971 0.063803
vt 0.264971 0.063803
vt 0.263104 0.064115
vt 0.263104 0.064115
vt 0.263104 0.064115
vt 0.263104 0.064115
vt 0.263104 0.064115
vt 0.263104 0.064115
vt 0.299212 0.064115
vt 0.299212 0.064115
vt 0.299212 0.064115
vt 0.299212 0.064115
vt 0.263104 0.064115
vt 0.263104 0.064115
vt 0.263104 0.064115
vt 0.263104 0.064115
vt 0.263104 0.064115
vt 0.263104 0.064115
vt 0.299353 0.064115
vt 0.299353 0.064115
vt 0.299353 0.064115
vt 0.299353 0.064115
vt 0.299353 0.064115
vt 0.299353 0.064115
vt 0.299353 0.064115
vt 0.299353 0.064115
vt 0.263104 0.064115
vt 0.263104 0.064115
vt 0.263104 0.064115
vt 0.263104 0.064115
vt 0.263104 0.064115
vt 0.263104 0.064115
vt 0.264972 0.063803
vt 0.264972 0.063803
vt 0.264972 0.063803
vt 0.264972 0.063803
vt 0.263104 0.064115
vt 0.263104 0.064115
vt 0.263104 0.064115
vt 0.263104 0.064115
vt 0.299353 0.064115
vt 0.299353 0.064115
vt 0.299353 0.064115
vt 0.299353 0.064115
vt 0.263104 0.064115
vt 0.263104 0.064115
vt 0.263104 0.064115
vt 0.263104 0.064115
vt 0.264971 0.063803
vt 0.264971 0.063803
vt 0.264972 0.063803
vt 0.264972 0.063803
vt 0.299353 0.064115
vt 0.299353 0.064115
vt 0.299353 0.064115
vt 0.299353 0.064115
vt 0.299212 0.064115
vt 0.299212 0.064115
vt 0.299212 0.064115
vt 0.299212 0.064115
vt 0.263104 0.064115
vt 0.263104 0.064115
vt 0.263104 0.064115
vt 0.263104 0.064115
vt 0.270255 0.064115
vt 0.270255 0.064115
vt 0.270255 0.064115
vt 0.270255 0.064115
vt 0.264972 0.063803
vt 0.264972 0.063803
vt 0.264972 0.063803
vt 0.264972 0.063803
vt 0.202593 0.064350
vt 0.202593 0.064350
vt 0.202593 0.064350
vt 0.202593 0.064350
vt 0.202593 0.064350
vt 0.202593 0.064350
vt 0.202593 0.064350
vt 0.202593 0.064350
vt 0.202593 0.064350
vt 0.202593 0.064350
vt 0.202593 0.064350
vt 0.202593 0.064350
vt 0.202593 0.064350
vt 0.202593 0.064350
vt 0.202593 0.064350
vt 0.202593 0.064350
vt 0.202593 0.064350
vt 0.202593 0.064350
vt 0.202593 0.064350
vt 0.202593 0.064350
vt 0.202593 0.064350
vt 0.202593 0.064350
vt 0.202593 0.064350
vt 0.202593 0.064350
vt 0.202593 0.064350
vt 0.202593 0.064350
vt 0.202593 0.064350
vt 0.202593 0.064350
vt 0.202593 0.064350
vt 0.202593 0.064350
vt 0.202593 0.064350
vt 0.202593 0.064350
vt 0.202593 0.064350
vt 0.202593 0.064350
vt 0.202593 0.064350
vt 0.202593 0.064350
vt 0.202593 0.064350
vt 0.202593 0.064350
vt 0.202593 0.064350
vt 0.202593 0.064350
vn 0.911355 0.000000 -0.411622
vn 0.911355 0.000000 -0.411622
vn 0.911355 0.000000 -0.411622
vn 0.911355 0.000000 -0.411622
vn 0.000000 1.000000 0.000000
vn 0.000000 1.000000 0.000000
vn 0.000000 1.000000 0.000000
vn 0.000000 1.000000 0.000000
vn -0.911355 0.000000 0.411622
vn -0.911355 0.000000 0.411622
vn -0.911355 0.000000 0.411622
vn -0.911355 0.000000 0.411622
vn 0.000000 -1.000000 0.000000
vn 0.000000 -1.000000 0.000000
vn 0.000000 -1.000000 0.000000
vn 0.000000 -1.000000 0.000000
vn -0.411622 0.000000 -0.911355
vn -0.411622 0.000000 -0.911355
vn -0.411622 0.000000 -0.911355
vn -0.411622 0.000000 -0.911355
vn 0.411622 0.000000 0.911355
vn 0.411622 0.000000 0.911355
vn 0.411622 0.000000 0.911355
vn 0.411622 0.000000 0.911355
vn -0.000000 0.228686 -0.973500
vn -0.000000 0.228686 -0.973500
vn -0.000000 0.228686 -0.973500
vn -0.000000 0.228686 -0.973500
vn 0.000000 0.973500 0.228686
vn 0.000000 0.973500 0.228686
vn 0.000000 0.973500 0.228686
vn 0.000000 0.973500 0.228686
vn 0.000000 -0.228686 0.973500
vn 0.000000 -0.228686 0.973500
vn 0.000000 -0.228686 0.973500
vn 0.000000 -0.228686 0.973500
vn -0.000000 -0.973500 -0.228686
vn -0.000000 -0.973500 -0.228686
vn -0.000000 -0.973500 -0.228686
vn -0.000000 -0.973500 -0.228686
vn -1.000000 0.000000 0.000000
vn -1.000000 0.000000 0.000000
vn -1.000000 0.000000 0.000000
vn -1.000000 0.000000 0.000000
vn 1.000000 0.000000 -0.000000
vn 1.000000 0.000000 -0.000000
vn 1.000000 0.000000 -0.000000
vn 1.000000 0.000000 -0.000000
vn -0.441640 0.000000 -0.897192
vn -0.441640 0.000000 -0.897192
vn -0.441640 0.000000 -0.897192
vn -0.441640 0.000000 -0.897192
vn 0.000000 1.000000 0.000000
vn 0.000000 1.000000 0.000000
vn 0.000000 1.000000 0.000000
vn 0.000000 1.000000 0.000000
vn 0.441640 0.000000 0.897192
vn 0.441640 0.000000 0.897192
vn 0.441640 0.000000 0.897192
vn 0.441640 0.000000 0.897192
vn 0.000000 -1.000000 0.000000
vn 0.000000 -1.000000 0.000000
vn 0.000000 -1.000000 0.000000
vn 0.000000 -1.000000 0.000000
vn -0.897192 0.000000 0.441640
vn -0.897192 0.000000 0.441640
vn -0.897192 0.000000 0.441640
vn -0.897192 0.000000 0.441640
vn 0.897192 0.000000 -0.441640
vn 0.897192 0.000000 -0.441640
vn 0.897192 0.000000 -0.441640
vn 0.897192 0.000000 -0.441640
vn -0.000000 0.000000 -1.000000
vn -0.000000 0.000000 -1.000000
vn -0.000000 0.000000 -1.000000
vn -0.000000 0.000000 -1.000000
vn -0.279546 0.960132 0.000000
vn -0.279546 0.960132 0.000000
vn -0.279546 0.960132 0.000000
vn -0.279546 0.960132 0.000000
vn 0.000000 0.000000 1.000000
vn 0.000000 0.000000 1.000000
vn 0.000000 0.000000 1.000000
vn 0.000000 0.000000 1.000000
vn 0.279546 -0.960132 -0.000000
vn 0.279546 -0.960132 -0.000000
vn 0.279546 -0.960132 -0.000000
vn 0.279546 -0.960132 -0.000000
vn -0.960132 -0.279546 0.000000
vn -0.960132 -0.279546 0.000000
vn -0.960132 -0.279546 0.000000
vn -0.960132 -0.279546 0.000000
vn 0.960132 0.279546 -0.000000
vn 0.960132 0.279546 -0.000000
vn 0.960132 0.279546 -0.000000
vn 0.960132 0.279546 -0.000000
vn 0.000000 1.000000 0.000000
vn 0.000000 1.000000 0.000000
vn 0.000000 1.000000 0.000000
vn 0.000000 1.000000 -0.000000
vn 0.000000 1.000000 -0.000000
vn 0.000000 1.000000 0.000000
vn 0.000000 1.000000 -0.000000
vn 0.000000 1.000000 -0.000000
vn 0.000000 1.000000 -0.000000
vn 0.000000 1.000000 -0.000000
vn 0.000000 1.000000 -0.000000
vn 0.000000 1.000000 -0.000000
vn 0.000000 1.000000 -0.000000
vn 0.000000 1.000000 -0.000000
vn 0.000000 1.000000 -0.000000
vn 0.000000 1.000000 -0.000000
vn 0.000000 1.000000 0.000000
vn 0.000000 1.000000 0.000000
vn 0.000000 1.000000 0.000000
vn 0.000000 1.000000 0.000000
vn 0.000000 1.000000 0.000000
vn 0.000000 1.000000 0.000000
vn 0.000000 1.000000 0.000000
vn 0.000000 1.000000 0.000000
vn 0.000000 1.000000 0.000000
vn 0.000000 1.000000 0.000000
vn 0.000000 1.000000 0.000000
vn 0.000000 1.000000 0.000000
vn 0.000000 1.000000 0.000000
vn 0.000000 1.000000 0.000000
vn 0.000000 1.000000 0.000000
vn 0.000000 1.000000 0.000000
vn 0.000000 1.000000 0.000000
vn 0.000000 1.000000 0.000000
vn 0.000000 1.000000 0.000000
vn 0.000000 1.000000 0.000000
vn 0.000000 1.000000 0.000000
vn 0.000000 1.000000 0.000000
vn 0.000000 1.000000 0.000000
vn 0.000000 1.000000 0.000000
vn 0.000000 1.000000 0.000000
vn 0.000000 1.000000 0.000000
vn 0.000000 1.000000 0.000000
vn 0.000000 1.000000 0.000000
vn -0.000000 1.000000 -0.000000
vn -0.000000 1.000000 -0.000000
vn 0.000000 1.000000 0.000000
vn 0.000000 1.000000 0.000000
vn -0.000000 1.000000 -0.000000
vn -0.000000 1.000000 0.000000
vn 0.000000 1.000000 0.000000
vn 0.000000 1.000000 0.000000
vn 0.000000 1.000000 -0.000000
vn 0.000000 1.000000 -0.000000
vn 0.000000 1.000000 0.000000
vn 0.000000 1.000000 -0.000000
vn 0.000000 1.000000 -0.000000
vn 0.000000 1.000000 -0.000000
vn 0.000000 1.000000 0.000000
vn 0.000000 1.000000 0.000000
vn -0.000000 1.000000 -0.000000
vn -0.000000 1.000000 0.000000
vn -0.000000 1.000000 -0.000000
vn -0.000000 1.000000 -0.000000
vn 0.000000 1.000000 0.000000
vn 0.000000 1.000000 0.000000
vn 0.000000 1.000000 0.000000
vn 0.000000 1.000000 0.000000
vn -0.000000 1.000000 -0.000000
vn 0.000000 1.000000 -0.000000
vn 0.000000 1.000000 -0.000000
vn -0.000000 1.000000 -0.000000
vn -0.000000 1.000000 0.000000
vn -0.000000 1.000000 0.000000
vn 0.000000 1.000000 0.000000
vn 0.000000 1.000000 -0.000000
vn 0.000000 1.000000 -0.000000
vn 0.000000 1.000000 -0.000000
vn -0.000000 1.000000 -0.000000
vn -0.000000 1.000000 -0.000000
vn -0.000000 1.000000 -0.000000
vn 0.000000 1.000000 0.000000
vn 0.000000 1.000000 -0.000000
vn -0.000000 1.000000 -0.000000
vn -0.000000 1.000000 -0.000000
vn -0.000000 1.000000 -0.000000
vn -0.000000 1.000000 -0.000000
vn -0.000000 1.000000 -0.000000
vn -0.000000 1.000000 0.000000
vn 0.000000 1.000000 0.000000
vn 0.000000 1.000000 -0.000000
vn -0.000000 1.000000 -0.000000
vn -0.000000 1.000000 0.000000
vn -0.000000 1.000000 0.000000
vn 0.000000 1.000000 0.000000
vn 0.000000 1.000000 0.000000
vn 0.000000 1.000000 0.000000
vn 0.000000 1.000000 0.000000
vn 0.000000 1.000000 0.000000
vn -0.000000 1.000000 -0.000000
vn -0.000000 1.000000 -0.000000
vn 0.000000 1.000000 0.000000
vn 0.000000 1.000000 0.000000
vn 0.000000 1.000000 0.000000
vn 0.000000 1.000000 0.000000
vn 0.000000 1.000000 0.000000
vn -0.000000 1.000000 -0.000000
vn 0.000000 1.000000 -0.000000
vn 0.000000 1.000000 0.000000
vn 0.000000 1.000000 0.000000
vn 0.000000 1.000000 0.000000
vn -0.000000 1.000000 -0.000000
vn -0.000000 1.000000 -0.000000
vn 0.000000 1.000000 0.000000
vn 0.000000 1.000000 0.000000
vn -0.000000 1.000000 -0.000000
vn -0.000000 1.000000 -0.000000
vn 0.000000 1.000000 0.000000
vn -0.000000 1.000000 -0.000000
vn 0.000000 1.000000 -0.000000
vn 0.000000 1.000000 0.000000
vn -0.000000 1.000000 0.000000
vn -0.000000 1.000000 0.000000
vn -0.000000 1.000000 -0.000000
vn -0.000000 1.000000 -0.000000
vn 0.000000 1.000000 -0.000000
vn 0.000000 1.000000 -0.000000
vn -0.000000 1.000000 -0.000000
vn 0.000000 1.000000 0.000000
vn 0.000000 1.000000 0.000000
vn 0.000000 1.000000 0.000000
vn 0.000000 1.000000 0.000000
vn 0.000000 1.000000 0.000000
vn 0.000000 1.000000 0.000000
vn 0.000000 1.000000 0.000000
vn 0.000000 1.000000 0.000000
vn 0.000000 1.000000 0.000000
vn 0.000000 1.000000 0.000000
vn 0.000000 1.000000 0.000000
vn 0.000000 1.000000 0.000000
vn 0.000000 1.000000 0.000000
vn 0.000000 1.000000 0.000000
vn 0.000000 1.000000 0.000000
vn 0.000000 1.000000 0.000000
vn 0.000000 1.000000 0.000000
vn 0.000000 1.000000 0.000000
vn 0.000000 1.000000 0.000000
vn 0.000000 1.000000 0.000000
vn -0.000000 1.000000 0.000000
vn -0.000000 1.000000 0.000000
vn -0.000000 1.000000 -0.000000
vn -0.000000 1.000000 0.000000
vn -0.000000 1.000000 -0.000000
vn -0.000000 1.000000 -0.000000
vn 0.000000 1.000000 -0.000000
vn 0.000000 1.000000 -0.000000
vn 0.000000 1.000000 0.000000
vn -0.000000 1.000000 0.000000
vn -0.000000 1.000000 -0.000000
vn -0.000000 1.000000 -0.000000
vn -0.000000 1.000000 -0.000000
vn 0.000000 1.000000 0.000000
vn -0.000000 1.000000 0.000000
vn -0.000000 1.000000 -0.000000
vn 0.000000 1.000000 0.000000
vn 0.000000 1.000000 0.000000
vn 0.000000 1.000000 0.000000
vn 0.000000 1.000000 0.000000
vn -1.000000 0.000000 0.000000
vn -1.000000 0.000000 0.000000
vn -1.000000 0.000000 0.000000
vn -1.000000 0.000000 0.000000
vn -0.000000 0.000000 1.000000
vn -0.000000 0.000000 1.000000
vn -0.000000 0.000000 1.000000
vn -0.000000 0.000000 1.000000
vn 1.000000 0.000000 0.000000
vn 1.000000 0.000000 0.000000
vn 1.000000 0.000000 0.000000
vn 1.000000 0.000000 0.000000
vn 0.000000 0.000000 -1.000000
vn 0.000000 0.000000 -1.000000
vn 0.000000 0.000000 -1.000000
vn 0.000000 0.000000 -1.000000
vn 0.000000 0.000000 -1.000000
vn 0.000000 0.000000 -1.000000
vn 0.000000 0.000000 -1.000000
vn 0.000000 0.000000 -1.000000
vn -1.000000 0.000000 0.000000
vn -1.000000 0.000000 0.000000
vn -1.000000 0.000000 0.000000
vn -1.000000 0.000000 0.000000
vn 0.000000 0.000000 1.000000
vn 0.000000 0.000000 1.000000
vn 0.000000 0.000000 1.000000
vn 0.000000 0.000000 1.000000
vn 1.000000 0.000000 0.000000
vn 1.000000 0.000000 0.000000
vn 1.000000 0.000000 0.000000
vn 1.000000 0.000000 0.000000
vn -1.000000 0.000000 0.000000
vn -1.000000 0.000000 0.000000
vn -1.000000 0.000000 0.000000
vn -1.000000 0.000000 0.000000
vn 0.000000 0.000000 1.000000
vn 0.000000 0.000000 1.000000
vn 0.000000 0.000000 1.000000
vn 0.000000 0.000000 1.000000
vn 1.000000 0.000000 0.000000
vn 1.000000 0.000000 0.000000
vn 1.000000 0.000000 0.000000
vn 1.000000 0.000000 0.000000
vn 0.000000 0.000000 -1.000000
vn 0.000000 0.000000 -1.000000
vn 0.000000 0.000000 -1.000000
vn 0.000000 0.000000 -1.000000
vn 1.000000 0.000000 0.000000
vn 1.000000 0.000000 0.000000
vn 1.000000 0.000000 0.000000
vn 1.000000 0.000000 0.000000
vn 0.000000 0.000000 -1.000000
vn 0.000000 0.000000 -1.000000
vn 0.000000 0.000000 -1.000000
vn 0.000000 0.000000 -1.000000
vn -1.000000 0.000000 0.000000
vn -1.000000 0.000000 0.000000
vn -1.000000 0.000000 0.000000
vn -1.000000 0.000000 0.000000
vn 0.000000 0.000000 1.000000
vn 0.000000 0.000000 1.000000
vn 0.000000 0.000000 1.000000
vn 0.000000 0.000000 1.000000
vn 0.000000 0.000000 1.000000
vn 0.000000 0.000000 1.000000
vn 0.000000 0.000000 1.000000
vn 0.000000 0.000000 1.000000
vn 1.000000 0.000000 0.000000
vn 1.000000 0.000000 0.000000
vn 1.000000 0.000000 0.000000
vn 1.000000 0.000000 0.000000
vn 0.000000 0.000000 -1.000000
vn 0.000000 0.000000 -1.000000
vn 0.000000 0.000000 -1.000000
vn 0.000000 0.000000 -1.000000
vn -1.000000 0.000000 0.000000
vn -1.000000 0.000000 0.000000
vn -1.000000 0.000000 0.000000
vn -1.000000 0.000000 0.000000
s off
f 1/1/1 2/2/2 4/3/3 3/4/4
f 3/5/5 4/6/6 6/7/7 5/8/8
f 5/9/9 6/10/10 8/11/11 7/12/12
f 7/13/13 8/14/14 2/15/15 1/16/16
f 2/17/17 8/18/18 6/19/19 4/20/20
f 7/21/21 1/22/22 3/23/23 5/24/24
f 9/25/25 10/26/26 12/27/27 11/28/28
f 11/29/29 12/30/30 14/31/31 13/32/32
f 13/33/33 14/34/34 16/35/35 15/36/36
f 15/37/37 16/38/38 10/39/39 9/40/40
f 10/41/41 16/42/42 14/43/43 12/44/44
f 15/45/45 9/46/46 11/47/47 13/48/48
f 17/49/49 18/50/50 20/51/51 19/52/52
f 19/53/53 20/54/54 22/55/55 21/56/56
f 21/57/57 22/58/58 24/59/59 23/60/60
f 23/61/61 24/62/62 18/63/63 17/64/64
f 18/65/65 24/66/66 22/67/67 20/68/68
f 23/69/69 17/70/70 19/71/71 21/72/72
f 25/73/73 26/74/74 28/75/75 27/76/76
f 27/77/77 28/78/78 30/79/79 29/80/80
f 29/81/81 30/82/82 32/83/83 31/84/84
f 31/85/85 32/86/86 26/87/87 25/88/88
f 26/89/89 32/90/90 30/91/91 28/92/92
f 31/93/93 25/94/94 27/95/95 29/96/96
f 41/97/97 69/98/98 71/99/99 44/100/100 47/101/101 48/102/102
f 33/103/103 34/104/104 38/105/105 84/106/106 82/107/107 46/108/108 42/109/109 86/110/110 88/111/111 37/112/112
f 34/113/113 36/114/114 39/115/115 45/116/116 49/117/117 68/118/118 66/119/119 54/120/120 56/121/121 38/122/122
f 36/123/123 35/124/124 40/125/125 62/126/126 64/127/127 58/128/128 60/129/129 41/130/130 48/131/131 39/132/132
f 35/133/133 33/134/134 37/135/135 52/136/136 43/137/137 76/138/138 74/139/139 40/140/140
f 43/141/141 61/142/142 75/143/143 76/144/144
f 85/145/145 86/146/146 42/147/147 51/148/148
f 46/149/149 55/150/150 53/151/151 65/152/152 67/153/153 50/154/154 51/155/155 42/156/156
f 79/157/157 80/158/158 77/159/159 78/160/160
f 90/161/161 89/162/162 91/163/163 92/164/164
f 45/165/165 47/166/166 50/167/167 77/168/168 80/169/169 49/170/170
f 51/171/171 50/172/172 47/173/173 44/174/174
f 52/175/175 87/176/176 85/177/177 51/178/178 44/179/179 59/180/180 57/181/181 63/182/182 61/183/183 43/184/184
f 54/185/185 53/186/186 55/187/187 81/188/188 83/189/189 56/190/190
f 94/191/191 93/192/192 95/193/193 96/194/194
f 58/195/195 57/196/196 59/197/197 72/198/198 70/199/199 60/200/200
f 71/201/201 72/202/202 59/203/203 44/204/204
f 62/205/205 73/206/206 75/207/207 61/208/208 63/209/209 64/210/210
f 64/211/211 63/212/212 57/213/213 58/214/214
f 66/215/215 65/216/216 53/217/217 54/218/218
f 68/219/219 79/220/220 78/221/221 67/222/222 65/223/223 66/224/224
f 98/225/225 97/226/226 99/227/227 100/228/228
f 69/229/229 70/230/230 72/231/231 71/232/232
f 74/233/233 73/234/234 62/235/235 40/236/236
f 76/237/237 75/238/238 73/239/239 74/240/240
f 102/241/241 101/242/242 103/243/243 104/244/244
f 49/245/245 80/246/246 79/247/247 68/248/248
f 82/249/249 81/250/250 55/251/251 46/252/252
f 84/253/253 83/254/254 81/255/255 82/256/256
f 87/257/257 88/258/258 86/259/259 85/260/260
f 105/261/261 106/262/262 107/263/263 108/264/264
f 48/265/265 47/266/266 89/267/267 90/268/268
f 47/266/269 45/269/270 91/270/271 89/267/272
f 45/269/273 39/271/274 92/272/275 91/270/276
f 39/271/277 48/265/278 90/268/279 92/272/280
f 56/273/281 83/274/282 93/275/283 94/276/284
f 83/274/285 84/277/286 95/278/287 93/275/288
f 84/277/289 38/279/290 96/280/291 95/278/292
f 38/279/293 56/273/294 94/276/295 96/280/296
f 60/281/297 70/282/298 97/283/299 98/284/300
f 70/282/301 69/285/302 99/286/303 97/283/304
f 69/285/305 41/287/306 100/288/307 99/286/308
f 41/287/309 60/281/310 98/284/311 100/288/312
f 78/289/313 77/290/314 101/291/315 102/292/316
f 77/290/317 50/293/318 103/294/319 101/291/320
f 50/293/321 67/295/322 104/296/323 103/294/324
f 67/295/325 78/289/326 102/292/327 104/296/328
f 37/297/329 88/298/330 106/299/331 105/300/332
f 88/298/333 87/301/334 107/302/335 106/299/336
f 87/301/337 52/303/338 108/304/339 107/302/340
f 52/303/341 37/297/342 105/300/343 108/304/344
