# This file uses meters as units for non-parametric coordinates.

v -5.000002 0.000000 0.000000
v 0.000000 0.000000 0.000000
v -5.000002 0.000000 -5.000000
v 0.000000 0.000000 -5.000000
v -0.248193 0.000000 -0.248192
v -4.751810 0.000000 -0.248192
v -0.248193 0.000000 -4.751808
v -4.751810 0.000000 -4.751808
vt 0.002787 0.681704
vt 0.161744 0.681704
vt 0.161744 0.840661
vt 0.002787 0.840661
vt 0.002787 0.681704
vt 0.161744 0.681704
vt 0.161744 0.840661
vt 0.002787 0.840661
vn 0.000000 1.000000 0.000000
vn 0.000000 1.000000 0.000000
vn 0.000000 1.000000 0.000000
vn 0.000000 1.000000 0.000000
vn 0.000000 1.000000 0.000000
vn 0.000000 1.000000 0.000000
vn 0.000000 1.000000 0.000000
vn 0.000000 1.000000 0.000000
vn 0.000000 1.000000 0.000000
vn 0.000000 1.000000 0.000000
vn 0.000000 1.000000 0.000000
vn 0.000000 1.000000 0.000000
vn 0.000000 1.000000 0.000000
vn 0.000000 1.000000 0.000000
vn 0.000000 1.000000 0.000000
vn 0.000000 1.000000 0.000000
vn 0.000000 1.000000 0.000000
vn 0.000000 1.000000 0.000000
vn 0.000000 1.000000 0.000000
vn 0.000000 1.000000 0.000000
s off
f 6/5/1 5/6/2 7/7/3 8/8/4
f 1/1/5 2/2/6 5/6/7 6/5/8
f 2/2/9 4/3/10 7/7/11 5/6/12
f 4/3/13 3/4/14 8/8/15 7/7/16
f 3/4/17 1/1/18 6/5/19 8/8/20
