# This file uses meters as units for non-parametric coordinates.

v -1.646992 0.013013 -2.649750
v -1.314775 0.013013 2.631584
v -1.646992 0.124642 -2.649750
v -1.314775 0.124642 2.631584
v -0.828183 0.124642 -2.701256
v -0.495965 0.124642 2.580078
v -0.828183 0.013013 -2.701256
v -0.495965 0.013013 2.580078
v -2.475208 -0.124644 -2.492409
v -0.283157 -0.124644 2.245438
v -2.475208 0.030108 -2.492409
v -0.283157 0.030108 2.245438
v -2.041426 0.030108 -2.693111
v 0.150625 0.030108 2.044735
v -2.041426 -0.124644 -2.693111
v 0.150625 -0.124644 2.044735
v -2.504791 -0.044177 2.437916
v 2.552444 -0.044181 0.879951
v -2.504791 0.067452 2.437916
v 2.552444 0.067448 0.879951
v -2.746339 0.067452 1.653847
v 2.310895 0.067452 0.095894
v -2.746339 -0.044177 1.653847
v 2.310895 -0.044177 0.095894
v 2.195028 -0.124644 -2.367687
v 0.409326 -0.124644 2.537773
v 2.195028 0.030108 -2.367687
v 0.409326 0.030108 2.537773
v 2.644158 0.030104 -2.204189
v 0.858453 0.030108 2.701260
v 2.644158 -0.124648 -2.204189
v 0.858453 -0.124644 2.701260
v -0.547560 0.013013 -2.284325
v 1.320276 0.013013 1.059738
v -0.547560 0.124642 -2.284325
v 1.320276 0.124642 1.059738
v 0.172469 0.124642 -2.677589
v 2.040305 0.124642 0.666466
v 0.172469 0.013013 -2.677589
v 2.040305 0.013013 0.666466
v -2.538062 -0.044177 -1.905262
v 2.491097 -0.044181 -0.258938
v -2.538062 0.067452 -1.905262
v 2.491097 0.067448 -0.258934
v -2.282824 0.067452 -2.684982
v 2.746336 0.067448 -1.038654
v -2.282824 -0.044177 -2.684982
v 2.746336 -0.044181 -1.038654
v -1.789087 -0.051442 1.952930
v 1.965518 -0.051442 1.952930
v -1.789087 0.012598 1.952930
v 1.965518 0.012598 1.952930
v -1.789087 0.012598 -2.268208
v 1.965518 0.012598 -2.268208
v -1.789087 -0.051442 -2.268208
v 1.965518 -0.051442 -2.268208
vt 0.235840 0.514201
vt 0.235840 0.514201
vt 0.235840 0.514201
vt 0.235840 0.514201
vt 0.266297 0.514201
vt 0.266297 0.514201
vt 0.266297 0.514201
vt 0.266297 0.514201
vt 0.235840 0.514201
vt 0.235840 0.514201
vt 0.235840 0.514201
vt 0.235840 0.514201
vt 0.172475 0.514201
vt 0.172475 0.514201
vt 0.172475 0.514201
vt 0.172475 0.514201
vt 0.206066 0.514201
vt 0.206066 0.514201
vt 0.206066 0.514201
vt 0.206066 0.514201
vt 0.206066 0.514201
vt 0.206066 0.514201
vt 0.206066 0.514201
vt 0.206066 0.514201
vt 0.205255 0.514201
vt 0.205255 0.514201
vt 0.205255 0.514201
vt 0.205255 0.514201
vt 0.235712 0.514201
vt 0.235712 0.514201
vt 0.235712 0.514201
vt 0.235712 0.514201
vt 0.205255 0.514201
vt 0.205255 0.514201
vt 0.205255 0.514201
vt 0.205255 0.514201
vt 0.141890 0.514201
vt 0.141890 0.514201
vt 0.141890 0.514201
vt 0.141890 0.514201
vt 0.175481 0.514201
vt 0.175481 0.514201
vt 0.175481 0.514201
vt 0.175481 0.514201
vt 0.175481 0.514201
vt 0.175481 0.514201
vt 0.175481 0.514201
vt 0.175481 0.514201
vt 0.235840 0.514201
vt 0.235840 0.514201
vt 0.235840 0.514201
vt 0.235840 0.514201
vt 0.266297 0.514201
vt 0.266297 0.514201
vt 0.266297 0.514201
vt 0.266297 0.514201
vt 0.235840 0.514201
vt 0.235840 0.514201
vt 0.235840 0.514201
vt 0.235840 0.514201
vt 0.172475 0.514201
vt 0.172475 0.514201
vt 0.172475 0.514201
vt 0.172475 0.514201
vt 0.206066 0.514201
vt 0.206066 0.514201
vt 0.206066 0.514201
vt 0.206066 0.514201
vt 0.206066 0.514201
vt 0.206066 0.514201
vt 0.206066 0.514201
vt 0.206066 0.514201
vt 0.205255 0.514201
vt 0.205255 0.514201
vt 0.205255 0.514201
vt 0.205255 0.514201
vt 0.235712 0.514201
vt 0.235712 0.514201
vt 0.235712 0.514201
vt 0.235712 0.514201
vt 0.205255 0.514201
vt 0.205255 0.514201
vt 0.205255 0.514201
vt 0.205255 0.514201
vt 0.141890 0.514201
vt 0.141890 0.514201
vt 0.141890 0.514201
vt 0.141890 0.514201
vt 0.175481 0.514201
vt 0.175481 0.514201
vt 0.175481 0.514201
vt 0.175481 0.514201
vt 0.175481 0.514201
vt 0.175481 0.514201
vt 0.175481 0.514201
vt 0.175481 0.514201
vt 0.235840 0.514201
vt 0.235840 0.514201
vt 0.235840 0.514201
vt 0.235840 0.514201
vt 0.266297 0.514201
vt 0.266297 0.514201
vt 0.266297 0.514201
vt 0.266297 0.514201
vt 0.235840 0.514201
vt 0.235840 0.514201
vt 0.235840 0.514201
vt 0.235840 0.514201
vt 0.172475 0.514201
vt 0.172475 0.514201
vt 0.172475 0.514201
vt 0.172475 0.514201
vt 0.206066 0.514201
vt 0.206066 0.514201
vt 0.206066 0.514201
vt 0.206066 0.514201
vt 0.206066 0.514201
vt 0.206066 0.514201
vt 0.206066 0.514201
vt 0.206066 0.514201
vt 0.235840 0.514201
vt 0.235840 0.514201
vt 0.235840 0.514201
vt 0.235840 0.514201
vt 0.266297 0.514201
vt 0.266297 0.514201
vt 0.266297 0.514201
vt 0.266297 0.514201
vt 0.235840 0.514201
vt 0.235840 0.514201
vt 0.235840 0.514201
vt 0.235840 0.514201
vt 0.172475 0.514201
vt 0.172475 0.514201
vt 0.172475 0.514201
vt 0.172475 0.514201
vt 0.206066 0.514201
vt 0.206066 0.514201
vt 0.206066 0.514201
vt 0.206066 0.514201
vt 0.206066 0.514201
vt 0.206066 0.514201
vt 0.206066 0.514201
vt 0.206066 0.514201
vt 0.171178 0.512538
vt 0.171178 0.512538
vt 0.171178 0.512538
vt 0.171178 0.512538
vt 0.175021 0.688261
vt 0.321363 0.688261
vt 0.321363 0.830353
vt 0.175021 0.830353
vt 0.171178 0.512538
vt 0.171178 0.512538
vt 0.171178 0.512538
vt 0.171178 0.512538
vt 0.107813 0.512538
vt 0.107813 0.512538
vt 0.107813 0.512538
vt 0.107813 0.512538
vt 0.141404 0.512538
vt 0.141404 0.512538
vt 0.141404 0.512538
vt 0.141404 0.512538
vt 0.141404 0.512538
vt 0.141404 0.512538
vt 0.141404 0.512538
vt 0.141404 0.512538
vn -0.998027 -0.000000 0.062780
vn -0.998027 -0.000000 0.062780
vn -0.998027 -0.000000 0.062780
vn -0.998027 -0.000000 0.062780
vn 0.000000 1.000000 0.000000
vn 0.000000 1.000000 0.000000
vn 0.000000 1.000000 0.000000
vn 0.000000 1.000000 0.000000
vn 0.998027 0.000000 -0.062780
vn 0.998027 0.000000 -0.062780
vn 0.998027 0.000000 -0.062780
vn 0.998027 0.000000 -0.062780
vn -0.000000 -1.000000 -0.000000
vn -0.000000 -1.000000 -0.000000
vn -0.000000 -1.000000 -0.000000
vn -0.000000 -1.000000 -0.000000
vn 0.062780 -0.000000 0.998028
vn 0.062780 -0.000000 0.998028
vn 0.062780 -0.000000 0.998028
vn 0.062780 -0.000000 0.998028
vn -0.062780 0.000000 -0.998028
vn -0.062780 0.000000 -0.998028
vn -0.062780 0.000000 -0.998028
vn -0.062780 0.000000 -0.998028
vn -0.907569 -0.000000 0.419903
vn -0.907569 -0.000000 0.419903
vn -0.907569 -0.000000 0.419903
vn -0.907569 -0.000000 0.419903
vn 0.000000 1.000000 0.000000
vn 0.000000 1.000000 0.000000
vn 0.000000 1.000000 0.000000
vn 0.000000 1.000000 0.000000
vn 0.907569 0.000000 -0.419903
vn 0.907569 0.000000 -0.419903
vn 0.907569 0.000000 -0.419903
vn 0.907569 0.000000 -0.419903
vn -0.000000 -1.000000 -0.000000
vn -0.000000 -1.000000 -0.000000
vn -0.000000 -1.000000 -0.000000
vn -0.000000 -1.000000 -0.000000
vn 0.419903 -0.000000 0.907569
vn 0.419903 -0.000000 0.907569
vn 0.419903 -0.000000 0.907569
vn 0.419903 -0.000000 0.907569
vn -0.419903 0.000000 -0.907569
vn -0.419903 0.000000 -0.907569
vn -0.419903 0.000000 -0.907569
vn -0.419903 0.000000 -0.907569
vn 0.294411 -0.000000 0.955679
vn 0.294411 -0.000000 0.955679
vn 0.294411 -0.000000 0.955679
vn 0.294411 -0.000000 0.955679
vn 0.000000 1.000000 0.000000
vn 0.000000 1.000000 0.000000
vn 0.000000 1.000000 0.000000
vn 0.000000 1.000000 0.000000
vn -0.294411 0.000000 -0.955679
vn -0.294411 0.000000 -0.955679
vn -0.294411 0.000000 -0.955679
vn -0.294411 0.000000 -0.955679
vn -0.000000 -1.000000 -0.000000
vn -0.000000 -1.000000 -0.000000
vn -0.000000 -1.000000 -0.000000
vn -0.000000 -1.000000 -0.000000
vn 0.955679 0.000000 -0.294411
vn 0.955679 0.000000 -0.294411
vn 0.955679 0.000000 -0.294411
vn 0.955679 0.000000 -0.294411
vn -0.955679 -0.000000 0.294411
vn -0.955679 -0.000000 0.294411
vn -0.955679 -0.000000 0.294411
vn -0.955679 -0.000000 0.294411
vn -0.939676 -0.000000 -0.342065
vn -0.939676 -0.000000 -0.342065
vn -0.939676 -0.000000 -0.342065
vn -0.939676 -0.000000 -0.342065
vn 0.000000 1.000000 0.000000
vn 0.000000 1.000000 0.000000
vn 0.000000 1.000000 0.000000
vn 0.000000 1.000000 0.000000
vn 0.939676 0.000000 0.342065
vn 0.939676 0.000000 0.342065
vn 0.939676 0.000000 0.342065
vn 0.939676 0.000000 0.342065
vn -0.000000 -1.000000 -0.000000
vn -0.000000 -1.000000 -0.000000
vn -0.000000 -1.000000 -0.000000
vn -0.000000 -1.000000 -0.000000
vn -0.342065 -0.000000 0.939676
vn -0.342065 -0.000000 0.939676
vn -0.342065 -0.000000 0.939676
vn -0.342065 -0.000000 0.939676
vn 0.342065 0.000000 -0.939676
vn 0.342065 0.000000 -0.939676
vn 0.342065 0.000000 -0.939676
vn 0.342065 0.000000 -0.939676
vn -0.877628 -0.000000 0.479342
vn -0.877628 -0.000000 0.479342
vn -0.877628 -0.000000 0.479342
vn -0.877628 -0.000000 0.479342
vn 0.000000 1.000000 0.000000
vn 0.000000 1.000000 0.000000
vn 0.000000 1.000000 0.000000
vn 0.000000 1.000000 0.000000
vn 0.877628 0.000000 -0.479342
vn 0.877628 0.000000 -0.479342
vn 0.877628 0.000000 -0.479342
vn 0.877628 0.000000 -0.479342
vn -0.000000 -1.000000 -0.000000
vn -0.000000 -1.000000 -0.000000
vn -0.000000 -1.000000 -0.000000
vn -0.000000 -1.000000 -0.000000
vn 0.479342 -0.000000 0.877628
vn 0.479342 -0.000000 0.877628
vn 0.479342 -0.000000 0.877628
vn 0.479342 -0.000000 0.877628
vn -0.479342 0.000000 -0.877628
vn -0.479342 0.000000 -0.877628
vn -0.479342 0.000000 -0.877628
vn -0.479342 0.000000 -0.877628
vn -0.311111 -0.000000 0.950374
vn -0.311111 -0.000000 0.950374
vn -0.311111 -0.000000 0.950374
vn -0.311111 -0.000000 0.950374
vn 0.000000 1.000000 0.000000
vn 0.000000 1.000000 0.000000
vn 0.000000 1.000000 0.000000
vn 0.000000 1.000000 0.000000
vn 0.311111 0.000000 -0.950374
vn 0.311111 0.000000 -0.950374
vn 0.311111 0.000000 -0.950374
vn 0.311111 0.000000 -0.950374
vn -0.000000 -1.000000 -0.000000
vn -0.000000 -1.000000 -0.000000
vn -0.000000 -1.000000 -0.000000
vn -0.000000 -1.000000 -0.000000
vn 0.950374 0.000000 0.311111
vn 0.950374 0.000000 0.311111
vn 0.950374 0.000000 0.311111
vn 0.950374 0.000000 0.311111
vn -0.950374 -0.000000 -0.311111
vn -0.950374 -0.000000 -0.311111
vn -0.950374 -0.000000 -0.311111
vn -0.950374 -0.000000 -0.311111
vn -0.000000 -0.000000 1.000000
vn -0.000000 -0.000000 1.000000
vn -0.000000 -0.000000 1.000000
vn -0.000000 -0.000000 1.000000
vn 0.000000 1.000000 0.000000
vn 0.000000 1.000000 0.000000
vn 0.000000 1.000000 0.000000
vn 0.000000 1.000000 0.000000
vn 0.000000 0.000000 -1.000000
vn 0.000000 0.000000 -1.000000
vn 0.000000 0.000000 -1.000000
vn 0.000000 0.000000 -1.000000
vn -0.000000 -1.000000 -0.000000
vn -0.000000 -1.000000 -0.000000
vn -0.000000 -1.000000 -0.000000
vn -0.000000 -1.000000 -0.000000
vn 1.000000 0.000000 0.000000
vn 1.000000 0.000000 0.000000
vn 1.000000 0.000000 0.000000
vn 1.000000 0.000000 0.000000
vn -1.000000 -0.000000 -0.000000
vn -1.000000 -0.000000 -0.000000
vn -1.000000 -0.000000 -0.000000
vn -1.000000 -0.000000 -0.000000
s off
f 1/1/1 2/2/2 4/3/3 3/4/4
f 3/5/5 4/6/6 6/7/7 5/8/8
f 5/9/9 6/10/10 8/11/11 7/12/12
f 7/13/13 8/14/14 2/15/15 1/16/16
f 2/17/17 8/18/18 6/19/19 4/20/20
f 7/21/21 1/22/22 3/23/23 5/24/24
f 9/25/25 10/26/26 12/27/27 11/28/28
f 11/29/29 12/30/30 14/31/31 13/32/32
f 13/33/33 14/34/34 16/35/35 15/36/36
f 15/37/37 16/38/38 10/39/39 9/40/40
f 10/41/41 16/42/42 14/43/43 12/44/44
f 15/45/45 9/46/46 11/47/47 13/48/48
f 17/49/49 18/50/50 20/51/51 19/52/52
f 19/53/53 20/54/54 22/55/55 21/56/56
f 21/57/57 22/58/58 24/59/59 23/60/60
f 23/61/61 24/62/62 18/63/63 17/64/64
f 18/65/65 24/66/66 22/67/67 20/68/68
f 23/69/69 17/70/70 19/71/71 21/72/72
f 25/73/73 26/74/74 28/75/75 27/76/76
f 27/77/77 28/78/78 30/79/79 29/80/80
f 29/81/81 30/82/82 32/83/83 31/84/84
f 31/85/85 32/86/86 26/87/87 25/88/88
f 26/89/89 32/90/90 30/91/91 28/92/92
f 31/93/93 25/94/94 27/95/95 29/96/96
f 33/97/97 34/98/98 36/99/99 35/100/100
f 35/101/101 36/102/102 38/103/103 37/104/104
f 37/105/105 38/106/106 40/107/107 39/108/108
f 39/109/109 40/110/110 34/111/111 33/112/112
f 34/113/113 40/114/114 38/115/115 36/116/116
f 39/117/117 33/118/118 35/119/119 37/120/120
f 41/121/121 42/122/122 44/123/123 43/124/124
f 43/125/125 44/126/126 46/127/127 45/128/128
f 45/129/129 46/130/130 48/131/131 47/132/132
f 47/133/133 48/134/134 42/135/135 41/136/136
f 42/137/137 48/138/138 46/139/139 44/140/140
f 47/141/141 41/142/142 43/143/143 45/144/144
f 49/145/145 50/146/146 52/147/147 51/148/148
f 51/149/149 52/150/150 54/151/151 53/152/152
f 53/153/153 54/154/154 56/155/155 55/156/156
f 55/157/157 56/158/158 50/159/159 49/160/160
f 50/161/161 56/162/162 54/163/163 52/164/164
f 55/165/165 49/166/166 51/167/167 53/168/168
