# This file uses meters as units for non-parametric coordinates.

v -2.407845 0.018071 0.249405
v 2.649391 0.018071 -1.308552
v -2.407845 0.127010 0.249405
v 2.649391 0.127010 -1.308552
v -2.649395 0.127010 -0.534660
v 2.407841 0.127010 -2.092617
v -2.649395 0.018071 -0.534660
v 2.407841 0.018071 -2.092617
v 1.778907 -0.076610 -2.177120
v -2.399679 -0.076610 2.162674
v 1.778907 0.049788 -2.177120
v -2.399679 0.049788 2.162674
v 2.123213 0.049788 -1.845608
v -2.055371 0.049788 2.494186
v 2.123213 -0.076610 -1.845608
v -2.055371 -0.076610 2.494186
v 0.107892 -0.028640 -2.336491
v 1.610716 -0.028640 1.542156
v 0.107892 0.080292 -2.336491
v 1.610716 0.080292 1.542156
v 0.872904 0.080292 -2.632904
v 2.375728 0.080292 1.245743
v 0.872904 -0.028640 -2.632904
v 2.375728 -0.028640 1.245743
v -1.522012 -0.028640 -2.614910
v -1.189795 -0.028640 2.666424
v -1.522012 0.080292 -2.614910
v -1.189795 0.080292 2.666424
v -0.703204 0.080292 -2.666416
v -0.370985 0.080292 2.614918
v -0.703204 -0.028640 -2.666416
v -0.370985 -0.028640 2.614918
v -1.052315 0.018071 0.719746
v 2.225395 0.018071 1.009441
v -1.052315 0.127010 0.719746
v 2.225395 0.127010 1.009441
v -0.980081 0.127010 -0.097496
v 2.297627 0.127010 0.192200
v -0.980081 0.018071 -0.097496
v 2.297627 0.018071 0.192200
v -1.946403 -0.127015 1.822220
v 1.808202 -0.127015 1.822220
v -1.946403 -0.074699 1.822220
v 1.808202 -0.074699 1.822220
v -1.946403 -0.074699 -2.398911
v 1.808202 -0.074699 -2.398911
v -1.946403 -0.127015 -2.398911
v 1.808202 -0.127015 -2.398911
vt 0.235840 0.514201
vt 0.235840 0.514201
vt 0.235840 0.514201
vt 0.235840 0.514201
vt 0.266297 0.514201
vt 0.266297 0.514201
vt 0.266297 0.514201
vt 0.266297 0.514201
vt 0.235840 0.514201
vt 0.235840 0.514201
vt 0.235840 0.514201
vt 0.235840 0.514201
vt 0.172475 0.514201
vt 0.172475 0.514201
vt 0.172475 0.514201
vt 0.172475 0.514201
vt 0.206066 0.514201
vt 0.206066 0.514201
vt 0.206066 0.514201
vt 0.206066 0.514201
vt 0.206066 0.514201
vt 0.206066 0.514201
vt 0.206066 0.514201
vt 0.206066 0.514201
vt 0.205255 0.514201
vt 0.205255 0.514201
vt 0.205255 0.514201
vt 0.205255 0.514201
vt 0.235712 0.514201
vt 0.235712 0.514201
vt 0.235712 0.514201
vt 0.235712 0.514201
vt 0.205255 0.514201
vt 0.205255 0.514201
vt 0.205255 0.514201
vt 0.205255 0.514201
vt 0.141890 0.514201
vt 0.141890 0.514201
vt 0.141890 0.514201
vt 0.141890 0.514201
vt 0.175481 0.514201
vt 0.175481 0.514201
vt 0.175481 0.514201
vt 0.175481 0.514201
vt 0.175481 0.514201
vt 0.175481 0.514201
vt 0.175481 0.514201
vt 0.175481 0.514201
vt 0.235840 0.514201
vt 0.235840 0.514201
vt 0.235840 0.514201
vt 0.235840 0.514201
vt 0.266297 0.514201
vt 0.266297 0.514201
vt 0.266297 0.514201
vt 0.266297 0.514201
vt 0.235840 0.514201
vt 0.235840 0.514201
vt 0.235840 0.514201
vt 0.235840 0.514201
vt 0.172475 0.514201
vt 0.172475 0.514201
vt 0.172475 0.514201
vt 0.172475 0.514201
vt 0.206066 0.514201
vt 0.206066 0.514201
vt 0.206066 0.514201
vt 0.206066 0.514201
vt 0.206066 0.514201
vt 0.206066 0.514201
vt 0.206066 0.514201
vt 0.206066 0.514201
vt 0.235840 0.514201
vt 0.235840 0.514201
vt 0.235840 0.514201
vt 0.235840 0.514201
vt 0.266297 0.514201
vt 0.266297 0.514201
vt 0.266297 0.514201
vt 0.266297 0.514201
vt 0.235840 0.514201
vt 0.235840 0.514201
vt 0.235840 0.514201
vt 0.235840 0.514201
vt 0.172475 0.514201
vt 0.172475 0.514201
vt 0.172475 0.514201
vt 0.172475 0.514201
vt 0.206066 0.514201
vt 0.206066 0.514201
vt 0.206066 0.514201
vt 0.206066 0.514201
vt 0.206066 0.514201
vt 0.206066 0.514201
vt 0.206066 0.514201
vt 0.206066 0.514201
vt 0.235840 0.514201
vt 0.235840 0.514201
vt 0.235840 0.514201
vt 0.235840 0.514201
vt 0.266297 0.514201
vt 0.266297 0.514201
vt 0.266297 0.514201
vt 0.266297 0.514201
vt 0.235840 0.514201
vt 0.235840 0.514201
vt 0.235840 0.514201
vt 0.235840 0.514201
vt 0.172475 0.514201
vt 0.172475 0.514201
vt 0.172475 0.514201
vt 0.172475 0.514201
vt 0.206066 0.514201
vt 0.206066 0.514201
vt 0.206066 0.514201
vt 0.206066 0.514201
vt 0.206066 0.514201
vt 0.206066 0.514201
vt 0.206066 0.514201
vt 0.206066 0.514201
vt 0.171178 0.512538
vt 0.171178 0.512538
vt 0.171178 0.512538
vt 0.171178 0.512538
vt 0.175021 0.688261
vt 0.321363 0.688261
vt 0.321363 0.830353
vt 0.175021 0.830353
vt 0.171178 0.512538
vt 0.171178 0.512538
vt 0.171178 0.512538
vt 0.171178 0.512538
vt 0.107813 0.512538
vt 0.107813 0.512538
vt 0.107813 0.512538
vt 0.107813 0.512538
vt 0.141404 0.512538
vt 0.141404 0.512538
vt 0.141404 0.512538
vt 0.141404 0.512538
vt 0.141404 0.512538
vt 0.141404 0.512538
vt 0.141404 0.512538
vt 0.141404 0.512538
vn 0.294411 -0.000000 0.955679
vn 0.294411 -0.000000 0.955679
vn 0.294411 -0.000000 0.955679
vn 0.294411 -0.000000 0.955679
vn -0.000000 1.000000 0.000000
vn -0.000000 1.000000 0.000000
vn -0.000000 1.000000 0.000000
vn -0.000000 1.000000 0.000000
vn -0.294411 0.000000 -0.955679
vn -0.294411 0.000000 -0.955679
vn -0.294411 0.000000 -0.955679
vn -0.294411 0.000000 -0.955679
vn 0.000000 -1.000000 -0.000000
vn 0.000000 -1.000000 -0.000000
vn 0.000000 -1.000000 -0.000000
vn 0.000000 -1.000000 -0.000000
vn 0.955679 0.000000 -0.294411
vn 0.955679 0.000000 -0.294411
vn 0.955679 0.000000 -0.294411
vn 0.955679 0.000000 -0.294411
vn -0.955679 -0.000000 0.294411
vn -0.955679 -0.000000 0.294411
vn -0.955679 -0.000000 0.294411
vn -0.955679 -0.000000 0.294411
vn -0.720360 0.000000 -0.693600
vn -0.720360 0.000000 -0.693600
vn -0.720360 0.000000 -0.693600
vn -0.720360 0.000000 -0.693600
vn -0.000000 1.000000 0.000000
vn -0.000000 1.000000 0.000000
vn -0.000000 1.000000 0.000000
vn -0.000000 1.000000 0.000000
vn 0.720360 -0.000000 0.693600
vn 0.720360 -0.000000 0.693600
vn 0.720360 -0.000000 0.693600
vn 0.720360 -0.000000 0.693600
vn 0.000000 -1.000000 -0.000000
vn 0.000000 -1.000000 -0.000000
vn 0.000000 -1.000000 -0.000000
vn 0.000000 -1.000000 -0.000000
vn -0.693600 -0.000000 0.720360
vn -0.693600 -0.000000 0.720360
vn -0.693600 -0.000000 0.720360
vn -0.693600 -0.000000 0.720360
vn 0.693600 0.000000 -0.720360
vn 0.693600 0.000000 -0.720360
vn 0.693600 0.000000 -0.720360
vn 0.693600 0.000000 -0.720360
vn -0.932454 -0.000000 0.361289
vn -0.932454 -0.000000 0.361289
vn -0.932454 -0.000000 0.361289
vn -0.932454 -0.000000 0.361289
vn -0.000000 1.000000 0.000000
vn -0.000000 1.000000 0.000000
vn -0.000000 1.000000 0.000000
vn -0.000000 1.000000 0.000000
vn 0.932454 0.000000 -0.361289
vn 0.932454 0.000000 -0.361289
vn 0.932454 0.000000 -0.361289
vn 0.932454 0.000000 -0.361289
vn 0.000000 -1.000000 -0.000000
vn 0.000000 -1.000000 -0.000000
vn 0.000000 -1.000000 -0.000000
vn 0.000000 -1.000000 -0.000000
vn 0.361289 -0.000000 0.932454
vn 0.361289 -0.000000 0.932454
vn 0.361289 -0.000000 0.932454
vn 0.361289 -0.000000 0.932454
vn -0.361289 0.000000 -0.932454
vn -0.361289 0.000000 -0.932454
vn -0.361289 0.000000 -0.932454
vn -0.361289 0.000000 -0.932454
vn -0.998027 -0.000000 0.062780
vn -0.998027 -0.000000 0.062780
vn -0.998027 -0.000000 0.062780
vn -0.998027 -0.000000 0.062780
vn -0.000000 1.000000 0.000000
vn -0.000000 1.000000 0.000000
vn -0.000000 1.000000 0.000000
vn -0.000000 1.000000 0.000000
vn 0.998027 0.000000 -0.062780
vn 0.998027 0.000000 -0.062780
vn 0.998027 0.000000 -0.062780
vn 0.998027 0.000000 -0.062780
vn 0.000000 -1.000000 -0.000000
vn 0.000000 -1.000000 -0.000000
vn 0.000000 -1.000000 -0.000000
vn 0.000000 -1.000000 -0.000000
vn 0.062780 -0.000000 0.998028
vn 0.062780 -0.000000 0.998028
vn 0.062780 -0.000000 0.998028
vn 0.062780 -0.000000 0.998028
vn -0.062780 0.000000 -0.998028
vn -0.062780 0.000000 -0.998028
vn -0.062780 0.000000 -0.998028
vn -0.062780 0.000000 -0.998028
vn -0.088040 -0.000000 0.996117
vn -0.088040 -0.000000 0.996117
vn -0.088040 -0.000000 0.996117
vn -0.088040 -0.000000 0.996117
vn -0.000000 1.000000 0.000000
vn -0.000000 1.000000 0.000000
vn -0.000000 1.000000 0.000000
vn -0.000000 1.000000 0.000000
vn 0.088040 0.000000 -0.996117
vn 0.088040 0.000000 -0.996117
vn 0.088040 0.000000 -0.996117
vn 0.088040 0.000000 -0.996117
vn 0.000000 -1.000000 -0.000000
vn 0.000000 -1.000000 -0.000000
vn 0.000000 -1.000000 -0.000000
vn 0.000000 -1.000000 -0.000000
vn 0.996117 -0.000000 0.088040
vn 0.996117 -0.000000 0.088040
vn 0.996117 -0.000000 0.088040
vn 0.996117 -0.000000 0.088040
vn -0.996117 0.000000 -0.088040
vn -0.996117 0.000000 -0.088040
vn -0.996117 0.000000 -0.088040
vn -0.996117 0.000000 -0.088040
vn -0.000000 -0.000000 1.000000
vn -0.000000 -0.000000 1.000000
vn -0.000000 -0.000000 1.000000
vn -0.000000 -0.000000 1.000000
vn -0.000000 1.000000 0.000000
vn -0.000000 1.000000 0.000000
vn -0.000000 1.000000 0.000000
vn -0.000000 1.000000 0.000000
vn 0.000000 0.000000 -1.000000
vn 0.000000 0.000000 -1.000000
vn 0.000000 0.000000 -1.000000
vn 0.000000 0.000000 -1.000000
vn 0.000000 -1.000000 -0.000000
vn 0.000000 -1.000000 -0.000000
vn 0.000000 -1.000000 -0.000000
vn 0.000000 -1.000000 -0.000000
vn 1.000000 0.000000 0.000000
vn 1.000000 0.000000 0.000000
vn 1.000000 0.000000 0.000000
vn 1.000000 0.000000 0.000000
vn -1.000000 0.000000 -0.000000
vn -1.000000 0.000000 -0.000000
vn -1.000000 0.000000 -0.000000
vn -1.000000 0.000000 -0.000000
s off
f 1/1/1 2/2/2 4/3/3 3/4/4
f 3/5/5 4/6/6 6/7/7 5/8/8
f 5/9/9 6/10/10 8/11/11 7/12/12
f 7/13/13 8/14/14 2/15/15 1/16/16
f 2/17/17 8/18/18 6/19/19 4/20/20
f 7/21/21 1/22/22 3/23/23 5/24/24
f 9/25/25 10/26/26 12/27/27 11/28/28
f 11/29/29 12/30/30 14/31/31 13/32/32
f 13/33/33 14/34/34 16/35/35 15/36/36
f 15/37/37 16/38/38 10/39/39 9/40/40
f 10/41/41 16/42/42 14/43/43 12/44/44
f 15/45/45 9/46/46 11/47/47 13/48/48
f 17/49/49 18/50/50 20/51/51 19/52/52
f 19/53/53 20/54/54 22/55/55 21/56/56
f 21/57/57 22/58/58 24/59/59 23/60/60
f 23/61/61 24/62/62 18/63/63 17/64/64
f 18/65/65 24/66/66 22/67/67 20/68/68
f 23/69/69 17/70/70 19/71/71 21/72/72
f 25/73/73 26/74/74 28/75/75 27/76/76
f 27/77/77 28/78/78 30/79/79 29/80/80
f 29/81/81 30/82/82 32/83/83 31/84/84
f 31/85/85 32/86/86 26/87/87 25/88/88
f 26/89/89 32/90/90 30/91/91 28/92/92
f 31/93/93 25/94/94 27/95/95 29/96/96
f 33/97/97 34/98/98 36/99/99 35/100/100
f 35/101/101 36/102/102 38/103/103 37/104/104
f 37/105/105 38/106/106 40/107/107 39/108/108
f 39/109/109 40/110/110 34/111/111 33/112/112
f 34/113/113 40/114/114 38/115/115 36/116/116
f 39/117/117 33/118/118 35/119/119 37/120/120
f 41/121/121 42/122/122 44/123/123 43/124/124
f 43/125/125 44/126/126 46/127/127 45/128/128
f 45/129/129 46/130/130 48/131/131 47/132/132
f 47/133/133 48/134/134 42/135/135 41/136/136
f 42/137/137 48/138/138 46/139/139 44/140/140
f 47/141/141 41/142/142 43/143/143 45/144/144
