# This file uses meters as units for non-parametric coordinates.

v 4.999992 5.000000 0.000000
v 0.000000 5.000000 0.000000
v 4.999992 5.000000 0.152184
v 0.000000 5.000000 0.152184
v 4.999992 0.000000 0.417130
v 0.000000 0.000000 0.417130
v 2.500504 5.000000 0.182037
v 2.500504 0.000000 0.475281
v 1.250252 5.000000 0.066696
v 1.250252 0.000000 0.359947
v 3.750755 5.000000 0.123878
v 3.750755 0.000000 0.417130
v 2.500504 5.000000 0.000000
v 4.332596 0.000000 0.372879
v 2.784363 0.000000 0.447845
v 4.407104 1.283327 0.228127
v 2.784363 1.639580 0.275085
v 4.143684 1.228421 0.678001
v 3.129768 1.488497 0.705261
v 4.194878 0.000000 0.771103
v 3.180954 0.000000 0.798363
v 3.670876 0.000000 0.848152
v 3.619705 1.488497 0.755058
v 3.555634 1.639580 0.230629
v 1.992546 0.000000 0.254570
v 0.444305 0.000000 0.302864
v 1.952225 3.090230 0.088394
v 0.329460 3.253495 0.041740
v 1.688789 3.065068 0.539146
v 0.674866 3.184256 0.556709
v 1.636879 0.000000 0.724258
v 0.622955 0.000000 0.741814
v 1.112892 0.000000 0.773895
v 1.164803 3.184256 0.588783
v 1.127014 3.253495 0.013367
vt 0.734767 0.012765
vt 0.734767 0.012765
vt 0.734767 0.012765
vt 0.734767 0.012765
vt 0.700915 0.005968
vt 0.700915 0.005968
vt 0.700915 0.005968
vt 0.700915 0.005968
vt 0.669051 0.005989
vt 0.669051 0.005989
vt 0.669051 0.005989
vt 0.669051 0.005989
vt 0.700915 0.005968
vt 0.700915 0.005968
vt 0.700915 0.005968
vt 0.700915 0.005968
vt 0.700915 0.005968
vt 0.700915 0.005968
vt 0.734767 0.012765
vt 0.734767 0.012765
vt 0.734767 0.012765
vt 0.734767 0.012765
vt 0.731560 0.005966
vt 0.731560 0.005966
vt 0.731560 0.005966
vt 0.731560 0.005966
vt 0.700302 0.005966
vt 0.700302 0.005966
vt 0.700302 0.005966
vt 0.700302 0.005966
vt 0.669200 0.005966
vt 0.669200 0.005966
vt 0.669200 0.005966
vt 0.669200 0.005966
vt 0.669200 0.005966
vt 0.669200 0.005966
vt 0.669200 0.005966
vt 0.669200 0.005966
vt 0.700302 0.005966
vt 0.700302 0.005966
vt 0.731560 0.005966
vt 0.731560 0.005966
vt 0.731560 0.005966
vt 0.731560 0.005966
vt 0.731560 0.005966
vt 0.731560 0.005966
vt 0.731560 0.005966
vt 0.731560 0.005966
vt 0.700302 0.005966
vt 0.700302 0.005966
vt 0.700302 0.005966
vt 0.700302 0.005966
vt 0.669200 0.005966
vt 0.669200 0.005966
vt 0.669200 0.005966
vt 0.669200 0.005966
vt 0.669200 0.005966
vt 0.669200 0.005966
vt 0.669200 0.005966
vt 0.669200 0.005966
vt 0.700302 0.005966
vt 0.700302 0.005966
vt 0.731560 0.005966
vt 0.731560 0.005966
vt 0.731560 0.005966
vt 0.731560 0.005966
vn 0.000000 1.000000 0.000000
vn 0.000000 1.000000 0.000000
vn 0.000000 1.000000 0.000000
vn 0.000000 1.000000 0.000000
vn 0.000000 0.051540 0.998671
vn 0.000000 0.051540 0.998671
vn 0.000000 0.051540 0.998671
vn 0.000000 0.051540 0.998671
vn -0.091742 0.051322 0.994459
vn -0.091742 0.051322 0.994459
vn -0.091742 0.051322 0.994459
vn -0.091742 0.051322 0.994459
vn 0.045631 0.051486 0.997631
vn 0.045631 0.051486 0.997631
vn 0.045631 0.051486 0.997631
vn 0.045631 0.051486 0.997631
vn 0.046402 0.051484 0.997595
vn 0.046402 0.051484 0.997595
vn 0.046402 0.051484 0.997595
vn 0.046402 0.051484 0.997595
vn 0.000000 1.000000 0.000000
vn 0.000000 1.000000 0.000000
vn 0.000000 1.000000 0.000000
vn 0.000000 1.000000 0.000000
vn 0.000000 1.000000 0.000000
vn 0.000000 1.000000 0.000000
vn 0.000000 1.000000 0.000000
vn 0.000000 1.000000 0.000000
vn 0.198772 0.335365 0.920880
vn 0.175444 0.335870 0.925425
vn -0.002571 0.333565 0.942724
vn -0.002571 0.333565 0.942724
vn 0.024423 0.047037 0.998595
vn 0.005246 0.045311 0.998959
vn -0.065281 0.038820 0.997111
vn -0.065281 0.038820 0.997112
vn -0.130169 0.050499 0.990205
vn -0.130169 0.050499 0.990205
vn -0.130169 0.050499 0.990205
vn -0.130169 0.050499 0.990205
vn 0.346350 0.070037 0.935487
vn 0.346350 0.070037 0.935487
vn 0.346350 0.070037 0.935487
vn 0.346350 0.070037 0.935487
vn 0.122870 0.055635 0.990862
vn 0.005246 0.045311 0.998959
vn 0.024423 0.047037 0.998595
vn 0.122870 0.055635 0.990862
vn 0.341565 0.327936 0.880790
vn 0.175444 0.335870 0.925425
vn 0.198772 0.335365 0.920880
vn 0.341565 0.327936 0.880790
vn 0.099207 0.897626 0.429447
vn 0.088118 0.900257 0.426347
vn -0.001147 0.916792 0.399365
vn -0.001147 0.916791 0.399365
vn 0.013640 0.033011 0.999362
vn 0.020562 0.032727 0.999253
vn -0.065286 0.036129 0.997212
vn -0.065286 0.036129 0.997212
vn -0.413740 0.047941 0.909132
vn -0.413740 0.047941 0.909132
vn -0.413740 0.047941 0.909132
vn -0.413740 0.047941 0.909132
vn 0.319425 0.019798 0.947405
vn 0.319425 0.019798 0.947405
vn 0.319425 0.019798 0.947405
vn 0.319425 0.019798 0.947405
vn 0.098211 0.029436 0.994730
vn 0.020562 0.032727 0.999253
vn 0.013640 0.033011 0.999362
vn 0.098211 0.029436 0.994730
vn 0.206921 0.865275 0.456599
vn 0.088118 0.900257 0.426347
vn 0.099207 0.897626 0.429447
vn 0.206921 0.865275 0.456599
s off
f 9/1/1 13/2/2 2/3/3 4/4/4
f 11/5/5 12/6/6 5/7/7 3/8/8
f 9/9/9 10/10/10 8/11/11 7/12/12
f 4/13/13 6/14/14 10/15/15 9/16/16
f 7/17/17 8/18/18 12/6/19 11/5/20
f 1/19/21 13/2/22 11/20/23 3/21/24
f 11/20/25 13/2/26 9/1/27 7/22/28
f 23/23/29 24/24/30 17/25/31 19/26/32
f 22/27/33 23/28/34 19/29/35 21/30/36
f 15/31/37 21/32/38 19/33/39 17/34/40
f 20/35/41 14/36/42 16/37/43 18/38/44
f 18/39/45 23/28/46 22/27/47 20/40/48
f 16/41/49 24/42/50 23/43/51 18/44/52
f 34/45/53 35/46/54 28/47/55 30/48/56
f 33/49/57 34/50/58 30/51/59 32/52/60
f 26/53/61 32/54/62 30/55/63 28/56/64
f 31/57/65 25/58/66 27/59/67 29/60/68
f 29/61/69 34/50/70 33/49/71 31/62/72
f 27/63/73 35/64/74 34/65/75 29/66/76
