# This file uses meters as units for non-parametric coordinates.

v -0.311530 0.000002 0.311535
v 0.311524 0.000002 0.311535
v -0.311530 15.989914 0.311535
v 0.311524 15.989914 0.311535
v -0.311530 15.989914 -0.311523
v 0.311524 15.989914 -0.311523
v -0.311530 0.000002 -0.311523
v 0.311524 0.000002 -0.311523
v -0.000002 16.903023 0.000006
v 0.001103 12.539834 0.105913
v -0.621951 12.539834 0.105913
v -0.621951 12.539834 -0.517143
v 0.001103 12.539834 -0.517143
v -0.132158 8.298336 0.506939
v 0.490896 8.298336 0.506939
v 0.490896 8.298336 -0.116119
v -0.132158 8.298336 -0.116119
vt 0.706199 0.958948
vt 0.706199 0.958457
vt 0.856483 0.958457
vt 0.856483 0.958948
vt 0.326408 0.511337
vt 0.295886 0.511337
vt 0.326408 0.511337
vt 0.295886 0.511337
vt 0.856483 0.958948
vt 0.856483 0.958457
vt 0.706199 0.958457
vt 0.706199 0.958948
vt 0.142999 0.511337
vt 0.142999 0.511337
vt 0.142999 0.511337
vt 0.142999 0.511337
vt 0.706199 0.952311
vt 0.706199 0.952802
vt 0.856483 0.952802
vt 0.856483 0.952311
vt 0.706199 0.952802
vt 0.706199 0.952311
vt 0.856483 0.952311
vt 0.856483 0.952802
vt 0.326408 0.511337
vt 0.295886 0.511337
vt 0.326408 0.511337
vt 0.295886 0.511337
vt 0.326408 0.511337
vt 0.326408 0.511337
vt 0.295886 0.511337
vt 0.295886 0.511337
vt 0.824057 0.958457
vt 0.824057 0.952311
vt 0.824057 0.958948
vt 0.824057 0.952311
vt 0.824057 0.958948
vt 0.824057 0.952802
vt 0.824057 0.958457
vt 0.824057 0.952802
vt 0.784192 0.958948
vt 0.784192 0.952311
vt 0.784192 0.958457
vt 0.784192 0.952311
vt 0.784192 0.958457
vt 0.784192 0.952802
vt 0.784192 0.958948
vt 0.784192 0.952802
vn 0.000000 0.017906 0.999840
vn 0.000000 0.014779 0.999891
vn 0.000000 0.025963 0.999663
vn 0.000000 0.024751 0.999694
vn -0.946434 0.322898 0.000000
vn -0.946434 0.322898 0.000000
vn -0.946434 0.322898 0.000000
vn 0.000000 -0.024751 -0.999694
vn 0.000000 -0.025963 -0.999663
vn 0.000000 -0.014779 -0.999891
vn 0.000000 -0.017906 -0.999840
vn 0.000000 -1.000000 0.000000
vn 0.000000 -1.000000 0.000000
vn 0.000000 -1.000000 0.000000
vn 0.000000 -1.000000 0.000000
vn 0.999728 0.023336 0.000000
vn 0.999660 0.026076 0.000000
vn 0.999755 0.022145 0.000000
vn 0.999703 0.024372 0.000000
vn -0.999660 -0.026076 0.000000
vn -0.999728 -0.023336 0.000000
vn -0.999703 -0.024372 0.000000
vn -0.999755 -0.022145 0.000000
vn 0.000000 0.322899 0.946434
vn 0.000000 0.322899 0.946434
vn 0.000000 0.322899 0.946434
vn 0.946434 0.322896 0.000000
vn 0.946434 0.322896 0.000000
vn 0.946434 0.322896 0.000000
vn 0.000000 0.322899 -0.946434
vn 0.000000 0.322899 -0.946434
vn 0.000000 0.322899 -0.946434
vn 0.000000 0.024751 0.999694
vn 0.000000 0.025963 0.999663
vn 0.000000 -0.059494 0.998229
vn 0.000000 -0.059494 0.998229
vn -0.999755 -0.022145 0.000000
vn -0.999703 -0.024372 0.000000
vn -0.995977 0.089613 0.000000
vn -0.995977 0.089613 0.000000
vn 0.000000 0.059493 -0.998229
vn 0.000000 0.059493 -0.998229
vn 0.000000 -0.025963 -0.999663
vn 0.000000 -0.024751 -0.999694
vn 0.999703 0.024372 0.000000
vn 0.999755 0.022145 0.000000
vn 0.995977 -0.089613 0.000000
vn 0.995977 -0.089613 0.000000
vn 0.000000 -0.023541 0.999723
vn 0.000000 -0.023541 0.999723
vn 0.000000 0.014779 0.999891
vn 0.000000 0.017906 0.999840
vn 0.999766 -0.021610 0.000000
vn 0.999766 -0.021610 0.000000
vn 0.999660 0.026076 0.000000
vn 0.999728 0.023336 0.000000
vn 0.000000 -0.017906 -0.999840
vn 0.000000 -0.014779 -0.999891
vn 0.000000 0.023541 -0.999723
vn 0.000000 0.023541 -0.999723
vn -0.999766 0.021610 0.000000
vn -0.999766 0.021610 0.000000
vn -0.999728 -0.023336 0.000000
vn -0.999660 -0.026076 0.000000
s off
f 14/41/1 15/43/2 10/33/3 11/35/4
f 3/32/5 9/28/6 5/8/7
f 12/37/8 13/39/9 16/45/10 17/47/11
f 7/13/12 8/14/13 2/15/14 1/16/15
f 15/44/16 16/46/17 13/40/18 10/34/19
f 17/48/20 14/42/21 11/36/22 12/38/23
f 3/5/24 4/30/25 9/27/26
f 9/26/27 4/6/28 6/31/29
f 5/29/30 9/25/31 6/7/32
f 11/35/33 10/33/34 4/3/35 3/4/36
f 12/38/37 11/36/38 3/23/39 5/24/40
f 5/9/41 6/10/42 13/39/43 12/37/44
f 10/34/45 13/40/46 6/19/47 4/20/48
f 1/1/49 2/2/50 15/43/51 14/41/52
f 2/17/53 8/18/54 16/46/55 15/44/56
f 17/47/57 16/45/58 8/11/59 7/12/60
f 7/21/61 1/22/62 14/42/63 17/48/64
