# This file uses meters as units for non-parametric coordinates.

v -5.000000 0.000000 -5.000000
v 0.000000 0.000000 -5.000000
v -5.000000 0.000000 0.000000
v 0.000000 0.000000 0.000000
v -0.049210 0.000000 -4.950790
v -4.950790 0.000000 -4.950790
v -0.049210 0.000000 -0.049200
v -4.950790 0.000000 -0.049200
v -0.858727 0.000000 -4.141281
v -4.141273 0.000000 -4.141281
v -0.858727 0.000000 -0.858717
v -4.141273 0.000000 -0.858717
v -0.946541 0.000000 -4.053469
v -4.053459 0.000000 -4.053469
v -0.946541 0.000000 -0.946529
v -4.053459 0.000000 -0.946529
v -4.053459 0.000000 -0.858717
v -4.053459 0.000000 -0.049200
v -0.946541 0.000000 -0.858717
v -0.946541 0.000000 -0.049200
v -0.858727 0.000000 -0.946529
v -0.049210 0.000000 -0.946529
v -4.141273 0.000000 -0.946529
v -4.950790 0.000000 -0.946529
v -4.141273 0.000000 -4.053469
v -4.950790 0.000000 -4.053469
v -4.053459 0.000000 -4.141281
v -4.053459 0.000000 -4.950790
v -0.946541 0.000000 -4.141281
v -0.946541 0.000000 -4.950790
v -0.858727 0.000000 -4.053469
v -0.049202 0.000000 -4.053469
v -4.141273 0.000000 -4.950790
v -4.950790 0.000000 -4.141281
v -0.858727 0.000000 -4.950790
v -0.049202 0.000000 -4.141281
v -0.049210 0.000000 -0.858717
v -0.858727 0.000000 -0.049200
v -4.141273 0.000000 -0.049200
v -4.950790 0.000000 -0.858717
v -4.950790 0.000000 -2.462502
v -4.141273 0.000000 -2.462502
v -4.141273 0.000000 -2.584400
v -4.950790 0.000000 -2.584400
v -0.858727 0.000000 -2.462111
v -0.049202 0.000000 -2.462111
v -0.858727 0.000000 -2.573984
v -0.049202 0.000000 -2.573984
v -2.464088 0.000000 -4.141281
v -2.464088 0.000000 -4.950790
v -2.595413 0.000000 -4.141281
v -2.595413 0.000000 -4.950790
v -2.456467 0.000000 -0.858717
v -2.456467 0.000000 -0.049200
v -2.583885 0.000000 -0.858717
v -2.583885 0.000000 -0.049200
v -4.141273 -0.134913 -0.858717
v -4.141273 -0.134913 -0.049200
v -4.950790 -0.134913 -0.049200
v -4.950790 -0.134913 -0.858717
v -0.858727 -0.134913 -2.462111
v -0.049202 -0.134913 -2.462111
v -0.049210 -0.134913 -0.946529
v -0.858727 -0.134913 -0.946529
v -2.464088 -0.134913 -4.141281
v -2.464088 -0.134913 -4.950790
v -0.946541 -0.134913 -4.950790
v -0.946541 -0.134913 -4.141281
v -4.053459 -0.134913 -4.141281
v -4.053459 -0.134913 -4.950790
v -2.595413 -0.134913 -4.950790
v -2.595413 -0.134913 -4.141281
v -4.765434 0.119087 -4.951036
v -3.362587 -0.180229 -4.951036
v -4.738575 0.244973 -4.951036
v -3.335728 -0.054344 -4.951036
v -4.738575 0.244973 -4.138895
v -3.335728 -0.054344 -4.138895
v -4.765434 0.119087 -4.138895
v -3.362587 -0.180229 -4.138895
v -2.415277 -0.081727 -4.929245
v -1.105467 0.074800 -5.492687
v -2.422520 0.045450 -4.910751
v -1.112709 0.201977 -5.474194
v -2.094597 -0.043154 -4.173058
v -0.784786 0.113373 -4.736500
v -2.087355 -0.170331 -4.191553
v -0.777544 -0.013804 -4.754995
v -1.305868 0.000000 -1.916948
v -0.681726 0.000000 -1.420380
v -1.305868 0.128719 -1.916948
v -0.681726 0.128719 -1.420380
v -2.238789 0.128719 -0.744356
v -1.614647 0.128719 -0.247787
v -2.238789 0.000000 -0.744356
v -1.614647 0.000000 -0.247787
v -5.001365 -0.000000 -0.907726
v -4.542864 -0.000000 -1.560345
v -5.001365 0.128719 -0.907726
v -4.542864 0.128719 -1.560345
v -4.345792 0.128719 -0.447151
v -3.887291 0.128719 -1.099768
v -4.345792 -0.000000 -0.447151
v -3.887291 -0.000000 -1.099768
vt 0.266564 0.063783
vt 0.266564 0.063783
vt 0.266564 0.063783
vt 0.266564 0.063783
vt 0.297538 0.063783
vt 0.266564 0.063783
vt 0.266564 0.063783
vt 0.266564 0.063783
vt 0.266564 0.063783
vt 0.200282 0.064076
vt 0.266564 0.063783
vt 0.266564 0.063783
vt 0.266564 0.063783
vt 0.297538 0.063783
vt 0.266564 0.063783
vt 0.266564 0.063783
vt 0.297538 0.063783
vt 0.266564 0.063783
vt 0.266564 0.063783
vt 0.266564 0.063783
vt 0.263798 0.063783
vt 0.263798 0.063783
vt 0.263798 0.063783
vt 0.263798 0.063783
vt 0.297538 0.063783
vt 0.263798 0.063783
vt 0.263798 0.063783
vt 0.263798 0.063783
vt 0.263798 0.063783
vt 0.297538 0.063783
vt 0.263798 0.063783
vt 0.263798 0.063783
vt 0.263798 0.063783
vt 0.297538 0.063783
vt 0.200282 0.064076
vt 0.263798 0.063783
vt 0.263798 0.063783
vt 0.297538 0.063783
vt 0.297538 0.063783
vt 0.263798 0.063783
vt 0.264905 0.063783
vt 0.263798 0.063783
vt 0.297538 0.063783
vt 0.263798 0.063783
vt 0.263798 0.063783
vt 0.264905 0.063783
vt 0.297538 0.063783
vt 0.266564 0.063783
vt 0.263798 0.063783
vt 0.264905 0.063783
vt 0.264905 0.063783
vt 0.266564 0.063783
vt 0.263798 0.063783
vt 0.264905 0.063783
vt 0.200282 0.064076
vt 0.266564 0.063783
vt 0.263798 0.063783
vt 0.264905 0.063783
vt 0.264905 0.063783
vt 0.266564 0.063783
vt 0.263798 0.063783
vt 0.297538 0.063783
vt 0.264905 0.063783
vt 0.266564 0.063783
vt 0.200282 0.064076
vt 0.263798 0.063783
vt 0.266564 0.063783
vt 0.264905 0.063783
vt 0.200282 0.064076
vt 0.263798 0.063783
vt 0.266564 0.063783
vt 0.200282 0.064076
vt 0.263798 0.063783
vt 0.264905 0.063783
vt 0.264905 0.063783
vt 0.266564 0.063783
vt 0.266564 0.063783
vt 0.264905 0.063783
vt 0.297538 0.063783
vt 0.266564 0.063783
vt 0.266564 0.063783
vt 0.297538 0.063783
vt 0.264905 0.063783
vt 0.266564 0.063783
vt 0.297538 0.063783
vt 0.266564 0.063783
vt 0.264905 0.063783
vt 0.266564 0.063783
vt 0.200282 0.064076
vt 0.266564 0.063783
vt 0.264905 0.063783
vt 0.266564 0.063783
vt 0.264905 0.063783
vt 0.264905 0.063783
vt 0.200282 0.064076
vt 0.297538 0.063783
vt 0.264905 0.063783
vt 0.264905 0.063783
vt 0.264905 0.063783
vt 0.297538 0.063783
vt 0.297538 0.063783
vt 0.264905 0.063783
vt 0.264905 0.063783
vt 0.264905 0.063783
vt 0.297538 0.063783
vt 0.297538 0.063783
vt 0.264905 0.063783
vt 0.264905 0.063783
vt 0.264905 0.063783
vt 0.297538 0.063783
vt 0.264905 0.063783
vt 0.297538 0.063783
vt 0.297538 0.063783
vt 0.264905 0.063783
vt 0.264905 0.063783
vt 0.200283 0.064076
vt 0.264905 0.063783
vt 0.297538 0.063783
vt 0.297538 0.063783
vt 0.200283 0.064076
vt 0.264905 0.063783
vt 0.297538 0.063783
vt 0.297538 0.063783
vt 0.264905 0.063783
vt 0.267670 0.063783
vt 0.266564 0.063783
vt 0.263798 0.063783
vt 0.297538 0.063783
vt 0.263798 0.063783
vt 0.267670 0.063783
vt 0.297538 0.063783
vt 0.266564 0.063783
vt 0.263798 0.063783
vt 0.200283 0.064076
vt 0.267670 0.063783
vt 0.266564 0.063783
vt 0.263798 0.063783
vt 0.297538 0.063783
vt 0.267670 0.063783
vt 0.266564 0.063783
vt 0.267670 0.063783
vt 0.263798 0.063783
vt 0.266564 0.063783
vt 0.200283 0.064076
vt 0.200283 0.064076
vt 0.263798 0.063783
vt 0.266564 0.063783
vt 0.267670 0.063783
vt 0.263798 0.063783
vt 0.297538 0.063783
vt 0.267670 0.063783
vt 0.266564 0.063783
vt 0.263798 0.063783
vt 0.267670 0.063783
vt 0.297538 0.063783
vt 0.266564 0.063783
vt 0.297538 0.063783
vt 0.267670 0.063783
vt 0.267670 0.063783
vt 0.297538 0.063783
vt 0.267670 0.063783
vt 0.200283 0.064076
vt 0.200283 0.064076
vt 0.267670 0.063783
vt 0.267670 0.063783
vt 0.297538 0.063783
vt 0.200283 0.064076
vt 0.267670 0.063783
vt 0.297538 0.063783
vt 0.267670 0.063783
vt 0.297538 0.063783
vt 0.267670 0.063783
vt 0.200282 0.064076
vt 0.200282 0.064076
vt 0.200282 0.064076
vt 0.200282 0.064076
vt 0.200283 0.064076
vt 0.200283 0.064076
vt 0.200283 0.064076
vt 0.200283 0.064076
vt 0.200282 0.064076
vt 0.200282 0.064076
vt 0.200282 0.064076
vt 0.200282 0.064076
vt 0.200282 0.064076
vt 0.200282 0.064076
vt 0.200282 0.064076
vt 0.200282 0.064076
vt 0.264972 0.063529
vt 0.264972 0.063529
vt 0.264972 0.063529
vt 0.264971 0.063529
vt 0.264971 0.063529
vt 0.264971 0.063529
vt 0.264971 0.063529
vt 0.264972 0.063529
vt 0.264972 0.063529
vt 0.264971 0.063529
vt 0.264971 0.063529
vt 0.264972 0.063529
vt 0.264972 0.063529
vt 0.264972 0.063529
vt 0.264972 0.063529
vt 0.264972 0.063529
vt 0.261122 0.063783
vt 0.261122 0.063783
vt 0.261122 0.063783
vt 0.261122 0.063783
vt 0.327005 0.063783
vt 0.327005 0.063783
vt 0.327005 0.063783
vt 0.327005 0.063783
vt 0.261122 0.063783
vt 0.261122 0.063783
vt 0.261122 0.063783
vt 0.261122 0.063783
vt 0.197758 0.063783
vt 0.197758 0.063783
vt 0.197758 0.063783
vt 0.197758 0.063783
vt 0.231348 0.063783
vt 0.231348 0.063783
vt 0.231348 0.063783
vt 0.231348 0.063783
vt 0.231348 0.063783
vt 0.231348 0.063783
vt 0.231348 0.063783
vt 0.231348 0.063783
vt 0.261122 0.063783
vt 0.261122 0.063783
vt 0.261122 0.063783
vt 0.261122 0.063783
vt 0.327005 0.063783
vt 0.327005 0.063783
vt 0.327005 0.063783
vt 0.327005 0.063783
vt 0.261122 0.063783
vt 0.261122 0.063783
vt 0.261122 0.063783
vt 0.261122 0.063783
vt 0.197758 0.063783
vt 0.197758 0.063783
vt 0.197758 0.063783
vt 0.197758 0.063783
vt 0.231348 0.063783
vt 0.231348 0.063783
vt 0.231348 0.063783
vt 0.231348 0.063783
vt 0.231348 0.063783
vt 0.231348 0.063783
vt 0.231348 0.063783
vt 0.231348 0.063783
vt 0.261122 0.063783
vt 0.261122 0.063783
vt 0.261122 0.063783
vt 0.261122 0.063783
vt 0.327005 0.063783
vt 0.327005 0.063783
vt 0.327005 0.063783
vt 0.327005 0.063783
vt 0.261122 0.063783
vt 0.261122 0.063783
vt 0.261122 0.063783
vt 0.261122 0.063783
vt 0.197758 0.063783
vt 0.197758 0.063783
vt 0.197758 0.063783
vt 0.197758 0.063783
vt 0.231348 0.063783
vt 0.231348 0.063783
vt 0.231348 0.063783
vt 0.231348 0.063783
vt 0.231348 0.063783
vt 0.231348 0.063783
vt 0.231348 0.063783
vt 0.231348 0.063783
vt 0.261122 0.063783
vt 0.261122 0.063783
vt 0.261122 0.063783
vt 0.261122 0.063783
vt 0.327005 0.063783
vt 0.327005 0.063783
vt 0.327005 0.063783
vt 0.327005 0.063783
vt 0.261122 0.063783
vt 0.261122 0.063783
vt 0.261122 0.063783
vt 0.261122 0.063783
vt 0.197758 0.063783
vt 0.197758 0.063783
vt 0.197758 0.063783
vt 0.197758 0.063783
vt 0.231348 0.063783
vt 0.231348 0.063783
vt 0.231348 0.063783
vt 0.231348 0.063783
vt 0.231348 0.063783
vt 0.231348 0.063783
vt 0.231348 0.063783
vt 0.231348 0.063783
vn 0.000000 1.000000 0.000000
vn 0.000000 1.000000 0.000000
vn 0.000000 1.000000 0.000000
vn 0.000000 1.000000 0.000000
vn 0.000000 1.000000 0.000000
vn 0.000000 1.000000 0.000000
vn 0.000000 1.000000 0.000000
vn 0.000000 1.000000 0.000000
vn 0.000000 1.000000 0.000000
vn 0.000000 1.000000 0.000000
vn 0.000000 1.000000 0.000000
vn 0.000000 1.000000 0.000000
vn 0.000000 1.000000 0.000000
vn 0.000000 1.000000 0.000000
vn 0.000000 1.000000 0.000000
vn 0.000000 1.000000 0.000000
vn 0.000000 1.000000 0.000000
vn 0.000000 1.000000 0.000000
vn 0.000000 1.000000 0.000000
vn 0.000000 1.000000 0.000000
vn 0.000000 1.000000 0.000000
vn 0.000000 1.000000 0.000000
vn 0.000000 1.000000 0.000000
vn 0.000000 1.000000 0.000000
vn 0.000000 1.000000 0.000000
vn 0.000000 1.000000 0.000000
vn 0.000000 1.000000 0.000000
vn 0.000000 1.000000 0.000000
vn 0.000000 1.000000 0.000000
vn 0.000000 1.000000 0.000000
vn 0.000000 1.000000 0.000000
vn 0.000000 1.000000 0.000000
vn 0.000000 1.000000 0.000000
vn 0.000000 1.000000 0.000000
vn 0.000000 1.000000 0.000000
vn 0.000000 1.000000 0.000000
vn 0.000000 1.000000 0.000000
vn 0.000000 1.000000 0.000000
vn 0.000000 1.000000 0.000000
vn 0.000000 1.000000 0.000000
vn 0.000000 1.000000 0.000000
vn 0.000000 1.000000 0.000000
vn 0.000000 1.000000 0.000000
vn 0.000000 1.000000 0.000000
vn 0.000000 1.000000 0.000000
vn 0.000000 1.000000 0.000000
vn 0.000000 1.000000 0.000000
vn 0.000000 1.000000 0.000000
vn 0.000000 1.000000 0.000000
vn 0.000000 1.000000 0.000000
vn 0.000000 1.000000 0.000000
vn 0.000000 1.000000 0.000000
vn 0.000000 1.000000 0.000000
vn 0.000000 1.000000 0.000000
vn 0.000000 1.000000 0.000000
vn 0.000000 1.000000 0.000000
vn 0.000000 1.000000 0.000000
vn 0.000000 1.000000 0.000000
vn 0.000000 1.000000 0.000000
vn 0.000000 1.000000 0.000000
vn 0.000000 1.000000 0.000000
vn 0.000000 1.000000 0.000000
vn 0.000000 1.000000 0.000000
vn 0.000000 1.000000 0.000000
vn 0.000000 1.000000 0.000000
vn 0.000000 1.000000 0.000000
vn 0.000000 1.000000 0.000000
vn 0.000000 1.000000 0.000000
vn 0.000000 1.000000 0.000000
vn 0.000000 1.000000 0.000000
vn 0.000000 1.000000 0.000000
vn 0.000000 1.000000 0.000000
vn 0.000000 1.000000 0.000000
vn 0.000000 1.000000 0.000000
vn 0.000000 1.000000 0.000000
vn 0.000000 1.000000 0.000000
vn 0.000000 1.000000 0.000000
vn 0.000000 1.000000 0.000000
vn 0.000000 1.000000 0.000000
vn 0.000000 1.000000 0.000000
vn 0.000000 1.000000 0.000000
vn 0.000000 1.000000 0.000000
vn 0.000000 1.000000 0.000000
vn 0.000000 1.000000 0.000000
vn 0.000000 1.000000 0.000000
vn 0.000000 1.000000 0.000000
vn 0.000000 1.000000 0.000000
vn 0.000000 1.000000 0.000000
vn 0.000000 1.000000 0.000000
vn 0.000000 1.000000 0.000000
vn 0.000000 1.000000 0.000000
vn 0.000000 1.000000 0.000000
vn 0.000000 1.000000 0.000000
vn 0.000000 1.000000 0.000000
vn 0.000000 1.000000 0.000000
vn 0.000000 1.000000 0.000000
vn 0.000000 1.000000 0.000000
vn 0.000000 1.000000 0.000000
vn 0.000000 1.000000 0.000000
vn 0.000000 1.000000 0.000000
vn 0.000000 1.000000 0.000000
vn 0.000000 1.000000 0.000000
vn 0.000000 1.000000 0.000000
vn 0.000000 1.000000 0.000000
vn 0.000000 1.000000 0.000000
vn 0.000000 1.000000 0.000000
vn 0.000000 1.000000 0.000000
vn 0.000000 1.000000 0.000000
vn 0.000000 1.000000 0.000000
vn 0.000000 1.000000 0.000000
vn 0.000000 1.000000 0.000000
vn 0.000000 1.000000 0.000000
vn 0.000000 1.000000 0.000000
vn 0.000000 1.000000 0.000000
vn 0.000000 1.000000 0.000000
vn 0.000000 1.000000 0.000000
vn 0.000000 1.000000 0.000000
vn 0.000000 1.000000 0.000000
vn 0.000000 1.000000 0.000000
vn 0.000000 1.000000 0.000000
vn 0.000000 1.000000 0.000000
vn 0.000000 1.000000 0.000000
vn 0.000000 1.000000 0.000000
vn 0.000000 1.000000 0.000000
vn 0.000000 1.000000 0.000000
vn 0.000000 1.000000 0.000000
vn 0.000000 1.000000 0.000000
vn 0.000000 1.000000 0.000000
vn 0.000000 1.000000 0.000000
vn 0.000000 1.000000 0.000000
vn 0.000000 1.000000 0.000000
vn 0.000000 1.000000 0.000000
vn 0.000000 1.000000 0.000000
vn 0.000000 1.000000 0.000000
vn 0.000000 1.000000 0.000000
vn 0.000000 1.000000 0.000000
vn 0.000000 1.000000 0.000000
vn 0.000000 1.000000 0.000000
vn 0.000000 1.000000 0.000000
vn 0.000000 1.000000 0.000000
vn 0.000000 1.000000 0.000000
vn 0.000000 1.000000 0.000000
vn 0.000000 1.000000 0.000000
vn 0.000000 1.000000 0.000000
vn 0.000000 1.000000 0.000000
vn 0.000000 1.000000 0.000000
vn 0.000000 1.000000 0.000000
vn 0.000000 1.000000 0.000000
vn 0.000000 1.000000 0.000000
vn 0.000000 1.000000 0.000000
vn 0.000000 1.000000 0.000000
vn 0.000000 1.000000 0.000000
vn 0.000000 1.000000 0.000000
vn 0.000000 1.000000 0.000000
vn 0.000000 1.000000 0.000000
vn 0.000000 1.000000 0.000000
vn 0.000000 1.000000 0.000000
vn 0.000000 1.000000 0.000000
vn 0.000000 1.000000 0.000000
vn 0.000000 1.000000 0.000000
vn 0.000000 1.000000 0.000000
vn 0.000000 1.000000 0.000000
vn 0.000000 1.000000 0.000000
vn 0.000000 1.000000 0.000000
vn 0.000000 1.000000 0.000000
vn 0.000000 1.000000 0.000000
vn 0.000000 1.000000 0.000000
vn 0.000000 1.000000 0.000000
vn 0.000000 1.000000 0.000000
vn 0.000000 1.000000 0.000000
vn 0.000000 1.000000 0.000000
vn 0.000000 1.000000 0.000000
vn 0.000000 1.000000 0.000000
vn 0.000000 1.000000 0.000000
vn 0.000000 1.000000 0.000000
vn 0.000000 1.000000 0.000000
vn 0.000000 1.000000 0.000000
vn 0.000000 1.000000 0.000000
vn 0.000000 1.000000 0.000000
vn 0.000000 1.000000 0.000000
vn 0.000000 1.000000 0.000000
vn 0.000000 1.000000 0.000000
vn 0.000000 1.000000 0.000000
vn 0.000000 1.000000 0.000000
vn 0.000000 1.000000 0.000000
vn 0.000000 1.000000 0.000000
vn 0.000000 1.000000 0.000000
vn 0.000000 1.000000 0.000000
vn 0.000000 1.000000 0.000000
vn 0.000000 1.000000 0.000000
vn 0.000000 1.000000 0.000000
vn 0.000000 1.000000 0.000000
vn 0.000000 1.000000 0.000000
vn 0.000000 1.000000 0.000000
vn 0.000000 1.000000 0.000000
vn 0.000000 1.000000 0.000000
vn -1.000000 0.000000 0.000000
vn -1.000000 0.000000 0.000000
vn -1.000000 0.000000 0.000000
vn -1.000000 0.000000 0.000000
vn 0.000000 0.000000 -1.000000
vn 0.000000 0.000000 -1.000000
vn 0.000000 0.000000 -1.000000
vn 0.000000 0.000000 -1.000000
vn 1.000000 0.000000 0.000000
vn 1.000000 0.000000 0.000000
vn 1.000000 0.000000 0.000000
vn 1.000000 0.000000 0.000000
vn 0.000000 0.000000 1.000000
vn 0.000000 0.000000 1.000000
vn 0.000000 0.000000 1.000000
vn 0.000000 0.000000 1.000000
vn 0.000000 0.000000 1.000000
vn 0.000000 0.000000 1.000000
vn 0.000000 0.000000 1.000000
vn 0.000000 0.000000 1.000000
vn -1.000000 0.000000 -0.000005
vn -1.000000 0.000000 -0.000005
vn -1.000000 0.000000 -0.000005
vn -1.000000 0.000000 -0.000005
vn 0.000000 0.000000 -1.000000
vn 0.000000 0.000000 -1.000000
vn 0.000000 0.000000 -1.000000
vn 0.000000 0.000000 -1.000000
vn 1.000000 0.000000 0.000000
vn 1.000000 0.000000 0.000000
vn 1.000000 0.000000 0.000000
vn 1.000000 0.000000 0.000000
vn 1.000000 0.000000 0.000000
vn 1.000000 0.000000 0.000000
vn 1.000000 0.000000 0.000000
vn 1.000000 0.000000 0.000000
vn 0.000000 0.000000 1.000000
vn 0.000000 0.000000 1.000000
vn 0.000000 0.000000 1.000000
vn 0.000000 0.000000 1.000000
vn -1.000000 0.000000 0.000000
vn -1.000000 0.000000 0.000000
vn -1.000000 0.000000 0.000000
vn -1.000000 0.000000 0.000000
vn 0.000000 0.000000 -1.000000
vn 0.000000 0.000000 -1.000000
vn 0.000000 0.000000 -1.000000
vn 0.000000 0.000000 -1.000000
vn 1.000000 0.000000 0.000000
vn 1.000000 0.000000 0.000000
vn 1.000000 0.000000 0.000000
vn 1.000000 0.000000 0.000000
vn 0.000000 0.000000 1.000000
vn 0.000000 0.000000 1.000000
vn 0.000000 0.000000 1.000000
vn 0.000000 0.000000 1.000000
vn -1.000000 0.000000 0.000000
vn -1.000000 0.000000 0.000000
vn -1.000000 0.000000 0.000000
vn -1.000000 0.000000 0.000000
vn 0.000000 0.000000 -1.000000
vn 0.000000 0.000000 -1.000000
vn 0.000000 0.000000 -1.000000
vn 0.000000 0.000000 -1.000000
vn 0.000000 0.000000 -1.000000
vn 0.000000 0.000000 -1.000000
vn 0.000000 0.000000 -1.000000
vn 0.000000 0.000000 -1.000000
vn 0.208667 0.977987 0.000000
vn 0.208667 0.977987 0.000000
vn 0.208667 0.977987 0.000000
vn 0.208667 0.977987 0.000000
vn 0.000000 0.000000 1.000000
vn 0.000000 0.000000 1.000000
vn 0.000000 0.000000 1.000000
vn 0.000000 0.000000 1.000000
vn -0.208667 -0.977987 0.000000
vn -0.208667 -0.977987 0.000000
vn -0.208667 -0.977987 0.000000
vn -0.208667 -0.977987 0.000000
vn 0.977987 -0.208667 0.000000
vn 0.977987 -0.208667 0.000000
vn 0.977987 -0.208667 0.000000
vn 0.977987 -0.208667 0.000000
vn -0.977987 0.208667 0.000000
vn -0.977987 0.208667 0.000000
vn -0.977987 0.208667 0.000000
vn -0.977987 0.208667 0.000000
vn -0.403774 0.109093 -0.908331
vn -0.403774 0.109093 -0.908331
vn -0.403774 0.109093 -0.908331
vn -0.403774 0.109093 -0.908331
vn -0.056265 0.988023 0.143682
vn -0.056265 0.988023 0.143682
vn -0.056265 0.988023 0.143682
vn -0.056265 0.988023 0.143682
vn 0.403775 -0.109106 0.908329
vn 0.403775 -0.109106 0.908329
vn 0.403775 -0.109106 0.908329
vn 0.403775 -0.109106 0.908329
vn 0.056264 -0.988023 -0.143682
vn 0.056264 -0.988023 -0.143682
vn 0.056264 -0.988023 -0.143682
vn 0.056264 -0.988023 -0.143682
vn 0.913126 0.109121 -0.392801
vn 0.913126 0.109121 -0.392801
vn 0.913126 0.109121 -0.392801
vn 0.913126 0.109121 -0.392801
vn -0.913127 -0.109122 0.392801
vn -0.913127 -0.109122 0.392801
vn -0.913127 -0.109122 0.392801
vn -0.913127 -0.109122 0.392801
vn 0.622594 0.000000 -0.782545
vn 0.622594 0.000000 -0.782545
vn 0.622594 0.000000 -0.782545
vn 0.622594 0.000000 -0.782545
vn 0.000000 1.000000 0.000000
vn 0.000000 1.000000 0.000000
vn 0.000000 1.000000 0.000000
vn 0.000000 1.000000 0.000000
vn -0.622594 0.000000 0.782545
vn -0.622594 0.000000 0.782545
vn -0.622594 0.000000 0.782545
vn -0.622594 0.000000 0.782545
vn 0.000000 -1.000000 0.000000
vn 0.000000 -1.000000 0.000000
vn 0.000000 -1.000000 0.000000
vn 0.000000 -1.000000 0.000000
vn 0.782544 0.000000 0.622596
vn 0.782544 0.000000 0.622596
vn 0.782544 0.000000 0.622596
vn 0.782544 0.000000 0.622596
vn -0.782544 0.000000 -0.622596
vn -0.782544 0.000000 -0.622596
vn -0.782544 0.000000 -0.622596
vn -0.782544 0.000000 -0.622596
vn -0.818248 0.000000 -0.574865
vn -0.818248 0.000000 -0.574865
vn -0.818248 0.000000 -0.574865
vn -0.818248 0.000000 -0.574865
vn 0.000000 1.000000 0.000000
vn 0.000000 1.000000 0.000000
vn 0.000000 1.000000 0.000000
vn 0.000000 1.000000 0.000000
vn 0.818247 0.000000 0.574866
vn 0.818247 0.000000 0.574866
vn 0.818247 0.000000 0.574866
vn 0.818247 0.000000 0.574866
vn 0.000000 -1.000000 0.000000
vn 0.000000 -1.000000 0.000000
vn 0.000000 -1.000000 0.000000
vn 0.000000 -1.000000 0.000000
vn 0.574865 0.000000 -0.818248
vn 0.574865 0.000000 -0.818248
vn 0.574865 0.000000 -0.818248
vn 0.574865 0.000000 -0.818248
vn -0.574864 0.000000 0.818249
vn -0.574864 0.000000 0.818249
vn -0.574864 0.000000 0.818249
vn -0.574864 0.000000 0.818249
s off
f 14/25/1 16/30/2 15/34/3 13/38/4
f 1/1/5 6/11/6 33/77/7 28/67/8 52/147/9 50/143/10 30/71/11 35/81/12 5/16/13 2/20/14
f 2/2/15 5/6/16 36/84/17 32/76/18 48/140/19 46/136/20 22/56/21 37/86/22 7/13/23 4/18/24
f 4/3/25 7/7/26 38/88/27 20/52/28 54/152/29 56/156/30 18/48/31 39/90/32 8/9/33 3/15/34
f 3/4/35 8/8/36 40/92/37 24/60/38 41/126/39 44/132/40 26/64/41 34/80/42 6/12/43 1/19/44
f 9/43/45 5/17/46 35/82/47
f 11/39/48 7/14/49 37/85/50
f 57/189/51 59/191/52 58/190/53
f 10/110/54 6/5/55 34/79/56
f 13/37/57 9/44/58 29/70/59
f 15/33/60 11/40/61 21/53/62
f 16/29/63 12/36/64 17/45/65
f 14/32/66 10/42/67 25/61/68
f 15/27/69 16/29/70 17/45/71 55/153/72 53/149/73 19/49/74
f 55/157/75 17/123/76 18/47/77 56/155/78
f 11/23/79 15/27/80 19/49/81
f 11/99/82 19/50/83 20/51/84 38/87/85
f 13/26/86 15/33/87 21/53/88 45/133/89 47/137/90 31/73/91
f 61/192/92 64/195/93 63/194/94 62/193/95
f 12/24/96 16/28/97 23/57/98
f 12/94/99 23/58/100 24/59/101 40/91/102
f 16/28/103 14/32/104 25/61/105 43/129/106 42/127/107 23/57/108
f 23/119/109 42/128/110 41/171/111 24/96/112
f 10/21/113 14/31/114 27/66/115
f 10/109/116 27/115/117 28/68/118 33/78/119
f 14/31/120 13/37/121 29/70/122 49/142/123 51/146/124 27/66/125
f 65/196/126 68/199/127 67/198/128 66/197/129
f 9/22/130 13/26/131 31/73/132
f 9/104/133 31/74/134 32/75/135 36/83/136
f 6/5/137 10/110/138 33/112/139
f 25/117/140 10/41/141 34/111/142 26/63/143
f 29/114/144 9/103/145 35/107/146 30/108/147
f 5/17/148 9/43/149 36/105/150
f 21/54/151 11/98/152 37/102/153 22/121/154
f 7/14/155 11/39/156 38/100/157
f 17/46/158 12/93/159 39/97/160 18/124/161
f 59/191/162 57/189/163 60/200/164
f 43/169/165 25/62/166 26/118/167 44/131/168
f 42/172/169 43/130/170 44/170/171 41/125/172
f 47/165/173 45/168/174 46/135/175 48/139/176
f 31/113/177 47/138/178 48/166/179 32/106/180
f 51/161/181 49/141/182 50/164/183 52/148/184
f 69/201/185 72/204/186 71/203/187 70/202/188
f 19/122/189 53/150/190 54/160/191 20/101/192
f 53/159/193 55/154/194 56/158/195 54/151/196
f 12/10/197 57/65/198 58/55/199 39/35/200
f 39/35/201 58/55/202 59/72/203 8/69/204
f 8/69/205 59/72/206 60/95/207 40/89/208
f 40/89/209 60/95/210 57/65/211 12/10/212
f 45/116/213 61/144/214 62/134/215 46/120/216
f 46/120/217 62/134/218 63/162/219 22/145/220
f 22/145/221 63/162/222 64/167/223 21/163/224
f 21/163/225 64/167/226 61/144/227 45/116/228
f 49/173/229 65/176/230 66/175/231 50/174/232
f 50/174/233 66/175/234 67/178/235 30/177/236
f 30/177/237 67/178/238 68/180/239 29/179/240
f 29/179/241 68/180/242 65/176/243 49/173/244
f 27/181/245 69/184/246 70/183/247 28/182/248
f 28/182/249 70/183/250 71/186/251 52/185/252
f 52/185/253 71/186/254 72/188/255 51/187/256
f 51/187/257 72/188/258 69/184/259 27/181/260
f 73/205/261 75/208/262 76/207/263 74/206/264
f 75/209/265 77/212/266 78/211/267 76/210/268
f 77/213/269 79/216/270 80/215/271 78/214/272
f 79/217/273 73/220/274 74/219/275 80/218/276
f 74/221/277 76/224/278 78/223/279 80/222/280
f 79/225/281 77/228/282 75/227/283 73/226/284
f 81/229/285 83/232/286 84/231/287 82/230/288
f 83/233/289 85/236/290 86/235/291 84/234/292
f 85/237/293 87/240/294 88/239/295 86/238/296
f 87/241/297 81/244/298 82/243/299 88/242/300
f 82/245/301 84/248/302 86/247/303 88/246/304
f 87/249/305 85/252/306 83/251/307 81/250/308
f 89/253/309 91/256/310 92/255/311 90/254/312
f 91/257/313 93/260/314 94/259/315 92/258/316
f 93/261/317 95/264/318 96/263/319 94/262/320
f 95/265/321 89/268/322 90/267/323 96/266/324
f 90/269/325 92/272/326 94/271/327 96/270/328
f 95/273/329 93/276/330 91/275/331 89/274/332
f 97/277/333 99/280/334 100/279/335 98/278/336
f 99/281/337 101/284/338 102/283/339 100/282/340
f 101/285/341 103/288/342 104/287/343 102/286/344
f 103/289/345 97/292/346 98/291/347 104/290/348
f 98/293/349 100/296/350 102/295/351 104/294/352
f 103/297/353 101/300/354 99/299/355 97/298/356
