# This file uses meters as units for non-parametric coordinates.

v -2.500015 0.000000 2.500000
v 2.499985 0.000000 2.500000
v -2.500015 0.000000 -2.500000
v 2.499985 0.000000 -2.500000
v 2.450775 0.000000 2.450796
v -2.450806 0.000000 2.450796
v 2.450775 0.000000 -2.450796
v -2.450806 0.000000 -2.450796
v -1.553474 0.000000 -2.450796
v 1.553444 0.000000 -2.450795
v 2.450775 0.000000 -1.553471
v -2.450806 0.000000 -1.553471
v -2.450806 0.000000 1.553471
v -1.553474 0.000000 2.450796
v 1.553444 0.000000 2.450796
v 2.450775 0.000000 1.553471
v -1.641289 0.000000 2.450796
v -2.450806 0.000000 1.641282
v 1.641258 0.000000 2.450796
v 2.450775 0.000000 1.641282
v 2.450775 0.000000 -1.641282
v 1.641258 0.000000 -2.450795
v -1.641289 0.000000 -2.450796
v -2.450806 0.000000 -1.641282
v -2.450806 0.000000 -0.037493
v -2.450806 0.000000 0.084401
v 2.450775 0.000000 -0.037888
v 2.450775 0.000000 0.073985
v 0.035881 0.000000 2.450795
v -0.095428 0.000000 2.450795
v 0.043510 0.000000 -2.450796
v -0.083900 0.000000 -2.450796
v -1.641289 0.000000 2.253250
v -1.553474 0.000000 2.253250
v -0.095428 0.000000 2.253250
v 0.035881 0.000000 2.253250
v 1.553444 0.000000 2.253250
v 1.641258 0.000000 2.253250
v -2.256866 0.000000 1.641282
v -2.256866 0.000000 1.553471
v -2.256866 0.000000 0.084401
v -2.256866 0.000000 -0.037493
v -2.256866 0.000000 -1.553471
v -2.256866 0.000000 -1.641282
v 2.261147 0.000000 1.641282
v 2.261147 0.000000 1.553471
v 2.261147 0.000000 0.073985
v 2.261147 0.000000 -0.037888
v 2.261147 0.000000 -1.553471
v 2.261147 0.000000 -1.641282
v -1.641289 0.000000 -2.232833
v -1.553474 0.000000 -2.232833
v -0.083900 0.000000 -2.232833
v 0.043510 0.000000 -2.232833
v 1.553444 0.000000 -2.232833
v 1.641258 0.000000 -2.232833
v 2.261147 0.000000 2.253250
v 2.261147 0.000000 -2.232833
v -2.256866 0.000000 2.253250
v -2.256866 0.000000 -2.232833
v 1.641258 -5.401765 2.253250
v 2.261147 -5.401765 2.253250
v 2.261147 -5.401765 -1.641282
v 2.261147 -5.401765 -2.232833
v 2.261147 -5.401765 -0.037888
v 2.261147 -5.401765 -1.553471
v -1.641289 -5.401765 2.253250
v -1.553474 -5.401765 2.253250
v 0.035881 -5.401765 2.253250
v 1.553444 -5.401765 2.253250
v 2.261147 -5.401765 1.641282
v 2.261147 -5.401765 1.553471
v 1.641258 -5.401765 -2.232833
v 2.261147 -5.401765 0.073985
v -0.095428 -5.401765 2.253250
v -2.256866 -5.401765 1.553471
v -2.256866 -5.401765 1.641282
v -2.256866 -5.401765 0.084401
v -2.256866 -5.401765 -0.037493
v -2.256866 -5.401765 -1.553471
v -2.256866 -5.401765 -1.641282
v -1.553474 -5.401765 -2.232833
v -1.641289 -5.401765 -2.232833
v -0.083900 -5.401765 -2.232833
v 0.043510 -5.401765 -2.232833
v 1.553444 -5.401765 -2.232833
v -2.256866 -5.401765 2.253250
v -2.256866 -5.401765 -2.232833
vt 0.266564 0.063783
vt 0.266564 0.063783
vt 0.266564 0.063783
vt 0.266564 0.063783
vt 0.297538 0.063783
vt 0.266564 0.063783
vt 0.266564 0.063783
vt 0.266564 0.063783
vt 0.266564 0.063783
vt 0.297538 0.063783
vt 0.266564 0.063783
vt 0.266564 0.063783
vt 0.266564 0.063783
vt 0.297538 0.063783
vt 0.266564 0.063783
vt 0.266564 0.063783
vt 0.297538 0.063783
vt 0.266564 0.063783
vt 0.266564 0.063783
vt 0.266564 0.063783
vt 0.297538 0.063783
vt 0.266564 0.063783
vt 0.264905 0.063783
vt 0.266564 0.063783
vt 0.297538 0.063783
vt 0.266564 0.063783
vt 0.264905 0.063783
vt 0.266564 0.063783
vt 0.264905 0.063783
vt 0.266564 0.063783
vt 0.266564 0.063783
vt 0.264905 0.063783
vt 0.266564 0.063783
vt 0.297538 0.063783
vt 0.264905 0.063783
vt 0.266564 0.063783
vt 0.266564 0.063783
vt 0.264905 0.063783
vt 0.297538 0.063783
vt 0.266564 0.063783
vt 0.266564 0.063783
vt 0.297538 0.063783
vt 0.264905 0.063783
vt 0.266564 0.063783
vt 0.297538 0.063783
vt 0.266564 0.063783
vt 0.264905 0.063783
vt 0.266564 0.063783
vt 0.297538 0.063783
vt 0.266564 0.063783
vt 0.264905 0.063783
vt 0.266564 0.063783
vt 0.297538 0.063783
vt 0.297538 0.063783
vt 0.264905 0.063783
vt 0.297538 0.063783
vt 0.297538 0.063783
vt 0.264905 0.063783
vt 0.297538 0.063783
vt 0.297538 0.063783
vt 0.264905 0.063783
vt 0.264905 0.063783
vt 0.264905 0.063783
vt 0.297538 0.063783
vt 0.297538 0.063783
vt 0.297538 0.063783
vt 0.264905 0.063783
vt 0.264905 0.063783
vt 0.267670 0.063783
vt 0.266564 0.063783
vt 0.297538 0.063783
vt 0.266564 0.063783
vt 0.267670 0.063783
vt 0.266564 0.063783
vt 0.267670 0.063783
vt 0.266564 0.063783
vt 0.266564 0.063783
vt 0.297538 0.063783
vt 0.266564 0.063783
vt 0.267670 0.063783
vt 0.267670 0.063783
vt 0.266564 0.063783
vt 0.297538 0.063783
vt 0.266564 0.063783
vt 0.267670 0.063783
vt 0.297538 0.063783
vt 0.297538 0.063783
vt 0.267670 0.063783
vt 0.297538 0.063783
vt 0.297538 0.063783
vt 0.267670 0.063783
vt 0.297538 0.063783
vt 0.140412 0.063636
vt 0.297538 0.063783
vt 0.173045 0.063636
vt 0.264905 0.063783
vt 0.143177 0.063636
vt 0.297538 0.063783
vt 0.173045 0.063636
vt 0.267670 0.063783
vt 0.140412 0.063636
vt 0.297538 0.063783
vt 0.173045 0.063636
vt 0.264905 0.063783
vt 0.173045 0.063636
vt 0.264905 0.063783
vt 0.140412 0.063636
vt 0.297538 0.063783
vt 0.173045 0.063636
vt 0.267670 0.063783
vt 0.297538 0.063783
vt 0.143177 0.063636
vt 0.173045 0.063636
vt 0.264905 0.063783
vt 0.140412 0.063636
vt 0.297538 0.063783
vt 0.140412 0.063636
vt 0.297538 0.063783
vt 0.173045 0.063636
vt 0.264905 0.063783
vt 0.143177 0.063636
vt 0.297538 0.063783
vt 0.173045 0.063636
vt 0.267670 0.063783
vt 0.140412 0.063636
vt 0.297538 0.063783
vt 0.173045 0.063636
vt 0.264905 0.063783
vt 0.173045 0.063636
vt 0.264905 0.063783
vt 0.140412 0.063636
vt 0.297538 0.063783
vt 0.173045 0.063636
vt 0.267670 0.063783
vt 0.143177 0.063636
vt 0.297538 0.063783
vt 0.173045 0.063636
vt 0.264905 0.063783
vt 0.140412 0.063636
vt 0.297538 0.063783
vt 0.173045 0.063636
vt 0.173045 0.063636
vt 0.173045 0.063636
vt 0.173045 0.063636
vt 0.098469 0.063636
vt 0.098469 0.063636
vt 0.098469 0.063636
vt 0.098469 0.063636
vt 0.098469 0.063636
vt 0.098469 0.063636
vt 0.065836 0.063636
vt 0.065836 0.063636
vt 0.098469 0.063636
vt 0.098469 0.063636
vt 0.065836 0.063636
vt 0.065836 0.063636
vt 0.065836 0.063636
vt 0.065836 0.063636
vt 0.098469 0.063636
vt 0.065836 0.063636
vt 0.065836 0.063636
vt 0.098469 0.063636
vt 0.068602 0.063636
vt 0.068602 0.063636
vt 0.098469 0.063636
vt 0.098469 0.063636
vt 0.068602 0.063636
vt 0.068602 0.063636
vt 0.098469 0.063636
vt 0.098469 0.063636
vt 0.065836 0.063636
vt 0.065836 0.063636
vt 0.098469 0.063636
vt 0.098469 0.063636
vt 0.068602 0.063636
vt 0.068602 0.063636
vt 0.098469 0.063636
vt 0.098469 0.063636
vt 0.065836 0.063636
vt 0.065836 0.063636
vt 0.065836 0.063636
vt 0.065836 0.063636
vt 0.098469 0.063636
vt 0.098469 0.063636
vt 0.068602 0.063636
vt 0.068602 0.063636
vt 0.098469 0.063636
vt 0.098469 0.063636
vt 0.065836 0.063636
vt 0.065836 0.063636
vt 0.098469 0.063636
vt 0.098469 0.063636
vt 0.098469 0.063636
vt 0.098469 0.063636
vt 0.098469 0.063636
vt 0.098469 0.063636
vt 0.098469 0.063636
vt 0.297538 0.063783
vt 0.173045 0.063636
vt 0.098469 0.063636
vt 0.297538 0.063783
vt 0.173045 0.063636
vt 0.297538 0.063783
vt 0.140412 0.063636
vt 0.267670 0.063783
vt 0.173045 0.063636
vt 0.297538 0.063783
vt 0.143177 0.063636
vt 0.297538 0.063783
vt 0.140412 0.063636
vt 0.264905 0.063783
vt 0.173045 0.063636
vt 0.264905 0.063783
vt 0.173045 0.063636
vt 0.297538 0.063783
vt 0.140412 0.063636
vt 0.267670 0.063783
vt 0.173045 0.063636
vt 0.297538 0.063783
vt 0.143177 0.063636
vt 0.297538 0.063783
vt 0.140412 0.063636
vt 0.264905 0.063783
vt 0.173045 0.063636
vt 0.267670 0.063783
vt 0.173045 0.063636
vt 0.267670 0.063783
vt 0.173045 0.063636
vt 0.098469 0.063636
vt 0.264905 0.063783
vt 0.173045 0.063636
vt 0.098469 0.063636
vt 0.297538 0.063783
vt 0.140412 0.063636
vt 0.264905 0.063783
vt 0.173045 0.063636
vt 0.264905 0.063783
vt 0.173045 0.063636
vt 0.297538 0.063783
vt 0.143177 0.063636
vt 0.297538 0.063783
vt 0.140412 0.063636
vt 0.264905 0.063783
vt 0.173045 0.063636
vt 0.264905 0.063783
vt 0.173045 0.063636
vt 0.297538 0.063783
vt 0.143177 0.063636
vt 0.297538 0.063783
vt 0.173045 0.063636
vt 0.297538 0.063783
vt 0.140412 0.063636
vt 0.297538 0.063783
vt 0.173045 0.063636
vt 0.297538 0.063783
vt 0.140412 0.063636
vt 0.056117 0.063561
vt 0.056117 0.063561
vt 0.056117 0.063561
vt 0.056117 0.063561
vt 0.056117 0.063561
vt 0.056117 0.063561
vt 0.056117 0.063561
vt 0.056117 0.063561
vt 0.056117 0.063561
vt 0.056117 0.063561
vt 0.056117 0.063561
vt 0.056117 0.063561
vt 0.056117 0.063561
vt 0.056117 0.063561
vt 0.056117 0.063561
vt 0.056117 0.063561
vt 0.056117 0.063561
vt 0.056117 0.063561
vt 0.056117 0.063561
vt 0.056117 0.063561
vt 0.056117 0.063561
vt 0.056117 0.063561
vt 0.056117 0.063561
vt 0.056117 0.063561
vt 0.056117 0.063561
vt 0.056117 0.063561
vt 0.056117 0.063561
vt 0.056117 0.063561
vn 0.000000 1.000000 0.000000
vn 0.000000 1.000000 0.000000
vn 0.000000 1.000000 0.000000
vn 0.000000 1.000000 0.000000
vn 0.000000 1.000000 0.000000
vn 0.000000 1.000000 0.000000
vn 0.000000 1.000000 0.000000
vn 0.000000 1.000000 0.000000
vn 0.000000 1.000000 0.000000
vn 0.000000 1.000000 0.000000
vn 0.000000 1.000000 0.000000
vn 0.000000 1.000000 0.000000
vn 0.000000 1.000000 0.000000
vn 0.000000 1.000000 0.000000
vn 0.000000 1.000000 0.000000
vn 0.000000 1.000000 0.000000
vn 0.000000 1.000000 0.000000
vn 0.000000 1.000000 0.000000
vn 0.000000 1.000000 0.000000
vn 0.000000 1.000000 0.000000
vn 0.000000 1.000000 0.000000
vn 0.000000 1.000000 0.000000
vn 0.000000 1.000000 0.000000
vn 0.000000 1.000000 0.000000
vn 0.000000 1.000000 0.000000
vn 0.000000 1.000000 0.000000
vn 0.000000 1.000000 0.000000
vn 0.000000 1.000000 0.000000
vn 0.000000 1.000000 0.000000
vn 0.000000 1.000000 0.000000
vn 0.000000 1.000000 0.000000
vn 0.000000 1.000000 0.000000
vn 0.000000 1.000000 0.000000
vn 0.000000 1.000000 0.000000
vn 0.000000 1.000000 0.000000
vn 0.000000 1.000000 0.000000
vn 0.000000 1.000000 0.000000
vn 0.000000 1.000000 0.000000
vn 0.000000 1.000000 0.000000
vn 0.000000 1.000000 0.000000
vn 0.000000 1.000000 0.000000
vn 0.000000 1.000000 0.000000
vn 0.000000 1.000000 0.000000
vn 0.000000 1.000000 0.000000
vn 0.000000 1.000000 0.000000
vn 0.000000 1.000000 0.000000
vn 0.000000 1.000000 0.000000
vn 0.000000 1.000000 0.000000
vn 0.000000 1.000000 0.000000
vn 0.000000 1.000000 0.000000
vn 0.000000 1.000000 0.000000
vn 0.000000 1.000000 0.000000
vn 0.000000 1.000000 0.000000
vn 0.000000 1.000000 0.000000
vn 0.000000 1.000000 0.000000
vn 0.000000 1.000000 0.000000
vn 0.000000 1.000000 0.000000
vn 0.000000 1.000000 0.000000
vn 0.000000 1.000000 0.000000
vn 0.000000 1.000000 0.000000
vn 0.000000 1.000000 0.000000
vn 0.000000 1.000000 0.000000
vn 0.000000 1.000000 0.000000
vn 0.000000 1.000000 0.000000
vn 0.000000 1.000000 0.000000
vn 0.000000 1.000000 0.000000
vn 0.000000 1.000000 0.000000
vn 0.000000 1.000000 0.000000
vn 0.000000 1.000000 0.000000
vn 0.000000 1.000000 0.000000
vn 0.000000 1.000000 0.000000
vn 0.000000 1.000000 0.000000
vn 0.000000 1.000000 0.000000
vn 0.000000 1.000000 0.000000
vn 0.000000 1.000000 0.000000
vn 0.000000 1.000000 0.000000
vn 0.000000 1.000000 0.000000
vn 0.000000 1.000000 0.000000
vn 0.000000 1.000000 0.000000
vn 0.000000 1.000000 0.000000
vn 0.000000 1.000000 0.000000
vn 0.000000 1.000000 0.000000
vn 0.000000 1.000000 0.000000
vn 0.000000 1.000000 0.000000
vn 0.000000 1.000000 0.000000
vn 0.000000 1.000000 0.000000
vn 0.000000 1.000000 0.000000
vn 0.000000 1.000000 0.000000
vn 0.000000 1.000000 0.000000
vn 0.000000 1.000000 0.000000
vn 0.000000 1.000000 0.000000
vn 0.000000 1.000000 0.000000
vn 0.000000 1.000000 0.000000
vn 0.000000 1.000000 0.000000
vn 0.000000 1.000000 0.000000
vn 0.000000 1.000000 0.000000
vn 0.000000 1.000000 0.000000
vn 0.000000 1.000000 0.000000
vn 0.000000 1.000000 0.000000
vn 0.000000 1.000000 0.000000
vn 0.000000 1.000000 0.000000
vn 0.000000 1.000000 0.000000
vn 0.000000 1.000000 0.000000
vn 0.000000 1.000000 0.000000
vn 0.000000 1.000000 0.000000
vn 0.000000 1.000000 0.000000
vn 0.000000 1.000000 0.000000
vn 0.000000 1.000000 0.000000
vn 0.000000 1.000000 0.000000
vn 0.000000 1.000000 0.000000
vn 0.000000 1.000000 0.000000
vn 0.000000 1.000000 0.000000
vn 0.000000 1.000000 0.000000
vn 0.000000 1.000000 0.000000
vn 0.000000 1.000000 0.000000
vn 0.000000 1.000000 0.000000
vn 0.000000 1.000000 0.000000
vn 0.000000 1.000000 0.000000
vn 0.000000 1.000000 0.000000
vn 0.000000 1.000000 0.000000
vn 0.000000 1.000000 0.000000
vn 0.000000 1.000000 0.000000
vn 0.000000 1.000000 0.000000
vn 0.000000 1.000000 0.000000
vn 0.000000 1.000000 0.000000
vn 0.000000 1.000000 0.000000
vn 0.000000 1.000000 0.000000
vn 0.000000 1.000000 0.000000
vn 0.000000 1.000000 0.000000
vn 0.000000 1.000000 0.000000
vn 0.000000 1.000000 0.000000
vn 0.000000 1.000000 0.000000
vn 0.000000 1.000000 0.000000
vn 0.000000 1.000000 0.000000
vn 0.000000 1.000000 0.000000
vn 0.000000 1.000000 0.000000
vn 0.000000 1.000000 0.000000
vn 0.000000 1.000000 0.000000
vn 0.000000 1.000000 0.000000
vn 0.000000 1.000000 0.000000
vn 0.000000 1.000000 0.000000
vn 0.000000 1.000000 0.000000
vn 0.000000 1.000000 0.000000
vn 0.000000 1.000000 0.000000
vn 0.000000 1.000000 0.000000
vn 0.000000 1.000000 0.000000
vn 0.000000 1.000000 0.000000
vn 0.000000 1.000000 0.000000
vn 0.000000 1.000000 0.000000
vn 0.000000 1.000000 0.000000
vn 0.000000 1.000000 0.000000
vn 0.000000 1.000000 0.000000
vn 0.000000 0.000000 -1.000000
vn 0.000000 0.000000 -1.000000
vn 0.000000 0.000000 -1.000000
vn 0.000000 0.000000 -1.000000
vn -1.000000 0.000000 0.000000
vn -1.000000 0.000000 0.000000
vn -1.000000 0.000000 0.000000
vn -1.000000 0.000000 0.000000
vn -1.000000 0.000000 0.000000
vn -1.000000 0.000000 0.000000
vn -1.000000 0.000000 0.000000
vn -1.000000 0.000000 0.000000
vn 0.000000 0.000000 -1.000000
vn 0.000000 0.000000 -1.000000
vn 0.000000 0.000000 -1.000000
vn 0.000000 0.000000 -1.000000
vn 0.000000 0.000000 -1.000000
vn 0.000000 0.000000 -1.000000
vn 0.000000 0.000000 -1.000000
vn 0.000000 0.000000 -1.000000
vn -1.000000 0.000000 0.000000
vn -1.000000 0.000000 0.000000
vn -1.000000 0.000000 0.000000
vn -1.000000 0.000000 0.000000
vn 0.000000 0.000000 -1.000000
vn 0.000000 0.000000 -1.000000
vn 0.000000 0.000000 -1.000000
vn 0.000000 0.000000 -1.000000
vn -1.000000 0.000000 0.000000
vn -1.000000 0.000000 0.000000
vn -1.000000 0.000000 0.000000
vn -1.000000 0.000000 0.000000
vn -1.000000 0.000000 0.000000
vn -1.000000 0.000000 0.000000
vn -1.000000 0.000000 0.000000
vn -1.000000 0.000000 0.000000
vn 0.000000 0.000000 1.000000
vn 0.000000 0.000000 1.000000
vn 0.000000 0.000000 1.000000
vn 0.000000 0.000000 1.000000
vn -1.000000 0.000000 0.000000
vn -1.000000 0.000000 0.000000
vn -1.000000 0.000000 0.000000
vn -1.000000 0.000000 0.000000
vn -1.000000 0.000000 0.000000
vn -1.000000 0.000000 0.000000
vn -1.000000 0.000000 0.000000
vn -1.000000 0.000000 0.000000
vn 0.000000 0.000000 -1.000000
vn 0.000000 0.000000 -1.000000
vn 0.000000 0.000000 -1.000000
vn 0.000000 0.000000 -1.000000
vn -0.000000 0.000000 -1.000000
vn -0.000000 0.000000 -1.000000
vn -0.000000 0.000000 -1.000000
vn -0.000000 0.000000 -1.000000
vn 1.000000 0.000000 0.000000
vn 1.000000 0.000000 0.000000
vn 1.000000 0.000000 0.000000
vn 1.000000 0.000000 0.000000
vn 1.000000 0.000000 0.000000
vn 1.000000 0.000000 0.000000
vn 1.000000 0.000000 0.000000
vn 1.000000 0.000000 0.000000
vn 1.000000 0.000000 0.000000
vn 1.000000 0.000000 0.000000
vn 1.000000 0.000000 0.000000
vn 1.000000 0.000000 0.000000
vn 1.000000 0.000000 0.000000
vn 1.000000 0.000000 0.000000
vn 1.000000 0.000000 0.000000
vn 1.000000 0.000000 0.000000
vn 1.000000 0.000000 0.000000
vn 1.000000 0.000000 0.000000
vn 1.000000 0.000000 0.000000
vn 1.000000 0.000000 0.000000
vn 0.000000 0.000000 1.000000
vn 0.000000 0.000000 1.000000
vn 0.000000 0.000000 1.000000
vn 0.000000 0.000000 1.000000
vn -0.000000 0.000000 1.000000
vn -0.000000 0.000000 1.000000
vn -0.000000 0.000000 1.000000
vn -0.000000 0.000000 1.000000
vn 0.000000 0.000000 1.000000
vn 0.000000 0.000000 1.000000
vn 0.000000 0.000000 1.000000
vn 0.000000 0.000000 1.000000
vn 0.000000 0.000000 1.000000
vn 0.000000 0.000000 1.000000
vn 0.000000 0.000000 1.000000
vn 0.000000 0.000000 1.000000
vn 0.000000 0.000000 1.000000
vn 0.000000 0.000000 1.000000
vn 0.000000 0.000000 1.000000
vn 0.000000 0.000000 1.000000
vn 0.000000 0.000000 -1.000000
vn 0.000000 0.000000 -1.000000
vn 0.000000 0.000000 -1.000000
vn 0.000000 0.000000 -1.000000
vn 1.000000 0.000000 0.000000
vn 1.000000 0.000000 0.000000
vn 1.000000 0.000000 0.000000
vn 1.000000 0.000000 0.000000
vn 1.000000 0.000000 0.000000
vn 1.000000 0.000000 0.000000
vn 1.000000 0.000000 0.000000
vn 1.000000 0.000000 0.000000
vn 0.000000 0.000000 1.000000
vn 0.000000 0.000000 1.000000
vn 0.000000 0.000000 1.000000
vn 0.000000 0.000000 1.000000
vn 0.000000 1.000000 -0.000000
vn 0.000000 1.000000 -0.000000
vn 0.000000 1.000000 -0.000000
vn 0.000000 1.000000 -0.000000
vn 0.000000 1.000000 -0.000000
vn 0.000000 1.000000 -0.000000
vn 0.000000 1.000000 -0.000000
vn 0.000000 1.000000 -0.000000
vn 0.000000 1.000000 -0.000000
vn 0.000000 1.000000 -0.000000
vn 0.000000 1.000000 -0.000000
vn 0.000000 1.000000 -0.000000
vn 0.000000 1.000000 -0.000000
vn 0.000000 1.000000 -0.000000
vn 0.000000 1.000000 -0.000000
vn 0.000000 1.000000 -0.000000
vn 0.000000 1.000000 -0.000000
vn 0.000000 1.000000 -0.000000
vn 0.000000 1.000000 -0.000000
vn 0.000000 1.000000 -0.000000
vn 0.000000 1.000000 -0.000000
vn 0.000000 1.000000 -0.000000
vn 0.000000 1.000000 -0.000000
vn 0.000000 1.000000 -0.000000
vn 0.000000 1.000000 -0.000000
vn 0.000000 1.000000 -0.000000
vn 0.000000 1.000000 -0.000000
vn 0.000000 1.000000 -0.000000
s off
f 1/1/1 2/20/2 5/16/3 19/41/4 15/33/5 29/77/6 30/79/7 14/31/8 17/37/9 6/11/10
f 2/2/11 4/18/12 7/13/13 21/46/14 11/26/15 27/74/16 28/76/17 16/36/18 20/44/19 5/6/20
f 4/3/21 3/15/22 8/9/23 23/50/24 9/22/25 32/84/26 31/82/27 10/24/28 22/48/29 7/7/30
f 3/4/31 1/19/32 6/12/33 18/40/34 13/30/35 26/72/36 25/70/37 12/28/38 24/52/39 8/8/40
f 60/198/41 51/209/42 23/49/43 8/10/44
f 59/201/45 39/221/46 18/39/47 6/5/48
f 52/132/49 53/207/50 32/83/51 9/21/52
f 55/138/53 56/230/54 22/47/55 10/23/56
f 43/114/57 44/213/58 24/51/59 12/27/60
f 42/111/61 43/215/62 12/54/63 25/92/64
f 6/5/65 17/64/66 33/94/67 59/201/68
f 39/106/69 40/223/70 13/29/71 18/63/72
f 51/130/73 52/211/74 9/68/75 23/55/76
f 8/10/77 24/53/78 44/116/79 60/198/80
f 40/108/81 41/219/82 26/71/83 13/66/84
f 41/110/85 42/217/86 25/69/87 26/91/88
f 54/136/89 55/203/90 10/57/91 31/86/92
f 53/134/93 54/205/94 31/81/95 32/85/96
f 34/96/97 33/243/98 17/38/99 14/32/100
f 35/98/101 34/241/102 14/65/103 30/87/104
f 36/100/105 35/225/106 30/80/107 29/88/108
f 37/102/109 36/239/110 29/78/111 15/34/112
f 38/104/113 37/237/114 15/62/115 19/61/116
f 46/120/117 45/235/118 20/43/119 16/35/120
f 47/122/121 46/233/122 16/60/123 28/89/124
f 48/124/125 47/227/126 28/75/127 27/73/128
f 49/126/129 48/247/130 27/90/131 11/25/132
f 50/128/133 49/245/134 11/67/135 21/58/136
f 57/253/137 38/255/138 19/42/139 5/17/140
f 5/17/141 20/59/142 45/118/143 57/253/144
f 58/249/145 50/251/146 21/45/147 7/14/148
f 7/14/149 22/56/150 56/140/151 58/249/152
f 38/103/153 57/254/154 62/232/155 61/145/156
f 50/127/157 58/250/158 64/229/159 63/147/160
f 48/123/161 49/246/162 66/150/163 65/149/164
f 33/93/165 34/242/166 68/152/167 67/151/168
f 36/99/169 37/238/170 70/154/171 69/153/172
f 45/117/173 46/234/174 72/156/175 71/155/176
f 37/101/177 38/256/178 61/158/179 70/157/180
f 57/141/181 45/236/182 71/159/183 62/146/184
f 49/125/185 50/252/186 63/161/187 66/160/188
f 58/142/189 56/231/190 73/162/191 64/148/192
f 47/121/193 48/248/194 65/164/195 74/163/196
f 46/119/197 47/228/198 74/166/199 72/165/200
f 35/97/201 36/240/202 69/168/203 75/167/204
f 34/95/205 35/226/206 75/170/207 68/169/208
f 40/107/209 39/222/210 77/172/211 76/171/212
f 41/109/213 40/224/214 76/174/215 78/173/216
f 42/112/217 41/220/218 78/176/219 79/175/220
f 43/113/221 42/218/222 79/178/223 80/177/224
f 44/115/225 43/216/226 80/180/227 81/179/228
f 52/131/229 51/210/230 83/182/231 82/181/232
f 53/133/233 52/212/234 82/184/235 84/183/236
f 54/135/237 53/208/238 84/186/239 85/185/240
f 55/137/241 54/206/242 85/188/243 86/187/244
f 56/139/245 55/204/246 86/190/247 73/189/248
f 59/143/249 33/244/250 67/192/251 87/191/252
f 39/105/253 59/202/254 87/200/255 77/193/256
f 60/144/257 44/214/258 81/195/259 88/194/260
f 51/129/261 60/199/262 88/197/263 83/196/264
f 62/257/265 71/258/266 72/259/267 74/260/268 65/261/269 66/262/270 63/263/271 64/264/272 73/265/273 86/266/274 85/267/275 84/268/276 82/269/277 83/270/278 88/271/279 81/272/280 80/273/281 79/274/282 78/275/283 76/276/284 77/277/285 87/278/286 67/279/287 68/280/288 75/281/289 69/282/290 70/283/291 61/284/292
