# This file uses meters as units for non-parametric coordinates.

v -1.292042 0.000000 -0.425166
v -1.292042 4.063794 -0.425166
v 1.292041 4.063794 -0.425171
v 1.292041 0.000000 -0.425171
v 0.892215 0.000000 -0.425168
v -0.892209 0.000000 -0.425169
v -0.892209 3.558564 -0.425169
v 0.892215 3.558564 -0.425168
v -1.292042 0.000000 0.425166
v -1.292042 4.063794 0.425166
v 1.292041 4.063794 0.425171
v 1.292041 0.000000 0.425171
v 0.892215 0.000000 0.425168
v -0.892209 0.000000 0.425169
v -0.892209 3.558564 0.425169
v 0.892215 3.558564 0.425168
vt 0.245512 0.062033
vt 0.245512 0.062033
vt 0.296168 0.062033
vt 0.296168 0.062033
vt 0.245512 0.062033
vt 0.245512 0.062033
vt 0.261816 0.062033
vt 0.261816 0.062033
vt 0.261816 0.062033
vt 0.261816 0.062033
vt 0.261816 0.062033
vt 0.261816 0.062033
vt 0.261816 0.062033
vt 0.261816 0.062033
vt 0.261816 0.062033
vt 0.261816 0.062033
vt 0.261816 0.062033
vt 0.261816 0.062033
vt 0.167148 0.062033
vt 0.167148 0.062033
vt 0.136374 0.062033
vt 0.136374 0.062033
vt 0.167148 0.062033
vt 0.167148 0.062033
vt 0.245512 0.062033
vt 0.245512 0.062033
vt 0.296168 0.062033
vt 0.296168 0.062033
vt 0.245512 0.062033
vt 0.245512 0.062033
vt 0.261816 0.062033
vt 0.261816 0.062033
vt 0.261816 0.062033
vt 0.261816 0.062033
vt 0.261816 0.062033
vt 0.261816 0.062033
vt 0.261816 0.062033
vt 0.261816 0.062033
vt 0.261816 0.062033
vt 0.261816 0.062033
vt 0.261816 0.062033
vt 0.261816 0.062033
vt 0.167148 0.062033
vt 0.167148 0.062033
vt 0.136374 0.062033
vt 0.136374 0.062033
vt 0.167148 0.062033
vt 0.167148 0.062033
vn -0.000006 0.000000 -1.000000
vn -0.000006 0.000000 -1.000000
vn -0.000006 0.000000 -1.000000
vn -0.000006 0.000000 -1.000000
vn -0.000001 -0.000000 -1.000000
vn -0.000001 -0.000000 -1.000000
vn -0.000001 -0.000000 -1.000000
vn -0.000001 -0.000000 -1.000000
vn -0.000006 0.000000 -1.000000
vn -0.000006 0.000000 -1.000000
vn -0.000006 0.000000 -1.000000
vn -0.000006 0.000000 -1.000000
vn 1.000000 0.000000 0.000000
vn 1.000000 0.000000 0.000000
vn 1.000000 0.000000 0.000000
vn 1.000000 0.000000 0.000000
vn 0.000000 -1.000000 0.000000
vn 0.000000 -1.000000 0.000000
vn 0.000000 -1.000000 0.000000
vn 0.000000 -1.000000 0.000000
vn -1.000000 0.000000 0.000000
vn -1.000000 0.000000 0.000000
vn -1.000000 0.000000 0.000000
vn -1.000000 0.000000 0.000000
vn -1.000000 0.000000 0.000000
vn -1.000000 0.000000 0.000000
vn -1.000000 0.000000 0.000000
vn -1.000000 0.000000 0.000000
vn 0.000000 1.000000 0.000000
vn 0.000000 1.000000 0.000000
vn 0.000000 1.000000 0.000000
vn 0.000000 1.000000 0.000000
vn 1.000000 0.000000 0.000000
vn 1.000000 0.000000 0.000000
vn 1.000000 0.000000 0.000000
vn 1.000000 0.000000 0.000000
vn -0.000006 0.000000 1.000000
vn -0.000006 0.000000 1.000000
vn -0.000006 0.000000 1.000000
vn -0.000006 0.000000 1.000000
vn -0.000001 -0.000000 1.000000
vn -0.000001 -0.000000 1.000000
vn -0.000001 -0.000000 1.000000
vn -0.000001 -0.000000 1.000000
vn -0.000006 0.000000 1.000000
vn -0.000006 0.000000 1.000000
vn -0.000006 0.000000 1.000000
vn -0.000006 0.000000 1.000000
s off
f 1/7/1 2/10/2 7/9/3 6/8/4
f 2/11/5 3/14/6 8/13/7 7/12/8
f 3/15/9 4/18/10 5/17/11 8/16/12
f 14/43/13 6/19/14 7/20/15 15/44/16
f 7/21/17 8/22/18 16/46/19 15/45/20
f 8/23/21 5/24/22 13/48/23 16/47/24
f 1/1/25 9/25/26 10/26/27 2/2/28
f 2/3/29 10/27/30 11/28/31 3/4/32
f 3/5/33 11/29/34 12/30/35 4/6/36
f 9/31/37 14/32/38 15/33/39 10/34/40
f 10/35/41 15/36/42 16/37/43 11/38/44
f 11/39/45 16/40/46 13/41/47 12/42/48
