# This file uses meters as units for non-parametric coordinates.

v -0.644615 0.000000 -0.644613
v -0.644615 5.009504 0.644615
v 0.644615 5.009504 0.644615
v -0.644615 5.009504 -0.644613
v 0.644615 5.009504 -0.644613
v -0.644615 0.529985 0.644615
v 0.644615 0.529985 0.644615
v 0.644615 0.529985 -0.644613
v -0.644615 0.529985 -0.644613
v 0.644615 4.583705 -0.644613
v 0.644615 4.583703 0.644615
v -0.644615 4.583705 0.644615
v -0.644615 4.583703 -0.644613
v 0.373825 4.386883 -0.373821
v 0.373825 4.386881 0.373825
v -0.373821 4.386883 0.373825
v -0.373821 4.386881 -0.373821
v -0.373821 0.726807 0.373825
v 0.373825 0.726807 0.373825
v 0.373825 0.726807 -0.373821
v -0.373821 0.726807 -0.373821
v -0.644615 0.000000 0.644615
v 0.644615 0.000000 0.644615
v 0.644615 0.000000 -0.644613
vt 0.328122 0.063783
vt 0.328122 0.063783
vt 0.358580 0.063783
vt 0.358580 0.063783
vt 0.358580 0.063783
vt 0.358580 0.063783
vt 0.328122 0.063783
vt 0.328122 0.063783
vt 0.298348 0.063783
vt 0.298348 0.063783
vt 0.298348 0.063783
vt 0.298348 0.063783
vt 0.358976 0.062976
vt 0.298348 0.063783
vt 0.328122 0.063783
vt 0.358976 0.062976
vt 0.358976 0.062976
vt 0.298348 0.063783
vt 0.328122 0.063783
vt 0.358976 0.062976
vt 0.328122 0.063783
vt 0.264602 0.057790
vt 0.264602 0.057790
vt 0.298348 0.063783
vt 0.328122 0.063783
vt 0.264602 0.057790
vt 0.264602 0.057790
vt 0.298348 0.063783
vt 0.298348 0.063783
vt 0.264602 0.057790
vt 0.264602 0.057790
vt 0.264602 0.057790
vt 0.264602 0.057790
vt 0.264602 0.057790
vt 0.264602 0.057790
vt 0.328122 0.063783
vt 0.328122 0.063783
vt 0.358976 0.062976
vt 0.358976 0.062976
vt 0.358976 0.062976
vt 0.358976 0.062976
vt 0.358976 0.062976
vt 0.358976 0.062976
vt 0.298348 0.063783
vt 0.328122 0.063783
vt 0.298348 0.063783
vt 0.358976 0.062976
vt 0.358976 0.062976
vt 0.298348 0.063783
vt 0.328122 0.063783
vt 0.298348 0.063783
vt 0.358976 0.062976
vt 0.328122 0.063783
vt 0.298348 0.063783
vt 0.328122 0.063783
vt 0.358976 0.062976
vt 0.298348 0.063783
vt 0.358976 0.062976
vt 0.328122 0.063783
vt 0.358976 0.062976
vt 0.298348 0.063783
vt 0.328122 0.063783
vt 0.264602 0.057790
vt 0.264602 0.057790
vt 0.328122 0.063783
vt 0.298348 0.063783
vt 0.328122 0.063783
vt 0.264602 0.057790
vt 0.298348 0.063783
vt 0.328122 0.063783
vt 0.298348 0.063783
vt 0.264602 0.057790
vt 0.328122 0.063783
vt 0.264602 0.057790
vt 0.298348 0.063783
vt 0.264602 0.057790
vt 0.328122 0.063783
vt 0.298348 0.063783
vt 0.328122 0.063783
vt 0.298348 0.063783
vt 0.298348 0.063783
vt 0.328122 0.063783
vt 0.328122 0.063783
vt 0.298348 0.063783
vt 0.265116 0.064738
vt 0.265116 0.064738
vt 0.265116 0.064738
vt 0.265116 0.064738
vn 0.000000 1.000000 0.000000
vn 0.000000 1.000000 0.000000
vn 0.000000 1.000000 0.000000
vn 0.000000 1.000000 0.000000
vn -0.000000 0.000000 1.000000
vn -0.000000 0.000000 1.000000
vn -0.000000 0.000000 1.000000
vn -0.000000 0.000000 1.000000
vn 1.000000 0.000000 0.000000
vn 1.000000 0.000000 0.000000
vn 1.000000 0.000000 0.000000
vn 1.000000 0.000000 0.000000
vn 0.000000 0.000000 -1.000000
vn 0.000000 0.000000 -1.000000
vn 0.000000 0.000000 -1.000000
vn 0.000000 0.000000 -1.000000
vn -1.000000 0.000000 0.000000
vn -1.000000 0.000000 0.000000
vn -1.000000 0.000000 0.000000
vn -1.000000 0.000000 0.000000
vn 1.000000 0.000000 0.000000
vn 1.000000 0.000000 0.000000
vn 1.000000 0.000000 0.000000
vn 1.000000 0.000000 0.000000
vn 0.000000 0.000000 1.000000
vn 0.000000 0.000000 1.000000
vn 0.000000 0.000000 1.000000
vn 0.000000 0.000000 1.000000
vn -1.000000 0.000000 0.000000
vn -1.000000 0.000000 0.000000
vn -1.000000 0.000000 0.000000
vn -1.000000 0.000000 0.000000
vn 0.000000 0.000000 -1.000000
vn 0.000000 0.000000 -1.000000
vn 0.000000 0.000000 -1.000000
vn 0.000000 0.000000 -1.000000
vn -0.000000 0.000000 1.000000
vn -0.000000 0.000000 1.000000
vn -0.000000 0.000000 1.000000
vn -0.000000 0.000000 1.000000
vn 1.000000 0.000000 0.000000
vn 1.000000 0.000000 0.000000
vn 1.000000 0.000000 0.000000
vn 1.000000 0.000000 0.000000
vn 0.000000 0.000000 -1.000000
vn 0.000000 0.000000 -1.000000
vn 0.000000 0.000000 -1.000000
vn 0.000000 0.000000 -1.000000
vn -1.000000 0.000000 0.000000
vn -1.000000 0.000000 0.000000
vn -1.000000 0.000000 0.000000
vn -1.000000 0.000000 0.000000
vn 0.587944 -0.808902 -0.000001
vn 0.587944 -0.808902 -0.000001
vn 0.587944 -0.808902 -0.000001
vn 0.587944 -0.808902 -0.000001
vn -0.000002 -0.808902 0.587943
vn -0.000002 -0.808902 0.587943
vn -0.000002 -0.808902 0.587943
vn -0.000002 -0.808902 0.587943
vn -0.587939 -0.808906 0.000001
vn -0.587938 -0.808906 0.000001
vn -0.587938 -0.808906 0.000001
vn -0.587939 -0.808906 0.000001
vn 0.000002 -0.808904 -0.587940
vn 0.000002 -0.808904 -0.587940
vn 0.000002 -0.808904 -0.587940
vn 0.000002 -0.808904 -0.587940
vn 0.000000 0.808901 0.587944
vn 0.000000 0.808901 0.587944
vn 0.000000 0.808901 0.587944
vn 0.000000 0.808901 0.587944
vn 0.587944 0.808901 0.000000
vn 0.587944 0.808901 0.000000
vn 0.587944 0.808901 0.000000
vn 0.587944 0.808901 0.000000
vn -0.000000 0.808903 -0.587942
vn -0.000000 0.808903 -0.587942
vn -0.000000 0.808903 -0.587942
vn -0.000000 0.808903 -0.587942
vn -0.587939 0.808905 -0.000000
vn -0.587939 0.808905 -0.000000
vn -0.587939 0.808905 -0.000000
vn -0.587939 0.808905 -0.000000
vn 0.000000 -1.000000 0.000000
vn 0.000000 -1.000000 0.000000
vn 0.000000 -1.000000 0.000000
vn 0.000000 -1.000000 0.000000
s off
f 2/3/1 3/4/2 5/5/3 4/6/4
f 22/77/5 23/83/6 7/15/7 6/59/8
f 23/84/9 24/81/10 8/18/11 7/57/12
f 9/19/13 8/55/14 24/82/15 1/79/16
f 1/80/17 22/78/18 6/14/19 9/51/20
f 11/24/21 10/75/22 5/9/23 3/10/24
f 12/25/25 11/73/26 3/1/27 2/2/28
f 13/28/29 12/71/30 2/11/31 4/12/32
f 4/7/33 5/8/34 10/21/35 13/67/36
f 16/65/37 18/37/38 19/53/39 15/70/40
f 15/69/41 19/54/42 20/49/43 14/29/44
f 14/36/45 20/50/46 21/45/47 17/62/48
f 17/61/49 21/46/50 18/44/51 16/66/52
f 10/22/53 11/74/54 15/30/55 14/63/56
f 11/23/57 12/72/58 16/32/59 15/31/60
f 12/26/61 13/68/62 17/34/63 16/33/64
f 13/27/65 10/76/66 14/64/67 17/35/68
f 6/13/69 7/58/70 19/38/71 18/47/72
f 7/16/73 8/56/74 20/40/75 19/39/76
f 8/17/77 9/52/78 21/42/79 20/41/80
f 9/20/81 6/60/82 18/48/83 21/43/84
f 24/85/85 23/86/86 22/87/87 1/88/88
