# This file uses meters as units for non-parametric coordinates.

v -0.311530 0.000002 0.311535
v 0.311524 0.000002 0.311535
v -0.311530 15.989914 0.311535
v 0.311524 15.989914 0.311535
v -0.311530 15.989914 -0.311523
v 0.311524 15.989914 -0.311523
v -0.311530 0.000002 -0.311523
v 0.311524 0.000002 -0.311523
v -0.000002 16.903023 0.000006
v 0.703169 10.010855 0.589861
v 0.080114 10.010855 0.589861
v 0.080114 10.010855 -0.033195
v 0.703169 10.010855 -0.033195
vt 0.706199 0.958948
vt 0.706199 0.958457
vt 0.856483 0.958457
vt 0.856483 0.958948
vt 0.326408 0.511337
vt 0.295886 0.511337
vt 0.326408 0.511337
vt 0.295886 0.511337
vt 0.856483 0.958948
vt 0.856483 0.958457
vt 0.706199 0.958457
vt 0.706199 0.958948
vt 0.142999 0.511337
vt 0.142999 0.511337
vt 0.142999 0.511337
vt 0.142999 0.511337
vt 0.706199 0.952311
vt 0.706199 0.952802
vt 0.856483 0.952802
vt 0.856483 0.952311
vt 0.706199 0.952802
vt 0.706199 0.952311
vt 0.856483 0.952311
vt 0.856483 0.952802
vt 0.326408 0.511337
vt 0.295886 0.511337
vt 0.326408 0.511337
vt 0.295886 0.511337
vt 0.326408 0.511337
vt 0.326408 0.511337
vt 0.295886 0.511337
vt 0.295886 0.511337
vt 0.800288 0.958457
vt 0.800288 0.952311
vt 0.800288 0.958948
vt 0.800288 0.952311
vt 0.800288 0.958948
vt 0.800288 0.952802
vt 0.800288 0.958457
vt 0.800288 0.952802
vn 0.000000 -0.027792 0.999614
vn 0.000000 -0.027792 0.999614
vn 0.000000 -0.000300 1.000000
vn 0.000000 0.000282 1.000000
vn -0.946434 0.322898 0.000000
vn -0.946434 0.322898 0.000000
vn -0.946434 0.322898 0.000000
vn 0.000000 -0.000282 -1.000000
vn 0.000000 0.000300 -1.000000
vn 0.000000 0.027792 -0.999614
vn 0.000000 0.027792 -0.999614
vn 0.000000 -1.000000 0.000000
vn 0.000000 -1.000000 0.000000
vn 0.000000 -1.000000 0.000000
vn 0.000000 -1.000000 0.000000
vn 0.999236 -0.039092 0.000000
vn 0.999236 -0.039092 0.000000
vn 1.000000 0.000284 0.000000
vn 1.000000 -0.000297 0.000000
vn -0.999236 0.039092 0.000000
vn -0.999236 0.039092 0.000000
vn -1.000000 0.000297 0.000000
vn -1.000000 -0.000284 0.000000
vn 0.000000 0.322899 0.946434
vn 0.000000 0.322899 0.946434
vn 0.000000 0.322899 0.946434
vn 0.946434 0.322896 0.000000
vn 0.946434 0.322896 0.000000
vn 0.946434 0.322896 0.000000
vn 0.000000 0.322899 -0.946434
vn 0.000000 0.322899 -0.946434
vn 0.000000 0.322899 -0.946434
vn 0.000000 0.000282 1.000000
vn 0.000000 -0.000300 1.000000
vn 0.000000 0.046500 0.998918
vn 0.000000 0.046500 0.998918
vn -1.000000 -0.000284 0.000000
vn -1.000000 0.000297 0.000000
vn -0.997862 -0.065363 0.000000
vn -0.997862 -0.065363 0.000000
vn 0.000000 -0.046500 -0.998918
vn 0.000000 -0.046500 -0.998918
vn 0.000000 0.000300 -1.000000
vn 0.000000 -0.000282 -1.000000
vn 1.000000 -0.000297 0.000000
vn 1.000000 0.000284 0.000000
vn 0.997862 0.065363 0.000000
vn 0.997862 0.065363 0.000000
s off
f 1/1/1 2/2/2 10/33/3 11/35/4
f 3/32/5 9/28/6 5/8/7
f 12/37/8 13/39/9 8/11/10 7/12/11
f 7/13/12 8/14/13 2/15/14 1/16/15
f 2/17/16 8/18/17 13/40/18 10/34/19
f 7/21/20 1/22/21 11/36/22 12/38/23
f 3/5/24 4/30/25 9/27/26
f 9/26/27 4/6/28 6/31/29
f 5/29/30 9/25/31 6/7/32
f 11/35/33 10/33/34 4/3/35 3/4/36
f 12/38/37 11/36/38 3/23/39 5/24/40
f 5/9/41 6/10/42 13/39/43 12/37/44
f 10/34/45 13/40/46 6/19/47 4/20/48
