# This file uses meters as units for non-parametric coordinates.

v 0.000000 0.000000 5.000000
v 5.000000 0.000000 5.000000
v 0.000000 0.000000 0.000000
v 5.000000 0.000000 0.000000
v 4.873444 0.000000 4.873447
v 0.126556 0.000000 4.873447
v 4.873444 0.000000 0.126553
v 0.126556 0.000000 0.126553
v 1.829544 0.000000 4.873447
v 4.873444 0.000000 2.978649
v 4.873444 0.000000 2.439220
v 1.861458 0.000000 0.126553
v 2.218239 0.000000 0.126553
v 4.873444 0.000000 2.235126
v 2.845818 0.000000 0.624931
v 3.027679 0.000000 0.126553
v 2.659859 0.000000 0.477257
v 2.802162 0.000000 0.126553
v 4.873444 0.000000 3.241344
v 2.225876 0.000000 4.873447
v 2.845818 0.000000 0.624931
v 3.027679 0.000000 0.126553
v 4.873444 0.000000 2.235126
v 4.873444 0.000000 0.126553
vt 0.703920 0.007187
vt 0.703920 0.007187
vt 0.703920 0.007187
vt 0.703920 0.007187
vt 0.732859 0.007187
vt 0.732859 0.007187
vt 0.732859 0.007187
vt 0.672922 0.007187
vt 0.703920 0.007187
vt 0.703920 0.007187
vt 0.703920 0.007187
vt 0.703920 0.007187
vt 0.703920 0.007187
vt 0.703920 0.007187
vt 0.703920 0.007187
vt 0.703920 0.007187
vt 0.703920 0.007187
vt 0.703920 0.007187
vt 0.703920 0.007187
vt 0.703920 0.007187
vt 0.703920 0.007187
vt 0.703920 0.007187
vt 0.703920 0.007187
vt 0.703920 0.007187
vt 0.703920 0.007187
vt 0.703920 0.007187
vt 0.703920 0.007187
vt 0.703920 0.007187
vt 0.703920 0.007187
vt 0.703920 0.007187
vt 0.703920 0.007187
vt 0.703920 0.007187
vt 0.703920 0.007187
vt 0.703920 0.007187
vt 0.703920 0.007187
vt 0.703920 0.007187
vt 0.703920 0.007187
vt 0.703920 0.007187
vt 0.703920 0.007187
vt 0.703920 0.007187
vt 0.703920 0.007187
vt 0.703920 0.007187
vt 0.703920 0.007187
vt 0.703920 0.007187
vt 0.672922 0.007187
vt 0.672922 0.007187
vt 0.672922 0.007187
vt 0.732859 0.007187
vt 0.732859 0.007187
vt 0.732859 0.007187
vt 0.732859 0.007187
vt 0.732859 0.007187
vt 0.732859 0.007187
vt 0.732859 0.007187
vt 0.732859 0.007187
vt 0.732859 0.007187
vt 0.738074 0.007187
vt 0.672922 0.007187
vt 0.672922 0.007187
vt 0.672922 0.007187
vt 0.672922 0.007187
vt 0.738074 0.007187
vt 0.672922 0.007187
vt 0.672922 0.007187
vt 0.672922 0.007187
vt 0.738074 0.007187
vt 0.672922 0.007187
vt 0.672922 0.007187
vt 0.738074 0.007187
vt 0.672922 0.007187
vt 0.672922 0.007187
vt 0.672922 0.007187
vn 0.000000 1.000000 0.000002
vn 0.000000 1.000000 0.000000
vn 0.000000 1.000000 0.000000
vn 0.000000 1.000000 0.000000
vn 0.000000 1.000000 0.000000
vn 0.000000 1.000000 0.000002
vn 0.000000 1.000000 0.000000
vn 0.000000 1.000000 0.000000
vn 0.000000 1.000000 0.000002
vn 0.000000 1.000000 0.000000
vn 0.000000 1.000000 0.000000
vn 0.000000 1.000000 0.000002
vn 0.000000 1.000000 0.000000
vn 0.000000 1.000000 0.000000
vn 0.000000 1.000000 0.000002
vn 0.000000 1.000000 0.000000
vn 0.000000 1.000000 0.000000
vn 0.000000 1.000000 0.000000
vn 0.000000 1.000000 0.000000
vn 0.000000 1.000000 0.000002
vn 0.000000 1.000000 0.000000
vn 0.000000 1.000000 0.000000
vn 0.000000 1.000000 0.000002
vn 0.000000 1.000000 0.000000
vn 0.000000 1.000000 0.000000
vn 0.000000 1.000000 0.000000
vn 0.000000 1.000000 0.000000
vn 0.000000 1.000000 0.000002
vn 0.000000 1.000000 0.000000
vn 0.000000 1.000000 0.000000
vn 0.000000 1.000000 0.000002
vn 0.000000 1.000000 0.000002
vn 0.000000 1.000000 0.000000
vn 0.000000 1.000000 0.000000
vn 0.000000 1.000000 0.000002
vn 0.000000 1.000000 0.000000
vn 0.000000 1.000000 0.000000
vn 0.000000 1.000000 0.000000
vn 0.000000 1.000000 0.000000
vn 0.000000 1.000000 0.000000
vn 0.000000 1.000000 0.000000
vn 0.000000 1.000000 0.000000
vn 0.000000 1.000000 0.000000
vn 0.000000 1.000000 0.000000
vn 0.000000 1.000000 0.000000
vn 0.000000 1.000000 0.000000
vn 0.000000 1.000000 0.000000
vn 0.000000 1.000000 0.000002
vn 0.000000 1.000000 0.000000
vn 0.000000 1.000000 0.000000
vn 0.000000 1.000000 0.000000
vn 0.000000 1.000000 0.000000
vn 0.000000 1.000000 0.000000
vn 0.000000 1.000000 0.000000
vn 0.000000 1.000000 0.000000
vn 0.000000 1.000000 0.000000
vn 0.000000 0.000000 0.000000
vn 0.000000 0.000000 0.000000
vn 0.000000 0.000000 0.000000
vn 0.000000 0.000000 0.000000
vn 0.000000 1.000000 0.000002
vn 0.000000 0.000000 0.000000
vn 0.000000 0.000000 0.000000
vn 0.000000 0.000000 0.000000
vn 0.000000 0.000000 0.000000
vn 0.000000 1.000000 0.000002
vn 0.000000 1.000000 0.000002
vn 0.000000 0.000000 0.000000
vn 0.000000 0.000000 0.000000
vn 0.000000 0.000000 0.000000
vn 0.000000 0.000000 0.000000
vn 0.000000 1.000000 0.000002
s off
f 6/5/1 9/56/2 10/55/3 11/54/4 12/53/5 8/52/6
f 1/43/7 2/2/8 5/41/9 20/11/10 9/14/11 6/37/12
f 2/44/13 4/3/14 7/30/15 14/27/16 11/34/17 10/15/18 19/10/19 5/40/20
f 4/42/21 3/4/22 8/36/23 12/31/24 13/22/25 18/19/26 16/26/27 7/29/28
f 3/39/29 1/1/30 6/38/31 8/35/32
f 19/6/33 20/51/34 5/50/35
f 13/7/36 17/49/37 18/48/38
f 12/32/39 11/33/40 14/28/41 15/23/42 17/18/43 13/21/44
f 22/57/45 21/69/46 23/66/47 24/62/48
f 18/20/49 17/17/50 15/24/51 16/25/52
f 10/16/53 9/13/54 20/12/55 19/9/56
f 16/8/57 15/72/58 21/68/59 22/63/60
f 15/47/61 14/70/62 23/65/63 21/58/64
f 14/46/65 7/67/66 24/61/67 23/59/68
f 7/45/69 16/71/70 22/64/71 24/60/72
