# This file uses meters as units for non-parametric coordinates.

v 3.855080 0.000000 0.945053
v 0.171394 0.000000 0.428024
v 3.346962 1.245589 0.878143
v 0.665001 1.525518 0.410385
v 2.961548 1.393594 1.472137
v 1.313644 1.503565 1.351997
v 3.154182 0.000000 1.650703
v 0.835716 0.000000 1.608772
v 1.635704 0.000000 1.903122
v 1.609024 1.503565 1.510101
v 2.348480 1.525518 0.877335
v 4.913208 0.000000 0.465164
v 4.820282 1.085762 0.285965
v 3.441475 1.206841 0.270065
v 4.291985 0.840367 1.144310
v 3.024338 0.784551 1.296898
v 4.364769 0.000000 1.447525
v 2.958847 0.000000 1.390785
v 3.440475 0.000000 1.500183
v 3.442299 0.928759 1.280334
v 5.000000 5.000000 0.000000
v 0.000000 5.000000 0.000000
v 5.000000 5.000000 0.152184
v 0.000000 5.000000 0.152184
v 5.000000 0.000000 0.417130
v 0.000000 0.000000 0.417130
v 2.541023 5.000000 0.702492
v 2.541023 0.000000 0.967438
v 1.298813 5.000000 0.722275
v 1.298813 0.000000 0.987221
v 3.783630 5.000000 0.151703
v 3.783630 0.000000 0.416649
v 4.156937 0.735584 0.188721
v 2.435219 0.735584 1.041077
v 3.911980 1.876579 0.191475
v 2.668465 2.156508 0.568405
v 4.032516 2.024584 0.826363
v 3.232010 2.134555 1.010643
v 4.171951 0.735584 0.920822
v 3.090698 0.735584 1.238548
v 3.562912 0.735584 1.257652
v 3.423874 2.134555 1.040428
v 3.452431 2.156508 0.336243
v 3.365944 0.778910 0.454796
v 1.598831 1.092785 0.878448
v 3.124344 4.496178 0.304108
v 1.847267 4.496178 0.590485
v 3.201859 4.496178 0.739914
v 2.290833 4.496178 0.875656
v 3.328232 1.159107 1.000748
v 2.218102 1.358892 1.270538
v 2.687538 1.382691 1.308105
v 2.668274 4.496178 0.912598
v 2.652359 4.496178 0.393105
vt 0.738504 0.007308
vt 0.738504 0.007308
vt 0.738504 0.007308
vt 0.738504 0.007308
vt 0.708995 0.007308
vt 0.708995 0.007308
vt 0.708995 0.007308
vt 0.708995 0.007308
vt 0.677228 0.007308
vt 0.677228 0.007308
vt 0.677228 0.007308
vt 0.677228 0.007308
vt 0.677228 0.007308
vt 0.677228 0.007308
vt 0.677228 0.007308
vt 0.677228 0.007308
vt 0.708995 0.007308
vt 0.708995 0.007308
vt 0.738504 0.007308
vt 0.738504 0.007308
vt 0.738504 0.007308
vt 0.738504 0.007308
vt 0.738504 0.007308
vt 0.738504 0.007308
vt 0.738504 0.007308
vt 0.708995 0.007308
vt 0.708995 0.007308
vt 0.708995 0.007308
vt 0.708995 0.007308
vt 0.677228 0.007308
vt 0.677228 0.007308
vt 0.677228 0.007308
vt 0.677228 0.007308
vt 0.708995 0.007308
vt 0.708995 0.007308
vt 0.738504 0.007308
vt 0.738504 0.007308
vt 0.738504 0.007308
vt 0.738504 0.007308
vt 0.732717 0.009399
vt 0.732717 0.009399
vt 0.732717 0.009399
vt 0.732717 0.009399
vt 0.732717 0.009399
vt 0.702890 0.007307
vt 0.702890 0.007307
vt 0.702889 0.007307
vt 0.702889 0.007307
vt 0.702890 0.007307
vt 0.702890 0.007307
vt 0.702889 0.007307
vt 0.702889 0.007307
vt 0.677421 0.007307
vt 0.677421 0.007307
vt 0.677421 0.007307
vt 0.677421 0.007307
vt 0.677421 0.007307
vt 0.677421 0.007307
vt 0.677421 0.007307
vt 0.677421 0.007307
vt 0.732717 0.009399
vt 0.732717 0.009399
vt 0.738504 0.007308
vt 0.738504 0.007308
vt 0.738504 0.007308
vt 0.738504 0.007308
vt 0.708995 0.007308
vt 0.708995 0.007308
vt 0.708995 0.007308
vt 0.708995 0.007308
vt 0.677228 0.007308
vt 0.677228 0.007308
vt 0.677228 0.007308
vt 0.677228 0.007308
vt 0.677228 0.007308
vt 0.677228 0.007308
vt 0.677228 0.007308
vt 0.677228 0.007308
vt 0.708995 0.007308
vt 0.708995 0.007308
vt 0.738504 0.007308
vt 0.738504 0.007308
vt 0.738504 0.007308
vt 0.738504 0.007308
vt 0.738504 0.007308
vt 0.738504 0.007308
vt 0.738504 0.007308
vt 0.738504 0.007308
vt 0.708995 0.007308
vt 0.708995 0.007308
vt 0.708995 0.007308
vt 0.708995 0.007308
vt 0.677228 0.007308
vt 0.677228 0.007308
vt 0.677228 0.007308
vt 0.677228 0.007308
vt 0.677228 0.007308
vt 0.677228 0.007308
vt 0.677228 0.007308
vt 0.677228 0.007308
vt 0.708995 0.007308
vt 0.708995 0.007308
vt 0.738504 0.007308
vt 0.738504 0.007308
vt 0.738504 0.007308
vt 0.738504 0.007308
vn 0.048964 0.998616 0.019225
vn 0.071390 0.997241 0.020359
vn -0.001559 0.999860 0.016640
vn -0.001559 0.999860 0.016640
vn -0.026618 0.424083 0.905232
vn -0.057150 0.431568 0.900268
vn -0.335029 0.479485 0.811080
vn -0.335029 0.479485 0.811080
vn -0.666787 0.544929 0.508378
vn -0.666787 0.544929 0.508378
vn -0.666787 0.544929 0.508378
vn -0.666787 0.544929 0.508378
vn 0.792202 0.401816 0.459303
vn 0.792202 0.401816 0.459303
vn 0.792202 0.401816 0.459303
vn 0.792202 0.401816 0.459303
vn 0.101871 0.387953 0.916032
vn -0.057150 0.431568 0.900268
vn -0.026618 0.424083 0.905232
vn 0.101871 0.387953 0.916032
vn 0.102681 0.994473 0.021926
vn 0.071390 0.997241 0.020359
vn 0.048964 0.998616 0.019225
vn 0.102681 0.994473 0.021926
vn 0.055655 0.955468 0.289800
vn 0.050290 0.946916 0.317524
vn 0.050290 0.946916 0.317524
vn -0.040022 0.218180 0.975088
vn -0.051429 0.218460 0.974490
vn -0.216106 0.219294 0.951424
vn -0.216106 0.219294 0.951424
vn 0.794423 0.265281 0.546369
vn 0.794423 0.265281 0.546368
vn 0.794423 0.265281 0.546369
vn 0.794423 0.265281 0.546369
vn 0.051059 0.214929 0.975294
vn -0.051429 0.218460 0.974490
vn -0.040022 0.218180 0.975088
vn 0.051059 0.214929 0.975294
vn 0.057689 0.958512 0.279155
vn 0.055887 0.955821 0.288586
vn 0.055655 0.955468 0.289800
vn 0.057689 0.958512 0.279155
vn 0.000000 1.000000 0.000000
vn 0.000000 1.000000 0.000000
vn 0.000000 1.000000 0.000000
vn 0.000000 1.000000 0.000000
vn 0.000000 1.000000 0.000000
vn -0.000380 0.163744 0.986503
vn -0.000380 0.163744 0.986503
vn -0.000380 0.163744 0.986503
vn -0.000380 0.163744 0.986503
vn 0.015711 0.163724 0.986381
vn 0.015711 0.163724 0.986381
vn 0.015711 0.163724 0.986381
vn 0.015711 0.163724 0.986381
vn -0.232535 0.159255 0.959461
vn -0.232535 0.159255 0.959461
vn -0.232535 0.159255 0.959461
vn -0.232535 0.159255 0.959461
vn 0.218291 0.159795 0.962712
vn 0.218291 0.159795 0.962712
vn 0.218291 0.159795 0.962712
vn 0.218291 0.159795 0.962712
vn 0.000000 1.000000 0.000000
vn 0.000000 1.000000 0.000000
vn 0.000000 1.000000 0.000000
vn 0.000000 1.000000 0.000000
vn 0.095936 0.994865 -0.032233
vn 0.134792 0.989061 -0.059910
vn 0.006468 0.999493 0.031185
vn 0.006468 0.999493 0.031185
vn 0.258657 0.244764 0.934445
vn 0.231560 0.246079 0.941183
vn -0.071123 0.247823 0.966191
vn -0.071123 0.247824 0.966191
vn -0.428140 0.263626 0.864406
vn -0.428140 0.263626 0.864406
vn -0.428140 0.263626 0.864406
vn -0.428140 0.263626 0.864406
vn 0.959602 0.235250 -0.154340
vn 0.959602 0.235250 -0.154340
vn 0.959602 0.235250 -0.154340
vn 0.959602 0.235250 -0.154340
vn 0.411634 0.233361 0.880965
vn 0.231560 0.246079 0.941183
vn 0.258657 0.244764 0.934445
vn 0.411634 0.233361 0.880965
vn 0.188332 0.977185 -0.098187
vn 0.134792 0.989061 -0.059910
vn 0.095936 0.994865 -0.032233
vn 0.188332 0.977185 -0.098187
vn 0.281443 0.850727 -0.443906
vn 0.367351 0.797876 -0.477962
vn 0.019982 0.947401 -0.319425
vn 0.019982 0.947401 -0.319425
vn 0.229148 0.140739 0.963163
vn 0.205490 0.141611 0.968360
vn -0.117938 0.145141 0.982357
vn -0.117938 0.145141 0.982357
vn -0.506786 0.144229 0.849921
vn -0.506786 0.144229 0.849921
vn -0.506786 0.144229 0.849921
vn -0.506786 0.144229 0.849921
vn 0.993315 0.068053 -0.093247
vn 0.993315 0.068053 -0.093247
vn 0.993315 0.068053 -0.093247
vn 0.993315 0.068053 -0.093247
vn 0.390894 0.132308 0.910877
vn 0.205490 0.141611 0.968360
vn 0.229148 0.140739 0.963163
vn 0.390894 0.132308 0.910877
vn 0.474932 0.713748 -0.514785
vn 0.367351 0.797876 -0.477962
vn 0.281443 0.850727 -0.443906
vn 0.474932 0.713748 -0.514785
s off
f 10/1/1 11/2/2 4/3/3 6/4/4
f 9/5/5 10/6/6 6/7/7 8/8/8
f 2/9/9 8/10/10 6/11/11 4/12/12
f 7/13/13 1/14/14 3/15/15 5/16/16
f 5/17/17 10/6/18 9/5/19 7/18/20
f 3/19/21 11/20/22 10/21/23 5/22/24
f 20/23/25 14/24/26 16/25/27
f 19/26/28 20/27/29 16/28/30 18/29/31
f 17/30/32 12/31/33 13/32/34 15/33/35
f 15/34/36 20/27/37 19/26/38 17/35/39
f 13/36/40 14/37/41 20/38/42 15/39/43
f 31/40/44 22/41/45 24/42/46 29/43/47 27/44/48
f 31/45/49 32/46/50 25/47/51 23/48/52
f 29/49/53 30/50/54 28/51/55 27/52/56
f 24/53/57 26/54/58 30/55/59 29/56/60
f 27/57/61 28/58/62 32/59/63 31/60/64
f 21/61/65 22/41/66 31/40/67 23/62/68
f 42/63/69 43/64/70 36/65/71 38/66/72
f 41/67/73 42/68/74 38/69/75 40/70/76
f 34/71/77 40/72/78 38/73/79 36/74/80
f 39/75/81 33/76/82 35/77/83 37/78/84
f 37/79/85 42/68/86 41/67/87 39/80/88
f 35/81/89 43/82/90 42/83/91 37/84/92
f 53/85/93 54/86/94 47/87/95 49/88/96
f 52/89/97 53/90/98 49/91/99 51/92/100
f 45/93/101 51/94/102 49/95/103 47/96/104
f 50/97/105 44/98/106 46/99/107 48/100/108
f 48/101/109 53/90/110 52/89/111 50/102/112
f 46/103/113 54/104/114 53/105/115 48/106/116
