# This file uses meters as units for non-parametric coordinates.

v 5.000002 0.000000 5.000000
v 0.000000 0.000000 5.000000
v 5.000002 0.000000 0.000000
v 0.000000 0.000000 0.000000
v 2.500001 -0.453644 2.500000
vt 0.704863 0.009694
vt 0.704863 0.009694
vt 0.704863 0.009694
vt 0.704863 0.009694
vt 0.704863 0.009694
vn 0.000000 -1.000000 0.000000
vn -0.000000 -1.000000 0.000000
vn -0.000000 -1.000000 0.000000
vn -0.000000 -1.000000 0.000000
vn -0.000000 -1.000000 0.000000
s 1
f 5/5/1 2/2/2 4/3/3
f 3/4/4 5/5/1 4/3/3
f 1/1/5 5/5/1 3/4/4
f 1/1/5 2/2/2 5/5/1
