# This file uses meters as units for non-parametric coordinates.

v 0.000000 0.000000 5.000000
v 5.000000 0.000000 5.000000
v 0.000000 0.000000 0.000000
v 5.000000 0.000000 0.000000
v 4.873444 0.000000 4.873447
v 0.126556 0.000000 4.873447
v 4.873444 0.000000 0.126553
v 0.126556 0.000000 0.126553
v 1.188477 0.000000 4.873447
v 2.087967 0.000000 0.126553
v 2.049011 0.000000 4.236267
v 2.730927 0.000000 2.918068
v 2.687767 0.000000 1.494083
v 2.226440 0.000000 0.126553
v 2.730759 0.000000 1.143230
v 3.304138 0.000000 0.126553
v 3.442924 0.000000 0.126553
v 4.873444 0.000000 3.699467
v 2.805588 0.000000 1.392666
v 2.864883 0.000000 2.925117
v 4.873444 0.000000 3.868595
v 2.524185 0.000000 4.873447
v 2.808365 0.000000 3.075359
v 2.153000 0.000000 4.294006
v 2.320900 0.000000 4.873447
v 1.473434 0.000000 4.873447
v 1.996071 0.000000 4.417736
v 4.873444 0.000000 3.868595
v 2.808365 0.000000 3.075359
v 2.153000 0.000000 4.294006
v 2.524185 0.000000 4.873447
v 4.873444 0.000000 4.873447
vt 0.703834 0.006969
vt 0.703835 0.006969
vt 0.703835 0.006969
vt 0.703834 0.006969
vt 0.737498 0.006969
vt 0.737498 0.006969
vt 0.737498 0.006969
vt 0.670767 0.006969
vt 0.737498 0.006969
vt 0.703835 0.006969
vt 0.703835 0.006969
vt 0.703835 0.006969
vt 0.703835 0.006969
vt 0.703835 0.006969
vt 0.703835 0.006969
vt 0.703835 0.006969
vt 0.703835 0.006969
vt 0.703835 0.006969
vt 0.703835 0.006969
vt 0.703835 0.006969
vt 0.703835 0.006969
vt 0.703835 0.006969
vt 0.703835 0.006969
vt 0.703835 0.006969
vt 0.703835 0.006969
vt 0.703835 0.006969
vt 0.703835 0.006969
vt 0.703835 0.006969
vt 0.703835 0.006969
vt 0.703835 0.006969
vt 0.703835 0.006969
vt 0.703835 0.006969
vt 0.703835 0.006969
vt 0.703835 0.006969
vt 0.703835 0.006969
vt 0.703835 0.006969
vt 0.703835 0.006969
vt 0.703835 0.006969
vt 0.703835 0.006969
vt 0.703835 0.006969
vt 0.703835 0.006969
vt 0.703835 0.006969
vt 0.703835 0.006969
vt 0.703835 0.006969
vt 0.703835 0.006969
vt 0.703835 0.006969
vt 0.703835 0.006969
vt 0.703835 0.006969
vt 0.703835 0.006969
vt 0.703835 0.006969
vt 0.703835 0.006969
vt 0.703835 0.006969
vt 0.703835 0.006969
vt 0.703835 0.006969
vt 0.703835 0.006969
vt 0.703835 0.006969
vt 0.703835 0.006969
vt 0.703835 0.006969
vt 0.703834 0.006969
vt 0.703834 0.006969
vt 0.703834 0.006969
vt 0.703834 0.006969
vt 0.703834 0.006969
vt 0.703835 0.006969
vt 0.703835 0.006969
vt 0.703835 0.006969
vt 0.703834 0.006969
vt 0.703835 0.006969
vt 0.737498 0.006969
vt 0.737498 0.006969
vt 0.670767 0.006969
vt 0.670767 0.006969
vt 0.670767 0.006969
vt 0.670767 0.006969
vt 0.737498 0.006969
vt 0.737498 0.006969
vt 0.737498 0.006969
vt 0.737498 0.006969
vt 0.737498 0.006969
vt 0.737498 0.006969
vt 0.737498 0.006969
vt 0.737498 0.006969
vt 0.737498 0.006969
vt 0.737498 0.006969
vt 0.737498 0.006969
vt 0.737498 0.006969
vt 0.736535 0.006969
vt 0.670767 0.006969
vt 0.670767 0.006969
vt 0.670767 0.006969
vt 0.670767 0.006969
vt 0.670767 0.006969
vt 0.736535 0.006969
vt 0.670767 0.006969
vt 0.670767 0.006969
vt 0.670767 0.006969
vt 0.736535 0.006969
vt 0.670767 0.006969
vt 0.670767 0.006969
vt 0.736535 0.006969
vt 0.670767 0.006969
vt 0.670767 0.006969
vt 0.736535 0.006969
vt 0.670767 0.006969
vt 0.670767 0.006969
vt 0.670767 0.006969
vn 0.000000 1.000000 0.000000
vn 0.000000 1.000000 0.000000
vn 0.000000 1.000000 0.000000
vn 0.000000 1.000000 0.000000
vn 0.000000 1.000000 0.000000
vn 0.000000 1.000000 0.000000
vn 0.000000 1.000000 0.000000
vn 0.000000 1.000000 0.000002
vn 0.000000 1.000000 0.000000
vn 0.000000 1.000000 0.000000
vn 0.000000 1.000000 0.000000
vn 0.000000 1.000000 0.000000
vn 0.000000 1.000000 0.000002
vn 0.000000 1.000000 0.000000
vn 0.000000 1.000000 0.000000
vn 0.000000 1.000000 0.000002
vn 0.000000 1.000000 0.000000
vn 0.000000 1.000000 0.000000
vn 0.000000 1.000000 0.000002
vn 0.000000 1.000000 0.000000
vn 0.000000 1.000000 0.000000
vn 0.000000 1.000000 0.000002
vn 0.000000 1.000000 0.000000
vn 0.000000 1.000000 0.000000
vn 0.000000 1.000000 0.000000
vn 0.000000 1.000000 0.000000
vn 0.000000 1.000000 0.000002
vn 0.000000 1.000000 0.000000
vn 0.000000 1.000000 0.000000
vn 0.000000 1.000000 0.000002
vn 0.000000 1.000000 0.000002
vn 0.000000 1.000000 0.000000
vn 0.000000 1.000000 0.000000
vn 0.000000 1.000000 0.000000
vn 0.000000 1.000000 0.000000
vn 0.000000 1.000000 0.000000
vn 0.000000 1.000000 0.000000
vn 0.000000 1.000000 0.000000
vn 0.000000 1.000000 0.000000
vn 0.000000 1.000000 0.000000
vn 0.000000 1.000000 0.000000
vn 0.000000 1.000000 0.000000
vn 0.000000 1.000000 0.000002
vn 0.000000 1.000000 0.000000
vn 0.000000 1.000000 0.000000
vn 0.000000 1.000000 0.000000
vn 0.000000 1.000000 0.000000
vn 0.000000 1.000000 0.000002
vn 0.000000 1.000000 0.000000
vn 0.000000 1.000000 0.000000
vn 0.000000 1.000000 0.000000
vn 0.000000 1.000000 0.000000
vn 0.000000 1.000000 0.000000
vn 0.000000 1.000000 0.000000
vn 0.000000 1.000000 0.000000
vn 0.000000 1.000000 0.000000
vn 0.000000 1.000000 0.000000
vn 0.000000 1.000000 0.000000
vn 0.000000 1.000000 0.000000
vn 0.000000 1.000000 0.000000
vn 0.000000 1.000000 0.000000
vn 0.000000 1.000000 0.000000
vn 0.000000 1.000000 0.000000
vn 0.000000 1.000000 0.000000
vn 0.000000 1.000000 0.000000
vn 0.000000 1.000000 0.000000
vn 0.000000 1.000000 0.000000
vn 0.000000 1.000000 0.000000
vn 0.000000 1.000000 0.000000
vn 0.000000 1.000000 0.000000
vn 0.000000 1.000000 0.000000
vn 0.000000 1.000000 0.000000
vn 0.000000 1.000000 0.000000
vn 0.000000 1.000000 0.000000
vn 0.000000 1.000000 0.000000
vn 0.000000 1.000000 0.000000
vn 0.000000 1.000000 0.000000
vn 0.000000 1.000000 0.000000
vn 0.000000 1.000000 0.000000
vn 0.000000 1.000000 0.000000
vn 0.000000 1.000000 0.000000
vn 0.000000 1.000000 0.000000
vn 0.000000 1.000000 0.000000
vn 0.000000 1.000000 0.000000
vn 0.000000 1.000000 0.000002
vn 0.000000 1.000000 0.000000
vn 0.000000 1.000000 0.000000
vn 0.000000 1.000000 0.000002
vn 0.000000 0.000000 0.000000
vn 0.000000 0.000000 0.000000
vn 0.000000 0.000000 0.000000
vn 0.000000 0.000000 0.000000
vn 0.000000 0.000000 0.000000
vn 0.000000 0.000000 0.000000
vn 0.000000 0.000000 0.000000
vn 0.000000 0.000000 0.000000
vn 0.000000 0.000000 0.000000
vn 0.000000 0.000000 0.000000
vn 0.000000 0.000000 0.000000
vn 0.000000 0.000000 0.000000
vn 0.000000 0.000000 0.000000
vn 0.000000 0.000000 0.000000
vn 0.000000 1.000000 0.000002
vn 0.000000 0.000000 0.000000
vn 0.000000 0.000000 0.000000
vn 0.000000 0.000000 0.000000
vn 0.000000 0.000000 0.000000
vn 0.000000 1.000000 0.000002
s off
f 10/82/1 9/86/2 11/85/3 12/84/4 13/83/5
f 1/67/6 2/2/7 5/65/8 22/43/9 25/38/10 26/39/11 9/42/12 6/61/13
f 2/68/14 4/3/15 7/52/16 18/47/17 21/46/18 5/64/19
f 4/66/20 3/4/21 8/60/22 10/57/23 14/56/24 16/53/25 17/50/26 7/51/27
f 3/63/28 1/1/29 6/62/30 8/59/31
f 10/58/32 13/16/33 15/15/34 14/55/35
f 14/6/36 15/80/37 16/79/38
f 17/7/39 19/78/40 20/77/41 18/76/42 7/75/43
f 28/87/44 29/103/45 30/100/46 31/97/47 32/93/48
f 24/35/49 11/29/50 27/32/51
f 25/9/52 27/70/53 26/69/54
f 24/34/55 27/33/56 25/37/57 22/44/58
f 20/26/59 12/20/60 23/23/61
f 27/31/62 11/30/63 9/41/64 26/40/65
f 20/25/66 23/24/67 21/45/68 18/48/69
f 19/11/70 15/14/71 13/17/72
f 23/22/73 12/21/74 11/28/75 24/36/76
f 19/10/77 13/18/78 12/19/79 20/27/80
f 16/54/81 15/13/82 19/12/83 17/49/84
f 6/5/85 9/86/86 10/82/87 8/81/88
f 21/8/89 23/105/90 29/102/91 28/94/92
f 23/74/93 24/104/94 30/99/95 29/88/96
f 24/73/97 22/101/98 31/96/99 30/89/100
f 22/72/101 5/98/102 32/92/103 31/90/104
f 5/71/105 21/106/106 28/95/107 32/91/108
