# This file uses meters as units for non-parametric coordinates.

v 0.000000 0.000000 0.000000
v -4.999999 0.000000 0.000000
v 0.000000 0.000000 -5.000000
v -4.999999 0.000000 -5.000000
v -4.999999 0.000000 0.000000
v 0.000000 0.000000 0.000000
v -4.999999 0.000000 -5.000000
v 0.000000 0.000000 -5.000000
v -4.950790 0.000000 -0.049231
v -0.049210 0.000000 -0.049231
v -4.950790 0.000000 -4.950813
v -0.049210 0.000000 -4.950813
v -3.028008 0.000000 -4.950813
v -3.028008 0.000000 -0.049231
v -3.141441 0.000000 -4.950813
v -3.141441 0.000000 -0.049231
v -3.966118 0.000000 -4.950813
v -3.966118 0.000000 -0.049231
v -4.101944 0.000000 -4.950813
v -4.101944 0.000000 -0.049231
v -1.055069 0.000000 -4.950813
v -1.055069 0.000000 -0.049231
v -0.918083 0.000000 -4.950813
v -0.918083 0.000000 -0.049231
v -3.966118 0.000000 -1.519707
v -3.141441 0.000000 -1.519707
v -3.966118 0.000000 -1.380312
v -3.141441 0.000000 -1.380312
v -3.966118 0.000000 -3.921482
v -3.141441 0.000000 -3.921482
v -3.966118 0.000000 -3.766796
v -3.141434 0.000000 -3.766796
v -4.101944 0.000000 -2.500021
v -4.950790 0.000000 -2.500021
v -4.950790 0.000000 -2.360437
v -4.101944 0.000000 -2.360435
v -0.918083 0.000000 -1.262283
v -0.049210 0.000000 -1.262283
v -0.918083 0.000000 -1.129623
v -0.049210 0.000000 -1.129623
v -0.551949 0.000000 -1.129623
v -0.551949 0.000000 -0.049231
v -0.417137 0.000000 -1.129623
v -0.417137 0.000000 -0.049231
v -0.918083 0.000000 -3.237854
v -0.049210 0.000000 -3.237854
v -0.918083 0.000000 -3.074242
v -0.049210 0.000000 -3.074242
v -3.966118 -0.134913 -3.766796
v -3.141434 -0.134913 -3.766796
v -3.141441 -0.134913 -1.519707
v -3.966118 -0.134913 -1.519707
v -3.141441 -0.134913 -4.950813
v -3.141441 -0.134913 -3.921482
v -3.966118 -0.134913 -3.921482
v -3.966118 -0.134913 -4.950813
v -4.950790 -0.134913 -2.360437
v -4.101944 -0.134913 -2.360435
v -4.101944 -0.134913 -0.049231
v -4.950790 -0.134913 -0.049231
v -3.032288 0.011227 -3.822220
v -3.745078 -0.194423 -4.197849
v -3.071087 0.133785 -3.815689
v -3.783877 -0.071865 -4.191322
v -2.645245 0.316981 -4.724052
v -3.358035 0.111331 -5.099686
v -2.606445 0.194423 -4.730583
v -3.319236 -0.011227 -5.106216
v -4.951653 -0.028627 0.632454
v -5.717876 0.073414 0.325939
v -4.933780 0.098826 0.630211
v -5.700006 0.200867 0.323698
v -4.097085 -0.056193 -1.512980
v -4.863308 0.045847 -1.819492
v -4.114951 -0.183646 -1.510736
v -4.881178 -0.081605 -1.817249
vt 0.297701 0.063783
vt 0.297701 0.063783
vt 0.297701 0.063783
vt 0.297701 0.063783
vt 0.268614 0.063783
vt 0.268614 0.063783
vt 0.268614 0.063783
vt 0.268614 0.063783
vt 0.297701 0.063783
vt 0.268614 0.063783
vt 0.268614 0.063783
vt 0.268614 0.063783
vt 0.268614 0.063783
vt 0.297701 0.063783
vt 0.268614 0.063783
vt 0.268614 0.063783
vt 0.268614 0.063783
vt 0.297701 0.063783
vt 0.297701 0.063783
vt 0.297701 0.063783
vt 0.268614 0.063783
vt 0.268614 0.063783
vt 0.212988 0.063783
vt 0.297701 0.063783
vt 0.297701 0.063783
vt 0.268614 0.063783
vt 0.297701 0.063783
vt 0.297701 0.063783
vt 0.268614 0.063783
vt 0.297701 0.063783
vt 0.297701 0.063783
vt 0.268614 0.063783
vt 0.297701 0.063783
vt 0.297701 0.063783
vt 0.297701 0.063783
vt 0.297701 0.063783
vt 0.265908 0.063783
vt 0.268614 0.063783
vt 0.268614 0.063783
vt 0.297701 0.063783
vt 0.212988 0.063783
vt 0.268614 0.063783
vt 0.268614 0.063783
vt 0.297701 0.063783
vt 0.265908 0.063783
vt 0.268614 0.063783
vt 0.268614 0.063783
vt 0.265908 0.063783
vt 0.265908 0.063783
vt 0.268614 0.063783
vt 0.268614 0.063783
vt 0.212988 0.063783
vt 0.265909 0.063783
vt 0.268614 0.063783
vt 0.268614 0.063783
vt 0.297701 0.063783
vt 0.297701 0.063783
vt 0.268614 0.063783
vt 0.268614 0.063783
vt 0.265909 0.063783
vt 0.265908 0.063783
vt 0.212988 0.063783
vt 0.265908 0.063783
vt 0.297701 0.063783
vt 0.212988 0.063783
vt 0.265908 0.063783
vt 0.265908 0.063783
vt 0.212988 0.063783
vt 0.265908 0.063783
vt 0.265908 0.063783
vt 0.268614 0.063783
vt 0.265908 0.063783
vt 0.268614 0.063783
vt 0.212988 0.063783
vt 0.265909 0.063783
vt 0.297701 0.063783
vt 0.268614 0.063783
vt 0.265909 0.063783
vt 0.297701 0.063783
vt 0.268614 0.063783
vt 0.265909 0.063783
vt 0.268614 0.063783
vt 0.297701 0.063783
vt 0.297701 0.063783
vt 0.268614 0.063783
vt 0.265909 0.063783
vt 0.297701 0.063783
vt 0.265909 0.063783
vt 0.268614 0.063783
vt 0.265909 0.063783
vt 0.297701 0.063783
vt 0.268614 0.063783
vt 0.265909 0.063783
vt 0.297701 0.063783
vt 0.265909 0.063783
vt 0.265909 0.063783
vt 0.297701 0.063783
vt 0.265909 0.063783
vt 0.265909 0.063783
vt 0.297701 0.063783
vt 0.265909 0.063783
vt 0.265909 0.063783
vt 0.297701 0.063783
vt 0.265909 0.063783
vt 0.265909 0.063783
vt 0.297701 0.063783
vt 0.265909 0.063783
vt 0.265909 0.063783
vt 0.297701 0.063783
vt 0.297701 0.063783
vt 0.265909 0.063783
vt 0.212988 0.063783
vt 0.265908 0.063783
vt 0.265908 0.063783
vt 0.265908 0.063783
vt 0.297701 0.063783
vt 0.265908 0.063783
vt 0.297701 0.063783
vt 0.265908 0.063783
vt 0.212988 0.063783
vt 0.265908 0.063783
vt 0.265908 0.063783
vt 0.265908 0.063783
vt 0.265908 0.063783
vt 0.265908 0.063783
vt 0.212988 0.063783
vt 0.265908 0.063783
vt 0.265908 0.063783
vt 0.265908 0.063783
vt 0.212988 0.063783
vt 0.265908 0.063783
vt 0.297701 0.063783
vt 0.265908 0.063783
vt 0.265908 0.063783
vt 0.265908 0.063783
vt 0.297701 0.063783
vt 0.265909 0.063783
vt 0.297701 0.063783
vt 0.265909 0.063783
vt 0.297701 0.063783
vt 0.212988 0.063783
vt 0.265908 0.063783
vt 0.265908 0.063783
vt 0.297701 0.063783
vt 0.266896 0.063783
vt 0.212988 0.063783
vt 0.212988 0.063783
vt 0.212988 0.063783
vt 0.266896 0.063783
vt 0.212988 0.063783
vt 0.212988 0.063783
vt 0.212988 0.063783
vt 0.266896 0.063783
vt 0.212988 0.063783
vt 0.212988 0.063783
vt 0.212988 0.063783
vt 0.266896 0.063783
vt 0.212988 0.063783
vt 0.266896 0.063783
vt 0.266896 0.063783
vt 0.266896 0.063783
vt 0.212988 0.063783
vt 0.266896 0.063783
vt 0.266896 0.063783
vt 0.212988 0.063783
vt 0.266896 0.063783
vt 0.266896 0.063783
vt 0.266896 0.063783
vt 0.212988 0.063783
vt 0.212988 0.063783
vt 0.212988 0.063783
vt 0.212988 0.063783
vt 0.212988 0.063783
vt 0.212988 0.063783
vt 0.212988 0.063783
vt 0.212988 0.063783
vt 0.212988 0.063783
vt 0.212988 0.063783
vt 0.212988 0.063783
vt 0.212988 0.063783
vt 0.212988 0.063783
vt 0.212988 0.063783
vt 0.212988 0.063783
vt 0.212988 0.063783
vt 0.212988 0.063783
vt 0.212988 0.063783
vt 0.212988 0.063783
vt 0.212988 0.063783
vt 0.212988 0.063783
vt 0.212988 0.063783
vt 0.212988 0.063783
vt 0.212988 0.063783
vt 0.261122 0.063783
vt 0.261122 0.063783
vt 0.261122 0.063783
vt 0.261122 0.063783
vt 0.327005 0.063783
vt 0.327005 0.063783
vt 0.327005 0.063783
vt 0.327005 0.063783
vt 0.261122 0.063783
vt 0.261122 0.063783
vt 0.261122 0.063783
vt 0.261122 0.063783
vt 0.197758 0.063783
vt 0.197758 0.063783
vt 0.197758 0.063783
vt 0.197758 0.063783
vt 0.231348 0.063783
vt 0.231348 0.063783
vt 0.231348 0.063783
vt 0.231348 0.063783
vt 0.231348 0.063783
vt 0.231348 0.063783
vt 0.231348 0.063783
vt 0.231348 0.063783
vt 0.261122 0.063783
vt 0.261122 0.063783
vt 0.261122 0.063783
vt 0.261122 0.063783
vt 0.327005 0.063783
vt 0.327005 0.063783
vt 0.327005 0.063783
vt 0.327005 0.063783
vt 0.261122 0.063783
vt 0.261122 0.063783
vt 0.261122 0.063783
vt 0.261122 0.063783
vt 0.197758 0.063783
vt 0.197758 0.063783
vt 0.197758 0.063783
vt 0.197758 0.063783
vt 0.231348 0.063783
vt 0.231348 0.063783
vt 0.231348 0.063783
vt 0.231348 0.063783
vt 0.231348 0.063783
vt 0.231348 0.063783
vt 0.231348 0.063783
vt 0.231348 0.063783
vn 0.000000 1.000000 0.000000
vn 0.000000 1.000000 0.000000
vn 0.000000 1.000000 0.000000
vn 0.000000 1.000000 0.000000
vn 0.000000 0.000000 0.000000
vn 0.000000 0.000000 0.000000
vn 0.000000 0.000000 0.000000
vn 0.000000 0.000000 0.000000
vn 0.000000 0.000000 0.000000
vn 0.000000 0.000000 0.000000
vn 0.000000 0.000000 0.000000
vn 0.000000 0.000000 0.000000
vn 0.000000 0.000000 0.000000
vn 0.000000 0.000000 0.000000
vn 0.000000 0.000000 0.000000
vn 0.000000 0.000000 0.000000
vn 0.000000 0.000000 0.000000
vn 0.000000 0.000000 0.000000
vn 0.000000 0.000000 0.000000
vn 0.000000 0.000000 0.000000
vn 0.000000 1.000000 0.000000
vn 0.000000 1.000000 0.000000
vn 0.000000 1.000000 0.000000
vn 0.000000 1.000000 0.000000
vn 0.000000 1.000000 0.000000
vn 0.000000 1.000000 0.000000
vn 0.000000 1.000000 0.000000
vn 0.000000 1.000000 0.000000
vn 0.000000 1.000000 0.000000
vn 0.000000 1.000000 0.000000
vn 0.000000 1.000000 0.000000
vn 0.000000 1.000000 0.000000
vn 0.000000 1.000000 0.000000
vn 0.000000 1.000000 0.000000
vn 0.000000 1.000000 0.000000
vn 0.000000 1.000000 0.000000
vn 0.000000 1.000000 0.000000
vn 0.000000 1.000000 0.000000
vn 0.000000 1.000000 0.000000
vn 0.000000 1.000000 0.000000
vn 0.000000 1.000000 0.000000
vn 0.000000 1.000000 0.000000
vn 0.000000 1.000000 0.000000
vn 0.000000 1.000000 0.000000
vn 0.000000 1.000000 0.000000
vn 0.000000 1.000000 0.000000
vn 0.000000 1.000000 0.000000
vn 0.000000 1.000000 0.000000
vn 0.000000 1.000000 0.000000
vn 0.000000 1.000000 0.000000
vn 0.000000 1.000000 0.000000
vn 0.000000 1.000000 0.000000
vn 0.000000 1.000000 0.000000
vn 0.000000 1.000000 0.000000
vn 0.000000 1.000000 0.000000
vn 0.000000 1.000000 0.000000
vn 0.000000 1.000000 0.000000
vn 0.000000 1.000000 0.000000
vn 0.000000 1.000000 0.000000
vn 0.000000 1.000000 0.000000
vn 0.000000 1.000000 0.000000
vn 0.000000 1.000000 0.000000
vn 0.000000 1.000000 0.000000
vn 0.000000 1.000000 0.000000
vn 0.000000 1.000000 0.000000
vn 0.000000 1.000000 0.000000
vn 0.000000 1.000000 0.000000
vn 0.000000 1.000000 0.000000
vn 0.000000 1.000000 0.000000
vn 0.000000 1.000000 0.000000
vn 0.000000 1.000000 0.000000
vn 0.000000 1.000000 0.000000
vn 0.000000 1.000000 0.000000
vn 0.000000 1.000000 0.000000
vn 0.000000 1.000000 0.000000
vn 0.000000 1.000000 0.000000
vn 0.000000 1.000000 0.000000
vn 0.000000 1.000000 0.000000
vn 0.000000 1.000000 0.000000
vn 0.000000 1.000000 0.000000
vn 0.000000 1.000000 0.000000
vn 0.000000 1.000000 0.000000
vn 0.000000 1.000000 0.000000
vn 0.000000 1.000000 0.000000
vn 0.000000 1.000000 0.000000
vn 0.000000 1.000000 0.000000
vn 0.000000 1.000000 0.000000
vn 0.000000 1.000000 0.000000
vn 0.000000 1.000000 0.000000
vn 0.000000 1.000000 0.000000
vn 0.000000 1.000000 0.000000
vn 0.000000 1.000000 0.000000
vn 0.000000 1.000000 0.000000
vn 0.000000 1.000000 0.000000
vn 0.000000 1.000000 -0.000000
vn 0.000000 1.000000 -0.000000
vn 0.000000 1.000000 -0.000000
vn 0.000000 1.000000 -0.000000
vn 0.000000 1.000000 0.000000
vn 0.000000 1.000000 0.000000
vn 0.000000 1.000000 0.000000
vn 0.000000 1.000000 0.000000
vn 0.000000 1.000000 0.000000
vn 0.000000 1.000000 0.000000
vn 0.000000 1.000000 0.000000
vn 0.000000 1.000000 0.000000
vn 0.000000 1.000000 0.000000
vn 0.000000 1.000000 0.000000
vn 0.000000 1.000000 0.000000
vn 0.000000 1.000000 0.000000
vn 0.000000 1.000000 0.000000
vn 0.000000 1.000000 0.000000
vn 0.000000 1.000000 0.000000
vn 0.000000 1.000000 0.000000
vn 0.000000 1.000000 0.000000
vn 0.000000 1.000000 0.000000
vn 0.000000 1.000000 0.000000
vn 0.000000 1.000000 0.000000
vn 0.000000 1.000000 0.000000
vn 0.000000 1.000000 0.000000
vn 0.000000 1.000000 0.000000
vn 0.000000 1.000000 0.000000
vn 0.000000 1.000000 0.000000
vn 0.000000 1.000000 0.000000
vn 0.000000 1.000000 0.000000
vn 0.000000 1.000000 0.000000
vn 0.000000 1.000000 0.000000
vn 0.000000 1.000000 0.000000
vn 0.000000 1.000000 0.000000
vn 0.000000 1.000000 0.000000
vn 0.000000 1.000000 0.000000
vn 0.000000 1.000000 0.000000
vn 0.000000 1.000000 0.000000
vn 0.000000 1.000000 0.000000
vn 0.000000 1.000000 0.000000
vn 0.000000 1.000000 0.000000
vn 0.000000 1.000000 0.000000
vn 0.000000 1.000000 0.000000
vn 0.000000 1.000000 0.000000
vn 0.000000 1.000000 0.000000
vn 0.000000 1.000000 0.000000
vn 0.000000 1.000000 0.000000
vn 0.000000 1.000000 0.000000
vn 0.000000 1.000000 0.000000
vn 0.000000 0.000000 1.000000
vn 0.000000 0.000000 1.000000
vn 0.000000 0.000000 1.000000
vn 0.000000 0.000000 1.000000
vn -1.000000 0.000000 -0.000003
vn -1.000000 0.000000 -0.000003
vn -1.000000 0.000000 -0.000003
vn -1.000000 0.000000 -0.000003
vn 0.000000 0.000000 -1.000000
vn 0.000000 0.000000 -1.000000
vn 0.000000 0.000000 -1.000000
vn 0.000000 0.000000 -1.000000
vn 1.000000 0.000000 0.000000
vn 1.000000 0.000000 0.000000
vn 1.000000 0.000000 0.000000
vn 1.000000 0.000000 0.000000
vn -1.000000 0.000000 0.000000
vn -1.000000 0.000000 0.000000
vn -1.000000 0.000000 0.000000
vn -1.000000 0.000000 0.000000
vn 0.000000 0.000000 -1.000000
vn 0.000000 0.000000 -1.000000
vn 0.000000 0.000000 -1.000000
vn 0.000000 0.000000 -1.000000
vn 1.000000 0.000000 0.000000
vn 1.000000 0.000000 0.000000
vn 1.000000 0.000000 0.000000
vn 1.000000 0.000000 0.000000
vn 0.000000 0.000000 1.000000
vn 0.000000 0.000000 1.000000
vn 0.000000 0.000000 1.000000
vn 0.000000 0.000000 1.000000
vn -0.000002 0.000000 1.000000
vn -0.000002 0.000000 1.000000
vn -0.000002 0.000000 1.000000
vn -0.000002 0.000000 1.000000
vn -1.000000 0.000000 0.000000
vn -1.000000 0.000000 0.000000
vn -1.000000 0.000000 0.000000
vn -1.000000 0.000000 0.000000
vn 0.000000 0.000000 -1.000000
vn 0.000000 0.000000 -1.000000
vn 0.000000 0.000000 -1.000000
vn 0.000000 0.000000 -1.000000
vn 1.000000 0.000000 0.000000
vn 1.000000 0.000000 0.000000
vn 1.000000 0.000000 0.000000
vn 1.000000 0.000000 0.000000
vn -0.417565 -0.179641 0.890712
vn -0.417565 -0.179641 0.890713
vn -0.417565 -0.179641 0.890712
vn -0.417565 -0.179641 0.890712
vn -0.301430 0.952139 0.050713
vn -0.301430 0.952139 0.050713
vn -0.301430 0.952139 0.050713
vn -0.301430 0.952139 0.050713
vn 0.417563 0.179655 -0.890711
vn 0.417563 0.179655 -0.890711
vn 0.417563 0.179655 -0.890711
vn 0.417563 0.179655 -0.890711
vn 0.301430 -0.952139 -0.050713
vn 0.301430 -0.952139 -0.050713
vn 0.301430 -0.952139 -0.050713
vn 0.301430 -0.952139 -0.050713
vn -0.857194 -0.247306 -0.451728
vn -0.857194 -0.247306 -0.451728
vn -0.857194 -0.247306 -0.451728
vn -0.857194 -0.247306 -0.451728
vn 0.857196 0.247297 0.451729
vn 0.857196 0.247297 0.451729
vn 0.857196 0.247297 0.451729
vn 0.857196 0.247297 0.451729
vn -0.362844 0.067228 0.929421
vn -0.362844 0.067228 0.929422
vn -0.362844 0.067228 0.929422
vn -0.362844 0.067228 0.929421
vn 0.138832 0.990163 -0.017420
vn 0.138832 0.990163 -0.017420
vn 0.138832 0.990163 -0.017420
vn 0.138832 0.990163 -0.017420
vn 0.362844 -0.067224 -0.929422
vn 0.362844 -0.067224 -0.929422
vn 0.362844 -0.067224 -0.929422
vn 0.362844 -0.067224 -0.929422
vn -0.138832 -0.990163 0.017420
vn -0.138832 -0.990163 0.017420
vn -0.138832 -0.990163 0.017420
vn -0.138832 -0.990163 0.017420
vn -0.921450 0.122711 -0.368609
vn -0.921450 0.122711 -0.368609
vn -0.921450 0.122711 -0.368609
vn -0.921450 0.122711 -0.368609
vn 0.921450 -0.122707 0.368609
vn 0.921450 -0.122707 0.368609
vn 0.921450 -0.122707 0.368608
vn 0.921450 -0.122707 0.368609
s off
f 19/140/1 11/18/2 34/116/3 33/118/4
f 1/1/5 6/27/6 5/31/7 2/36/8
f 2/2/9 5/30/10 7/25/11 4/34/12
f 4/3/13 7/24/14 8/20/15 3/33/16
f 3/4/17 8/19/18 6/28/19 1/35/20
f 6/5/21 10/15/22 44/85/23 42/82/24 24/59/25 22/55/26 14/39/27 16/43/28 18/47/29 20/51/30 9/22/31 5/32/32
f 5/6/33 9/10/34 35/73/35 34/71/36 11/17/37 7/26/38
f 7/7/39 11/11/40 19/50/41 17/46/42 15/42/43 13/38/44 21/54/45 23/58/46 12/13/47 8/21/48
f 8/8/49 12/12/50 46/89/51 48/92/52 38/77/53 40/80/54 10/16/55 6/29/56
f 21/138/57 13/144/58 14/40/59 22/56/60
f 13/37/61 15/142/62 30/129/63 32/121/64 26/124/65 28/133/66 16/135/67 14/143/68
f 27/132/69 18/136/70 16/44/71 28/64/72
f 17/45/73 19/49/74 33/117/75 36/113/76 20/115/77 18/48/78 27/131/79 25/61/80 31/119/81 29/127/82
f 23/137/83 21/53/84 22/139/85 24/60/86 39/108/87 37/75/88 47/93/89 45/98/90
f 41/106/91 39/109/92 24/110/93 42/83/94
f 49/145/95 52/166/96 51/167/97 50/168/98
f 25/125/99 27/63/100 28/134/101 26/123/102
f 53/149/103 56/161/104 55/163/105 54/164/106
f 29/128/107 31/67/108 32/122/109 30/66/110
f 57/153/111 60/157/112 59/159/113 58/160/114
f 34/70/115 35/72/116 36/114/117 33/69/118
f 38/76/119 48/91/120 47/94/121 37/97/122
f 40/104/123 38/111/124 37/96/125 39/78/126 41/105/127 43/101/128
f 43/102/129 41/81/130 42/107/131 44/86/132
f 10/9/133 40/79/134 43/84/135 44/103/136
f 46/100/137 12/14/138 23/57/139 45/87/140
f 48/95/141 46/88/142 45/99/143 47/90/144
f 31/120/145 49/165/146 50/189/147 32/191/148
f 32/68/149 50/146/150 51/187/151 26/190/152
f 26/62/153 51/147/154 52/186/155 25/188/156
f 25/126/157 52/148/158 49/185/159 31/192/160
f 15/41/161 53/162/162 54/181/163 30/183/164
f 30/130/165 54/150/166 55/179/167 29/182/168
f 29/65/169 55/151/170 56/177/171 17/180/172
f 17/141/173 56/152/174 53/178/175 15/184/176
f 35/112/177 57/158/178 58/173/179 36/175/180
f 36/74/181 58/154/182 59/171/183 20/174/184
f 20/52/185 59/155/186 60/169/187 9/172/188
f 9/23/189 60/156/190 57/170/191 35/176/192
f 61/193/193 63/196/194 64/195/195 62/194/196
f 63/197/197 65/200/198 66/199/199 64/198/200
f 65/201/201 67/204/202 68/203/203 66/202/204
f 67/205/205 61/208/206 62/207/207 68/206/208
f 62/209/209 64/212/210 66/211/211 68/210/212
f 67/213/213 65/216/214 63/215/215 61/214/216
f 69/217/217 71/220/218 72/219/219 70/218/220
f 71/221/221 73/224/222 74/223/223 72/222/224
f 73/225/225 75/228/226 76/227/227 74/226/228
f 75/229/229 69/232/230 70/231/231 76/230/232
f 70/233/233 72/236/234 74/235/235 76/234/236
f 75/237/237 73/240/238 71/239/239 69/238/240
