# This file uses meters as units for non-parametric coordinates.

v -5.000000 0.000000 0.000000
v 0.000000 0.000000 0.000000
v -5.000000 0.000000 -5.000000
v 0.000000 0.000000 -5.000000
v 0.000000 0.000000 0.000000
v -5.000000 0.000000 0.000000
v 0.000000 0.000000 -5.000000
v -5.000000 0.000000 -5.000000
v -0.049210 0.000000 -0.049231
v -4.950790 0.000000 -0.049231
v -0.049210 0.000000 -4.950813
v -4.950790 0.000000 -4.950813
v -1.971985 0.000000 -4.950813
v -1.971985 0.000000 -0.049231
v -1.858559 0.000000 -4.950813
v -1.858559 0.000000 -0.049231
v -1.033875 0.000000 -4.950813
v -1.033875 0.000000 -0.049231
v -0.898048 0.000000 -4.950813
v -0.898048 0.000000 -0.049231
v -3.944923 0.000000 -4.950813
v -3.944923 0.000000 -0.049231
v -4.081917 0.000000 -4.950813
v -4.081917 0.000000 -0.049231
v -1.033875 0.000000 -1.519707
v -1.858559 0.000000 -1.519707
v -1.033875 0.000000 -1.380312
v -1.858559 0.000000 -1.380312
v -1.033875 0.000000 -3.921482
v -1.858559 0.000000 -3.921482
v -1.033875 0.000000 -3.766796
v -1.858566 0.000000 -3.766796
v -0.898048 0.000000 -2.500021
v -0.049210 0.000000 -2.500021
v -0.049210 0.000000 -2.360437
v -0.898048 0.000000 -2.360435
v -4.081917 0.000000 -1.262283
v -4.950790 0.000000 -1.262283
v -4.081917 0.000000 -1.129623
v -4.950790 0.000000 -1.129623
v -4.448051 0.000000 -1.129623
v -4.448051 0.000000 -0.049231
v -4.582863 0.000000 -1.129623
v -4.582863 0.000000 -0.049231
v -4.081917 0.000000 -3.237854
v -4.950790 0.000000 -3.237854
v -4.081917 0.000000 -3.074242
v -4.950790 0.000000 -3.074242
v -3.944923 -0.134913 -4.950813
v -3.944923 -0.134913 -0.049231
v -1.971985 -0.134913 -0.049231
v -1.971985 -0.134913 -4.950813
v -4.448051 -0.134913 -1.129623
v -4.448051 -0.134913 -0.049231
v -4.081917 -0.134913 -0.049231
v -4.081917 -0.134913 -1.129623
v -4.081917 -0.134913 -1.262283
v -4.950790 -0.134913 -1.262283
v -4.081917 -0.134913 -3.074242
v -4.950790 -0.134913 -3.074242
v -4.282743 -0.009106 -2.240402
v -3.416436 -0.183008 -2.183418
v -4.257790 0.117045 -2.234785
v -3.391482 -0.056856 -2.177801
v -4.125597 0.172803 -4.074306
v -3.259290 -0.001098 -4.017323
v -4.150551 0.046652 -4.079922
v -3.284244 -0.127250 -4.022938
v -4.435235 -0.200033 -0.367672
v -4.088959 -0.200033 -0.367672
v -4.435235 -0.074204 -0.340551
v -4.088959 -0.074204 -0.340551
v -4.435235 0.152442 -1.392111
v -4.088959 0.152442 -1.392111
v -4.435235 0.026613 -1.419231
v -4.088959 0.026613 -1.419231
vt 0.297701 0.063783
vt 0.297701 0.063783
vt 0.297701 0.063783
vt 0.297701 0.063783
vt 0.268614 0.063783
vt 0.268614 0.063783
vt 0.268614 0.063783
vt 0.268614 0.063783
vt 0.297701 0.063783
vt 0.268614 0.063783
vt 0.268614 0.063783
vt 0.268614 0.063783
vt 0.268614 0.063783
vt 0.297701 0.063783
vt 0.268614 0.063783
vt 0.268614 0.063783
vt 0.268614 0.063783
vt 0.297701 0.063783
vt 0.297701 0.063783
vt 0.297701 0.063783
vt 0.268614 0.063783
vt 0.268614 0.063783
vt 0.297701 0.063783
vt 0.297701 0.063783
vt 0.297701 0.063783
vt 0.268614 0.063783
vt 0.297701 0.063783
vt 0.297701 0.063783
vt 0.268614 0.063783
vt 0.297701 0.063783
vt 0.297701 0.063783
vt 0.268614 0.063783
vt 0.297701 0.063783
vt 0.297701 0.063783
vt 0.297701 0.063783
vt 0.297701 0.063783
vt 0.265908 0.063783
vt 0.268614 0.063783
vt 0.268614 0.063783
vt 0.203362 0.063939
vt 0.297701 0.063783
vt 0.268614 0.063783
vt 0.268614 0.063783
vt 0.297701 0.063783
vt 0.265908 0.063783
vt 0.268614 0.063783
vt 0.268614 0.063783
vt 0.265908 0.063783
vt 0.265908 0.063783
vt 0.268614 0.063783
vt 0.268614 0.063783
vt 0.297701 0.063783
vt 0.265909 0.063783
vt 0.268614 0.063783
vt 0.268614 0.063783
vt 0.203362 0.063939
vt 0.297701 0.063783
vt 0.268614 0.063783
vt 0.268614 0.063783
vt 0.265909 0.063783
vt 0.265908 0.063783
vt 0.297701 0.063783
vt 0.265908 0.063783
vt 0.297701 0.063783
vt 0.297701 0.063783
vt 0.265908 0.063783
vt 0.265908 0.063783
vt 0.297701 0.063783
vt 0.265908 0.063783
vt 0.265908 0.063783
vt 0.268614 0.063783
vt 0.265908 0.063783
vt 0.268614 0.063783
vt 0.297701 0.063783
vt 0.265909 0.063783
vt 0.203362 0.063939
vt 0.268614 0.063783
vt 0.265909 0.063783
vt 0.297701 0.063783
vt 0.268614 0.063783
vt 0.265909 0.063783
vt 0.268614 0.063783
vt 0.203362 0.063939
vt 0.297701 0.063783
vt 0.268614 0.063783
vt 0.265909 0.063783
vt 0.297701 0.063783
vt 0.265909 0.063783
vt 0.268614 0.063783
vt 0.265909 0.063783
vt 0.203362 0.063939
vt 0.268614 0.063783
vt 0.265909 0.063783
vt 0.203362 0.063939
vt 0.265909 0.063783
vt 0.265909 0.063783
vt 0.203362 0.063939
vt 0.265909 0.063783
vt 0.265909 0.063783
vt 0.297701 0.063783
vt 0.265909 0.063783
vt 0.265909 0.063783
vt 0.297701 0.063783
vt 0.265909 0.063783
vt 0.265909 0.063783
vt 0.203362 0.063939
vt 0.265909 0.063783
vt 0.265909 0.063783
vt 0.203362 0.063939
vt 0.203362 0.063939
vt 0.265909 0.063783
vt 0.297701 0.063783
vt 0.265908 0.063783
vt 0.265908 0.063783
vt 0.265908 0.063783
vt 0.297701 0.063783
vt 0.265908 0.063783
vt 0.297701 0.063783
vt 0.265908 0.063783
vt 0.297701 0.063783
vt 0.265908 0.063783
vt 0.265908 0.063783
vt 0.265908 0.063783
vt 0.265908 0.063783
vt 0.265908 0.063783
vt 0.297701 0.063783
vt 0.265908 0.063783
vt 0.265908 0.063783
vt 0.265908 0.063783
vt 0.297701 0.063783
vt 0.265908 0.063783
vt 0.297701 0.063783
vt 0.265908 0.063783
vt 0.265908 0.063783
vt 0.265908 0.063783
vt 0.297701 0.063783
vt 0.265909 0.063783
vt 0.203362 0.063939
vt 0.265909 0.063783
vt 0.297701 0.063783
vt 0.297701 0.063783
vt 0.265908 0.063783
vt 0.265908 0.063783
vt 0.203362 0.063939
vt 0.203362 0.063939
vt 0.203362 0.063939
vt 0.203362 0.063939
vt 0.203362 0.063939
vt 0.203362 0.063939
vt 0.203362 0.063939
vt 0.203362 0.063939
vt 0.203362 0.063939
vt 0.203362 0.063939
vt 0.203362 0.063939
vt 0.203362 0.063939
vt 0.203362 0.063939
vt 0.261891 0.063803
vt 0.261891 0.063803
vt 0.261891 0.063803
vt 0.261891 0.063803
vt 0.261891 0.063803
vt 0.261891 0.063803
vt 0.261891 0.063803
vt 0.261891 0.063803
vt 0.261891 0.063803
vt 0.261891 0.063803
vt 0.261891 0.063803
vt 0.261891 0.063803
vt 0.261122 0.063783
vt 0.261122 0.063783
vt 0.261122 0.063783
vt 0.261122 0.063783
vt 0.327005 0.063783
vt 0.327005 0.063783
vt 0.327005 0.063783
vt 0.327005 0.063783
vt 0.261122 0.063783
vt 0.261122 0.063783
vt 0.261122 0.063783
vt 0.261122 0.063783
vt 0.197758 0.063783
vt 0.197758 0.063783
vt 0.197758 0.063783
vt 0.197758 0.063783
vt 0.231348 0.063783
vt 0.231348 0.063783
vt 0.231348 0.063783
vt 0.231348 0.063783
vt 0.231348 0.063783
vt 0.231348 0.063783
vt 0.231348 0.063783
vt 0.231348 0.063783
vt 0.261122 0.063783
vt 0.261122 0.063783
vt 0.261122 0.063783
vt 0.261122 0.063783
vt 0.327005 0.063783
vt 0.327005 0.063783
vt 0.327005 0.063783
vt 0.327005 0.063783
vt 0.261122 0.063783
vt 0.261122 0.063783
vt 0.261122 0.063783
vt 0.261122 0.063783
vt 0.197758 0.063783
vt 0.197758 0.063783
vt 0.197758 0.063783
vt 0.197758 0.063783
vt 0.231348 0.063783
vt 0.231348 0.063783
vt 0.231348 0.063783
vt 0.231348 0.063783
vt 0.231348 0.063783
vt 0.231348 0.063783
vt 0.231348 0.063783
vt 0.231348 0.063783
vn 0.000000 1.000000 0.000000
vn 0.000000 1.000000 0.000000
vn 0.000000 1.000000 0.000000
vn 0.000000 1.000000 0.000000
vn 0.000000 0.000000 0.000000
vn 0.000000 0.000000 0.000000
vn 0.000000 1.000000 0.000000
vn 0.000000 1.000000 0.000000
vn 0.000000 0.000000 0.000000
vn 0.000000 0.000000 0.000000
vn 0.000000 1.000000 0.000000
vn 0.000000 1.000000 0.000000
vn 0.000000 0.000000 0.000000
vn 0.000000 0.000000 0.000000
vn 0.000000 1.000000 0.000000
vn 0.000000 1.000000 0.000000
vn 0.000000 0.000000 0.000000
vn 0.000000 0.000000 0.000000
vn 0.000000 1.000000 0.000000
vn 0.000000 1.000000 0.000000
vn 0.000000 1.000000 0.000000
vn 0.000000 1.000000 0.000000
vn 0.000000 1.000000 0.000000
vn 0.000000 1.000000 0.000000
vn 0.000000 1.000000 0.000000
vn 0.000000 1.000000 0.000000
vn 0.000000 1.000000 0.000000
vn 0.000000 1.000000 0.000000
vn 0.000000 1.000000 0.000000
vn 0.000000 1.000000 0.000000
vn 0.000000 1.000000 0.000000
vn 0.000000 1.000000 0.000000
vn 0.000000 1.000000 0.000000
vn 0.000000 1.000000 0.000000
vn 0.000000 1.000000 0.000000
vn 0.000000 1.000000 0.000000
vn 0.000000 1.000000 0.000000
vn 0.000000 1.000000 0.000000
vn 0.000000 1.000000 0.000000
vn 0.000000 1.000000 0.000000
vn 0.000000 1.000000 0.000000
vn 0.000000 1.000000 0.000000
vn 0.000000 1.000000 0.000000
vn 0.000000 1.000000 0.000000
vn 0.000000 1.000000 0.000000
vn 0.000000 1.000000 0.000000
vn 0.000000 1.000000 0.000000
vn 0.000000 1.000000 0.000000
vn 0.000000 1.000000 0.000000
vn 0.000000 1.000000 0.000000
vn 0.000000 1.000000 0.000000
vn 0.000000 1.000000 0.000000
vn 0.000000 1.000000 0.000000
vn 0.000000 1.000000 0.000000
vn 0.000000 1.000000 0.000000
vn 0.000000 1.000000 0.000000
vn 0.000000 1.000000 0.000000
vn 0.000000 1.000000 0.000000
vn 0.000000 1.000000 0.000000
vn 0.000000 1.000000 0.000000
vn 0.000000 1.000000 0.000000
vn 0.000000 1.000000 0.000000
vn 0.000000 1.000000 0.000000
vn 0.000000 1.000000 0.000000
vn 0.000000 1.000000 0.000000
vn 0.000000 1.000000 0.000000
vn 0.000000 1.000000 0.000000
vn 0.000000 1.000000 0.000000
vn 0.000000 1.000000 0.000000
vn 0.000000 1.000000 0.000000
vn 0.000000 1.000000 0.000000
vn 0.000000 1.000000 0.000000
vn 0.000000 1.000000 0.000000
vn 0.000000 1.000000 0.000000
vn 0.000000 1.000000 0.000000
vn 0.000000 1.000000 0.000000
vn 0.000000 1.000000 0.000000
vn 0.000000 1.000000 0.000000
vn 0.000000 1.000000 0.000000
vn 0.000000 1.000000 0.000000
vn 0.000000 1.000000 0.000000
vn 0.000000 1.000000 0.000000
vn 0.000000 1.000000 0.000000
vn 0.000000 1.000000 0.000000
vn 0.000000 1.000000 0.000000
vn 0.000000 1.000000 0.000000
vn 0.000000 1.000000 0.000000
vn 0.000000 1.000000 0.000000
vn 0.000000 1.000000 0.000000
vn 0.000000 1.000000 0.000000
vn 0.000000 1.000000 0.000000
vn 0.000000 1.000000 0.000000
vn 0.000000 1.000000 0.000000
vn 0.000000 1.000000 0.000000
vn 0.000000 1.000000 0.000000
vn 0.000000 1.000000 0.000000
vn 0.000000 1.000000 0.000000
vn 0.000000 1.000000 0.000000
vn 0.000000 1.000000 0.000000
vn 0.000000 1.000000 0.000000
vn 0.000000 1.000000 0.000000
vn 0.000000 1.000000 0.000000
vn 0.000000 1.000000 0.000000
vn 0.000000 1.000000 0.000000
vn 0.000000 1.000000 0.000000
vn 0.000000 1.000000 0.000000
vn 0.000000 1.000000 0.000000
vn 0.000000 1.000000 0.000000
vn 0.000000 1.000000 0.000000
vn 0.000000 1.000000 0.000000
vn 0.000000 1.000000 0.000000
vn 0.000000 1.000000 0.000000
vn 0.000000 1.000000 0.000000
vn 0.000000 1.000000 0.000000
vn 0.000000 1.000000 0.000000
vn 0.000000 1.000000 0.000000
vn 0.000000 1.000000 0.000000
vn 0.000000 1.000000 0.000000
vn 0.000000 1.000000 0.000000
vn 0.000000 1.000000 0.000000
vn 0.000000 1.000000 0.000000
vn 0.000000 1.000000 0.000000
vn 0.000000 1.000000 0.000000
vn 0.000000 1.000000 0.000000
vn 0.000000 1.000000 0.000000
vn 0.000000 1.000000 0.000000
vn 0.000000 1.000000 0.000000
vn 0.000000 1.000000 0.000000
vn 0.000000 1.000000 0.000000
vn 0.000000 1.000000 0.000000
vn 0.000000 1.000000 0.000000
vn 0.000000 1.000000 0.000000
vn 0.000000 1.000000 0.000000
vn 0.000000 1.000000 0.000000
vn 0.000000 1.000000 0.000000
vn 0.000000 1.000000 0.000000
vn 0.000000 1.000000 0.000000
vn 0.000000 1.000000 0.000000
vn 0.000000 1.000000 0.000000
vn 0.000000 1.000000 0.000000
vn 0.000000 1.000000 0.000000
vn 0.000000 1.000000 0.000000
vn 0.000000 1.000000 0.000000
vn 0.000000 1.000000 0.000000
vn 1.000000 0.000000 0.000000
vn 1.000000 0.000000 0.000000
vn 1.000000 0.000000 0.000000
vn 1.000000 0.000000 0.000000
vn 0.000000 0.000000 -1.000000
vn 0.000000 0.000000 -1.000000
vn 0.000000 0.000000 -1.000000
vn 0.000000 0.000000 -1.000000
vn -1.000000 0.000000 0.000000
vn -1.000000 0.000000 0.000000
vn -1.000000 0.000000 0.000000
vn -1.000000 0.000000 0.000000
vn 0.000000 0.000000 1.000000
vn 0.000000 0.000000 1.000000
vn 0.000000 0.000000 1.000000
vn 0.000000 0.000000 1.000000
vn 1.000000 0.000000 0.000000
vn 1.000000 0.000000 0.000000
vn 1.000000 0.000000 0.000000
vn 1.000000 0.000000 0.000000
vn 0.000000 0.000000 -1.000000
vn 0.000000 0.000000 -1.000000
vn 0.000000 0.000000 -1.000000
vn 0.000000 0.000000 -1.000000
vn -1.000000 0.000000 0.000000
vn -1.000000 0.000000 0.000000
vn -1.000000 0.000000 0.000000
vn -1.000000 0.000000 0.000000
vn 0.000000 0.000000 1.000000
vn 0.000000 0.000000 1.000000
vn 0.000000 0.000000 1.000000
vn 0.000000 0.000000 1.000000
vn 0.000000 0.000000 -1.000000
vn 0.000000 0.000000 -1.000000
vn 0.000000 0.000000 -1.000000
vn 0.000000 0.000000 -1.000000
vn -1.000000 0.000000 0.000000
vn -1.000000 0.000000 0.000000
vn -1.000000 0.000000 0.000000
vn -1.000000 0.000000 0.000000
vn 0.000000 0.000000 1.000000
vn 0.000000 0.000000 1.000000
vn 0.000000 0.000000 1.000000
vn 0.000000 0.000000 1.000000
vn 1.000000 0.000000 0.000000
vn 1.000000 0.000000 0.000000
vn 1.000000 0.000000 0.000000
vn 1.000000 0.000000 0.000000
vn -0.071645 -0.030220 0.996972
vn -0.071645 -0.030220 0.996972
vn -0.071645 -0.030220 0.996972
vn -0.071645 -0.030220 0.996972
vn 0.193865 0.980057 0.043638
vn 0.193865 0.980057 0.043638
vn 0.193865 0.980057 0.043638
vn 0.193865 0.980057 0.043638
vn 0.071645 0.030220 -0.996972
vn 0.071645 0.030220 -0.996972
vn 0.071645 0.030220 -0.996972
vn 0.071645 0.030220 -0.996972
vn -0.193865 -0.980057 -0.043638
vn -0.193865 -0.980057 -0.043638
vn -0.193865 -0.980057 -0.043638
vn -0.193865 -0.980057 -0.043638
vn 0.978409 -0.196404 0.064358
vn 0.978409 -0.196404 0.064358
vn 0.978409 -0.196404 0.064358
vn 0.978409 -0.196404 0.064358
vn -0.978409 0.196404 -0.064358
vn -0.978409 0.196404 -0.064358
vn -0.978409 0.196404 -0.064358
vn -0.978409 0.196404 -0.064358
vn 0.000000 -0.210695 0.977552
vn 0.000000 -0.210695 0.977552
vn 0.000000 -0.210695 0.977552
vn 0.000000 -0.210695 0.977552
vn 0.000000 0.977552 0.210695
vn 0.000000 0.977552 0.210695
vn 0.000000 0.977552 0.210695
vn 0.000000 0.977552 0.210695
vn 0.000000 0.210695 -0.977552
vn 0.000000 0.210695 -0.977552
vn 0.000000 0.210695 -0.977552
vn 0.000000 0.210695 -0.977552
vn 0.000000 -0.977552 -0.210695
vn 0.000000 -0.977552 -0.210695
vn 0.000000 -0.977552 -0.210695
vn 0.000000 -0.977552 -0.210695
vn 1.000000 0.000000 0.000000
vn 1.000000 0.000000 0.000000
vn 1.000000 0.000000 0.000000
vn 1.000000 0.000000 0.000000
vn -1.000000 0.000000 0.000000
vn -1.000000 0.000000 0.000000
vn -1.000000 0.000000 0.000000
vn -1.000000 0.000000 0.000000
s off
f 19/140/1 33/118/2 34/116/3 11/18/4
f 1/1/5 2/36/6 5/31/7 6/27/8
f 2/2/9 4/34/10 7/25/11 5/30/12
f 4/3/13 3/33/14 8/20/15 7/24/16
f 3/4/17 1/35/18 6/28/19 8/19/20
f 6/5/21 5/32/22 9/22/23 20/51/24 18/47/25 16/43/26 14/39/27 22/55/28 24/59/29 42/82/30 44/85/31 10/15/32
f 5/6/33 7/26/34 11/17/35 34/71/36 35/73/37 9/10/38
f 7/7/39 8/21/40 12/13/41 23/58/42 21/54/43 13/38/44 15/42/45 17/46/46 19/50/47 11/11/48
f 8/8/49 6/29/50 10/16/51 40/80/52 38/77/53 48/92/54 46/89/55 12/12/56
f 49/157/57 50/158/58 51/159/59 52/160/60
f 13/37/61 14/143/62 16/135/63 28/133/64 26/124/65 32/121/66 30/129/67 15/142/68
f 27/132/69 28/64/70 16/44/71 18/136/72
f 17/45/73 29/127/74 31/119/75 25/61/76 27/131/77 18/48/78 20/115/79 36/113/80 33/117/81 19/49/82
f 23/137/83 45/98/84 47/93/85 37/75/86 39/108/87 24/60/88 22/139/89 21/53/90
f 53/161/91 54/162/92 55/163/93 56/164/94
f 31/120/95 32/68/96 26/62/97 25/126/98
f 25/125/99 26/123/100 28/134/101 27/63/102
f 15/41/103 30/130/104 29/65/105 17/141/106
f 29/128/107 30/66/108 32/122/109 31/67/110
f 35/112/111 36/74/112 20/52/113 9/23/114
f 34/70/115 33/69/116 36/114/117 35/72/118
f 58/165/119 57/166/120 59/167/121 60/168/122
f 40/104/123 43/101/124 41/105/125 39/78/126 37/96/127 38/111/128
f 43/102/129 44/86/130 42/107/131 41/81/132
f 10/9/133 44/103/134 43/84/135 40/79/136
f 46/100/137 45/87/138 23/57/139 12/14/140
f 48/95/141 47/90/142 45/99/143 46/88/144
f 21/40/145 22/56/146 50/76/147 49/83/148
f 22/56/149 14/91/150 51/94/151 50/76/152
f 14/91/153 13/97/154 52/106/155 51/94/156
f 13/97/157 21/40/158 49/83/159 52/106/160
f 41/109/161 42/110/162 54/138/163 53/144/164
f 42/110/165 24/145/166 55/146/167 54/138/168
f 24/145/169 39/147/170 56/148/171 55/146/172
f 39/147/173 41/109/174 53/144/175 56/148/176
f 38/149/177 37/150/178 57/151/179 58/152/180
f 37/150/181 47/153/182 59/154/183 57/151/184
f 47/153/185 48/155/186 60/156/187 59/154/188
f 48/155/189 38/149/190 58/152/191 60/156/192
f 61/169/193 62/170/194 64/171/195 63/172/196
f 63/173/197 64/174/198 66/175/199 65/176/200
f 65/177/201 66/178/202 68/179/203 67/180/204
f 67/181/205 68/182/206 62/183/207 61/184/208
f 62/185/209 68/186/210 66/187/211 64/188/212
f 67/189/213 61/190/214 63/191/215 65/192/216
f 69/193/217 70/194/218 72/195/219 71/196/220
f 71/197/221 72/198/222 74/199/223 73/200/224
f 73/201/225 74/202/226 76/203/227 75/204/228
f 75/205/229 76/206/230 70/207/231 69/208/232
f 70/209/233 76/210/234 74/211/235 72/212/236
f 75/213/237 69/214/238 71/215/239 73/216/240
