# This file uses meters as units for non-parametric coordinates.

v 1.856101 0.183461 -1.119691
v 1.092223 0.183461 -1.652601
v 1.579354 0.390429 -1.053671
v 1.125813 0.390429 -1.370078
v 1.223990 0.390429 -0.544291
v 0.770450 0.390429 -0.860698
v 1.257581 0.045129 -0.261767
v 0.493703 0.045129 -0.794678
v -1.258353 -0.008542 -0.679282
v -1.258353 -0.008542 -2.262704
v -1.530037 0.911871 -1.090842
v -1.530037 0.911871 -1.851144
v -1.775185 0.911871 -1.090842
v -1.872140 0.911871 -1.851144
v -1.674373 0.016679 -0.679261
v -1.848403 0.016679 -2.262704
v -1.728762 0.000000 0.000000
v 1.728762 0.000000 0.000000
v -1.728762 3.457526 0.000000
v 1.728762 3.457526 0.000000
v -1.728762 3.457526 -5.000000
v 1.728762 3.457526 -5.000000
v -1.728762 0.000000 -5.000000
v 1.728762 0.000000 -5.000000
v -2.072077 3.501724 -1.897207
v 1.891996 3.749324 -3.193262
v 2.201380 0.566665 -3.102793
v -1.762693 -0.006882 -1.806738
v -1.619883 3.633562 -0.500000
v 1.712523 3.633562 -0.500000
v 1.712523 0.108880 -0.500000
v -1.619883 0.108880 -0.500000
v 1.619886 0.108880 -4.500000
v 1.619886 3.348646 -4.500000
v -2.057825 3.348646 -4.500000
v -2.057825 0.108880 -4.500000
v 0.836681 -0.015738 -5.014654
v 0.215966 -0.015738 -4.785674
v 0.762833 0.229540 -4.826530
v 0.394293 0.229540 -4.690578
v 0.915526 0.229540 -4.412618
v 0.546986 0.229540 -4.276664
v 1.093852 0.134368 -4.317520
v 0.473138 0.134368 -4.088540
v 0.000000 0.000000 0.000000
vt 0.297841 0.399625
vt 0.297841 0.399625
vt 0.297841 0.399625
vt 0.297841 0.399625
vt 0.328299 0.399625
vt 0.328299 0.399625
vt 0.328299 0.399625
vt 0.328299 0.399625
vt 0.297841 0.399625
vt 0.297841 0.399625
vt 0.297841 0.399625
vt 0.297841 0.399625
vt 0.268067 0.399625
vt 0.268067 0.399625
vt 0.268067 0.399625
vt 0.268067 0.399625
vt 0.268067 0.399625
vt 0.268067 0.399625
vt 0.268067 0.399625
vt 0.268067 0.399625
vt 0.297841 0.399625
vt 0.297841 0.399625
vt 0.297841 0.399625
vt 0.297841 0.399625
vt 0.328299 0.399625
vt 0.328299 0.399625
vt 0.328299 0.399625
vt 0.328299 0.399625
vt 0.268067 0.399625
vt 0.268067 0.399625
vt 0.268067 0.399625
vt 0.268067 0.399625
vt 0.268067 0.399625
vt 0.268067 0.399625
vt 0.268067 0.399625
vt 0.268067 0.399625
vt 0.328299 0.399625
vt 0.328299 0.399625
vt 0.328299 0.399625
vt 0.234476 0.399625
vt 0.234476 0.399625
vt 0.234476 0.399625
vt 0.268067 0.399625
vt 0.268067 0.399625
vt 0.268067 0.399625
vt 0.268067 0.399625
vt 0.268067 0.399625
vt 0.268067 0.399625
vt 0.328299 0.399625
vt 0.328299 0.399625
vt 0.268067 0.399625
vt 0.234476 0.399625
vt 0.234476 0.399625
vt 0.268067 0.399625
vt 0.268067 0.399625
vt 0.328299 0.399625
vt 0.328299 0.399625
vt 0.328299 0.399625
vt 0.268067 0.399625
vt 0.268067 0.399625
vt 0.268067 0.399625
vt 0.234476 0.399625
vt 0.234476 0.399625
vt 0.268067 0.399625
vt 0.268067 0.399625
vt 0.268067 0.399625
vt 0.234476 0.399625
vt 0.268067 0.399625
vt 0.268067 0.399625
vt 0.268067 0.399625
vt 0.328299 0.399625
vt 0.328299 0.399625
vt 0.268067 0.399625
vt 0.268067 0.399625
vt 0.234476 0.399625
vt 0.234476 0.399625
vt 0.297841 0.399625
vt 0.297841 0.399625
vt 0.297841 0.399625
vt 0.297841 0.399625
vt 0.328299 0.399625
vt 0.328299 0.399625
vt 0.328299 0.399625
vt 0.328299 0.399625
vt 0.297841 0.399625
vt 0.297841 0.399625
vt 0.297841 0.399625
vt 0.297841 0.399625
vt 0.268067 0.399625
vt 0.268067 0.399625
vt 0.268067 0.399625
vt 0.268067 0.399625
vt 0.268067 0.399625
vt 0.268067 0.399625
vt 0.268067 0.399625
vt 0.268067 0.399625
vt 0.234476 0.399625
vn 0.399219 0.716353 -0.572243
vn 0.399219 0.716353 -0.572243
vn 0.399219 0.716353 -0.572243
vn 0.399219 0.716353 -0.572243
vn 0.000000 1.000000 0.000000
vn 0.000000 1.000000 0.000000
vn 0.000000 1.000000 0.000000
vn 0.000000 1.000000 0.000000
vn -0.487288 0.524093 0.698482
vn -0.487288 0.524093 0.698482
vn -0.487288 0.524093 0.698482
vn -0.487288 0.524093 0.698482
vn -0.702628 0.564600 -0.433059
vn -0.702628 0.564600 -0.433059
vn -0.702628 0.564600 -0.433059
vn -0.702628 0.564600 -0.433059
vn 0.649019 0.564600 0.509902
vn 0.649019 0.564600 0.509902
vn 0.649019 0.564600 0.509902
vn 0.649019 0.564600 0.509902
vn 0.959090 0.283101 0.000000
vn 0.959090 0.283101 0.000000
vn 0.959090 0.283101 0.000000
vn 0.959090 0.283101 0.000000
vn 0.000000 1.000000 0.000000
vn 0.000000 1.000000 0.000000
vn 0.000000 1.000000 0.000000
vn 0.000000 1.000000 0.000000
vn 0.011212 0.414394 -0.910029
vn 0.011212 0.414394 -0.910029
vn 0.011212 0.414394 -0.910029
vn 0.011212 0.414394 -0.910029
vn 0.015881 0.415565 0.909425
vn 0.015881 0.415565 0.909425
vn 0.015881 0.415565 0.909425
vn 0.015881 0.415565 0.909425
vn 0.000000 -0.956066 0.293153
vn 0.000000 -0.956066 0.293153
vn 0.000000 -0.956066 0.293153
vn -0.124926 0.990569 0.056266
vn -0.124926 0.990569 0.056266
vn -0.124926 0.990569 0.056266
vn -0.969513 -0.087742 0.228791
vn -0.969513 -0.087742 0.228791
vn -0.969513 -0.087742 0.228791
vn 0.999985 0.000000 0.005475
vn 0.999985 0.000000 0.005475
vn 0.999985 0.000000 0.005475
vn 0.049387 -0.997994 -0.039605
vn 0.049387 -0.997994 -0.039605
vn 0.049387 -0.997994 -0.039605
vn -0.974492 -0.100434 -0.200694
vn -0.974492 -0.100434 -0.200694
vn -0.974492 -0.100434 -0.200694
vn 0.000000 0.996099 -0.088243
vn 0.000000 0.996099 -0.088243
vn 0.000000 0.996099 -0.088243
vn 0.951413 0.000000 -0.307917
vn 0.951413 0.000000 -0.307917
vn 0.951413 0.000000 -0.307917
vn 0.000000 -0.943247 -0.332091
vn 0.000000 -0.943247 -0.332091
vn 0.000000 -0.943247 -0.332091
vn 0.000000 -0.943247 -0.332091
vn -0.999473 0.000000 0.032461
vn -0.999473 0.000000 0.032461
vn -0.999473 0.000000 0.032461
vn -0.999473 0.000000 0.032461
vn 0.000000 0.977102 0.212773
vn 0.000000 0.977102 0.212773
vn 0.000000 0.977102 0.212773
vn 0.000000 0.977102 0.212773
vn 0.000000 0.977102 0.212773
vn 0.977102 0.000000 0.212772
vn 0.977102 0.000000 0.212772
vn 0.977102 0.000000 0.212772
vn 0.977102 0.000000 0.212772
vn 0.081422 -0.994934 0.058961
vn 0.081422 -0.994934 0.058961
vn 0.081422 -0.994934 0.058961
vn 0.000000 -0.995578 0.093941
vn 0.000000 -0.995578 0.093941
vn 0.000000 -0.995578 0.093941
vn -0.997787 0.000000 -0.066491
vn -0.997787 0.000000 -0.066491
vn -0.997787 0.000000 -0.066491
vn -0.923235 0.000000 0.384235
vn -0.923235 0.000000 0.384235
vn -0.923235 0.000000 0.384235
vn 0.000000 0.950293 -0.311357
vn 0.000000 0.950293 -0.311357
vn 0.000000 0.950293 -0.311357
vn -0.091357 0.983550 0.155830
vn -0.091357 0.983550 0.155830
vn -0.091357 0.983550 0.155830
vn 0.990868 0.084667 -0.104942
vn 0.990868 0.084667 -0.104942
vn 0.990868 0.084667 -0.104942
vn 0.989710 0.084290 -0.115631
vn 0.989709 0.084290 -0.115630
vn 0.989709 0.084290 -0.115631
vn -0.977104 0.000000 -0.212765
vn -0.977103 0.000000 -0.212765
vn -0.977104 0.000000 -0.212765
vn -0.977104 0.000000 -0.212765
vn 0.000000 -0.977102 -0.212773
vn 0.000000 -0.977102 -0.212773
vn 0.000000 -0.977102 -0.212773
vn 0.000000 -0.977102 -0.212773
vn 0.835328 0.000000 0.549752
vn 0.835328 0.000000 0.549752
vn 0.835328 0.000000 0.549752
vn 0.835328 0.000000 0.549752
vn 0.000000 0.977102 -0.212773
vn 0.000000 0.977102 -0.212773
vn 0.000000 0.977102 -0.212773
vn 0.000000 0.977102 -0.212773
vn -0.294758 0.524094 -0.799027
vn -0.294758 0.524094 -0.799027
vn -0.294758 0.524094 -0.799027
vn -0.294758 0.524094 -0.799027
vn 0.000000 1.000000 0.000000
vn 0.000000 1.000000 0.000000
vn 0.000000 1.000000 0.000000
vn 0.000000 1.000000 0.000000
vn 0.184595 0.845888 0.500397
vn 0.184595 0.845889 0.500397
vn 0.184595 0.845888 0.500397
vn 0.184595 0.845888 0.500397
vn -0.761204 0.617756 0.197347
vn -0.761204 0.617756 0.197347
vn -0.761204 0.617756 0.197347
vn -0.761204 0.617756 0.197347
vn 0.707003 0.617756 -0.344273
vn 0.707003 0.617756 -0.344273
vn 0.707003 0.617756 -0.344273
vn 0.707003 0.617756 -0.344273
s off
f 1/1/1 2/2/2 4/3/3 3/4/4
f 3/5/5 4/6/6 6/7/7 5/8/8
f 5/9/9 6/10/10 8/11/11 7/12/12
f 2/13/13 8/14/14 6/15/15 4/16/16
f 7/17/17 1/18/18 3/19/19 5/20/20
f 9/21/21 10/22/22 12/23/23 11/24/24
f 11/25/25 12/26/26 14/27/27 13/28/28
f 10/29/29 16/30/30 14/31/31 12/32/32
f 15/33/33 9/34/34 11/35/35 13/36/36
f 35/37/37 34/38/38 26/39/39
f 36/40/40 28/41/41 27/42/42
f 26/43/43 34/44/44 27/45/45
f 35/46/46 25/47/47 36/48/48
f 25/49/49 26/39/50 30/50/51
f 26/43/52 27/45/53 31/51/54
f 28/41/55 32/52/56 31/53/57
f 25/47/58 29/54/59 32/55/60
f 20/56/61 19/57/62 29/58/63 30/50/64
f 18/59/65 20/60/66 30/61/67 31/51/68
f 45/97/69 18/63/70 31/53/71 32/52/72 17/62/73
f 29/54/74 19/64/75 17/65/76 32/55/77
f 25/49/78 35/37/79 26/39/80
f 29/58/81 25/49/82 30/50/83
f 30/61/84 26/43/85 31/51/86
f 34/44/87 33/66/88 27/45/89
f 36/40/90 27/42/91 33/67/92
f 28/41/93 31/53/94 27/42/95
f 25/47/96 28/68/97 36/48/98
f 25/47/99 32/55/100 28/68/101
f 34/44/102 22/69/103 24/70/104 33/66/105
f 35/37/106 21/71/107 22/72/108 34/38/109
f 23/73/110 21/74/111 35/46/112 36/48/113
f 24/75/114 23/76/115 36/40/116 33/67/117
f 37/77/118 38/78/119 40/79/120 39/80/121
f 39/81/122 40/82/123 42/83/124 41/84/125
f 41/85/126 42/86/127 44/87/128 43/88/129
f 38/89/130 44/90/131 42/91/132 40/92/133
f 43/93/134 37/94/135 39/95/136 41/96/137
