# This file uses meters as units for non-parametric coordinates.

v 0.354626 0.225603 0.248062
v 1.129452 0.225603 -0.058720
v 0.442501 0.370992 0.213268
v 1.049412 0.370992 -0.027027
v 0.368038 0.370992 0.025192
v 0.974941 0.370992 -0.215103
v 0.280155 0.225603 0.059986
v 1.054989 0.225603 -0.246792
v -2.500000 0.000000 0.288071
v 2.500000 0.000000 0.288071
v -2.500000 0.225603 0.288071
v 2.500000 0.225603 0.288071
v -2.500000 0.225603 -0.288071
v 2.500000 0.225603 -0.288071
v -2.500000 0.000000 -0.288071
v 2.500000 0.000000 -0.288071
v -2.500000 0.225603 0.000000
v 0.000000 0.225603 0.288071
v 1.955101 0.225603 0.228006
v 2.411110 0.225603 0.228006
v 2.028824 1.262418 0.154285
v 2.337387 1.262418 0.154285
v 2.028824 1.262418 -0.154278
v 2.337387 1.262418 -0.154278
v 1.955101 0.225603 -0.227999
v 2.411110 0.225603 -0.227999
v 1.955101 0.397197 0.228006
v 2.411110 0.397197 0.228006
v 2.411110 0.397197 -0.227999
v 1.955101 0.397197 -0.227999
v 2.337387 0.397197 -0.154278
v 2.337387 0.397197 0.154285
v 2.028824 0.397197 0.154285
v 2.028824 0.397197 -0.154278
v -0.228012 0.225603 0.228006
v 0.227997 0.225603 0.228006
v -0.154289 1.262418 0.154285
v 0.154274 1.262418 0.154285
v -0.154289 1.262418 -0.154278
v 0.154274 1.262418 -0.154278
v -0.228012 0.225603 -0.227999
v 0.227997 0.225603 -0.227999
v -0.228012 0.397197 0.228006
v 0.227997 0.397197 0.228006
v 0.227997 0.397197 -0.227999
v -0.228012 0.397197 -0.227999
v 0.154274 0.397197 -0.154278
v 0.154274 0.397197 0.154285
v -0.154289 0.397197 0.154285
v -0.154289 0.397197 -0.154278
v -2.411118 0.225603 0.228006
v -1.955109 0.225603 0.228006
v -2.337395 1.262418 0.154285
v -2.028831 1.262418 0.154285
v -2.337395 1.262418 -0.154278
v -2.028831 1.262418 -0.154278
v -2.411118 0.225603 -0.227999
v -1.955109 0.225603 -0.227999
v -2.411118 0.397197 0.228006
v -1.955109 0.397197 0.228006
v -1.955109 0.397197 -0.227999
v -2.411118 0.397197 -0.227999
v -2.028831 0.397197 -0.154278
v -2.028831 0.397197 0.154285
v -2.337395 0.397197 0.154285
v -2.337395 0.397197 -0.154278
v -2.500000 0.981025 0.105564
v -2.500000 1.140034 0.105564
v -2.500000 1.140034 -0.105562
v -2.500000 0.981025 -0.105562
v 0.325008 0.981025 0.105564
v 0.263374 1.140034 0.105564
v 0.263374 1.140034 -0.105562
v 0.325008 0.981025 -0.105562
v 2.500000 0.981025 0.105564
v 2.500000 1.140034 0.105564
v 2.500000 1.140034 -0.105562
v 2.500000 0.981025 -0.105562
v 1.577465 0.981025 0.105564
v 1.627171 1.140034 0.105564
v 1.627171 1.140034 -0.105562
v 1.577465 0.981025 -0.105562
vt 0.267400 0.511295
vt 0.267400 0.511295
vt 0.267400 0.511295
vt 0.267400 0.511295
vt 0.297857 0.511295
vt 0.297857 0.511295
vt 0.297857 0.511295
vt 0.297857 0.511295
vt 0.267400 0.511295
vt 0.267400 0.511295
vt 0.267400 0.511295
vt 0.267400 0.511295
vt 0.204035 0.511295
vt 0.204035 0.511295
vt 0.204035 0.511295
vt 0.204035 0.511295
vt 0.384740 0.514995
vt 0.384740 0.514995
vt 0.384740 0.514995
vt 0.384740 0.514995
vt 0.384740 0.514995
vt 0.384740 0.514995
vt 0.384740 0.514995
vt 0.384740 0.514995
vt 0.531476 0.955905
vt 0.617254 0.955905
vt 0.617254 0.955738
vt 0.574365 0.955738
vt 0.531476 0.955738
vt 0.531476 0.950626
vt 0.574365 0.950626
vt 0.617254 0.950626
vt 0.617254 0.950460
vt 0.531476 0.950460
vt 0.531476 0.950543
vt 0.531476 0.955738
vt 0.617254 0.955738
vt 0.617254 0.955905
vt 0.531476 0.955905
vt 0.246110 0.063783
vt 0.246110 0.063783
vt 0.246110 0.063783
vt 0.246110 0.063783
vt 0.233310 0.063783
vt 0.233310 0.063783
vt 0.233310 0.063783
vt 0.233310 0.063783
vt 0.233310 0.063783
vt 0.233310 0.063783
vt 0.233310 0.063783
vt 0.233310 0.063783
vt 0.233310 0.063783
vt 0.360461 0.063984
vt 0.360461 0.063984
vt 0.360461 0.063984
vt 0.360461 0.063984
vt 0.360461 0.063984
vt 0.360461 0.063984
vt 0.360461 0.063984
vt 0.360461 0.063984
vt 0.360461 0.063984
vt 0.360461 0.063984
vt 0.360461 0.063984
vt 0.360461 0.063984
vt 0.360461 0.063984
vt 0.360461 0.063984
vt 0.360461 0.063984
vt 0.360461 0.063984
vt 0.360461 0.063984
vt 0.360461 0.063984
vt 0.360461 0.063984
vt 0.360461 0.063984
vt 0.328122 0.063783
vt 0.328122 0.063783
vt 0.328122 0.063783
vt 0.328122 0.063783
vt 0.298348 0.063783
vt 0.298348 0.063783
vt 0.298348 0.063783
vt 0.298348 0.063783
vt 0.328122 0.063783
vt 0.328122 0.063783
vt 0.328122 0.063783
vt 0.328122 0.063783
vt 0.298348 0.063783
vt 0.298348 0.063783
vt 0.298348 0.063783
vt 0.298348 0.063783
vt 0.298348 0.063783
vt 0.298348 0.063783
vt 0.298348 0.063783
vt 0.298348 0.063783
vt 0.328122 0.063783
vt 0.328122 0.063783
vt 0.328122 0.063783
vt 0.328122 0.063783
vt 0.298348 0.063783
vt 0.298348 0.063783
vt 0.298348 0.063783
vt 0.298348 0.063783
vt 0.328122 0.063783
vt 0.328122 0.063783
vt 0.328122 0.063783
vt 0.328122 0.063783
vt 0.360461 0.063984
vt 0.360461 0.063984
vt 0.360461 0.063984
vt 0.360461 0.063984
vt 0.360461 0.063984
vt 0.360461 0.063984
vt 0.360461 0.063984
vt 0.360461 0.063984
vt 0.360461 0.063984
vt 0.360461 0.063984
vt 0.360461 0.063984
vt 0.360461 0.063984
vt 0.360461 0.063984
vt 0.360461 0.063984
vt 0.360461 0.063984
vt 0.360461 0.063984
vt 0.360461 0.063984
vt 0.360461 0.063984
vt 0.360461 0.063984
vt 0.360461 0.063984
vt 0.328122 0.063783
vt 0.328122 0.063783
vt 0.328122 0.063783
vt 0.328122 0.063783
vt 0.298348 0.063783
vt 0.298348 0.063783
vt 0.298348 0.063783
vt 0.298348 0.063783
vt 0.328122 0.063783
vt 0.328122 0.063783
vt 0.328122 0.063783
vt 0.328122 0.063783
vt 0.298348 0.063783
vt 0.298348 0.063783
vt 0.298348 0.063783
vt 0.298348 0.063783
vt 0.298348 0.063783
vt 0.298348 0.063783
vt 0.298348 0.063783
vt 0.298348 0.063783
vt 0.328122 0.063783
vt 0.328122 0.063783
vt 0.328122 0.063783
vt 0.328122 0.063783
vt 0.298348 0.063783
vt 0.298348 0.063783
vt 0.298348 0.063783
vt 0.298348 0.063783
vt 0.328122 0.063783
vt 0.328122 0.063783
vt 0.328122 0.063783
vt 0.328122 0.063783
vt 0.360461 0.063984
vt 0.360461 0.063984
vt 0.360461 0.063984
vt 0.360461 0.063984
vt 0.360461 0.063984
vt 0.360461 0.063984
vt 0.360461 0.063984
vt 0.360461 0.063984
vt 0.360461 0.063984
vt 0.360461 0.063984
vt 0.360461 0.063984
vt 0.360461 0.063984
vt 0.360461 0.063984
vt 0.360461 0.063984
vt 0.360461 0.063984
vt 0.360461 0.063984
vt 0.360461 0.063984
vt 0.360461 0.063984
vt 0.360461 0.063984
vt 0.360461 0.063984
vt 0.328122 0.063783
vt 0.328122 0.063783
vt 0.328122 0.063783
vt 0.328122 0.063783
vt 0.298348 0.063783
vt 0.298348 0.063783
vt 0.298348 0.063783
vt 0.298348 0.063783
vt 0.328122 0.063783
vt 0.328122 0.063783
vt 0.328122 0.063783
vt 0.328122 0.063783
vt 0.298348 0.063783
vt 0.298348 0.063783
vt 0.298348 0.063783
vt 0.298348 0.063783
vt 0.298348 0.063783
vt 0.298348 0.063783
vt 0.298348 0.063783
vt 0.298348 0.063783
vt 0.328122 0.063783
vt 0.328122 0.063783
vt 0.328122 0.063783
vt 0.328122 0.063783
vt 0.298348 0.063783
vt 0.298348 0.063783
vt 0.298348 0.063783
vt 0.298348 0.063783
vt 0.328122 0.063783
vt 0.328122 0.063783
vt 0.328122 0.063783
vt 0.328122 0.063783
vt 0.264509 0.511884
vt 0.264509 0.511884
vt 0.264509 0.511884
vt 0.264509 0.511884
vt 0.294967 0.511884
vt 0.294967 0.511884
vt 0.294967 0.511884
vt 0.294967 0.511884
vt 0.264509 0.511884
vt 0.264509 0.511884
vt 0.264509 0.511884
vt 0.264509 0.511884
vt 0.201145 0.511884
vt 0.201145 0.511884
vt 0.201145 0.511884
vt 0.201145 0.511884
vt 0.359899 0.510855
vt 0.359899 0.510855
vt 0.359899 0.510855
vt 0.359899 0.510855
vt 0.198406 0.510412
vt 0.198406 0.510412
vt 0.198406 0.510412
vt 0.198406 0.510412
vt 0.264509 0.511884
vt 0.264509 0.511884
vt 0.264509 0.511884
vt 0.264509 0.511884
vt 0.294967 0.511884
vt 0.294967 0.511884
vt 0.294967 0.511884
vt 0.294967 0.511884
vt 0.264509 0.511884
vt 0.264509 0.511884
vt 0.264509 0.511884
vt 0.264509 0.511884
vt 0.201145 0.511884
vt 0.201145 0.511884
vt 0.201145 0.511884
vt 0.201145 0.511884
vt 0.359899 0.510855
vt 0.359899 0.510855
vt 0.359899 0.510855
vt 0.359899 0.510855
vt 0.203856 0.510412
vt 0.203856 0.510412
vt 0.203856 0.510412
vt 0.203856 0.510412
vn 0.368130 -0.000003 0.929774
vn 0.368130 -0.000003 0.929774
vn 0.368130 -0.000003 0.929774
vn 0.368130 -0.000003 0.929774
vn 0.000000 1.000000 0.000000
vn 0.000000 1.000000 0.000000
vn 0.000000 1.000000 0.000000
vn 0.000000 1.000000 0.000000
vn -0.368128 -0.000009 -0.929775
vn -0.368128 -0.000009 -0.929775
vn -0.368128 -0.000009 -0.929775
vn -0.368128 -0.000009 -0.929775
vn 0.000000 -1.000000 0.000000
vn 0.000000 -1.000000 0.000000
vn 0.000000 -1.000000 0.000000
vn 0.000000 -1.000000 0.000000
vn 0.800038 0.509505 -0.316770
vn 0.800038 0.509505 -0.316770
vn 0.800038 0.509505 -0.316770
vn 0.800038 0.509505 -0.316770
vn -0.779529 0.545043 0.308646
vn -0.779529 0.545043 0.308646
vn -0.779529 0.545043 0.308646
vn -0.779529 0.545043 0.308646
vn 0.000000 -0.000000 1.000000
vn 0.000000 -0.000000 1.000000
vn 0.000000 -0.000000 1.000000
vn 0.000000 0.000000 1.000000
vn 0.000000 -0.000000 1.000000
vn 0.000000 1.000000 0.000000
vn 0.000000 1.000000 0.000000
vn 0.000000 1.000000 0.000000
vn 0.000000 1.000000 0.000000
vn 0.000000 1.000000 0.000000
vn 0.000000 1.000000 0.000000
vn 0.000000 0.000000 -1.000000
vn 0.000000 0.000000 -1.000000
vn 0.000000 0.000000 -1.000000
vn 0.000000 0.000000 -1.000000
vn 0.000000 -1.000000 0.000000
vn 0.000000 -1.000000 0.000000
vn 0.000000 -1.000000 0.000000
vn 0.000000 -1.000000 0.000000
vn 1.000000 0.000000 0.000000
vn 1.000000 0.000000 0.000000
vn 1.000000 0.000000 0.000000
vn 1.000000 0.000000 0.000000
vn -1.000000 0.000000 0.000000
vn -1.000000 0.000000 0.000000
vn -1.000000 0.000000 0.000000
vn -1.000000 0.000000 0.000000
vn -1.000000 0.000000 0.000000
vn 0.000000 1.000000 -0.000000
vn 0.000000 1.000000 -0.000000
vn 0.000000 1.000000 -0.000000
vn 0.000000 1.000000 -0.000000
vn 0.000000 1.000000 0.000000
vn 0.000000 1.000000 0.000000
vn 0.000000 1.000000 0.000000
vn 0.000000 1.000000 0.000000
vn 0.000000 1.000000 -0.000000
vn 0.000000 1.000000 -0.000000
vn 0.000000 1.000000 -0.000000
vn 0.000000 1.000000 -0.000000
vn 0.000000 1.000000 0.000000
vn 0.000000 1.000000 0.000000
vn 0.000000 1.000000 0.000000
vn 0.000000 1.000000 0.000000
vn 0.000000 1.000000 0.000000
vn 0.000000 1.000000 0.000000
vn 0.000000 1.000000 0.000000
vn 0.000000 1.000000 0.000000
vn 0.000000 0.000000 1.000000
vn 0.000000 0.000000 1.000000
vn 0.000000 0.000000 1.000000
vn 0.000000 0.000000 1.000000
vn 1.000000 0.000000 0.000000
vn 1.000000 0.000000 0.000000
vn 1.000000 0.000000 0.000000
vn 1.000000 0.000000 0.000000
vn 0.000000 0.000000 -1.000000
vn 0.000000 0.000000 -1.000000
vn 0.000000 0.000000 -1.000000
vn 0.000000 0.000000 -1.000000
vn -1.000000 0.000000 0.000000
vn -1.000000 0.000000 0.000000
vn -1.000000 0.000000 0.000000
vn -1.000000 0.000000 0.000000
vn 1.000000 0.000000 0.000000
vn 1.000000 0.000000 0.000000
vn 1.000000 0.000000 0.000000
vn 1.000000 0.000000 0.000000
vn 0.000000 0.000000 1.000000
vn 0.000000 0.000000 1.000000
vn 0.000000 0.000000 1.000000
vn 0.000000 0.000000 1.000000
vn -1.000000 0.000000 0.000000
vn -1.000000 0.000000 0.000000
vn -1.000000 0.000000 0.000000
vn -1.000000 0.000000 0.000000
vn 0.000000 0.000000 -1.000000
vn 0.000000 0.000000 -1.000000
vn 0.000000 0.000000 -1.000000
vn 0.000000 0.000000 -1.000000
vn 0.000000 1.000000 -0.000000
vn 0.000000 1.000000 -0.000000
vn 0.000000 1.000000 -0.000000
vn 0.000000 1.000000 -0.000000
vn 0.000000 1.000000 0.000000
vn 0.000000 1.000000 0.000000
vn 0.000000 1.000000 0.000000
vn 0.000000 1.000000 0.000000
vn 0.000000 1.000000 -0.000000
vn 0.000000 1.000000 -0.000000
vn 0.000000 1.000000 -0.000000
vn 0.000000 1.000000 -0.000000
vn 0.000000 1.000000 0.000000
vn 0.000000 1.000000 0.000000
vn 0.000000 1.000000 0.000000
vn 0.000000 1.000000 0.000000
vn 0.000000 1.000000 0.000000
vn 0.000000 1.000000 0.000000
vn 0.000000 1.000000 0.000000
vn 0.000000 1.000000 0.000000
vn 0.000000 0.000000 1.000000
vn 0.000000 0.000000 1.000000
vn 0.000000 0.000000 1.000000
vn 0.000000 0.000000 1.000000
vn 1.000000 0.000000 0.000000
vn 1.000000 0.000000 0.000000
vn 1.000000 0.000000 0.000000
vn 1.000000 0.000000 0.000000
vn 0.000000 0.000000 -1.000000
vn 0.000000 0.000000 -1.000000
vn 0.000000 0.000000 -1.000000
vn 0.000000 0.000000 -1.000000
vn -1.000000 0.000000 0.000000
vn -1.000000 0.000000 0.000000
vn -1.000000 0.000000 0.000000
vn -1.000000 0.000000 0.000000
vn 1.000000 0.000000 0.000000
vn 1.000000 0.000000 0.000000
vn 1.000000 0.000000 0.000000
vn 1.000000 0.000000 0.000000
vn 0.000000 0.000000 1.000000
vn 0.000000 0.000000 1.000000
vn 0.000000 0.000000 1.000000
vn 0.000000 0.000000 1.000000
vn -1.000000 0.000000 0.000000
vn -1.000000 0.000000 0.000000
vn -1.000000 0.000000 0.000000
vn -1.000000 0.000000 0.000000
vn 0.000000 0.000000 -1.000000
vn 0.000000 0.000000 -1.000000
vn 0.000000 0.000000 -1.000000
vn 0.000000 0.000000 -1.000000
vn 0.000000 1.000000 -0.000000
vn 0.000000 1.000000 -0.000000
vn 0.000000 1.000000 -0.000000
vn 0.000000 1.000000 -0.000000
vn 0.000000 1.000000 0.000000
vn 0.000000 1.000000 0.000000
vn 0.000000 1.000000 0.000000
vn 0.000000 1.000000 0.000000
vn 0.000000 1.000000 -0.000000
vn 0.000000 1.000000 -0.000000
vn 0.000000 1.000000 -0.000000
vn 0.000000 1.000000 -0.000000
vn 0.000000 1.000000 0.000000
vn 0.000000 1.000000 0.000000
vn 0.000000 1.000000 0.000000
vn 0.000000 1.000000 0.000000
vn 0.000000 1.000000 0.000000
vn 0.000000 1.000000 0.000000
vn 0.000000 1.000000 0.000000
vn 0.000000 1.000000 0.000000
vn 0.000000 0.000000 1.000000
vn 0.000000 0.000000 1.000000
vn 0.000000 0.000000 1.000000
vn 0.000000 0.000000 1.000000
vn 1.000000 0.000000 0.000000
vn 1.000000 0.000000 0.000000
vn 1.000000 0.000000 0.000000
vn 1.000000 0.000000 0.000000
vn 0.000000 0.000000 -1.000000
vn 0.000000 0.000000 -1.000000
vn 0.000000 0.000000 -1.000000
vn 0.000000 0.000000 -1.000000
vn -1.000000 0.000000 0.000000
vn -1.000000 0.000000 0.000000
vn -1.000000 0.000000 0.000000
vn -1.000000 0.000000 0.000000
vn 1.000000 0.000000 0.000000
vn 1.000000 0.000000 0.000000
vn 1.000000 0.000000 0.000000
vn 1.000000 0.000000 0.000000
vn 0.000000 0.000000 1.000000
vn 0.000000 0.000000 1.000000
vn 0.000000 0.000000 1.000000
vn 0.000000 0.000000 1.000000
vn -1.000000 0.000000 0.000000
vn -1.000000 0.000000 0.000000
vn -1.000000 0.000000 0.000000
vn -1.000000 0.000000 0.000000
vn 0.000000 0.000000 -1.000000
vn 0.000000 0.000000 -1.000000
vn 0.000000 0.000000 -1.000000
vn 0.000000 0.000000 -1.000000
vn 0.000000 0.000000 1.000000
vn 0.000000 0.000000 1.000000
vn 0.000000 0.000000 1.000000
vn 0.000000 0.000000 1.000000
vn 0.000000 1.000000 0.000000
vn 0.000000 1.000000 0.000000
vn 0.000000 1.000000 0.000000
vn 0.000000 1.000000 0.000000
vn 0.000000 0.000000 -1.000000
vn 0.000000 0.000000 -1.000000
vn 0.000000 0.000000 -1.000000
vn 0.000000 0.000000 -1.000000
vn 0.000000 -1.000000 0.000000
vn 0.000000 -1.000000 0.000000
vn 0.000000 -1.000000 0.000000
vn 0.000000 -1.000000 0.000000
vn 0.932406 0.361413 0.000000
vn 0.932406 0.361413 0.000000
vn 0.932406 0.361413 0.000000
vn 0.932406 0.361413 0.000000
vn -1.000000 0.000000 0.000000
vn -1.000000 0.000000 0.000000
vn -1.000000 0.000000 0.000000
vn -1.000000 0.000000 0.000000
vn 0.000000 0.000000 1.000000
vn 0.000000 0.000000 1.000000
vn 0.000000 0.000000 1.000000
vn 0.000000 0.000000 1.000000
vn 0.000000 1.000000 0.000000
vn 0.000000 1.000000 0.000000
vn 0.000000 1.000000 0.000000
vn 0.000000 1.000000 0.000000
vn 0.000000 0.000000 -1.000000
vn 0.000000 0.000000 -1.000000
vn 0.000000 0.000000 -1.000000
vn 0.000000 0.000000 -1.000000
vn 0.000000 -1.000000 0.000000
vn 0.000000 -1.000000 0.000000
vn 0.000000 -1.000000 0.000000
vn 0.000000 -1.000000 0.000000
vn -0.954454 0.298358 0.000000
vn -0.954454 0.298358 0.000000
vn -0.954454 0.298358 0.000000
vn -0.954454 0.298358 0.000000
vn 1.000000 0.000000 0.000000
vn 1.000000 0.000000 0.000000
vn 1.000000 0.000000 0.000000
vn 1.000000 0.000000 0.000000
s off
f 1/1/1 2/2/2 4/3/3 3/4/4
f 3/5/5 4/6/6 6/7/7 5/8/8
f 5/9/9 6/10/10 8/11/11 7/12/12
f 7/13/13 8/14/14 2/15/15 1/16/16
f 2/17/17 8/18/18 6/19/19 4/20/20
f 7/21/21 1/22/22 3/23/23 5/24/24
f 9/25/25 10/26/26 12/27/27 18/28/28 11/29/29
f 11/30/30 18/31/31 12/32/32 14/33/33 13/34/34 17/35/35
f 13/36/36 14/37/37 16/38/38 15/39/39
f 15/40/40 16/41/41 10/42/42 9/43/43
f 10/44/44 16/45/45 14/46/46 12/47/47
f 15/48/48 9/49/49 11/50/50 17/51/51 13/52/52
f 27/53/53 28/54/54 32/55/55 33/56/56
f 21/57/57 22/58/58 24/59/59 23/60/60
f 34/61/61 31/62/62 29/63/63 30/64/64
f 28/65/65 29/66/66 31/67/67 32/68/68
f 30/69/69 27/70/70 33/71/71 34/72/72
f 19/73/73 20/74/74 28/75/75 27/76/76
f 20/77/77 26/78/78 29/79/79 28/80/80
f 30/81/81 29/82/82 26/83/83 25/84/84
f 25/85/85 19/86/86 27/87/87 30/88/88
f 32/89/89 31/90/90 24/91/91 22/92/92
f 33/93/93 32/94/94 22/95/95 21/96/96
f 34/97/97 33/98/98 21/99/99 23/100/100
f 23/101/101 24/102/102 31/103/103 34/104/104
f 43/105/105 44/106/106 48/107/107 49/108/108
f 37/109/109 38/110/110 40/111/111 39/112/112
f 50/113/113 47/114/114 45/115/115 46/116/116
f 44/117/117 45/118/118 47/119/119 48/120/120
f 46/121/121 43/122/122 49/123/123 50/124/124
f 35/125/125 36/126/126 44/127/127 43/128/128
f 36/129/129 42/130/130 45/131/131 44/132/132
f 46/133/133 45/134/134 42/135/135 41/136/136
f 41/137/137 35/138/138 43/139/139 46/140/140
f 48/141/141 47/142/142 40/143/143 38/144/144
f 49/145/145 48/146/146 38/147/147 37/148/148
f 50/149/149 49/150/150 37/151/151 39/152/152
f 39/153/153 40/154/154 47/155/155 50/156/156
f 59/157/157 60/158/158 64/159/159 65/160/160
f 53/161/161 54/162/162 56/163/163 55/164/164
f 66/165/165 63/166/166 61/167/167 62/168/168
f 60/169/169 61/170/170 63/171/171 64/172/172
f 62/173/173 59/174/174 65/175/175 66/176/176
f 51/177/177 52/178/178 60/179/179 59/180/180
f 52/181/181 58/182/182 61/183/183 60/184/184
f 62/185/185 61/186/186 58/187/187 57/188/188
f 57/189/189 51/190/190 59/191/191 62/192/192
f 64/193/193 63/194/194 56/195/195 54/196/196
f 65/197/197 64/198/198 54/199/199 53/200/200
f 66/201/201 65/202/202 53/203/203 55/204/204
f 55/205/205 56/206/206 63/207/207 66/208/208
f 67/209/209 71/210/210 72/211/211 68/212/212
f 68/213/213 72/214/214 73/215/215 69/216/216
f 69/217/217 73/218/218 74/219/219 70/220/220
f 70/221/221 74/222/222 71/223/223 67/224/224
f 72/225/225 71/226/226 74/227/227 73/228/228
f 67/229/229 68/230/230 69/231/231 70/232/232
f 80/233/233 79/234/234 75/235/235 76/236/236
f 81/237/237 80/238/238 76/239/239 77/240/240
f 82/241/241 81/242/242 77/243/243 78/244/244
f 79/245/245 82/246/246 78/247/247 75/248/248
f 80/249/249 81/250/250 82/251/251 79/252/252
f 76/253/253 75/254/254 78/255/255 77/256/256
