# This file uses meters as units for non-parametric coordinates.

v -5.000004 0.000000 0.000000
v 0.000000 0.000000 0.000000
v -5.000004 0.000000 -5.000000
v 0.000000 0.000000 -5.000000
v -4.770083 0.000000 -0.229920
v -0.229920 0.000000 -0.229920
v -0.229920 0.000000 -4.770080
v -4.770083 0.000000 -4.770080
vt 0.001960 0.837787
vt 0.162572 0.837787
vt 0.162572 0.998399
vt 0.001960 0.998399
vt 0.001960 0.837787
vt 0.162572 0.837787
vt 0.162572 0.998399
vt 0.001960 0.998399
vn 0.000000 1.000000 0.000000
vn 0.000000 1.000000 0.000000
vn 0.000000 1.000000 0.000000
vn 0.000000 1.000000 0.000000
vn 0.000000 1.000000 0.000000
vn 0.000000 1.000000 0.000000
vn 0.000000 1.000000 0.000000
vn 0.000000 1.000000 0.000000
vn 0.000000 1.000000 0.000000
vn 0.000000 1.000000 0.000000
vn 0.000000 1.000000 0.000000
vn 0.000000 1.000000 0.000000
vn 0.000000 1.000000 0.000000
vn 0.000000 1.000000 0.000000
vn 0.000000 1.000000 0.000000
vn 0.000000 1.000000 0.000000
vn 0.000000 1.000000 0.000000
vn 0.000000 1.000000 0.000000
vn 0.000000 1.000000 0.000000
vn 0.000000 1.000000 0.000000
s off
f 5/5/1 6/6/2 7/7/3 8/8/4
f 5/5/5 1/1/6 2/2/7 6/6/8
f 2/2/9 4/3/10 7/7/11 6/6/12
f 4/3/13 3/4/14 8/8/15 7/7/16
f 3/4/17 1/1/18 5/5/19 8/8/20
