# This file uses meters as units for non-parametric coordinates.

v 6.981850 2.828045 6.981773
v 6.981850 2.828045 -6.981773
v -6.981850 2.828045 6.981773
v -6.981849 -0.000000 -6.981773
v -6.981850 2.828045 -6.981773
v 5.357857 4.998322 5.357895
v 5.357857 4.998322 -5.357933
v -5.357933 4.998322 5.357895
v 5.357857 2.828045 5.357895
v -5.357933 2.828045 5.357895
v 5.357857 2.828045 -5.357933
v -5.357933 4.998322 -5.357933
v -5.357933 2.828045 -5.357933
v 5.357857 39.383180 5.357895
v 5.357857 39.383180 -5.357933
v -5.357933 39.383180 5.357895
v 5.357857 37.213075 5.357895
v -5.357933 37.213075 5.357895
v 5.357857 37.213075 -5.357933
v -5.357933 39.383180 -5.357933
v -5.357933 37.213075 -5.357933
v 6.981850 47.218871 6.981773
v 6.981850 47.218871 -6.981773
v -6.981850 47.218871 6.981773
v 6.981850 44.390807 6.981773
v -6.981850 44.390807 6.981773
v 6.981850 44.390807 -6.981773
v -6.981850 47.218871 -6.981773
v -6.981850 44.390807 -6.981773
v 5.357857 50.095038 5.357895
v 5.357857 50.095038 -5.357933
v -5.357933 50.095038 5.357895
v 5.357857 47.218871 5.357895
v -5.357933 47.218871 5.357895
v 5.357857 47.218871 -5.357933
v -5.357933 50.095038 -5.357933
v -5.357933 47.218871 -5.357933
v 4.487724 44.390807 4.487801
v 4.487724 44.390807 -4.487801
v -4.487839 44.390807 4.487801
v 4.487724 39.383180 4.487801
v -4.487839 39.383180 4.487801
v 4.487724 39.383180 -4.487801
v -4.487839 44.390807 -4.487801
v -4.487839 39.383180 -4.487801
v -3.808708 4.998283 -3.957176
v -3.808708 4.998283 3.957176
v 3.808632 4.998283 -3.957176
v 3.808632 4.998283 3.957176
v 3.808632 24.066942 3.957176
v 3.808632 24.066942 -3.957176
v -3.808708 24.066942 -3.957176
v -3.808708 24.066942 3.957176
v 3.808632 37.213075 3.957176
v 3.808632 37.213075 -3.957176
v -3.808708 37.213075 -3.957176
v -3.808708 37.213075 3.957176
v 3.808632 14.613495 3.957176
v 3.808632 14.613495 -3.957176
v -3.808708 14.613495 -3.957176
v -3.808708 14.613495 3.957176
v 1.235314 26.880052 4.592819
v -1.235390 29.921739 4.592819
v -1.235390 26.880052 4.592819
v 1.235314 29.921739 4.592819
v -1.235390 29.921739 3.957176
v -1.235390 26.880052 3.957176
v 1.235314 26.880052 3.957176
v 1.235314 29.921739 3.957176
v 2.005253 24.169633 5.393982
v -2.005310 28.515489 5.393982
v -2.005310 24.169633 5.393982
v 2.005253 28.515489 5.393982
v -2.005310 28.515489 4.592819
v -2.005310 24.169633 4.592819
v 2.005253 24.169633 4.592819
v 2.005253 28.515489 4.592819
v -0.536952 28.515489 4.592819
v -0.536952 28.515489 5.393982
v 0.536880 28.515489 4.592819
v 0.536880 28.515489 5.393982
v 0.536880 29.070299 4.592819
v 0.536880 29.070299 5.393982
v -0.536952 29.070299 4.592819
v -0.536952 29.070299 5.393982
v 3.808632 13.652039 3.957176
v -3.808708 13.652039 3.957176
v -3.808708 13.652039 -3.957176
v 3.808632 13.652039 -3.957176
v 3.808632 23.240678 3.957176
v -3.808708 23.240678 3.957176
v -3.808708 23.240678 -3.957176
v 3.808632 23.240678 -3.957176
v 3.808632 36.386659 3.957176
v -3.808708 36.386659 3.957176
v -3.808708 36.386659 -3.957176
v 3.808632 36.386659 -3.957176
v -1.190081 27.632310 5.393982
v -1.190081 25.053117 5.393982
v 1.189995 25.053117 5.393982
v 1.189995 27.632310 5.393982
v -1.190081 27.632310 4.526978
v -1.190081 25.053117 4.526978
v 1.189995 25.053117 4.526978
v 1.189995 27.632310 4.526978
v 6.981849 -0.000000 6.981773
v -6.981850 0.000000 6.981773
v 6.981849 -0.000000 -6.981773
vt 0.326938 0.060206
vt 0.326938 0.060206
vt 0.326938 0.060206
vt 0.326938 0.060206
vt 0.326938 0.060206
vt 0.326938 0.060206
vt 0.326938 0.060206
vt 0.326938 0.060206
vt 0.326938 0.060206
vt 0.326938 0.060206
vt 0.326938 0.060206
vt 0.326938 0.060206
vt 0.234046 0.060206
vt 0.234046 0.060206
vt 0.234046 0.060206
vt 0.234046 0.060206
vt 0.326938 0.060206
vt 0.326938 0.060206
vt 0.326938 0.060206
vt 0.326938 0.060206
vt 0.234046 0.060206
vt 0.234046 0.060206
vt 0.234046 0.060206
vt 0.234046 0.060206
vt 0.326938 0.060206
vt 0.326938 0.060206
vt 0.326938 0.060206
vt 0.326938 0.060206
vt 0.228574 0.089677
vt 0.228574 0.089677
vt 0.228574 0.089677
vt 0.228574 0.089677
vt 0.203193 0.087794
vt 0.203193 0.087794
vt 0.203193 0.087794
vt 0.203193 0.087794
vt 0.172731 0.089677
vt 0.172731 0.089677
vt 0.172731 0.089677
vt 0.172731 0.089677
vt 0.203193 0.087794
vt 0.203193 0.087794
vt 0.203193 0.087794
vt 0.203193 0.087794
vt 0.262591 0.089677
vt 0.262591 0.089677
vt 0.262591 0.089677
vt 0.262591 0.089677
vt 0.228574 0.089677
vt 0.228574 0.089677
vt 0.228574 0.089677
vt 0.228574 0.089677
vt 0.203193 0.087794
vt 0.203193 0.087794
vt 0.203193 0.087794
vt 0.203193 0.087794
vt 0.172731 0.089677
vt 0.172731 0.089677
vt 0.172731 0.089677
vt 0.172731 0.089677
vt 0.203193 0.087794
vt 0.203193 0.087794
vt 0.203193 0.087794
vt 0.203193 0.087794
vt 0.262591 0.089677
vt 0.262591 0.089677
vt 0.262591 0.089677
vt 0.262591 0.089677
vt 0.262591 0.089677
vt 0.262591 0.089677
vt 0.262591 0.089677
vt 0.262591 0.089677
vt 0.262591 0.089677
vt 0.262591 0.089677
vt 0.262591 0.089677
vt 0.262591 0.089677
vt 0.203193 0.087794
vt 0.228574 0.089677
vt 0.228574 0.089677
vt 0.203193 0.087794
vt 0.228574 0.089677
vt 0.228574 0.089677
vt 0.203193 0.087794
vt 0.203193 0.087794
vt 0.228574 0.089677
vt 0.228574 0.089677
vt 0.228574 0.089677
vt 0.228574 0.089677
vt 0.203193 0.087794
vt 0.203193 0.087794
vt 0.203193 0.087794
vt 0.203193 0.087794
vt 0.292921 0.060206
vt 0.292921 0.060206
vt 0.292921 0.060206
vt 0.239337 0.066228
vt 0.239337 0.066228
vt 0.292921 0.060206
vt 0.292921 0.060206
vt 0.292921 0.060206
vt 0.292921 0.060206
vt 0.292921 0.060206
vt 0.292921 0.060206
vt 0.292921 0.060206
vt 0.292921 0.060206
vt 0.292921 0.060206
vt 0.292921 0.060206
vt 0.292921 0.060206
vt 0.292921 0.060206
vt 0.292921 0.060206
vt 0.292921 0.060206
vt 0.292921 0.060206
vt 0.292921 0.060206
vt 0.292921 0.060206
vt 0.292921 0.060206
vt 0.292921 0.060206
vt 0.292921 0.060206
vt 0.292921 0.060206
vt 0.292921 0.060206
vt 0.292921 0.060206
vt 0.292921 0.060206
vt 0.292921 0.060206
vt 0.292921 0.060206
vt 0.292921 0.060206
vt 0.292921 0.060206
vt 0.292921 0.060206
vt 0.292921 0.060206
vt 0.292921 0.060206
vt 0.292921 0.060206
vt 0.292921 0.060206
vt 0.292921 0.060206
vt 0.292921 0.060206
vt 0.292921 0.060206
vt 0.292921 0.060206
vt 0.292921 0.060206
vt 0.292921 0.060206
vt 0.292921 0.060206
vt 0.292921 0.060206
vt 0.234046 0.060206
vt 0.234046 0.060206
vt 0.292921 0.060206
vt 0.234046 0.060206
vt 0.292921 0.060206
vt 0.292921 0.060206
vt 0.234046 0.060206
vt 0.234046 0.060206
vt 0.234046 0.060206
vt 0.234046 0.060206
vt 0.292921 0.060206
vt 0.292921 0.060206
vt 0.292921 0.060206
vt 0.292921 0.060206
vt 0.234046 0.060206
vt 0.234046 0.060206
vt 0.239337 0.066228
vt 0.239337 0.066228
vt 0.261521 0.060206
vt 0.261521 0.060206
vt 0.261521 0.060206
vt 0.261521 0.060206
vt 0.261521 0.060206
vt 0.261521 0.060206
vt 0.261521 0.060206
vt 0.261521 0.060206
vt 0.261521 0.060206
vt 0.261521 0.060206
vt 0.261521 0.060206
vt 0.261521 0.060206
vt 0.261521 0.060206
vt 0.261521 0.060206
vt 0.261521 0.060206
vt 0.261521 0.060206
vt 0.261521 0.060206
vt 0.261521 0.060206
vt 0.261521 0.060206
vt 0.261521 0.060206
vt 0.261521 0.060206
vt 0.261521 0.060206
vt 0.261521 0.060206
vt 0.261521 0.060206
vt 0.261521 0.060206
vt 0.261521 0.060206
vt 0.261521 0.060206
vt 0.261521 0.060206
vt 0.261521 0.060206
vt 0.261521 0.060206
vt 0.261521 0.060206
vt 0.261521 0.060206
vt 0.261521 0.060206
vt 0.261521 0.060206
vt 0.261521 0.060206
vt 0.261521 0.060206
vt 0.261521 0.060206
vt 0.261521 0.060206
vt 0.261521 0.060206
vt 0.261521 0.060206
vt 0.261521 0.060206
vt 0.261521 0.060206
vt 0.202646 0.060206
vt 0.261521 0.060206
vt 0.261521 0.060206
vt 0.202646 0.060206
vt 0.202646 0.060206
vt 0.202646 0.060206
vt 0.261521 0.060206
vt 0.261521 0.060206
vt 0.202646 0.060206
vt 0.261521 0.060206
vt 0.261521 0.060206
vt 0.261521 0.060206
vt 0.202646 0.060206
vt 0.202646 0.060206
vt 0.202646 0.060206
vt 0.202646 0.060206
vt 0.261521 0.060206
vt 0.261521 0.060206
vt 0.202646 0.060206
vt 0.261521 0.060206
vt 0.202646 0.060206
vt 0.261521 0.060206
vt 0.202646 0.060206
vt 0.261521 0.060206
vt 0.292921 0.060206
vt 0.234046 0.060206
vt 0.292921 0.060206
vt 0.234046 0.060206
vt 0.292921 0.060206
vt 0.292921 0.060206
vt 0.292921 0.060206
vt 0.234046 0.060206
vt 0.261521 0.060206
vt 0.292921 0.060206
vt 0.234046 0.060206
vt 0.202646 0.060206
vt 0.202646 0.060206
vt 0.234046 0.060206
vt 0.234046 0.060206
vt 0.202646 0.060206
vt 0.261521 0.060206
vt 0.292921 0.060206
vt 0.234046 0.060206
vt 0.202646 0.060206
vt 0.202646 0.060206
vt 0.234046 0.060206
vt 0.234046 0.060206
vt 0.202646 0.060206
vt 0.261521 0.060206
vt 0.292921 0.060206
vt 0.234046 0.060206
vt 0.202646 0.060206
vt 0.202646 0.060206
vt 0.234046 0.060206
vt 0.234046 0.060206
vt 0.202646 0.060206
vt 0.292921 0.060206
vt 0.261521 0.060206
vt 0.234046 0.060206
vt 0.202646 0.060206
vt 0.261521 0.060206
vt 0.292921 0.060206
vt 0.292921 0.060206
vt 0.261521 0.060206
vt 0.292921 0.060206
vt 0.261521 0.060206
vt 0.234046 0.060206
vt 0.202646 0.060206
vt 0.261521 0.060206
vt 0.292921 0.060206
vt 0.292921 0.060206
vt 0.261521 0.060206
vt 0.292921 0.060206
vt 0.261521 0.060206
vt 0.234046 0.060206
vt 0.202646 0.060206
vt 0.261521 0.060206
vt 0.292921 0.060206
vt 0.292921 0.060206
vt 0.261521 0.060206
vt 0.228574 0.089677
vt 0.228574 0.089677
vt 0.172109 0.089677
vt 0.228574 0.089677
vt 0.228574 0.089677
vt 0.228574 0.089677
vt 0.228574 0.089677
vt 0.172109 0.089677
vt 0.172109 0.089677
vt 0.172109 0.089677
vt 0.172109 0.089677
vt 0.172109 0.089677
vt 0.172109 0.089677
vt 0.172109 0.089677
vt 0.292921 0.060206
vt 0.292921 0.060206
vt 0.261521 0.060206
vt 0.292921 0.060206
vt 0.261521 0.060206
vt 0.292921 0.060206
vt 0.265880 0.062081
vt 0.265880 0.062081
vt 0.265880 0.062081
vt 0.265880 0.062081
vn 0.000000 1.000000 0.000000
vn 0.000000 1.000000 0.000000
vn 0.000000 1.000000 0.000000
vn 0.000000 1.000000 0.000000
vn -0.000000 -1.000000 0.000000
vn -0.000000 -1.000000 0.000000
vn -0.000000 -1.000000 0.000000
vn -0.000000 -1.000000 0.000000
vn 0.000000 1.000000 0.000000
vn 0.000000 1.000000 0.000000
vn 0.000000 1.000000 0.000000
vn 0.000000 1.000000 0.000000
vn 0.000000 0.000000 1.000000
vn 0.000000 0.000000 1.000000
vn 0.000000 0.000000 1.000000
vn 0.000000 0.000000 1.000000
vn 1.000000 0.000000 0.000000
vn 1.000000 0.000000 0.000000
vn 1.000000 0.000000 0.000000
vn 1.000000 0.000000 0.000000
vn 0.000000 0.000000 -1.000000
vn 0.000000 0.000000 -1.000000
vn 0.000000 0.000000 -1.000000
vn 0.000000 0.000000 -1.000000
vn -1.000000 0.000000 0.000000
vn -1.000000 0.000000 0.000000
vn -1.000000 0.000000 0.000000
vn -1.000000 0.000000 0.000000
vn 0.000000 1.000000 0.000000
vn 0.000000 1.000000 0.000000
vn 0.000000 1.000000 0.000000
vn 0.000000 1.000000 0.000000
vn 0.000000 0.000000 1.000000
vn 0.000000 0.000000 1.000000
vn 0.000000 0.000000 1.000000
vn 0.000000 0.000000 1.000000
vn 1.000000 0.000000 0.000000
vn 1.000000 0.000000 0.000000
vn 1.000000 0.000000 0.000000
vn 1.000000 0.000000 0.000000
vn 0.000000 0.000000 -1.000000
vn 0.000000 0.000000 -1.000000
vn 0.000000 0.000000 -1.000000
vn 0.000000 0.000000 -1.000000
vn -1.000000 0.000000 0.000000
vn -1.000000 0.000000 0.000000
vn -1.000000 0.000000 0.000000
vn -1.000000 0.000000 0.000000
vn 0.000000 -1.000000 0.000000
vn 0.000000 -1.000000 0.000000
vn 0.000000 -1.000000 0.000000
vn 0.000000 -1.000000 0.000000
vn 0.000000 1.000000 0.000000
vn 0.000000 1.000000 0.000000
vn 0.000000 1.000000 0.000000
vn 0.000000 1.000000 0.000000
vn 0.000000 0.000000 1.000000
vn 0.000000 0.000000 1.000000
vn 0.000000 0.000000 1.000000
vn 0.000000 0.000000 1.000000
vn 1.000000 0.000000 0.000000
vn 1.000000 0.000000 0.000000
vn 1.000000 0.000000 0.000000
vn 1.000000 0.000000 0.000000
vn 0.000000 0.000000 -1.000000
vn 0.000000 0.000000 -1.000000
vn 0.000000 0.000000 -1.000000
vn 0.000000 0.000000 -1.000000
vn -1.000000 0.000000 0.000000
vn -1.000000 0.000000 0.000000
vn -1.000000 0.000000 0.000000
vn -1.000000 0.000000 0.000000
vn 0.000000 -1.000000 0.000000
vn 0.000000 -1.000000 0.000000
vn 0.000000 -1.000000 0.000000
vn 0.000000 -1.000000 0.000000
vn 0.000000 1.000000 0.000000
vn 0.000000 1.000000 0.000000
vn 0.000000 1.000000 0.000000
vn 0.000000 1.000000 0.000000
vn 0.000000 0.000000 1.000000
vn 0.000000 0.000000 1.000000
vn 0.000000 0.000000 1.000000
vn 0.000000 0.000000 1.000000
vn 1.000000 0.000000 0.000000
vn 1.000000 0.000000 0.000000
vn 1.000000 0.000000 0.000000
vn 1.000000 0.000000 0.000000
vn 0.000000 0.000000 -1.000000
vn 0.000000 0.000000 -1.000000
vn 0.000000 0.000000 -1.000000
vn 0.000000 0.000000 -1.000000
vn -1.000000 0.000000 0.000000
vn -1.000000 0.000000 0.000000
vn -1.000000 0.000000 0.000000
vn -1.000000 0.000000 0.000000
vn 0.000000 0.000000 1.000000
vn 0.000000 0.000000 1.000000
vn 0.000000 0.000000 1.000000
vn 0.000000 0.000000 1.000000
vn 1.000000 0.000000 0.000000
vn 1.000000 0.000000 0.000000
vn 1.000000 0.000000 0.000000
vn 1.000000 0.000000 0.000000
vn 0.000000 0.000000 -1.000000
vn 0.000000 0.000000 -1.000000
vn 0.000000 0.000000 -1.000000
vn 0.000000 0.000000 -1.000000
vn -1.000000 0.000000 0.000000
vn -1.000000 0.000000 0.000000
vn -1.000000 0.000000 0.000000
vn -1.000000 0.000000 0.000000
vn -1.000000 0.000000 0.000000
vn -1.000000 0.000000 0.000000
vn -1.000000 0.000000 0.000000
vn -1.000000 0.000000 0.000000
vn 0.000000 0.000000 1.000000
vn 0.000000 0.000000 1.000000
vn 0.000000 0.000000 1.000000
vn 0.000000 0.000000 1.000000
vn -1.000000 0.000000 0.000000
vn -1.000000 0.000000 0.000000
vn -1.000000 0.000000 0.000000
vn -1.000000 0.000000 0.000000
vn 0.000000 0.000000 1.000000
vn 0.000000 0.000000 1.000000
vn 0.000000 0.000000 1.000000
vn 0.000000 0.000000 1.000000
vn 1.000000 0.000000 0.000000
vn 1.000000 0.000000 0.000000
vn 1.000000 0.000000 0.000000
vn 1.000000 0.000000 0.000000
vn -1.000000 0.000000 0.000000
vn -1.000000 0.000000 0.000000
vn -1.000000 0.000000 0.000000
vn -1.000000 0.000000 0.000000
vn 0.000000 0.000000 1.000000
vn 0.000000 0.000000 1.000000
vn 0.000000 0.000000 1.000000
vn 0.000000 0.000000 1.000000
vn 0.000000 0.000000 1.000000
vn 0.000000 0.000000 1.000000
vn 0.000000 0.000000 1.000000
vn 0.000000 0.000000 1.000000
vn -1.000000 0.000000 0.000000
vn -1.000000 0.000000 0.000000
vn -1.000000 0.000000 0.000000
vn -1.000000 0.000000 0.000000
vn 0.000000 -1.000000 0.000000
vn 0.000000 -1.000000 0.000000
vn 0.000000 -1.000000 0.000000
vn 0.000000 -1.000000 0.000000
vn 1.000000 0.000000 0.000000
vn 1.000000 0.000000 0.000000
vn 1.000000 0.000000 0.000000
vn 1.000000 0.000000 0.000000
vn 0.000000 1.000000 0.000000
vn 0.000000 1.000000 0.000000
vn 0.000000 1.000000 0.000000
vn 0.000000 1.000000 0.000000
vn -1.000000 0.000000 0.000000
vn -1.000000 0.000000 0.000000
vn -1.000000 0.000000 0.000000
vn -1.000000 0.000000 0.000000
vn 0.000000 -1.000000 0.000000
vn 0.000000 -1.000000 0.000000
vn 0.000000 -1.000000 0.000000
vn 0.000000 -1.000000 0.000000
vn 1.000000 0.000000 0.000000
vn 1.000000 0.000000 0.000000
vn 1.000000 0.000000 0.000000
vn 1.000000 0.000000 0.000000
vn 0.000000 1.000000 0.000000
vn 0.000000 1.000000 0.000000
vn 0.000000 1.000000 0.000000
vn 0.000000 1.000000 0.000000
vn 0.000000 1.000000 0.000000
vn 0.000000 1.000000 0.000000
vn 0.000000 1.000000 0.000000
vn 0.000000 1.000000 0.000000
vn 0.000000 1.000000 0.000000
vn 0.000000 1.000000 0.000000
vn 0.000000 1.000000 0.000000
vn 0.000000 1.000000 0.000000
vn 1.000000 0.000000 0.000000
vn 1.000000 0.000000 0.000000
vn 1.000000 0.000000 0.000000
vn 1.000000 0.000000 0.000000
vn 0.000000 0.000000 -1.000000
vn 0.000000 0.000000 -1.000000
vn 0.000000 0.000000 -1.000000
vn 0.000000 0.000000 -1.000000
vn -1.000000 0.000000 0.000000
vn -1.000000 0.000000 0.000000
vn -1.000000 0.000000 0.000000
vn -1.000000 0.000000 0.000000
vn 0.000000 0.000000 1.000000
vn 0.000000 0.000000 1.000000
vn 0.000000 0.000000 1.000000
vn 0.000000 0.000000 1.000000
vn 1.000000 0.000000 0.000000
vn 1.000000 0.000000 0.000000
vn 1.000000 0.000000 0.000000
vn 1.000000 0.000000 0.000000
vn 0.000000 0.000000 -1.000000
vn 0.000000 0.000000 -1.000000
vn 0.000000 0.000000 -1.000000
vn 0.000000 0.000000 -1.000000
vn 1.000000 0.000000 0.000000
vn 1.000000 0.000000 0.000000
vn 1.000000 0.000000 0.000000
vn 1.000000 0.000000 0.000000
vn 0.000000 0.000000 -1.000000
vn 0.000000 0.000000 -1.000000
vn 0.000000 0.000000 -1.000000
vn 0.000000 0.000000 -1.000000
vn 0.000000 0.000000 -1.000000
vn 0.000000 0.000000 -1.000000
vn 0.000000 0.000000 -1.000000
vn 0.000000 0.000000 -1.000000
vn 0.000000 0.000000 1.000000
vn 0.000000 0.000000 1.000000
vn 0.000000 0.000000 1.000000
vn 0.000000 0.000000 1.000000
vn -1.000000 0.000000 0.000000
vn -1.000000 0.000000 0.000000
vn -1.000000 0.000000 0.000000
vn -1.000000 0.000000 0.000000
vn 0.000000 0.000000 -1.000000
vn 0.000000 0.000000 -1.000000
vn 0.000000 0.000000 -1.000000
vn 0.000000 0.000000 -1.000000
vn 1.000000 0.000000 0.000000
vn 1.000000 0.000000 0.000000
vn 1.000000 0.000000 0.000000
vn 1.000000 0.000000 0.000000
vn 0.000000 0.000000 1.000000
vn 0.000000 0.000000 1.000000
vn 0.000000 0.000000 1.000000
vn 0.000000 0.000000 1.000000
vn -1.000000 0.000000 0.000000
vn -1.000000 0.000000 0.000000
vn -1.000000 0.000000 0.000000
vn -1.000000 0.000000 0.000000
vn 0.000000 0.000000 -1.000000
vn 0.000000 0.000000 -1.000000
vn 0.000000 0.000000 -1.000000
vn 0.000000 0.000000 -1.000000
vn 1.000000 0.000000 0.000000
vn 1.000000 0.000000 0.000000
vn 1.000000 0.000000 0.000000
vn 1.000000 0.000000 0.000000
vn 0.000000 0.000000 1.000000
vn 0.000000 0.000000 1.000000
vn 0.000000 0.000000 1.000000
vn 0.000000 0.000000 1.000000
vn -1.000000 0.000000 0.000000
vn -1.000000 0.000000 0.000000
vn -1.000000 0.000000 0.000000
vn -1.000000 0.000000 0.000000
vn 0.000000 0.000000 -1.000000
vn 0.000000 0.000000 -1.000000
vn 0.000000 0.000000 -1.000000
vn 0.000000 0.000000 -1.000000
vn 1.000000 0.000000 0.000000
vn 1.000000 0.000000 0.000000
vn 1.000000 0.000000 0.000000
vn 1.000000 0.000000 0.000000
vn 0.000000 0.000000 1.000000
vn 0.000000 0.000000 1.000000
vn 0.000000 0.000000 1.000000
vn 0.000000 0.000000 1.000000
vn 0.000000 0.000000 1.000000
vn 0.000000 0.000000 1.000000
vn 0.000000 0.000000 1.000000
vn 0.000000 0.000000 1.000000
vn 0.000000 0.000000 1.000000
vn 0.000000 0.000000 1.000000
vn 0.000000 0.000000 1.000000
vn 0.000000 0.000000 1.000000
vn 0.000000 0.000000 1.000000
vn 0.000000 0.000000 1.000000
vn 0.000000 0.000000 1.000000
vn 0.000000 0.000000 1.000000
vn 0.000000 0.000000 1.000000
vn 0.000000 0.000000 1.000000
vn 1.000000 0.000000 0.000000
vn 1.000000 0.000000 0.000000
vn 1.000000 0.000000 0.000000
vn 1.000000 0.000000 0.000000
vn 0.000000 1.000000 0.000000
vn 0.000000 1.000000 0.000000
vn 0.000000 1.000000 0.000000
vn 0.000000 1.000000 0.000000
vn -1.000000 0.000000 0.000000
vn -1.000000 0.000000 0.000000
vn -1.000000 0.000000 0.000000
vn -1.000000 0.000000 0.000000
vn 0.000000 -1.000000 0.000000
vn 0.000000 -1.000000 0.000000
vn 0.000000 -1.000000 0.000000
vn 0.000000 -1.000000 0.000000
vn 0.000000 0.000000 1.000000
vn 0.000000 0.000000 1.000000
vn 0.000000 0.000000 1.000000
vn 0.000000 0.000000 1.000000
vn -1.000000 0.000000 -0.000000
vn -1.000000 0.000000 -0.000000
vn -1.000000 0.000000 -0.000000
vn -1.000000 0.000000 -0.000000
vn 0.000000 0.000000 -1.000000
vn 0.000000 0.000000 -1.000000
vn 0.000000 0.000000 -1.000000
vn 0.000000 0.000000 -1.000000
vn 1.000000 -0.000000 0.000000
vn 1.000000 -0.000000 0.000000
vn 1.000000 -0.000000 0.000000
vn 1.000000 -0.000000 0.000000
s off
f 1/3/1 2/2/2 5/1/3 3/4/4
f 4/156/5 108/155/6 106/96/7 107/97/8
f 12/5/9 8/6/10 6/7/11 7/8/12
f 10/99/13 9/100/14 6/101/15 8/102/16
f 9/159/17 11/160/18 7/161/19 6/162/20
f 7/103/21 11/104/22 13/105/23 12/106/24
f 13/163/25 10/164/26 8/165/27 12/166/28
f 20/9/29 16/10/30 14/11/31 15/12/32
f 18/107/33 17/108/34 14/109/35 16/110/36
f 17/167/37 19/168/38 15/169/39 14/170/40
f 15/111/41 19/112/42 21/113/43 20/114/44
f 21/171/45 18/172/46 16/173/47 20/174/48
f 17/13/49 18/14/50 21/15/51 19/16/52
f 22/17/53 23/18/54 28/19/55 24/20/56
f 26/115/57 25/116/58 22/117/59 24/118/60
f 25/175/61 27/176/62 23/177/63 22/178/64
f 23/119/65 27/120/66 29/121/67 28/122/68
f 29/179/69 26/180/70 24/181/71 28/182/72
f 29/21/73 27/22/74 25/23/75 26/24/76
f 36/25/77 32/26/78 30/27/79 31/28/80
f 34/123/81 33/124/82 30/125/83 32/126/84
f 30/183/85 33/184/86 35/185/87 31/186/88
f 35/127/89 37/128/90 36/129/91 31/130/92
f 37/187/93 34/188/94 32/189/95 36/190/96
f 42/131/97 41/132/98 38/133/99 40/134/100
f 41/191/101 43/192/102 39/193/103 38/194/104
f 39/135/105 43/136/106 45/137/107 44/138/108
f 45/195/109 42/196/110 40/197/111 44/198/112
f 91/270/113 92/267/114 60/201/115 61/218/116
f 90/240/117 91/269/118 61/229/119 58/141/120
f 95/262/121 96/259/122 52/200/123 53/222/124
f 94/248/125 95/261/126 53/227/127 50/228/128
f 89/272/129 86/231/130 49/209/131 48/210/132
f 87/278/133 88/275/134 46/205/135 47/206/136
f 86/232/137 87/277/138 47/143/139 49/144/140
f 63/29/141 64/30/142 62/31/143 65/32/144
f 64/33/145 63/34/146 66/35/147 67/36/148
f 62/37/149 64/38/150 67/39/151 68/40/152
f 65/41/153 62/42/154 68/43/155 69/44/156
f 63/45/157 65/46/158 69/47/159 66/48/160
f 72/53/161 71/54/162 74/55/163 75/56/164
f 75/57/165 76/58/166 70/59/167 72/60/168
f 73/61/169 70/62/170 76/63/171 77/64/172
f 81/65/173 73/66/174 77/67/175 80/68/176
f 71/69/177 79/70/178 78/71/179 74/72/180
f 83/73/181 82/74/182 84/75/183 85/76/184
f 81/77/185 80/80/186 82/83/187 83/84/188
f 80/78/189 78/81/190 84/82/191 82/79/192
f 78/89/193 79/90/194 85/91/195 84/92/196
f 79/280/197 81/279/198 83/85/199 85/86/200
f 93/264/201 90/239/202 58/208/203 59/220/204
f 92/268/205 93/263/206 59/225/207 60/149/208
f 97/256/209 94/247/210 50/215/211 51/216/212
f 96/260/213 97/255/214 51/223/215 52/150/216
f 88/276/217 89/271/218 48/151/219 46/152/220
f 61/140/221 87/233/222 86/273/223 58/230/224
f 61/202/225 60/217/226 88/235/227 87/234/228
f 59/148/229 89/237/230 88/236/231 60/226/232
f 59/207/233 58/219/234 86/274/235 89/238/236
f 53/139/237 91/241/238 90/265/239 50/142/240
f 53/199/241 52/221/242 92/243/243 91/242/244
f 51/147/245 93/245/246 92/244/247 52/224/248
f 51/211/249 50/212/250 90/266/251 93/246/252
f 54/145/253 57/146/254 95/249/255 94/257/256
f 57/203/257 56/204/258 96/251/259 95/250/260
f 56/153/261 55/154/262 97/253/263 96/252/264
f 55/213/265 54/214/266 94/258/267 97/254/268
f 71/87/269 72/49/270 99/282/271 98/285/272
f 72/49/273 70/50/274 100/283/275 99/282/276
f 70/50/277 73/88/278 101/284/279 100/283/280
f 98/285/281 101/284/282 73/88/283 81/51/284 79/52/285 71/87/286
f 98/281/287 99/288/288 103/290/289 102/289/290
f 99/288/291 100/287/292 104/291/293 103/290/294
f 100/287/295 101/286/296 105/292/297 104/291/298
f 101/286/299 98/281/300 102/289/301 105/292/302
f 107/294/303 106/293/304 1/93/305 3/94/306
f 4/297/307 107/295/308 3/157/309 5/158/310
f 2/95/311 108/298/312 4/296/313 5/98/314
f 106/299/315 108/300/316 2/301/317 1/302/318
