# This file uses meters as units for non-parametric coordinates.

v -0.173613 -8.260930 0.220101
v 0.173613 -8.260930 0.220101
v -0.173613 0.168610 0.190112
v 0.173613 0.168610 0.190112
v -0.173613 0.297461 -0.168764
v 0.173613 0.297461 -0.168764
v -0.173613 -8.260930 -0.298458
v 0.173613 -8.260930 -0.298458
vt 0.736822 0.532649
vt 0.736822 0.532649
vt 0.736822 0.532649
vt 0.736822 0.532649
vt 0.736822 0.532649
vt 0.736822 0.532649
vt 0.736822 0.532649
vt 0.736822 0.532649
vt 0.736822 0.532649
vt 0.736822 0.532649
vt 0.736822 0.532649
vt 0.736822 0.532649
vt 0.736822 0.532649
vt 0.736822 0.532649
vt 0.736822 0.532649
vt 0.736822 0.532649
vt 0.736822 0.532649
vt 0.736822 0.532649
vt 0.736822 0.532649
vt 0.736822 0.532649
vt 0.736822 0.532649
vt 0.736822 0.532649
vt 0.736822 0.532649
vt 0.736822 0.532649
vn 0.000000 0.003558 0.999994
vn 0.000000 0.003558 0.999994
vn 0.000000 0.003558 0.999994
vn 0.000000 0.003558 0.999994
vn 0.000000 0.941175 0.337920
vn 0.000000 0.941175 0.337920
vn 0.000000 0.941175 0.337920
vn 0.000000 0.941175 0.337920
vn 0.000000 0.015152 -0.999885
vn 0.000000 0.015152 -0.999885
vn 0.000000 0.015152 -0.999885
vn 0.000000 0.015152 -0.999885
vn 0.000000 -1.000000 0.000000
vn 0.000000 -1.000000 0.000000
vn 0.000000 -1.000000 0.000000
vn 0.000000 -1.000000 0.000000
vn 1.000000 0.000000 0.000000
vn 1.000000 0.000000 0.000000
vn 1.000000 0.000000 0.000000
vn 1.000000 0.000000 0.000000
vn -1.000000 0.000000 0.000000
vn -1.000000 0.000000 0.000000
vn -1.000000 0.000000 0.000000
vn -1.000000 0.000000 0.000000
s off
f 1/24/1 2/2/2 4/21/3 3/17/4
f 3/3/5 4/15/6 6/6/7 5/18/8
f 5/5/9 6/16/10 8/8/11 7/20/12
f 7/7/13 8/19/14 2/10/15 1/9/16
f 2/23/17 8/11/18 6/12/19 4/4/20
f 7/13/21 1/1/22 3/22/23 5/14/24
