# This file uses meters as units for non-parametric coordinates.

v -1.801644 0.000000 0.943857
v -1.550683 0.000000 0.943857
v -1.801644 1.435660 0.943857
v -1.550683 1.435660 0.943857
v -1.801644 1.435660 0.692899
v -1.550683 1.435660 0.692899
v -1.801644 0.000000 0.692899
v -1.550683 0.000000 0.692899
v 1.550679 0.000000 0.943857
v 1.801636 0.000000 0.943857
v 1.550679 1.435660 0.943857
v 1.801636 1.435660 0.943857
v 1.550679 1.435660 0.692899
v 1.801636 1.435660 0.692899
v 1.550679 0.000000 0.692899
v 1.801636 0.000000 0.692899
v 1.550679 0.000000 -0.692899
v 1.801636 0.000000 -0.692899
v 1.550679 1.435660 -0.692899
v 1.801636 1.435660 -0.692899
v 1.550679 1.435660 -0.943857
v 1.801636 1.435660 -0.943857
v 1.550679 0.000000 -0.943857
v 1.801636 0.000000 -0.943857
v -1.801644 0.000000 -0.692899
v -1.550683 0.000000 -0.692899
v -1.801644 1.435660 -0.692899
v -1.550683 1.435660 -0.692899
v -1.801644 1.435660 -0.943857
v -1.550683 1.435660 -0.943857
v -1.801644 0.000000 -0.943857
v -1.550683 0.000000 -0.943857
v -1.676163 1.119174 0.818378
v 1.676159 1.119174 0.818378
v -1.676163 1.435660 0.818378
v 1.676159 1.435660 0.818378
v -1.676163 1.435660 -0.818378
v 1.676159 1.435660 -0.818378
v -1.676163 1.119174 -0.818378
v 1.676159 1.119174 -0.818378
v -1.966373 1.435660 0.963076
v 1.966373 1.435660 0.963076
v -1.966373 1.619148 0.963076
v 1.966373 1.619148 0.963076
v -1.966373 1.619148 -0.963076
v 1.966373 1.619148 -0.963076
v -1.966373 1.435660 -0.963076
v 1.966373 1.435660 -0.963076
v -1.966373 1.619148 -0.014251
v 1.966373 1.619148 -0.014251
v 1.966373 1.435660 -0.014251
v -1.966373 1.435660 -0.014251
v -1.966373 1.619148 0.064393
v 1.966373 1.619148 0.064394
v 1.966373 1.435660 0.064393
v -1.966373 1.435660 0.064394
v -1.966373 1.619148 0.461350
v 1.966373 1.619148 0.461350
v 1.966373 1.435660 0.461350
v -1.966373 1.435660 0.461350
v -1.966373 1.619148 0.548890
v 1.966373 1.619148 0.548890
v 1.966373 1.435660 0.548890
v -1.966373 1.435660 0.548890
v 1.966373 1.435660 -0.455967
v 1.966373 1.619148 -0.455967
v -1.966373 1.619148 -0.455967
v -1.966373 1.435660 -0.455967
v 1.966373 1.435660 -0.543178
v 1.966373 1.619148 -0.543178
v -1.966373 1.619148 -0.543178
v -1.966373 1.435660 -0.543178
vt 0.204141 0.510567
vt 0.204141 0.510567
vt 0.204141 0.510567
vt 0.204141 0.510567
vt 0.204141 0.510567
vt 0.204141 0.510567
vt 0.204141 0.510567
vt 0.204141 0.510567
vt 0.140777 0.510567
vt 0.140777 0.510567
vt 0.140777 0.510567
vt 0.140777 0.510567
vt 0.174367 0.510567
vt 0.174367 0.510567
vt 0.174367 0.510567
vt 0.174367 0.510567
vt 0.174368 0.510567
vt 0.174368 0.510567
vt 0.174368 0.510567
vt 0.174368 0.510567
vt 0.204141 0.510567
vt 0.204141 0.510567
vt 0.204141 0.510567
vt 0.204141 0.510567
vt 0.204141 0.510567
vt 0.204141 0.510567
vt 0.204141 0.510567
vt 0.204141 0.510567
vt 0.140777 0.510567
vt 0.140777 0.510567
vt 0.140777 0.510567
vt 0.140777 0.510567
vt 0.174367 0.510567
vt 0.174367 0.510567
vt 0.174367 0.510567
vt 0.174367 0.510567
vt 0.174368 0.510567
vt 0.174368 0.510567
vt 0.174368 0.510567
vt 0.174368 0.510567
vt 0.204141 0.510567
vt 0.204141 0.510567
vt 0.204141 0.510567
vt 0.204141 0.510567
vt 0.204141 0.510567
vt 0.204141 0.510567
vt 0.204141 0.510567
vt 0.204141 0.510567
vt 0.140777 0.510567
vt 0.140777 0.510567
vt 0.140777 0.510567
vt 0.140777 0.510567
vt 0.174367 0.510567
vt 0.174367 0.510567
vt 0.174367 0.510567
vt 0.174367 0.510567
vt 0.174368 0.510567
vt 0.174368 0.510567
vt 0.174368 0.510567
vt 0.174368 0.510567
vt 0.204141 0.510567
vt 0.204141 0.510567
vt 0.204141 0.510567
vt 0.204141 0.510567
vt 0.204141 0.510567
vt 0.204141 0.510567
vt 0.204141 0.510567
vt 0.204141 0.510567
vt 0.140777 0.510567
vt 0.140777 0.510567
vt 0.140777 0.510567
vt 0.140777 0.510567
vt 0.174367 0.510567
vt 0.174367 0.510567
vt 0.174367 0.510567
vt 0.174367 0.510567
vt 0.174368 0.510567
vt 0.174368 0.510567
vt 0.174368 0.510567
vt 0.174368 0.510567
vt 0.233948 0.511240
vt 0.233948 0.511240
vt 0.233948 0.511240
vt 0.233948 0.511240
vt 0.233948 0.511240
vt 0.233948 0.511240
vt 0.233948 0.511240
vt 0.233948 0.511240
vt 0.170584 0.511240
vt 0.170584 0.511240
vt 0.170584 0.511240
vt 0.170584 0.511240
vt 0.204174 0.511240
vt 0.204174 0.511240
vt 0.204174 0.511240
vt 0.204174 0.511240
vt 0.204174 0.511240
vt 0.204174 0.511240
vt 0.204174 0.511240
vt 0.204174 0.511240
vt 0.270972 0.512838
vt 0.270972 0.512838
vt 0.270972 0.512838
vt 0.270972 0.512838
vt 0.301429 0.512838
vt 0.301429 0.512838
vt 0.301429 0.512838
vt 0.301429 0.512838
vt 0.270972 0.512838
vt 0.270972 0.512838
vt 0.270972 0.512838
vt 0.270972 0.512838
vt 0.207607 0.512838
vt 0.207607 0.512838
vt 0.207607 0.512838
vt 0.207607 0.512838
vt 0.241198 0.512838
vt 0.241198 0.512838
vt 0.241198 0.512838
vt 0.241198 0.512838
vt 0.241198 0.512838
vt 0.241198 0.512838
vt 0.241198 0.512838
vt 0.241198 0.512838
vt 0.231420 0.512838
vt 0.231420 0.512838
vt 0.231420 0.512838
vt 0.231420 0.512838
vt 0.171188 0.512838
vt 0.171188 0.512838
vt 0.171188 0.512838
vt 0.171188 0.512838
vt 0.137598 0.512838
vt 0.137598 0.512838
vt 0.137598 0.512838
vt 0.137598 0.512838
vt 0.171188 0.512838
vt 0.171188 0.512838
vt 0.171188 0.512838
vt 0.171188 0.512838
vt 0.301429 0.512838
vt 0.301429 0.512838
vt 0.301429 0.512838
vt 0.301429 0.512838
vt 0.241198 0.512838
vt 0.241198 0.512838
vt 0.241198 0.512838
vt 0.241198 0.512838
vt 0.207607 0.512838
vt 0.207607 0.512838
vt 0.207607 0.512838
vt 0.207607 0.512838
vt 0.241198 0.512838
vt 0.241198 0.512838
vt 0.241198 0.512838
vt 0.241198 0.512838
vt 0.231420 0.512838
vt 0.231420 0.512838
vt 0.231420 0.512838
vt 0.231420 0.512838
vt 0.171188 0.512838
vt 0.171188 0.512838
vt 0.171188 0.512838
vt 0.171188 0.512838
vt 0.137598 0.512838
vt 0.137598 0.512838
vt 0.137598 0.512838
vt 0.137598 0.512838
vt 0.171188 0.512838
vt 0.171188 0.512838
vt 0.171188 0.512838
vt 0.171188 0.512838
vt 0.301429 0.512838
vt 0.301429 0.512838
vt 0.301429 0.512838
vt 0.301429 0.512838
vt 0.241198 0.512838
vt 0.241198 0.512838
vt 0.241198 0.512838
vt 0.241198 0.512838
vt 0.207607 0.512838
vt 0.207607 0.512838
vt 0.207607 0.512838
vt 0.207607 0.512838
vt 0.241198 0.512838
vt 0.241198 0.512838
vt 0.241198 0.512838
vt 0.241198 0.512838
vt 0.171188 0.512838
vt 0.171188 0.512838
vt 0.171188 0.512838
vt 0.171188 0.512838
vt 0.231420 0.512838
vt 0.231420 0.512838
vt 0.231420 0.512838
vt 0.231420 0.512838
vt 0.171188 0.512838
vt 0.171188 0.512838
vt 0.171188 0.512838
vt 0.171188 0.512838
vt 0.137598 0.512838
vt 0.137598 0.512838
vt 0.137598 0.512838
vt 0.137598 0.512838
vt 0.241198 0.512838
vt 0.241198 0.512838
vt 0.241198 0.512838
vt 0.241198 0.512838
vt 0.301429 0.512838
vt 0.301429 0.512838
vt 0.301429 0.512838
vt 0.301429 0.512838
vt 0.241198 0.512838
vt 0.241198 0.512838
vt 0.241198 0.512838
vt 0.241198 0.512838
vt 0.207607 0.512838
vt 0.207607 0.512838
vt 0.207607 0.512838
vt 0.207607 0.512838
vn 0.000000 0.000000 1.000000
vn 0.000000 0.000000 1.000000
vn 0.000000 0.000000 1.000000
vn 0.000000 0.000000 1.000000
vn 0.000000 0.000000 -1.000000
vn 0.000000 0.000000 -1.000000
vn 0.000000 0.000000 -1.000000
vn 0.000000 0.000000 -1.000000
vn 0.000000 -1.000000 0.000000
vn 0.000000 -1.000000 0.000000
vn 0.000000 -1.000000 0.000000
vn 0.000000 -1.000000 0.000000
vn 1.000000 0.000000 0.000000
vn 1.000000 0.000000 0.000000
vn 1.000000 0.000000 0.000000
vn 1.000000 0.000000 0.000000
vn -1.000000 0.000000 0.000000
vn -1.000000 0.000000 0.000000
vn -1.000000 0.000000 0.000000
vn -1.000000 0.000000 0.000000
vn 0.000000 0.000000 1.000000
vn 0.000000 0.000000 1.000000
vn 0.000000 0.000000 1.000000
vn 0.000000 0.000000 1.000000
vn 0.000000 0.000000 -1.000000
vn 0.000000 0.000000 -1.000000
vn 0.000000 0.000000 -1.000000
vn 0.000000 0.000000 -1.000000
vn 0.000000 -1.000000 0.000000
vn 0.000000 -1.000000 0.000000
vn 0.000000 -1.000000 0.000000
vn 0.000000 -1.000000 0.000000
vn 1.000000 0.000000 0.000000
vn 1.000000 0.000000 0.000000
vn 1.000000 0.000000 0.000000
vn 1.000000 0.000000 0.000000
vn -1.000000 0.000000 0.000000
vn -1.000000 0.000000 0.000000
vn -1.000000 0.000000 0.000000
vn -1.000000 0.000000 0.000000
vn 0.000000 0.000000 1.000000
vn 0.000000 0.000000 1.000000
vn 0.000000 0.000000 1.000000
vn 0.000000 0.000000 1.000000
vn 0.000000 0.000000 -1.000000
vn 0.000000 0.000000 -1.000000
vn 0.000000 0.000000 -1.000000
vn 0.000000 0.000000 -1.000000
vn 0.000000 -1.000000 0.000000
vn 0.000000 -1.000000 0.000000
vn 0.000000 -1.000000 0.000000
vn 0.000000 -1.000000 0.000000
vn 1.000000 0.000000 0.000000
vn 1.000000 0.000000 0.000000
vn 1.000000 0.000000 0.000000
vn 1.000000 0.000000 0.000000
vn -1.000000 0.000000 0.000000
vn -1.000000 0.000000 0.000000
vn -1.000000 0.000000 0.000000
vn -1.000000 0.000000 0.000000
vn 0.000000 0.000000 1.000000
vn 0.000000 0.000000 1.000000
vn 0.000000 0.000000 1.000000
vn 0.000000 0.000000 1.000000
vn 0.000000 0.000000 -1.000000
vn 0.000000 0.000000 -1.000000
vn 0.000000 0.000000 -1.000000
vn 0.000000 0.000000 -1.000000
vn 0.000000 -1.000000 0.000000
vn 0.000000 -1.000000 0.000000
vn 0.000000 -1.000000 0.000000
vn 0.000000 -1.000000 0.000000
vn 1.000000 0.000000 0.000000
vn 1.000000 0.000000 0.000000
vn 1.000000 0.000000 0.000000
vn 1.000000 0.000000 0.000000
vn -1.000000 0.000000 0.000000
vn -1.000000 0.000000 0.000000
vn -1.000000 0.000000 0.000000
vn -1.000000 0.000000 0.000000
vn 0.000000 0.000000 1.000000
vn 0.000000 0.000000 1.000000
vn 0.000000 0.000000 1.000000
vn 0.000000 0.000000 1.000000
vn 0.000000 0.000000 -1.000000
vn 0.000000 0.000000 -1.000000
vn 0.000000 0.000000 -1.000000
vn 0.000000 0.000000 -1.000000
vn 0.000000 -1.000000 0.000000
vn 0.000000 -1.000000 0.000000
vn 0.000000 -1.000000 0.000000
vn 0.000000 -1.000000 0.000000
vn 1.000000 0.000000 0.000000
vn 1.000000 0.000000 0.000000
vn 1.000000 0.000000 0.000000
vn 1.000000 0.000000 0.000000
vn -1.000000 0.000000 0.000000
vn -1.000000 0.000000 0.000000
vn -1.000000 0.000000 0.000000
vn -1.000000 0.000000 0.000000
vn 0.000000 0.000000 1.000000
vn 0.000000 0.000000 1.000000
vn 0.000000 0.000000 1.000000
vn 0.000000 0.000000 1.000000
vn 0.000000 1.000000 0.000000
vn 0.000000 1.000000 0.000000
vn 0.000000 1.000000 0.000000
vn 0.000000 1.000000 0.000000
vn 0.000000 0.000000 -1.000000
vn 0.000000 0.000000 -1.000000
vn 0.000000 0.000000 -1.000000
vn 0.000000 0.000000 -1.000000
vn 0.000000 -1.000000 0.000000
vn 0.000000 -1.000000 0.000000
vn 0.000000 -1.000000 0.000000
vn 0.000000 -1.000000 0.000000
vn 1.000000 -0.000001 0.000000
vn 1.000000 -0.000001 0.000000
vn 1.000000 -0.000001 0.000000
vn 1.000000 -0.000001 0.000000
vn -1.000000 0.000001 0.000000
vn -1.000000 0.000001 0.000000
vn -1.000000 0.000001 0.000000
vn -1.000000 0.000001 0.000000
vn 0.000000 1.000000 0.000000
vn 0.000000 1.000000 0.000000
vn 0.000000 1.000000 0.000000
vn 0.000000 1.000000 0.000000
vn 1.000000 0.000000 0.000000
vn 1.000000 0.000000 0.000000
vn 1.000000 -0.000001 0.000000
vn 1.000000 -0.000001 0.000000
vn 0.000000 -1.000000 0.000000
vn 0.000000 -1.000000 0.000000
vn 0.000000 -1.000000 0.000000
vn 0.000000 -1.000000 0.000000
vn -1.000000 0.000001 0.000000
vn -1.000000 0.000001 0.000000
vn -1.000000 0.000000 0.000000
vn -1.000000 0.000000 0.000000
vn 0.000000 1.000000 0.000000
vn 0.000000 1.000000 0.000000
vn 0.000000 1.000000 0.000000
vn 0.000000 1.000000 0.000000
vn 1.000000 0.000000 0.000000
vn 1.000000 0.000000 0.000000
vn 1.000000 0.000000 0.000000
vn 1.000000 0.000000 0.000000
vn 0.000000 -1.000000 0.000000
vn 0.000000 -1.000000 0.000000
vn 0.000000 -1.000000 0.000000
vn 0.000000 -1.000000 0.000000
vn -1.000000 0.000000 0.000000
vn -1.000000 0.000000 0.000000
vn -1.000000 0.000000 0.000000
vn -1.000000 0.000000 0.000000
vn 0.000000 1.000000 0.000000
vn 0.000000 1.000000 0.000000
vn 0.000000 1.000000 0.000000
vn 0.000000 1.000000 0.000000
vn 1.000000 0.000000 0.000000
vn 1.000000 0.000000 0.000000
vn 1.000000 0.000000 0.000000
vn 1.000000 0.000000 0.000000
vn 0.000000 -1.000000 0.000000
vn 0.000000 -1.000000 0.000000
vn 0.000000 -1.000000 0.000000
vn 0.000000 -1.000000 0.000000
vn -1.000000 0.000000 0.000000
vn -1.000000 0.000000 0.000000
vn -1.000000 0.000000 0.000000
vn -1.000000 0.000000 0.000000
vn 0.000000 1.000000 0.000000
vn 0.000000 1.000000 0.000000
vn 0.000000 1.000000 0.000000
vn 0.000000 1.000000 0.000000
vn 1.000000 0.000000 0.000000
vn 1.000000 0.000000 0.000000
vn 1.000000 0.000000 0.000000
vn 1.000000 0.000000 0.000000
vn 0.000000 -1.000000 0.000000
vn 0.000000 -1.000000 0.000000
vn 0.000000 -1.000000 0.000000
vn 0.000000 -1.000000 0.000000
vn -1.000000 0.000000 0.000000
vn -1.000000 0.000000 0.000000
vn -1.000000 0.000000 0.000000
vn -1.000000 0.000000 0.000000
vn 1.000000 -0.000001 0.000000
vn 1.000000 -0.000001 0.000000
vn 1.000000 0.000000 0.000000
vn 1.000000 0.000000 0.000000
vn 0.000000 1.000000 0.000000
vn 0.000000 1.000000 0.000000
vn 0.000000 1.000000 0.000000
vn 0.000000 1.000000 0.000000
vn -1.000000 0.000000 0.000000
vn -1.000000 0.000000 0.000000
vn -1.000000 0.000001 0.000000
vn -1.000000 0.000001 0.000000
vn 0.000000 -1.000000 0.000000
vn 0.000000 -1.000000 0.000000
vn 0.000000 -1.000000 0.000000
vn 0.000000 -1.000000 0.000000
vn 1.000000 0.000000 0.000000
vn 1.000000 0.000000 0.000000
vn 1.000000 0.000000 0.000000
vn 1.000000 0.000000 0.000000
vn 0.000000 1.000000 0.000000
vn 0.000000 1.000000 0.000000
vn 0.000000 1.000000 0.000000
vn 0.000000 1.000000 0.000000
vn -1.000000 0.000000 0.000000
vn -1.000000 0.000000 0.000000
vn -1.000000 0.000000 0.000000
vn -1.000000 0.000000 0.000000
vn 0.000000 -1.000000 0.000000
vn 0.000000 -1.000000 0.000000
vn 0.000000 -1.000000 0.000000
vn 0.000000 -1.000000 0.000000
s off
f 1/1/1 2/2/2 4/3/3 3/4/4
f 5/5/5 6/6/6 8/7/7 7/8/8
f 7/9/9 8/10/10 2/11/11 1/12/12
f 2/13/13 8/14/14 6/15/15 4/16/16
f 7/17/17 1/18/18 3/19/19 5/20/20
f 9/21/21 10/22/22 12/23/23 11/24/24
f 13/25/25 14/26/26 16/27/27 15/28/28
f 15/29/29 16/30/30 10/31/31 9/32/32
f 10/33/33 16/34/34 14/35/35 12/36/36
f 15/37/37 9/38/38 11/39/39 13/40/40
f 17/41/41 18/42/42 20/43/43 19/44/44
f 21/45/45 22/46/46 24/47/47 23/48/48
f 23/49/49 24/50/50 18/51/51 17/52/52
f 18/53/53 24/54/54 22/55/55 20/56/56
f 23/57/57 17/58/58 19/59/59 21/60/60
f 25/61/61 26/62/62 28/63/63 27/64/64
f 29/65/65 30/66/66 32/67/67 31/68/68
f 31/69/69 32/70/70 26/71/71 25/72/72
f 26/73/73 32/74/74 30/75/75 28/76/76
f 31/77/77 25/78/78 27/79/79 29/80/80
f 33/81/81 34/82/82 36/83/83 35/84/84
f 37/85/85 38/86/86 40/87/87 39/88/88
f 39/89/89 40/90/90 34/91/91 33/92/92
f 34/93/93 40/94/94 38/95/95 36/96/96
f 39/97/97 33/98/98 35/99/99 37/100/100
f 41/101/101 42/102/102 44/103/103 43/104/104
f 49/105/105 50/106/106 66/107/107 67/108/108
f 45/109/109 46/110/110 48/111/111 47/112/112
f 68/113/113 65/114/114 51/115/115 52/116/116
f 50/117/117 51/118/118 65/119/119 66/120/120
f 67/121/121 68/122/122 52/123/123 49/124/124
f 53/125/125 54/126/126 50/127/127 49/128/128
f 54/129/129 55/130/130 51/131/131 50/132/132
f 52/133/133 51/134/134 55/135/135 56/136/136
f 49/137/137 52/138/138 56/139/139 53/140/140
f 57/141/141 58/142/142 54/143/143 53/144/144
f 58/145/145 59/146/146 55/147/147 54/148/148
f 56/149/149 55/150/150 59/151/151 60/152/152
f 53/153/153 56/154/154 60/155/155 57/156/156
f 61/157/157 62/158/158 58/159/159 57/160/160
f 62/161/161 63/162/162 59/163/163 58/164/164
f 60/165/165 59/166/166 63/167/167 64/168/168
f 57/169/169 60/170/170 64/171/171 61/172/172
f 43/173/173 44/174/174 62/175/175 61/176/176
f 42/177/177 63/178/178 62/179/179 44/180/180
f 64/181/181 63/182/182 42/183/183 41/184/184
f 61/185/185 64/186/186 41/187/187 43/188/188
f 66/189/189 65/190/190 69/191/191 70/192/192
f 67/193/193 66/194/194 70/195/195 71/196/196
f 71/197/197 72/198/198 68/199/199 67/200/200
f 72/201/201 69/202/202 65/203/203 68/204/204
f 70/205/205 69/206/206 48/207/207 46/208/208
f 71/209/209 70/210/210 46/211/211 45/212/212
f 47/213/213 72/214/214 71/215/215 45/216/216
f 47/217/217 48/218/218 69/219/219 72/220/220
