# This file uses meters as units for non-parametric coordinates.

v 0.252702 0.000000 0.474145
v 0.875178 0.000000 0.474145
v 0.252702 0.143448 0.474145
v 0.875178 0.143448 0.474145
v 0.291895 0.143448 -0.525855
v 0.875178 0.143448 -0.525855
v 0.291895 0.000000 -0.525855
v 0.875178 0.000000 -0.525855
v 0.875178 0.143448 -0.025855
v 0.875178 0.000000 -0.025855
v 0.091925 0.000000 -0.025855
v 0.091925 0.143448 -0.025855
v -0.547521 0.000000 0.723460
v 0.152572 0.000000 0.480667
v -0.547521 0.143448 0.723460
v 0.152572 0.143448 0.480667
v -0.875178 0.143448 -0.221337
v -0.138056 0.143448 -0.476971
v -0.875178 0.000000 -0.221337
v -0.138056 0.000000 -0.476971
v -0.163158 0.143448 0.060948
v -0.163158 0.000000 0.060948
v -0.711349 0.000000 0.251062
v -0.711349 0.143448 0.251062
v 0.252702 0.143448 0.186795
v 0.875178 0.143448 0.186795
v 0.875178 0.000000 0.186795
v 0.252702 0.000000 0.186795
v -0.643870 0.000000 0.445639
v -0.643870 0.143448 0.445639
v 0.056223 0.143448 0.202846
v 0.056223 0.000000 0.202846
v -0.390546 0.000000 1.353781
v -0.287345 0.000000 1.033547
v -0.427886 0.139656 1.304061
v -0.346691 0.139656 1.052108
v -0.715515 0.139656 1.264925
v -0.636241 0.139656 0.997087
v -0.769640 0.000000 1.312146
v -0.683463 0.000000 0.942962
v 0.380190 0.000000 0.990206
v 0.555040 0.000000 0.794200
v 0.377934 0.076997 0.950669
v 0.515503 0.076997 0.796455
v 0.223720 0.076997 0.813100
v 0.361289 0.076997 0.658886
v 0.184183 0.000000 0.815355
v 0.359034 0.000000 0.619348
v -0.699894 0.000000 -1.353781
v -0.848878 0.000000 -1.225155
v -0.696360 0.079933 -1.317577
v -0.813577 0.079933 -1.216378
v -0.564539 0.079933 -1.210525
v -0.697071 0.079933 -1.094690
v -0.523128 0.000000 -1.217656
v -0.689939 0.000000 -1.053279
vt 0.296142 0.063601
vt 0.327227 0.063601
vt 0.358839 0.063601
vt 0.296141 0.063601
vt 0.327227 0.063601
vt 0.358839 0.063601
vt 0.327227 0.063601
vt 0.296141 0.063601
vt 0.296141 0.063601
vt 0.296141 0.063601
vt 0.296141 0.063601
vt 0.358839 0.063601
vt 0.327227 0.063601
vt 0.327227 0.063601
vt 0.358839 0.063601
vt 0.327227 0.063601
vt 0.327227 0.063601
vt 0.296142 0.063601
vt 0.296141 0.063601
vt 0.327227 0.063601
vt 0.358839 0.063601
vt 0.296141 0.063601
vt 0.296141 0.063601
vt 0.296141 0.063601
vt 0.296141 0.063601
vt 0.358839 0.063601
vt 0.327227 0.063601
vt 0.327227 0.063601
vt 0.327227 0.063601
vt 0.327227 0.063601
vt 0.358839 0.063601
vt 0.358839 0.063601
vt 0.358839 0.063601
vt 0.358839 0.063601
vt 0.327227 0.063601
vt 0.327227 0.063601
vt 0.327227 0.063601
vt 0.327227 0.063601
vt 0.296141 0.063601
vt 0.296141 0.063601
vt 0.296141 0.063601
vt 0.296141 0.063601
vt 0.296141 0.063601
vt 0.296141 0.063601
vt 0.296141 0.063601
vt 0.296141 0.063601
vt 0.296141 0.063601
vt 0.296141 0.063601
vt 0.296142 0.063601
vt 0.296142 0.063601
vt 0.358839 0.063601
vt 0.358839 0.063601
vt 0.296142 0.063601
vt 0.358839 0.063601
vt 0.358839 0.063601
vt 0.296141 0.063601
vt 0.296141 0.063601
vt 0.296142 0.063601
vt 0.296142 0.063601
vt 0.296142 0.063601
vt 0.358839 0.063601
vt 0.358839 0.063601
vt 0.296141 0.063601
vt 0.296141 0.063601
vt 0.328122 0.063783
vt 0.328122 0.063783
vt 0.328122 0.063783
vt 0.328122 0.063783
vt 0.358580 0.063783
vt 0.358580 0.063783
vt 0.358580 0.063783
vt 0.358580 0.063783
vt 0.328122 0.063783
vt 0.328122 0.063783
vt 0.328122 0.063783
vt 0.328122 0.063783
vt 0.298348 0.063783
vt 0.298348 0.063783
vt 0.298348 0.063783
vt 0.298348 0.063783
vt 0.298348 0.063783
vt 0.298348 0.063783
vt 0.298348 0.063783
vt 0.298348 0.063783
vt 0.328122 0.063783
vt 0.328122 0.063783
vt 0.328122 0.063783
vt 0.328122 0.063783
vt 0.358580 0.063783
vt 0.358580 0.063783
vt 0.358580 0.063783
vt 0.358580 0.063783
vt 0.328122 0.063783
vt 0.328122 0.063783
vt 0.328122 0.063783
vt 0.328122 0.063783
vt 0.298348 0.063783
vt 0.298348 0.063783
vt 0.298348 0.063783
vt 0.298348 0.063783
vt 0.298348 0.063783
vt 0.298348 0.063783
vt 0.298348 0.063783
vt 0.298348 0.063783
vt 0.328122 0.063783
vt 0.328122 0.063783
vt 0.328122 0.063783
vt 0.328122 0.063783
vt 0.358580 0.063783
vt 0.358580 0.063783
vt 0.358580 0.063783
vt 0.358580 0.063783
vt 0.328122 0.063783
vt 0.328122 0.063783
vt 0.328122 0.063783
vt 0.328122 0.063783
vt 0.298348 0.063783
vt 0.298348 0.063783
vt 0.298348 0.063783
vt 0.298348 0.063783
vt 0.298348 0.063783
vt 0.298348 0.063783
vt 0.298348 0.063783
vt 0.298348 0.063783
vn 0.000000 0.000000 1.000000
vn 0.000000 0.000000 1.000000
vn 0.000000 0.000000 1.000000
vn 0.000000 0.000000 1.000000
vn 0.000000 1.000000 0.000000
vn 0.000000 1.000000 0.000000
vn 0.000000 1.000000 0.000000
vn 0.000000 1.000000 0.000000
vn 0.000000 0.000000 -1.000000
vn 0.000000 0.000000 -1.000000
vn 0.000000 0.000000 -1.000000
vn 0.000000 0.000000 -1.000000
vn 1.000000 0.000000 0.000000
vn 1.000000 0.000000 0.000000
vn 1.000000 0.000000 0.000000
vn 1.000000 0.000000 0.000000
vn -0.928496 0.000000 -0.371342
vn -0.998491 0.000000 -0.054912
vn -0.998491 0.000000 -0.054912
vn -0.928496 0.000000 -0.371342
vn 1.000000 0.000000 0.000000
vn 1.000000 0.000000 0.000000
vn 1.000000 0.000000 0.000000
vn 1.000000 0.000000 0.000000
vn -0.998491 0.000000 -0.054912
vn -0.998491 0.000000 -0.054912
vn -0.951994 0.000000 0.306117
vn -0.951994 0.000000 0.306117
vn 0.000000 1.000000 -0.000000
vn 0.000000 1.000000 -0.000000
vn 0.000000 1.000000 0.000000
vn 0.000000 1.000000 0.000000
vn 0.327656 0.000000 0.944797
vn 0.327656 0.000000 0.944797
vn 0.327656 0.000000 0.944797
vn 0.327656 0.000000 0.944797
vn 0.000000 1.000000 0.000000
vn 0.000000 1.000000 0.000000
vn 0.000000 1.000000 0.000000
vn 0.000000 1.000000 0.000000
vn -0.327656 0.000000 -0.944797
vn -0.327656 0.000000 -0.944797
vn -0.327656 0.000000 -0.944797
vn -0.327656 0.000000 -0.944797
vn 0.961507 0.000000 -0.274781
vn 0.961507 0.000000 -0.274781
vn 0.998913 0.000000 0.046615
vn 0.998913 0.000000 0.046615
vn -0.944797 0.000000 0.327656
vn -0.944797 0.000000 0.327656
vn -0.944797 0.000000 0.327656
vn -0.944797 0.000000 0.327656
vn 0.799139 0.000000 -0.601146
vn 0.799139 0.000000 -0.601146
vn 0.961507 0.000000 -0.274781
vn 0.961507 0.000000 -0.274781
vn -0.944797 0.000000 0.327656
vn -0.944797 0.000000 0.327656
vn -0.944797 0.000000 0.327657
vn -0.944797 0.000000 0.327657
vn 0.000000 1.000000 0.000000
vn 0.000000 1.000000 0.000000
vn 0.000000 1.000000 0.000000
vn 0.000000 1.000000 0.000000
vn 0.000000 1.000000 0.000000
vn 0.000000 1.000000 0.000000
vn 0.000000 1.000000 -0.000000
vn 0.000000 1.000000 -0.000000
vn 1.000000 0.000001 0.000000
vn 1.000000 0.000000 0.000000
vn 1.000000 0.000000 0.000000
vn 1.000000 0.000001 0.000000
vn -0.951994 0.000000 0.306117
vn -0.951994 0.000000 0.306117
vn -1.000000 0.000000 0.000000
vn -1.000000 0.000000 0.000000
vn -0.944797 0.000000 0.327657
vn -0.944797 0.000000 0.327657
vn -0.944797 0.000000 0.327657
vn -0.944797 0.000000 0.327657
vn 0.000000 1.000000 0.000000
vn 0.000000 1.000000 0.000000
vn 0.000000 1.000000 0.000000
vn 0.000000 1.000000 0.000000
vn 0.944797 0.000000 -0.327656
vn 0.799139 0.000000 -0.601146
vn 0.799139 0.000000 -0.601146
vn 0.944797 0.000000 -0.327656
vn 0.894477 0.341785 0.288259
vn 0.894477 0.341785 0.288259
vn 0.894477 0.341785 0.288259
vn 0.894477 0.341785 0.288259
vn 0.000000 1.000000 0.000000
vn 0.000000 1.000000 0.000000
vn 0.000000 1.000000 0.000000
vn 0.000000 1.000000 0.000000
vn -0.911423 0.336558 -0.236720
vn -0.911424 0.336558 -0.236720
vn -0.911423 0.336558 -0.236720
vn -0.911424 0.336558 -0.236720
vn 0.200866 0.254869 -0.945883
vn 0.200866 0.254869 -0.945883
vn 0.200866 0.254869 -0.945883
vn 0.200866 0.254869 -0.945883
vn -0.113452 0.331847 0.936486
vn -0.113452 0.331847 0.936486
vn -0.113452 0.331847 0.936486
vn -0.113452 0.331847 0.936486
vn 0.701292 0.341786 0.625598
vn 0.701292 0.341786 0.625598
vn 0.701292 0.341786 0.625598
vn 0.701292 0.341786 0.625598
vn 0.000000 1.000000 0.000000
vn 0.000000 1.000000 0.000000
vn 0.000000 1.000000 0.000000
vn 0.000000 1.000000 0.000000
vn -0.701292 0.341785 -0.625598
vn -0.701292 0.341785 -0.625598
vn -0.701292 0.341785 -0.625598
vn -0.701292 0.341785 -0.625598
vn 0.625599 0.341786 -0.701291
vn 0.625599 0.341786 -0.701291
vn 0.625599 0.341786 -0.701291
vn 0.625599 0.341786 -0.701291
vn -0.625599 0.341781 0.701293
vn -0.625600 0.341781 0.701293
vn -0.625600 0.341781 0.701293
vn -0.625599 0.341781 0.701293
vn -0.612545 0.348430 -0.709496
vn -0.612545 0.348430 -0.709496
vn -0.612545 0.348430 -0.709496
vn -0.612545 0.348430 -0.709496
vn 0.000000 1.000000 0.000000
vn 0.000000 1.000000 0.000000
vn 0.000000 1.000000 0.000000
vn 0.000000 1.000000 0.000000
vn 0.642162 0.342086 0.686006
vn 0.642162 0.342086 0.686006
vn 0.642162 0.342086 0.686006
vn 0.642162 0.342086 0.686006
vn -0.704367 0.259021 0.660890
vn -0.704367 0.259021 0.660890
vn -0.704367 0.259020 0.660890
vn -0.704367 0.259020 0.660890
vn 0.582441 0.338349 -0.739109
vn 0.582441 0.338349 -0.739109
vn 0.582441 0.338349 -0.739109
vn 0.582441 0.338349 -0.739109
s off
f 1/20/1 2/2/2 4/17/3 3/14/4
f 12/26/5 9/21/6 6/6/7 5/15/8
f 5/5/9 6/13/10 8/7/11 7/16/12
f 9/22/13 10/23/14 8/8/15 6/9/16
f 7/10/17 11/24/18 12/25/19 5/11/20
f 26/56/21 27/57/22 10/23/23 9/22/24
f 12/25/25 11/24/26 28/58/27 25/53/28
f 25/54/29 26/55/30 9/21/31 12/26/32
f 13/27/33 14/28/34 16/29/35 15/30/36
f 24/31/37 21/32/38 18/33/39 17/34/40
f 17/35/41 18/36/42 20/37/43 19/38/44
f 21/39/45 22/40/46 20/41/47 18/42/48
f 19/43/49 23/44/50 24/45/51 17/46/52
f 31/63/53 32/64/54 22/40/55 21/39/56
f 24/45/57 23/44/58 29/59/59 30/60/60
f 30/61/61 31/62/62 21/32/63 24/31/64
f 3/3/65 4/12/66 26/55/67 25/54/68
f 2/19/69 27/57/70 26/56/71 4/4/72
f 25/53/73 28/58/74 1/1/75 3/18/76
f 30/60/77 29/59/78 13/49/79 15/50/80
f 15/51/81 16/52/82 31/62/83 30/61/84
f 14/47/85 32/64/86 31/63/87 16/48/88
f 33/65/89 34/66/90 36/67/91 35/68/92
f 35/69/93 36/70/94 38/71/95 37/72/96
f 37/73/97 38/74/98 40/75/99 39/76/100
f 34/77/101 40/78/102 38/79/103 36/80/104
f 39/81/105 33/82/106 35/83/107 37/84/108
f 41/85/109 42/86/110 44/87/111 43/88/112
f 43/89/113 44/90/114 46/91/115 45/92/116
f 45/93/117 46/94/118 48/95/119 47/96/120
f 42/97/121 48/98/122 46/99/123 44/100/124
f 47/101/125 41/102/126 43/103/127 45/104/128
f 49/105/129 50/106/130 52/107/131 51/108/132
f 51/109/133 52/110/134 54/111/135 53/112/136
f 53/113/137 54/114/138 56/115/139 55/116/140
f 50/117/141 56/118/142 54/119/143 52/120/144
f 55/121/145 49/122/146 51/123/147 53/124/148
