# This file uses meters as units for non-parametric coordinates.

v 1.515347 0.000000 -0.518704
v 1.676105 0.000000 -0.518704
v 1.515347 0.834670 -0.518704
v 1.676105 0.834670 -0.518704
v 1.515347 0.834670 -0.759831
v 1.676105 0.834670 -0.759831
v 1.515347 0.000000 -0.759831
v 1.676105 0.000000 -0.759831
v 1.515347 0.000000 0.759831
v 1.676105 0.000000 0.759831
v 1.515347 0.834670 0.759831
v 1.676105 0.834670 0.759831
v 1.515347 0.834670 0.518704
v 1.676105 0.834670 0.518704
v 1.515347 0.000000 0.518704
v 1.676105 0.000000 0.518704
v -1.676105 0.000000 -0.518704
v -1.515347 0.000000 -0.518704
v -1.676105 0.834670 -0.518704
v -1.515347 0.834670 -0.518704
v -1.676105 0.834670 -0.759831
v -1.515347 0.834670 -0.759831
v -1.676105 0.000000 -0.759831
v -1.515347 0.000000 -0.759831
v -1.676105 0.000000 0.759831
v -1.515347 0.000000 0.759831
v -1.676105 0.834670 0.759831
v -1.515347 0.834670 0.759831
v -1.676105 0.834670 0.518704
v -1.515347 0.834670 0.518704
v -1.676105 0.000000 0.518704
v -1.515347 0.000000 0.518704
v -1.667237 0.376804 0.667916
v 1.667235 0.376804 0.667916
v -1.667237 0.585281 0.667916
v 1.667235 0.585281 0.667916
v -1.667237 0.585281 -0.667916
v 1.667235 0.585281 -0.667916
v -1.667237 0.376804 -0.667916
v 1.667235 0.376804 -0.667916
v -1.475900 0.585281 0.604220
v 1.475905 0.585281 0.604220
v -1.475900 0.751459 0.604220
v 1.475905 0.751459 0.604220
v -1.475900 0.751459 -0.604220
v 1.475905 0.751459 -0.604220
v -1.475900 0.585281 -0.604220
v 1.475905 0.585281 -0.604220
v -0.270467 0.585281 0.604220
v -0.270467 0.751459 0.604220
v -0.676309 0.751459 -0.604220
v -0.676309 0.585281 -0.604220
v -0.121446 0.585281 0.604220
v -0.121446 0.751459 0.604220
v -0.462384 0.751459 -0.604220
v -0.462384 0.585281 -0.604220
v -0.265740 0.585281 0.635809
v -0.265740 0.781196 0.635809
v -0.116715 0.585281 0.635809
v -0.116715 0.781196 0.635809
v -0.693387 0.781196 -0.635336
v -0.479459 0.781196 -0.635336
v -0.693387 0.585281 -0.635336
v -0.479459 0.585281 -0.635336
v -0.349820 0.751459 0.000000
v -0.349843 0.781196 0.000237
v -0.168366 0.781196 0.000237
v -0.168344 0.751459 0.000000
v -1.386313 0.751459 0.389508
v -0.972121 0.751459 0.389508
v -1.328926 0.875901 0.345817
v -1.029509 0.875901 0.345817
v -1.328926 0.875901 -0.345817
v -1.029509 0.875901 -0.345817
v -1.386313 0.751459 -0.389508
v -0.972121 0.751459 -0.389508
vt 0.238620 0.511291
vt 0.238620 0.511291
vt 0.238620 0.511291
vt 0.238620 0.511291
vt 0.269078 0.511291
vt 0.269078 0.511291
vt 0.269078 0.511291
vt 0.269078 0.511291
vt 0.238620 0.511291
vt 0.238620 0.511291
vt 0.238620 0.511291
vt 0.238620 0.511291
vt 0.175256 0.511291
vt 0.175256 0.511291
vt 0.175256 0.511291
vt 0.175256 0.511291
vt 0.208846 0.511291
vt 0.208846 0.511291
vt 0.208846 0.511291
vt 0.208846 0.511291
vt 0.208846 0.511291
vt 0.208846 0.511291
vt 0.208846 0.511291
vt 0.208846 0.511291
vt 0.238620 0.511291
vt 0.238620 0.511291
vt 0.238620 0.511291
vt 0.238620 0.511291
vt 0.269078 0.511291
vt 0.269078 0.511291
vt 0.269078 0.511291
vt 0.269078 0.511291
vt 0.238620 0.511291
vt 0.238620 0.511291
vt 0.238620 0.511291
vt 0.238620 0.511291
vt 0.175256 0.511291
vt 0.175256 0.511291
vt 0.175256 0.511291
vt 0.175256 0.511291
vt 0.208846 0.511291
vt 0.208846 0.511291
vt 0.208846 0.511291
vt 0.208846 0.511291
vt 0.208846 0.511291
vt 0.208846 0.511291
vt 0.208846 0.511291
vt 0.208846 0.511291
vt 0.238620 0.511291
vt 0.238620 0.511291
vt 0.238620 0.511291
vt 0.238620 0.511291
vt 0.269078 0.511291
vt 0.269078 0.511291
vt 0.269078 0.511291
vt 0.269078 0.511291
vt 0.238620 0.511291
vt 0.238620 0.511291
vt 0.238620 0.511291
vt 0.238620 0.511291
vt 0.175256 0.511291
vt 0.175256 0.511291
vt 0.175256 0.511291
vt 0.175256 0.511291
vt 0.208846 0.511291
vt 0.208846 0.511291
vt 0.208846 0.511291
vt 0.208846 0.511291
vt 0.208846 0.511291
vt 0.208846 0.511291
vt 0.208846 0.511291
vt 0.208846 0.511291
vt 0.238620 0.511291
vt 0.238620 0.511291
vt 0.238620 0.511291
vt 0.238620 0.511291
vt 0.269078 0.511291
vt 0.269078 0.511291
vt 0.269078 0.511291
vt 0.269078 0.511291
vt 0.238620 0.511291
vt 0.238620 0.511291
vt 0.238620 0.511291
vt 0.238620 0.511291
vt 0.175256 0.511291
vt 0.175256 0.511291
vt 0.175256 0.511291
vt 0.175256 0.511291
vt 0.208846 0.511291
vt 0.208846 0.511291
vt 0.208846 0.511291
vt 0.208846 0.511291
vt 0.208846 0.511291
vt 0.208846 0.511291
vt 0.208846 0.511291
vt 0.208846 0.511291
vt 0.238620 0.511291
vt 0.238620 0.511291
vt 0.238620 0.511291
vt 0.238620 0.511291
vt 0.269078 0.511291
vt 0.269078 0.511291
vt 0.269078 0.511291
vt 0.269078 0.511291
vt 0.238620 0.511291
vt 0.238620 0.511291
vt 0.238620 0.511291
vt 0.238620 0.511291
vt 0.175256 0.511291
vt 0.175256 0.511291
vt 0.175256 0.511291
vt 0.175256 0.511291
vt 0.208846 0.511291
vt 0.208846 0.511291
vt 0.208846 0.511291
vt 0.208846 0.511291
vt 0.208846 0.511291
vt 0.208846 0.511291
vt 0.208846 0.511291
vt 0.208846 0.511291
vt 0.174661 0.444899
vt 0.174661 0.444899
vt 0.200261 0.443644
vt 0.174661 0.444899
vt 0.205118 0.444899
vt 0.205118 0.444899
vt 0.205118 0.444899
vt 0.174661 0.444899
vt 0.174661 0.444899
vt 0.235553 0.443644
vt 0.174661 0.444899
vt 0.144490 0.287281
vt 0.144490 0.287281
vt 0.144490 0.287281
vt 0.144490 0.287281
vt 0.144887 0.444899
vt 0.144887 0.444899
vt 0.144887 0.444899
vt 0.144887 0.444899
vt 0.235553 0.443644
vt 0.235553 0.443644
vt 0.235553 0.443644
vt 0.235553 0.443644
vt 0.199578 0.443644
vt 0.266011 0.443644
vt 0.266011 0.443644
vt 0.266011 0.443644
vt 0.235553 0.443644
vt 0.200261 0.443644
vt 0.235553 0.443644
vt 0.235553 0.443644
vt 0.174264 0.287281
vt 0.235553 0.443644
vt 0.174264 0.287281
vt 0.174264 0.287281
vt 0.204722 0.287281
vt 0.204722 0.287281
vt 0.204722 0.287281
vt 0.204722 0.287281
vt 0.174264 0.287281
vt 0.174264 0.287281
vt 0.174264 0.287281
vt 0.174264 0.287281
vt 0.205118 0.444899
vt 0.266011 0.443644
vt 0.266011 0.443644
vt 0.204722 0.287281
vt 0.205118 0.444899
vt 0.234755 0.445868
vt 0.234755 0.445868
vt 0.234755 0.445868
vt 0.234755 0.445868
vt 0.265213 0.445868
vt 0.265213 0.445868
vt 0.265213 0.445868
vt 0.265213 0.445868
vt 0.234755 0.445868
vt 0.234755 0.445868
vt 0.234755 0.445868
vt 0.234755 0.445868
vt 0.171391 0.445868
vt 0.171391 0.445868
vt 0.171391 0.445868
vt 0.171391 0.445868
vt 0.204981 0.445868
vt 0.204981 0.445868
vt 0.204981 0.445868
vt 0.204981 0.445868
vt 0.204982 0.445868
vt 0.204982 0.445868
vt 0.204982 0.445868
vt 0.204982 0.445868
vt 0.199578 0.443644
vt 0.205118 0.444899
vt 0.205118 0.444899
vt 0.200261 0.443644
vt 0.199578 0.443644
vt 0.174661 0.444899
vt 0.174661 0.444899
vt 0.199578 0.443644
vt 0.200261 0.443644
vt 0.199578 0.443644
vt 0.199578 0.443644
vt 0.199578 0.443644
vt 0.235553 0.443644
vt 0.266011 0.443644
vt 0.200261 0.443644
vt 0.200261 0.443644
vt 0.200261 0.443644
vt 0.199578 0.443644
vt 0.200261 0.443644
vt 0.235553 0.443644
vt 0.201257 0.442289
vt 0.201257 0.442289
vt 0.201257 0.442289
vt 0.201257 0.442289
vt 0.201257 0.442289
vt 0.201257 0.442289
vt 0.201257 0.442289
vt 0.201257 0.442289
vt 0.201257 0.442289
vt 0.201257 0.442289
vt 0.204722 0.287281
vt 0.204722 0.287281
vt 0.235553 0.443644
vt 0.174264 0.287281
vn 0.000000 0.000000 1.000000
vn 0.000000 0.000000 1.000000
vn 0.000000 0.000000 1.000000
vn 0.000000 0.000000 1.000000
vn 0.000000 1.000000 0.000000
vn 0.000000 1.000000 0.000000
vn 0.000000 1.000000 0.000000
vn 0.000000 1.000000 0.000000
vn 0.000000 0.000000 -1.000000
vn 0.000000 0.000000 -1.000000
vn 0.000000 0.000000 -1.000000
vn 0.000000 0.000000 -1.000000
vn 0.000000 -1.000000 0.000000
vn 0.000000 -1.000000 0.000000
vn 0.000000 -1.000000 0.000000
vn 0.000000 -1.000000 0.000000
vn 1.000000 0.000000 0.000000
vn 1.000000 0.000000 0.000000
vn 1.000000 0.000000 0.000000
vn 1.000000 0.000000 0.000000
vn -1.000000 0.000000 0.000000
vn -1.000000 0.000000 0.000000
vn -1.000000 0.000000 0.000000
vn -1.000000 0.000000 0.000000
vn 0.000000 0.000000 1.000000
vn 0.000000 0.000000 1.000000
vn 0.000000 0.000000 1.000000
vn 0.000000 0.000000 1.000000
vn 0.000000 1.000000 0.000000
vn 0.000000 1.000000 0.000000
vn 0.000000 1.000000 0.000000
vn 0.000000 1.000000 0.000000
vn 0.000000 0.000000 -1.000000
vn 0.000000 0.000000 -1.000000
vn 0.000000 0.000000 -1.000000
vn 0.000000 0.000000 -1.000000
vn 0.000000 -1.000000 0.000000
vn 0.000000 -1.000000 0.000000
vn 0.000000 -1.000000 0.000000
vn 0.000000 -1.000000 0.000000
vn 1.000000 0.000000 0.000000
vn 1.000000 0.000000 0.000000
vn 1.000000 0.000000 0.000000
vn 1.000000 0.000000 0.000000
vn -1.000000 0.000000 0.000000
vn -1.000000 0.000000 0.000000
vn -1.000000 0.000000 0.000000
vn -1.000000 0.000000 0.000000
vn 0.000000 0.000000 1.000000
vn 0.000000 0.000000 1.000000
vn 0.000000 0.000000 1.000000
vn 0.000000 0.000000 1.000000
vn 0.000000 1.000000 0.000000
vn 0.000000 1.000000 0.000000
vn 0.000000 1.000000 0.000000
vn 0.000000 1.000000 0.000000
vn 0.000000 0.000000 -1.000000
vn 0.000000 0.000000 -1.000000
vn 0.000000 0.000000 -1.000000
vn 0.000000 0.000000 -1.000000
vn 0.000000 -1.000000 0.000000
vn 0.000000 -1.000000 0.000000
vn 0.000000 -1.000000 0.000000
vn 0.000000 -1.000000 0.000000
vn 1.000000 0.000000 0.000000
vn 1.000000 0.000000 0.000000
vn 1.000000 0.000000 0.000000
vn 1.000000 0.000000 0.000000
vn -1.000000 0.000000 0.000000
vn -1.000000 0.000000 0.000000
vn -1.000000 0.000000 0.000000
vn -1.000000 0.000000 0.000000
vn 0.000000 0.000000 1.000000
vn 0.000000 0.000000 1.000000
vn 0.000000 0.000000 1.000000
vn 0.000000 0.000000 1.000000
vn 0.000000 1.000000 0.000000
vn 0.000000 1.000000 0.000000
vn 0.000000 1.000000 0.000000
vn 0.000000 1.000000 0.000000
vn 0.000000 0.000000 -1.000000
vn 0.000000 0.000000 -1.000000
vn 0.000000 0.000000 -1.000000
vn 0.000000 0.000000 -1.000000
vn 0.000000 -1.000000 0.000000
vn 0.000000 -1.000000 0.000000
vn 0.000000 -1.000000 0.000000
vn 0.000000 -1.000000 0.000000
vn 1.000000 0.000000 0.000000
vn 1.000000 0.000000 0.000000
vn 1.000000 0.000000 0.000000
vn 1.000000 0.000000 0.000000
vn -1.000000 0.000000 0.000000
vn -1.000000 0.000000 0.000000
vn -1.000000 0.000000 0.000000
vn -1.000000 0.000000 0.000000
vn 0.000000 0.000000 1.000000
vn 0.000000 0.000000 1.000000
vn 0.000000 0.000000 1.000000
vn 0.000000 0.000000 1.000000
vn 0.000000 1.000000 0.000000
vn 0.000000 1.000000 0.000000
vn 0.000000 1.000000 0.000000
vn 0.000000 1.000000 0.000000
vn 0.000000 0.000000 -1.000000
vn 0.000000 0.000000 -1.000000
vn 0.000000 0.000000 -1.000000
vn 0.000000 0.000000 -1.000000
vn 0.000000 -1.000000 0.000000
vn 0.000000 -1.000000 0.000000
vn 0.000000 -1.000000 0.000000
vn 0.000000 -1.000000 0.000000
vn 1.000000 0.000000 0.000000
vn 1.000000 0.000000 0.000000
vn 1.000000 0.000000 0.000000
vn 1.000000 0.000000 0.000000
vn -1.000000 0.000000 0.000000
vn -1.000000 0.000000 0.000000
vn -1.000000 0.000000 0.000000
vn -1.000000 0.000000 0.000000
vn 0.000000 0.000000 1.000000
vn 0.000000 0.000000 1.000000
vn 0.000000 0.000000 1.000000
vn 0.000000 0.000000 1.000000
vn 0.000000 1.000000 0.000000
vn 0.000000 1.000000 0.000000
vn 0.000000 1.000000 -0.000000
vn 0.000000 0.000000 -1.000000
vn 0.000000 0.000000 -1.000000
vn 0.000000 0.000000 -1.000000
vn 0.000000 0.000000 -1.000000
vn 1.000000 0.000000 0.000000
vn 1.000000 0.000000 0.000000
vn 1.000000 0.000000 0.000000
vn 1.000000 0.000000 0.000000
vn -1.000000 0.000000 0.000000
vn -1.000000 0.000000 0.000000
vn -1.000000 0.000000 0.000000
vn -1.000000 0.000000 0.000000
vn 0.000000 0.000000 1.000000
vn 0.000000 0.000000 1.000000
vn 0.000000 0.000000 1.000000
vn 0.000000 0.000000 1.000000
vn 0.000000 1.000000 0.000000
vn 0.000000 1.000000 0.000000
vn 0.000000 1.000000 0.000000
vn 0.000000 1.000000 0.000000
vn 0.000000 0.000000 -1.000000
vn 0.000000 0.000000 -1.000000
vn 0.000000 0.000000 -1.000000
vn 0.000000 0.000000 -1.000000
vn 0.000000 0.000000 1.000000
vn 0.000000 0.000000 1.000000
vn 0.000000 0.000000 1.000000
vn 0.000000 0.000000 1.000000
vn 0.000000 1.000000 0.000000
vn 0.000000 1.000000 0.000000
vn 0.000000 1.000000 0.000000
vn 0.000000 1.000000 0.000000
vn 0.000000 0.000000 -1.000000
vn 0.000000 0.000000 -1.000000
vn 0.000000 0.000000 -1.000000
vn 0.000000 0.000000 -1.000000
vn -0.988991 0.000000 0.147974
vn -0.988991 0.000000 0.147974
vn -0.988991 0.000000 0.147974
vn -0.988991 0.000000 0.147974
vn 0.000000 -1.000000 0.000000
vn 0.000000 -1.000000 0.000000
vn 0.000000 -1.000000 0.000000
vn 0.000000 -1.000000 0.000000
vn 0.988974 0.000000 -0.148091
vn 0.988974 0.000000 -0.148091
vn 0.988974 0.000000 -0.148091
vn 0.988974 0.000000 -0.148091
vn -0.879728 -0.006109 0.475439
vn -0.947613 0.000720 0.319420
vn -0.948150 0.000788 0.317822
vn -0.879728 -0.006109 0.475439
vn 0.962251 -0.001388 -0.272160
vn 0.961769 -0.001070 -0.273860
vn 0.898246 0.030592 -0.438427
vn 0.898246 0.030592 -0.438427
vn -0.876636 0.000000 0.481153
vn -0.876636 0.000000 0.481153
vn -0.876636 0.000000 0.481153
vn -0.876636 0.000000 0.481153
vn 0.876682 0.000000 -0.481071
vn 0.876682 0.000000 -0.481071
vn 0.876682 0.000000 -0.481071
vn 0.876682 0.000000 -0.481071
vn 0.000000 -1.000000 -0.000001
vn 0.000000 -1.000000 -0.000001
vn 0.000000 -1.000000 -0.000001
vn 0.000000 -1.000000 -0.000001
vn -0.948150 0.000788 0.317822
vn -0.947613 0.000720 0.319420
vn -0.991385 0.008461 0.130706
vn -0.991385 0.008461 0.130706
vn 0.000000 1.000000 0.000000
vn 0.000000 1.000000 0.000000
vn 0.000000 1.000000 -0.000000
vn 0.000000 1.000000 -0.000000
vn 0.996192 -0.036474 -0.079186
vn 0.961769 -0.001070 -0.273860
vn 0.962251 -0.001388 -0.272160
vn 0.996192 -0.036474 -0.079186
vn 0.000000 1.000000 0.000000
vn 0.000000 1.000000 -0.000000
vn 0.000000 1.000000 -0.000000
vn 0.000000 1.000000 0.000000
vn 0.000000 1.000000 0.000000
vn 0.000000 1.000000 0.000000
vn 0.000000 1.000000 0.000000
vn 0.000000 0.000000 1.000000
vn 0.000000 0.000000 1.000000
vn 0.000000 0.000000 1.000000
vn 0.000000 0.000000 1.000000
vn 0.000000 1.000000 0.000000
vn 0.000000 1.000000 0.000000
vn 0.000000 1.000000 0.000000
vn 0.000000 1.000000 0.000000
vn 0.000000 0.000000 -1.000000
vn 0.000000 0.000000 -1.000000
vn 0.000000 0.000000 -1.000000
vn 0.000000 0.000000 -1.000000
vn 0.000000 -1.000000 0.000000
vn 0.000000 -1.000000 0.000000
vn 0.000000 -1.000000 0.000000
vn 0.000000 -1.000000 0.000000
vn 1.000000 0.000000 0.000000
vn 1.000000 0.000000 0.000000
vn 1.000000 0.000000 0.000000
vn 1.000000 0.000000 0.000000
vn -1.000000 0.000000 0.000000
vn -1.000000 0.000000 0.000000
vn -1.000000 0.000000 0.000000
vn -1.000000 0.000000 0.000000
s off
f 1/1/1 2/2/2 4/3/3 3/4/4
f 3/5/5 4/6/6 6/7/7 5/8/8
f 5/9/9 6/10/10 8/11/11 7/12/12
f 7/13/13 8/14/14 2/15/15 1/16/16
f 2/17/17 8/18/18 6/19/19 4/20/20
f 7/21/21 1/22/22 3/23/23 5/24/24
f 9/25/25 10/26/26 12/27/27 11/28/28
f 11/29/29 12/30/30 14/31/31 13/32/32
f 13/33/33 14/34/34 16/35/35 15/36/36
f 15/37/37 16/38/38 10/39/39 9/40/40
f 10/41/41 16/42/42 14/43/43 12/44/44
f 15/45/45 9/46/46 11/47/47 13/48/48
f 17/49/49 18/50/50 20/51/51 19/52/52
f 19/53/53 20/54/54 22/55/55 21/56/56
f 21/57/57 22/58/58 24/59/59 23/60/60
f 23/61/61 24/62/62 18/63/63 17/64/64
f 18/65/65 24/66/66 22/67/67 20/68/68
f 23/69/69 17/70/70 19/71/71 21/72/72
f 25/73/73 26/74/74 28/75/75 27/76/76
f 27/77/77 28/78/78 30/79/79 29/80/80
f 29/81/81 30/82/82 32/83/83 31/84/84
f 31/85/85 32/86/86 26/87/87 25/88/88
f 26/89/89 32/90/90 30/91/91 28/92/92
f 31/93/93 25/94/94 27/95/95 29/96/96
f 33/97/97 34/98/98 36/99/99 35/100/100
f 35/101/101 36/102/102 38/103/103 37/104/104
f 37/105/105 38/106/106 40/107/107 39/108/108
f 39/109/109 40/110/110 34/111/111 33/112/112
f 34/113/113 40/114/114 38/115/115 36/116/116
f 39/117/117 33/118/118 35/119/119 37/120/120
f 41/121/121 49/122/122 50/199/123 43/124/124
f 43/125/125 50/126/126 65/194/127
f 45/128/128 51/129/129 52/198/130 47/131/131
f 42/132/132 48/133/133 46/134/134 44/135/135
f 47/136/136 41/137/137 43/138/138 45/139/139
f 58/140/140 57/141/141 59/142/142 60/143/143
f 61/206/144 66/145/145 67/146/146 62/147/147
f 63/148/148 61/205/149 62/150/150 64/151/151
f 54/152/152 53/226/153 42/154/154 44/155/155
f 55/156/156 68/223/157 44/158/158 46/159/159
f 56/160/160 55/161/161 46/162/162 48/163/163
f 50/123/164 49/201/165 57/211/166 58/209/167
f 49/212/168 53/153/169 59/142/170 57/141/171
f 53/213/172 54/214/173 60/215/174 59/216/175
f 51/197/176 65/193/177 66/204/178 61/144/179
f 67/217/180 68/218/181 55/219/182 62/220/183
f 52/208/184 51/196/185 61/149/186 63/207/187
f 55/219/188 56/221/189 64/222/190 62/220/191
f 56/225/192 52/130/193 63/148/194 64/151/195
f 66/203/196 65/202/197 50/200/198 58/210/199
f 67/146/200 66/145/201 58/165/202 60/166/203
f 54/214/204 68/218/205 67/217/206 60/215/207
f 43/195/208 65/127/209 51/164/210 45/168/211
f 44/224/212 68/157/213 54/167/214
f 69/169/215 70/170/216 72/171/217 71/172/218
f 71/173/219 72/174/220 74/175/221 73/176/222
f 73/177/223 74/178/224 76/179/225 75/180/226
f 75/181/227 76/182/228 70/183/229 69/184/230
f 70/185/231 76/186/232 74/187/233 72/188/234
f 75/189/235 69/190/236 71/191/237 73/192/238
