# This file uses meters as units for non-parametric coordinates.

v 0.196036 0.000000 0.123503
v 0.107069 0.000000 0.137019
v 0.074292 0.000000 0.220825
v 0.130481 0.000000 0.291115
v 0.219448 0.000000 0.277598
v 0.252226 0.000000 0.193792
v 0.196036 0.025371 0.123503
v 0.107069 0.025371 0.137019
v 0.074292 0.025371 0.220825
v 0.130481 0.025371 0.291115
v 0.219448 0.025371 0.277598
v 0.252226 0.025371 0.193792
v 0.163259 0.025371 0.207309
v -0.119133 0.000000 0.070365
v -0.199826 0.000000 0.110196
v -0.205678 0.000000 0.199993
v -0.130838 0.000000 0.249960
v -0.050145 0.000000 0.210129
v -0.044293 0.000000 0.120332
v -0.119133 0.113289 0.070365
v -0.199826 0.113289 0.110196
v -0.205678 0.113289 0.199993
v -0.130838 0.113289 0.249960
v -0.050145 0.113289 0.210129
v -0.044293 0.113289 0.120332
v -0.124985 0.113289 0.160163
v -0.172398 0.000000 -0.097759
v -0.257487 0.000000 -0.127045
v -0.325394 0.000000 -0.067998
v -0.308212 0.000000 0.020334
v -0.223123 0.000000 0.049620
v -0.155216 0.000000 -0.009426
v -0.172398 0.268273 -0.097759
v -0.257487 0.268273 -0.127045
v -0.325394 0.268273 -0.067998
v -0.308212 0.268273 0.020334
v -0.223123 0.268273 0.049620
v -0.155216 0.268273 -0.009426
v -0.240305 0.268273 -0.038712
v -0.073229 0.000000 -0.279105
v -0.158820 0.000000 -0.251319
v -0.177552 0.000000 -0.163302
v -0.110694 0.000000 -0.103071
v -0.025103 0.000000 -0.130857
v -0.006371 0.000000 -0.218874
v -0.073229 0.475204 -0.279105
v -0.158820 0.475204 -0.251319
v -0.177552 0.475204 -0.163302
v -0.110694 0.475204 -0.103071
v -0.025103 0.475204 -0.130857
v -0.006371 0.475204 -0.218874
v -0.091961 0.475204 -0.191088
v -0.138129 0.148951 -0.263329
v -0.156861 0.148951 -0.175312
v -0.090002 0.148951 -0.115081
v -0.004412 0.148951 -0.142867
v 0.014321 0.148951 -0.230884
v -0.052538 0.148951 -0.291115
v -0.026483 0.339421 -0.207649
v -0.045216 0.339421 -0.119633
v -0.130806 0.339421 -0.091847
v -0.197665 0.339421 -0.152078
v -0.178933 0.339421 -0.240095
v -0.093342 0.339421 -0.267880
v 0.097987 0.000000 -0.103074
v 0.007999 0.000000 -0.103074
v -0.036995 0.000000 -0.025142
v 0.007999 0.000000 0.052789
v 0.097987 0.000000 0.052789
v 0.142981 0.000000 -0.025142
v 0.080008 0.353002 -0.093647
v -0.009980 0.353002 -0.093647
v -0.054974 0.353002 -0.015716
v -0.009980 0.353002 0.062216
v 0.080008 0.353002 0.062216
v 0.125002 0.353002 -0.015716
v 0.035014 0.353002 -0.015716
v 0.007999 0.184985 -0.103074
v -0.036995 0.184985 -0.025142
v 0.007999 0.184985 0.052789
v 0.097987 0.184985 0.052789
v 0.142981 0.184985 -0.025142
v 0.097987 0.184985 -0.103074
v 0.125002 0.244244 -0.015716
v 0.080008 0.244244 0.062216
v -0.009980 0.244244 0.062216
v -0.054974 0.244244 -0.015716
v -0.009980 0.244244 -0.093647
v 0.080008 0.244244 -0.093647
v 0.325394 0.000000 -0.129919
v 0.247524 0.000000 -0.175019
v 0.169530 0.000000 -0.130132
v 0.169407 0.000000 -0.040144
v 0.247277 0.000000 0.004957
v 0.325270 0.000000 -0.039931
v 0.325394 0.475204 -0.129919
v 0.247524 0.475204 -0.175019
v 0.169530 0.475204 -0.130132
v 0.169407 0.475204 -0.040144
v 0.247277 0.475204 0.004957
v 0.325270 0.475204 -0.039931
v 0.247400 0.475204 -0.085031
v 0.169530 0.292539 -0.130132
v 0.169407 0.292539 -0.040144
v 0.247277 0.292539 0.004957
v 0.325270 0.292539 -0.039931
v 0.325394 0.292539 -0.129919
v 0.247524 0.292539 -0.175019
v 0.307666 0.378670 -0.122092
v 0.307543 0.378670 -0.032104
v 0.229549 0.378670 0.012783
v 0.151679 0.378670 -0.032318
v 0.151802 0.378670 -0.122306
v 0.229796 0.378670 -0.167193
vt 0.579105 0.470127
vt 0.579105 0.470127
vt 0.579105 0.470127
vt 0.579105 0.470127
vt 0.579105 0.470127
vt 0.579104 0.470127
vt 0.579105 0.470127
vt 0.579105 0.470127
vt 0.579105 0.470127
vt 0.579105 0.470127
vt 0.579105 0.470127
vt 0.579105 0.470127
vt 0.579104 0.470127
vt 0.579105 0.470127
vt 0.649501 0.470127
vt 0.649501 0.470127
vt 0.649501 0.470127
vt 0.649501 0.470127
vt 0.649501 0.470127
vt 0.649501 0.470127
vt 0.649501 0.470127
vt 0.649501 0.470127
vt 0.649501 0.470127
vt 0.649501 0.470127
vt 0.579105 0.470127
vt 0.579105 0.470127
vt 0.579105 0.470127
vt 0.579105 0.470127
vt 0.579105 0.470127
vt 0.579105 0.470127
vt 0.579105 0.470127
vt 0.579105 0.470127
vt 0.579105 0.470127
vt 0.579105 0.470127
vt 0.579104 0.470127
vt 0.579104 0.470127
vt 0.579105 0.470127
vt 0.579105 0.470127
vt 0.649501 0.470127
vt 0.649501 0.470127
vt 0.649501 0.470127
vt 0.649501 0.470127
vt 0.649501 0.470127
vt 0.649501 0.470127
vt 0.649501 0.470127
vt 0.649501 0.470127
vt 0.649501 0.470127
vt 0.649501 0.470127
vt 0.579105 0.470127
vt 0.579105 0.470127
vt 0.579105 0.470127
vt 0.579105 0.470127
vt 0.579105 0.470127
vt 0.579105 0.470127
vt 0.579105 0.470127
vt 0.579105 0.470127
vt 0.579105 0.470127
vt 0.579105 0.470127
vt 0.579104 0.470127
vt 0.579104 0.470127
vt 0.579105 0.470127
vt 0.579105 0.470127
vt 0.649501 0.470127
vt 0.649501 0.470127
vt 0.649501 0.470127
vt 0.649501 0.470127
vt 0.649501 0.470127
vt 0.649501 0.470127
vt 0.649501 0.470127
vt 0.649501 0.470127
vt 0.649501 0.470127
vt 0.649501 0.470127
vt 0.579105 0.470127
vt 0.579105 0.470127
vt 0.579105 0.470127
vt 0.579105 0.470127
vt 0.579105 0.470127
vt 0.579105 0.470127
vt 0.579105 0.470127
vt 0.579105 0.470127
vt 0.579105 0.470127
vt 0.579105 0.470127
vt 0.579104 0.470127
vt 0.579104 0.470127
vt 0.579105 0.470127
vt 0.579105 0.470127
vt 0.649501 0.470127
vt 0.649501 0.470127
vt 0.649501 0.470127
vt 0.649501 0.470127
vt 0.649501 0.470127
vt 0.649501 0.470127
vt 0.649501 0.470127
vt 0.649501 0.470127
vt 0.649501 0.470127
vt 0.649501 0.470127
vt 0.579105 0.470127
vt 0.579105 0.470127
vt 0.579105 0.470127
vt 0.579105 0.470127
vt 0.579104 0.470127
vt 0.579105 0.470127
vt 0.579105 0.470127
vt 0.579104 0.470127
vt 0.579105 0.470127
vt 0.579105 0.470127
vt 0.579105 0.470127
vt 0.579105 0.470127
vt 0.579105 0.470127
vt 0.579105 0.470127
vt 0.579105 0.470127
vt 0.579105 0.470127
vt 0.579105 0.470127
vt 0.579105 0.470127
vt 0.579105 0.470127
vt 0.579105 0.470127
vt 0.579105 0.470127
vt 0.579105 0.470127
vt 0.579105 0.470127
vt 0.579105 0.470127
vt 0.579104 0.470127
vt 0.579104 0.470127
vt 0.579105 0.470127
vt 0.579105 0.470127
vt 0.649501 0.470127
vt 0.649501 0.470127
vt 0.649501 0.470127
vt 0.649501 0.470127
vt 0.649501 0.470127
vt 0.649501 0.470127
vt 0.649501 0.470127
vt 0.649501 0.470127
vt 0.649501 0.470127
vt 0.649501 0.470127
vt 0.579105 0.470127
vt 0.579105 0.470127
vt 0.579105 0.470127
vt 0.579105 0.470127
vt 0.579104 0.470127
vt 0.579105 0.470127
vt 0.579105 0.470127
vt 0.579104 0.470127
vt 0.579105 0.470127
vt 0.579105 0.470127
vt 0.579105 0.470127
vt 0.579105 0.470127
vt 0.579105 0.470127
vt 0.579105 0.470127
vt 0.579105 0.470127
vt 0.579105 0.470127
vt 0.579105 0.470127
vt 0.579105 0.470127
vt 0.579105 0.470127
vt 0.579105 0.470127
vt 0.579105 0.470127
vt 0.579105 0.470127
vt 0.579105 0.470127
vt 0.579105 0.470127
vt 0.579104 0.470127
vt 0.579104 0.470127
vt 0.579105 0.470127
vt 0.579105 0.470127
vt 0.649501 0.470127
vt 0.649501 0.470127
vt 0.649501 0.470127
vt 0.649501 0.470127
vt 0.649501 0.470127
vt 0.649501 0.470127
vt 0.649501 0.470127
vt 0.649501 0.470127
vt 0.649501 0.470127
vt 0.649501 0.470127
vt 0.579105 0.470127
vt 0.579105 0.470127
vt 0.579105 0.470127
vt 0.579104 0.470127
vt 0.579105 0.470127
vt 0.579105 0.470127
vt 0.579105 0.470127
vt 0.579105 0.470127
vt 0.579104 0.470127
vt 0.579105 0.470127
vt 0.579105 0.470127
vt 0.579105 0.470127
vt 0.579105 0.470127
vt 0.579105 0.470127
vn -0.150205 0.000000 -0.988655
vn -0.150205 0.000000 -0.988655
vn -0.150205 0.000000 -0.988655
vn -0.150205 0.000000 -0.988655
vn -0.931303 0.000000 -0.364245
vn -0.931303 0.000000 -0.364245
vn -0.931303 0.000000 -0.364245
vn -0.931303 0.000000 -0.364245
vn -0.781097 0.000000 0.624409
vn -0.781097 0.000000 0.624409
vn -0.781097 0.000000 0.624409
vn -0.781097 0.000000 0.624409
vn 0.150205 0.000000 0.988655
vn 0.150205 0.000000 0.988655
vn 0.150205 0.000000 0.988655
vn 0.150205 0.000000 0.988655
vn 0.931304 0.000000 0.364244
vn 0.931304 0.000000 0.364244
vn 0.931304 0.000000 0.364244
vn 0.931304 0.000000 0.364244
vn 0.781098 0.000000 -0.624409
vn 0.781098 0.000000 -0.624409
vn 0.781098 0.000000 -0.624409
vn 0.781098 0.000000 -0.624409
vn 0.000000 1.000000 -0.000000
vn 0.000000 1.000000 -0.000000
vn 0.000000 1.000000 -0.000000
vn 0.000000 1.000000 -0.000000
vn 0.000000 1.000000 -0.000000
vn 0.000000 1.000000 -0.000000
vn 0.000000 1.000000 -0.000000
vn 0.000000 1.000000 0.000000
vn 0.000000 1.000000 0.000000
vn 0.000000 1.000000 -0.000000
vn -0.442622 0.000000 -0.896708
vn -0.442622 0.000000 -0.896708
vn -0.442622 0.000000 -0.896708
vn -0.442622 0.000000 -0.896708
vn -0.997883 0.000000 -0.065033
vn -0.997883 0.000000 -0.065033
vn -0.997883 0.000000 -0.065033
vn -0.997883 0.000000 -0.065033
vn -0.555261 0.000000 0.831676
vn -0.555261 0.000000 0.831676
vn -0.555261 0.000000 0.831676
vn -0.555261 0.000000 0.831676
vn 0.442622 0.000000 0.896708
vn 0.442622 0.000000 0.896708
vn 0.442622 0.000000 0.896708
vn 0.442622 0.000000 0.896708
vn 0.997883 0.000000 0.065032
vn 0.997883 0.000000 0.065032
vn 0.997883 0.000000 0.065032
vn 0.997883 0.000000 0.065032
vn 0.555261 0.000000 -0.831676
vn 0.555261 0.000000 -0.831676
vn 0.555261 0.000000 -0.831676
vn 0.555261 0.000000 -0.831676
vn 0.000000 1.000000 -0.000000
vn 0.000000 1.000000 -0.000000
vn 0.000000 1.000000 -0.000000
vn 0.000000 1.000000 -0.000000
vn 0.000000 1.000000 0.000000
vn 0.000000 1.000000 -0.000000
vn 0.000000 1.000000 0.000000
vn 0.000000 1.000000 0.000000
vn 0.000000 1.000000 0.000000
vn 0.000000 1.000000 -0.000000
vn 0.325445 0.000000 -0.945561
vn 0.325445 0.000000 -0.945561
vn 0.325445 0.000000 -0.945561
vn 0.325445 0.000000 -0.945561
vn -0.656158 0.000000 -0.754624
vn -0.656158 0.000000 -0.754624
vn -0.656158 0.000000 -0.754624
vn -0.656158 0.000000 -0.754624
vn -0.981602 0.000000 0.190937
vn -0.981602 0.000000 0.190937
vn -0.981602 0.000000 0.190937
vn -0.981602 0.000000 0.190937
vn -0.325445 0.000000 0.945561
vn -0.325445 0.000000 0.945561
vn -0.325445 0.000000 0.945561
vn -0.325445 0.000000 0.945561
vn 0.656158 0.000000 0.754624
vn 0.656158 0.000000 0.754624
vn 0.656158 0.000000 0.754624
vn 0.656158 0.000000 0.754624
vn 0.981602 0.000000 -0.190937
vn 0.981602 0.000000 -0.190937
vn 0.981602 0.000000 -0.190937
vn 0.981602 0.000000 -0.190937
vn 0.000000 1.000000 0.000000
vn 0.000000 1.000000 -0.000000
vn 0.000000 1.000000 -0.000000
vn 0.000000 1.000000 -0.000000
vn 0.000000 1.000000 0.000000
vn 0.000000 1.000000 0.000000
vn 0.000000 1.000000 0.000000
vn 0.000000 1.000000 0.000000
vn 0.000000 1.000000 0.000000
vn 0.000000 1.000000 -0.000000
vn -0.308749 0.011938 -0.951069
vn -0.308741 0.014097 -0.951042
vn -0.308739 0.014371 -0.951038
vn -0.308730 0.016241 -0.951011
vn -0.976955 -0.048248 -0.207921
vn -0.976702 -0.053325 -0.207868
vn -0.976787 -0.051681 -0.207885
vn -0.976533 -0.056471 -0.207831
vn -0.667879 -0.065645 0.741370
vn -0.668017 -0.062421 0.741523
vn -0.667639 -0.070871 0.741104
vn -0.667760 -0.068279 0.741238
vn 0.308742 -0.014096 0.951042
vn 0.308750 -0.011938 0.951068
vn 0.308732 -0.016241 0.951011
vn 0.308740 -0.014371 0.951038
vn 0.976702 0.053325 0.207868
vn 0.976955 0.048248 0.207921
vn 0.976533 0.056471 0.207832
vn 0.976787 0.051681 0.207886
vn 0.668017 0.062421 -0.741524
vn 0.667878 0.065645 -0.741370
vn 0.667760 0.068279 -0.741239
vn 0.667639 0.070871 -0.741104
vn 0.000000 1.000000 0.000000
vn 0.000000 1.000000 0.000000
vn 0.000000 1.000000 0.000000
vn 0.000000 1.000000 0.000000
vn 0.000000 1.000000 0.000000
vn 0.000000 1.000000 0.000000
vn 0.000000 1.000000 0.000000
vn 0.000000 1.000000 0.000000
vn 0.000000 1.000000 0.000000
vn 0.000000 1.000000 0.000000
vn -0.971231 0.118250 -0.206704
vn -0.971231 0.118250 -0.206704
vn -0.976702 -0.053325 -0.207868
vn -0.976955 -0.048248 -0.207921
vn -0.661635 0.151129 0.734439
vn -0.661635 0.151129 0.734439
vn -0.668017 -0.062421 0.741523
vn -0.667879 -0.065645 0.741370
vn 0.308596 0.033779 0.950593
vn 0.308596 0.033779 0.950593
vn 0.308750 -0.011938 0.951068
vn 0.308742 -0.014096 0.951042
vn 0.971231 -0.118250 0.206703
vn 0.971231 -0.118250 0.206703
vn 0.976955 0.048248 0.207921
vn 0.976702 0.053325 0.207868
vn 0.661635 -0.151129 -0.734438
vn 0.661635 -0.151129 -0.734438
vn 0.667878 0.065645 -0.741370
vn 0.668017 0.062421 -0.741524
vn -0.308596 -0.033780 -0.950593
vn -0.308596 -0.033780 -0.950593
vn -0.308741 0.014097 -0.951042
vn -0.308749 0.011938 -0.951069
vn 0.976787 0.051681 0.207886
vn 0.976533 0.056471 0.207832
vn 0.970219 -0.126644 0.206488
vn 0.970219 -0.126644 0.206488
vn 0.308740 -0.014371 0.951038
vn 0.308732 -0.016241 0.951011
vn 0.308605 0.032870 0.950622
vn 0.308605 0.032870 0.950622
vn -0.667760 -0.068279 0.741238
vn -0.667639 -0.070871 0.741104
vn -0.660858 0.158529 0.733577
vn -0.660858 0.158529 0.733577
vn -0.976533 -0.056471 -0.207831
vn -0.976787 -0.051681 -0.207885
vn -0.970219 0.126644 -0.206488
vn -0.970219 0.126644 -0.206488
vn -0.308730 0.016241 -0.951011
vn -0.308739 0.014371 -0.951038
vn -0.308604 -0.032870 -0.950622
vn -0.308604 -0.032870 -0.950622
vn 0.667639 0.070871 -0.741104
vn 0.667760 0.068279 -0.741239
vn 0.660858 -0.158530 -0.733577
vn 0.660858 -0.158530 -0.733577
vn 0.000000 0.032906 -0.999459
vn 0.000000 0.043739 -0.999043
vn 0.000000 0.048846 -0.998806
vn 0.000000 0.062303 -0.998057
vn -0.865393 -0.038212 -0.499635
vn -0.864938 -0.050089 -0.499372
vn -0.864635 -0.056650 -0.499197
vn -0.863816 -0.071389 -0.498724
vn -0.863017 -0.083284 0.498262
vn -0.863092 -0.082239 0.498306
vn -0.859716 -0.120494 0.496357
vn -0.859850 -0.119211 0.496435
vn 0.000000 -0.043739 0.999043
vn 0.000000 -0.032906 0.999459
vn 0.000000 -0.062303 0.998057
vn 0.000000 -0.048846 0.998806
vn 0.864939 0.050089 0.499372
vn 0.865393 0.038212 0.499634
vn 0.863816 0.071389 0.498724
vn 0.864635 0.056650 0.499197
vn 0.863092 0.082239 -0.498306
vn 0.863017 0.083284 -0.498262
vn 0.859850 0.119211 -0.496434
vn 0.859716 0.120494 -0.496357
vn 0.000000 1.000000 0.000000
vn 0.000000 1.000000 0.000000
vn 0.000000 1.000000 0.000000
vn 0.000000 1.000000 0.000000
vn 0.000000 1.000000 0.000000
vn 0.000000 1.000000 0.000000
vn 0.000000 1.000000 0.000000
vn 0.000000 1.000000 0.000000
vn 0.000000 1.000000 0.000000
vn 0.000000 1.000000 0.000000
vn -0.866025 0.000000 -0.500000
vn -0.866025 0.000000 -0.500000
vn -0.864938 -0.050089 -0.499372
vn -0.865393 -0.038212 -0.499635
vn -0.866026 0.000000 0.499999
vn -0.866026 0.000000 0.499999
vn -0.863092 -0.082239 0.498306
vn -0.863017 -0.083284 0.498262
vn 0.000000 0.000000 1.000000
vn 0.000000 0.000000 1.000000
vn 0.000000 -0.032906 0.999459
vn 0.000000 -0.043739 0.999043
vn 0.866026 0.000000 0.499999
vn 0.866026 0.000000 0.499999
vn 0.865393 0.038212 0.499634
vn 0.864939 0.050089 0.499372
vn 0.866026 0.000000 -0.500000
vn 0.866026 0.000000 -0.500000
vn 0.863017 0.083284 -0.498262
vn 0.863092 0.082239 -0.498306
vn 0.000000 0.000000 -1.000000
vn 0.000000 0.000000 -1.000000
vn 0.000000 0.043739 -0.999043
vn 0.000000 0.032906 -0.999459
vn 0.864635 0.056650 0.499197
vn 0.863816 0.071389 0.498724
vn 0.866025 0.000000 0.500000
vn 0.866025 0.000000 0.500000
vn 0.000000 -0.048846 0.998806
vn 0.000000 -0.062303 0.998057
vn 0.000000 0.000000 1.000000
vn 0.000000 0.000000 1.000000
vn -0.859850 -0.119211 0.496435
vn -0.859716 -0.120494 0.496357
vn -0.866025 0.000000 0.500000
vn -0.866025 0.000000 0.500000
vn -0.863816 -0.071389 -0.498724
vn -0.864635 -0.056650 -0.499197
vn -0.866025 0.000000 -0.500000
vn -0.866025 0.000000 -0.500000
vn 0.000000 0.062303 -0.998057
vn 0.000000 0.048846 -0.998806
vn 0.000000 0.000000 -1.000000
vn 0.000000 0.000000 -1.000000
vn 0.859716 0.120494 -0.496357
vn 0.859850 0.119211 -0.496434
vn 0.866025 0.000000 -0.500000
vn 0.866025 0.000000 -0.500000
vn 0.500811 0.038631 -0.864694
vn 0.500702 0.043895 -0.864506
vn 0.501184 -0.000798 -0.865340
vn 0.501184 0.000681 -0.865340
vn -0.498807 -0.004832 -0.866699
vn -0.498804 -0.006010 -0.866694
vn -0.498813 0.000190 -0.866710
vn -0.498813 -0.000147 -0.866710
vn -0.999001 -0.044668 -0.001368
vn -0.998810 -0.048753 -0.001368
vn -0.999999 0.000602 -0.001370
vn -0.999999 -0.000540 -0.001370
vn -0.500703 -0.043894 0.864506
vn -0.500812 -0.038631 0.864694
vn -0.501186 -0.000682 0.865340
vn -0.501186 0.000797 0.865340
vn 0.498805 0.006010 0.866693
vn 0.498809 0.004832 0.866699
vn 0.498814 0.000146 0.866709
vn 0.498814 -0.000191 0.866709
vn 0.998810 0.048752 0.001368
vn 0.999001 0.044667 0.001368
vn 0.999999 0.000540 0.001370
vn 0.999999 -0.000602 0.001370
vn 0.000000 1.000000 0.000000
vn 0.000000 1.000000 0.000000
vn 0.000000 1.000000 0.000000
vn 0.000000 1.000000 0.000000
vn 0.000000 1.000000 0.000000
vn 0.000000 1.000000 0.000000
vn 0.000000 1.000000 0.000000
vn 0.000000 1.000000 0.000000
vn 0.000000 1.000000 0.000000
vn 0.000000 1.000000 0.000000
vn -0.999999 0.000000 -0.001370
vn -0.999999 0.000000 -0.001370
vn -0.998810 -0.048753 -0.001368
vn -0.999001 -0.044668 -0.001368
vn -0.501186 0.000000 0.865340
vn -0.501186 0.000000 0.865340
vn -0.500812 -0.038631 0.864694
vn -0.500703 -0.043894 0.864506
vn 0.498814 0.000000 0.866709
vn 0.498814 0.000000 0.866709
vn 0.498809 0.004832 0.866699
vn 0.498805 0.006010 0.866693
vn 0.999999 0.000000 0.001370
vn 0.999999 0.000000 0.001370
vn 0.999001 0.044667 0.001368
vn 0.998810 0.048752 0.001368
vn 0.501185 0.000000 -0.865340
vn 0.501185 0.000000 -0.865340
vn 0.500702 0.043895 -0.864506
vn 0.500811 0.038631 -0.864694
vn -0.498813 0.000000 -0.866709
vn -0.498813 0.000000 -0.866709
vn -0.498804 -0.006010 -0.866694
vn -0.498807 -0.004832 -0.866699
vn 0.999999 -0.000602 0.001370
vn 0.999999 0.000540 0.001370
vn 0.983571 -0.180519 0.001347
vn 0.983571 -0.180519 0.001347
vn 0.498814 -0.000191 0.866709
vn 0.498814 0.000146 0.866709
vn 0.498701 -0.021335 0.866512
vn 0.498701 -0.021335 0.866512
vn -0.501186 0.000797 0.865340
vn -0.501186 -0.000682 0.865340
vn -0.494721 0.160103 0.854177
vn -0.494721 0.160103 0.854177
vn -0.999999 -0.000540 -0.001370
vn -0.999999 0.000602 -0.001370
vn -0.983570 0.180520 -0.001347
vn -0.983570 0.180520 -0.001347
vn -0.498813 -0.000147 -0.866710
vn -0.498813 0.000190 -0.866710
vn -0.498700 0.021334 -0.866512
vn -0.498700 0.021334 -0.866512
vn 0.501184 0.000681 -0.865340
vn 0.501184 -0.000798 -0.865340
vn 0.494720 -0.160104 -0.854178
vn 0.494720 -0.160104 -0.854178
s off
f 1/1/1 2/2/2 8/9/3 7/8/4
f 2/2/5 3/3/6 9/10/7 8/9/8
f 3/3/9 4/4/10 10/11/11 9/10/12
f 4/4/13 5/5/14 11/12/15 10/11/16
f 5/5/17 6/6/18 12/13/19 11/12/20
f 6/6/21 1/7/22 7/14/23 12/13/24
f 13/22/25 9/17/26 10/16/27 11/15/28 12/21/29
f 13/23/30 12/20/31 7/19/32 8/18/33 9/24/34
f 14/25/35 15/26/36 21/27/37 20/28/38
f 15/26/39 16/29/40 22/30/41 21/27/42
f 16/29/43 17/31/44 23/32/45 22/30/46
f 17/31/47 18/33/48 24/34/49 23/32/50
f 18/33/51 19/35/52 25/36/53 24/34/54
f 19/35/55 14/37/56 20/38/57 25/36/58
f 26/43/59 22/42/60 23/44/61 24/45/62 25/46/63
f 26/48/64 25/47/65 20/39/66 21/40/67 22/41/68
f 27/49/69 28/50/70 34/51/71 33/52/72
f 28/50/73 29/53/74 35/54/75 34/51/76
f 29/53/77 30/55/78 36/56/79 35/54/80
f 30/55/81 31/57/82 37/58/83 36/56/84
f 31/57/85 32/59/86 38/60/87 37/58/88
f 32/59/89 27/61/90 33/62/91 38/60/92
f 39/66/93 34/65/94 35/67/95 36/68/96 37/69/97
f 39/71/98 37/70/99 38/72/100 33/63/101 34/64/102
f 58/73/103 53/74/104 63/75/105 64/76/106
f 53/74/107 54/77/108 62/78/109 63/75/110
f 54/77/111 55/79/112 61/80/113 62/78/114
f 55/79/115 56/81/116 60/82/117 61/80/118
f 56/81/119 57/83/120 59/84/121 60/82/122
f 57/83/123 58/85/124 64/86/125 59/84/126
f 52/90/127 47/89/128 48/91/129 49/92/130 50/93/131
f 52/95/132 50/94/133 51/96/134 46/87/135 47/88/136
f 41/97/137 42/98/138 54/77/139 53/74/140
f 42/98/141 43/99/142 55/79/143 54/77/144
f 43/99/145 44/100/146 56/81/147 55/79/148
f 44/100/149 45/101/150 57/83/151 56/81/152
f 45/101/153 40/102/154 58/85/155 57/83/156
f 40/103/157 41/97/158 53/74/159 58/73/160
f 60/82/161 59/84/162 51/104/163 50/105/164
f 61/80/165 60/82/166 50/105/167 49/106/168
f 62/78/169 61/80/170 49/106/171 48/107/172
f 63/75/173 62/78/174 48/107/175 47/108/176
f 64/76/177 63/75/178 47/108/179 46/109/180
f 59/84/181 64/86/182 46/110/183 51/104/184
f 83/111/185 78/112/186 88/113/187 89/114/188
f 78/112/189 79/115/190 87/116/191 88/113/192
f 79/115/193 80/117/194 86/118/195 87/116/196
f 80/117/197 81/119/198 85/120/199 86/118/200
f 81/119/201 82/121/202 84/122/203 85/120/204
f 82/121/205 83/123/206 89/124/207 84/122/208
f 77/129/209 73/128/210 74/130/211 75/131/212 76/132/213
f 77/134/214 76/133/215 71/125/216 72/126/217 73/127/218
f 66/135/219 67/136/220 79/115/221 78/112/222
f 67/136/223 68/137/224 80/117/225 79/115/226
f 68/137/227 69/138/228 81/119/229 80/117/230
f 69/138/231 70/139/232 82/121/233 81/119/234
f 70/139/235 65/140/236 83/123/237 82/121/238
f 65/141/239 66/135/240 78/112/241 83/111/242
f 85/120/243 84/122/244 76/142/245 75/143/246
f 86/118/247 85/120/248 75/143/249 74/144/250
f 87/116/251 86/118/252 74/144/253 73/145/254
f 88/113/255 87/116/256 73/145/257 72/146/258
f 89/114/259 88/113/260 72/146/261 71/147/262
f 84/122/263 89/124/264 71/148/265 76/142/266
f 107/149/267 108/150/268 114/151/269 109/152/270
f 108/150/271 103/153/272 113/154/273 114/151/274
f 103/153/275 104/155/276 112/156/277 113/154/278
f 104/155/279 105/157/280 111/158/281 112/156/282
f 105/157/283 106/159/284 110/160/285 111/158/286
f 106/159/287 107/161/288 109/162/289 110/160/290
f 102/167/291 98/166/292 99/168/293 100/169/294 101/170/295
f 102/172/296 101/171/297 96/163/298 97/164/299 98/165/300
f 92/173/301 93/174/302 104/155/303 103/153/304
f 93/174/305 94/175/306 105/157/307 104/155/308
f 94/175/309 95/176/310 106/159/311 105/157/312
f 95/176/313 90/177/314 107/161/315 106/159/316
f 90/178/317 91/179/318 108/150/319 107/149/320
f 91/179/321 92/173/322 103/153/323 108/150/324
f 110/160/325 109/162/326 96/180/327 101/181/328
f 111/158/329 110/160/330 101/181/331 100/182/332
f 112/156/333 111/158/334 100/182/335 99/183/336
f 113/154/337 112/156/338 99/183/339 98/184/340
f 114/151/341 113/154/342 98/184/343 97/185/344
f 109/152/345 114/151/346 97/185/347 96/186/348
