# This file uses meters as units for non-parametric coordinates.

v -0.268097 1.021998 0.268143
v 0.268204 1.021975 0.268127
v -0.268234 1.022015 -0.268158
v 0.268097 1.022009 -0.268158
v -0.150879 1.021980 0.150826
v 0.150848 1.021998 0.150841
v 0.150848 1.022010 -0.150856
v -0.150879 1.022004 -0.150871
v -0.103638 0.897304 0.103676
v 0.103760 0.897337 0.103691
v 0.103729 0.897324 -0.103737
v -0.103760 0.897335 -0.103737
v -0.268127 0.898129 -0.268173
v -0.268204 0.898127 0.268158
v 0.268204 0.898131 0.268158
v 0.268204 0.898125 -0.268188
v -0.460632 0.535039 -0.460587
v -0.460480 0.535020 0.460510
v 0.460632 0.535028 0.460510
v 0.460480 0.535039 -0.460587
v 0.204895 0.714876 0.204750
v -0.204681 0.714874 0.204720
v -0.204712 0.714858 -0.204842
v 0.204865 0.714888 -0.204826
v -0.460510 0.372108 0.460541
v -0.460602 0.372121 -0.460526
v 0.460480 0.372123 -0.460526
v 0.460510 0.372130 0.460587
v -0.401825 0.230546 0.436966
v -0.410110 -0.033647 -0.410065
v 0.410080 -0.033666 -0.410103
v 0.418198 0.230560 0.436981
v -0.295593 0.195981 0.326134
v -0.301819 0.000925 -0.299232
v 0.303757 0.000932 -0.299263
v 0.309906 0.195961 0.326103
v -0.287415 0.329628 0.268631
v -0.293442 0.134555 -0.356750
v 0.312119 0.134548 -0.356750
v 0.318130 0.329627 0.268631
vt 0.640323 0.428886
vt 0.640323 0.428886
vt 0.640323 0.428886
vt 0.640323 0.428886
vt 0.548870 0.428886
vt 0.548870 0.428886
vt 0.548870 0.428886
vt 0.548870 0.428886
vt 0.640323 0.428886
vt 0.640323 0.428886
vt 0.640323 0.428886
vt 0.640323 0.428886
vt 0.608556 0.428886
vt 0.608556 0.428886
vt 0.608556 0.428886
vt 0.608556 0.428886
vt 0.608556 0.428886
vt 0.608556 0.428886
vt 0.608556 0.428886
vt 0.608556 0.428886
vt 0.671714 0.428886
vt 0.671714 0.428886
vt 0.671714 0.428886
vt 0.671714 0.428886
vt 0.671714 0.428886
vt 0.671714 0.428886
vt 0.671714 0.428886
vt 0.671714 0.428886
vt 0.671714 0.428886
vt 0.671714 0.428886
vt 0.671714 0.428886
vt 0.671714 0.428886
vt 0.671714 0.428886
vt 0.671714 0.428886
vt 0.671714 0.428886
vt 0.671714 0.428886
vt 0.643121 0.428886
vt 0.643121 0.428886
vt 0.643121 0.428886
vt 0.643121 0.428886
vt 0.615587 0.428886
vt 0.615587 0.428886
vt 0.615587 0.428886
vt 0.615587 0.428886
vt 0.643121 0.428886
vt 0.643121 0.428886
vt 0.643121 0.428886
vt 0.643121 0.428886
vt 0.615587 0.428886
vt 0.615587 0.428886
vt 0.615587 0.428886
vt 0.615587 0.428886
vt 0.645931 0.428886
vt 0.645931 0.428886
vt 0.645931 0.428886
vt 0.645931 0.428886
vt 0.677698 0.428886
vt 0.677698 0.428886
vt 0.677698 0.428886
vt 0.677698 0.428886
vt 0.645931 0.428886
vt 0.645931 0.428886
vt 0.645931 0.428886
vt 0.645931 0.428886
vt 0.677698 0.428886
vt 0.677698 0.428886
vt 0.677698 0.428886
vt 0.677698 0.428886
vt 0.608556 0.404201
vt 0.608556 0.404201
vt 0.640323 0.404201
vt 0.640323 0.404201
vt 0.608556 0.404201
vt 0.608556 0.404201
vt 0.640323 0.404201
vt 0.640323 0.404201
vt 0.614022 0.428886
vt 0.614022 0.428886
vt 0.614022 0.428886
vt 0.614022 0.428886
vt 0.582255 0.428886
vt 0.582255 0.428886
vt 0.582255 0.428886
vt 0.582255 0.428886
vt 0.614022 0.428886
vt 0.614022 0.428886
vt 0.614022 0.428886
vt 0.614022 0.428886
vt 0.582255 0.428886
vt 0.582255 0.428886
vt 0.582255 0.428886
vt 0.582255 0.428886
vt 0.608556 0.428886
vt 0.640323 0.428886
vt 0.608556 0.404201
vt 0.640323 0.404201
vt 0.608556 0.404201
vt 0.640323 0.404201
vt 0.640323 0.404201
vt 0.608556 0.404201
vt 0.608556 0.428886
vt 0.640323 0.428886
vt 0.608556 0.404201
vt 0.640323 0.404201
vt 0.640323 0.428886
vt 0.608556 0.428886
vt 0.608556 0.428886
vt 0.640323 0.428886
vt 0.608556 0.428886
vt 0.640323 0.428886
vt 0.608556 0.428886
vt 0.640323 0.428886
vt 0.608556 0.428886
vt 0.640323 0.428886
vt 0.640323 0.428886
vt 0.608556 0.428886
vt 0.576980 0.449365
vt 0.576980 0.449365
vt 0.576980 0.449365
vt 0.576980 0.449365
vt 0.576980 0.449365
vt 0.576980 0.449365
vt 0.576979 0.449365
vt 0.576979 0.449365
vt 0.580567 0.485240
vt 0.580567 0.485240
vt 0.580567 0.485240
vt 0.580567 0.485240
vt 0.580567 0.485240
vt 0.580567 0.485240
vt 0.580566 0.485240
vt 0.580566 0.485240
vn 0.000000 -0.000000 1.000000
vn 0.000000 -0.000000 1.000000
vn 0.000000 -0.000000 1.000000
vn 0.000000 -0.000000 1.000000
vn 0.000000 1.000000 -0.000000
vn 0.000000 1.000000 -0.000000
vn 0.000000 1.000000 -0.000000
vn 0.000000 1.000000 -0.000000
vn -0.000000 0.000000 -1.000000
vn -0.000000 0.000000 -1.000000
vn -0.000000 0.000000 -1.000000
vn -0.000000 0.000000 -1.000000
vn 1.000000 0.000000 0.000000
vn 1.000000 0.000000 0.000000
vn 1.000000 0.000000 0.000000
vn 1.000000 0.000000 0.000000
vn -1.000000 -0.000000 -0.000000
vn -1.000000 -0.000000 -0.000000
vn -1.000000 -0.000000 -0.000000
vn -1.000000 -0.000000 -0.000000
vn 0.000000 1.000000 -0.000000
vn 0.000000 1.000000 -0.000000
vn 0.000000 1.000000 -0.000000
vn 0.000000 1.000000 -0.000000
vn 0.000000 1.000000 -0.000000
vn 0.000000 1.000000 -0.000000
vn 0.000000 1.000000 -0.000000
vn 0.000000 1.000000 -0.000000
vn 0.000000 1.000000 0.000000
vn 0.000000 1.000000 0.000000
vn 0.000000 1.000000 0.000000
vn 0.000000 1.000000 0.000000
vn 0.000000 1.000000 -0.000000
vn 0.000000 1.000000 -0.000000
vn 0.000000 1.000000 0.000000
vn 0.000000 1.000000 0.000000
vn -0.000000 0.353768 -0.935333
vn -0.000000 0.353768 -0.935333
vn -0.000000 0.353768 -0.935333
vn -0.000000 0.353768 -0.935333
vn -0.935301 0.353852 -0.000000
vn -0.935301 0.353852 -0.000000
vn -0.935301 0.353853 -0.000000
vn -0.935301 0.353853 -0.000000
vn 0.000000 0.353768 0.935333
vn 0.000000 0.353768 0.935333
vn 0.000000 0.353768 0.935333
vn 0.000000 0.353768 0.935333
vn 0.935283 0.353900 0.000000
vn 0.935283 0.353900 0.000000
vn 0.935283 0.353900 0.000000
vn 0.935283 0.353900 0.000000
vn -0.575163 0.818039 0.000000
vn -0.575163 0.818039 0.000000
vn -0.575163 0.818039 0.000000
vn -0.575163 0.818039 0.000000
vn 0.000000 0.817959 0.575276
vn 0.000000 0.817959 0.575276
vn 0.000000 0.817959 0.575276
vn 0.000000 0.817959 0.575276
vn 0.575262 0.817970 0.000000
vn 0.575262 0.817970 0.000000
vn 0.575262 0.817969 0.000000
vn 0.575262 0.817969 0.000000
vn -0.000000 0.817960 -0.575275
vn -0.000000 0.817960 -0.575275
vn -0.000000 0.817960 -0.575275
vn -0.000000 0.817960 -0.575275
vn 0.000000 -0.326807 0.945091
vn 0.000000 -0.326807 0.945091
vn 0.000000 -0.326807 0.945091
vn 0.000000 -0.326807 0.945091
vn -0.945010 -0.327043 -0.000000
vn -0.945010 -0.327043 -0.000000
vn -0.945010 -0.327043 -0.000000
vn -0.945010 -0.327043 -0.000000
vn -0.000000 -0.326806 -0.945092
vn -0.000000 -0.326806 -0.945091
vn -0.000000 -0.326806 -0.945092
vn -0.000000 -0.326806 -0.945092
vn 0.945169 -0.326581 0.000000
vn 0.945169 -0.326581 0.000000
vn 0.945169 -0.326581 0.000000
vn 0.945169 -0.326581 0.000000
vn -0.992836 -0.117720 0.020462
vn -0.992952 -0.116769 0.020298
vn -1.000000 -0.000000 -0.000000
vn -1.000000 -0.000000 -0.000000
vn -0.000000 0.000000 -1.000000
vn -0.000000 0.000000 -1.000000
vn -0.000016 -0.084911 -0.996389
vn -0.000016 -0.084903 -0.996389
vn 0.994954 -0.099601 0.012099
vn 0.994854 -0.100576 0.012219
vn 1.000000 0.000000 0.000000
vn 1.000000 0.000000 0.000000
vn -0.000027 -0.063347 0.997992
vn -0.000028 -0.066575 0.997781
vn 0.000000 -0.000000 1.000000
vn 0.000000 -0.000000 1.000000
vn -0.980441 -0.193918 0.033619
vn -0.980441 -0.193918 0.033619
vn -0.992952 -0.116769 0.020298
vn -0.992836 -0.117720 0.020462
vn -0.000016 -0.084903 -0.996389
vn -0.000016 -0.084911 -0.996389
vn -0.000023 -0.123359 -0.992362
vn -0.000023 -0.123359 -0.992362
vn 0.985917 -0.166003 0.020264
vn 0.985917 -0.166003 0.020264
vn 0.994854 -0.100576 0.012219
vn 0.994954 -0.099601 0.012099
vn -0.000031 -0.164372 0.986398
vn -0.000031 -0.164372 0.986398
vn -0.000028 -0.066575 0.997781
vn -0.000027 -0.063347 0.997992
vn 0.000029 -0.954641 0.297758
vn 0.000029 -0.954641 0.297758
vn 0.000029 -0.954641 0.297758
vn 0.000029 -0.954641 0.297758
vn 0.000006 -0.954606 0.297871
vn 0.000006 -0.954606 0.297871
vn 0.000006 -0.954606 0.297871
vn 0.000006 -0.954606 0.297871
vn -0.000050 -0.954643 0.297752
vn -0.000050 -0.954643 0.297752
vn -0.000050 -0.954643 0.297752
vn -0.000050 -0.954643 0.297752
vn -0.000001 -0.954628 0.297801
vn -0.000001 -0.954628 0.297801
vn -0.000001 -0.954628 0.297801
vn -0.000001 -0.954628 0.297801
vn 0.998268 -0.058228 0.008383
vn 0.998268 -0.058228 0.008383
vn 0.998268 -0.058228 0.008383
vn 0.998268 -0.058228 0.008383
vn 0.000023 0.395286 0.918558
vn 0.000023 0.395286 0.918558
vn 0.000023 0.395286 0.918558
vn 0.000023 0.395286 0.918558
vn -0.998263 0.058301 -0.008478
vn -0.998263 0.058301 -0.008478
vn -0.998263 0.058301 -0.008478
vn -0.998263 0.058301 -0.008478
vn -0.000030 -0.395115 -0.918632
vn -0.000030 -0.395115 -0.918632
vn -0.000030 -0.395115 -0.918632
vn -0.000030 -0.395115 -0.918632
vn -0.000006 -0.954634 0.297780
vn -0.000006 -0.954635 0.297780
vn -0.000006 -0.954635 0.297780
vn -0.000006 -0.954635 0.297780
s off
f 14/1/1 15/2/2 2/3/3 1/4/4
f 9/5/5 10/6/6 11/7/7 12/8/8
f 3/9/9 4/10/10 16/11/11 13/12/12
f 15/13/13 16/14/14 4/15/15 2/16/16
f 13/17/17 14/18/18 1/19/19 3/20/20
f 1/21/21 2/22/22 6/23/23 5/24/24
f 2/25/25 4/26/26 7/27/27 6/28/28
f 4/29/29 3/30/30 8/31/31 7/32/32
f 3/33/33 1/34/34 5/35/35 8/36/36
f 5/37/37 6/38/38 10/39/39 9/40/40
f 6/41/41 7/42/42 11/43/43 10/44/44
f 7/45/45 8/46/46 12/47/47 11/48/48
f 8/49/49 5/50/50 9/51/51 12/52/52
f 17/53/53 18/54/54 22/55/55 23/56/56
f 18/57/57 19/58/58 21/59/59 22/60/60
f 19/61/61 20/62/62 24/63/63 21/64/64
f 23/65/65 24/66/66 20/67/67 17/68/68
f 22/77/69 21/78/70 15/79/71 14/80/72
f 23/81/73 22/82/74 14/83/75 13/84/76
f 13/85/77 16/86/78 24/87/79 23/88/80
f 21/89/81 24/90/82 16/91/83 15/92/84
f 26/95/85 25/103/86 18/69/87 17/70/88
f 17/75/89 20/76/90 27/98/91 26/96/92
f 28/100/93 27/97/94 20/73/95 19/74/96
f 25/104/97 28/99/98 19/71/99 18/72/100
f 30/111/101 29/109/102 25/93/103 26/107/104
f 26/108/105 27/105/106 31/114/107 30/112/108
f 32/116/109 31/113/110 27/106/111 28/101/112
f 29/110/113 32/115/114 28/102/115 25/94/116
f 29/117/117 30/118/118 34/119/119 33/120/120
f 30/118/121 31/121/122 35/122/123 34/119/124
f 31/121/125 32/123/126 36/124/127 35/122/128
f 32/123/129 29/117/130 33/120/131 36/124/132
f 33/125/133 34/126/134 38/127/135 37/128/136
f 34/126/137 35/129/138 39/130/139 38/127/140
f 35/129/141 36/131/142 40/132/143 39/130/144
f 36/131/145 33/125/146 37/128/147 40/132/148
f 40/132/149 37/128/150 38/127/151 39/130/152
