# This file uses meters as units for non-parametric coordinates.

v -0.219070 0.014760 0.219086
v 0.219070 0.014760 0.219086
v -0.268158 1.657656 0.268166
v 0.268158 1.657656 0.268166
v -0.268158 1.657656 -0.268166
v 0.268158 1.657656 -0.268166
v -0.219070 0.014760 -0.219086
v 0.219070 0.014760 -0.219086
v -0.150864 1.657656 0.150864
v 0.150864 1.657656 0.150864
v 0.150864 1.657656 -0.150864
v -0.150864 1.657656 -0.150864
v -0.103714 1.533000 0.103714
v 0.103714 1.533000 0.103714
v 0.103714 1.533000 -0.103714
v -0.103714 1.533000 -0.103714
v -0.268158 1.533779 -0.268166
v -0.268158 1.533779 0.268166
v 0.268158 1.533779 0.268166
v 0.268158 1.533779 -0.268166
v -0.460556 1.170691 -0.460548
v -0.460556 1.170691 0.460548
v 0.460556 1.170691 0.460548
v 0.460556 1.170691 -0.460548
v -0.361847 0.214176 -0.361839
v -0.361847 0.214176 0.361839
v 0.361847 0.214176 0.361839
v 0.361847 0.214176 -0.361839
v 0.204819 1.350553 0.204803
v -0.204788 1.350553 0.204803
v -0.204788 1.350553 -0.204803
v 0.204819 1.350553 -0.204803
v -0.460556 1.007764 0.460548
v -0.460556 1.007764 -0.460548
v 0.460556 1.007764 -0.460548
v 0.460556 1.007764 0.460548
vt 0.640323 0.428886
vt 0.640323 0.428886
vt 0.640323 0.428886
vt 0.640323 0.428886
vt 0.548870 0.428886
vt 0.548870 0.428886
vt 0.548870 0.428886
vt 0.548870 0.428886
vt 0.640323 0.428886
vt 0.640323 0.428886
vt 0.640323 0.428886
vt 0.640323 0.428886
vt 0.575084 0.428886
vt 0.575084 0.428886
vt 0.575084 0.428886
vt 0.575084 0.428886
vt 0.608556 0.428886
vt 0.608556 0.428886
vt 0.608556 0.428886
vt 0.608556 0.428886
vt 0.608556 0.428886
vt 0.608556 0.428886
vt 0.608556 0.428886
vt 0.608556 0.428886
vt 0.671714 0.428886
vt 0.671714 0.428886
vt 0.671714 0.428886
vt 0.671714 0.428886
vt 0.671714 0.428886
vt 0.671714 0.428886
vt 0.671714 0.428886
vt 0.671714 0.428886
vt 0.671714 0.428886
vt 0.671714 0.428886
vt 0.671714 0.428886
vt 0.671714 0.428886
vt 0.671714 0.428886
vt 0.671714 0.428886
vt 0.671714 0.428886
vt 0.671714 0.428886
vt 0.643121 0.428886
vt 0.643121 0.428886
vt 0.643121 0.428886
vt 0.643121 0.428886
vt 0.615587 0.428886
vt 0.615587 0.428886
vt 0.615587 0.428886
vt 0.615587 0.428886
vt 0.643121 0.428886
vt 0.643121 0.428886
vt 0.643121 0.428886
vt 0.643121 0.428886
vt 0.615587 0.428886
vt 0.615587 0.428886
vt 0.615587 0.428886
vt 0.615587 0.428886
vt 0.645931 0.428886
vt 0.645931 0.428886
vt 0.645931 0.428886
vt 0.645931 0.428886
vt 0.677698 0.428886
vt 0.677698 0.428886
vt 0.677698 0.428886
vt 0.677698 0.428886
vt 0.645931 0.428886
vt 0.645931 0.428886
vt 0.645931 0.428886
vt 0.645931 0.428886
vt 0.677698 0.428886
vt 0.677698 0.428886
vt 0.677698 0.428886
vt 0.677698 0.428886
vt 0.608556 0.428886
vt 0.608556 0.428886
vt 0.608556 0.404201
vt 0.608556 0.404201
vt 0.640323 0.428886
vt 0.640323 0.428886
vt 0.640323 0.404201
vt 0.640323 0.404201
vt 0.608556 0.428886
vt 0.608556 0.428886
vt 0.608556 0.404201
vt 0.608556 0.404201
vt 0.640323 0.404201
vt 0.640323 0.404201
vt 0.640323 0.428886
vt 0.640323 0.428886
vt 0.576718 0.428886
vt 0.576718 0.428886
vt 0.576718 0.428886
vt 0.576718 0.428886
vt 0.608485 0.428886
vt 0.608485 0.428886
vt 0.608485 0.428886
vt 0.608485 0.428886
vt 0.576718 0.428886
vt 0.576718 0.428886
vt 0.576718 0.428886
vt 0.576718 0.428886
vt 0.608485 0.428886
vt 0.608485 0.428886
vt 0.608485 0.428886
vt 0.608485 0.428886
vt 0.614022 0.428886
vt 0.614022 0.428886
vt 0.614022 0.428886
vt 0.614022 0.428886
vt 0.582255 0.428886
vt 0.582255 0.428886
vt 0.582255 0.428886
vt 0.582255 0.428886
vt 0.614022 0.428886
vt 0.614022 0.428886
vt 0.614022 0.428886
vt 0.614022 0.428886
vt 0.582255 0.428886
vt 0.582255 0.428886
vt 0.582255 0.428886
vt 0.582255 0.428886
vt 0.608556 0.428886
vt 0.640323 0.428886
vt 0.608556 0.404201
vt 0.640323 0.404201
vt 0.608556 0.404201
vt 0.640323 0.404201
vt 0.640323 0.404201
vt 0.608556 0.404201
vt 0.608556 0.428886
vt 0.640323 0.428886
vt 0.608556 0.404201
vt 0.640323 0.404201
vt 0.640323 0.428886
vt 0.608556 0.428886
vt 0.608556 0.428886
vt 0.640323 0.428886
vn 0.000000 0.000000 1.000000
vn 0.000000 0.000000 1.000000
vn 0.000000 0.000000 1.000000
vn 0.000000 0.000000 1.000000
vn 0.000000 1.000000 0.000000
vn 0.000000 1.000000 0.000000
vn 0.000000 1.000000 0.000000
vn 0.000000 1.000000 0.000000
vn 0.000000 0.000000 -1.000000
vn 0.000000 0.000000 -1.000000
vn 0.000000 0.000000 -1.000000
vn 0.000000 0.000000 -1.000000
vn 0.000000 -1.000000 0.000000
vn 0.000000 -1.000000 0.000000
vn 0.000000 -1.000000 0.000000
vn 0.000000 -1.000000 0.000000
vn 1.000000 0.000000 0.000000
vn 1.000000 0.000000 0.000000
vn 1.000000 0.000000 0.000000
vn 1.000000 0.000000 0.000000
vn -1.000000 0.000000 0.000000
vn -1.000000 0.000000 0.000000
vn -1.000000 0.000000 0.000000
vn -1.000000 0.000000 0.000000
vn 0.000000 1.000000 -0.000000
vn 0.000000 1.000000 -0.000000
vn 0.000000 1.000000 -0.000000
vn 0.000000 1.000000 -0.000000
vn 0.000000 1.000000 0.000000
vn 0.000000 1.000000 0.000000
vn 0.000000 1.000000 0.000000
vn 0.000000 1.000000 0.000000
vn 0.000000 1.000000 0.000000
vn 0.000000 1.000000 0.000000
vn 0.000000 1.000000 0.000000
vn 0.000000 1.000000 0.000000
vn 0.000000 1.000000 0.000000
vn 0.000000 1.000000 0.000000
vn 0.000000 1.000000 0.000000
vn 0.000000 1.000000 0.000000
vn 0.000000 0.353768 -0.935333
vn 0.000000 0.353768 -0.935333
vn 0.000000 0.353768 -0.935333
vn 0.000000 0.353768 -0.935333
vn -0.935301 0.353853 0.000000
vn -0.935301 0.353853 0.000000
vn -0.935301 0.353853 0.000000
vn -0.935301 0.353853 0.000000
vn 0.000000 0.353768 0.935333
vn 0.000000 0.353768 0.935333
vn 0.000000 0.353768 0.935333
vn 0.000000 0.353768 0.935333
vn 0.935283 0.353900 0.000000
vn 0.935283 0.353900 0.000000
vn 0.935283 0.353900 0.000000
vn 0.935283 0.353900 0.000000
vn -0.575163 0.818039 0.000000
vn -0.575163 0.818039 0.000000
vn -0.575163 0.818039 0.000000
vn -0.575163 0.818039 0.000000
vn 0.000000 0.817959 0.575276
vn 0.000000 0.817960 0.575276
vn 0.000000 0.817960 0.575276
vn 0.000000 0.817960 0.575276
vn 0.575262 0.817970 0.000000
vn 0.575262 0.817970 0.000000
vn 0.575262 0.817970 0.000000
vn 0.575262 0.817970 0.000000
vn 0.000000 0.817960 -0.575276
vn 0.000000 0.817960 -0.575276
vn 0.000000 0.817960 -0.575276
vn 0.000000 0.817960 -0.575276
vn -1.000000 0.000000 0.000000
vn -1.000000 0.000000 0.000000
vn -0.995081 -0.099061 -0.000000
vn -0.995081 -0.099061 -0.000000
vn 0.000000 0.000000 1.000000
vn 0.000000 0.000000 1.000000
vn 0.000000 -0.099061 0.995081
vn 0.000000 -0.099061 0.995081
vn 1.000000 0.000000 0.000000
vn 1.000000 0.000000 0.000000
vn 0.995081 -0.099061 -0.000000
vn 0.995081 -0.099061 -0.000000
vn 0.000000 -0.099061 -0.995081
vn 0.000000 -0.099061 -0.995081
vn 0.000000 0.000000 -1.000000
vn 0.000000 0.000000 -1.000000
vn -0.739226 -0.673458 -0.000000
vn -0.739226 -0.673458 -0.000000
vn -0.739226 -0.673458 -0.000000
vn -0.739226 -0.673458 -0.000000
vn 0.000000 -0.673501 0.739186
vn 0.000000 -0.673501 0.739186
vn 0.000000 -0.673501 0.739186
vn 0.000000 -0.673501 0.739186
vn 0.739226 -0.673458 -0.000000
vn 0.739226 -0.673458 -0.000000
vn 0.739226 -0.673458 -0.000000
vn 0.739226 -0.673458 -0.000000
vn 0.000000 -0.673501 -0.739186
vn 0.000000 -0.673501 -0.739186
vn 0.000000 -0.673501 -0.739186
vn 0.000000 -0.673501 -0.739186
vn 0.000000 -0.326806 0.945091
vn 0.000000 -0.326806 0.945091
vn 0.000000 -0.326806 0.945091
vn 0.000000 -0.326806 0.945091
vn -0.945010 -0.327043 0.000000
vn -0.945010 -0.327043 0.000000
vn -0.945010 -0.327043 0.000000
vn -0.945010 -0.327043 0.000000
vn 0.000000 -0.326806 -0.945091
vn 0.000000 -0.326806 -0.945091
vn 0.000000 -0.326806 -0.945091
vn 0.000000 -0.326806 -0.945091
vn 0.945169 -0.326581 0.000000
vn 0.945169 -0.326581 0.000000
vn 0.945169 -0.326581 0.000000
vn 0.945169 -0.326581 0.000000
vn -0.995081 -0.099061 -0.000000
vn -0.995081 -0.099061 -0.000000
vn -1.000000 0.000000 0.000000
vn -1.000000 0.000000 0.000000
vn 0.000000 0.000000 -1.000000
vn 0.000000 0.000000 -1.000000
vn 0.000000 -0.099061 -0.995081
vn 0.000000 -0.099061 -0.995081
vn 0.995081 -0.099061 -0.000000
vn 0.995081 -0.099061 -0.000000
vn 1.000000 0.000000 0.000000
vn 1.000000 0.000000 0.000000
vn 0.000000 -0.099061 0.995081
vn 0.000000 -0.099061 0.995081
vn 0.000000 0.000000 1.000000
vn 0.000000 0.000000 1.000000
s off
f 18/1/1 19/2/2 4/3/3 3/4/4
f 13/5/5 14/6/6 15/7/7 16/8/8
f 5/9/9 6/10/10 20/11/11 17/12/12
f 7/13/13 8/14/14 2/15/15 1/16/16
f 19/17/17 20/18/18 6/19/19 4/20/20
f 17/21/21 18/22/22 3/23/23 5/24/24
f 3/25/25 4/26/26 10/27/27 9/28/28
f 4/29/29 6/30/30 11/31/31 10/32/32
f 6/33/33 5/34/34 12/35/35 11/36/36
f 5/37/37 3/38/38 9/39/39 12/40/40
f 9/41/41 10/42/42 14/43/43 13/44/44
f 10/45/45 11/46/46 15/47/47 14/48/48
f 11/49/49 12/50/50 16/51/51 15/52/52
f 12/53/53 9/54/54 13/55/55 16/56/56
f 21/57/57 22/58/58 30/59/59 31/60/60
f 22/61/61 23/62/62 29/63/63 30/64/64
f 23/65/65 24/66/66 32/67/67 29/68/68
f 31/69/69 32/70/70 24/71/71 21/72/72
f 25/73/73 26/74/74 33/121/75 34/135/76
f 26/77/77 27/78/78 36/130/79 33/122/80
f 27/81/81 28/82/82 35/134/83 36/129/84
f 34/136/85 35/133/86 28/87/87 25/88/88
f 7/89/89 1/90/90 26/91/91 25/92/92
f 1/93/93 2/94/94 27/95/95 26/96/96
f 2/97/97 8/98/98 28/99/99 27/100/100
f 25/101/101 28/102/102 8/103/103 7/104/104
f 30/105/105 29/106/106 19/107/107 18/108/108
f 31/109/109 30/110/110 18/111/111 17/112/112
f 17/113/113 20/114/114 32/115/115 31/116/116
f 29/117/117 32/118/118 20/119/119 19/120/120
f 34/123/121 33/131/122 22/75/123 21/76/124
f 21/85/125 24/86/126 35/126/127 34/124/128
f 36/128/129 35/125/130 24/83/131 23/84/132
f 33/132/133 36/127/134 23/79/135 22/80/136
