# This file uses meters as units for non-parametric coordinates.

v -0.994228 -2.252758 0.083170
v 0.994228 -2.344629 0.083170
v -0.994228 2.441841 0.083170
v 0.994228 2.441841 0.083170
v -0.994228 2.441841 -0.083170
v 0.994228 2.441841 -0.083170
v -0.994228 -2.252758 -0.083170
v 0.994228 -2.344629 -0.083170
v -0.824333 -0.419351 0.083170
v 0.824341 -0.419351 0.083170
v 0.824341 1.328897 0.083170
v -0.824333 1.328897 0.083170
v -0.994225 -0.619644 0.083170
v 0.994228 -0.619644 0.083170
v 0.994228 -0.619644 -0.083170
v -0.994228 -0.619644 -0.083170
v 0.008987 -0.619644 0.083170
v 0.061718 -2.441841 0.083170
v 0.000000 -2.441841 -0.083170
v -0.017380 -0.619644 -0.083170
v -0.465145 -0.619644 0.083170
v -0.553581 -2.353950 0.083170
v -0.553577 -2.353950 -0.083170
v -0.465145 -0.619644 -0.083170
v 0.629799 -0.619644 -0.083170
v 0.629799 -2.252758 -0.083170
v 0.629799 -2.252758 0.083170
v 0.629803 -0.619644 0.083170
v -0.465145 -0.619644 -0.083170
v -0.376720 -2.252758 -0.083170
v -0.376720 -2.252758 0.083170
v -0.465145 -0.619644 0.083170
v -0.017380 -0.619644 -0.083170
v -0.081680 -2.252758 -0.083170
v -0.043747 -2.252758 0.083170
v 0.008987 -0.619644 0.083170
vt 0.380927 0.763880
vt 0.380927 0.763880
vt 0.380927 0.763880
vt 0.380927 0.763880
vt 0.703998 0.038598
vt 0.703999 0.038598
vt 0.703999 0.038598
vt 0.703998 0.038598
vt 0.380927 0.763880
vt 0.380927 0.763880
vt 0.380927 0.763880
vt 0.380927 0.763880
vt 0.703998 0.038598
vt 0.703999 0.038598
vt 0.703999 0.038598
vt 0.703998 0.038598
vt 0.380927 0.763880
vt 0.380927 0.763880
vt 0.380927 0.763880
vt 0.380927 0.763880
vt 0.338929 0.776553
vt 0.416466 0.776553
vt 0.416466 0.854089
vt 0.338929 0.854089
vt 0.380927 0.763880
vt 0.703998 0.038598
vt 0.380927 0.763880
vt 0.703999 0.038598
vt 0.380927 0.763880
vt 0.703999 0.038598
vt 0.380927 0.763880
vt 0.703998 0.038598
vt 0.380927 0.763880
vt 0.708999 0.039625
vt 0.703998 0.038598
vt 0.380927 0.763880
vt 0.670050 0.038598
vt 0.380927 0.763880
vt 0.380927 0.763880
vt 0.380927 0.763880
vt 0.703998 0.038598
vt 0.705652 0.039450
vt 0.703998 0.038598
vt 0.380927 0.763880
vt 0.380927 0.763880
vt 0.380927 0.763880
vt 0.703998 0.038598
vt 0.380927 0.763880
vt 0.703998 0.038598
vt 0.380927 0.763880
vt 0.380927 0.763880
vt 0.380927 0.763880
vt 0.670050 0.038598
vt 0.380927 0.763880
vt 0.703998 0.038598
vt 0.708999 0.039625
vt 0.705652 0.039450
vt 0.705652 0.039450
vt 0.670050 0.038598
vt 0.708999 0.039625
vt 0.670050 0.038598
vt 0.380927 0.763880
vt 0.380927 0.763880
vt 0.708999 0.039625
vt 0.708999 0.039625
vt 0.380927 0.763880
vt 0.708999 0.039625
vt 0.380927 0.763880
vt 0.708999 0.039625
vt 0.708999 0.039625
vt 0.380927 0.763880
vt 0.380927 0.763880
vt 0.705652 0.039450
vt 0.705652 0.039450
vt 0.380927 0.763880
vt 0.705652 0.039450
vt 0.705652 0.039450
vt 0.705652 0.039450
vt 0.703998 0.038598
vt 0.703998 0.038598
vt 0.670050 0.038598
vt 0.703998 0.038598
vt 0.670050 0.038598
vt 0.670050 0.038598
vt 0.670050 0.038598
vt 0.703998 0.038598
vn 0.000000 0.000000 1.000000
vn 0.000000 0.000000 1.000000
vn 0.000000 0.000000 1.000000
vn 0.000000 0.000000 1.000000
vn 0.000000 1.000000 0.000000
vn 0.000000 1.000000 0.000000
vn 0.000000 1.000000 0.000000
vn 0.000000 1.000000 0.000000
vn 0.000000 0.000000 0.000000
vn 0.000000 0.000000 -1.000000
vn 0.000000 0.000000 -1.000000
vn 0.000000 0.000000 0.000000
vn 0.000000 0.000000 -1.000000
vn 0.000000 0.000000 -1.000000
vn 0.000000 0.000000 -1.000000
vn 0.000000 0.000000 -1.000000
vn 0.000000 0.000000 -1.000000
vn 0.000000 0.000000 -1.000000
vn 0.000000 0.000000 -1.000000
vn 0.000000 0.000000 -1.000000
vn 0.000000 0.000000 -1.000000
vn 0.000000 0.000000 -1.000000
vn 0.000000 0.000000 -1.000000
vn 0.000000 0.000000 -1.000000
vn 0.000000 0.000000 -1.000000
vn 0.000000 0.000000 -1.000000
vn 0.000000 0.000000 -1.000000
vn 0.000000 0.000000 -1.000000
vn 0.000000 0.000000 -1.000000
vn 0.300581 -0.952125 -0.055763
vn 0.300581 -0.952125 -0.055763
vn 0.300581 -0.952125 -0.055762
vn 0.300581 -0.952125 -0.055762
vn 1.000000 0.000000 0.000000
vn 1.000000 0.000000 0.000000
vn 1.000000 0.000000 0.000000
vn 1.000000 0.000000 0.000000
vn -1.000000 -0.000001 0.000011
vn -1.000000 -0.000001 0.000011
vn -1.000000 -0.000001 0.000011
vn -1.000000 -0.000001 0.000011
vn 0.000000 0.000000 0.000000
vn 0.000000 0.000000 1.000000
vn 0.000000 0.000000 1.000000
vn 0.000000 0.000000 0.000000
vn 0.000000 0.000000 1.000000
vn 0.000000 0.000000 1.000000
vn 0.000000 0.000000 1.000000
vn 0.000000 0.000000 1.000000
vn 0.000000 0.000000 1.000000
vn 0.000000 0.000000 1.000000
vn 0.000000 0.000000 1.000000
vn 0.000000 0.000000 1.000000
vn 0.000000 0.000000 1.000000
vn 0.000000 0.000000 1.000000
vn 0.000000 0.000000 1.000000
vn 0.000000 0.000000 1.000000
vn 0.000000 0.000000 1.000000
vn 0.000000 0.000000 1.000000
vn 0.000000 0.000000 1.000000
vn 0.000000 0.000000 1.000000
vn 0.000000 0.000000 1.000000
vn -0.000000 0.000000 1.000000
vn -0.000000 0.000000 1.000000
vn -0.000000 0.000000 1.000000
vn -0.000000 0.000000 1.000000
vn 0.000000 0.000000 1.000000
vn 0.000000 0.000000 1.000000
vn 0.000000 0.000000 1.000000
vn 0.000000 0.000000 1.000000
vn -0.000000 0.000000 1.000000
vn -0.000000 0.000000 1.000000
vn -0.000000 0.000000 1.000000
vn -0.000000 0.000000 1.000000
vn 0.000000 0.000000 1.000000
vn 0.000000 0.000000 1.000000
vn 0.000000 0.000000 1.000000
vn 0.000000 0.000000 1.000000
vn 1.000000 0.000000 0.000000
vn 1.000000 0.000000 0.000000
vn 1.000000 0.000000 0.000000
vn 1.000000 0.000000 0.000000
vn 0.000000 0.000000 -1.000000
vn 0.000000 0.000000 -1.000000
vn 0.000000 0.000000 -1.000000
vn 0.000000 0.000000 -1.000000
vn -1.000000 0.000001 0.000011
vn -1.000000 0.000001 0.000011
vn -1.000000 0.000001 0.000011
vn -1.000000 0.000001 0.000011
vn 0.000000 0.000000 0.000000
vn 0.000000 0.000000 1.000000
vn 0.000000 0.000000 1.000000
vn 0.000000 0.000000 0.000000
vn 0.496618 -0.867969 0.000005
vn 0.496618 -0.867969 0.000005
vn 0.496618 -0.867969 0.000005
vn 0.496618 -0.867969 0.000005
vn 0.000000 0.000000 -1.000000
vn 0.000000 0.000000 -0.000000
vn 0.000000 0.000000 -0.000000
vn 0.000000 0.000000 -1.000000
vn 0.000000 0.000000 1.000000
vn 0.000000 0.000000 1.000000
vn 0.000000 0.000000 1.000000
vn 0.000000 0.000000 1.000000
vn -0.223817 -0.974631 -0.000003
vn -0.223817 -0.974631 -0.000003
vn -0.223817 -0.974631 -0.000003
vn -0.223817 -0.974631 -0.000003
vn 0.000000 0.000000 -1.000000
vn 0.000000 0.000000 -1.000000
vn 0.000000 0.000000 -1.000000
vn 0.000000 0.000000 -1.000000
vn -0.000000 0.000000 -1.000000
vn -0.000000 0.000000 -1.000000
vn -0.000000 0.000000 -1.000000
vn -0.000000 0.000000 -1.000000
vn -0.244448 -0.969663 0.000000
vn -0.244448 -0.969663 0.000000
vn -0.244448 -0.969663 0.000000
vn -0.244448 -0.969663 0.000000
vn 0.000000 0.000000 1.000000
vn 0.000000 0.000000 1.000000
vn 0.000000 0.000000 1.000000
vn 0.000000 0.000000 1.000000
vn 0.000000 0.000000 -1.000000
vn 0.000000 0.000000 -1.000000
vn 0.000000 0.000000 -1.000000
vn 0.000000 0.000000 -1.000000
vn 0.000000 -1.000000 0.000000
vn 0.000000 -1.000000 0.000000
vn 0.000000 -1.000000 0.000000
vn 0.000000 -1.000000 0.000000
vn 0.000000 0.000000 1.000000
vn 0.000000 0.000000 1.000000
vn 0.000000 0.000000 1.000000
vn 0.000000 0.000000 1.000000
vn -0.000000 0.000000 -1.000000
vn -0.000000 0.000000 -0.000000
vn -0.000000 0.000000 -0.000000
vn -0.000000 0.000000 -1.000000
vn -0.865605 -0.428368 0.259285
vn -0.865605 -0.428368 0.259285
vn -0.865605 -0.428368 0.259285
vn -0.865605 -0.428368 0.259285
vn -0.000000 0.000000 0.000000
vn -0.000000 0.000000 1.000000
vn -0.000000 0.000000 1.000000
vn -0.000000 0.000000 0.000000
s off
f 9/21/1 10/22/2 11/23/3 12/24/4
f 3/5/5 4/6/6 6/7/7 5/8/8
f 24/44/9 16/31/10 29/51/11
f 33/71/12 29/51/13 20/38/14
f 5/9/15 6/10/16 16/31/17
f 15/29/18 25/45/19 6/10/20
f 16/31/21 6/10/22 29/51/23
f 29/51/24 6/10/25 20/38/26
f 6/10/27 25/45/28 20/38/29
f 18/35/30 19/86/31 26/47/32 27/49/33
f 14/28/34 15/30/35 6/7/36 4/6/37
f 16/32/38 13/26/39 3/5/40 5/8/41
f 17/33/42 28/50/43 36/62/44
f 32/68/45 36/62/46 21/39/47
f 14/27/48 10/18/49 28/50/50
f 10/18/51 9/17/52 28/50/53
f 28/50/54 9/17/55 36/62/56
f 36/62/57 9/17/58 21/39/59
f 13/25/60 21/39/61 9/17/62
f 14/27/63 4/3/64 11/19/65 10/18/66
f 4/3/67 3/4/68 12/20/69 11/19/70
f 3/4/71 13/25/72 9/17/73 12/20/74
f 17/33/75 18/66/76 27/48/77 28/50/78
f 2/15/79 8/14/80 15/30/81 14/28/82
f 19/36/83 20/38/84 25/45/85 26/46/86
f 7/13/87 1/16/88 13/26/89 16/32/90
f 21/69/91 22/70/92 31/67/93 32/56/94
f 22/85/95 23/84/96 30/53/97 31/83/98
f 23/42/99 24/76/100 29/73/101 30/74/102
f 1/1/103 22/40/104 21/39/105 13/25/106
f 7/13/107 23/43/108 22/41/109 1/16/110
f 16/31/111 24/44/112 23/75/113 7/12/114
f 26/46/115 25/45/116 15/29/117 8/11/118
f 27/49/119 26/47/120 8/14/121 2/15/122
f 28/50/123 27/48/124 2/2/125 14/27/126
f 30/52/127 29/51/128 33/71/129 34/72/130
f 31/55/131 30/82/132 34/79/133 35/80/134
f 32/68/135 31/54/136 35/63/137 36/62/138
f 34/58/139 33/57/140 20/78/141 19/77/142
f 35/61/143 34/59/144 19/37/145 18/81/146
f 36/64/147 35/60/148 18/34/149 17/65/150
