# This file uses meters as units for non-parametric coordinates.

v 0.134330 0.000000 0.000000
v 0.090528 0.000000 0.000000
v 0.134330 0.000000 0.053118
v 0.090528 0.000000 0.053118
v 0.033131 1.045020 0.000000
v 0.102123 1.045020 0.000000
v 0.102123 1.045020 0.053118
v 0.033131 1.045020 0.053118
v -0.078291 1.100948 0.000000
v 0.078832 1.100949 0.000000
v 0.078832 1.100948 0.053118
v -0.078291 1.100949 0.053118
v -0.078291 1.214178 0.000000
v 0.078832 1.214178 0.000000
v 0.078832 1.214178 0.053118
v -0.078291 1.214178 0.053118
v -0.044573 1.534452 -0.026559
v -0.034095 1.534452 -0.026559
v -0.044573 1.534452 0.026559
v -0.034095 1.534452 0.026559
v -0.115593 1.255524 -0.026559
v -0.055844 1.255524 -0.026559
v -0.055844 1.255524 0.026559
v -0.115593 1.255524 0.026559
v -0.134330 0.000000 -0.053118
v -0.090526 0.000000 -0.053118
v -0.134330 0.000000 0.000000
v -0.090526 0.000000 0.000000
v -0.033130 1.045020 -0.053118
v -0.102123 1.045020 -0.053118
v -0.102123 1.045020 0.000000
v -0.033130 1.045020 0.000000
v 0.078292 1.100948 -0.053118
v -0.078834 1.100949 -0.053118
v -0.078834 1.100948 0.000000
v 0.078292 1.100949 0.000000
v 0.078292 1.214178 -0.053118
v -0.078834 1.214178 -0.053118
v -0.078834 1.214178 0.000000
v 0.078292 1.214178 0.000000
v 0.044573 1.534452 -0.026559
v 0.034095 1.534452 -0.026559
v 0.044573 1.534452 0.026559
v 0.034095 1.534452 0.026559
v 0.115594 1.255524 -0.026559
v 0.055844 1.255524 -0.026559
v 0.055844 1.255524 0.026559
v 0.115594 1.255524 0.026559
v -0.037630 1.134464 0.073955
v 0.037627 1.134464 0.073955
v -0.037630 1.190704 0.073955
v 0.037627 1.190704 0.073955
v -0.037630 1.190704 -0.073955
v 0.037627 1.190704 -0.073955
v -0.037630 1.134464 -0.073955
v 0.037627 1.134464 -0.073955
v -0.077571 1.394988 -0.026559
v -0.077571 1.394988 0.026559
v -0.130987 1.394988 0.026559
v -0.130987 1.394988 -0.026559
v 0.130987 1.394988 0.026559
v 0.077571 1.394988 0.026559
v 0.077571 1.394988 -0.026559
v 0.130987 1.394988 -0.026559
vt 0.197595 0.063783
vt 0.197595 0.063783
vt 0.197595 0.063783
vt 0.197595 0.063783
vt 0.228053 0.063783
vt 0.228053 0.063783
vt 0.228053 0.063783
vt 0.228053 0.063783
vt 0.197595 0.063783
vt 0.197595 0.063783
vt 0.197595 0.063783
vt 0.197595 0.063783
vt 0.134231 0.063783
vt 0.134230 0.063783
vt 0.134230 0.063783
vt 0.134231 0.063783
vt 0.167821 0.063783
vt 0.167821 0.063783
vt 0.167821 0.063783
vt 0.167821 0.063783
vt 0.167821 0.063783
vt 0.167821 0.063783
vt 0.167821 0.063783
vt 0.167821 0.063783
vt 0.197595 0.063783
vt 0.167821 0.063783
vt 0.197595 0.063783
vt 0.167821 0.063783
vt 0.197595 0.063783
vt 0.167821 0.063783
vt 0.197595 0.063783
vt 0.167821 0.063783
vt 0.197595 0.063783
vt 0.197595 0.063783
vt 0.167821 0.063783
vt 0.167821 0.063783
vt 0.197595 0.063783
vt 0.197595 0.063783
vt 0.167821 0.063783
vt 0.167821 0.063783
vt 0.197595 0.063783
vt 0.167821 0.063783
vt 0.197595 0.063783
vt 0.167821 0.063783
vt 0.197595 0.063783
vt 0.167821 0.063783
vt 0.197595 0.063783
vt 0.167821 0.063783
vt 0.197595 0.063783
vt 0.197595 0.063783
vt 0.167821 0.063783
vt 0.167821 0.063783
vt 0.197595 0.063783
vt 0.197595 0.063783
vt 0.167821 0.063783
vt 0.167821 0.063783
vt 0.197595 0.063783
vt 0.197595 0.063783
vt 0.197595 0.063783
vt 0.197595 0.063783
vt 0.228053 0.063783
vt 0.228053 0.063783
vt 0.228053 0.063783
vt 0.228053 0.063783
vt 0.197595 0.063783
vt 0.197595 0.063783
vt 0.197595 0.063783
vt 0.197595 0.063783
vt 0.134231 0.063783
vt 0.134230 0.063783
vt 0.134230 0.063783
vt 0.134231 0.063783
vt 0.167821 0.063783
vt 0.167821 0.063783
vt 0.167821 0.063783
vt 0.167821 0.063783
vt 0.167821 0.063783
vt 0.167821 0.063783
vt 0.167821 0.063783
vt 0.167821 0.063783
vt 0.197595 0.063783
vt 0.197595 0.063783
vt 0.197595 0.063783
vt 0.197595 0.063783
vt 0.167821 0.063783
vt 0.167821 0.063783
vt 0.167821 0.063783
vt 0.167821 0.063783
vt 0.197595 0.063783
vt 0.197595 0.063783
vt 0.197595 0.063783
vt 0.197595 0.063783
vt 0.167821 0.063783
vt 0.167821 0.063783
vt 0.167821 0.063783
vt 0.167821 0.063783
vt 0.197595 0.063783
vt 0.197595 0.063783
vt 0.197595 0.063783
vt 0.197595 0.063783
vt 0.167821 0.063783
vt 0.167821 0.063783
vt 0.167821 0.063783
vt 0.167821 0.063783
vt 0.197595 0.063783
vt 0.197595 0.063783
vt 0.197595 0.063783
vt 0.197595 0.063783
vt 0.167821 0.063783
vt 0.167821 0.063783
vt 0.167821 0.063783
vt 0.167821 0.063783
vt 0.264309 0.063783
vt 0.264309 0.063783
vt 0.264309 0.063783
vt 0.264309 0.063783
vt 0.294766 0.063783
vt 0.294766 0.063783
vt 0.294766 0.063783
vt 0.294766 0.063783
vt 0.264309 0.063783
vt 0.264309 0.063783
vt 0.264309 0.063783
vt 0.264309 0.063783
vt 0.200944 0.063783
vt 0.200944 0.063783
vt 0.200944 0.063783
vt 0.200944 0.063783
vt 0.234535 0.063783
vt 0.234535 0.063783
vt 0.234535 0.063783
vt 0.234535 0.063783
vt 0.234535 0.063783
vt 0.234535 0.063783
vt 0.234535 0.063783
vt 0.234535 0.063783
vt 0.197595 0.063783
vt 0.167821 0.063783
vt 0.197595 0.063783
vt 0.167821 0.063783
vt 0.167821 0.063783
vt 0.197595 0.063783
vt 0.167821 0.063783
vt 0.197595 0.063783
vt 0.197595 0.063783
vt 0.167821 0.063783
vt 0.197595 0.063783
vt 0.167821 0.063783
vt 0.167821 0.063783
vt 0.197595 0.063783
vt 0.197595 0.063783
vt 0.167821 0.063783
vt 0.167821 0.063783
vt 0.197595 0.063783
vt 0.167821 0.063783
vt 0.197595 0.063783
vt 0.197595 0.063783
vt 0.167821 0.063783
vt 0.167821 0.063783
vt 0.197595 0.063783
vt 0.167821 0.063783
vt 0.197595 0.063783
vt 0.197595 0.063783
vt 0.167821 0.063783
vt 0.167821 0.063783
vt 0.197595 0.063783
vt 0.197595 0.063783
vt 0.167821 0.063783
vt 0.197595 0.063783
vt 0.167821 0.063783
vt 0.197595 0.063783
vt 0.167821 0.063783
vt 0.167821 0.063783
vt 0.197595 0.063783
vt 0.197595 0.063783
vt 0.167821 0.063783
vt 0.197595 0.063783
vt 0.167821 0.063783
vt 0.167821 0.063783
vt 0.197595 0.063783
vt 0.197595 0.063783
vt 0.167821 0.063783
vt 0.167821 0.063783
vt 0.197595 0.063783
vt 0.197595 0.063783
vt 0.167821 0.063783
vt 0.197595 0.063783
vt 0.167821 0.063783
vt 0.197595 0.063783
vt 0.167821 0.063783
vt 0.167821 0.063783
vt 0.197595 0.063783
vt 0.197595 0.063783
vt 0.167821 0.063783
vt 0.167821 0.063783
vt 0.197595 0.063783
vt 0.197595 0.063783
vt 0.167821 0.063783
vt 0.167821 0.063783
vt 0.197595 0.063783
vt 0.197595 0.063783
vt 0.167821 0.063783
vt 0.197595 0.063783
vt 0.167821 0.063783
vt 0.197595 0.063783
vt 0.167821 0.063783
vt 0.197595 0.063783
vt 0.167821 0.063783
vt 0.167821 0.063783
vt 0.197595 0.063783
vt 0.167821 0.063783
vt 0.197595 0.063783
vt 0.167821 0.063783
vt 0.197595 0.063783
vt 0.167821 0.063783
vt 0.197595 0.063783
vn -0.000000 0.000000 -1.000000
vn -0.000000 0.000000 -1.000000
vn 0.000000 0.000000 -1.000000
vn 0.000000 0.000000 -1.000000
vn 0.000000 1.000000 0.000000
vn 0.000000 1.000000 0.000000
vn 0.000000 1.000000 0.000000
vn 0.000000 1.000000 0.000000
vn 0.000000 0.000000 1.000000
vn 0.000000 0.000000 1.000000
vn 0.000000 0.000000 1.000000
vn 0.000000 0.000000 1.000000
vn 0.000000 -1.000000 0.000000
vn 0.000000 -1.000000 0.000000
vn 0.000000 -1.000000 0.000000
vn 0.000000 -1.000000 0.000000
vn -1.000000 0.000000 0.000000
vn -1.000000 0.000000 0.000000
vn -0.998495 -0.054842 0.000000
vn -0.998495 -0.054842 0.000000
vn 1.000000 0.000000 -0.000000
vn 1.000000 0.000000 -0.000000
vn 0.999525 0.030805 0.000000
vn 0.999525 0.030805 0.000000
vn 0.000000 0.000000 -1.000000
vn 0.000000 0.000000 -1.000000
vn 0.000000 0.000000 -1.000000
vn 0.000000 0.000000 -1.000000
vn 1.000000 0.000000 0.000000
vn 1.000000 0.000000 0.000000
vn 1.000000 0.000000 0.000000
vn 1.000000 0.000000 0.000000
vn 0.000000 0.000000 1.000000
vn 0.000000 0.000000 1.000000
vn 0.000000 0.000000 1.000000
vn 0.000000 0.000000 1.000000
vn -1.000000 0.000000 0.000000
vn -1.000000 0.000000 0.000000
vn -1.000000 0.000000 0.000000
vn -1.000000 0.000000 0.000000
vn 0.000000 0.000000 -1.000000
vn 0.000000 0.000000 -1.000000
vn 0.000000 0.000000 -1.000000
vn 0.000000 0.000000 -1.000000
vn 0.923148 0.384445 0.000003
vn 0.923148 0.384445 0.000003
vn 0.923148 0.384445 0.000003
vn 0.923148 0.384445 0.000003
vn 0.000000 0.000000 1.000000
vn 0.000000 0.000000 1.000000
vn 0.000000 0.000000 1.000000
vn 0.000000 0.000000 1.000000
vn -0.448611 -0.893727 0.000008
vn -0.448611 -0.893727 0.000008
vn -0.448611 -0.893727 0.000008
vn -0.448611 -0.893727 0.000008
vn 0.000000 0.000000 -1.000000
vn 0.000000 0.000000 -1.000000
vn 0.000000 0.000000 -1.000000
vn 0.000000 0.000000 -1.000000
vn 0.988082 0.153930 0.000000
vn 0.988082 0.153930 0.000000
vn 0.996974 -0.077739 0.000000
vn 0.996974 -0.077739 0.000000
vn 0.000000 0.000000 1.000000
vn 0.000000 0.000000 1.000000
vn 0.000000 0.000000 1.000000
vn 0.000000 0.000000 1.000000
vn -0.993963 -0.109712 0.000000
vn -0.993963 -0.109712 0.000000
vn -0.969081 0.246744 0.000000
vn -0.969081 0.246744 0.000000
vn 0.000000 -0.540460 -0.841370
vn 0.000000 -0.540460 -0.841370
vn 0.000000 -0.540460 -0.841370
vn 0.000000 -0.540460 -0.841370
vn 0.293483 0.955964 0.000000
vn 0.293483 0.955964 0.000000
vn 0.293483 0.955964 0.000000
vn 0.293483 0.955964 0.000000
vn 0.000000 0.540461 0.841369
vn 0.000000 0.540461 0.841369
vn 0.000000 0.540461 0.841369
vn 0.000000 0.540461 0.841369
vn -0.742488 -0.669859 0.000000
vn -0.742488 -0.669859 0.000000
vn -0.742488 -0.669859 0.000000
vn -0.742488 -0.669859 0.000000
vn 0.000000 0.000000 -1.000000
vn 0.000000 0.000000 -1.000000
vn 0.000000 0.000000 -1.000000
vn 0.000000 0.000000 -1.000000
vn 0.000000 1.000000 0.000000
vn 0.000000 1.000000 0.000000
vn 0.000000 1.000000 0.000000
vn 0.000000 1.000000 0.000000
vn 0.000000 0.000000 1.000000
vn -0.000000 0.000000 1.000000
vn -0.000000 0.000000 1.000000
vn 0.000000 0.000000 1.000000
vn 0.000000 -1.000000 0.000000
vn 0.000000 -1.000000 0.000000
vn 0.000000 -1.000000 0.000000
vn 0.000000 -1.000000 0.000000
vn 1.000000 0.000000 0.000000
vn 0.998495 -0.054841 0.000000
vn 0.998495 -0.054841 0.000000
vn 1.000000 0.000000 0.000000
vn -1.000000 0.000000 -0.000000
vn -0.999525 0.030805 0.000000
vn -0.999525 0.030805 0.000000
vn -1.000000 0.000000 -0.000000
vn 0.000000 0.000000 -1.000000
vn 0.000000 0.000000 -1.000000
vn 0.000000 0.000000 -1.000000
vn 0.000000 0.000000 -1.000000
vn -1.000000 0.000000 0.000000
vn -1.000000 0.000000 0.000000
vn -1.000000 0.000000 0.000000
vn -1.000000 0.000000 0.000000
vn 0.000000 0.000000 1.000000
vn 0.000000 0.000000 1.000000
vn 0.000000 0.000000 1.000000
vn 0.000000 0.000000 1.000000
vn 1.000000 0.000000 0.000000
vn 1.000000 0.000000 0.000000
vn 1.000000 0.000000 0.000000
vn 1.000000 0.000000 0.000000
vn -0.000000 0.000000 -1.000000
vn -0.000000 0.000000 -1.000000
vn -0.000000 0.000000 -1.000000
vn -0.000000 0.000000 -1.000000
vn -0.923160 0.384416 0.000003
vn -0.923160 0.384416 0.000003
vn -0.923160 0.384416 0.000003
vn -0.923160 0.384416 0.000003
vn 0.000000 0.000000 1.000000
vn 0.000000 0.000000 1.000000
vn 0.000000 0.000000 1.000000
vn 0.000000 0.000000 1.000000
vn 0.448613 -0.893726 0.000008
vn 0.448613 -0.893726 0.000008
vn 0.448613 -0.893726 0.000008
vn 0.448613 -0.893726 0.000008
vn 0.000000 0.000000 -1.000000
vn 0.000000 0.000000 -1.000000
vn 0.000000 0.000000 -1.000000
vn 0.000000 0.000000 -1.000000
vn -0.988082 0.153929 0.000000
vn -0.996974 -0.077739 0.000000
vn -0.996974 -0.077739 0.000000
vn -0.988082 0.153929 0.000000
vn 0.000000 0.000000 1.000000
vn 0.000000 0.000000 1.000000
vn 0.000000 0.000000 1.000000
vn 0.000000 0.000000 1.000000
vn 0.993964 -0.109703 0.000000
vn 0.969079 0.246750 0.000000
vn 0.969079 0.246750 0.000000
vn 0.993964 -0.109703 0.000000
vn 0.000000 0.540463 -0.841368
vn 0.000000 0.540463 -0.841368
vn 0.000000 0.540463 -0.841368
vn 0.000000 0.540463 -0.841368
vn -0.293480 0.955965 0.000000
vn -0.293480 0.955965 0.000000
vn -0.293480 0.955965 0.000000
vn -0.293480 0.955965 0.000000
vn 0.000000 -0.540458 0.841371
vn 0.000000 -0.540458 0.841371
vn 0.000000 -0.540458 0.841371
vn 0.000000 -0.540459 0.841371
vn 0.742482 -0.669866 0.000000
vn 0.742482 -0.669866 0.000000
vn 0.742482 -0.669866 0.000000
vn 0.742482 -0.669866 0.000000
vn 0.000000 0.000000 1.000000
vn 0.000000 0.000000 1.000000
vn 0.000000 0.000000 1.000000
vn 0.000000 0.000000 1.000000
vn 0.000000 1.000000 0.000000
vn 0.000000 1.000000 0.000000
vn 0.000000 1.000000 0.000000
vn 0.000000 1.000000 0.000000
vn 0.000000 0.000000 -1.000000
vn 0.000000 0.000000 -1.000000
vn 0.000000 0.000000 -1.000000
vn 0.000000 0.000000 -1.000000
vn 0.000000 -1.000000 0.000000
vn 0.000000 -1.000000 0.000000
vn 0.000000 -1.000000 0.000000
vn 0.000000 -1.000000 0.000000
vn 1.000000 0.000000 0.000000
vn 1.000000 0.000000 0.000000
vn 1.000000 0.000000 0.000000
vn 1.000000 0.000000 0.000000
vn -1.000000 0.000000 0.000000
vn -1.000000 0.000000 0.000000
vn -1.000000 0.000000 0.000000
vn -1.000000 0.000000 0.000000
vn 0.996974 -0.077739 0.000000
vn 0.996974 -0.077739 0.000000
vn 1.000000 0.000000 -0.000000
vn 1.000000 0.000000 -0.000000
vn 0.000000 0.000000 1.000000
vn 0.000000 0.000000 1.000000
vn 0.000000 0.000000 1.000000
vn 0.000000 0.000000 1.000000
vn -0.969081 0.246744 0.000000
vn -0.969081 0.246744 0.000000
vn -1.000000 0.000000 0.000000
vn -1.000000 0.000000 0.000000
vn 0.000000 0.000000 -1.000000
vn 0.000000 0.000000 -1.000000
vn -0.000000 0.000000 -1.000000
vn -0.000000 0.000000 -1.000000
vn -0.000000 0.000000 1.000000
vn 0.000000 0.000000 1.000000
vn 0.000000 0.000000 1.000000
vn -0.000000 0.000000 1.000000
vn -0.996974 -0.077739 0.000000
vn -0.996974 -0.077739 0.000000
vn -1.000000 0.000000 -0.000000
vn -1.000000 0.000000 -0.000000
vn 0.000000 0.000000 -1.000000
vn 0.000000 0.000000 -1.000000
vn 0.000000 0.000000 -1.000000
vn 0.000000 0.000000 -1.000000
vn 0.969079 0.246750 0.000000
vn 0.969079 0.246750 0.000000
vn 1.000000 0.000000 0.000000
vn 1.000000 0.000000 0.000000
s off
f 1/1/1 2/2/2 5/25/3 6/197/4
f 18/5/5 17/6/6 19/7/7 20/8/8
f 7/29/9 8/193/10 4/11/11 3/12/12
f 3/13/13 4/14/14 2/15/15 1/16/16
f 2/17/17 4/18/18 8/32/19 5/199/20
f 3/21/21 1/22/22 6/28/23 7/195/24
f 10/33/25 9/189/26 13/41/27 14/181/28
f 11/35/29 10/188/30 14/44/31 15/179/32
f 15/45/33 16/175/34 12/37/35 11/38/36
f 9/190/37 12/186/38 16/48/39 13/183/40
f 6/27/41 5/200/42 9/34/43 10/187/44
f 7/30/45 6/198/46 10/36/47 11/191/48
f 8/31/49 7/196/50 11/192/51 12/185/52
f 5/26/53 8/194/54 12/40/55 9/39/56
f 22/49/57 21/171/58 60/207/59 57/201/60
f 23/51/61 22/52/62 57/202/63 58/204/64
f 58/203/65 59/205/66 24/53/67 23/54/68
f 21/172/69 24/56/70 59/206/71 60/208/72
f 14/43/73 13/184/74 21/50/75 22/177/76
f 15/46/77 14/182/78 22/178/79 23/173/80
f 16/47/81 15/180/82 23/174/83 24/169/84
f 13/42/85 16/176/86 24/170/87 21/55/88
f 25/57/89 30/60/90 29/167/91 26/58/92
f 42/61/93 44/64/94 43/63/95 41/62/96
f 31/163/97 27/68/98 28/67/99 32/66/100
f 27/69/101 25/72/102 26/71/103 28/70/104
f 26/73/105 29/76/106 32/161/107 28/74/108
f 27/77/109 31/80/110 30/165/111 25/78/112
f 34/156/113 38/84/114 37/151/115 33/82/116
f 35/159/117 39/88/118 38/149/119 34/86/120
f 39/147/121 35/160/122 36/154/123 40/90/124
f 33/93/125 37/96/126 40/143/127 36/94/128
f 30/166/129 34/81/130 33/157/131 29/59/132
f 31/164/133 35/85/134 34/155/135 30/79/136
f 32/162/137 36/91/138 35/92/139 31/65/140
f 29/168/141 33/158/142 36/153/143 32/75/144
f 46/145/145 63/214/146 64/216/147 45/98/148
f 47/141/149 62/211/150 63/213/151 46/146/152
f 61/210/153 62/212/154 47/142/155 48/137/156
f 45/109/157 64/215/158 61/209/159 48/138/160
f 38/150/161 46/97/162 45/139/163 37/83/164
f 39/148/165 47/101/166 46/102/167 38/87/168
f 40/144/169 48/107/170 47/108/171 39/89/172
f 37/152/173 45/140/174 48/110/175 40/95/176
f 49/113/177 50/114/178 52/115/179 51/116/180
f 51/117/181 52/118/182 54/119/183 53/120/184
f 53/121/185 54/122/186 56/123/187 55/124/188
f 55/125/189 56/126/190 50/127/191 49/128/192
f 50/129/193 56/130/194 54/131/195 52/132/196
f 55/133/197 49/134/198 51/135/199 53/136/200
f 58/204/201 57/202/202 18/23/203 20/24/204
f 20/9/205 19/10/206 59/205/207 58/203/208
f 60/208/209 59/206/210 19/19/211 17/20/212
f 57/201/213 60/207/214 17/3/215 18/4/216
f 44/105/217 62/212/218 61/210/219 43/106/220
f 63/213/221 62/211/222 44/104/223 42/103/224
f 64/216/225 63/214/226 42/100/227 41/99/228
f 61/209/229 64/215/230 41/112/231 43/111/232
