# This file uses meters as units for non-parametric coordinates.

v -0.154421 0.054404 0.090451
v 0.154421 0.054404 0.090451
v -0.154421 0.144859 0.074264
v 0.154421 0.144859 0.074264
v -0.154421 0.090455 -0.229749
v 0.154421 0.090455 -0.229749
v -0.154421 0.000000 -0.213561
v 0.154421 0.000000 -0.213561
v -0.107115 0.136527 0.027698
v 0.107115 0.136527 0.027698
v 0.107115 0.098789 -0.183183
v -0.107115 0.098789 -0.183183
v -0.061152 0.179769 -0.026734
v 0.061152 0.179769 -0.026734
v 0.061152 0.158226 -0.147126
v -0.061152 0.158226 -0.147126
v -0.085541 0.022876 0.214171
v 0.085541 0.022876 0.214171
v -0.085541 0.071337 0.229749
v 0.085541 0.071337 0.229749
v -0.085541 0.123691 0.066873
v 0.085541 0.123691 0.066873
v -0.085541 0.075229 0.051295
v 0.085541 0.075229 0.051295
v -0.059336 0.079356 0.204801
v 0.059336 0.079356 0.204801
v 0.059336 0.115672 0.091821
v -0.059336 0.115672 0.091821
v -0.033875 0.114655 0.189403
v 0.033875 0.114655 0.189403
v 0.033875 0.135387 0.124902
v -0.033875 0.135387 0.124902
vt 0.634840 0.466399
vt 0.634840 0.466399
vt 0.634840 0.466399
vt 0.634840 0.466399
vt 0.296695 0.240024
vt 0.296694 0.240024
vt 0.296694 0.240024
vt 0.296695 0.240024
vt 0.634840 0.466399
vt 0.634840 0.466399
vt 0.634840 0.466399
vt 0.634840 0.466399
vt 0.545771 0.466399
vt 0.545771 0.466399
vt 0.545771 0.466399
vt 0.545771 0.466399
vt 0.584570 0.466399
vt 0.584570 0.466399
vt 0.584570 0.466399
vt 0.584570 0.466399
vt 0.584570 0.466399
vt 0.584570 0.466399
vt 0.584570 0.466399
vt 0.584570 0.466399
vt 0.669541 0.466399
vt 0.669541 0.466399
vt 0.669541 0.466399
vt 0.669541 0.466399
vt 0.669541 0.466399
vt 0.669541 0.466399
vt 0.669541 0.466399
vt 0.669541 0.466399
vt 0.669541 0.466399
vt 0.669541 0.466399
vt 0.669541 0.466399
vt 0.669541 0.466399
vt 0.669541 0.466399
vt 0.669541 0.466399
vt 0.669541 0.466399
vt 0.669541 0.466399
vt 0.268606 0.240024
vt 0.268606 0.240024
vt 0.268606 0.240024
vt 0.268606 0.240024
vt 0.233235 0.240024
vt 0.233235 0.240024
vt 0.233235 0.240024
vt 0.233235 0.240024
vt 0.268606 0.240024
vt 0.268606 0.240024
vt 0.268606 0.240024
vt 0.268606 0.240024
vt 0.233235 0.240024
vt 0.233235 0.240024
vt 0.233235 0.240024
vt 0.233235 0.240024
vt 0.634840 0.466399
vt 0.634840 0.466399
vt 0.634840 0.466399
vt 0.634840 0.466399
vt 0.296695 0.240024
vt 0.296694 0.240024
vt 0.296694 0.240024
vt 0.296695 0.240024
vt 0.634840 0.466399
vt 0.634840 0.466399
vt 0.634840 0.466399
vt 0.634840 0.466399
vt 0.545771 0.466399
vt 0.545771 0.466399
vt 0.545771 0.466399
vt 0.545771 0.466399
vt 0.584570 0.466399
vt 0.584570 0.466399
vt 0.584570 0.466399
vt 0.584570 0.466399
vt 0.584570 0.466399
vt 0.584570 0.466399
vt 0.584570 0.466399
vt 0.584570 0.466399
vt 0.669541 0.466399
vt 0.669541 0.466399
vt 0.669541 0.466399
vt 0.669541 0.466399
vt 0.669541 0.466399
vt 0.669541 0.466399
vt 0.669541 0.466399
vt 0.669541 0.466399
vt 0.669541 0.466399
vt 0.669541 0.466399
vt 0.669541 0.466399
vt 0.669541 0.466399
vt 0.669541 0.466399
vt 0.669541 0.466399
vt 0.669541 0.466399
vt 0.669541 0.466399
vt 0.268606 0.240024
vt 0.268606 0.240024
vt 0.268606 0.240024
vt 0.268606 0.240024
vt 0.233235 0.240024
vt 0.233235 0.240024
vt 0.233235 0.240024
vt 0.233235 0.240024
vt 0.268606 0.240024
vt 0.268606 0.240024
vt 0.268606 0.240024
vt 0.268606 0.240024
vt 0.233235 0.240024
vt 0.233235 0.240024
vt 0.233235 0.240024
vt 0.233235 0.240024
vn 0.000000 0.176156 0.984362
vn 0.000000 0.176156 0.984362
vn 0.000000 0.176156 0.984362
vn 0.000000 0.176156 0.984362
vn 0.000000 0.984362 -0.176156
vn 0.000000 0.984362 -0.176156
vn 0.000000 0.984362 -0.176156
vn 0.000000 0.984362 -0.176156
vn 0.000000 -0.176156 -0.984362
vn 0.000000 -0.176156 -0.984362
vn 0.000000 -0.176156 -0.984362
vn 0.000000 -0.176156 -0.984362
vn 0.000000 -0.984362 0.176156
vn 0.000000 -0.984362 0.176156
vn 0.000000 -0.984362 0.176156
vn 0.000000 -0.984362 0.176156
vn 1.000000 0.000000 0.000000
vn 1.000000 0.000000 0.000000
vn 1.000000 0.000000 0.000000
vn 1.000000 0.000000 0.000000
vn -1.000000 -0.000001 0.000002
vn -1.000000 -0.000001 0.000002
vn -1.000000 -0.000001 0.000002
vn -1.000000 -0.000001 0.000002
vn 0.000000 0.984362 -0.176158
vn 0.000000 0.984362 -0.176158
vn 0.000000 0.984362 -0.176158
vn 0.000000 0.984362 -0.176158
vn -0.000001 0.984362 -0.176159
vn -0.000001 0.984362 -0.176159
vn -0.000001 0.984362 -0.176159
vn -0.000001 0.984362 -0.176159
vn 0.000000 0.984362 -0.176156
vn 0.000000 0.984362 -0.176156
vn 0.000000 0.984362 -0.176156
vn 0.000000 0.984362 -0.176156
vn 0.000001 0.984361 -0.176161
vn 0.000001 0.984361 -0.176161
vn 0.000001 0.984361 -0.176161
vn 0.000001 0.984361 -0.176161
vn 0.000000 0.782984 0.622042
vn 0.000000 0.782984 0.622042
vn 0.000000 0.782984 0.622042
vn 0.000000 0.782984 0.622042
vn 0.750239 0.650827 -0.116467
vn 0.750240 0.650827 -0.116467
vn 0.750240 0.650827 -0.116467
vn 0.750240 0.650827 -0.116467
vn 0.000000 0.518659 -0.854981
vn 0.000000 0.518659 -0.854981
vn 0.000000 0.518659 -0.854981
vn 0.000000 0.518659 -0.854981
vn -0.750240 0.650827 -0.116466
vn -0.750240 0.650827 -0.116466
vn -0.750240 0.650827 -0.116466
vn -0.750240 0.650827 -0.116466
vn 0.000000 -0.306015 0.952027
vn 0.000000 -0.306015 0.952027
vn 0.000000 -0.306015 0.952027
vn 0.000000 -0.306015 0.952027
vn 0.000000 0.952027 0.306014
vn 0.000000 0.952027 0.306014
vn 0.000000 0.952027 0.306014
vn 0.000000 0.952027 0.306014
vn 0.000000 0.306014 -0.952027
vn 0.000000 0.306014 -0.952027
vn 0.000000 0.306014 -0.952027
vn 0.000000 0.306014 -0.952027
vn 0.000000 -0.952027 -0.306016
vn 0.000000 -0.952027 -0.306016
vn 0.000000 -0.952027 -0.306016
vn 0.000000 -0.952027 -0.306016
vn 1.000000 0.000000 0.000000
vn 1.000000 0.000000 0.000000
vn 1.000000 0.000000 0.000000
vn 1.000000 0.000000 0.000000
vn -1.000000 0.000003 -0.000005
vn -1.000000 0.000003 -0.000005
vn -1.000000 0.000003 -0.000005
vn -1.000000 0.000003 -0.000005
vn 0.000000 0.952027 0.306015
vn 0.000000 0.952027 0.306015
vn 0.000000 0.952027 0.306015
vn 0.000000 0.952027 0.306015
vn 0.000001 0.952027 0.306016
vn 0.000001 0.952027 0.306016
vn 0.000001 0.952027 0.306016
vn 0.000001 0.952027 0.306016
vn 0.000000 0.952027 0.306014
vn 0.000000 0.952027 0.306014
vn 0.000000 0.952027 0.306014
vn 0.000000 0.952027 0.306014
vn -0.000001 0.952025 0.306020
vn -0.000001 0.952025 0.306020
vn -0.000001 0.952025 0.306020
vn -0.000001 0.952025 0.306020
vn 0.000000 0.399862 0.916576
vn 0.000000 0.399862 0.916576
vn 0.000000 0.399862 0.916576
vn 0.000000 0.399862 0.916576
vn 0.750246 0.629440 0.202328
vn 0.750246 0.629440 0.202328
vn 0.750246 0.629440 0.202328
vn 0.750246 0.629440 0.202328
vn 0.000000 0.859030 -0.511924
vn 0.000000 0.859030 -0.511924
vn 0.000000 0.859030 -0.511924
vn 0.000000 0.859030 -0.511924
vn -0.750246 0.629440 0.202328
vn -0.750246 0.629440 0.202328
vn -0.750246 0.629440 0.202328
vn -0.750246 0.629440 0.202328
s off
f 1/1/1 2/2/2 4/3/3 3/4/4
f 13/5/5 14/6/6 15/7/7 16/8/8
f 5/9/9 6/10/10 8/11/11 7/12/12
f 7/13/13 8/14/14 2/15/15 1/16/16
f 2/17/17 8/18/18 6/19/19 4/20/20
f 7/21/21 1/22/22 3/23/23 5/24/24
f 3/25/25 4/26/26 10/27/27 9/28/28
f 4/29/29 6/30/30 11/31/31 10/32/32
f 6/33/33 5/34/34 12/35/35 11/36/36
f 5/37/37 3/38/38 9/39/39 12/40/40
f 9/41/41 10/42/42 14/43/43 13/44/44
f 10/45/45 11/46/46 15/47/47 14/48/48
f 11/49/49 12/50/50 16/51/51 15/52/52
f 12/53/53 9/54/54 13/55/55 16/56/56
f 17/57/57 18/58/58 20/59/59 19/60/60
f 29/61/61 30/62/62 31/63/63 32/64/64
f 21/65/65 22/66/66 24/67/67 23/68/68
f 23/69/69 24/70/70 18/71/71 17/72/72
f 18/73/73 24/74/74 22/75/75 20/76/76
f 23/77/77 17/78/78 19/79/79 21/80/80
f 19/81/81 20/82/82 26/83/83 25/84/84
f 20/85/85 22/86/86 27/87/87 26/88/88
f 22/89/89 21/90/90 28/91/91 27/92/92
f 21/93/93 19/94/94 25/95/95 28/96/96
f 25/97/97 26/98/98 30/99/99 29/100/100
f 26/101/101 27/102/102 31/103/103 30/104/104
f 27/105/105 28/106/106 32/107/107 31/108/108
f 28/109/109 25/110/110 29/111/111 32/112/112
