# This file uses meters as units for non-parametric coordinates.

v -0.255792 0.014655 -0.141563
v -0.350356 0.014655 -0.063073
v -0.156085 0.014655 -0.128688
v -0.221525 0.014655 -0.029901
v -0.133835 0.014655 -0.074225
v -0.349322 0.014655 -0.116876
v 0.456189 0.014655 -0.036257
v 0.398951 0.014655 0.009274
v 0.516540 0.014655 -0.028789
v 0.476930 0.014655 0.028518
v 0.530008 0.014655 0.002805
v 0.399577 0.014655 -0.021936
v 0.228405 0.014655 0.145679
v 0.018296 0.014655 0.139949
v 0.242372 0.014655 0.202931
v 0.008284 0.014655 0.194589
v 0.141348 0.014655 0.215143
v 0.135507 0.014655 0.111661
v 0.430805 0.014655 -0.121419
v 0.344562 0.014655 -0.140106
v 0.421659 0.014655 -0.096427
v 0.326086 0.014655 -0.118065
v 0.376276 0.014655 -0.099162
v 0.400911 0.014655 -0.142829
v 0.125894 0.014655 -0.050895
v 0.096810 0.014655 0.010877
v 0.207602 0.014655 -0.068012
v 0.211209 0.014655 -0.002937
v 0.253369 0.014655 -0.045930
v 0.068870 0.014655 -0.016380
v 0.000888 0.014655 -0.162000
v 0.012897 0.014655 -0.134708
v 0.026657 0.014655 -0.171844
v 0.052839 0.014655 -0.144154
v 0.053140 0.014655 -0.163828
v -0.008511 0.014655 -0.145488
v 0.495584 0.014655 -0.223387
v 0.476388 0.014655 -0.193953
v 0.535735 0.014655 -0.228368
v 0.531710 0.014655 -0.195886
v 0.555437 0.014655 -0.215426
v 0.465574 0.014655 -0.208698
v -0.555437 0.014953 0.143641
v -0.305777 0.014953 0.228368
v -0.363589 0.014953 0.009546
v -0.125280 0.014953 0.089665
v -0.225130 0.014953 0.018816
v -0.482481 0.014953 0.212015
v -0.519512 0.014953 0.054281
v -0.382851 0.014953 0.119442
v -0.161444 0.014953 0.154371
v -0.225130 0.014953 0.018816
v 0.026035 0.014870 0.096430
v -0.107688 0.014870 -0.018241
v 0.081784 0.014870 0.035094
v -0.016915 0.014870 -0.019749
v -0.125280 0.014953 0.089665
vt 0.140181 0.180494
vt 0.140181 0.180494
vt 0.140181 0.180494
vt 0.140181 0.180494
vt 0.140181 0.180494
vt 0.140181 0.180494
vt 0.140181 0.180494
vt 0.140181 0.180494
vt 0.140181 0.180494
vt 0.140181 0.180494
vt 0.140181 0.180494
vt 0.140181 0.180494
vt 0.140181 0.180494
vt 0.140181 0.180494
vt 0.140181 0.180494
vt 0.140181 0.180494
vt 0.140181 0.180494
vt 0.140181 0.180494
vt 0.140181 0.180494
vt 0.140181 0.180494
vt 0.140181 0.180494
vt 0.140181 0.180494
vt 0.140181 0.180494
vt 0.140181 0.180494
vt 0.140181 0.180494
vt 0.140181 0.180494
vt 0.140181 0.180494
vt 0.140181 0.180494
vt 0.140181 0.180494
vt 0.140181 0.180494
vt 0.140181 0.180494
vt 0.140181 0.180494
vt 0.140181 0.180494
vt 0.140181 0.180494
vt 0.140181 0.180494
vt 0.140181 0.180494
vt 0.140181 0.180494
vt 0.140181 0.180494
vt 0.140181 0.180494
vt 0.140181 0.180494
vt 0.140181 0.180494
vt 0.140181 0.180494
vt 0.140181 0.180494
vt 0.140181 0.180494
vt 0.140181 0.180494
vt 0.140181 0.180494
vt 0.140181 0.180494
vt 0.140181 0.180494
vt 0.140181 0.180494
vt 0.140181 0.180494
vt 0.140181 0.180494
vt 0.140181 0.180494
vt 0.140181 0.180494
vt 0.140181 0.180494
vt 0.140181 0.180494
vt 0.140181 0.180494
vt 0.140181 0.180494
vn 0.000000 1.000000 0.000000
vn 0.000000 1.000000 0.000000
vn 0.000000 1.000000 0.000000
vn 0.000000 1.000000 0.000000
vn 0.000000 1.000000 0.000000
vn 0.000000 1.000000 0.000000
vn 0.000000 1.000000 0.000000
vn 0.000000 1.000000 0.000000
vn 0.000000 1.000000 0.000000
vn 0.000000 1.000000 0.000000
vn 0.000000 1.000000 0.000000
vn 0.000000 1.000000 0.000000
vn 0.000000 1.000000 -0.000000
vn 0.000000 1.000000 -0.000000
vn 0.000000 1.000000 -0.000000
vn 0.000000 1.000000 -0.000000
vn 0.000000 1.000000 0.000000
vn 0.000000 1.000000 0.000000
vn 0.000000 1.000000 0.000000
vn 0.000000 1.000000 0.000000
vn 0.000000 1.000000 0.000000
vn 0.000000 1.000000 0.000000
vn 0.000000 1.000000 0.000000
vn 0.000000 1.000000 0.000000
vn 0.000000 1.000000 0.000000
vn 0.000000 1.000000 -0.000000
vn 0.000000 1.000000 -0.000000
vn 0.000000 1.000000 -0.000000
vn 0.000000 1.000000 0.000000
vn 0.000000 1.000000 0.000000
vn 0.000000 1.000000 0.000000
vn 0.000000 1.000000 0.000000
vn 0.000000 1.000000 0.000000
vn 0.000000 1.000000 0.000000
vn 0.000000 1.000000 0.000000
vn 0.000000 1.000000 0.000000
vn 0.000000 1.000000 0.000000
vn 0.000000 1.000000 0.000000
vn 0.000000 1.000000 -0.000000
vn 0.000000 1.000000 -0.000000
vn 0.000000 1.000000 0.000000
vn 0.000000 1.000000 0.000000
vn 0.000000 1.000000 0.000000
vn 0.000000 1.000000 -0.000000
vn 0.000000 1.000000 0.000000
vn 0.000000 1.000000 0.000000
vn 0.000000 1.000000 -0.000000
vn 0.000000 1.000000 0.000000
vn 0.000000 1.000000 -0.000000
vn 0.000000 1.000000 -0.000000
vn 0.000000 1.000000 0.000000
vn 0.000339 1.000000 -0.000287
vn 0.000302 1.000000 -0.000509
vn 0.000365 1.000000 -0.000135
vn 0.000365 1.000000 -0.000135
vn 0.000264 1.000000 -0.000727
vn 0.000264 1.000000 -0.000727
s 1
f 5/1/1 6/2/2 2/3/3 4/4/4
f 1/5/5 6/2/2 5/1/1 3/6/6
s 2
f 11/7/7 12/8/8 8/9/9 10/10/10
f 7/11/11 12/8/8 11/7/7 9/12/12
s 3
f 17/13/13 18/14/14 14/15/15 16/16/16
f 13/17/17 18/14/14 17/13/13 15/18/18
s 4
f 23/19/19 24/20/20 20/21/21 22/22/22
f 19/23/23 24/20/20 23/19/19 21/24/24
s 5
f 29/25/25 30/26/26 26/27/27 28/28/28
f 25/29/29 30/26/26 29/25/25 27/30/30
s 6
f 35/31/31 36/32/32 32/33/33 34/34/34
f 31/35/35 36/32/32 35/31/31 33/36/36
s 7
f 41/37/37 42/38/38 38/39/39 40/40/40
f 37/41/41 42/38/38 41/37/37 39/42/42
s 8
f 47/43/43 50/44/44 51/45/45 46/46/46
f 49/47/47 50/44/44 47/43/43 45/48/48
f 43/49/49 48/50/50 50/44/44 49/47/47
f 51/45/45 50/44/44 48/50/50 44/51/51
s 9
f 56/52/52 57/53/53 53/54/54 55/55/55
f 52/56/56 57/53/53 56/52/52 54/57/57
