# This file uses meters as units for non-parametric coordinates.

v -0.476679 0.000000 -0.203926
v -0.476679 0.000000 0.476678
v -0.476679 0.217795 -0.203926
v -0.476679 0.217795 0.476678
v 0.476677 0.217795 -0.203926
v 0.476677 0.217795 0.476678
v 0.476677 0.000000 -0.203926
v 0.476677 0.000000 0.476678
v -0.312868 0.217795 -0.312865
v -0.312868 0.217795 0.312865
v 0.312862 0.217795 0.312865
v 0.312862 0.217795 -0.312865
v 0.312862 0.000000 -0.312865
v 0.312862 0.000000 0.312865
v -0.312868 0.000000 0.312865
v -0.312868 0.000000 -0.312865
v 0.312862 0.217795 0.476678
v -0.312868 0.217795 0.476678
v -0.312868 0.388182 0.312865
v -0.312868 0.388182 0.476678
v 0.312862 0.388182 0.476678
v 0.312862 0.388182 0.312865
v -0.000003 0.683624 0.476678
v -0.000003 0.683624 0.312865
v -0.000003 0.217795 0.312865
v -0.156435 0.217795 0.312865
v -0.156435 0.337784 0.312865
v -0.156435 0.337784 0.476678
v -0.156435 0.217795 0.476678
v 0.156428 0.217795 0.476678
v 0.156428 0.337784 0.476678
v 0.156428 0.337784 0.312865
v 0.156428 0.217795 0.312865
v -0.053881 0.164300 0.476678
v 0.053878 0.164300 0.476678
v -0.053881 0.349770 0.476678
v -0.000002 0.349770 0.476678
v 0.053878 0.349770 0.476678
v -0.053881 0.164300 0.527815
v 0.053878 0.164300 0.527815
v -0.053881 0.349770 0.527815
v 0.053878 0.349770 0.527815
vt 0.577000 0.469196
vt 0.611614 0.468813
vt 0.611614 0.468813
vt 0.611614 0.468813
vt 0.577000 0.469196
vt 0.611614 0.468813
vt 0.611614 0.468813
vt 0.611614 0.468813
vt 0.640751 0.468813
vt 0.640751 0.468813
vt 0.640751 0.468813
vt 0.640751 0.468813
vt 0.675053 0.468813
vt 0.675053 0.468813
vt 0.675053 0.468813
vt 0.675053 0.468813
vt 0.675053 0.468813
vt 0.675053 0.468813
vt 0.579887 0.468813
vt 0.579887 0.468813
vt 0.675053 0.468813
vt 0.675053 0.468813
vt 0.577000 0.469196
vt 0.675053 0.468813
vt 0.579989 0.468813
vt 0.579989 0.468813
vt 0.579989 0.468813
vt 0.579989 0.468813
vt 0.579989 0.468813
vt 0.579989 0.468813
vt 0.579989 0.468813
vt 0.579989 0.468813
vt 0.579989 0.468813
vt 0.579989 0.468813
vt 0.577000 0.469196
vt 0.579989 0.468813
vt 0.547691 0.469096
vt 0.547691 0.469096
vt 0.547691 0.469096
vt 0.547691 0.469096
vt 0.576955 0.469096
vt 0.576955 0.469096
vt 0.576955 0.469096
vt 0.576955 0.469096
vt 0.547691 0.469096
vt 0.547691 0.469096
vt 0.547691 0.469096
vt 0.547691 0.469096
vt 0.577000 0.469196
vt 0.579989 0.468813
vt 0.675053 0.468813
vt 0.577000 0.469196
vt 0.611614 0.468813
vt 0.577000 0.469196
vt 0.611614 0.468813
vt 0.577000 0.469196
vt 0.640751 0.468813
vt 0.610421 0.468813
vt 0.640751 0.468813
vt 0.675053 0.468813
vt 0.675053 0.468813
vt 0.641465 0.468813
vt 0.610421 0.468813
vt 0.579887 0.468813
vt 0.641465 0.468813
vt 0.698972 0.468813
vt 0.579887 0.468813
vt 0.576955 0.469096
vt 0.579887 0.468813
vt 0.576955 0.469096
vt 0.675053 0.468813
vt 0.641465 0.468813
vt 0.640751 0.468813
vt 0.641465 0.468813
vt 0.640751 0.468813
vt 0.641465 0.468813
vt 0.675053 0.468813
vt 0.579887 0.468813
vt 0.579887 0.468813
vt 0.576955 0.469096
vt 0.641465 0.468813
vt 0.641465 0.468813
vt 0.641465 0.468813
vt 0.641465 0.468813
vt 0.698972 0.468813
vt 0.232949 0.170092
vt 0.675053 0.468813
vt 0.641465 0.468813
vt 0.641465 0.468813
vt 0.641465 0.468813
vt 0.610421 0.468813
vt 0.641465 0.468813
vt 0.641465 0.468813
vt 0.675053 0.468813
vt 0.579887 0.468813
vt 0.579887 0.468813
vt 0.579887 0.468813
vt 0.579887 0.468813
vt 0.579887 0.468813
vt 0.579887 0.468813
vt 0.579887 0.468813
vt 0.579887 0.468813
vt 0.579887 0.468813
vt 0.610421 0.468813
vt 0.610421 0.468813
vt 0.675053 0.468813
vt 0.698972 0.468813
vt 0.698972 0.468813
vt 0.698972 0.468813
vt 0.698972 0.468813
vt 0.698972 0.468813
vt 0.698972 0.468813
vt 0.675053 0.468813
vt 0.675053 0.468813
vt 0.610421 0.468813
vt 0.675053 0.468813
vt 0.610421 0.468813
vt 0.675053 0.468813
vt 0.610421 0.468813
vt 0.675053 0.468813
vt 0.640751 0.468813
vt 0.640751 0.468813
vt 0.640751 0.468813
vt 0.640751 0.468813
vt 0.135286 0.170092
vt 0.640751 0.468813
vt 0.136000 0.170092
vt 0.641465 0.468813
vt 0.202334 0.170092
vt 0.136000 0.170092
vt 0.202334 0.170092
vt 0.641465 0.468813
vt 0.232949 0.170092
vt 0.136000 0.170092
vt 0.202334 0.170092
vt 0.136000 0.170092
vt 0.232949 0.170092
vt 0.232949 0.170092
vt 0.641465 0.468813
vt 0.136000 0.170092
vt 0.136000 0.170092
vt 0.202334 0.170092
vt 0.641465 0.468813
vt 0.136000 0.170092
vt 0.641465 0.468813
vt 0.202334 0.170092
vt 0.135286 0.170092
vt 0.640751 0.468813
vt 0.136000 0.170092
vt 0.641465 0.468813
vt 0.135286 0.170092
vt 0.135286 0.170092
vn -1.000000 0.000000 0.000000
vn -1.000000 0.000000 0.000000
vn -1.000000 0.000000 0.000000
vn -1.000000 0.000000 0.000000
vn 1.000000 0.000000 0.000000
vn 1.000000 0.000000 0.000000
vn 1.000000 0.000000 0.000000
vn 1.000000 0.000000 0.000000
vn 0.000000 0.000000 1.000000
vn 0.000000 0.000000 1.000000
vn 0.000000 0.000000 1.000000
vn 0.000000 1.000000 0.000000
vn 0.000000 1.000000 0.000000
vn 0.000000 1.000000 0.000000
vn 0.000000 1.000000 0.000000
vn -0.911127 0.412125 -0.000000
vn -0.911127 0.412125 -0.000000
vn -0.911127 0.412125 -0.000000
vn -0.911127 0.412125 -0.000000
vn 0.000000 1.000000 0.000000
vn 0.000000 1.000000 0.000000
vn 0.000000 1.000000 0.000000
vn 0.000000 1.000000 0.000000
vn 0.000000 -1.000000 0.000000
vn 0.000000 -1.000000 0.000000
vn 0.000000 -1.000000 0.000000
vn 0.000000 -1.000000 0.000000
vn 0.000000 -1.000000 0.000000
vn 0.000000 -1.000000 0.000000
vn 0.000000 -1.000000 0.000000
vn 0.000000 -1.000000 0.000000
vn 0.000000 -1.000000 0.000000
vn 0.000000 -1.000000 0.000000
vn 0.000000 -1.000000 0.000000
vn 0.000000 -1.000000 0.000000
vn -1.000000 0.000000 0.000000
vn -1.000000 0.000000 0.000000
vn -1.000000 0.000000 0.000000
vn -1.000000 0.000000 0.000000
vn 0.000000 0.000000 -1.000000
vn 0.000000 0.000000 -1.000000
vn 0.000000 0.000000 -1.000000
vn 0.000000 0.000000 -1.000000
vn 0.000000 0.000000 -1.000000
vn 0.000000 0.000000 -1.000000
vn 0.000000 0.000000 -1.000000
vn 1.000000 0.000000 0.000000
vn 1.000000 0.000000 0.000000
vn 1.000000 0.000000 0.000000
vn 1.000000 0.000000 0.000000
vn -0.553756 0.000000 -0.832679
vn -0.553756 0.000000 -0.832679
vn -0.553756 0.000000 -0.832679
vn -0.553756 0.000000 -0.832679
vn 0.553747 0.000000 -0.832685
vn 0.553747 0.000000 -0.832685
vn 0.553747 0.000000 -0.832685
vn 0.553747 0.000000 -0.832685
vn -0.000000 1.000000 -0.000000
vn -0.000000 1.000000 -0.000000
vn -0.000000 1.000000 -0.000000
vn 0.000000 0.000000 1.000000
vn 0.000000 0.000000 1.000000
vn 0.000000 0.000000 1.000000
vn 0.000000 1.000000 -0.000000
vn 0.000000 1.000000 -0.000000
vn 0.000000 1.000000 -0.000000
vn -1.000000 0.000000 0.000000
vn -1.000000 0.000000 0.000000
vn -1.000000 0.000000 0.000000
vn -1.000000 0.000000 0.000000
vn 0.000000 0.000000 1.000000
vn 0.000000 0.000000 1.000000
vn 0.000000 0.000000 1.000000
vn 0.000000 0.000000 1.000000
vn 1.000000 0.000000 0.000000
vn 1.000000 0.000000 0.000000
vn 1.000000 0.000000 0.000000
vn 1.000000 0.000000 0.000000
vn 0.000000 0.000000 -1.000000
vn 0.000000 0.000000 -1.000000
vn 0.000000 0.000000 -1.000000
vn 0.000000 0.000000 -1.000000
vn 0.911128 0.412123 -0.000000
vn 0.911128 0.412123 -0.000000
vn 0.911128 0.412123 -0.000000
vn 0.911128 0.412123 -0.000000
vn -0.000000 0.000000 -1.000000
vn -0.000000 0.000000 -1.000000
vn -0.000000 0.000000 -1.000000
vn -0.000000 0.000000 -1.000000
vn 0.000000 0.000000 -1.000000
vn 0.000000 0.000000 -1.000000
vn 0.000000 0.000000 -1.000000
vn 0.000000 0.000000 -1.000000
vn 0.306651 0.951822 0.000000
vn 0.306651 0.951822 0.000000
vn 0.306651 0.951822 0.000000
vn 0.306651 0.951822 0.000000
vn 0.000000 0.000000 1.000000
vn 0.000000 0.000000 1.000000
vn 0.000000 0.000000 1.000000
vn 0.000000 0.000000 1.000000
vn 0.000000 0.000000 1.000000
vn 0.000000 0.000000 1.000000
vn 0.000000 0.000000 1.000000
vn 0.000000 0.000000 1.000000
vn -0.306649 0.951823 0.000000
vn -0.306649 0.951823 0.000000
vn -0.306649 0.951823 0.000000
vn -0.306649 0.951823 0.000000
vn 0.000000 0.000000 -1.000000
vn 0.000000 0.000000 -1.000000
vn 0.000000 0.000000 -1.000000
vn 0.000000 0.000000 -1.000000
vn 0.000000 0.000000 1.000000
vn 0.000000 0.000000 1.000000
vn 0.000000 0.000000 1.000000
vn 0.000000 0.000000 1.000000
vn 0.000000 0.000000 1.000000
vn 0.000000 0.000000 1.000000
vn 0.000000 0.000000 1.000000
vn 0.000000 0.000000 1.000000
vn 0.000000 0.000000 1.000000
vn 0.000000 0.000000 1.000000
vn 0.000000 0.000000 1.000000
vn 0.000000 0.000000 1.000000
vn 0.000000 0.000000 1.000000
vn 0.000000 0.000000 1.000000
vn 0.000000 0.000000 1.000000
vn 0.000000 0.000000 1.000000
vn -0.000001 0.000000 1.000000
vn -0.000001 0.000000 1.000000
vn -0.000001 0.000000 1.000000
vn -0.000001 0.000000 1.000000
vn 0.000001 0.000000 1.000000
vn 0.000001 0.000000 1.000000
vn 0.000001 0.000000 1.000000
vn 0.000000 0.000000 1.000000
vn 0.000000 0.000000 1.000000
vn 0.000000 0.000000 1.000000
vn 0.000000 0.000000 1.000000
vn -0.000000 0.000000 1.000000
vn -0.000000 0.000000 1.000000
vn 0.000000 0.000000 1.000000
vn 0.000001 0.000000 1.000000
vn 0.000001 0.000000 1.000000
vn 0.000000 0.000000 1.000000
vn -0.000000 0.000000 1.000000
vn -0.000000 0.000000 1.000000
vn -0.000000 0.000000 1.000000
vn 0.000000 -1.000000 0.000000
vn 0.000000 -1.000000 0.000000
vn 0.000000 -1.000000 0.000000
vn 0.000000 -1.000000 0.000000
vn -1.000000 0.000000 0.000000
vn -1.000000 0.000000 0.000000
vn -1.000000 0.000000 0.000000
vn -1.000000 0.000000 0.000000
vn 1.000000 0.000000 0.000000
vn 1.000000 0.000000 0.000000
vn 1.000000 0.000000 0.000000
vn 1.000000 0.000000 0.000000
vn 0.000000 1.000000 -0.000001
vn 0.000000 1.000000 -0.000001
vn 0.000000 1.000000 -0.000001
vn 0.000000 1.000000 -0.000001
vn 0.000000 1.000000 -0.000001
s off
f 1/53/1 2/2/2 4/3/3 3/4/4
f 5/55/5 6/6/6 8/7/7 7/8/8
f 17/57/9 8/10/10 6/11/11
f 3/13/12 4/14/13 10/15/14 9/16/15
f 27/111/16 28/112/17 23/85/18 24/109/19
f 6/21/20 5/22/21 12/51/22 11/24/23
f 7/25/24 8/26/25 14/27/26 13/28/27
f 8/29/28 2/30/29 15/31/30 14/32/31
f 2/33/32 1/34/33 16/50/34 15/36/35
f 11/37/36 12/38/37 13/39/38 14/40/39
f 11/41/40 14/42/41 15/43/42 10/44/43 26/70/44 25/68/45 33/80/46
f 10/45/47 15/46/48 16/47/49 9/48/50
f 1/1/51 3/56/52 9/49/53 16/35/54
f 5/5/55 7/54/56 13/52/57 12/23/58
f 4/17/59 18/60/60 10/120/61
f 2/123/62 18/121/63 4/12/64
f 11/106/65 17/116/66 6/18/67
f 10/104/68 18/119/69 20/91/70 19/117/71
f 41/133/72 39/86/73 40/138/74 42/137/75
f 17/58/76 11/115/77 22/105/78 21/63/79
f 24/98/80 25/97/81 26/100/82 27/102/83
f 24/66/84 23/110/85 31/107/86 32/108/87
f 32/95/88 33/79/89 25/67/90 24/99/91
f 27/101/92 26/69/93 10/20/94 19/103/95
f 19/61/96 20/118/97 28/87/98 27/71/99
f 18/90/100 29/89/101 28/72/102 20/62/103
f 31/82/104 30/76/105 17/93/106 21/92/107
f 32/94/108 31/77/109 21/113/110 22/114/111
f 11/19/112 33/96/113 32/78/114 22/64/115
f 2/9/116 8/124/117 35/126/118 34/148/119
f 8/124/120 17/122/121 35/126/122
f 17/122/123 30/75/124 35/126/125
f 29/73/126 18/59/127 34/148/128
f 18/59/129 2/9/130 34/148/131
f 28/88/132 29/74/133 34/128/134 36/145/135
f 23/84/136 28/88/137 36/145/138
f 30/81/139 31/83/140 38/139/141 35/150/142
f 38/139/143 23/65/144 37/132/145
f 23/84/146 36/145/147 37/143/148
f 31/83/149 23/65/150 38/139/151
f 34/125/152 35/152/153 40/151/154 39/147/155
f 36/127/156 34/149/157 39/144/158 41/141/159
f 35/130/160 38/140/161 42/136/162 40/134/163
f 41/142/164 42/135/165 38/131/166 37/129/167 36/146/168
