# This file uses meters as units for non-parametric coordinates.

v 0.440828 0.054800 0.196954
v 0.620417 0.054800 0.196954
v 0.440828 0.067772 0.196954
v 0.620417 0.067772 0.196954
v 0.440828 0.067772 -0.196954
v 0.620417 0.067772 -0.196954
v 0.440828 0.054800 -0.196954
v 0.620417 0.054800 -0.196954
v -0.842199 0.000000 0.842202
v 0.842211 0.000000 0.842202
v -0.842199 0.033379 0.842202
v 0.842211 0.033379 0.842202
v -0.842199 0.033379 -0.842201
v 0.842211 0.033379 -0.842201
v -0.842199 0.000000 -0.842201
v 0.842211 0.000000 -0.842201
v -0.711401 0.033379 0.711411
v 0.711412 0.033379 0.711411
v 0.711412 0.033379 -0.711410
v -0.711401 0.033379 -0.711410
v -0.711401 0.054800 0.711411
v 0.711412 0.054800 0.711411
v 0.711412 0.054800 -0.711410
v -0.711401 0.054800 -0.711410
v 0.711412 0.033379 0.026027
v 0.711412 0.054800 0.026027
v -0.711401 0.054800 0.026027
v -0.711401 0.033379 0.026027
v 0.711412 0.033379 -0.329680
v 0.711412 0.054800 -0.329680
v -0.711401 0.054800 -0.329680
v -0.711401 0.033379 -0.329680
v -0.711401 0.033379 0.381730
v -0.711401 0.054800 0.381730
v 0.711412 0.054800 0.381730
v 0.711412 0.033379 0.381730
v 0.711412 0.033379 0.320137
v 0.711412 0.054800 0.320137
v -0.711401 0.054800 0.320137
v -0.711401 0.033379 0.320137
v -0.711401 0.033379 -0.035571
v -0.711401 0.054800 -0.035571
v 0.711412 0.054800 -0.035571
v 0.711412 0.033379 -0.035571
v 0.711412 0.033379 -0.391274
v 0.711412 0.054800 -0.391274
v -0.711401 0.054800 -0.391274
v -0.711401 0.033379 -0.391274
v -0.791769 0.033379 0.658158
v -0.488913 0.033379 0.658158
v -0.791769 0.068983 0.658158
v -0.488913 0.068983 0.658158
v -0.791769 0.068983 0.446637
v -0.488913 0.068983 0.446637
v -0.791769 0.033379 0.446637
v -0.488913 0.033379 0.446637
v -0.791769 0.033379 -0.446637
v -0.488913 0.033379 -0.446637
v -0.791769 0.068983 -0.446637
v -0.488913 0.068983 -0.446637
v -0.791769 0.068983 -0.658157
v -0.488913 0.068983 -0.658157
v -0.791769 0.033379 -0.658157
v -0.488913 0.033379 -0.658157
vt 0.166635 0.265707
vt 0.166634 0.265707
vt 0.166634 0.265707
vt 0.166635 0.265707
vt 0.197092 0.265707
vt 0.197092 0.265707
vt 0.197092 0.265707
vt 0.197092 0.265707
vt 0.166635 0.265707
vt 0.166634 0.265707
vt 0.166634 0.265707
vt 0.166635 0.265707
vt 0.136861 0.265707
vt 0.136860 0.265707
vt 0.136860 0.265707
vt 0.136861 0.265707
vt 0.136861 0.265707
vt 0.136861 0.265707
vt 0.136861 0.265707
vt 0.136861 0.265707
vt 0.264425 0.064156
vt 0.264425 0.064156
vt 0.264425 0.064156
vt 0.264425 0.064156
vt 0.173202 0.512186
vt 0.173202 0.512186
vt 0.173202 0.512186
vt 0.173202 0.512186
vt 0.264425 0.064156
vt 0.264425 0.064156
vt 0.264425 0.064156
vt 0.264425 0.064156
vt 0.234652 0.064156
vt 0.234651 0.064156
vt 0.234651 0.064156
vt 0.234652 0.064156
vt 0.234652 0.064156
vt 0.234652 0.064156
vt 0.234652 0.064156
vt 0.234652 0.064156
vt 0.294883 0.064156
vt 0.294883 0.064156
vt 0.294883 0.064156
vt 0.294883 0.064156
vt 0.294883 0.064156
vt 0.294883 0.064156
vt 0.294883 0.064156
vt 0.294883 0.064156
vt 0.294883 0.064156
vt 0.294883 0.064156
vt 0.294883 0.064156
vt 0.294883 0.064156
vt 0.294883 0.064156
vt 0.294883 0.064156
vt 0.294883 0.064156
vt 0.294883 0.064156
vt 0.294883 0.064156
vt 0.294883 0.064156
vt 0.294883 0.064156
vt 0.294883 0.064156
vt 0.239385 0.512186
vt 0.239385 0.512186
vt 0.239385 0.512186
vt 0.239385 0.512186
vt 0.110077 0.512186
vt 0.110077 0.512186
vt 0.110077 0.512186
vt 0.110077 0.512186
vt 0.239385 0.512186
vt 0.239385 0.512186
vt 0.239385 0.512186
vt 0.239385 0.512186
vt 0.110077 0.512186
vt 0.110077 0.512186
vt 0.110077 0.512186
vt 0.110077 0.512186
vt 0.203490 0.512186
vt 0.203490 0.512186
vt 0.203490 0.512186
vt 0.203490 0.512186
vt 0.266615 0.512186
vt 0.266615 0.512186
vt 0.266615 0.512186
vt 0.266615 0.512186
vt 0.203490 0.512186
vt 0.203490 0.512186
vt 0.203490 0.512186
vt 0.203490 0.512186
vt 0.110077 0.512186
vt 0.110077 0.512186
vt 0.110077 0.512186
vt 0.110077 0.512186
vt 0.173202 0.512186
vt 0.173202 0.512186
vt 0.173202 0.512186
vt 0.173202 0.512186
vt 0.110077 0.512186
vt 0.110077 0.512186
vt 0.110077 0.512186
vt 0.110077 0.512186
vt 0.203490 0.512186
vt 0.203490 0.512186
vt 0.203490 0.512186
vt 0.203490 0.512186
vt 0.266615 0.512186
vt 0.266615 0.512186
vt 0.266615 0.512186
vt 0.266615 0.512186
vt 0.203490 0.512186
vt 0.203490 0.512186
vt 0.203490 0.512186
vt 0.203490 0.512186
vt 0.203490 0.512186
vt 0.203490 0.512186
vt 0.203490 0.512186
vt 0.203490 0.512186
vt 0.266615 0.512186
vt 0.266615 0.512186
vt 0.266615 0.512186
vt 0.266615 0.512186
vt 0.203490 0.512186
vt 0.203490 0.512186
vt 0.203490 0.512186
vt 0.203490 0.512186
vt 0.110077 0.512186
vt 0.110077 0.512186
vt 0.110077 0.512186
vt 0.110077 0.512186
vt 0.173202 0.512186
vt 0.173202 0.512186
vt 0.173202 0.512186
vt 0.173202 0.512186
vt 0.110077 0.512186
vt 0.110077 0.512186
vt 0.110077 0.512186
vt 0.110077 0.512186
vt 0.203490 0.512186
vt 0.203490 0.512186
vt 0.203490 0.512186
vt 0.203490 0.512186
vt 0.266615 0.512186
vt 0.266615 0.512186
vt 0.266615 0.512186
vt 0.266615 0.512186
vt 0.203490 0.512186
vt 0.203490 0.512186
vt 0.203490 0.512186
vt 0.203490 0.512186
vt 0.294303 0.264115
vt 0.294303 0.264115
vt 0.294303 0.264115
vt 0.294303 0.264115
vt 0.324761 0.264115
vt 0.324761 0.264115
vt 0.324761 0.264115
vt 0.324761 0.264115
vt 0.294303 0.264115
vt 0.294303 0.264115
vt 0.294303 0.264115
vt 0.294303 0.264115
vt 0.264529 0.264115
vt 0.264529 0.264115
vt 0.264529 0.264115
vt 0.264529 0.264115
vt 0.264529 0.264115
vt 0.264529 0.264115
vt 0.264529 0.264115
vt 0.264529 0.264115
vt 0.294303 0.264115
vt 0.294303 0.264115
vt 0.294303 0.264115
vt 0.294303 0.264115
vt 0.324761 0.264115
vt 0.324761 0.264115
vt 0.324761 0.264115
vt 0.324761 0.264115
vt 0.294303 0.264115
vt 0.294303 0.264115
vt 0.294303 0.264115
vt 0.294303 0.264115
vt 0.264529 0.264115
vt 0.264529 0.264115
vt 0.264529 0.264115
vt 0.264529 0.264115
vt 0.264529 0.264115
vt 0.264529 0.264115
vt 0.264529 0.264115
vt 0.264529 0.264115
vn 0.000000 0.000000 1.000000
vn 0.000000 0.000000 1.000000
vn 0.000000 0.000000 1.000000
vn 0.000000 0.000000 1.000000
vn 0.000000 1.000000 0.000000
vn 0.000000 1.000000 0.000000
vn 0.000000 1.000000 0.000000
vn 0.000000 1.000000 0.000000
vn 0.000000 0.000000 -1.000000
vn 0.000000 0.000000 -1.000000
vn 0.000000 0.000000 -1.000000
vn 0.000000 0.000000 -1.000000
vn 1.000000 0.000000 0.000000
vn 1.000000 0.000000 0.000000
vn 1.000000 0.000000 0.000000
vn 1.000000 0.000000 0.000000
vn -1.000000 0.000000 0.000000
vn -1.000000 0.000000 0.000000
vn -1.000000 0.000000 0.000000
vn -1.000000 0.000000 0.000000
vn 0.000000 0.000000 1.000000
vn 0.000000 0.000000 1.000000
vn 0.000000 0.000000 1.000000
vn 0.000000 0.000000 1.000000
vn 0.000000 1.000000 0.000000
vn 0.000000 1.000000 0.000000
vn 0.000000 1.000000 0.000000
vn 0.000000 1.000000 0.000000
vn 0.000000 0.000000 -1.000000
vn 0.000000 0.000000 -1.000000
vn 0.000000 0.000000 -1.000000
vn 0.000000 0.000000 -1.000000
vn 1.000000 0.000000 0.000000
vn 1.000000 0.000000 0.000000
vn 1.000000 0.000000 0.000000
vn 1.000000 0.000000 0.000000
vn -1.000000 0.000000 0.000000
vn -1.000000 0.000000 0.000000
vn -1.000000 0.000000 0.000000
vn -1.000000 0.000000 0.000000
vn 0.000000 1.000000 -0.000001
vn 0.000000 1.000000 -0.000001
vn 0.000000 1.000000 -0.000001
vn 0.000000 1.000000 -0.000001
vn 0.000000 1.000000 0.000000
vn 0.000000 1.000000 0.000000
vn 0.000000 1.000000 0.000000
vn 0.000000 1.000000 0.000000
vn 0.000000 1.000000 0.000000
vn 0.000000 1.000000 0.000000
vn 0.000000 1.000000 0.000000
vn 0.000000 1.000000 0.000000
vn 0.000000 1.000000 0.000000
vn 0.000000 1.000000 0.000000
vn 0.000000 1.000000 0.000001
vn 0.000000 1.000000 0.000001
vn 0.000000 1.000000 0.000001
vn 0.000000 1.000000 0.000001
vn 0.000000 1.000000 0.000000
vn 0.000000 1.000000 0.000000
vn 0.000000 1.000000 0.000000
vn 0.000000 1.000000 0.000000
vn 0.000000 1.000000 0.000000
vn 0.000000 1.000000 0.000000
vn 0.000000 1.000000 0.000000
vn 0.000000 1.000000 0.000000
vn 0.000000 1.000000 0.000000
vn 0.000000 1.000000 0.000000
vn 0.000000 0.000000 1.000000
vn 0.000000 0.000000 1.000000
vn 0.000000 0.000000 1.000000
vn 0.000000 0.000000 1.000000
vn 1.000000 0.000000 0.000000
vn 1.000000 0.000000 0.000000
vn 1.000000 0.000000 0.000000
vn 1.000000 0.000000 0.000000
vn 0.000000 0.000000 -1.000000
vn 0.000000 0.000000 -1.000000
vn 0.000000 0.000000 -1.000000
vn 0.000000 0.000000 -1.000000
vn -1.000000 0.000000 0.000000
vn -1.000000 0.000000 0.000000
vn -1.000000 0.000000 0.000000
vn -1.000000 0.000000 0.000000
vn 1.000000 0.000000 0.000000
vn 1.000000 0.000000 0.000000
vn 1.000000 0.000000 0.000000
vn 1.000000 0.000000 0.000000
vn 0.000000 1.000000 0.000000
vn 0.000000 1.000000 0.000000
vn 0.000000 1.000000 0.000000
vn 0.000000 1.000000 0.000000
vn -1.000000 0.000000 0.000000
vn -1.000000 0.000000 0.000000
vn -1.000000 0.000000 0.000000
vn -1.000000 0.000000 0.000000
vn 1.000000 0.000000 0.000000
vn 1.000000 0.000000 0.000000
vn 1.000000 0.000000 0.000000
vn 1.000000 0.000000 0.000000
vn 0.000000 1.000000 0.000000
vn 0.000000 1.000000 0.000000
vn 0.000000 1.000000 0.000000
vn 0.000000 1.000000 0.000000
vn -1.000000 0.000000 0.000000
vn -1.000000 0.000000 0.000000
vn -1.000000 0.000000 0.000000
vn -1.000000 0.000000 0.000000
vn -1.000000 0.000000 0.000000
vn -1.000000 0.000000 0.000000
vn -1.000000 0.000000 0.000000
vn -1.000000 0.000000 0.000000
vn 0.000000 1.000000 0.000000
vn 0.000000 1.000000 0.000000
vn 0.000000 1.000000 0.000000
vn 0.000000 1.000000 0.000000
vn 1.000000 0.000000 0.000000
vn 1.000000 0.000000 0.000000
vn 1.000000 0.000000 0.000000
vn 1.000000 0.000000 0.000000
vn 1.000000 0.000000 0.000000
vn 1.000000 0.000000 0.000000
vn 1.000000 0.000000 0.000000
vn 1.000000 0.000000 0.000000
vn 0.000000 1.000000 0.000000
vn 0.000000 1.000000 0.000000
vn 0.000000 1.000000 0.000000
vn 0.000000 1.000000 0.000000
vn -1.000000 0.000000 0.000000
vn -1.000000 0.000000 0.000000
vn -1.000000 0.000000 0.000000
vn -1.000000 0.000000 0.000000
vn -1.000000 0.000000 0.000000
vn -1.000000 0.000000 0.000000
vn -1.000000 0.000000 0.000000
vn -1.000000 0.000000 0.000000
vn 0.000000 1.000000 0.000000
vn 0.000000 1.000000 0.000000
vn 0.000000 1.000000 0.000000
vn 0.000000 1.000000 0.000000
vn 1.000000 0.000000 0.000000
vn 1.000000 0.000000 0.000000
vn 1.000000 0.000000 0.000000
vn 1.000000 0.000000 0.000000
vn 1.000000 0.000000 0.000000
vn 1.000000 0.000000 0.000000
vn 1.000000 0.000000 0.000000
vn 1.000000 0.000000 0.000000
vn 0.000000 1.000000 0.000000
vn 0.000000 1.000000 0.000000
vn 0.000000 1.000000 0.000000
vn 0.000000 1.000000 0.000000
vn -1.000000 0.000000 0.000000
vn -1.000000 0.000000 0.000000
vn -1.000000 0.000000 0.000000
vn -1.000000 0.000000 0.000000
vn 0.000000 0.000000 1.000000
vn 0.000000 0.000000 1.000000
vn 0.000000 0.000000 1.000000
vn 0.000000 0.000000 1.000000
vn 0.000000 1.000000 0.000000
vn 0.000000 1.000000 0.000000
vn 0.000000 1.000000 0.000000
vn 0.000000 1.000000 0.000000
vn 0.000000 0.000000 -1.000000
vn 0.000000 0.000000 -1.000000
vn 0.000000 0.000000 -1.000000
vn 0.000000 0.000000 -1.000000
vn 1.000000 0.000000 0.000000
vn 1.000000 0.000000 0.000000
vn 1.000000 0.000000 0.000000
vn 1.000000 0.000000 0.000000
vn -1.000000 0.000000 0.000000
vn -1.000000 0.000000 0.000000
vn -1.000000 0.000000 0.000000
vn -1.000000 0.000000 0.000000
vn 0.000000 0.000000 1.000000
vn 0.000000 0.000000 1.000000
vn 0.000000 0.000000 1.000000
vn 0.000000 0.000000 1.000000
vn 0.000000 1.000000 0.000000
vn 0.000000 1.000000 0.000000
vn 0.000000 1.000000 0.000000
vn 0.000000 1.000000 0.000000
vn 0.000000 0.000000 -1.000000
vn 0.000000 0.000000 -1.000000
vn 0.000000 0.000000 -1.000000
vn 0.000000 0.000000 -1.000000
vn 1.000000 0.000000 0.000000
vn 1.000000 0.000000 0.000000
vn 1.000000 0.000000 0.000000
vn 1.000000 0.000000 0.000000
vn -1.000000 0.000000 0.000000
vn -1.000000 0.000000 0.000000
vn -1.000000 0.000000 0.000000
vn -1.000000 0.000000 0.000000
s off
f 1/1/1 2/2/2 4/3/3 3/4/4
f 3/5/5 4/6/6 6/7/7 5/8/8
f 5/9/9 6/10/10 8/11/11 7/12/12
f 2/13/13 8/14/14 6/15/15 4/16/16
f 7/17/17 1/18/18 3/19/19 5/20/20
f 9/21/21 10/22/22 12/23/23 11/24/24
f 34/25/25 35/26/26 38/27/27 39/28/28
f 13/29/29 14/30/30 16/31/31 15/32/32
f 10/33/33 16/34/34 14/35/35 12/36/36
f 15/37/37 9/38/38 11/39/39 13/40/40
f 11/41/41 12/42/42 18/43/43 17/44/44
f 12/42/45 14/45/46 19/46/47 45/47/48 29/48/49 44/49/50 25/50/51 37/51/52 36/52/53 18/43/54
f 14/45/55 13/53/56 20/54/57 19/46/58
f 13/53/59 11/41/60 17/44/61 33/55/62 40/56/63 28/57/64 41/58/65 32/59/66 48/60/67 20/54/68
f 17/61/69 18/62/70 22/63/71 21/64/72
f 35/65/73 36/66/74 37/67/75 38/68/76
f 19/69/77 20/70/78 24/71/79 23/72/80
f 39/73/81 40/74/82 33/75/83 34/76/84
f 43/77/85 44/78/86 29/79/87 30/80/88
f 42/81/89 43/82/90 30/83/91 31/84/92
f 31/85/93 32/86/94 41/87/95 42/88/96
f 30/89/97 29/90/98 45/91/99 46/92/100
f 31/93/101 30/94/102 46/95/103 47/96/104
f 47/97/105 48/98/106 32/99/107 31/100/108
f 34/101/109 33/102/110 17/103/111 21/104/112
f 21/105/113 22/106/114 35/107/115 34/108/116
f 18/109/117 36/110/118 35/111/119 22/112/120
f 38/113/121 37/114/122 25/115/123 26/116/124
f 39/117/125 38/118/126 26/119/127 27/120/128
f 27/121/129 28/122/130 40/123/131 39/124/132
f 42/125/133 41/126/134 28/127/135 27/128/136
f 27/129/137 26/130/138 43/131/139 42/132/140
f 26/133/141 25/134/142 44/135/143 43/136/144
f 46/137/145 45/138/146 19/139/147 23/140/148
f 47/141/149 46/142/150 23/143/151 24/144/152
f 20/145/153 48/146/154 47/147/155 24/148/156
f 49/149/157 50/150/158 52/151/159 51/152/160
f 51/153/161 52/154/162 54/155/163 53/156/164
f 53/157/165 54/158/166 56/159/167 55/160/168
f 50/161/169 56/162/170 54/163/171 52/164/172
f 55/165/173 49/166/174 51/167/175 53/168/176
f 57/169/177 58/170/178 60/171/179 59/172/180
f 59/173/181 60/174/182 62/175/183 61/176/184
f 61/177/185 62/178/186 64/179/187 63/180/188
f 58/181/189 64/182/190 62/183/191 60/184/192
f 63/185/193 57/186/194 59/187/195 61/188/196
