# This file uses meters as units for non-parametric coordinates.

v 0.113566 0.038651 0.024244
v -0.113566 0.038651 0.024244
v 0.113566 0.105682 0.015627
v -0.113566 0.105682 0.015627
v 0.113566 0.076718 -0.209651
v -0.113566 0.076718 -0.209651
v 0.113566 0.009688 -0.201033
v -0.113566 0.009688 -0.201033
v 0.078776 0.101245 -0.018880
v -0.078775 0.101245 -0.018880
v -0.078775 0.081153 -0.175145
v 0.078776 0.081153 -0.175145
v 0.044974 0.134978 -0.057298
v -0.044973 0.134978 -0.057298
v -0.044973 0.123508 -0.146510
v 0.044974 0.123508 -0.146510
v 0.062911 0.031735 0.126877
v -0.062910 0.031735 0.126877
v 0.062911 0.068470 0.134090
v -0.062910 0.068470 0.134090
v 0.062911 0.092714 0.010628
v -0.062910 0.092714 0.010628
v 0.062911 0.055979 0.003414
v -0.062910 0.055979 0.003414
v 0.043639 0.072182 0.115179
v -0.043638 0.072182 0.115179
v -0.043638 0.089000 0.029539
v 0.043639 0.089000 0.029539
v 0.024914 0.096641 0.100901
v -0.024913 0.096641 0.100901
v -0.024913 0.106241 0.052008
v 0.024914 0.106241 0.052008
v 0.041865 0.000000 0.200576
v -0.041865 0.000000 0.200576
v 0.041865 0.023201 0.209651
v -0.041865 0.023201 0.209651
v 0.041865 0.053701 0.131674
v -0.041865 0.053701 0.131674
v 0.041865 0.030499 0.122599
v -0.041865 0.030499 0.122599
v 0.029040 0.027873 0.197707
v -0.029040 0.027873 0.197707
v -0.029040 0.049029 0.143618
v 0.029040 0.049029 0.143618
v 0.016580 0.045581 0.191253
v -0.016579 0.045581 0.191253
v -0.016579 0.057659 0.160373
v 0.016580 0.057659 0.160373
vt 0.387218 0.086073
vt 0.387218 0.086073
vt 0.387218 0.086073
vt 0.387218 0.086073
vt 0.356783 0.195749
vt 0.356783 0.195749
vt 0.356783 0.195749
vt 0.356783 0.195749
vt 0.387218 0.086073
vt 0.387218 0.086073
vt 0.387218 0.086073
vt 0.387218 0.086073
vt 0.331382 0.086073
vt 0.331382 0.086073
vt 0.331382 0.086073
vt 0.331382 0.086073
vt 0.363766 0.086073
vt 0.363766 0.086073
vt 0.363766 0.086073
vt 0.363766 0.086073
vt 0.363766 0.086073
vt 0.363766 0.086073
vt 0.363766 0.086073
vt 0.363766 0.086073
vt 0.420719 0.086073
vt 0.420719 0.086073
vt 0.420719 0.086073
vt 0.420719 0.086073
vt 0.420719 0.086073
vt 0.420719 0.086073
vt 0.420719 0.086073
vt 0.420719 0.086073
vt 0.420719 0.086073
vt 0.420719 0.086073
vt 0.420719 0.086073
vt 0.420719 0.086073
vt 0.420719 0.086073
vt 0.420719 0.086073
vt 0.420719 0.086073
vt 0.420719 0.086073
vt 0.328694 0.195749
vt 0.328694 0.195749
vt 0.328694 0.195749
vt 0.328694 0.195749
vt 0.293324 0.195749
vt 0.293324 0.195749
vt 0.293324 0.195749
vt 0.293324 0.195749
vt 0.328694 0.195749
vt 0.328694 0.195749
vt 0.328694 0.195749
vt 0.328694 0.195749
vt 0.293324 0.195749
vt 0.293324 0.195749
vt 0.293324 0.195749
vt 0.293324 0.195749
vt 0.387218 0.086073
vt 0.387218 0.086073
vt 0.387218 0.086073
vt 0.387218 0.086073
vt 0.356783 0.195749
vt 0.356783 0.195749
vt 0.356783 0.195749
vt 0.356783 0.195749
vt 0.387218 0.086073
vt 0.387218 0.086073
vt 0.387218 0.086073
vt 0.387218 0.086073
vt 0.331382 0.086073
vt 0.331382 0.086073
vt 0.331382 0.086073
vt 0.331382 0.086073
vt 0.363766 0.086073
vt 0.363766 0.086073
vt 0.363766 0.086073
vt 0.363766 0.086073
vt 0.363766 0.086073
vt 0.363766 0.086073
vt 0.363766 0.086073
vt 0.363766 0.086073
vt 0.420719 0.086073
vt 0.420719 0.086073
vt 0.420719 0.086073
vt 0.420719 0.086073
vt 0.420719 0.086073
vt 0.420719 0.086073
vt 0.420719 0.086073
vt 0.420719 0.086073
vt 0.420719 0.086073
vt 0.420719 0.086073
vt 0.420719 0.086073
vt 0.420719 0.086073
vt 0.420719 0.086073
vt 0.420719 0.086073
vt 0.420719 0.086073
vt 0.420719 0.086073
vt 0.328694 0.195749
vt 0.328694 0.195749
vt 0.328694 0.195749
vt 0.328694 0.195749
vt 0.293324 0.195749
vt 0.293324 0.195749
vt 0.293324 0.195749
vt 0.293324 0.195749
vt 0.328694 0.195749
vt 0.328694 0.195749
vt 0.328694 0.195749
vt 0.328694 0.195749
vt 0.293324 0.195749
vt 0.293324 0.195749
vt 0.293324 0.195749
vt 0.293324 0.195749
vt 0.387218 0.086073
vt 0.387218 0.086073
vt 0.387218 0.086073
vt 0.387218 0.086073
vt 0.356783 0.195749
vt 0.356783 0.195749
vt 0.356783 0.195749
vt 0.356783 0.195749
vt 0.387218 0.086073
vt 0.387218 0.086073
vt 0.387218 0.086073
vt 0.387218 0.086073
vt 0.331382 0.086073
vt 0.331382 0.086073
vt 0.331382 0.086073
vt 0.331382 0.086073
vt 0.363766 0.086073
vt 0.363766 0.086073
vt 0.363766 0.086073
vt 0.363766 0.086073
vt 0.363766 0.086073
vt 0.363766 0.086073
vt 0.363766 0.086073
vt 0.363766 0.086073
vt 0.420719 0.086073
vt 0.420719 0.086073
vt 0.420719 0.086073
vt 0.420719 0.086073
vt 0.420719 0.086073
vt 0.420719 0.086073
vt 0.420719 0.086073
vt 0.420719 0.086073
vt 0.420719 0.086073
vt 0.420719 0.086073
vt 0.420719 0.086073
vt 0.420719 0.086073
vt 0.420719 0.086073
vt 0.420719 0.086073
vt 0.420719 0.086073
vt 0.420719 0.086073
vt 0.328694 0.195749
vt 0.328694 0.195749
vt 0.328694 0.195749
vt 0.328694 0.195749
vt 0.293324 0.195749
vt 0.293324 0.195749
vt 0.293324 0.195749
vt 0.293324 0.195749
vt 0.328694 0.195749
vt 0.328694 0.195749
vt 0.328694 0.195749
vt 0.328694 0.195749
vt 0.293324 0.195749
vt 0.293324 0.195749
vt 0.293324 0.195749
vt 0.293324 0.195749
vn 0.000000 0.127519 0.991836
vn 0.000000 0.127519 0.991836
vn 0.000000 0.127519 0.991836
vn 0.000000 0.127519 0.991836
vn 0.000000 0.991835 -0.127524
vn 0.000000 0.991835 -0.127524
vn 0.000000 0.991835 -0.127524
vn 0.000000 0.991835 -0.127524
vn 0.000000 -0.127525 -0.991835
vn 0.000000 -0.127525 -0.991835
vn 0.000000 -0.127525 -0.991835
vn 0.000000 -0.127525 -0.991835
vn 0.000000 -0.991836 0.127522
vn 0.000000 -0.991836 0.127522
vn 0.000000 -0.991836 0.127522
vn 0.000000 -0.991836 0.127522
vn -1.000000 -0.000001 0.000003
vn -1.000000 -0.000001 0.000003
vn -1.000000 -0.000001 0.000003
vn -1.000000 -0.000001 0.000003
vn 1.000000 -0.000001 0.000003
vn 1.000000 -0.000001 0.000003
vn 1.000000 -0.000001 0.000003
vn 1.000000 -0.000001 0.000003
vn 0.000000 0.991836 -0.127520
vn 0.000000 0.991836 -0.127520
vn 0.000000 0.991836 -0.127520
vn 0.000000 0.991836 -0.127520
vn 0.000000 0.991836 -0.127519
vn 0.000000 0.991836 -0.127519
vn 0.000000 0.991836 -0.127519
vn 0.000000 0.991836 -0.127519
vn 0.000000 0.991836 -0.127523
vn 0.000000 0.991836 -0.127523
vn 0.000000 0.991836 -0.127523
vn 0.000000 0.991836 -0.127523
vn 0.000001 0.991836 -0.127523
vn 0.000001 0.991836 -0.127523
vn 0.000001 0.991836 -0.127523
vn 0.000001 0.991836 -0.127523
vn 0.000000 0.751437 0.659805
vn 0.000000 0.751437 0.659804
vn 0.000000 0.751437 0.659804
vn 0.000000 0.751437 0.659805
vn -0.750247 0.655760 -0.084313
vn -0.750247 0.655760 -0.084313
vn -0.750247 0.655760 -0.084313
vn -0.750247 0.655760 -0.084313
vn 0.000000 0.560094 -0.828429
vn 0.000000 0.560094 -0.828429
vn 0.000000 0.560094 -0.828429
vn 0.000000 0.560094 -0.828429
vn 0.750247 0.655760 -0.084313
vn 0.750247 0.655760 -0.084313
vn 0.750247 0.655760 -0.084313
vn 0.750247 0.655760 -0.084313
vn 0.000000 -0.192696 0.981259
vn 0.000000 -0.192696 0.981259
vn 0.000000 -0.192696 0.981259
vn 0.000000 -0.192696 0.981259
vn 0.000000 0.981258 0.192698
vn 0.000000 0.981258 0.192698
vn 0.000000 0.981258 0.192698
vn 0.000000 0.981258 0.192698
vn 0.000000 0.192708 -0.981256
vn 0.000000 0.192708 -0.981256
vn 0.000000 0.192708 -0.981256
vn 0.000000 0.192708 -0.981256
vn 0.000000 -0.981258 -0.192699
vn 0.000000 -0.981258 -0.192699
vn 0.000000 -0.981258 -0.192699
vn 0.000000 -0.981258 -0.192699
vn -1.000000 -0.000001 0.000003
vn -1.000000 -0.000001 0.000003
vn -1.000000 -0.000001 0.000003
vn -1.000000 -0.000001 0.000003
vn 1.000000 0.000000 0.000000
vn 1.000000 0.000000 0.000000
vn 1.000000 0.000000 0.000000
vn 1.000000 0.000000 0.000000
vn 0.000000 0.981259 0.192696
vn 0.000000 0.981259 0.192696
vn 0.000000 0.981259 0.192696
vn 0.000000 0.981259 0.192696
vn -0.000002 0.981259 0.192693
vn -0.000002 0.981259 0.192693
vn -0.000002 0.981259 0.192693
vn -0.000002 0.981259 0.192693
vn 0.000000 0.981259 0.192693
vn 0.000000 0.981259 0.192693
vn 0.000000 0.981259 0.192693
vn 0.000000 0.981259 0.192693
vn 0.000002 0.981257 0.192706
vn 0.000002 0.981257 0.192706
vn 0.000002 0.981257 0.192706
vn 0.000002 0.981257 0.192706
vn 0.000000 0.504200 0.863587
vn 0.000000 0.504200 0.863587
vn 0.000000 0.504200 0.863587
vn 0.000000 0.504200 0.863587
vn -0.750246 0.648766 0.127411
vn -0.750246 0.648766 0.127411
vn -0.750246 0.648766 0.127411
vn -0.750246 0.648766 0.127411
vn 0.000000 0.793347 -0.608770
vn 0.000000 0.793347 -0.608770
vn 0.000000 0.793347 -0.608770
vn 0.000000 0.793347 -0.608770
vn 0.750245 0.648770 0.127398
vn 0.750245 0.648770 0.127398
vn 0.750245 0.648770 0.127398
vn 0.750245 0.648770 0.127398
vn 0.000000 -0.364270 0.931293
vn 0.000000 -0.364270 0.931293
vn 0.000000 -0.364270 0.931293
vn 0.000000 -0.364270 0.931293
vn 0.000000 0.931300 0.364254
vn 0.000000 0.931300 0.364254
vn 0.000000 0.931300 0.364254
vn 0.000000 0.931300 0.364254
vn 0.000000 0.364270 -0.931293
vn 0.000000 0.364270 -0.931293
vn 0.000000 0.364270 -0.931293
vn 0.000000 0.364270 -0.931293
vn 0.000000 -0.931300 -0.364254
vn 0.000000 -0.931300 -0.364254
vn 0.000000 -0.931300 -0.364254
vn 0.000000 -0.931300 -0.364254
vn -1.000000 0.000001 -0.000002
vn -1.000000 0.000001 -0.000002
vn -1.000000 0.000001 -0.000002
vn -1.000000 0.000001 -0.000002
vn 1.000000 0.000001 -0.000003
vn 1.000000 0.000001 -0.000003
vn 1.000000 0.000001 -0.000003
vn 1.000000 0.000001 -0.000003
vn 0.000000 0.931299 0.364256
vn 0.000000 0.931299 0.364256
vn 0.000000 0.931299 0.364256
vn 0.000000 0.931299 0.364256
vn 0.000000 0.931300 0.364255
vn 0.000000 0.931300 0.364255
vn 0.000000 0.931300 0.364255
vn 0.000000 0.931300 0.364255
vn 0.000000 0.931300 0.364253
vn 0.000000 0.931300 0.364253
vn 0.000000 0.931300 0.364253
vn 0.000000 0.931300 0.364253
vn 0.000000 0.931300 0.364254
vn 0.000000 0.931300 0.364254
vn 0.000000 0.931300 0.364254
vn 0.000000 0.931300 0.364254
vn 0.000000 0.342468 0.939530
vn 0.000000 0.342468 0.939530
vn 0.000000 0.342468 0.939530
vn 0.000000 0.342468 0.939530
vn -0.750251 0.615735 0.240821
vn -0.750251 0.615735 0.240821
vn -0.750251 0.615735 0.240821
vn -0.750251 0.615735 0.240821
vn 0.000000 0.889025 -0.457859
vn 0.000000 0.889025 -0.457859
vn 0.000000 0.889025 -0.457859
vn 0.000000 0.889025 -0.457859
vn 0.750251 0.615735 0.240819
vn 0.750251 0.615735 0.240819
vn 0.750251 0.615735 0.240819
vn 0.750251 0.615735 0.240819
s off
f 1/1/1 3/2/2 4/3/3 2/4/4
f 13/5/5 16/6/6 15/7/7 14/8/8
f 5/9/9 7/10/10 8/11/11 6/12/12
f 7/13/13 1/14/14 2/15/15 8/16/16
f 2/17/17 4/18/18 6/19/19 8/20/20
f 7/21/21 5/22/22 3/23/23 1/24/24
f 3/25/25 9/26/26 10/27/27 4/28/28
f 4/29/29 10/30/30 11/31/31 6/32/32
f 6/33/33 11/34/34 12/35/35 5/36/36
f 5/37/37 12/38/38 9/39/39 3/40/40
f 9/41/41 13/42/42 14/43/43 10/44/44
f 10/45/45 14/46/46 15/47/47 11/48/48
f 11/49/49 15/50/50 16/51/51 12/52/52
f 12/53/53 16/54/54 13/55/55 9/56/56
f 17/57/57 19/58/58 20/59/59 18/60/60
f 29/61/61 32/62/62 31/63/63 30/64/64
f 21/65/65 23/66/66 24/67/67 22/68/68
f 23/69/69 17/70/70 18/71/71 24/72/72
f 18/73/73 20/74/74 22/75/75 24/76/76
f 23/77/77 21/78/78 19/79/79 17/80/80
f 19/81/81 25/82/82 26/83/83 20/84/84
f 20/85/85 26/86/86 27/87/87 22/88/88
f 22/89/89 27/90/90 28/91/91 21/92/92
f 21/93/93 28/94/94 25/95/95 19/96/96
f 25/97/97 29/98/98 30/99/99 26/100/100
f 26/101/101 30/102/102 31/103/103 27/104/104
f 27/105/105 31/106/106 32/107/107 28/108/108
f 28/109/109 32/110/110 29/111/111 25/112/112
f 33/113/113 35/114/114 36/115/115 34/116/116
f 45/117/117 48/118/118 47/119/119 46/120/120
f 37/121/121 39/122/122 40/123/123 38/124/124
f 39/125/125 33/126/126 34/127/127 40/128/128
f 34/129/129 36/130/130 38/131/131 40/132/132
f 39/133/133 37/134/134 35/135/135 33/136/136
f 35/137/137 41/138/138 42/139/139 36/140/140
f 36/141/141 42/142/142 43/143/143 38/144/144
f 38/145/145 43/146/146 44/147/147 37/148/148
f 37/149/149 44/150/150 41/151/151 35/152/152
f 41/153/153 45/154/154 46/155/155 42/156/156
f 42/157/157 46/158/158 47/159/159 43/160/160
f 43/161/161 47/162/162 48/163/163 44/164/164
f 44/165/165 48/166/166 45/167/167 41/168/168
