# This file uses meters as units for non-parametric coordinates.

v -0.056751 0.132395 1.226486
v 0.056746 0.132401 1.226486
v -0.056751 0.132395 -1.226486
v 0.056746 0.132401 -1.226486
v -0.056751 0.051279 -1.226486
v 0.056740 0.051279 -1.226486
v -0.056751 0.051282 1.226486
v 0.056740 0.051282 1.226486
v 0.152035 0.175355 -0.317074
v 0.152035 0.175352 -0.609043
v -0.152040 0.175355 -0.317074
v -0.152040 0.175352 -0.609043
v -0.152040 0.051279 -0.317074
v -0.152040 0.051279 -0.609043
v 0.152035 0.051279 -0.317074
v 0.152035 0.051279 -0.609043
v 0.105129 0.175355 -0.362103
v 0.105129 0.175352 -0.564014
v -0.105141 0.175349 -0.564014
v -0.105141 0.175349 -0.362103
v 0.063147 0.250537 -0.402424
v 0.063147 0.250537 -0.523693
v -0.063154 0.250537 -0.523693
v -0.063154 0.250537 -0.402424
v 0.545521 0.132395 -0.404823
v 0.545521 0.132395 -0.521297
v -0.545521 0.132395 -0.404823
v -0.545521 0.132395 -0.521297
v -0.545521 0.051279 -0.404823
v -0.545521 0.051279 -0.521297
v 0.545509 0.051279 -0.404823
v 0.545509 0.051279 -0.521297
v -0.098080 0.078864 1.217281
v 0.098068 0.078864 1.217281
v -0.541431 0.078867 -0.557655
v 0.541420 0.078864 -0.557655
v -0.541420 0.032023 -0.557655
v 0.541426 0.032023 -0.557655
v -0.098068 0.032023 1.217281
v 0.098068 0.032023 1.217281
v -0.541431 0.078867 -0.361511
v 0.541420 0.078864 -0.361511
v 0.541426 0.032023 -0.361511
v -0.541420 0.032023 -0.361511
v 0.098068 0.032023 -1.217278
v 0.098068 0.078864 -1.217278
v -0.098068 0.032023 -1.217278
v -0.098080 0.078864 -1.217278
v 0.454380 0.078867 -0.958427
v 0.454380 0.032023 -0.958427
v -0.454380 0.078864 -0.958427
v -0.454380 0.032023 -0.958427
v 0.000011 0.078864 -1.217278
v 0.000011 0.078864 1.217281
v 0.000011 0.032023 -1.217278
v 0.000011 0.032023 1.217281
v 0.000011 0.078864 -1.162563
v 0.000011 0.078864 1.146542
v 0.051327 0.078870 1.146542
v 0.472309 0.078864 -0.350895
v 0.472309 0.078864 -0.536930
v 0.396389 0.078864 -0.917049
v 0.085564 0.078864 -1.162563
v -0.051315 0.078864 1.146542
v -0.085569 0.078867 -1.162563
v -0.396389 0.078864 -0.917049
v -0.472321 0.078864 -0.536930
v -0.472321 0.078864 -0.350895
v -0.520758 0.175749 -0.429054
v -0.441875 0.175749 -0.429054
v -0.520758 0.175749 -0.503551
v -0.441875 0.175749 -0.503551
v -0.520758 0.132395 -0.503551
v -0.441875 0.132395 -0.503551
v -0.520758 0.132395 -0.429054
v -0.441875 0.132395 -0.429054
v 0.441870 0.175749 -0.429054
v 0.520750 0.175749 -0.429054
v 0.441870 0.175749 -0.503551
v 0.520750 0.175749 -0.503551
v 0.441875 0.132395 -0.503551
v 0.520763 0.132401 -0.503551
v 0.441875 0.132395 -0.429054
v 0.520763 0.132401 -0.429054
v -0.039446 0.175749 1.208763
v 0.039454 0.175749 1.208763
v -0.039446 0.175749 1.134262
v 0.039454 0.175749 1.134262
v -0.039440 0.132395 1.134262
v 0.039454 0.132401 1.134262
v -0.039440 0.132395 1.208763
v 0.039454 0.132401 1.208763
v -0.039446 0.175749 -1.117279
v 0.039446 0.175749 -1.117279
v -0.039446 0.175749 -1.191780
v 0.039446 0.175749 -1.191780
v -0.039440 0.132395 -1.191780
v 0.039446 0.132401 -1.191780
v -0.039440 0.132395 -1.117279
v 0.039446 0.132401 -1.117279
v -0.472321 0.078864 -0.443913
v 0.000011 0.078864 -0.443913
v 0.472309 0.078864 -0.443913
v 0.000000 0.032023 -0.312931
vt 0.268740 0.060925
vt 0.268740 0.060925
vt 0.268740 0.060925
vt 0.268740 0.060925
vt 0.299198 0.060925
vt 0.299198 0.060925
vt 0.299198 0.060925
vt 0.299198 0.060925
vt 0.205376 0.060925
vt 0.205376 0.060925
vt 0.205376 0.060925
vt 0.205376 0.060925
vt 0.238966 0.060925
vt 0.238966 0.060925
vt 0.238966 0.060925
vt 0.238966 0.060925
vt 0.238966 0.060925
vt 0.238966 0.060925
vt 0.238966 0.060925
vt 0.238966 0.060925
vt 0.268740 0.060925
vt 0.268740 0.060925
vt 0.268740 0.060925
vt 0.268740 0.060925
vt 0.239410 0.060179
vt 0.239410 0.060179
vt 0.239410 0.060179
vt 0.239410 0.060179
vt 0.239410 0.060179
vt 0.239410 0.060179
vt 0.239410 0.060179
vt 0.239410 0.060179
vt 0.300702 0.060925
vt 0.300702 0.060925
vt 0.300702 0.060925
vt 0.300702 0.060925
vt 0.210103 0.060925
vt 0.210103 0.060925
vt 0.210103 0.060925
vt 0.210103 0.060925
vt 0.268740 0.060925
vt 0.268740 0.060925
vt 0.268740 0.060925
vt 0.268740 0.060925
vt 0.268740 0.060925
vt 0.268740 0.060925
vt 0.268740 0.060925
vt 0.268740 0.060925
vt 0.268740 0.060925
vt 0.268740 0.060925
vt 0.268740 0.060925
vt 0.268740 0.060925
vt 0.268740 0.060925
vt 0.268740 0.060925
vt 0.268740 0.060925
vt 0.268740 0.060925
vt 0.238273 0.060925
vt 0.238273 0.060925
vt 0.238273 0.060925
vt 0.238273 0.060925
vt 0.300009 0.060925
vt 0.300009 0.060925
vt 0.300009 0.060925
vt 0.300009 0.060925
vt 0.238273 0.060925
vt 0.238273 0.060925
vt 0.238273 0.060925
vt 0.238273 0.060925
vt 0.204599 0.060925
vt 0.204599 0.060925
vt 0.204599 0.060925
vt 0.204599 0.060925
vt 0.268740 0.060925
vt 0.268740 0.060925
vt 0.268740 0.060925
vt 0.268740 0.060925
vt 0.239410 0.060179
vt 0.239410 0.060179
vt 0.239410 0.060179
vt 0.239410 0.060179
vt 0.239410 0.060179
vt 0.239410 0.060179
vt 0.239410 0.060179
vt 0.239410 0.060179
vt 0.300702 0.060925
vt 0.300702 0.060925
vt 0.300702 0.060925
vt 0.300702 0.060925
vt 0.210103 0.060925
vt 0.210103 0.060925
vt 0.210103 0.060925
vt 0.210103 0.060925
vt 0.351609 0.333068
vt 0.351609 0.333068
vt 0.351609 0.333068
vt 0.351609 0.333068
vt 0.351609 0.333068
vt 0.351609 0.333068
vt 0.299198 0.060811
vt 0.299198 0.060811
vt 0.299198 0.060811
vt 0.299198 0.060811
vt 0.238966 0.060811
vt 0.238966 0.060811
vt 0.238966 0.060811
vt 0.238966 0.060811
vt 0.238966 0.060811
vt 0.238966 0.060811
vt 0.238966 0.060811
vt 0.238966 0.060811
vt 0.238966 0.060811
vt 0.238966 0.060811
vt 0.238966 0.060811
vt 0.238966 0.060811
vt 0.238966 0.060811
vt 0.238966 0.060811
vt 0.238966 0.060811
vt 0.238966 0.060811
vt 0.330467 0.060811
vt 0.330467 0.060811
vt 0.330467 0.060811
vt 0.330467 0.060811
vt 0.205376 0.060811
vt 0.205376 0.060811
vt 0.205376 0.060811
vt 0.205376 0.060811
vt 0.299198 0.060811
vt 0.299198 0.060811
vt 0.299198 0.060811
vt 0.299198 0.060811
vt 0.299198 0.060811
vt 0.299198 0.060811
vt 0.299198 0.060811
vt 0.299198 0.060811
vt 0.299198 0.060811
vt 0.299198 0.060811
vt 0.299198 0.060811
vt 0.299198 0.060811
vt 0.401281 0.510247
vt 0.401281 0.510247
vt 0.401281 0.510247
vt 0.401281 0.510247
vt 0.401281 0.510247
vt 0.401281 0.510247
vt 0.330467 0.060811
vt 0.330467 0.060811
vt 0.330467 0.060811
vt 0.330467 0.060811
vt 0.205376 0.060811
vt 0.205376 0.060811
vt 0.205376 0.060811
vt 0.205376 0.060811
vt 0.268740 0.060811
vt 0.268740 0.060811
vt 0.268740 0.060811
vt 0.268740 0.060811
vt 0.268740 0.060811
vt 0.268740 0.060811
vt 0.268740 0.060811
vt 0.268740 0.060811
vt 0.268740 0.060811
vt 0.268740 0.060811
vt 0.268740 0.060811
vt 0.268740 0.060811
vt 0.268740 0.060811
vt 0.268740 0.060811
vt 0.268740 0.060811
vt 0.268740 0.060811
vt 0.268740 0.060811
vt 0.268740 0.060811
vt 0.268740 0.060811
vt 0.268740 0.060811
vt 0.268740 0.060811
vt 0.268740 0.060811
vt 0.268740 0.060811
vt 0.268740 0.060811
vt 0.268740 0.060811
vt 0.268740 0.060811
vt 0.268740 0.060811
vt 0.268740 0.060811
vt 0.268740 0.060811
vt 0.268740 0.060811
vt 0.268740 0.060811
vt 0.268740 0.060811
vt 0.268740 0.060811
vt 0.268740 0.060811
vt 0.268740 0.060811
vt 0.268740 0.060811
vt 0.268740 0.060811
vt 0.268740 0.060811
vt 0.268740 0.060811
vt 0.268740 0.060811
vt 0.268740 0.060811
vt 0.268740 0.060811
vt 0.268740 0.060811
vt 0.268740 0.060811
vt 0.268740 0.060811
vt 0.268740 0.060811
vt 0.268740 0.060811
vt 0.268740 0.060811
vt 0.268740 0.060811
vt 0.268740 0.060811
vt 0.365355 0.063978
vt 0.365355 0.063978
vt 0.365355 0.063978
vt 0.365355 0.063978
vt 0.300116 0.063978
vt 0.300116 0.063978
vt 0.300116 0.063978
vt 0.300116 0.063978
vt 0.333588 0.063978
vt 0.333588 0.063978
vt 0.333588 0.063978
vt 0.333588 0.063978
vt 0.333588 0.063978
vt 0.333588 0.063978
vt 0.333588 0.063978
vt 0.333588 0.063978
vt 0.400688 0.064013
vt 0.400688 0.064013
vt 0.400688 0.064013
vt 0.400688 0.064013
vt 0.365355 0.063978
vt 0.365355 0.063978
vt 0.365355 0.063978
vt 0.365355 0.063978
vt 0.300116 0.063978
vt 0.300116 0.063978
vt 0.300116 0.063978
vt 0.300116 0.063978
vt 0.333588 0.063978
vt 0.333588 0.063978
vt 0.333588 0.063978
vt 0.333588 0.063978
vt 0.333588 0.063978
vt 0.333588 0.063978
vt 0.333588 0.063978
vt 0.333588 0.063978
vt 0.400688 0.064013
vt 0.400688 0.064013
vt 0.400688 0.064013
vt 0.400688 0.064013
vt 0.365355 0.063978
vt 0.365355 0.063978
vt 0.365355 0.063978
vt 0.365355 0.063978
vt 0.300116 0.063978
vt 0.300116 0.063978
vt 0.300116 0.063978
vt 0.300116 0.063978
vt 0.333588 0.063978
vt 0.333588 0.063978
vt 0.333588 0.063978
vt 0.333588 0.063978
vt 0.333588 0.063978
vt 0.333588 0.063978
vt 0.333588 0.063978
vt 0.333588 0.063978
vt 0.400688 0.064013
vt 0.400688 0.064013
vt 0.400688 0.064013
vt 0.400688 0.064013
vt 0.365355 0.063978
vt 0.365355 0.063978
vt 0.365355 0.063978
vt 0.365355 0.063978
vt 0.300116 0.063978
vt 0.300116 0.063978
vt 0.300116 0.063978
vt 0.300116 0.063978
vt 0.333588 0.063978
vt 0.333588 0.063978
vt 0.333588 0.063978
vt 0.333588 0.063978
vt 0.333588 0.063978
vt 0.333588 0.063978
vt 0.333588 0.063978
vt 0.333588 0.063978
vt 0.400688 0.064013
vt 0.400688 0.064013
vt 0.400688 0.064013
vt 0.400688 0.064013
vt 0.351139 0.333208
vt 0.351139 0.333208
vt 0.351139 0.333208
vt 0.351139 0.333208
vt 0.351139 0.333208
vt 0.402152 0.511075
vt 0.402152 0.511075
vt 0.402152 0.511075
vt 0.402152 0.511075
vt 0.402152 0.511075
vt 0.198571 0.060879
vt 0.198571 0.060879
vt 0.198571 0.060879
vt 0.198571 0.060879
vt 0.198571 0.060879
vt 0.198571 0.060879
vt 0.198571 0.060879
vt 0.198571 0.060879
vt 0.198571 0.060879
vt 0.198571 0.060879
vt 0.198571 0.060879
vt 0.198571 0.060879
vt 0.198571 0.060879
vn 0.000000 1.000000 -0.000000
vn 0.000000 1.000000 -0.000000
vn 0.000000 1.000000 -0.000000
vn 0.000000 1.000000 -0.000000
vn 0.000000 0.000000 -1.000000
vn 0.000000 0.000000 -1.000000
vn 0.000000 0.000000 -1.000000
vn 0.000000 0.000000 -1.000000
vn -0.000000 -0.000000 1.000000
vn -0.000000 -0.000000 1.000000
vn -0.000000 -0.000000 1.000000
vn -0.000000 -0.000000 1.000000
vn 1.000000 0.000000 -0.000000
vn 1.000000 0.000000 -0.000000
vn 1.000000 0.000000 -0.000000
vn 1.000000 0.000000 -0.000000
vn -1.000000 -0.000000 0.000000
vn -1.000000 -0.000000 0.000000
vn -1.000000 -0.000000 0.000000
vn -1.000000 -0.000000 0.000000
vn 0.000000 1.000000 -0.000000
vn 0.000000 1.000000 -0.000000
vn 0.000000 1.000000 -0.000000
vn 0.000000 1.000000 -0.000000
vn -1.000000 -0.000000 0.000000
vn -1.000000 -0.000000 0.000000
vn -1.000000 -0.000000 0.000000
vn -1.000000 -0.000000 0.000000
vn 1.000000 0.000000 -0.000000
vn 1.000000 0.000000 -0.000000
vn 1.000000 0.000000 -0.000000
vn 1.000000 0.000000 -0.000000
vn 0.000000 0.000000 -1.000000
vn 0.000000 0.000000 -1.000000
vn 0.000000 0.000000 -1.000000
vn 0.000000 0.000000 -1.000000
vn -0.000000 -0.000000 1.000000
vn -0.000000 -0.000000 1.000000
vn -0.000000 -0.000000 1.000000
vn -0.000000 -0.000000 1.000000
vn -0.000000 1.000000 -0.000000
vn -0.000000 1.000000 -0.000000
vn -0.000000 1.000000 -0.000000
vn -0.000000 1.000000 -0.000000
vn 0.000000 1.000000 -0.000000
vn 0.000000 1.000000 -0.000000
vn 0.000000 1.000000 -0.000000
vn 0.000000 1.000000 -0.000000
vn 0.000000 1.000000 -0.000000
vn 0.000000 1.000000 -0.000000
vn 0.000000 1.000000 -0.000000
vn 0.000000 1.000000 -0.000000
vn 0.000000 1.000000 -0.000000
vn 0.000000 1.000000 -0.000000
vn 0.000000 1.000000 -0.000000
vn 0.000000 1.000000 -0.000000
vn 0.873064 0.487606 -0.000000
vn 0.873064 0.487606 -0.000000
vn 0.873064 0.487606 -0.000000
vn 0.873064 0.487606 -0.000000
vn 0.000000 0.472606 -0.881274
vn 0.000000 0.472606 -0.881274
vn 0.000000 0.472606 -0.881274
vn 0.000000 0.472606 -0.881274
vn -0.873054 0.487624 0.000000
vn -0.873054 0.487624 0.000000
vn -0.873054 0.487624 0.000000
vn -0.873054 0.487624 0.000000
vn 0.000000 0.472611 0.881271
vn 0.000000 0.472611 0.881271
vn 0.000000 0.472611 0.881271
vn 0.000000 0.472611 0.881271
vn 0.000000 1.000000 -0.000000
vn 0.000000 1.000000 -0.000000
vn 0.000000 1.000000 -0.000000
vn 0.000000 1.000000 -0.000000
vn -1.000000 -0.000000 0.000000
vn -1.000000 -0.000000 0.000000
vn -1.000000 -0.000000 0.000000
vn -1.000000 -0.000000 0.000000
vn 1.000000 0.000000 -0.000000
vn 1.000000 0.000000 -0.000000
vn 1.000000 0.000000 -0.000000
vn 1.000000 0.000000 -0.000000
vn 0.000000 0.000000 -1.000000
vn 0.000000 0.000000 -1.000000
vn 0.000000 0.000000 -1.000000
vn 0.000000 0.000000 -1.000000
vn -0.000000 -0.000000 1.000000
vn -0.000000 -0.000000 1.000000
vn -0.000000 -0.000000 1.000000
vn -0.000000 -0.000000 1.000000
vn 0.000000 1.000000 -0.000000
vn 0.000000 1.000000 -0.000000
vn -0.000000 1.000000 -0.000000
vn -0.000000 1.000000 -0.000000
vn -0.000000 1.000000 -0.000000
vn -0.000000 1.000000 -0.000000
vn 0.495002 0.000000 -0.868892
vn 0.495002 0.000000 -0.868892
vn 0.829950 0.000000 -0.557838
vn 0.829950 0.000000 -0.557838
vn 0.970191 -0.000000 0.242341
vn 0.970191 -0.000000 0.242341
vn 1.000000 0.000000 -0.000000
vn 1.000000 0.000000 -0.000000
vn -0.970192 -0.000000 0.242339
vn -0.970192 -0.000000 0.242339
vn -1.000000 -0.000000 0.000000
vn -1.000000 -0.000000 0.000000
vn 0.962759 -0.000000 0.270361
vn 0.962759 -0.000000 0.270361
vn 0.970191 -0.000000 0.242341
vn 0.970191 -0.000000 0.242341
vn -0.962760 -0.000000 0.270359
vn -0.962760 -0.000000 0.270359
vn -0.970192 -0.000000 0.242339
vn -0.970192 -0.000000 0.242339
vn -0.494991 0.000000 -0.868898
vn -0.494991 0.000000 -0.868898
vn 0.000000 0.000000 -1.000000
vn 0.000000 0.000000 -1.000000
vn -0.000000 -0.000000 1.000000
vn -0.000000 -0.000000 1.000000
vn -0.000000 -0.000000 1.000000
vn -0.000000 -0.000000 1.000000
vn -0.977216 0.000000 -0.212246
vn -0.829953 0.000000 -0.557833
vn -0.829953 0.000000 -0.557833
vn -0.977216 0.000000 -0.212246
vn 0.829950 0.000000 -0.557838
vn 0.829950 0.000000 -0.557838
vn 0.977216 0.000000 -0.212247
vn 0.977216 0.000000 -0.212247
vn -0.829953 0.000000 -0.557833
vn -0.829953 0.000000 -0.557833
vn -0.494991 0.000000 -0.868898
vn -0.494991 0.000000 -0.868898
vn 0.000000 1.000000 -0.000000
vn 0.000000 1.000000 -0.000000
vn 0.000000 1.000000 -0.000000
vn 0.000000 1.000000 -0.000000
vn 0.000000 1.000000 -0.000000
vn 0.000000 1.000000 -0.000000
vn 0.000000 0.000000 -1.000000
vn 0.000000 0.000000 -1.000000
vn 0.495002 0.000000 -0.868892
vn 0.495002 0.000000 -0.868892
vn -0.000000 -0.000000 1.000000
vn -0.000000 -0.000000 1.000000
vn -0.000000 -0.000000 1.000000
vn -0.000000 -0.000000 1.000000
vn 0.000000 1.000000 -0.000000
vn 0.000000 1.000000 -0.000000
vn 0.000000 1.000000 -0.000000
vn 0.000000 1.000000 -0.000000
vn 0.000000 1.000000 -0.000000
vn 0.000000 1.000000 -0.000000
vn 0.000000 1.000000 -0.000000
vn 0.000000 1.000000 -0.000000
vn 0.000000 1.000000 -0.000000
vn 0.000000 1.000000 -0.000000
vn 0.000000 1.000000 -0.000000
vn 0.000000 1.000000 -0.000000
vn 0.000000 1.000000 -0.000000
vn -0.000000 1.000000 -0.000000
vn -0.000000 1.000000 -0.000000
vn -0.000000 1.000000 -0.000000
vn -0.000000 1.000000 -0.000000
vn 0.000000 1.000000 -0.000000
vn 0.000000 1.000000 -0.000000
vn 0.000000 1.000000 -0.000000
vn 0.000000 1.000000 -0.000000
vn 0.000000 1.000000 -0.000000
vn 0.000000 1.000000 -0.000000
vn 0.000000 1.000000 -0.000000
vn 0.000000 1.000000 -0.000000
vn 0.000000 1.000000 -0.000000
vn 0.000000 1.000000 -0.000000
vn 0.000000 1.000000 -0.000000
vn 0.000000 1.000000 -0.000000
vn 0.000000 1.000000 -0.000000
vn 0.000000 1.000000 -0.000000
vn 0.000000 1.000000 -0.000000
vn 0.000000 1.000000 -0.000000
vn 0.000000 1.000000 -0.000000
vn 0.000000 1.000000 -0.000000
vn 0.000000 1.000000 -0.000000
vn 0.000000 1.000000 -0.000000
vn 0.000000 1.000000 -0.000000
vn 0.000000 1.000000 -0.000000
vn 0.000000 1.000000 -0.000000
vn 0.000000 1.000000 -0.000000
vn 0.000000 1.000000 -0.000000
vn 0.000000 1.000000 -0.000000
vn 0.000000 1.000000 -0.000000
vn 0.000000 1.000000 -0.000000
vn 0.000000 1.000000 -0.000000
vn 0.000000 1.000000 -0.000000
vn 0.000000 1.000000 -0.000000
vn 0.000000 1.000000 -0.000000
vn 0.000000 1.000000 -0.000000
vn 0.000000 1.000000 -0.000000
vn 0.000000 1.000000 -0.000000
vn 0.000000 1.000000 -0.000000
vn 0.000000 1.000000 -0.000000
vn -0.000000 -0.000000 1.000000
vn -0.000000 -0.000000 1.000000
vn -0.000000 -0.000000 1.000000
vn -0.000000 -0.000000 1.000000
vn 1.000000 0.000000 -0.000000
vn 1.000000 0.000000 -0.000000
vn 1.000000 0.000000 -0.000000
vn 1.000000 0.000000 -0.000000
vn -1.000000 -0.000000 0.000000
vn -1.000000 -0.000000 0.000000
vn -1.000000 -0.000000 0.000000
vn -1.000000 -0.000000 0.000000
vn 0.000000 0.000000 -1.000000
vn 0.000000 0.000000 -1.000000
vn 0.000000 0.000000 -1.000000
vn 0.000000 0.000000 -1.000000
vn 0.000000 1.000000 -0.000000
vn 0.000000 1.000000 -0.000000
vn 0.000000 1.000000 -0.000000
vn 0.000000 1.000000 -0.000000
vn -0.000000 -0.000000 1.000000
vn -0.000000 -0.000000 1.000000
vn -0.000000 -0.000000 1.000000
vn -0.000000 -0.000000 1.000000
vn 1.000000 0.000000 -0.000000
vn 1.000000 0.000000 -0.000000
vn 1.000000 0.000000 -0.000000
vn 1.000000 0.000000 -0.000000
vn -1.000000 -0.000000 0.000000
vn -1.000000 -0.000000 0.000000
vn -1.000000 -0.000000 0.000000
vn -1.000000 -0.000000 0.000000
vn 0.000000 0.000000 -1.000000
vn 0.000000 0.000000 -1.000000
vn 0.000000 0.000000 -1.000000
vn 0.000000 0.000000 -1.000000
vn 0.000000 1.000000 -0.000000
vn 0.000000 1.000000 -0.000000
vn 0.000000 1.000000 -0.000000
vn 0.000000 1.000000 -0.000000
vn -0.000000 -0.000000 1.000000
vn -0.000000 -0.000000 1.000000
vn -0.000000 -0.000000 1.000000
vn -0.000000 -0.000000 1.000000
vn 1.000000 0.000000 -0.000000
vn 1.000000 0.000000 -0.000000
vn 1.000000 0.000000 -0.000000
vn 1.000000 0.000000 -0.000000
vn -1.000000 -0.000000 0.000000
vn -1.000000 -0.000000 0.000000
vn -1.000000 -0.000000 0.000000
vn -1.000000 -0.000000 0.000000
vn 0.000000 0.000000 -1.000000
vn 0.000000 0.000000 -1.000000
vn 0.000000 0.000000 -1.000000
vn 0.000000 0.000000 -1.000000
vn 0.000000 1.000000 -0.000000
vn 0.000000 1.000000 -0.000000
vn 0.000000 1.000000 -0.000000
vn 0.000000 1.000000 -0.000000
vn -0.000000 -0.000000 1.000000
vn -0.000000 -0.000000 1.000000
vn -0.000000 -0.000000 1.000000
vn -0.000000 -0.000000 1.000000
vn 1.000000 0.000000 -0.000000
vn 1.000000 0.000000 -0.000000
vn 1.000000 0.000000 -0.000000
vn 1.000000 0.000000 -0.000000
vn -1.000000 -0.000000 0.000000
vn -1.000000 -0.000000 0.000000
vn -1.000000 -0.000000 0.000000
vn -1.000000 -0.000000 0.000000
vn 0.000000 0.000000 -1.000000
vn 0.000000 0.000000 -1.000000
vn 0.000000 0.000000 -1.000000
vn 0.000000 0.000000 -1.000000
vn 0.000000 1.000000 -0.000000
vn 0.000000 1.000000 -0.000000
vn 0.000000 1.000000 -0.000000
vn 0.000000 1.000000 -0.000000
vn 0.000000 1.000000 -0.000000
vn -0.000000 1.000000 -0.000000
vn 0.000000 1.000000 -0.000000
vn 0.000000 1.000000 -0.000000
vn -0.000000 1.000000 -0.000000
vn -0.000000 1.000000 -0.000000
vn 0.000000 -1.000000 0.000000
vn 0.000000 -1.000000 0.000000
vn 0.000000 -1.000000 0.000000
vn 0.000000 -1.000000 0.000000
vn 0.000000 -1.000000 0.000000
vn 0.000000 -1.000000 0.000000
vn 0.000000 -1.000000 0.000000
vn 0.000000 -1.000000 0.000000
vn 0.000000 -1.000000 0.000000
vn 0.000000 -1.000000 0.000000
vn 0.000000 -1.000000 0.000000
vn 0.000000 -1.000000 0.000000
vn 0.000000 -1.000000 -0.000000
vn 0.000000 -1.000000 -0.000000
vn 0.000000 -1.000000 -0.000000
vn 0.000000 -1.000000 0.000000
vn 0.000000 -1.000000 0.000000
vn 0.000000 -1.000000 0.000000
vn 0.000000 -1.000000 -0.000000
vn 0.000000 -1.000000 -0.000000
vn 0.000000 -1.000000 -0.000000
vn 0.000000 -1.000000 0.000000
vn 0.000000 -1.000000 0.000000
vn 0.000000 -1.000000 0.000000
vn 0.000000 -1.000000 0.000000
vn 0.000000 -1.000000 0.000000
vn 0.000000 -1.000000 0.000000
vn 0.000000 -1.000000 0.000000
vn 0.000000 -1.000000 0.000000
vn 0.000000 -1.000000 0.000000
vn 0.000000 -1.000000 -0.000000
vn 0.000000 -1.000000 -0.000000
vn 0.000000 -1.000000 -0.000000
vn 0.000000 -1.000000 0.000000
vn 0.000000 -1.000000 0.000000
vn 0.000000 -1.000000 0.000000
s off
f 1/1/1 2/2/2 4/3/3 3/4/4
f 3/5/5 4/6/6 6/7/7 5/8/8
f 7/9/9 8/10/10 2/11/11 1/12/12
f 2/13/13 8/14/14 6/15/15 4/16/16
f 7/17/17 1/18/18 3/19/19 5/20/20
f 21/21/21 22/22/22 23/23/23 24/24/24
f 11/25/25 12/26/26 14/27/27 13/28/28
f 15/29/29 16/30/30 10/31/31 9/32/32
f 10/33/33 16/34/34 14/35/35 12/36/36
f 15/37/37 9/38/38 11/39/39 13/40/40
f 9/41/41 10/42/42 18/43/43 17/44/44
f 10/45/45 12/46/46 19/47/47 18/48/48
f 12/49/49 11/50/50 20/51/51 19/52/52
f 11/53/53 9/54/54 17/55/55 20/56/56
f 17/57/57 18/58/58 22/59/59 21/60/60
f 18/61/61 19/62/62 23/63/63 22/64/64
f 19/65/65 20/66/66 24/67/67 23/68/68
f 20/69/69 17/70/70 21/71/71 24/72/72
f 25/73/73 26/74/74 28/75/75 27/76/76
f 27/77/77 28/78/78 30/79/79 29/80/80
f 31/81/81 32/82/82 26/83/83 25/84/84
f 26/85/85 32/86/86 30/87/87 28/88/88
f 31/89/89 25/90/90 27/91/91 29/92/92
f 57/93/93 102/94/94 103/95/95 61/96/96 62/97/97 63/98/98
f 45/99/99 46/100/100 49/101/101 50/102/102
f 42/103/103 43/104/104 38/105/105 36/106/106
f 44/107/107 41/108/108 35/109/109 37/110/110
f 34/111/111 40/112/112 43/113/113 42/114/114
f 39/115/115 33/116/116 41/117/117 44/118/118
f 47/119/119 48/120/120 53/121/121 55/122/122
f 33/123/123 39/124/124 56/125/125 54/126/126
f 35/127/127 51/128/128 52/129/129 37/130/130
f 50/131/131 49/132/132 36/133/133 38/134/134
f 52/135/135 51/136/136 48/137/137 47/138/138
f 101/139/139 102/140/140 57/141/141 65/142/142 66/143/143 67/144/144
f 55/145/145 53/146/146 46/147/147 45/148/148
f 54/149/149 56/150/150 40/151/151 34/152/152
f 54/153/153 34/154/154 59/155/155 58/156/156
f 34/157/157 42/158/158 60/159/159 59/160/160
f 42/161/161 36/162/162 61/163/163 103/164/164 60/165/165
f 36/166/166 49/167/167 62/168/168 61/169/169
f 49/170/170 46/171/171 63/172/172 62/173/173
f 46/174/174 53/175/175 57/176/176 63/177/177
f 33/178/178 54/179/179 58/180/180 64/181/181
f 53/182/182 48/183/183 65/184/184 57/185/185
f 48/186/186 51/187/187 66/188/188 65/189/189
f 51/190/190 35/191/191 67/192/192 66/193/193
f 35/194/194 41/195/195 68/196/196 101/197/197 67/198/198
f 41/199/199 33/200/200 64/201/201 68/202/202
f 69/203/203 70/204/204 72/205/205 71/206/206
f 75/207/207 76/208/208 70/209/209 69/210/210
f 70/211/211 76/212/212 74/213/213 72/214/214
f 75/215/215 69/216/216 71/217/217 73/218/218
f 72/219/219 74/220/220 73/221/221 71/222/222
f 77/223/223 78/224/224 80/225/225 79/226/226
f 83/227/227 84/228/228 78/229/229 77/230/230
f 78/231/231 84/232/232 82/233/233 80/234/234
f 83/235/235 77/236/236 79/237/237 81/238/238
f 80/239/239 82/240/240 81/241/241 79/242/242
f 85/243/243 86/244/244 88/245/245 87/246/246
f 91/247/247 92/248/248 86/249/249 85/250/250
f 86/251/251 92/252/252 90/253/253 88/254/254
f 91/255/255 85/256/256 87/257/257 89/258/258
f 88/259/259 90/260/260 89/261/261 87/262/262
f 93/263/263 94/264/264 96/265/265 95/266/266
f 99/267/267 100/268/268 94/269/269 93/270/270
f 94/271/271 100/272/272 98/273/273 96/274/274
f 99/275/275 93/276/276 95/277/277 97/278/278
f 96/279/279 98/280/280 97/281/281 95/282/282
f 64/283/283 58/284/284 102/285/285 101/286/286 68/287/287
f 103/288/288 102/289/289 58/290/290 59/291/291 60/292/292
f 45/293/293 50/294/294 104/295/295
f 38/296/296 43/297/297 104/295/298
f 44/298/299 37/299/300 104/295/301
f 43/297/302 40/300/303 104/295/304
f 39/301/305 44/298/306 104/295/307
f 47/302/308 55/303/309 104/295/310
f 56/304/311 39/301/312 104/295/313
f 37/299/314 52/305/315 104/295/316
f 50/294/317 38/296/318 104/295/319
f 52/305/320 47/302/321 104/295/322
f 55/303/323 45/293/324 104/295/325
f 40/300/326 56/304/327 104/295/328
