# This file uses meters as units for non-parametric coordinates.

v -0.742081 9.815136 0.168545
v 0.755386 9.815136 0.168545
v -0.742081 10.025188 0.168545
v 0.755386 10.025188 0.168545
v -0.742081 10.025188 -0.041508
v 0.755386 10.025188 -0.041508
v -0.742081 9.815136 -0.041508
v 0.755386 9.815136 -0.041508
v -0.742081 14.224291 0.168545
v 0.755386 14.224291 0.168545
v -0.742081 14.434342 0.168545
v 0.755386 14.434342 0.168545
v -0.742081 14.434342 -0.041508
v 0.755386 14.434342 -0.041508
v -0.742081 14.224291 -0.041508
v 0.755386 14.224291 -0.041508
v -0.740036 13.280468 0.168545
v 0.753311 13.169034 0.168545
v -0.724411 13.489939 0.168545
v 0.768936 13.378504 0.168545
v -0.724411 13.489939 -0.041508
v 0.768936 13.378504 -0.041508
v -0.740036 13.280468 -0.041508
v 0.753311 13.169034 -0.041508
v 0.342697 0.000000 0.039936
v 0.551193 0.000000 0.039936
v 0.342697 15.597208 0.039936
v 0.551193 15.597208 0.039936
v 0.342697 15.597208 -0.168545
v 0.551193 15.597208 -0.168545
v 0.342697 0.000000 -0.168545
v 0.551193 0.000000 -0.168545
v 0.287918 11.119231 -0.168545
v 0.287918 11.119231 0.039936
v 0.496399 11.119231 0.039936
v 0.496399 11.119231 -0.168545
v 0.608505 13.339768 0.039936
v 0.400040 13.339768 0.039936
v 0.400040 13.339767 -0.168545
v 0.608505 13.339767 -0.168545
v -0.346909 0.000000 0.039936
v -0.555405 0.000000 0.039936
v -0.346909 15.597208 0.039936
v -0.555405 15.597208 0.039936
v -0.346909 15.597208 -0.168545
v -0.555405 15.597208 -0.168545
v -0.346909 0.000000 -0.168545
v -0.555405 0.000000 -0.168545
v -0.382980 12.176183 -0.168545
v -0.382980 12.176183 0.039936
v -0.591476 12.176183 0.039936
v -0.591476 12.176183 -0.168545
v -0.449875 14.114582 0.039936
v -0.241409 14.114582 0.039936
v -0.241409 14.114582 -0.168545
v -0.449875 14.114582 -0.168545
v -0.740036 11.586139 0.168545
v 0.753342 11.697182 0.168545
v -0.755600 11.795613 0.168545
v 0.737762 11.906655 0.168545
v -0.755600 11.795613 -0.041508
v 0.737762 11.906655 -0.041508
v -0.740036 11.586139 -0.041508
v 0.753342 11.697182 -0.041508
v -0.739761 8.911629 0.168545
v 0.753021 8.792995 0.168545
v -0.723114 9.121020 0.168545
v 0.769669 9.002387 0.168545
v -0.723114 9.121020 -0.041508
v 0.769669 9.002387 -0.041508
v -0.739761 8.911629 -0.041508
v 0.753021 8.792995 -0.041508
v -0.742081 6.523503 0.168545
v 0.755386 6.523503 0.168545
v -0.742081 6.733555 0.168545
v 0.755386 6.733555 0.168545
v -0.742081 6.733555 -0.041508
v 0.755386 6.733555 -0.041508
v -0.742081 6.523503 -0.041508
v 0.755386 6.523503 -0.041508
v -0.724777 4.207573 0.168545
v 0.738083 4.527613 0.168545
v -0.769669 4.412772 0.168545
v 0.693207 4.732812 0.168545
v -0.769669 4.412772 -0.041508
v 0.693207 4.732812 -0.041508
v -0.724777 4.207573 -0.041508
v 0.738083 4.527613 -0.041508
v -0.742081 3.067702 0.168545
v 0.755386 3.067702 0.168545
v -0.742081 3.277754 0.168545
v 0.755386 3.277754 0.168545
v -0.742081 3.277754 -0.041508
v 0.755386 3.277754 -0.041508
v -0.742081 3.067702 -0.041508
v 0.755386 3.067702 -0.041508
v -0.740097 0.798079 0.168545
v 0.753387 0.688505 0.168545
v -0.724716 1.007568 0.168545
v 0.768753 0.897994 0.168545
v -0.724716 1.007568 -0.041508
v 0.768753 0.897994 -0.041508
v -0.740097 0.798079 -0.041508
v 0.753387 0.688505 -0.041508
vt 0.233800 0.512531
vt 0.233800 0.512531
vt 0.233800 0.512531
vt 0.233800 0.512531
vt 0.292747 0.512531
vt 0.292747 0.512531
vt 0.292747 0.512531
vt 0.292747 0.512531
vt 0.233800 0.512531
vt 0.233800 0.512531
vt 0.233800 0.512531
vt 0.233800 0.512531
vt 0.168561 0.512531
vt 0.168560 0.512531
vt 0.168560 0.512531
vt 0.168561 0.512531
vt 0.969334 0.521223
vt 0.969334 0.521223
vt 0.969334 0.521224
vt 0.969334 0.521224
vt 0.969334 0.521223
vt 0.969334 0.521223
vt 0.969334 0.521224
vt 0.969334 0.521224
vt 0.233800 0.512531
vt 0.233800 0.512531
vt 0.233800 0.512531
vt 0.233800 0.512531
vt 0.292747 0.512531
vt 0.292747 0.512531
vt 0.292747 0.512531
vt 0.292747 0.512531
vt 0.233800 0.512531
vt 0.233800 0.512531
vt 0.233800 0.512531
vt 0.233800 0.512531
vt 0.168561 0.512531
vt 0.168560 0.512531
vt 0.168560 0.512531
vt 0.168561 0.512531
vt 0.969334 0.521224
vt 0.969334 0.521224
vt 0.969334 0.521224
vt 0.969334 0.521224
vt 0.969334 0.521224
vt 0.969334 0.521224
vt 0.969334 0.521224
vt 0.969334 0.521224
vt 0.233800 0.512531
vt 0.233800 0.512531
vt 0.233800 0.512531
vt 0.233800 0.512531
vt 0.292747 0.512531
vt 0.292747 0.512531
vt 0.292747 0.512531
vt 0.292747 0.512531
vt 0.233800 0.512531
vt 0.233800 0.512531
vt 0.233800 0.512531
vt 0.233800 0.512531
vt 0.168561 0.512531
vt 0.168560 0.512531
vt 0.168560 0.512531
vt 0.168561 0.512531
vt 0.969334 0.521224
vt 0.969334 0.521224
vt 0.969334 0.521224
vt 0.969334 0.521224
vt 0.969334 0.521224
vt 0.969334 0.521224
vt 0.969334 0.521224
vt 0.969334 0.521224
vt 0.233800 0.512531
vt 0.233800 0.512531
vt 0.233800 0.512531
vt 0.233800 0.512531
vt 0.969334 0.521224
vt 0.969334 0.521224
vt 0.969334 0.521224
vt 0.969334 0.521224
vt 0.233800 0.512531
vt 0.233800 0.512531
vt 0.233800 0.512531
vt 0.233800 0.512531
vt 0.969334 0.521223
vt 0.969334 0.521223
vt 0.969334 0.521223
vt 0.969334 0.521223
vt 0.202033 0.512531
vt 0.202032 0.512531
vt 0.202032 0.512531
vt 0.202033 0.512531
vt 0.202033 0.512531
vt 0.202033 0.512531
vt 0.202033 0.512531
vt 0.202033 0.512531
vt 0.202033 0.512531
vt 0.202033 0.512531
vt 0.233800 0.512531
vt 0.233800 0.512531
vt 0.202033 0.512531
vt 0.202032 0.512531
vt 0.233800 0.512531
vt 0.233800 0.512531
vt 0.233800 0.512531
vt 0.233800 0.512531
vt 0.202033 0.512531
vt 0.202033 0.512531
vt 0.233800 0.512531
vt 0.233800 0.512531
vt 0.202032 0.512531
vt 0.202033 0.512531
vt 0.233800 0.512531
vt 0.233800 0.512531
vt 0.233800 0.512531
vt 0.233800 0.512531
vt 0.969334 0.521224
vt 0.969334 0.521224
vt 0.969334 0.521224
vt 0.969334 0.521224
vt 0.233800 0.512531
vt 0.233800 0.512531
vt 0.233800 0.512531
vt 0.233800 0.512531
vt 0.969334 0.521223
vt 0.969334 0.521223
vt 0.969334 0.521223
vt 0.969334 0.521223
vt 0.202033 0.512531
vt 0.202033 0.512531
vt 0.202032 0.512531
vt 0.202032 0.512531
vt 0.202033 0.512531
vt 0.202033 0.512531
vt 0.202033 0.512531
vt 0.202033 0.512531
vt 0.202033 0.512531
vt 0.202033 0.512531
vt 0.233800 0.512531
vt 0.233800 0.512531
vt 0.202033 0.512531
vt 0.202032 0.512531
vt 0.233800 0.512531
vt 0.233800 0.512531
vt 0.233800 0.512531
vt 0.233800 0.512531
vt 0.202033 0.512531
vt 0.202033 0.512531
vt 0.233800 0.512531
vt 0.233800 0.512531
vt 0.202033 0.512531
vt 0.202032 0.512531
vt 0.233800 0.512531
vt 0.233800 0.512531
vt 0.233800 0.512531
vt 0.233800 0.512531
vt 0.292747 0.512531
vt 0.292747 0.512531
vt 0.292747 0.512531
vt 0.292747 0.512531
vt 0.233800 0.512531
vt 0.233800 0.512531
vt 0.233800 0.512531
vt 0.233800 0.512531
vt 0.168561 0.512531
vt 0.168560 0.512531
vt 0.168560 0.512531
vt 0.168561 0.512531
vt 0.969334 0.521224
vt 0.969334 0.521224
vt 0.969334 0.521224
vt 0.969334 0.521224
vt 0.969334 0.521224
vt 0.969334 0.521224
vt 0.969334 0.521224
vt 0.969334 0.521224
vt 0.233800 0.512531
vt 0.233800 0.512531
vt 0.233800 0.512531
vt 0.233800 0.512531
vt 0.292747 0.512531
vt 0.292747 0.512531
vt 0.292747 0.512531
vt 0.292747 0.512531
vt 0.233800 0.512531
vt 0.233800 0.512531
vt 0.233800 0.512531
vt 0.233800 0.512531
vt 0.168561 0.512531
vt 0.168560 0.512531
vt 0.168560 0.512531
vt 0.168561 0.512531
vt 0.969334 0.521223
vt 0.969334 0.521223
vt 0.969334 0.521224
vt 0.969334 0.521224
vt 0.969334 0.521223
vt 0.969334 0.521223
vt 0.969334 0.521224
vt 0.969334 0.521224
vt 0.233800 0.512531
vt 0.233800 0.512531
vt 0.233800 0.512531
vt 0.233800 0.512531
vt 0.292747 0.512531
vt 0.292747 0.512531
vt 0.292747 0.512531
vt 0.292747 0.512531
vt 0.233800 0.512531
vt 0.233800 0.512531
vt 0.233800 0.512531
vt 0.233800 0.512531
vt 0.168561 0.512531
vt 0.168560 0.512531
vt 0.168560 0.512531
vt 0.168561 0.512531
vt 0.969334 0.521223
vt 0.969334 0.521223
vt 0.969334 0.521224
vt 0.969334 0.521224
vt 0.969334 0.521223
vt 0.969334 0.521223
vt 0.969334 0.521224
vt 0.969334 0.521224
vt 0.233800 0.512531
vt 0.233800 0.512531
vt 0.233800 0.512531
vt 0.233800 0.512531
vt 0.292747 0.512531
vt 0.292747 0.512531
vt 0.292747 0.512531
vt 0.292747 0.512531
vt 0.233800 0.512531
vt 0.233800 0.512531
vt 0.233800 0.512531
vt 0.233800 0.512531
vt 0.168561 0.512531
vt 0.168560 0.512531
vt 0.168560 0.512531
vt 0.168561 0.512531
vt 0.969334 0.521223
vt 0.969334 0.521223
vt 0.969334 0.521224
vt 0.969334 0.521224
vt 0.969334 0.521223
vt 0.969334 0.521223
vt 0.969334 0.521224
vt 0.969334 0.521224
vt 0.233800 0.512531
vt 0.233800 0.512531
vt 0.233800 0.512531
vt 0.233800 0.512531
vt 0.292747 0.512531
vt 0.292747 0.512531
vt 0.292747 0.512531
vt 0.292747 0.512531
vt 0.233800 0.512531
vt 0.233800 0.512531
vt 0.233800 0.512531
vt 0.233800 0.512531
vt 0.168561 0.512531
vt 0.168560 0.512531
vt 0.168560 0.512531
vt 0.168561 0.512531
vt 0.969334 0.521223
vt 0.969334 0.521223
vt 0.969334 0.521224
vt 0.969334 0.521224
vt 0.969334 0.521223
vt 0.969334 0.521223
vt 0.969334 0.521224
vt 0.969334 0.521224
vt 0.233800 0.512531
vt 0.233800 0.512531
vt 0.233800 0.512531
vt 0.233800 0.512531
vt 0.292747 0.512531
vt 0.292747 0.512531
vt 0.292747 0.512531
vt 0.292747 0.512531
vt 0.233800 0.512531
vt 0.233800 0.512531
vt 0.233800 0.512531
vt 0.233800 0.512531
vt 0.168561 0.512531
vt 0.168560 0.512531
vt 0.168560 0.512531
vt 0.168561 0.512531
vt 0.969334 0.521223
vt 0.969334 0.521223
vt 0.969334 0.521224
vt 0.969334 0.521224
vt 0.969334 0.521223
vt 0.969334 0.521223
vt 0.969334 0.521224
vt 0.969334 0.521224
vn 0.000000 0.000000 1.000000
vn 0.000000 0.000000 1.000000
vn 0.000000 0.000000 1.000000
vn 0.000000 0.000000 1.000000
vn 0.000000 1.000000 0.000000
vn 0.000000 1.000000 0.000000
vn 0.000000 1.000000 0.000000
vn 0.000000 1.000000 0.000000
vn 0.000000 0.000000 -1.000000
vn 0.000000 0.000000 -1.000000
vn 0.000000 0.000000 -1.000000
vn 0.000000 0.000000 -1.000000
vn 0.000000 -1.000000 0.000000
vn 0.000000 -1.000000 0.000000
vn 0.000000 -1.000000 0.000000
vn 0.000000 -1.000000 0.000000
vn 1.000000 0.000000 0.000000
vn 1.000000 0.000000 0.000000
vn 1.000000 0.000000 0.000000
vn 1.000000 0.000000 0.000000
vn -1.000000 0.000000 0.000000
vn -1.000000 0.000000 0.000000
vn -1.000000 0.000000 0.000000
vn -1.000000 0.000000 0.000000
vn 0.000000 0.000000 1.000000
vn 0.000000 0.000000 1.000000
vn 0.000000 0.000000 1.000000
vn 0.000000 0.000000 1.000000
vn 0.000000 1.000000 0.000000
vn 0.000000 1.000000 0.000000
vn 0.000000 1.000000 0.000000
vn 0.000000 1.000000 0.000000
vn 0.000000 0.000000 -1.000000
vn 0.000000 0.000000 -1.000000
vn 0.000000 0.000000 -1.000000
vn 0.000000 0.000000 -1.000000
vn 0.000000 -1.000000 0.000000
vn 0.000000 -1.000000 0.000000
vn 0.000000 -1.000000 0.000000
vn 0.000000 -1.000000 0.000000
vn 1.000000 0.000000 0.000000
vn 1.000000 0.000000 0.000000
vn 1.000000 0.000000 0.000000
vn 1.000000 0.000000 0.000000
vn -1.000000 0.000000 0.000000
vn -1.000000 0.000000 0.000000
vn -1.000000 0.000000 0.000000
vn -1.000000 0.000000 0.000000
vn 0.000000 0.000000 1.000000
vn 0.000000 0.000000 1.000000
vn 0.000000 0.000000 1.000000
vn 0.000000 0.000000 1.000000
vn 0.074413 0.997227 0.000000
vn 0.074413 0.997227 0.000000
vn 0.074413 0.997227 0.000000
vn 0.074413 0.997227 0.000000
vn 0.000002 0.000000 -1.000000
vn 0.000002 0.000000 -1.000000
vn 0.000002 0.000000 -1.000000
vn 0.000002 0.000000 -1.000000
vn -0.074414 -0.997227 0.000000
vn -0.074414 -0.997227 0.000000
vn -0.074414 -0.997227 0.000000
vn -0.074414 -0.997227 0.000000
vn 0.997226 -0.074440 0.000000
vn 0.997226 -0.074440 0.000000
vn 0.997226 -0.074440 0.000000
vn 0.997226 -0.074440 0.000000
vn -0.997232 0.074354 0.000000
vn -0.997232 0.074354 0.000000
vn -0.997232 0.074354 0.000000
vn -0.997232 0.074354 0.000000
vn 0.000000 0.000000 1.000000
vn 0.000000 0.000000 1.000000
vn 0.000000 0.000000 1.000000
vn 0.000000 0.000000 1.000000
vn 0.000000 1.000000 0.000000
vn 0.000000 1.000000 0.000000
vn 0.000000 1.000000 0.000000
vn 0.000000 1.000000 0.000000
vn 0.000000 0.000000 -1.000000
vn 0.000000 0.000000 -1.000000
vn 0.000000 0.000000 -1.000000
vn 0.000000 0.000000 -1.000000
vn 0.000000 -1.000000 0.000000
vn 0.000000 -1.000000 0.000000
vn 0.000000 -1.000000 0.000000
vn 0.000000 -1.000000 0.000000
vn 0.998728 -0.050423 0.000000
vn 0.998728 -0.050423 0.000000
vn 0.998728 -0.050423 0.000000
vn 0.998728 -0.050423 0.000000
vn -0.998728 0.050431 -0.000000
vn -0.998728 0.050431 -0.000000
vn -0.998728 0.050431 -0.000000
vn -0.998728 0.050431 -0.000000
vn -0.999988 -0.004927 0.000000
vn -0.999988 -0.004927 0.000000
vn -0.999988 -0.004927 0.000000
vn -0.999988 -0.004927 0.000000
vn 0.000000 0.000000 1.000000
vn 0.000000 0.000000 1.000000
vn 0.000000 0.000000 1.000000
vn 0.000000 0.000000 1.000000
vn 0.999988 0.004928 0.000000
vn 0.999988 0.004928 0.000000
vn 0.999988 0.004928 0.000000
vn 0.999988 0.004928 0.000000
vn 0.000000 0.000000 -1.000000
vn 0.000000 0.000000 -1.000000
vn 0.000000 0.000000 -1.000000
vn 0.000000 0.000000 -1.000000
vn 0.000000 0.000000 1.000000
vn 0.000000 0.000000 1.000000
vn 0.000000 0.000000 1.000000
vn 0.000000 0.000000 1.000000
vn -0.999678 -0.025394 0.000000
vn -0.999678 -0.025394 0.000000
vn -0.999678 -0.025394 0.000000
vn -0.999678 -0.025394 0.000000
vn 0.000000 0.000000 -1.000000
vn 0.000000 0.000000 -1.000000
vn 0.000000 0.000000 -1.000000
vn 0.000000 0.000000 -1.000000
vn 0.999678 0.025378 0.000000
vn 0.999678 0.025378 0.000000
vn 0.999678 0.025378 0.000000
vn 0.999678 0.025378 0.000000
vn 0.000000 0.000000 1.000000
vn 0.000000 0.000000 1.000000
vn 0.000000 0.000000 1.000000
vn 0.000000 0.000000 1.000000
vn 0.000000 1.000000 0.000000
vn 0.000000 1.000000 0.000000
vn 0.000000 1.000000 0.000000
vn 0.000000 1.000000 0.000000
vn 0.000000 0.000000 -1.000000
vn 0.000000 0.000000 -1.000000
vn 0.000000 0.000000 -1.000000
vn 0.000000 0.000000 -1.000000
vn 0.000000 -1.000000 0.000000
vn 0.000000 -1.000000 0.000000
vn 0.000000 -1.000000 0.000000
vn 0.000000 -1.000000 0.000000
vn -0.997342 0.072858 0.000000
vn -0.997342 0.072858 0.000000
vn -0.997342 0.072858 0.000000
vn -0.997342 0.072858 0.000000
vn 0.997344 -0.072839 0.000000
vn 0.997344 -0.072839 0.000000
vn 0.997344 -0.072839 0.000000
vn 0.997344 -0.072839 0.000000
vn 0.999996 0.002962 0.000000
vn 0.999996 0.002962 0.000000
vn 0.999996 0.002962 0.000000
vn 0.999996 0.002962 0.000000
vn 0.000000 0.000000 1.000000
vn 0.000000 0.000000 1.000000
vn 0.000000 0.000000 1.000000
vn 0.000000 0.000000 1.000000
vn -0.999996 -0.002963 0.000000
vn -0.999996 -0.002963 0.000000
vn -0.999996 -0.002963 0.000000
vn -0.999996 -0.002963 0.000000
vn 0.000000 0.000000 -1.000000
vn 0.000000 0.000000 -1.000000
vn 0.000000 0.000000 -1.000000
vn 0.000000 0.000000 -1.000000
vn 0.000000 0.000000 1.000000
vn 0.000000 0.000000 1.000000
vn 0.000000 0.000000 1.000000
vn 0.000000 0.000000 1.000000
vn 0.997478 0.070980 0.000000
vn 0.997478 0.070980 0.000000
vn 0.997478 0.070980 0.000000
vn 0.997478 0.070980 0.000000
vn 0.000000 0.000000 -1.000000
vn 0.000000 0.000000 -1.000000
vn 0.000000 0.000000 -1.000000
vn 0.000000 0.000000 -1.000000
vn -0.997477 -0.070992 0.000000
vn -0.997477 -0.070992 0.000000
vn -0.997477 -0.070992 0.000000
vn -0.997477 -0.070992 0.000000
vn 0.000002 0.000000 1.000000
vn 0.000002 0.000000 1.000000
vn 0.000002 0.000000 1.000000
vn 0.000002 0.000000 1.000000
vn -0.074152 0.997247 0.000000
vn -0.074152 0.997247 0.000000
vn -0.074152 0.997247 0.000000
vn -0.074152 0.997247 0.000000
vn 0.000002 0.000000 -1.000000
vn 0.000002 0.000000 -1.000000
vn 0.000002 0.000000 -1.000000
vn 0.000002 0.000000 -1.000000
vn 0.074153 -0.997247 0.000000
vn 0.074153 -0.997247 0.000000
vn 0.074153 -0.997247 0.000000
vn 0.074153 -0.997247 0.000000
vn 0.997245 0.074181 0.000000
vn 0.997245 0.074181 0.000000
vn 0.997245 0.074181 0.000000
vn 0.997245 0.074181 0.000000
vn -0.997251 -0.074095 0.000000
vn -0.997251 -0.074095 0.000000
vn -0.997251 -0.074095 0.000000
vn -0.997251 -0.074095 0.000000
vn 0.000000 0.000000 1.000000
vn 0.000000 0.000000 1.000000
vn 0.000000 0.000000 1.000000
vn 0.000000 0.000000 1.000000
vn 0.079221 0.996857 0.000000
vn 0.079221 0.996857 0.000000
vn 0.079221 0.996857 0.000000
vn 0.079221 0.996857 0.000000
vn 0.000000 0.000000 -1.000000
vn 0.000000 0.000000 -1.000000
vn 0.000000 0.000000 -1.000000
vn 0.000000 0.000000 -1.000000
vn -0.079222 -0.996857 0.000000
vn -0.079222 -0.996857 0.000000
vn -0.079222 -0.996857 0.000000
vn -0.079222 -0.996857 0.000000
vn 0.996852 -0.079282 0.000000
vn 0.996852 -0.079282 0.000000
vn 0.996852 -0.079282 0.000000
vn 0.996852 -0.079282 0.000000
vn -0.996859 0.079196 0.000000
vn -0.996859 0.079196 0.000000
vn -0.996859 0.079196 0.000000
vn -0.996859 0.079196 0.000000
vn 0.000000 0.000000 1.000000
vn 0.000000 0.000000 1.000000
vn 0.000000 0.000000 1.000000
vn 0.000000 0.000000 1.000000
vn 0.000000 1.000000 0.000000
vn 0.000000 1.000000 0.000000
vn 0.000000 1.000000 0.000000
vn 0.000000 1.000000 0.000000
vn 0.000000 0.000000 -1.000000
vn 0.000000 0.000000 -1.000000
vn 0.000000 0.000000 -1.000000
vn 0.000000 0.000000 -1.000000
vn 0.000000 -1.000000 0.000000
vn 0.000000 -1.000000 0.000000
vn 0.000000 -1.000000 0.000000
vn 0.000000 -1.000000 0.000000
vn 1.000000 0.000000 0.000000
vn 1.000000 0.000000 0.000000
vn 1.000000 0.000000 0.000000
vn 1.000000 0.000000 0.000000
vn -1.000000 0.000000 0.000000
vn -1.000000 0.000000 0.000000
vn -1.000000 0.000000 0.000000
vn -1.000000 0.000000 0.000000
vn 0.000000 0.000000 1.000000
vn 0.000000 0.000000 1.000000
vn 0.000000 0.000000 1.000000
vn 0.000000 0.000000 1.000000
vn -0.213720 0.976895 0.000000
vn -0.213720 0.976895 0.000000
vn -0.213720 0.976895 0.000000
vn -0.213720 0.976895 0.000000
vn 0.000000 0.000000 -1.000000
vn 0.000000 0.000000 -1.000000
vn 0.000000 0.000000 -1.000000
vn 0.000000 0.000000 -1.000000
vn 0.213723 -0.976894 0.000000
vn 0.213723 -0.976894 0.000000
vn 0.213723 -0.976894 0.000000
vn 0.213723 -0.976894 0.000000
vn 0.976912 0.213640 0.000000
vn 0.976912 0.213640 0.000000
vn 0.976912 0.213640 0.000000
vn 0.976912 0.213640 0.000000
vn -0.976894 -0.213723 0.000000
vn -0.976894 -0.213723 0.000000
vn -0.976894 -0.213723 0.000000
vn -0.976894 -0.213723 0.000000
vn 0.000000 0.000000 1.000000
vn 0.000000 0.000000 1.000000
vn 0.000000 0.000000 1.000000
vn 0.000000 0.000000 1.000000
vn 0.000000 1.000000 0.000000
vn 0.000000 1.000000 0.000000
vn 0.000000 1.000000 0.000000
vn 0.000000 1.000000 0.000000
vn 0.000000 0.000000 -1.000000
vn 0.000000 0.000000 -1.000000
vn 0.000000 0.000000 -1.000000
vn 0.000000 0.000000 -1.000000
vn 0.000000 -1.000000 0.000000
vn 0.000000 -1.000000 0.000000
vn 0.000000 -1.000000 0.000000
vn 0.000000 -1.000000 0.000000
vn 1.000000 0.000000 0.000000
vn 1.000000 0.000000 0.000000
vn 1.000000 0.000000 0.000000
vn 1.000000 0.000000 0.000000
vn -1.000000 0.000000 0.000000
vn -1.000000 0.000000 0.000000
vn -1.000000 0.000000 0.000000
vn -1.000000 0.000000 0.000000
vn 0.000000 0.000000 1.000000
vn 0.000000 0.000000 1.000000
vn 0.000000 0.000000 1.000000
vn 0.000000 0.000000 1.000000
vn 0.073171 0.997319 0.000000
vn 0.073171 0.997319 0.000000
vn 0.073171 0.997319 0.000000
vn 0.073171 0.997319 0.000000
vn -0.000002 0.000000 -1.000000
vn -0.000002 0.000000 -1.000000
vn -0.000002 0.000000 -1.000000
vn -0.000002 0.000000 -1.000000
vn -0.073170 -0.997319 0.000000
vn -0.073170 -0.997319 0.000000
vn -0.073170 -0.997319 0.000000
vn -0.073170 -0.997319 0.000000
vn 0.997321 -0.073143 0.000000
vn 0.997321 -0.073143 0.000000
vn 0.997321 -0.073143 0.000000
vn 0.997321 -0.073143 0.000000
vn -0.997315 0.073229 0.000000
vn -0.997315 0.073229 0.000000
vn -0.997315 0.073229 0.000000
vn -0.997315 0.073229 0.000000
s off
f 1/1/1 2/2/2 4/3/3 3/4/4
f 3/5/5 4/6/6 6/7/7 5/8/8
f 5/9/9 6/10/10 8/11/11 7/12/12
f 7/13/13 8/14/14 2/15/15 1/16/16
f 2/17/17 8/18/18 6/19/19 4/20/20
f 7/21/21 1/22/22 3/23/23 5/24/24
f 9/25/25 10/26/26 12/27/27 11/28/28
f 11/29/29 12/30/30 14/31/31 13/32/32
f 13/33/33 14/34/34 16/35/35 15/36/36
f 15/37/37 16/38/38 10/39/39 9/40/40
f 10/41/41 16/42/42 14/43/43 12/44/44
f 15/45/45 9/46/46 11/47/47 13/48/48
f 17/49/49 18/50/50 20/51/51 19/52/52
f 19/53/53 20/54/54 22/55/55 21/56/56
f 21/57/57 22/58/58 24/59/59 23/60/60
f 23/61/61 24/62/62 18/63/63 17/64/64
f 18/65/65 24/66/66 22/67/67 20/68/68
f 23/69/69 17/70/70 19/71/71 21/72/72
f 34/73/73 35/74/74 37/75/75 38/76/76
f 27/77/77 28/78/78 30/79/79 29/80/80
f 39/81/81 40/82/82 36/83/83 33/84/84
f 31/85/85 32/86/86 26/87/87 25/88/88
f 35/89/89 36/90/90 40/91/91 37/92/92
f 33/93/93 34/94/94 38/95/95 39/96/96
f 31/97/97 25/98/98 34/94/99 33/93/100
f 25/99/101 26/100/102 35/74/103 34/73/104
f 26/101/105 32/102/106 36/90/107 35/89/108
f 33/84/109 36/83/110 32/103/111 31/104/112
f 38/76/113 37/75/114 28/105/115 27/106/116
f 39/96/117 38/95/118 27/107/119 29/108/120
f 29/109/121 30/110/122 40/82/123 39/81/124
f 37/92/125 40/91/126 30/111/127 28/112/128
f 50/113/129 54/114/130 53/115/131 51/116/132
f 43/117/133 45/118/134 46/119/135 44/120/136
f 55/121/137 49/122/138 52/123/139 56/124/140
f 47/125/141 41/126/142 42/127/143 48/128/144
f 51/129/145 53/130/146 56/131/147 52/132/148
f 49/133/149 55/134/150 54/135/151 50/136/152
f 47/137/153 49/133/154 50/136/155 41/138/156
f 41/139/157 50/113/158 51/116/159 42/140/160
f 42/141/161 51/129/162 52/132/163 48/142/164
f 49/122/165 47/143/166 48/144/167 52/123/168
f 54/114/169 43/145/170 44/146/171 53/115/172
f 55/134/173 45/147/174 43/148/175 54/135/176
f 45/149/177 55/121/178 56/124/179 46/150/180
f 53/130/181 44/151/182 46/152/183 56/131/184
f 57/153/185 58/154/186 60/155/187 59/156/188
f 59/157/189 60/158/190 62/159/191 61/160/192
f 61/161/193 62/162/194 64/163/195 63/164/196
f 63/165/197 64/166/198 58/167/199 57/168/200
f 58/169/201 64/170/202 62/171/203 60/172/204
f 63/173/205 57/174/206 59/175/207 61/176/208
f 65/177/209 66/178/210 68/179/211 67/180/212
f 67/181/213 68/182/214 70/183/215 69/184/216
f 69/185/217 70/186/218 72/187/219 71/188/220
f 71/189/221 72/190/222 66/191/223 65/192/224
f 66/193/225 72/194/226 70/195/227 68/196/228
f 71/197/229 65/198/230 67/199/231 69/200/232
f 73/201/233 74/202/234 76/203/235 75/204/236
f 75/205/237 76/206/238 78/207/239 77/208/240
f 77/209/241 78/210/242 80/211/243 79/212/244
f 79/213/245 80/214/246 74/215/247 73/216/248
f 74/217/249 80/218/250 78/219/251 76/220/252
f 79/221/253 73/222/254 75/223/255 77/224/256
f 81/225/257 82/226/258 84/227/259 83/228/260
f 83/229/261 84/230/262 86/231/263 85/232/264
f 85/233/265 86/234/266 88/235/267 87/236/268
f 87/237/269 88/238/270 82/239/271 81/240/272
f 82/241/273 88/242/274 86/243/275 84/244/276
f 87/245/277 81/246/278 83/247/279 85/248/280
f 89/249/281 90/250/282 92/251/283 91/252/284
f 91/253/285 92/254/286 94/255/287 93/256/288
f 93/257/289 94/258/290 96/259/291 95/260/292
f 95/261/293 96/262/294 90/263/295 89/264/296
f 90/265/297 96/266/298 94/267/299 92/268/300
f 95/269/301 89/270/302 91/271/303 93/272/304
f 97/273/305 98/274/306 100/275/307 99/276/308
f 99/277/309 100/278/310 102/279/311 101/280/312
f 101/281/313 102/282/314 104/283/315 103/284/316
f 103/285/317 104/286/318 98/287/319 97/288/320
f 98/289/321 104/290/322 102/291/323 100/292/324
f 103/293/325 97/294/326 99/295/327 101/296/328
