# This file uses meters as units for non-parametric coordinates.

v -0.890523 0.000000 -0.500000
v -0.890523 0.000000 0.500000
v -0.890523 0.579231 -0.500000
v -0.890523 0.579231 0.500000
v 0.890523 0.579231 -0.500000
v 0.890523 0.579231 0.500000
v 0.890523 0.000000 -0.500000
v 0.890523 0.000000 0.500000
v -0.660929 0.579231 -0.371090
v -0.660929 0.579231 0.371090
v 0.660922 0.579231 0.371090
v 0.660922 0.579231 -0.371090
v -0.660929 0.110927 -0.371090
v -0.660929 0.110927 0.371090
v 0.660922 0.110927 0.371090
v 0.660922 0.110927 -0.371090
v 0.754654 0.079832 0.500000
v -0.754654 0.079832 0.500000
v 0.754654 0.498569 0.500000
v -0.754654 0.498569 0.500000
v -0.754654 0.079832 -0.500000
v 0.754654 0.079832 -0.500000
v -0.754654 0.499399 -0.500000
v 0.754654 0.499399 -0.500000
v -0.890523 0.079832 -0.363608
v -0.890523 0.079832 0.363608
v -0.890523 0.499399 0.363608
v -0.890523 0.499399 -0.363608
v 0.890523 0.499399 -0.363608
v 0.890523 0.499399 0.363608
v 0.890523 0.079832 0.363608
v 0.890523 0.079832 -0.363608
v -0.660932 0.505018 -0.371090
v 0.660922 0.505018 -0.371090
v 0.660922 0.505018 0.371090
v -0.660932 0.505018 0.371090
vt 0.727758 0.984836
vt 0.727758 0.984872
vt 0.679796 0.984872
vt 0.679796 0.984836
vt 0.574524 0.367657
vt 0.574524 0.367657
vt 0.574524 0.367657
vt 0.574524 0.367657
vt 0.679796 0.984836
vt 0.679796 0.984872
vt 0.727758 0.984872
vt 0.727758 0.984836
vt 0.550480 0.367657
vt 0.550480 0.367657
vt 0.550480 0.367657
vt 0.550480 0.367657
vt 0.727758 0.981672
vt 0.727758 0.981708
vt 0.679892 0.981708
vt 0.679892 0.981672
vt 0.727758 0.981708
vt 0.727758 0.981672
vt 0.679796 0.981672
vt 0.679796 0.981708
vt 0.649597 0.367638
vt 0.649597 0.367638
vt 0.649597 0.367638
vt 0.649597 0.367638
vt 0.649597 0.367638
vt 0.649597 0.367638
vt 0.649597 0.367638
vt 0.649597 0.367638
vt 0.649597 0.367638
vt 0.649597 0.367638
vt 0.649597 0.367638
vt 0.649597 0.367638
vt 0.649597 0.367638
vt 0.649597 0.367638
vt 0.649597 0.367638
vt 0.649597 0.367638
vt 0.584125 0.367638
vt 0.584125 0.367638
vt 0.584125 0.367638
vt 0.584125 0.367638
vt 0.612977 0.367638
vt 0.612977 0.367638
vt 0.612977 0.367638
vt 0.612977 0.367638
vt 0.584125 0.367638
vt 0.584125 0.367638
vt 0.584125 0.367638
vt 0.584125 0.367638
vt 0.612977 0.367638
vt 0.612977 0.367638
vt 0.612977 0.367638
vt 0.612977 0.367638
vt 0.615295 0.367638
vt 0.615295 0.367638
vt 0.615295 0.367638
vt 0.615295 0.367638
vt 0.615295 0.367638
vt 0.615295 0.367638
vt 0.615295 0.367638
vt 0.615295 0.367638
vt 0.615295 0.367638
vt 0.615295 0.367638
vt 0.615295 0.367638
vt 0.615295 0.367638
vt 0.615295 0.367638
vt 0.615295 0.367638
vt 0.615295 0.367638
vt 0.615295 0.367638
vt 0.615295 0.367638
vt 0.615295 0.367638
vt 0.615295 0.367638
vt 0.615295 0.367638
vt 0.615295 0.367638
vt 0.615295 0.367638
vt 0.615295 0.367638
vt 0.615295 0.367638
vt 0.615295 0.367638
vt 0.615295 0.367638
vt 0.615295 0.367638
vt 0.615295 0.367638
vt 0.615295 0.367638
vt 0.615295 0.367638
vt 0.615295 0.367638
vt 0.615295 0.367638
vt 0.588834 0.367638
vt 0.588834 0.367638
vt 0.588834 0.367638
vt 0.588834 0.367638
vt 0.588834 0.367638
vt 0.588834 0.367638
vt 0.588834 0.367638
vt 0.588834 0.367638
vt 0.588834 0.367638
vt 0.588834 0.367638
vt 0.588834 0.367638
vt 0.588834 0.367638
vt 0.588834 0.367638
vt 0.588834 0.367638
vt 0.588834 0.367638
vt 0.588834 0.367638
vt 0.588834 0.367638
vt 0.588834 0.367638
vt 0.588834 0.367638
vt 0.588834 0.367638
vt 0.588834 0.367638
vt 0.588834 0.367638
vt 0.588834 0.367638
vt 0.588834 0.367638
vt 0.588834 0.367638
vt 0.588834 0.367638
vt 0.588834 0.367638
vt 0.588834 0.367638
vt 0.588834 0.367638
vt 0.588834 0.367638
vt 0.588834 0.367638
vt 0.588834 0.367638
vt 0.608924 0.367657
vt 0.608924 0.367657
vt 0.608924 0.367657
vt 0.608924 0.367657
vt 0.580072 0.367657
vt 0.580072 0.367657
vt 0.580072 0.367657
vt 0.580072 0.367657
vt 0.608924 0.367657
vt 0.608924 0.367657
vt 0.608924 0.367657
vt 0.608924 0.367657
vt 0.580072 0.367657
vt 0.580072 0.367657
vt 0.580072 0.367657
vt 0.580072 0.367657
vn -1.000000 0.000000 0.000000
vn -1.000000 0.000000 0.000000
vn -1.000000 0.000000 0.000000
vn -1.000000 0.000000 0.000000
vn 0.000000 1.000000 0.000000
vn 0.000000 1.000000 0.000000
vn 0.000000 1.000000 0.000000
vn 0.000000 1.000000 0.000000
vn 1.000000 0.000000 0.000000
vn 1.000000 0.000000 0.000000
vn 1.000000 0.000000 0.000000
vn 1.000000 0.000000 0.000000
vn 0.000000 -1.000000 0.000000
vn 0.000000 -1.000000 0.000000
vn 0.000000 -1.000000 0.000000
vn 0.000000 -1.000000 0.000000
vn 0.000000 0.000000 1.000000
vn 0.000000 0.000000 1.000000
vn 0.000000 0.000000 1.000000
vn 0.000000 0.000000 1.000000
vn 0.000000 0.000000 -1.000000
vn 0.000000 0.000000 -1.000000
vn 0.000000 0.000000 -1.000000
vn 0.000000 0.000000 -1.000000
vn 0.000000 1.000000 0.000000
vn 0.000000 1.000000 0.000000
vn 0.000000 1.000000 0.000000
vn 0.000000 1.000000 0.000000
vn 0.000000 1.000000 0.000000
vn 0.000000 1.000000 0.000000
vn 0.000000 1.000000 0.000000
vn 0.000000 1.000000 0.000000
vn 0.000000 1.000000 0.000000
vn 0.000000 1.000000 0.000000
vn 0.000000 1.000000 0.000000
vn 0.000000 1.000000 0.000000
vn 0.000000 1.000000 0.000000
vn 0.000000 1.000000 0.000000
vn 0.000000 1.000000 0.000000
vn 0.000000 1.000000 0.000000
vn 1.000000 0.000000 0.000000
vn 1.000000 0.000000 0.000000
vn 1.000000 0.000000 0.000000
vn 1.000000 0.000000 0.000000
vn 0.000000 0.000000 -1.000000
vn 0.000000 0.000000 -1.000000
vn 0.000000 0.000000 -1.000000
vn 0.000000 0.000000 -1.000000
vn -1.000000 0.000000 0.000000
vn -1.000000 0.000000 0.000000
vn -1.000000 0.000000 0.000000
vn -1.000000 0.000000 0.000000
vn 0.000000 0.000000 1.000000
vn 0.000000 0.000000 1.000000
vn 0.000000 0.000000 1.000000
vn 0.000000 0.000000 1.000000
vn 0.000000 0.000000 1.000000
vn 0.000000 0.000000 1.000000
vn 0.000000 0.000000 1.000000
vn 0.000000 0.000000 1.000000
vn 0.000000 0.000000 1.000000
vn 0.000000 0.000000 1.000000
vn 0.000000 0.000000 1.000000
vn 0.000000 0.000000 1.000000
vn 0.000000 0.000000 1.000000
vn 0.000000 0.000000 1.000000
vn 0.000000 0.000000 1.000000
vn 0.000000 0.000000 1.000000
vn 0.000000 0.000000 1.000000
vn 0.000000 0.000000 1.000000
vn 0.000000 0.000000 1.000000
vn 0.000000 0.000000 1.000000
vn 0.000000 0.000000 -1.000000
vn 0.000000 0.000000 -1.000000
vn 0.000000 0.000000 -1.000000
vn 0.000000 0.000000 -1.000000
vn 0.000000 0.000000 -1.000000
vn 0.000000 0.000000 -1.000000
vn 0.000000 0.000000 -1.000000
vn 0.000000 0.000000 -1.000000
vn 0.000000 0.000000 -1.000000
vn 0.000000 0.000000 -1.000000
vn 0.000000 0.000000 -1.000000
vn 0.000000 0.000000 -1.000000
vn 0.000000 0.000000 -1.000000
vn 0.000000 0.000000 -1.000000
vn 0.000000 0.000000 -1.000000
vn 0.000000 0.000000 -1.000000
vn -1.000000 -0.000000 0.000000
vn -1.000000 -0.000000 0.000000
vn -1.000000 0.000000 0.000000
vn -1.000000 0.000000 0.000000
vn -1.000000 0.000000 0.000000
vn -1.000000 0.000000 0.000000
vn -1.000000 0.000000 0.000000
vn -1.000000 0.000000 0.000000
vn -1.000000 0.000000 0.000000
vn -1.000000 0.000000 0.000000
vn -1.000000 0.000000 0.000000
vn -1.000000 0.000000 0.000000
vn -1.000000 0.000000 0.000000
vn -1.000000 0.000000 0.000000
vn -1.000000 0.000000 0.000000
vn -1.000000 0.000000 0.000000
vn 1.000000 0.000000 0.000000
vn 1.000000 0.000000 0.000000
vn 1.000000 0.000000 0.000000
vn 1.000000 0.000000 0.000000
vn 1.000000 0.000000 0.000000
vn 1.000000 0.000000 0.000000
vn 1.000000 0.000000 0.000000
vn 1.000000 0.000000 0.000000
vn 1.000000 -0.000000 0.000000
vn 1.000000 -0.000000 0.000000
vn 1.000000 0.000000 0.000000
vn 1.000000 0.000000 0.000000
vn 1.000000 0.000000 0.000000
vn 1.000000 0.000000 0.000000
vn 1.000000 0.000000 0.000000
vn 1.000000 0.000000 0.000000
vn 0.000000 0.000000 1.000000
vn 0.000000 0.000000 1.000000
vn 0.000000 0.000000 1.000000
vn 0.000000 0.000000 1.000000
vn -1.000000 0.000000 0.000000
vn -1.000000 0.000000 0.000000
vn -1.000000 0.000000 0.000000
vn -1.000000 0.000000 0.000000
vn 0.000000 0.000000 -1.000000
vn 0.000000 0.000000 -1.000000
vn 0.000000 0.000000 -1.000000
vn 0.000000 0.000000 -1.000000
vn 1.000000 0.000000 0.000000
vn 1.000000 0.000000 0.000000
vn 1.000000 0.000000 0.000000
vn 1.000000 0.000000 0.000000
s off
f 25/1/1 26/2/2 27/3/3 28/4/4
f 13/5/5 14/6/6 15/7/7 16/8/8
f 29/9/9 30/10/10 31/11/11 32/12/12
f 7/13/13 8/14/14 2/15/15 1/16/16
f 18/17/17 17/18/18 19/19/19 20/20/20
f 22/21/21 21/22/22 23/23/23 24/24/24
f 3/25/25 4/26/26 10/27/27 9/28/28
f 4/29/29 6/30/30 11/31/31 10/32/32
f 6/33/33 5/34/34 12/35/35 11/36/36
f 5/37/37 3/38/38 9/39/39 12/40/40
f 9/41/41 10/42/42 36/43/43 33/44/44
f 10/45/45 11/46/46 35/47/47 36/48/48
f 11/49/49 12/50/50 34/51/51 35/52/52
f 12/53/53 9/54/54 33/55/55 34/56/56
f 2/57/57 8/58/58 17/59/59 18/60/60
f 8/61/61 6/62/62 19/63/63 17/64/64
f 6/65/65 4/66/66 20/67/67 19/68/68
f 4/69/69 2/70/70 18/71/71 20/72/72
f 7/73/73 1/74/74 21/75/75 22/76/76
f 1/77/77 3/78/78 23/79/79 21/80/80
f 3/81/81 5/82/82 24/83/83 23/84/84
f 5/85/85 7/86/86 22/87/87 24/88/88
f 1/89/89 2/90/90 26/91/91 25/92/92
f 2/93/93 4/94/94 27/95/95 26/96/96
f 4/97/97 3/98/98 28/99/99 27/100/100
f 3/101/101 1/102/102 25/103/103 28/104/104
f 5/105/105 6/106/106 30/107/107 29/108/108
f 6/109/109 8/110/110 31/111/111 30/112/112
f 8/113/113 7/114/114 32/115/115 31/116/116
f 7/117/117 5/118/118 29/119/119 32/120/120
f 34/121/121 33/122/122 13/123/123 16/124/124
f 35/125/125 34/126/126 16/127/127 15/128/128
f 36/129/129 35/130/130 15/131/131 14/132/132
f 33/133/133 36/134/134 14/135/135 13/136/136
