# This file uses meters as units for non-parametric coordinates.

v -1.534449 0.616517 -0.250013
v -1.534449 0.736789 -0.250013
v 1.534445 0.736789 -0.250013
v 1.534445 0.616517 -0.250013
v -1.452894 0.736789 -0.164095
v 1.452883 0.736789 -0.164095
v 1.452883 0.616517 -0.164095
v -1.452894 0.616517 -0.164095
v -1.534449 1.452718 -0.250013
v -1.534449 1.572990 -0.250013
v 1.534445 1.572990 -0.250013
v 1.534445 1.452718 -0.250013
v -1.452894 1.572990 -0.164095
v 1.452883 1.572990 -0.164095
v 1.452883 1.452718 -0.164095
v -1.452894 1.452718 -0.164095
v 1.352140 0.208545 0.102761
v 1.557662 0.208545 0.102761
v 1.352140 2.252799 0.102761
v 1.557662 2.252799 0.102761
v 1.352140 2.252799 -0.102761
v 1.557662 2.252799 -0.102761
v 1.352140 0.208545 -0.102761
v 1.557662 0.208545 -0.102761
v -1.557658 0.208545 0.102761
v -1.352137 0.208545 0.102761
v -1.557658 2.252799 0.102761
v -1.352137 2.252799 0.102761
v -1.557658 2.252799 -0.102761
v -1.352137 2.252799 -0.102761
v -1.557658 0.208545 -0.102761
v -1.352137 0.208545 -0.102761
v -1.666452 0.000000 0.317322
v 1.666452 0.000000 0.317322
v -1.666452 0.208545 0.317322
v 1.666452 0.208545 0.317322
v -1.666452 0.208545 -0.317322
v 1.666452 0.208545 -0.317322
v -1.666452 0.000000 -0.317322
v 1.666452 0.000000 -0.317322
v 1.534445 1.452718 -0.000000
v 1.534445 1.572990 -0.000000
v 1.452883 1.572990 0.000000
v 1.452883 1.452718 0.000000
v 1.534445 0.616517 -0.000000
v 1.534445 0.736789 -0.000000
v 1.452883 0.736789 0.000000
v 1.452883 0.616517 0.000000
v -1.534449 0.616517 0.000000
v -1.534449 0.736789 0.000000
v -1.452894 0.736789 0.000000
v -1.452894 0.616517 0.000000
v -1.534449 1.452718 0.000000
v -1.534449 1.572990 0.000000
v -1.452894 1.572990 0.000000
v -1.452894 1.452718 0.000000
vt 0.206593 0.063784
vt 0.206593 0.063784
vt 0.206593 0.063784
vt 0.206593 0.063784
vt 0.235731 0.063784
vt 0.235731 0.063784
vt 0.235731 0.063784
vt 0.235731 0.063784
vt 0.270032 0.063784
vt 0.270032 0.063784
vt 0.270032 0.063784
vt 0.270032 0.063784
vt 0.270032 0.063784
vt 0.270032 0.063784
vt 0.270032 0.063784
vt 0.270032 0.063784
vt 0.174969 0.063784
vt 0.174969 0.063784
vt 0.174969 0.063784
vt 0.174969 0.063784
vt 0.174969 0.063784
vt 0.174969 0.063784
vt 0.174969 0.063784
vt 0.174969 0.063784
vt 0.174223 0.063784
vt 0.174223 0.063784
vt 0.203487 0.063784
vt 0.203487 0.063784
vt 0.203487 0.063784
vt 0.203487 0.063784
vt 0.174223 0.063784
vt 0.174223 0.063784
vt 0.206593 0.063784
vt 0.206593 0.063784
vt 0.206593 0.063784
vt 0.206593 0.063784
vt 0.235731 0.063784
vt 0.235731 0.063784
vt 0.235731 0.063784
vt 0.235731 0.063784
vt 0.270032 0.063784
vt 0.270032 0.063784
vt 0.270032 0.063784
vt 0.270032 0.063784
vt 0.270032 0.063784
vt 0.270032 0.063784
vt 0.270032 0.063784
vt 0.270032 0.063784
vt 0.174969 0.063784
vt 0.174969 0.063784
vt 0.174969 0.063784
vt 0.174969 0.063784
vt 0.174969 0.063784
vt 0.174969 0.063784
vt 0.174969 0.063784
vt 0.174969 0.063784
vt 0.174223 0.063784
vt 0.174223 0.063784
vt 0.203487 0.063784
vt 0.203487 0.063784
vt 0.203487 0.063784
vt 0.203487 0.063784
vt 0.174223 0.063784
vt 0.174223 0.063784
vt 0.239124 0.511212
vt 0.239124 0.511212
vt 0.239124 0.511212
vt 0.239124 0.511212
vt 0.269581 0.511212
vt 0.269581 0.511212
vt 0.269581 0.511212
vt 0.269581 0.511212
vt 0.239124 0.511212
vt 0.239124 0.511212
vt 0.239124 0.511212
vt 0.239124 0.511212
vt 0.209350 0.511212
vt 0.209350 0.511212
vt 0.209350 0.511212
vt 0.209350 0.511212
vt 0.209350 0.511212
vt 0.209350 0.511212
vt 0.209350 0.511212
vt 0.209350 0.511212
vt 0.239124 0.511212
vt 0.239124 0.511212
vt 0.239124 0.511212
vt 0.239124 0.511212
vt 0.269581 0.511212
vt 0.269581 0.511212
vt 0.269581 0.511212
vt 0.269581 0.511212
vt 0.239124 0.511212
vt 0.239124 0.511212
vt 0.239124 0.511212
vt 0.239124 0.511212
vt 0.209350 0.511212
vt 0.209350 0.511212
vt 0.209350 0.511212
vt 0.209350 0.511212
vt 0.209350 0.511212
vt 0.209350 0.511212
vt 0.209350 0.511212
vt 0.209350 0.511212
vt 0.239124 0.511212
vt 0.239124 0.511212
vt 0.239124 0.511212
vt 0.239124 0.511212
vt 0.269581 0.511212
vt 0.269581 0.511212
vt 0.269581 0.511212
vt 0.269581 0.511212
vt 0.239124 0.511212
vt 0.239124 0.511212
vt 0.239124 0.511212
vt 0.239124 0.511212
vt 0.209350 0.511212
vt 0.209350 0.511212
vt 0.209350 0.511212
vt 0.209350 0.511212
vt 0.209350 0.511212
vt 0.209350 0.511212
vt 0.209350 0.511212
vt 0.209350 0.511212
vt 0.206593 0.063784
vt 0.174968 0.063784
vt 0.206593 0.063784
vt 0.270032 0.063784
vt 0.270032 0.063784
vt 0.174223 0.063784
vt 0.174968 0.063784
vt 0.174223 0.063784
vt 0.206593 0.063784
vt 0.174968 0.063784
vt 0.206593 0.063784
vt 0.270032 0.063784
vt 0.270032 0.063784
vt 0.174223 0.063784
vt 0.174968 0.063784
vt 0.174223 0.063784
vt 0.206593 0.063784
vt 0.174968 0.063784
vt 0.206593 0.063784
vt 0.270032 0.063784
vt 0.270032 0.063784
vt 0.174223 0.063784
vt 0.174968 0.063784
vt 0.174223 0.063784
vt 0.206593 0.063784
vt 0.174968 0.063784
vt 0.206593 0.063784
vt 0.270032 0.063784
vt 0.270032 0.063784
vt 0.174223 0.063784
vt 0.174968 0.063784
vt 0.174223 0.063784
vn -1.000000 0.000000 0.000000
vn -1.000000 0.000000 0.000000
vn -1.000000 0.000000 0.000000
vn -1.000000 0.000000 0.000000
vn 0.000000 0.000000 -1.000000
vn 0.000000 0.000000 -1.000000
vn 0.000000 0.000000 -1.000000
vn 0.000000 0.000000 -1.000000
vn 0.000000 1.000000 0.000000
vn 0.000000 1.000000 0.000000
vn 0.000000 1.000000 0.000000
vn 0.000000 1.000000 0.000000
vn 0.000000 1.000000 -0.000000
vn 0.000000 1.000000 -0.000000
vn 0.000000 1.000000 -0.000000
vn 0.000000 1.000000 -0.000000
vn 0.000000 -1.000000 0.000000
vn 0.000000 -1.000000 0.000000
vn 0.000000 -1.000000 0.000000
vn 0.000000 -1.000000 0.000000
vn 0.000000 -1.000000 0.000000
vn 0.000000 -1.000000 0.000000
vn 0.000000 -1.000000 0.000000
vn 0.000000 -1.000000 0.000000
vn 0.000000 0.000000 1.000000
vn 0.000000 0.000000 1.000000
vn 0.000000 0.000000 1.000000
vn 0.000000 0.000000 1.000000
vn 1.000000 0.000000 0.000000
vn 1.000000 0.000000 0.000000
vn 1.000000 0.000000 0.000000
vn 1.000000 0.000000 0.000000
vn -1.000000 0.000000 0.000000
vn -1.000000 0.000000 0.000000
vn -1.000000 0.000000 0.000000
vn -1.000000 0.000000 0.000000
vn 0.000000 0.000000 -1.000000
vn 0.000000 0.000000 -1.000000
vn 0.000000 0.000000 -1.000000
vn 0.000000 0.000000 -1.000000
vn 0.000000 1.000000 0.000000
vn -0.000000 1.000000 0.000000
vn -0.000000 1.000000 0.000000
vn 0.000000 1.000000 0.000000
vn 0.000000 1.000000 -0.000000
vn 0.000000 1.000000 -0.000000
vn 0.000000 1.000000 -0.000000
vn 0.000000 1.000000 -0.000000
vn 0.000000 -1.000000 0.000000
vn 0.000000 -1.000000 0.000000
vn 0.000000 -1.000000 0.000000
vn 0.000000 -1.000000 0.000000
vn 0.000000 -1.000000 0.000000
vn 0.000000 -1.000000 0.000000
vn 0.000000 -1.000000 0.000000
vn 0.000000 -1.000000 0.000000
vn 0.000000 0.000000 1.000000
vn 0.000000 0.000000 1.000000
vn 0.000000 0.000000 1.000000
vn 0.000000 0.000000 1.000000
vn 1.000000 0.000000 0.000000
vn 1.000000 0.000000 0.000000
vn 1.000000 0.000000 0.000000
vn 1.000000 0.000000 0.000000
vn 0.000000 0.000000 1.000000
vn 0.000000 0.000000 1.000000
vn 0.000000 0.000000 1.000000
vn 0.000000 0.000000 1.000000
vn 0.000000 1.000000 0.000000
vn 0.000000 1.000000 0.000000
vn 0.000000 1.000000 0.000000
vn 0.000000 1.000000 0.000000
vn 0.000000 0.000000 -1.000000
vn 0.000000 0.000000 -1.000000
vn 0.000000 0.000000 -1.000000
vn 0.000000 0.000000 -1.000000
vn 1.000000 0.000000 0.000000
vn 1.000000 0.000000 0.000000
vn 1.000000 0.000000 0.000000
vn 1.000000 0.000000 0.000000
vn -1.000000 0.000000 0.000000
vn -1.000000 0.000000 0.000000
vn -1.000000 0.000000 0.000000
vn -1.000000 0.000000 0.000000
vn 0.000000 0.000000 1.000000
vn 0.000000 0.000000 1.000000
vn 0.000000 0.000000 1.000000
vn 0.000000 0.000000 1.000000
vn 0.000000 1.000000 0.000000
vn 0.000000 1.000000 0.000000
vn 0.000000 1.000000 0.000000
vn 0.000000 1.000000 0.000000
vn 0.000000 0.000000 -1.000000
vn 0.000000 0.000000 -1.000000
vn 0.000000 0.000000 -1.000000
vn 0.000000 0.000000 -1.000000
vn 1.000000 0.000000 0.000000
vn 1.000000 0.000000 0.000000
vn 1.000000 0.000000 0.000000
vn 1.000000 0.000000 0.000000
vn -1.000000 0.000000 0.000000
vn -1.000000 0.000000 0.000000
vn -1.000000 0.000000 0.000000
vn -1.000000 0.000000 0.000000
vn 0.000000 0.000000 1.000000
vn 0.000000 0.000000 1.000000
vn 0.000000 0.000000 1.000000
vn 0.000000 0.000000 1.000000
vn 0.000000 1.000000 0.000000
vn 0.000000 1.000000 0.000000
vn 0.000000 1.000000 0.000000
vn 0.000000 1.000000 0.000000
vn 0.000000 0.000000 -1.000000
vn 0.000000 0.000000 -1.000000
vn 0.000000 0.000000 -1.000000
vn 0.000000 0.000000 -1.000000
vn 1.000000 0.000000 0.000000
vn 1.000000 0.000000 0.000000
vn 1.000000 0.000000 0.000000
vn 1.000000 0.000000 0.000000
vn -1.000000 0.000000 0.000000
vn -1.000000 0.000000 0.000000
vn -1.000000 0.000000 0.000000
vn -1.000000 0.000000 0.000000
vn 1.000000 0.000000 0.000000
vn 1.000000 0.000000 0.000000
vn 1.000000 0.000000 0.000000
vn 1.000000 0.000000 0.000000
vn 0.000000 1.000000 0.000000
vn 0.000000 1.000000 0.000000
vn 0.000000 1.000000 0.000000
vn 0.000000 1.000000 0.000000
vn -1.000000 0.000000 0.000000
vn -1.000000 0.000000 0.000000
vn -1.000000 0.000000 0.000000
vn -1.000000 0.000000 0.000000
vn 0.000000 -1.000000 0.000000
vn 0.000000 -1.000000 0.000000
vn 0.000000 -1.000000 0.000000
vn 0.000000 -1.000000 0.000000
vn 1.000000 0.000000 0.000000
vn 1.000000 0.000000 0.000000
vn 1.000000 0.000000 0.000000
vn 1.000000 0.000000 0.000000
vn 0.000000 1.000000 0.000000
vn 0.000000 1.000000 0.000000
vn 0.000000 1.000000 0.000000
vn 0.000000 1.000000 0.000000
vn -1.000000 0.000000 0.000000
vn -1.000000 0.000000 0.000000
vn -1.000000 0.000000 0.000000
vn -1.000000 0.000000 0.000000
vn 0.000000 -1.000000 0.000000
vn 0.000000 -1.000000 0.000000
vn 0.000000 -1.000000 0.000000
vn 0.000000 -1.000000 0.000000
s off
f 1/1/1 49/141/2 50/143/3 2/2/4
f 4/5/5 1/6/6 2/7/7 3/8/8
f 2/9/9 50/144/10 51/145/11 5/10/12
f 3/13/13 2/14/14 5/15/15 6/16/16
f 52/147/17 49/142/18 1/19/19 8/20/20
f 1/21/21 4/22/22 7/23/23 8/24/24
f 6/27/25 5/28/26 8/29/27 7/30/28
f 51/146/29 52/148/30 8/31/31 5/32/32
f 9/33/33 53/149/34 54/151/35 10/34/36
f 12/37/37 9/38/38 10/39/39 11/40/40
f 10/41/41 54/152/42 55/153/43 13/42/44
f 11/45/45 10/46/46 13/47/47 14/48/48
f 56/155/49 53/150/50 9/51/51 16/52/52
f 9/53/53 12/54/54 15/55/55 16/56/56
f 14/59/57 13/60/58 16/61/59 15/62/60
f 55/154/61 56/156/62 16/63/63 13/64/64
f 17/65/65 18/66/66 20/67/67 19/68/68
f 19/69/69 20/70/70 22/71/71 21/72/72
f 21/73/73 22/74/74 24/75/75 23/76/76
f 18/77/77 24/78/78 22/79/79 20/80/80
f 23/81/81 17/82/82 19/83/83 21/84/84
f 25/85/85 26/86/86 28/87/87 27/88/88
f 27/89/89 28/90/90 30/91/91 29/92/92
f 29/93/93 30/94/94 32/95/95 31/96/96
f 26/97/97 32/98/98 30/99/99 28/100/100
f 31/101/101 25/102/102 27/103/103 29/104/104
f 33/105/105 34/106/106 36/107/107 35/108/108
f 35/109/109 36/110/110 38/111/111 37/112/112
f 37/113/113 38/114/114 40/115/115 39/116/116
f 34/117/117 40/118/118 38/119/119 36/120/120
f 39/121/121 33/122/122 35/123/123 37/124/124
f 11/35/125 42/127/126 41/125/127 12/36/128
f 43/129/129 42/128/130 11/43/131 14/44/132
f 44/132/133 43/130/134 14/57/135 15/58/136
f 12/49/137 41/126/138 44/131/139 15/50/140
f 3/3/141 46/135/142 45/133/143 4/4/144
f 47/137/145 46/136/146 3/11/147 6/12/148
f 48/140/149 47/138/150 6/25/151 7/26/152
f 4/17/153 45/134/154 48/139/155 7/18/156
