# This file uses meters as units for non-parametric coordinates.

v 1.672920 0.662290 -0.163793
v -1.465349 0.662290 -0.654388
v 1.629154 0.819196 -0.163793
v -1.423372 0.819196 -0.642014
v 1.629154 0.819196 0.654388
v -1.654722 0.819196 0.142777
v 1.672920 0.662290 0.654388
v -1.696701 0.662290 0.130403
v 1.696701 0.039486 -0.139308
v 1.582117 0.005299 -0.144393
v 1.513828 0.639136 -0.050115
v 1.399246 0.604949 -0.055200
v 1.513828 0.621527 0.068270
v 1.399246 0.587340 0.063185
v 1.696701 0.021878 -0.020924
v 1.582117 -0.012309 -0.026008
v -1.337315 -0.014619 -0.559938
v -1.448172 0.021000 -0.587662
v -1.172613 0.586215 -0.446582
v -1.283470 0.621834 -0.474304
v -1.205292 0.573581 -0.332138
v -1.316149 0.609200 -0.359859
v -1.369993 -0.027253 -0.445495
v -1.480850 0.008366 -0.473217
v -1.503721 -0.027230 0.015848
v -1.612553 0.009033 -0.018317
v -1.296953 0.570812 -0.008044
v -1.405785 0.607074 -0.042209
v -1.327850 0.586073 0.106576
v -1.436682 0.622336 0.072411
v -1.534616 -0.011968 0.130467
v -1.643450 0.024295 0.096302
v 1.624825 0.021501 0.516286
v 1.509501 -0.009644 0.523615
v 1.455534 0.615454 0.376508
v 1.340210 0.584309 0.383837
v 1.455534 0.642872 0.493012
v 1.340210 0.611727 0.500341
v 1.624825 0.048919 0.632791
v 1.509501 0.017774 0.640120
v 0.282642 -0.020409 0.654388
v 0.244070 0.131413 0.654388
v 0.545660 0.131413 -0.163792
v 0.584232 -0.020409 -0.163794
v 0.364878 0.114936 -0.118132
v -0.069897 0.114936 0.609970
v -0.102030 -0.027985 0.600496
v 0.332743 -0.027985 -0.127606
v -0.014877 -0.027985 0.287239
v 0.017258 0.114936 0.296714
v -1.549635 0.819196 -0.213701
v -1.591612 0.662290 -0.226076
v 0.286848 -0.020409 0.345307
v 0.248276 0.131413 0.345307
v 1.629154 0.819196 0.271456
v 1.672920 0.662290 0.271456
vt 0.234111 0.511934
vt 0.234111 0.511934
vt 0.234111 0.511934
vt 0.234111 0.511934
vt 0.265502 0.511934
vt 0.265502 0.511934
vt 0.265502 0.511934
vt 0.265502 0.511934
vt 0.168872 0.511934
vt 0.168872 0.511934
vt 0.168872 0.511934
vt 0.168872 0.511934
vt 0.202344 0.511934
vt 0.202344 0.511934
vt 0.202344 0.511934
vt 0.202344 0.511934
vt 0.202344 0.511934
vt 0.202344 0.511934
vt 0.202344 0.511934
vt 0.202344 0.511934
vt 0.229168 0.511718
vt 0.229168 0.511718
vt 0.229168 0.511718
vt 0.229168 0.511718
vt 0.234111 0.511934
vt 0.234111 0.511934
vt 0.234111 0.511934
vt 0.234111 0.511934
vt 0.234111 0.511934
vt 0.234111 0.511934
vt 0.234111 0.511934
vt 0.234111 0.511934
vt 0.168872 0.511934
vt 0.168872 0.511934
vt 0.168872 0.511934
vt 0.168872 0.511934
vt 0.202344 0.511934
vt 0.202344 0.511934
vt 0.202344 0.511934
vt 0.202344 0.511934
vt 0.202344 0.511934
vt 0.202344 0.511934
vt 0.202344 0.511934
vt 0.202344 0.511934
vt 0.234111 0.511934
vt 0.234111 0.511934
vt 0.234111 0.511934
vt 0.234111 0.511934
vt 0.234111 0.511934
vt 0.234111 0.511934
vt 0.234111 0.511934
vt 0.234111 0.511934
vt 0.168872 0.511934
vt 0.168872 0.511934
vt 0.168872 0.511934
vt 0.168872 0.511934
vt 0.202344 0.511934
vt 0.202344 0.511934
vt 0.202344 0.511934
vt 0.202344 0.511934
vt 0.202344 0.511934
vt 0.202344 0.511934
vt 0.202344 0.511934
vt 0.202344 0.511934
vt 0.234111 0.511934
vt 0.234111 0.511934
vt 0.234111 0.511934
vt 0.234111 0.511934
vt 0.234111 0.511934
vt 0.234111 0.511934
vt 0.234111 0.511934
vt 0.234111 0.511934
vt 0.168872 0.511934
vt 0.168872 0.511934
vt 0.168872 0.511934
vt 0.168872 0.511934
vt 0.202344 0.511934
vt 0.202344 0.511934
vt 0.202344 0.511934
vt 0.202344 0.511934
vt 0.202344 0.511934
vt 0.202344 0.511934
vt 0.202344 0.511934
vt 0.202344 0.511934
vt 0.234111 0.511934
vt 0.234111 0.511934
vt 0.234111 0.511934
vt 0.234111 0.511934
vt 0.234111 0.511934
vt 0.234111 0.511934
vt 0.234111 0.511934
vt 0.234111 0.511934
vt 0.168872 0.511934
vt 0.168872 0.511934
vt 0.168872 0.511934
vt 0.168872 0.511934
vt 0.202344 0.511934
vt 0.202344 0.511934
vt 0.202344 0.511934
vt 0.202344 0.511934
vt 0.202344 0.511934
vt 0.202344 0.511934
vt 0.202344 0.511934
vt 0.202344 0.511934
vt 0.168872 0.511934
vt 0.200729 0.510493
vt 0.265502 0.511934
vt 0.229168 0.511718
vt 0.234111 0.511934
vt 0.265502 0.511934
vt 0.234111 0.511934
vt 0.168872 0.511934
vt 0.234111 0.511934
vt 0.200729 0.510493
vt 0.265502 0.511934
vt 0.229168 0.511718
vt 0.168872 0.511934
vt 0.229168 0.511718
vt 0.234111 0.511934
vt 0.168872 0.511934
vt 0.200729 0.510493
vt 0.265502 0.511934
vt 0.200729 0.510493
vt 0.200729 0.510493
vt 0.200729 0.510493
vt 0.229168 0.511718
vt 0.200729 0.510493
vt 0.200729 0.510493
vt 0.200729 0.510493
vt 0.168872 0.511934
vt 0.200729 0.510493
vt 0.265502 0.511934
vt 0.265502 0.511934
vt 0.202344 0.511934
vt 0.168872 0.511934
vt 0.202344 0.511934
vt 0.200729 0.510493
vt 0.168872 0.511934
vt 0.200729 0.510493
vt 0.265502 0.511934
vt 0.265502 0.511934
vt 0.202344 0.511934
vt 0.168872 0.511934
vt 0.202344 0.511934
vn -0.923924 0.268663 -0.272368
vn -0.923924 0.268663 -0.272368
vn -0.923924 0.268663 -0.272368
vn -0.923924 0.268663 -0.272368
vn 0.963231 0.268675 0.000000
vn 0.963231 0.268675 0.000000
vn 0.963231 0.268675 0.000000
vn 0.963231 0.268675 0.000000
vn -0.000000 0.147124 -0.989118
vn -0.000000 0.147124 -0.989118
vn -0.000000 0.147124 -0.989118
vn -0.000000 0.147124 -0.989118
vn 0.000004 -0.147122 0.989118
vn 0.000004 -0.147122 0.989118
vn 0.000004 -0.147122 0.989118
vn 0.000004 -0.147122 0.989118
vn 0.288787 -0.946975 -0.140855
vn 0.288787 -0.946975 -0.140855
vn 0.288787 -0.946975 -0.140855
vn 0.288787 -0.946975 -0.140855
vn -0.957392 -0.285650 -0.042488
vn -0.957392 -0.285650 -0.042488
vn -0.957392 -0.285650 -0.042488
vn -0.957392 -0.285650 -0.042488
vn 0.957391 0.285652 0.042489
vn 0.957391 0.285652 0.042489
vn 0.957391 0.285652 0.042489
vn 0.957391 0.285652 0.042489
vn 0.273038 0.105556 -0.956195
vn 0.273038 0.105556 -0.956195
vn 0.273038 0.105556 -0.956195
vn 0.273038 0.105556 -0.956195
vn -0.273031 -0.105559 0.956196
vn -0.273031 -0.105559 0.956196
vn -0.273031 -0.105559 0.956196
vn -0.273031 -0.105559 0.956196
vn -0.260099 -0.948842 -0.179017
vn -0.260099 -0.948842 -0.179017
vn -0.260099 -0.948842 -0.179017
vn -0.260099 -0.948842 -0.179017
vn -0.926176 0.297582 -0.231609
vn -0.926176 0.297582 -0.231609
vn -0.926176 0.297582 -0.231609
vn -0.926176 0.297582 -0.231609
vn 0.926176 -0.297582 0.231611
vn 0.926176 -0.297582 0.231611
vn 0.926176 -0.297582 0.231611
vn 0.926176 -0.297582 0.231611
vn 0.258145 -0.127510 -0.957655
vn 0.258145 -0.127510 -0.957655
vn 0.258145 -0.127510 -0.957655
vn 0.258145 -0.127510 -0.957655
vn -0.258147 0.127510 0.957654
vn -0.258147 0.127510 0.957654
vn -0.258147 0.127510 0.957654
vn -0.258147 0.127510 0.957654
vn -0.326530 -0.944434 0.037731
vn -0.326530 -0.944433 0.037731
vn -0.326530 -0.944433 0.037731
vn -0.326530 -0.944433 0.037731
vn -0.909251 0.302963 -0.285440
vn -0.909251 0.302963 -0.285440
vn -0.909251 0.302963 -0.285440
vn -0.909251 0.302963 -0.285440
vn 0.909254 -0.302963 0.285432
vn 0.909254 -0.302963 0.285432
vn 0.909254 -0.302963 0.285432
vn 0.909254 -0.302963 0.285432
vn 0.000004 -0.229076 -0.973409
vn 0.000004 -0.229076 -0.973409
vn 0.000004 -0.229076 -0.973408
vn 0.000004 -0.229076 -0.973408
vn -0.000004 0.229076 0.973409
vn -0.000004 0.229076 0.973408
vn -0.000004 0.229076 0.973408
vn -0.000004 0.229076 0.973409
vn 0.267343 -0.937977 0.220740
vn 0.267343 -0.937978 0.220740
vn 0.267343 -0.937977 0.220740
vn 0.267343 -0.937978 0.220740
vn -0.963601 -0.260236 0.061243
vn -0.963601 -0.260236 0.061243
vn -0.963601 -0.260236 0.061243
vn -0.963601 -0.260236 0.061243
vn 0.963601 0.260236 -0.061243
vn 0.963601 0.260236 -0.061243
vn 0.963601 0.260236 -0.061243
vn 0.963601 0.260236 -0.061243
vn 0.000000 0.000000 1.000000
vn 0.000000 0.000000 1.000000
vn 0.000000 0.000000 1.000000
vn 0.000000 0.000000 1.000000
vn -0.485159 0.860975 -0.152781
vn -0.485159 0.860976 -0.152781
vn -0.485159 0.860976 -0.152781
vn -0.485159 0.860975 -0.152781
vn -0.000003 0.000005 -1.000000
vn -0.000003 0.000005 -1.000000
vn -0.000003 0.000005 -1.000000
vn -0.000003 0.000005 -1.000000
vn 0.480969 -0.863556 0.151462
vn 0.480969 -0.863556 0.151462
vn 0.480969 -0.863556 0.151462
vn 0.480969 -0.863556 0.151462
vn 0.377411 0.919688 0.108333
vn 0.377411 0.919688 0.108333
vn 0.377411 0.919688 0.108333
vn 0.377411 0.919688 0.108333
vn -0.282762 -0.000003 0.959190
vn -0.282762 -0.000003 0.959190
vn -0.282762 -0.000003 0.959190
vn -0.282762 -0.000003 0.959190
vn -0.369087 -0.923337 -0.105943
vn -0.369087 -0.923337 -0.105943
vn -0.369087 -0.923337 -0.105943
vn -0.369087 -0.923337 -0.105943
vn 0.281290 0.000402 -0.959623
vn 0.281290 0.000402 -0.959623
vn 0.281290 0.000402 -0.959623
vn 0.281290 0.000402 -0.959623
vn -0.843420 -0.214278 -0.492673
vn -0.843420 -0.214278 -0.492673
vn -0.843420 -0.214278 -0.492673
vn -0.843420 -0.214278 -0.492673
vn 0.937989 -0.228196 0.260965
vn 0.937989 -0.228196 0.260965
vn 0.937989 -0.228196 0.260965
vn 0.937989 -0.228196 0.260965
vn 0.749367 -0.210120 0.627932
vn 0.749367 -0.210120 0.627932
vn 0.749367 -0.210120 0.627932
vn 0.749367 -0.210120 0.627932
vn 0.331016 0.925104 0.186042
vn 0.331016 0.925104 0.186042
vn 0.331016 0.925104 0.186042
vn 0.331016 0.925104 0.186042
vn -0.923926 0.268658 -0.272365
vn -0.923926 0.268658 -0.272365
vn -0.923926 0.268658 -0.272365
vn -0.923926 0.268658 -0.272365
vn -0.323741 -0.928485 -0.181953
vn -0.323741 -0.928485 -0.181953
vn -0.323741 -0.928485 -0.181953
vn -0.323741 -0.928485 -0.181953
vn -0.969125 -0.246218 -0.013187
vn -0.969125 -0.246218 -0.013187
vn -0.969125 -0.246218 -0.013187
vn -0.969125 -0.246218 -0.013187
vn -0.445349 0.895353 -0.002706
vn -0.445349 0.895353 -0.002706
vn -0.445349 0.895353 -0.002706
vn -0.445349 0.895353 -0.002706
vn 0.963231 0.268675 0.000000
vn 0.963231 0.268675 0.000000
vn 0.963231 0.268675 0.000000
vn 0.963231 0.268675 0.000000
vn 0.441370 -0.897321 0.002682
vn 0.441370 -0.897321 0.002682
vn 0.441370 -0.897321 0.002682
vn 0.441370 -0.897321 0.002682
s off
f 51/134/1 52/136/2 8/14/3 6/15/4
f 55/142/5 56/144/6 1/18/7 3/19/8
f 9/25/9 10/26/10 12/27/11 11/28/12
f 13/29/13 14/30/14 16/31/15 15/32/16
f 15/33/17 16/34/18 10/35/19 9/36/20
f 10/37/21 16/38/22 14/39/23 12/40/24
f 15/41/25 9/42/26 11/43/27 13/44/28
f 17/45/29 18/46/30 20/47/31 19/48/32
f 21/49/33 22/50/34 24/51/35 23/52/36
f 23/53/37 24/54/38 18/55/39 17/56/40
f 18/57/41 24/58/42 22/59/43 20/60/44
f 23/61/45 17/62/46 19/63/47 21/64/48
f 25/65/49 26/66/50 28/67/51 27/68/52
f 29/69/53 30/70/54 32/71/55 31/72/56
f 31/73/57 32/74/58 26/75/59 25/76/60
f 26/77/61 32/78/62 30/79/63 28/80/64
f 31/81/65 25/82/66 27/83/67 29/84/68
f 33/85/69 34/86/70 36/87/71 35/88/72
f 37/89/73 38/90/74 40/91/75 39/92/76
f 39/93/77 40/94/78 34/95/79 33/96/80
f 34/97/81 40/98/82 38/99/83 36/100/84
f 39/101/85 33/102/86 35/103/87 37/104/88
f 42/108/89 41/126/90 7/23/91 5/24/92
f 3/5/93 43/110/94 54/140/95 55/141/96
f 1/1/97 44/111/98 43/109/99 3/4/100
f 56/143/101 53/138/102 44/112/103 1/12/104
f 46/115/105 50/132/106 51/133/107 6/7/108
f 6/21/109 8/22/110 47/118/111 46/116/112
f 52/135/113 49/130/114 47/117/115 8/10/116
f 45/113/117 48/119/118 2/2/119 4/3/120
f 53/137/121 54/139/122 43/127/123 44/125/124
f 46/124/125 47/123/126 49/129/127 50/131/128
f 50/131/129 49/129/130 48/121/131 45/114/132
f 51/133/133 50/132/134 45/122/135 4/6/136
f 2/13/137 52/136/138 51/134/139 4/16/140
f 48/120/141 49/130/142 52/135/143 2/11/144
f 42/128/145 54/139/146 53/137/147 41/106/148
f 55/141/149 54/140/150 42/107/151 5/8/152
f 7/17/153 56/144/154 55/142/155 5/20/156
f 7/9/157 41/105/158 53/138/159 56/143/160
