# This file uses meters as units for non-parametric coordinates.

v -0.713718 1.589269 0.039781
v 0.713718 1.589269 0.039781
v -0.713718 1.589269 -0.039781
v 0.713718 1.589269 -0.039781
v -0.000001 1.589269 0.039781
v -0.000001 1.589269 -0.039781
v -0.000001 1.482702 0.039781
v -0.636307 1.482702 0.039781
v 0.636312 1.482702 0.039781
v -0.713718 0.071979 -0.039781
v -0.713718 0.075506 0.039781
v -0.636307 0.068672 0.039781
v -0.043413 -0.393137 0.039781
v -0.466444 -0.138558 0.039781
v -0.218871 -1.589269 0.039781
v 0.636312 -0.049290 0.039781
v 0.713718 -0.045939 0.039781
v 0.713718 -0.050724 -0.039781
v 0.277528 -1.061700 0.039781
v 0.373329 -0.214005 0.039781
v -0.339806 -1.539904 0.039781
v -0.556795 -0.156654 0.039781
v 0.168339 -1.050275 0.039781
v 0.051675 -0.417073 0.039781
v -0.636307 0.068672 -0.039781
v -0.556795 -0.156654 -0.039781
v -0.466444 -0.138558 -0.039781
v -0.339806 -1.539904 -0.039781
v -0.218871 -1.589269 -0.039781
v -0.043413 -0.393137 -0.039781
v 0.051675 -0.417073 -0.039781
v 0.277528 -1.061700 -0.039781
v 0.373329 -0.214005 -0.039781
v 0.636312 -0.049290 -0.039781
v 0.168339 -1.050275 -0.039781
vt 0.607032 0.368315
vt 0.607032 0.368315
vt 0.638644 0.368315
vt 0.638644 0.368315
vt 0.638644 0.368315
vt 0.638644 0.368315
vt 0.575946 0.368315
vt 0.575946 0.368315
vt 0.575946 0.368315
vt 0.575946 0.368315
vt 0.607032 0.368315
vt 0.638644 0.368315
vt 0.638644 0.368315
vt 0.607032 0.368315
vt 0.607032 0.368315
vt 0.607032 0.368315
vt 0.473039 0.835087
vt 0.607032 0.368315
vt 0.607032 0.368315
vt 0.473039 0.835087
vt 0.607032 0.368315
vt 0.607032 0.368315
vt 0.473039 0.835087
vt 0.607032 0.368315
vt 0.638644 0.368315
vt 0.607032 0.368315
vt 0.638644 0.368315
vt 0.575946 0.368315
vt 0.607032 0.368315
vt 0.575946 0.368315
vt 0.473039 0.835087
vt 0.607032 0.368315
vt 0.473039 0.835087
vt 0.473039 0.835087
vt 0.473039 0.835087
vt 0.473039 0.835087
vt 0.607032 0.368315
vt 0.607032 0.368315
vt 0.575946 0.368315
vt 0.575946 0.368315
vt 0.473039 0.835087
vt 0.473039 0.835087
vt 0.473039 0.835087
vt 0.473039 0.835087
vt 0.473039 0.835087
vt 0.473039 0.835087
vt 0.579052 0.529356
vt 0.579052 0.529356
vt 0.579052 0.529356
vt 0.579052 0.529356
vt 0.579052 0.529356
vt 0.579052 0.529356
vt 0.579052 0.529356
vt 0.579052 0.529356
vt 0.579052 0.529356
vt 0.579052 0.529356
vt 0.579052 0.529356
vt 0.579052 0.529356
vt 0.579052 0.529356
vt 0.579052 0.529356
vt 0.579052 0.529356
vt 0.579052 0.529356
vt 0.579052 0.529356
vt 0.579052 0.529356
vt 0.579052 0.529356
vt 0.579052 0.529356
vt 0.579052 0.529356
vt 0.579052 0.529356
vt 0.579052 0.529356
vt 0.579052 0.529356
vt 0.579052 0.529356
vt 0.579052 0.529356
vn 0.000001 0.000000 1.000000
vn 0.000001 -0.000000 1.000000
vn 0.000000 0.000000 1.000000
vn -0.000000 -0.000000 1.000000
vn -0.000000 -0.000000 1.000000
vn -0.000000 -0.000000 1.000000
vn -0.000000 -0.000000 1.000000
vn -0.000000 -0.000000 1.000000
vn -0.000000 -0.000000 1.000000
vn -0.000000 -0.000000 1.000000
vn -0.000000 -0.000000 1.000000
vn -0.000000 -0.000000 1.000000
vn 0.000001 -0.000000 1.000000
vn -0.000000 -0.000000 1.000000
vn 0.000000 0.000000 1.000000
vn -0.000000 -0.000000 1.000000
vn -0.000000 -0.000000 1.000000
vn 0.000000 0.000000 1.000000
vn 0.000000 1.000000 0.000000
vn 0.000000 1.000000 0.000000
vn 0.000000 1.000000 0.000000
vn 0.000000 1.000000 0.000000
vn 1.000000 0.000000 0.000000
vn 1.000000 0.000000 0.000000
vn 1.000000 0.000000 0.000000
vn 1.000000 0.000000 0.000000
vn -1.000000 -0.000000 0.000000
vn -1.000000 -0.000000 0.000000
vn -1.000000 0.000000 0.000000
vn -1.000000 0.000000 0.000000
vn 0.000000 0.000000 1.000000
vn -0.000000 -0.000000 1.000000
vn -0.000000 -0.000000 1.000000
vn 0.000000 -0.000000 1.000000
vn 0.000000 -0.000000 1.000000
vn 0.000000 -0.000000 1.000000
vn 0.000000 -0.000000 1.000000
vn 0.000000 -0.000000 1.000000
vn 0.000000 -0.000000 1.000000
vn -0.000000 -0.000000 1.000000
vn -0.000000 -0.000000 1.000000
vn 0.000000 -0.000000 1.000000
vn -0.000000 -0.000000 1.000000
vn 0.000000 -0.000000 1.000000
vn -0.000000 -0.000000 1.000000
vn -0.000000 -0.000000 1.000000
vn 0.000000 -0.000000 1.000000
vn 0.000000 -0.000000 1.000000
vn 0.000000 1.000000 0.000000
vn 0.000000 1.000000 0.000000
vn 0.000000 1.000000 0.000000
vn 0.000000 1.000000 0.000000
vn 0.000000 0.000000 1.000000
vn 0.000000 0.000000 1.000000
vn 0.000000 0.000000 1.000000
vn 0.000000 0.000000 1.000000
vn -0.000000 0.000000 1.000000
vn -0.000000 0.000000 1.000000
vn -0.000000 0.000000 1.000000
vn 0.000000 0.000000 1.000000
vn 0.000000 0.000000 1.000000
vn 0.000000 0.000000 1.000000
vn 0.000000 0.000000 1.000000
vn 0.000000 0.000000 1.000000
vn 0.000000 0.000000 1.000000
vn 0.000000 0.000000 1.000000
vn 0.000000 0.000000 1.000000
vn 0.000000 0.000000 1.000000
vn -0.065344 -0.997618 0.022113
vn -0.065344 -0.997618 0.022113
vn -0.065344 -0.997618 0.022113
vn -0.065344 -0.997618 0.022113
vn -0.943010 -0.332765 0.000000
vn -0.943010 -0.332765 0.000000
vn -0.943010 -0.332765 0.000000
vn -0.943010 -0.332765 0.000000
vn -0.995942 -0.090002 0.000000
vn -0.995942 -0.090002 0.000000
vn -0.995942 -0.090002 0.000000
vn -0.995942 -0.090002 0.000000
vn 0.989412 -0.145134 0.000000
vn 0.989412 -0.145134 0.000000
vn 0.989412 -0.145134 0.000000
vn 0.989412 -0.145134 0.000000
vn -0.244111 -0.969747 0.000000
vn -0.244111 -0.969747 0.000000
vn -0.244111 -0.969747 0.000000
vn -0.244111 -0.969747 0.000000
vn 0.993675 -0.112299 0.000000
vn 0.993675 -0.112299 0.000000
vn 0.993675 -0.112299 0.000000
vn 0.993675 -0.112299 0.000000
vn 0.530811 -0.847490 0.000000
vn 0.530811 -0.847490 0.000000
vn 0.530811 -0.847490 0.000000
vn 0.530811 -0.847490 0.000000
vn 0.012382 -0.999472 0.030052
vn 0.012382 -0.999472 0.030052
vn 0.012382 -0.999472 0.030052
vn 0.012382 -0.999472 0.030052
vn -0.377921 -0.925838 0.000000
vn -0.377921 -0.925838 0.000000
vn -0.377921 -0.925838 0.000000
vn -0.377921 -0.925838 0.000000
vn 0.196385 -0.980527 0.000000
vn 0.196385 -0.980527 0.000000
vn 0.196385 -0.980527 0.000000
vn 0.196385 -0.980527 0.000000
vn -0.104069 -0.994570 0.000000
vn -0.104069 -0.994570 0.000000
vn -0.104069 -0.994570 0.000000
vn -0.104069 -0.994570 0.000000
vn -0.983447 -0.181195 0.000000
vn -0.983447 -0.181195 0.000000
vn -0.983447 -0.181195 0.000000
vn -0.983447 -0.181195 0.000000
s off
f 12/31/1 22/44/2 8/20/3
f 15/35/4 13/33/5 21/43/6
f 21/43/7 13/33/8 14/34/9
f 13/33/10 7/17/11 14/34/12
f 22/44/13 14/34/14 8/20/15
f 14/34/16 7/17/17 8/20/18
f 1/3/19 5/12/20 6/27/21 3/6/22
f 17/39/23 18/40/24 4/7/25 2/8/26
f 10/28/27 11/30/28 1/9/29 3/10/30
f 9/23/31 7/17/32 16/36/33
f 19/41/34 20/42/35 23/45/36
f 23/45/37 20/42/38 24/46/39
f 16/36/40 7/17/41 20/42/42
f 13/33/43 24/46/44 7/17/45
f 7/17/46 24/46/47 20/42/48
f 6/13/49 5/25/50 2/4/51 4/5/52
f 5/11/53 1/24/54 8/22/55 7/18/56
f 1/2/57 11/29/58 12/32/59 8/14/60
f 16/37/61 17/38/62 2/21/63 9/16/64
f 2/1/65 5/26/66 7/19/67 9/15/68
f 12/47/69 11/48/70 10/49/71 25/50/72
f 22/51/73 12/47/74 25/50/75 26/52/76
f 21/53/77 14/54/78 27/55/79 28/56/80
f 13/57/81 15/58/82 29/59/83 30/60/84
f 24/61/85 13/57/86 30/60/87 31/62/88
f 20/63/89 19/64/90 32/65/91 33/66/92
f 16/67/93 20/63/94 33/66/95 34/68/96
f 17/69/97 16/67/98 34/68/99 18/70/100
f 15/58/101 21/53/102 28/56/103 29/59/104
f 14/54/105 22/51/106 26/52/107 27/55/108
f 19/64/109 23/71/110 35/72/111 32/65/112
f 23/71/113 24/61/114 31/62/115 35/72/116
