# This file uses meters as units for non-parametric coordinates.

v -0.419329 0.000000 0.419326
v 0.419325 0.000000 0.419326
v -0.419329 0.000000 -0.419326
v 0.419325 0.000000 -0.419326
v 0.419325 1.593049 0.419326
v -0.419329 1.593049 0.419326
v -0.419329 1.593049 -0.419326
v 0.419325 1.593049 -0.419326
v -0.419329 0.281126 -0.419326
v -0.419329 0.281126 0.419326
v 0.419325 0.281126 0.419326
v 0.419325 0.281126 -0.419326
v 0.334377 0.352440 0.334378
v -0.334381 0.352440 0.334378
v -0.334381 0.352440 -0.334378
v 0.334377 0.352440 -0.334378
v -0.334381 1.521735 -0.334378
v -0.334381 1.521735 0.334378
v 0.334377 1.521735 0.334378
v 0.334377 1.521735 -0.334378
v 0.334377 0.433017 0.334378
v -0.334381 0.433017 0.334378
v -0.334381 0.433017 -0.334378
v 0.334377 0.433017 -0.334378
v -0.334381 1.441158 0.334378
v -0.334381 1.441158 -0.334378
v 0.334377 1.441158 0.334378
v 0.334377 1.441158 -0.334378
v 0.225496 0.500538 0.225498
v -0.225502 0.500538 0.225498
v -0.225502 0.500538 -0.225498
v 0.225496 0.500538 -0.225498
v -0.225502 1.373637 0.225498
v -0.225502 1.373637 -0.225498
v 0.225496 1.373637 0.225498
v 0.225496 1.373637 -0.225498
v 0.225496 0.621470 0.225498
v -0.225502 0.621470 0.225498
v -0.225502 0.621470 -0.225498
v 0.225496 0.621470 -0.225498
v -0.225502 1.252705 0.225498
v -0.225502 1.252705 -0.225498
v 0.225496 1.252705 0.225498
v 0.225496 1.252705 -0.225498
v 0.185387 0.621470 0.185391
v -0.185394 0.621470 0.185391
v 0.185387 0.937087 0.185391
v -0.185394 0.937087 0.185391
v -0.185394 0.621470 -0.185391
v -0.185394 0.937087 -0.185391
v 0.185387 0.937087 -0.185391
v 0.185387 0.621470 -0.185391
v -0.185394 1.252705 0.185391
v -0.185394 1.252705 -0.185391
v 0.185387 1.252705 0.185391
v 0.185387 1.252705 -0.185391
v 0.419325 1.715546 0.419326
v -0.419329 1.715546 0.419326
v -0.419329 1.715546 -0.419326
v 0.419325 1.715546 -0.419326
v 0.290083 1.894375 0.290085
v -0.290089 1.894375 0.290085
v 0.290083 1.894375 -0.290085
v -0.290089 1.894375 -0.290085
v 0.290083 1.715546 0.290085
v -0.290089 1.715546 0.290085
v -0.290089 1.715546 -0.290085
v 0.290083 1.715546 -0.290085
v 0.173103 1.894375 0.173108
v -0.173111 1.894375 0.173108
v 0.173103 1.894375 -0.173108
v -0.173111 1.894375 -0.173108
v 0.173103 1.715546 0.173108
v -0.173111 1.715546 0.173108
v 0.173103 1.715546 -0.173108
v -0.173111 1.715546 -0.173108
vt 0.328122 0.063783
vt 0.328122 0.063783
vt 0.328122 0.063783
vt 0.328122 0.063783
vt 0.358580 0.063783
vt 0.358580 0.063783
vt 0.358580 0.063783
vt 0.362427 0.058707
vt 0.328122 0.063783
vt 0.328122 0.063783
vt 0.328122 0.063783
vt 0.328122 0.063783
vt 0.264758 0.063783
vt 0.264758 0.063783
vt 0.264758 0.063783
vt 0.264758 0.063783
vt 0.298348 0.063783
vt 0.298348 0.063783
vt 0.298348 0.063783
vt 0.298348 0.063783
vt 0.298348 0.063783
vt 0.298348 0.063783
vt 0.298348 0.063783
vt 0.298348 0.063783
vt 0.328122 0.063783
vt 0.298348 0.063783
vt 0.328122 0.063783
vt 0.298348 0.063783
vt 0.328122 0.063783
vt 0.298348 0.063783
vt 0.328122 0.063783
vt 0.298348 0.063783
vt 0.294314 0.063783
vt 0.298348 0.063783
vt 0.328122 0.063783
vt 0.298348 0.063783
vt 0.294314 0.063783
vt 0.298348 0.063783
vt 0.328122 0.063783
vt 0.298348 0.063783
vt 0.360240 0.063783
vt 0.330466 0.063783
vt 0.360240 0.063783
vt 0.298348 0.063783
vt 0.328122 0.063783
vt 0.298348 0.063783
vt 0.360240 0.063783
vt 0.298348 0.063783
vt 0.360240 0.063783
vt 0.298348 0.063783
vt 0.328122 0.063783
vt 0.330466 0.063783
vt 0.360240 0.063783
vt 0.298348 0.063783
vt 0.328122 0.063783
vt 0.330466 0.063783
vt 0.328122 0.063783
vt 0.264540 0.063783
vt 0.294314 0.063783
vt 0.298348 0.063783
vt 0.328122 0.063783
vt 0.264540 0.063783
vt 0.294314 0.063783
vt 0.298348 0.063783
vt 0.359288 0.060382
vt 0.328122 0.063783
vt 0.359288 0.060382
vt 0.298348 0.063783
vt 0.359288 0.060382
vt 0.328122 0.063783
vt 0.359288 0.060382
vt 0.298348 0.063783
vt 0.298348 0.063783
vt 0.298348 0.063783
vt 0.328122 0.063783
vt 0.328122 0.063783
vt 0.298348 0.063783
vt 0.298348 0.063783
vt 0.328122 0.063783
vt 0.328122 0.063783
vt 0.296849 0.063783
vt 0.359288 0.060382
vt 0.267076 0.063783
vt 0.359288 0.060382
vt 0.296849 0.063783
vt 0.359288 0.060382
vt 0.267076 0.063783
vt 0.359288 0.060382
vt 0.267076 0.063783
vt 0.298348 0.063783
vt 0.296849 0.063783
vt 0.328122 0.063783
vt 0.267075 0.063783
vt 0.298348 0.063783
vt 0.296849 0.063783
vt 0.328122 0.063783
vt 0.328122 0.063783
vt 0.296849 0.063783
vt 0.298348 0.063783
vt 0.267076 0.063783
vt 0.328122 0.063783
vt 0.296849 0.063783
vt 0.298348 0.063783
vt 0.267075 0.063783
vt 0.359288 0.060382
vt 0.267076 0.063783
vt 0.359288 0.060382
vt 0.296849 0.063783
vt 0.359288 0.060382
vt 0.267076 0.063783
vt 0.359288 0.060382
vt 0.296849 0.063783
vt 0.328122 0.063783
vt 0.328122 0.063783
vt 0.298348 0.063783
vt 0.298348 0.063783
vt 0.328122 0.063783
vt 0.328122 0.063783
vt 0.298348 0.063783
vt 0.298348 0.063783
vt 0.298348 0.063783
vt 0.359288 0.060382
vt 0.328122 0.063783
vt 0.328122 0.063783
vt 0.298348 0.063783
vt 0.298348 0.063783
vt 0.359288 0.060382
vt 0.328122 0.063783
vt 0.359288 0.060382
vt 0.359288 0.060382
vt 0.298348 0.063783
vt 0.328122 0.063783
vt 0.359288 0.060382
vt 0.359288 0.060382
vt 0.267075 0.063783
vt 0.359288 0.060382
vt 0.359288 0.060382
vt 0.359288 0.060382
vt 0.296849 0.063783
vt 0.359288 0.060382
vt 0.296849 0.063783
vt 0.359288 0.060382
vt 0.267076 0.063783
vt 0.359288 0.060382
vt 0.359288 0.060382
vt 0.267075 0.063783
vt 0.359288 0.060382
vt 0.296849 0.063783
vt 0.359288 0.060382
vt 0.296849 0.063783
vt 0.328122 0.063783
vt 0.359288 0.060382
vt 0.359288 0.060382
vt 0.267076 0.063783
vt 0.298348 0.063783
vt 0.359288 0.060382
vt 0.328122 0.063783
vt 0.359288 0.060382
vt 0.298348 0.063783
vt 0.359288 0.060382
vt 0.360240 0.063783
vt 0.298348 0.063783
vt 0.330466 0.063783
vt 0.328122 0.063783
vt 0.330466 0.063783
vt 0.328122 0.063783
vt 0.360240 0.063783
vt 0.298348 0.063783
vt 0.328122 0.063783
vt 0.330466 0.063783
vt 0.328122 0.063783
vt 0.330466 0.063783
vt 0.298348 0.063783
vt 0.328122 0.063783
vt 0.360240 0.063783
vt 0.330466 0.063783
vt 0.264540 0.063783
vt 0.328122 0.063783
vt 0.294314 0.063783
vt 0.298348 0.063783
vt 0.294314 0.063783
vt 0.298348 0.063783
vt 0.264540 0.063783
vt 0.328122 0.063783
vt 0.328122 0.063783
vt 0.264540 0.063783
vt 0.328122 0.063783
vt 0.264540 0.063783
vt 0.294314 0.063783
vt 0.264540 0.063783
vt 0.294314 0.063783
vt 0.264540 0.063783
vt 0.298348 0.063783
vt 0.296849 0.063783
vt 0.328122 0.063783
vt 0.267076 0.063783
vt 0.328122 0.063783
vt 0.267076 0.063783
vt 0.298348 0.063783
vt 0.296849 0.063783
vt 0.296849 0.063783
vt 0.298348 0.063783
vt 0.267076 0.063783
vt 0.328122 0.063783
vt 0.267076 0.063783
vt 0.328122 0.063783
vt 0.296849 0.063783
vt 0.298348 0.063783
vt 0.328122 0.063783
vt 0.362427 0.058707
vt 0.362427 0.058707
vt 0.298348 0.063783
vt 0.328122 0.063783
vt 0.362427 0.058707
vt 0.362427 0.058707
vt 0.298348 0.063783
vt 0.328122 0.063783
vt 0.362427 0.058707
vt 0.298348 0.063783
vt 0.298348 0.063783
vt 0.328122 0.063783
vt 0.328122 0.063783
vt 0.362427 0.058707
vt 0.298348 0.063783
vt 0.267117 0.063783
vt 0.235829 0.063783
vt 0.267117 0.063783
vt 0.235829 0.063783
vt 0.294729 0.063783
vt 0.235829 0.063783
vt 0.267117 0.063783
vt 0.235829 0.063783
vt 0.362427 0.058707
vt 0.362427 0.058707
vt 0.358580 0.063783
vt 0.362427 0.058707
vt 0.362427 0.058707
vt 0.362427 0.058707
vt 0.328122 0.063783
vt 0.298348 0.063783
vt 0.362427 0.058707
vt 0.362427 0.058707
vt 0.328122 0.063783
vt 0.362427 0.058707
vt 0.362427 0.058707
vt 0.362427 0.058707
vt 0.298348 0.063783
vt 0.362427 0.058707
vt 0.328122 0.063783
vt 0.362427 0.058707
vt 0.298348 0.063783
vt 0.362427 0.058707
vt 0.267117 0.063783
vt 0.235829 0.063783
vt 0.358580 0.063783
vt 0.267117 0.063783
vt 0.235829 0.063783
vt 0.235829 0.063783
vt 0.235829 0.063783
vt 0.358580 0.063783
vt 0.294729 0.063783
vt 0.267117 0.063783
vt 0.294728 0.063783
vt 0.267117 0.063783
vt 0.294728 0.063783
vt 0.358580 0.063783
vt 0.358580 0.063783
vt 0.267117 0.063783
vn 0.000000 0.765895 0.642966
vn 0.000000 0.765895 0.642966
vn 0.000000 0.765895 0.642966
vn 0.000000 0.765895 0.642966
vn 0.000000 1.000000 0.000000
vn 0.000000 1.000000 0.000000
vn 0.000000 1.000000 0.000000
vn 0.000000 1.000000 0.000000
vn 0.000000 0.765895 -0.642966
vn 0.000000 0.765895 -0.642966
vn 0.000000 0.765895 -0.642966
vn 0.000000 0.765895 -0.642966
vn 0.000000 -1.000000 0.000000
vn 0.000000 -1.000000 0.000000
vn 0.000000 -1.000000 0.000000
vn 0.000000 -1.000000 0.000000
vn 0.642968 0.765893 0.000000
vn 0.642968 0.765893 0.000000
vn 0.642968 0.765893 0.000000
vn 0.642968 0.765893 0.000000
vn -0.642968 0.765893 0.000000
vn -0.642968 0.765893 0.000000
vn -0.642968 0.765893 0.000000
vn -0.642968 0.765893 0.000000
vn 0.000000 -0.765894 0.642967
vn 0.000000 -0.765894 0.642967
vn 0.000000 -0.765894 0.642967
vn 0.000000 -0.765894 0.642967
vn -0.642969 -0.765892 0.000000
vn -0.642969 -0.765892 0.000000
vn -0.642969 -0.765892 0.000000
vn -0.642969 -0.765892 0.000000
vn 0.000000 -0.765894 -0.642967
vn 0.000000 -0.765894 -0.642967
vn 0.000000 -0.765894 -0.642967
vn 0.000000 -0.765894 -0.642967
vn 0.642970 -0.765892 0.000000
vn 0.642970 -0.765892 0.000000
vn 0.642970 -0.765892 0.000000
vn 0.642970 -0.765892 0.000000
vn 0.000000 0.000000 1.000000
vn 0.000000 0.000000 1.000000
vn 0.000000 0.000000 1.000000
vn 0.000000 0.000000 1.000000
vn -1.000000 0.000000 0.000000
vn -1.000000 0.000000 0.000000
vn -1.000000 0.000000 0.000000
vn -1.000000 0.000000 0.000000
vn 0.000000 0.000000 -1.000000
vn 0.000000 0.000000 -1.000000
vn 0.000000 0.000000 -1.000000
vn 0.000000 0.000000 -1.000000
vn 1.000000 0.000000 0.000000
vn 1.000000 0.000000 0.000000
vn 1.000000 0.000000 0.000000
vn 1.000000 0.000000 0.000000
vn -1.000000 0.000000 0.000000
vn -1.000000 0.000000 0.000000
vn -1.000000 0.000000 0.000000
vn -1.000000 0.000000 0.000000
vn 0.000000 0.000000 1.000000
vn 0.000000 0.000000 1.000000
vn 0.000000 0.000000 1.000000
vn 0.000000 0.000000 1.000000
vn 1.000000 0.000000 0.000000
vn 1.000000 0.000000 0.000000
vn 1.000000 0.000000 0.000000
vn 1.000000 0.000000 0.000000
vn 0.000000 0.000000 -1.000000
vn 0.000000 0.000000 -1.000000
vn 0.000000 0.000000 -1.000000
vn 0.000000 0.000000 -1.000000
vn 0.000000 0.000000 1.000000
vn 0.000000 0.000000 1.000000
vn 0.000000 0.000000 1.000000
vn 0.000000 0.000000 1.000000
vn -1.000000 0.000000 0.000000
vn -1.000000 0.000000 0.000000
vn -1.000000 0.000000 0.000000
vn -1.000000 0.000000 0.000000
vn 0.000000 0.000000 -1.000000
vn 0.000000 0.000000 -1.000000
vn 0.000000 0.000000 -1.000000
vn 0.000000 0.000000 -1.000000
vn 1.000000 0.000000 0.000000
vn 1.000000 0.000000 0.000000
vn 1.000000 0.000000 0.000000
vn 1.000000 0.000000 0.000000
vn -1.000000 0.000000 0.000000
vn -1.000000 0.000000 0.000000
vn -1.000000 0.000000 0.000000
vn -1.000000 0.000000 0.000000
vn 0.000000 0.000000 1.000000
vn 0.000000 0.000000 1.000000
vn 0.000000 0.000000 1.000000
vn 0.000000 0.000000 1.000000
vn 1.000000 0.000000 0.000000
vn 1.000000 0.000000 0.000000
vn 1.000000 0.000000 0.000000
vn 1.000000 0.000000 0.000000
vn 0.000000 0.000000 -1.000000
vn 0.000000 0.000000 -1.000000
vn 0.000000 0.000000 -1.000000
vn 0.000000 0.000000 -1.000000
vn 0.000000 0.000000 1.000000
vn 0.000000 0.000000 1.000000
vn 0.000000 0.000000 1.000000
vn 0.000000 0.000000 1.000000
vn -1.000000 0.000000 0.000000
vn -1.000000 0.000000 0.000000
vn -1.000000 0.000000 0.000000
vn -1.000000 0.000000 0.000000
vn 0.000000 0.000000 -1.000000
vn 0.000000 0.000000 -1.000000
vn 0.000000 0.000000 -1.000000
vn 0.000000 0.000000 -1.000000
vn 1.000000 0.000000 0.000000
vn 1.000000 0.000000 0.000000
vn 1.000000 0.000000 0.000000
vn 1.000000 0.000000 0.000000
vn -1.000000 0.000000 0.000000
vn -1.000000 0.000000 0.000000
vn -1.000000 0.000000 0.000000
vn -1.000000 0.000000 0.000000
vn 0.000000 0.000000 1.000000
vn 0.000000 0.000000 1.000000
vn 0.000000 0.000000 1.000000
vn 0.000000 0.000000 1.000000
vn 1.000000 0.000000 0.000000
vn 1.000000 0.000000 0.000000
vn 1.000000 0.000000 0.000000
vn 1.000000 0.000000 0.000000
vn 0.000000 0.000000 -1.000000
vn 0.000000 0.000000 -1.000000
vn 0.000000 0.000000 -1.000000
vn 0.000000 0.000000 -1.000000
vn 0.000000 0.849849 0.527026
vn 0.000000 0.849849 0.527026
vn 0.000000 0.849849 0.527026
vn 0.000000 0.849849 0.527026
vn -0.527029 0.849848 0.000000
vn -0.527029 0.849848 0.000000
vn -0.527029 0.849848 0.000000
vn -0.527029 0.849848 0.000000
vn 0.000000 0.849849 -0.527026
vn 0.000000 0.849849 -0.527026
vn 0.000000 0.849849 -0.527026
vn 0.000000 0.849849 -0.527026
vn 0.527022 0.849852 0.000000
vn 0.527022 0.849852 0.000000
vn 0.527022 0.849852 0.000000
vn 0.527022 0.849852 0.000000
vn -0.527029 -0.849847 0.000000
vn -0.527029 -0.849847 0.000000
vn -0.527029 -0.849847 0.000000
vn -0.527029 -0.849847 0.000000
vn 0.000000 -0.849849 0.527026
vn 0.000000 -0.849849 0.527026
vn 0.000000 -0.849849 0.527026
vn 0.000000 -0.849849 0.527026
vn 0.527022 -0.849852 0.000000
vn 0.527022 -0.849852 0.000000
vn 0.527022 -0.849851 0.000000
vn 0.527022 -0.849851 0.000000
vn 0.000000 -0.849849 -0.527026
vn 0.000000 -0.849849 -0.527026
vn 0.000000 -0.849849 -0.527026
vn 0.000000 -0.849849 -0.527026
vn 0.000000 0.000000 1.000000
vn 0.000000 0.000000 1.000000
vn 0.000000 0.000000 1.000000
vn 0.000000 0.000000 1.000000
vn -1.000000 0.000000 0.000000
vn -1.000000 0.000000 0.000000
vn -1.000000 0.000000 0.000000
vn -1.000000 0.000000 0.000000
vn 0.000000 0.000000 -1.000000
vn 0.000000 0.000000 -1.000000
vn 0.000000 0.000000 -1.000000
vn 0.000000 0.000000 -1.000000
vn 1.000000 0.000000 0.000000
vn 1.000000 0.000000 0.000000
vn 1.000000 0.000000 0.000000
vn 1.000000 0.000000 0.000000
vn -1.000000 0.000000 0.000000
vn -1.000000 0.000000 0.000000
vn -1.000000 0.000000 0.000000
vn -1.000000 0.000000 0.000000
vn 0.000000 0.000000 1.000000
vn 0.000000 0.000000 1.000000
vn 0.000000 0.000000 1.000000
vn 0.000000 0.000000 1.000000
vn 1.000000 0.000000 0.000000
vn 1.000000 0.000000 0.000000
vn 1.000000 0.000000 0.000000
vn 1.000000 0.000000 0.000000
vn 0.000000 0.000000 -1.000000
vn 0.000000 0.000000 -1.000000
vn 0.000000 0.000000 -1.000000
vn 0.000000 0.000000 -1.000000
vn 0.000000 1.000000 0.000001
vn 0.000000 1.000000 0.000001
vn 0.000000 1.000000 0.000001
vn 0.000000 1.000000 0.000001
vn 0.000000 1.000000 0.000000
vn 0.000000 1.000000 0.000000
vn 0.000000 1.000000 0.000000
vn 0.000000 1.000000 0.000000
vn 0.000000 1.000000 -0.000001
vn 0.000000 1.000000 -0.000001
vn 0.000000 1.000000 -0.000001
vn 0.000000 1.000000 -0.000001
vn 0.000000 1.000000 0.000000
vn 0.000000 1.000000 0.000000
vn 0.000000 1.000000 0.000000
vn 0.000000 1.000000 0.000000
vn 0.000000 -1.000000 0.000000
vn 0.000000 -1.000000 0.000000
vn 0.000000 -1.000000 0.000000
vn 0.000000 -1.000000 0.000000
vn 0.000000 -1.000000 0.000001
vn 0.000000 -1.000000 0.000001
vn 0.000000 -1.000000 0.000001
vn 0.000000 -1.000000 0.000001
vn 0.000000 -1.000000 0.000000
vn 0.000000 -1.000000 0.000000
vn 0.000000 -1.000000 0.000000
vn 0.000000 -1.000000 0.000000
vn 0.000000 -1.000000 -0.000001
vn 0.000000 -1.000000 -0.000001
vn 0.000000 -1.000000 -0.000001
vn 0.000000 -1.000000 -0.000001
vn 0.000000 0.000000 1.000000
vn 0.000000 0.000000 1.000000
vn 0.000000 0.000000 1.000000
vn 0.000000 0.000000 1.000000
vn -1.000000 0.000000 0.000000
vn -1.000000 0.000000 0.000000
vn -1.000000 0.000000 0.000000
vn -1.000000 0.000000 0.000000
vn 0.000000 0.000000 -1.000000
vn 0.000000 0.000000 -1.000000
vn 0.000000 0.000000 -1.000000
vn 0.000000 0.000000 -1.000000
vn 1.000000 0.000000 0.000000
vn 1.000000 0.000000 0.000000
vn 1.000000 0.000000 0.000000
vn 1.000000 0.000000 0.000000
vn 0.000000 1.000000 -0.000000
vn 0.000000 1.000000 -0.000000
vn 0.000000 1.000000 -0.000000
vn 0.000000 1.000000 -0.000000
vn 0.000000 1.000000 0.000000
vn 0.000000 1.000000 0.000000
vn 0.000000 1.000000 0.000000
vn 0.000000 1.000000 0.000000
vn 0.000000 1.000000 0.000001
vn 0.000000 1.000000 0.000001
vn 0.000000 1.000000 0.000001
vn 0.000000 1.000000 0.000001
vn 0.000000 1.000000 0.000000
vn 0.000000 1.000000 0.000000
vn 0.000000 1.000000 0.000000
vn 0.000000 1.000000 0.000000
vn 0.000000 1.000000 -0.000000
vn 0.000000 1.000000 -0.000000
vn 0.000000 1.000000 -0.000000
vn 0.000000 1.000000 -0.000000
vn 0.000000 1.000000 0.000000
vn 0.000000 1.000000 0.000000
vn 0.000000 1.000000 0.000000
vn 0.000000 1.000000 0.000000
vn 0.000000 1.000000 -0.000001
vn 0.000000 1.000000 -0.000001
vn 0.000000 1.000000 -0.000001
vn 0.000000 1.000000 -0.000001
vn 0.000000 1.000000 0.000000
vn 0.000000 1.000000 0.000000
vn 0.000000 1.000000 0.000000
vn 0.000000 1.000000 0.000000
vn 0.000000 0.000000 -1.000000
vn 0.000000 0.000000 -1.000000
vn 0.000000 0.000000 -1.000000
vn 0.000000 0.000000 -1.000000
vn -1.000000 0.000000 0.000000
vn -1.000000 0.000000 0.000000
vn -1.000000 0.000000 0.000000
vn -1.000000 0.000000 0.000000
vn 0.000000 0.000000 1.000000
vn 0.000000 0.000000 1.000000
vn 0.000000 0.000000 1.000000
vn 0.000000 0.000000 1.000000
vn 1.000000 0.000000 0.000000
vn 1.000000 0.000000 0.000000
vn 1.000000 0.000000 0.000000
vn 1.000000 0.000000 0.000000
s off
f 10/43/1 11/175/2 13/49/3 14/167/4
f 74/229/5 73/265/6 75/263/7 76/261/8
f 15/53/9 16/161/10 12/47/11 9/41/12
f 3/13/13 4/14/14 2/15/15 1/16/16
f 11/176/17 12/170/18 16/56/19 13/163/20
f 9/42/21 10/172/22 14/52/23 15/165/24
f 18/59/25 19/181/26 5/33/27 6/191/28
f 17/58/29 18/183/30 6/192/31 7/188/32
f 7/37/33 8/189/34 20/63/35 17/179/36
f 19/62/37 20/177/38 8/190/39 5/186/40
f 6/35/41 5/185/42 57/209/43 58/249/44
f 7/38/45 6/36/46 58/212/47 59/247/48
f 59/213/49 60/243/50 8/39/51 7/187/52
f 5/34/53 8/40/54 60/216/55 57/251/56
f 3/21/57 1/22/58 10/44/59 9/173/60
f 1/1/61 2/2/62 11/45/63 10/171/64
f 2/17/65 4/18/66 12/48/67 11/46/68
f 9/174/69 12/169/70 4/11/71 3/12/72
f 46/113/73 45/114/74 47/25/75 48/27/76
f 49/115/77 46/116/78 48/28/79 50/30/80
f 50/29/81 51/31/82 52/117/83 49/118/84
f 45/119/85 52/120/86 51/32/87 47/26/88
f 50/30/89 48/28/90 53/121/91 54/131/92
f 48/27/93 47/25/94 55/123/95 53/124/96
f 47/26/97 51/32/98 56/125/99 55/126/100
f 54/132/101 56/128/102 51/31/103 50/29/104
f 14/51/105 13/164/106 21/66/107 22/157/108
f 15/54/109 14/168/110 22/68/111 23/155/112
f 16/55/113 15/166/114 23/70/115 24/151/116
f 13/50/117 16/162/118 24/72/119 21/159/120
f 18/60/121 17/180/122 26/74/123 25/73/124
f 19/61/125 18/184/126 25/76/127 27/75/128
f 20/64/129 19/182/130 27/78/131 28/77/132
f 17/57/133 20/178/134 28/80/135 26/79/136
f 22/65/137 21/160/138 29/82/139 30/153/140
f 23/67/141 22/158/142 30/84/143 31/149/144
f 24/69/145 23/156/146 31/86/147 32/145/148
f 21/71/149 24/152/150 32/88/151 29/147/152
f 25/73/153 26/74/154 34/90/155 33/199/156
f 27/75/157 25/76/158 33/92/159 35/195/160
f 28/77/161 27/78/162 35/94/163 36/193/164
f 26/79/165 28/80/166 36/96/167 34/197/168
f 30/81/169 29/148/170 37/98/171 38/207/172
f 31/83/173 30/154/174 38/100/175 39/205/176
f 32/85/177 31/150/178 39/102/179 40/201/180
f 29/87/181 32/146/182 40/104/183 37/203/184
f 33/89/185 34/198/186 42/106/187 41/143/188
f 35/91/189 33/200/190 41/108/191 43/139/192
f 36/93/193 35/196/194 43/110/195 44/135/196
f 34/95/197 36/194/198 44/112/199 42/141/200
f 38/97/201 37/204/202 45/114/203 46/113/204
f 39/99/205 38/208/206 46/116/207 49/115/208
f 40/101/209 39/206/210 49/118/211 52/117/212
f 37/103/213 40/202/214 52/120/215 45/119/216
f 41/105/217 42/142/218 54/122/219 53/137/220
f 43/107/221 41/144/222 53/138/223 55/133/224
f 44/109/225 43/140/226 55/134/227 56/129/228
f 42/111/229 44/136/230 56/130/231 54/127/232
f 66/217/233 65/239/234 61/3/235 62/4/236
f 67/219/237 66/220/238 62/23/239 64/24/240
f 64/9/241 63/10/242 68/221/243 67/222/244
f 65/240/245 68/224/246 63/19/247 61/20/248
f 58/211/249 57/252/250 65/218/251 66/245/252
f 59/214/253 58/250/254 66/246/255 67/241/256
f 60/215/257 59/248/258 67/242/259 68/237/260
f 57/210/261 60/244/262 68/238/263 65/223/264
f 62/5/265 61/6/266 69/260/267 70/267/268
f 61/6/269 63/7/270 71/266/271 69/260/272
f 63/7/273 64/235/274 72/255/275 71/266/276
f 64/8/277 62/236/278 70/234/279 72/233/280
f 70/225/281 69/268/282 73/256/283 74/262/284
f 69/226/285 71/258/286 75/257/287 73/230/288
f 71/227/289 72/264/290 76/253/291 75/231/292
f 72/228/293 70/259/294 74/254/295 76/232/296
