# This file uses meters as units for non-parametric coordinates.

v -0.094635 0.000000 0.094635
v 0.094633 0.000000 0.094635
v -0.094635 0.582370 0.094635
v 0.094633 0.582370 0.094635
v -0.094635 0.582370 -0.094635
v 0.094633 0.582370 -0.094635
v -0.094635 0.000000 -0.094635
v 0.094633 0.000000 -0.094635
v 0.067488 0.582370 0.067488
v -0.067488 0.582370 0.067488
v 0.067488 0.582370 -0.067488
v -0.067488 0.582370 -0.067488
v 0.067488 0.543757 0.067488
v -0.067488 0.543757 0.067488
v 0.067488 0.543757 -0.067488
v -0.067488 0.543757 -0.067488
v 0.017855 0.543757 0.017855
v -0.017855 0.543757 0.017855
v 0.017855 0.543757 -0.017855
v -0.017855 0.543757 -0.017855
v 0.017855 0.656278 0.017855
v -0.017855 0.656278 0.017855
v 0.017855 0.656278 -0.017855
v -0.017855 0.656278 -0.017855
vt 0.267054 0.443182
vt 0.267054 0.443182
vt 0.267054 0.443182
vt 0.267054 0.443182
vt 0.297511 0.443182
vt 0.297511 0.443182
vt 0.297511 0.443182
vt 0.297511 0.443182
vt 0.267054 0.443182
vt 0.267054 0.443182
vt 0.267054 0.443182
vt 0.267054 0.443182
vt 0.203689 0.443182
vt 0.203689 0.443182
vt 0.203689 0.443182
vt 0.203689 0.443182
vt 0.237280 0.443182
vt 0.237280 0.443182
vt 0.237280 0.443182
vt 0.237280 0.443182
vt 0.237280 0.443182
vt 0.237280 0.443182
vt 0.237280 0.443182
vt 0.237280 0.443182
vt 0.204135 0.443182
vt 0.172329 0.443182
vt 0.204135 0.443182
vt 0.172329 0.443182
vt 0.235941 0.443182
vt 0.235941 0.443182
vt 0.235941 0.443182
vt 0.235941 0.443182
vt 0.200820 0.063529
vt 0.175375 0.063529
vt 0.200820 0.063529
vt 0.175375 0.063529
vt 0.236443 0.063529
vt 0.175375 0.063529
vt 0.200820 0.063529
vt 0.175375 0.063529
vt 0.200820 0.063529
vt 0.236443 0.063529
vt 0.200820 0.063529
vt 0.175375 0.063529
vt 0.175375 0.063529
vt 0.236443 0.063529
vt 0.235941 0.443182
vt 0.200820 0.063529
vt 0.200820 0.063529
vt 0.236443 0.063529
vt 0.235941 0.443182
vt 0.175375 0.063529
vt 0.235941 0.443182
vt 0.175375 0.063529
vt 0.235941 0.443182
vt 0.200820 0.063529
vt 0.172329 0.443182
vt 0.204135 0.443182
vt 0.204135 0.443182
vt 0.172329 0.443182
vt 0.204135 0.443182
vt 0.172329 0.443182
vt 0.297511 0.443182
vt 0.204135 0.443182
vt 0.172329 0.443182
vt 0.204135 0.443182
vt 0.297511 0.443182
vt 0.172329 0.443182
vt 0.297511 0.443182
vt 0.172329 0.443182
vt 0.297511 0.443182
vt 0.204135 0.443182
vt 0.235941 0.443182
vt 0.235941 0.443182
vt 0.235941 0.443182
vt 0.235941 0.443182
vt 0.235941 0.443182
vt 0.235941 0.443182
vt 0.235941 0.443182
vt 0.235941 0.443182
vn 0.000000 0.000000 1.000000
vn 0.000000 0.000000 1.000000
vn 0.000000 0.000000 1.000000
vn 0.000000 0.000000 1.000000
vn 0.000000 1.000000 0.000000
vn 0.000000 1.000000 0.000000
vn 0.000000 1.000000 0.000000
vn 0.000000 1.000000 0.000000
vn 0.000000 0.000000 -1.000000
vn 0.000000 0.000000 -1.000000
vn 0.000000 0.000000 -1.000000
vn 0.000000 0.000000 -1.000000
vn 0.000000 -1.000000 0.000000
vn 0.000000 -1.000000 0.000000
vn 0.000000 -1.000000 0.000000
vn 0.000000 -1.000000 0.000000
vn 1.000000 0.000000 0.000000
vn 1.000000 0.000000 0.000000
vn 1.000000 0.000000 0.000000
vn 1.000000 0.000000 0.000000
vn -1.000000 0.000000 0.000000
vn -1.000000 0.000000 0.000000
vn -1.000000 0.000000 0.000000
vn -1.000000 0.000000 0.000000
vn 0.000000 1.000000 0.000001
vn 0.000000 1.000000 0.000001
vn 0.000000 1.000000 0.000001
vn 0.000000 1.000000 0.000001
vn 0.000000 1.000000 0.000000
vn 0.000000 1.000000 0.000000
vn 0.000000 1.000000 0.000000
vn 0.000000 1.000000 0.000000
vn 0.000000 1.000000 -0.000000
vn 0.000000 1.000000 -0.000000
vn 0.000000 1.000000 -0.000000
vn 0.000000 1.000000 -0.000000
vn 0.000000 1.000000 0.000000
vn 0.000000 1.000000 0.000000
vn 0.000000 1.000000 0.000000
vn 0.000000 1.000000 0.000000
vn 0.000000 0.000000 -1.000000
vn 0.000000 0.000000 -1.000000
vn 0.000000 0.000000 -1.000000
vn 0.000000 0.000000 -1.000000
vn -1.000000 0.000000 0.000000
vn -1.000000 0.000000 0.000000
vn -1.000000 0.000000 0.000000
vn -1.000000 0.000000 0.000000
vn 0.000000 0.000000 1.000000
vn 0.000000 0.000000 1.000000
vn 0.000000 0.000000 1.000000
vn 0.000000 0.000000 1.000000
vn 1.000000 0.000000 0.000000
vn 1.000000 0.000000 0.000000
vn 1.000000 0.000000 0.000000
vn 1.000000 0.000000 0.000000
vn 0.000000 1.000000 0.000000
vn 0.000000 1.000000 0.000000
vn 0.000000 1.000000 0.000000
vn 0.000000 1.000000 0.000000
vn 0.000000 1.000000 0.000000
vn 0.000000 1.000000 0.000000
vn 0.000000 1.000000 0.000000
vn 0.000000 1.000000 0.000000
vn 0.000000 1.000000 0.000000
vn 0.000000 1.000000 0.000000
vn 0.000000 1.000000 0.000000
vn 0.000000 1.000000 0.000000
vn 0.000000 1.000000 0.000000
vn 0.000000 1.000000 0.000000
vn 0.000000 1.000000 0.000000
vn 0.000000 1.000000 0.000000
vn 0.000000 0.000000 1.000000
vn 0.000000 0.000000 1.000000
vn 0.000000 0.000000 1.000000
vn 0.000000 0.000000 1.000000
vn 1.000000 0.000000 0.000000
vn 1.000000 0.000000 0.000000
vn 1.000000 0.000000 0.000000
vn 1.000000 0.000000 0.000000
vn 0.000000 0.000000 -1.000000
vn 0.000000 0.000000 -1.000000
vn 0.000000 0.000000 -1.000000
vn 0.000000 0.000000 -1.000000
vn -1.000000 0.000000 0.000000
vn -1.000000 0.000000 0.000000
vn -1.000000 0.000000 0.000000
vn -1.000000 0.000000 0.000000
s off
f 1/1/1 2/2/2 4/3/3 3/4/4
f 22/37/5 21/50/6 23/46/7 24/42/8
f 5/9/9 6/10/10 8/11/11 7/12/12
f 7/13/13 8/14/14 2/15/15 1/16/16
f 2/17/17 8/18/18 6/19/19 4/20/20
f 7/21/21 1/22/22 3/23/23 5/24/24
f 3/5/25 4/6/26 9/71/27 10/69/28
f 4/6/29 6/7/30 11/67/31 9/71/32
f 6/7/33 5/8/34 12/63/35 11/67/36
f 5/8/37 3/5/38 10/69/39 12/63/40
f 10/25/41 9/72/42 13/66/43 14/59/44
f 9/26/45 11/68/46 15/62/47 13/65/48
f 11/27/49 12/64/50 16/58/51 15/61/52
f 12/28/53 10/70/54 14/60/55 16/57/56
f 14/29/57 13/80/58 17/77/59 18/53/60
f 13/30/61 15/78/62 19/75/63 17/55/64
f 15/31/65 16/76/66 20/73/67 19/51/68
f 16/32/69 14/79/70 18/74/71 20/47/72
f 18/33/73 17/56/74 21/49/75 22/43/76
f 17/34/77 19/52/78 23/45/79 21/38/80
f 19/35/81 20/48/82 24/41/83 23/39/84
f 20/36/85 18/54/86 22/44/87 24/40/88
