# This file uses meters as units for non-parametric coordinates.

v -6.623856 0.000000 -1.313919
v -6.623856 0.020303 -1.313919
v -6.623856 0.020303 1.313911
v -6.623856 0.000000 1.313911
v 6.623840 0.000000 1.313919
v 6.623840 0.020303 1.313919
v 6.623840 0.020303 -1.313919
v 6.623840 0.000000 -1.313919
v 6.290771 0.020303 1.009209
v 6.290771 0.020303 -1.009224
v -6.290787 0.020303 -1.009224
v -6.290787 0.020303 1.009209
v 5.775909 0.020303 0.585411
v 5.775909 0.020303 -0.585419
v -5.775925 0.020303 -0.585419
v -5.775925 0.020303 0.585411
v 5.548584 0.020303 0.374901
v 5.548584 0.020303 -0.374901
v -5.548599 0.020303 -0.374901
v -5.548599 0.020303 0.374901
vt 0.382546 0.602819
vt 0.382546 0.602819
vt 0.382546 0.602819
vt 0.382546 0.602819
vt 0.483539 0.602819
vt 0.483539 0.602819
vt 0.483539 0.602819
vt 0.483539 0.602819
vt 0.382546 0.602819
vt 0.382546 0.602819
vt 0.382546 0.602819
vt 0.382546 0.602819
vt 0.419505 0.602819
vt 0.419505 0.602819
vt 0.419505 0.602819
vt 0.419505 0.602819
vt 0.419505 0.602819
vt 0.419505 0.602819
vt 0.419505 0.602819
vt 0.419505 0.602819
vt 0.419505 0.602819
vt 0.419505 0.602819
vt 0.419505 0.602819
vt 0.419505 0.602819
vt 0.419505 0.602819
vt 0.419505 0.602819
vt 0.419505 0.602819
vt 0.419505 0.602819
vt 0.483539 0.602819
vt 0.483539 0.602819
vt 0.483539 0.602819
vt 0.483539 0.602819
vt 0.483539 0.602819
vt 0.483539 0.602819
vt 0.483539 0.602819
vt 0.483539 0.602819
vt 0.483539 0.602819
vt 0.483539 0.602819
vt 0.483539 0.602819
vt 0.483539 0.602819
vt 0.483539 0.602819
vt 0.483539 0.602819
vt 0.483539 0.602819
vt 0.483539 0.602819
vt 0.205720 0.064390
vt 0.205720 0.064390
vt 0.205720 0.064390
vt 0.205720 0.064390
vt 0.205720 0.064390
vt 0.205720 0.064390
vt 0.205721 0.064390
vt 0.205721 0.064390
vt 0.205721 0.064390
vt 0.205721 0.064390
vt 0.205721 0.064390
vt 0.205721 0.064390
vt 0.205720 0.064390
vt 0.205721 0.064390
vt 0.205721 0.064390
vt 0.205720 0.064390
vt 0.353877 0.600781
vt 0.353877 0.600781
vt 0.353877 0.600781
vt 0.353877 0.600781
vt 0.353876 0.600781
vt 0.353876 0.600781
vt 0.353876 0.600781
vt 0.353876 0.600781
vn -0.000002 0.000000 1.000000
vn -0.000002 0.000000 1.000000
vn -0.000002 0.000000 1.000000
vn -0.000002 0.000000 1.000000
vn 0.000000 1.000000 0.000000
vn 0.000000 1.000000 0.000000
vn 0.000000 1.000000 0.000000
vn 0.000000 1.000000 0.000000
vn 0.000000 0.000000 -1.000000
vn 0.000000 0.000000 -1.000000
vn 0.000000 0.000000 -1.000000
vn 0.000000 0.000000 -1.000000
vn 0.000000 1.000000 0.000000
vn 0.000000 1.000000 0.000000
vn 0.000000 1.000000 0.000000
vn 0.000000 1.000000 0.000000
vn 0.000000 1.000000 -0.000000
vn 0.000000 1.000000 -0.000000
vn 0.000000 1.000000 -0.000000
vn 0.000000 1.000000 -0.000000
vn 0.000000 1.000000 0.000000
vn 0.000000 1.000000 0.000000
vn 0.000000 1.000000 0.000000
vn 0.000000 1.000000 0.000000
vn 0.000000 1.000000 0.000000
vn 0.000000 1.000000 0.000000
vn 0.000000 1.000000 0.000000
vn 0.000000 1.000000 0.000000
vn 0.000000 1.000000 0.000000
vn 0.000000 1.000000 0.000000
vn 0.000000 1.000000 0.000000
vn 0.000000 1.000000 0.000000
vn 0.000000 1.000000 0.000000
vn 0.000000 1.000000 0.000000
vn 0.000000 1.000000 0.000000
vn 0.000000 1.000000 0.000000
vn 0.000000 1.000000 0.000000
vn 0.000000 1.000000 0.000000
vn 0.000000 1.000000 0.000000
vn 0.000000 1.000000 0.000000
vn 0.000000 1.000000 -0.000000
vn 0.000000 1.000000 -0.000000
vn 0.000000 1.000000 -0.000000
vn 0.000000 1.000000 -0.000000
vn 0.000000 1.000000 0.000000
vn 0.000000 1.000000 0.000000
vn 0.000000 1.000000 0.000000
vn 0.000000 1.000000 0.000000
vn 0.000000 1.000000 0.000000
vn 0.000000 1.000000 0.000000
vn 0.000000 1.000000 0.000000
vn 0.000000 1.000000 0.000000
vn 0.000000 1.000000 0.000000
vn 0.000000 1.000000 0.000000
vn 0.000000 1.000000 0.000000
vn 0.000000 1.000000 0.000000
vn 0.000000 1.000000 0.000000
vn 0.000000 1.000000 0.000000
vn 0.000000 1.000000 0.000000
vn 0.000000 1.000000 0.000000
vn -1.000000 0.000000 0.000000
vn -1.000000 0.000000 0.000000
vn -1.000000 0.000000 0.000000
vn -1.000000 0.000000 0.000000
vn 1.000000 0.000000 0.000000
vn 1.000000 0.000000 0.000000
vn 1.000000 0.000000 0.000000
vn 1.000000 0.000000 0.000000
s off
f 4/1/1 5/2/2 6/3/3 3/4/4
f 17/5/5 18/6/6 19/7/7 20/8/8
f 7/9/9 8/10/10 1/11/11 2/12/12
f 6/13/13 7/14/14 10/15/15 9/16/16
f 10/17/17 7/18/18 2/19/19 11/20/20
f 2/21/21 3/22/22 12/23/23 11/24/24
f 9/25/25 12/26/26 3/27/27 6/28/28
f 9/29/29 10/30/30 14/31/31 13/32/32
f 14/33/33 10/34/34 11/35/35 15/36/36
f 11/37/37 12/38/38 16/39/39 15/40/40
f 13/41/41 16/42/42 12/43/43 9/44/44
f 13/45/45 14/46/46 18/47/47 17/48/48
f 18/49/49 14/50/50 15/51/51 19/52/52
f 15/53/53 16/54/54 20/55/55 19/56/56
f 17/57/57 20/58/58 16/59/59 13/60/60
f 4/61/61 3/62/62 2/63/63 1/64/64
f 6/65/65 5/66/66 8/67/67 7/68/68
