# This file uses meters as units for non-parametric coordinates.

v 0.114782 0.000000 0.114607
v -0.114782 0.000000 0.114607
v 0.114782 0.068304 0.114953
v -0.114782 0.068304 0.114953
v 0.114782 0.069462 -0.114609
v -0.114782 0.069462 -0.114609
v 0.114782 0.001158 -0.114952
v -0.114782 0.001158 -0.114952
v 0.079619 0.068481 0.079790
v -0.079619 0.068481 0.079790
v -0.079619 0.069284 -0.079446
v 0.079619 0.069284 -0.079446
v 0.045455 0.107420 0.045822
v -0.045455 0.107420 0.045822
v -0.045455 0.107879 -0.045086
v 0.045455 0.107879 -0.045086
vt 0.634840 0.466399
vt 0.634840 0.466399
vt 0.634840 0.466399
vt 0.634840 0.466399
vt 0.356783 0.169948
vt 0.356783 0.169948
vt 0.356783 0.169948
vt 0.356783 0.169948
vt 0.634840 0.466399
vt 0.634840 0.466399
vt 0.634840 0.466399
vt 0.634840 0.466399
vt 0.545771 0.466399
vt 0.545771 0.466399
vt 0.545771 0.466399
vt 0.545771 0.466399
vt 0.584570 0.466399
vt 0.584570 0.466399
vt 0.584570 0.466399
vt 0.584570 0.466399
vt 0.584570 0.466399
vt 0.584570 0.466399
vt 0.584570 0.466399
vt 0.584570 0.466399
vt 0.669541 0.466399
vt 0.669541 0.466399
vt 0.669541 0.466399
vt 0.669541 0.466399
vt 0.669541 0.466399
vt 0.669541 0.466399
vt 0.669541 0.466399
vt 0.669541 0.466399
vt 0.669541 0.466399
vt 0.669541 0.466399
vt 0.669541 0.466399
vt 0.669541 0.466399
vt 0.669541 0.466399
vt 0.669541 0.466399
vt 0.669541 0.466399
vt 0.669541 0.466399
vt 0.328694 0.169948
vt 0.328694 0.169948
vt 0.328694 0.169948
vt 0.328694 0.169948
vt 0.293324 0.169948
vt 0.293324 0.169948
vt 0.293324 0.169948
vt 0.293324 0.169948
vt 0.328694 0.169948
vt 0.328694 0.169948
vt 0.328694 0.169948
vt 0.328694 0.169948
vt 0.293324 0.169948
vt 0.293324 0.169948
vt 0.293324 0.169948
vt 0.293324 0.169948
vn 0.000000 -0.005048 0.999987
vn 0.000000 -0.005048 0.999987
vn 0.000000 -0.005048 0.999987
vn 0.000000 -0.005048 0.999987
vn 0.000000 0.999987 0.005048
vn 0.000000 0.999987 0.005048
vn 0.000000 0.999987 0.005048
vn 0.000000 0.999987 0.005048
vn 0.000000 0.005045 -0.999987
vn 0.000000 0.005045 -0.999987
vn 0.000000 0.005045 -0.999987
vn 0.000000 0.005045 -0.999987
vn 0.000000 -0.999987 -0.005045
vn 0.000000 -0.999987 -0.005045
vn 0.000000 -0.999987 -0.005045
vn 0.000000 -0.999987 -0.005045
vn -1.000000 0.000000 0.000000
vn -1.000000 0.000000 0.000000
vn -1.000000 0.000000 0.000000
vn -1.000000 0.000000 0.000000
vn 1.000000 0.000002 -0.000003
vn 1.000000 0.000002 -0.000003
vn 1.000000 0.000002 -0.000003
vn 1.000000 0.000002 -0.000003
vn 0.000000 0.999987 0.005046
vn 0.000000 0.999987 0.005046
vn 0.000000 0.999987 0.005046
vn 0.000000 0.999987 0.005046
vn 0.000002 0.999987 0.005045
vn 0.000002 0.999987 0.005045
vn 0.000002 0.999987 0.005045
vn 0.000002 0.999987 0.005045
vn 0.000000 0.999987 0.005050
vn 0.000000 0.999987 0.005050
vn 0.000000 0.999987 0.005050
vn 0.000000 0.999987 0.005050
vn -0.000002 0.999987 0.005052
vn -0.000002 0.999987 0.005051
vn -0.000002 0.999987 0.005052
vn -0.000002 0.999987 0.005052
vn 0.000000 0.657368 0.753570
vn 0.000000 0.657368 0.753570
vn 0.000000 0.657368 0.753570
vn 0.000000 0.657368 0.753570
vn -0.750244 0.661152 0.003334
vn -0.750244 0.661152 0.003334
vn -0.750244 0.661152 0.003334
vn -0.750244 0.661152 0.003334
vn 0.000000 0.664929 -0.746906
vn 0.000000 0.664929 -0.746906
vn 0.000000 0.664929 -0.746906
vn 0.000000 0.664929 -0.746906
vn 0.750244 0.661152 0.003334
vn 0.750244 0.661152 0.003334
vn 0.750244 0.661152 0.003334
vn 0.750244 0.661152 0.003334
s off
f 1/1/1 3/2/2 4/3/3 2/4/4
f 13/5/5 16/6/6 15/7/7 14/8/8
f 5/9/9 7/10/10 8/11/11 6/12/12
f 7/13/13 1/14/14 2/15/15 8/16/16
f 2/17/17 4/18/18 6/19/19 8/20/20
f 7/21/21 5/22/22 3/23/23 1/24/24
f 3/25/25 9/26/26 10/27/27 4/28/28
f 4/29/29 10/30/30 11/31/31 6/32/32
f 6/33/33 11/34/34 12/35/35 5/36/36
f 5/37/37 12/38/38 9/39/39 3/40/40
f 9/41/41 13/42/42 14/43/43 10/44/44
f 10/45/45 14/46/46 15/47/47 11/48/48
f 11/49/49 15/50/50 16/51/51 12/52/52
f 12/53/53 16/54/54 13/55/55 9/56/56
