# This file uses meters as units for non-parametric coordinates.

v -0.453769 0.115970 -0.286804
v -0.452860 0.569129 -0.285235
v 0.469575 0.567212 -0.266106
v 0.468666 0.114054 -0.267675
v -0.468666 0.566524 0.476686
v 0.453770 0.564607 0.495815
v -0.469576 0.113367 0.475118
v 0.452860 0.111449 0.494247
v -0.375294 0.115579 -0.219198
v 0.387454 0.113994 -0.203381
v 0.374385 0.111840 0.426641
v -0.388363 0.113426 0.410824
v -0.374959 0.281892 -0.218622
v 0.387788 0.280307 -0.202805
v 0.374719 0.278153 0.427217
v -0.388030 0.279738 0.411399
v -0.437190 0.132298 -0.495815
v -0.437906 0.109643 0.139476
v -0.434398 0.757599 -0.473508
v 0.398247 0.753852 -0.472705
v 0.394740 0.105897 0.140279
v 0.395454 0.128551 -0.495012
v -0.435907 0.557162 0.155440
v 0.396739 0.553415 0.156243
v -0.435378 0.726555 0.397048
v 0.397267 0.722808 0.397852
v -0.436172 0.548772 0.390706
v 0.396474 0.545026 0.391509
v 0.291975 0.750372 -0.361828
v -0.328376 0.753163 -0.362426
v -0.329105 0.730035 0.286170
v 0.291245 0.727243 0.286769
v 0.292492 0.866150 -0.357697
v -0.327858 0.868941 -0.358296
v -0.328589 0.845813 0.290300
v 0.291762 0.843021 0.290899
v 0.118363 0.860448 -0.176023
v -0.154140 0.861674 -0.176286
v -0.154460 0.851514 0.108625
v 0.118044 0.850288 0.108889
v 0.073772 0.943630 -0.144278
v -0.108861 0.944452 -0.144455
v -0.109118 0.936346 0.082874
v 0.073516 0.935524 0.083050
v 0.075099 1.234751 -0.162721
v -0.107534 1.235573 -0.162898
v -0.108116 1.148631 0.034487
v 0.074518 1.147809 0.034663
v 0.074149 1.028077 -0.141266
v -0.108485 1.028899 -0.141442
v -0.108180 1.038562 -0.412427
v 0.074454 1.037740 -0.412251
v -0.107553 1.179099 -0.407414
v 0.075082 1.178277 -0.407238
v -0.153827 0.931661 -0.173789
v 0.118676 0.930436 -0.173526
v 0.118356 0.920276 0.111385
v -0.154147 0.921502 0.111122
v -0.376944 0.037827 -0.386373
v -0.377744 0.012485 0.324276
v 0.333350 0.009286 0.324962
v 0.334150 0.034627 -0.385687
v -0.376457 0.146823 -0.382486
v -0.377257 0.121482 0.328163
v 0.333837 0.118282 0.328849
v 0.334636 0.143624 -0.381799
v -0.377002 0.129560 0.101628
v 0.334091 0.126361 0.102314
v 0.333605 0.017363 0.098426
v -0.377489 0.020563 0.097740
v 0.281265 0.119949 0.288714
v 0.281503 0.125832 0.123730
v -0.324443 0.128552 0.123310
v -0.324682 0.122670 0.288294
v 0.281160 0.096688 0.287884
v 0.281399 0.102571 0.122900
v -0.324548 0.105291 0.122480
v -0.324785 0.099408 0.287464
vt 0.825075 0.602688
vt 0.777384 0.602688
vt 0.777384 0.596095
vt 0.825075 0.596095
vt 0.773790 0.602376
vt 0.773790 0.597858
vt 0.774744 0.597858
vt 0.774744 0.602376
vt 0.801475 0.604743
vt 0.801475 0.604840
vt 0.801266 0.604840
vt 0.801266 0.604743
vt 0.774420 0.628591
vt 0.828039 0.628591
vt 0.828039 0.603738
vt 0.774420 0.603738
vt 0.771082 0.603738
vt 0.771082 0.628591
vt 0.729890 0.628590
vt 0.729890 0.603738
vt 0.771082 0.628591
vt 0.729890 0.628590
vt 0.729890 0.603738
vt 0.771082 0.603738
vt 0.828039 0.603738
vt 0.774420 0.603738
vt 0.777384 0.602688
vt 0.825075 0.602688
vt 0.774420 0.595712
vt 0.777384 0.596095
vt 0.828039 0.595712
vt 0.825075 0.596095
vt 0.758288 0.619043
vt 0.758288 0.619067
vt 0.758254 0.619067
vt 0.758274 0.619067
vt 0.758241 0.619043
vt 0.758287 0.619043
vt 0.758287 0.619076
vt 0.781048 0.595496
vt 0.827868 0.595496
vt 0.827868 0.603076
vt 0.781048 0.603076
vt 0.820388 0.601271
vt 0.820388 0.597160
vt 0.802158 0.597160
vt 0.802158 0.601271
vt 0.783994 0.683296
vt 0.727571 0.683296
vt 0.727571 0.680415
vt 0.783994 0.680415
vt 0.748376 0.665159
vt 0.747158 0.665159
vt 0.747158 0.663823
vt 0.748376 0.663823
vt 0.780868 0.611903
vt 0.780868 0.611903
vt 0.780868 0.611903
vt 0.780868 0.611903
vt 0.827782 0.603076
vt 0.827782 0.595496
vt 0.758274 0.619076
vt 0.758241 0.619076
vt 0.758254 0.619076
vt 0.758241 0.619043
vt 0.758241 0.619067
vt 0.794016 0.626180
vt 0.794164 0.626180
vt 0.794146 0.626180
vt 0.794035 0.626180
vt 0.794164 0.626184
vt 0.794146 0.626183
vt 0.794016 0.626184
vt 0.794035 0.626183
vt 0.783961 0.683929
vt 0.727571 0.683929
vt 0.727571 0.681830
vt 0.783961 0.681830
vt 0.759042 0.624538
vt 0.759507 0.624538
vt 0.759507 0.624531
vt 0.759042 0.624531
vt 0.780868 0.611903
vt 0.780868 0.611903
vt 0.780868 0.611903
vt 0.780868 0.611903
vt 0.759528 0.624532
vt 0.759063 0.624532
vt 0.759063 0.624539
vt 0.759528 0.624539
vt 0.794043 0.626176
vt 0.794136 0.626176
vt 0.794110 0.626180
vt 0.794069 0.626180
vt 0.794136 0.626190
vt 0.794110 0.626186
vt 0.794043 0.626190
vt 0.794069 0.626186
vt 0.784024 0.684169
vt 0.727571 0.684169
vt 0.727571 0.681769
vt 0.784024 0.681769
vt 0.759222 0.624538
vt 0.759426 0.624538
vt 0.759426 0.624535
vt 0.759222 0.624535
vt 0.780868 0.611903
vt 0.780868 0.611903
vt 0.780868 0.611903
vt 0.780868 0.611903
vt 0.759437 0.624525
vt 0.759233 0.624525
vt 0.759233 0.624528
vt 0.759437 0.624528
vt 0.732920 0.652320
vt 0.732920 0.654684
vt 0.731826 0.654684
vt 0.731826 0.652320
vt 0.733359 0.637995
vt 0.733359 0.659052
vt 0.740260 0.659052
vt 0.747308 0.637995
vt 0.748399 0.662570
vt 0.749617 0.662570
vt 0.749617 0.663973
vt 0.748399 0.663973
vt 0.733359 0.659052
vt 0.733359 0.637995
vt 0.747220 0.637995
vt 0.740173 0.659052
vt 0.748491 0.659052
vt 0.748578 0.659052
vt 0.732347 0.656736
vt 0.732533 0.661121
vt 0.729154 0.661270
vt 0.728967 0.656885
vt 0.729438 0.652322
vt 0.731802 0.652322
vt 0.731802 0.655833
vt 0.729438 0.655833
vt 0.762431 0.659052
vt 0.762431 0.637995
vt 0.748376 0.666775
vt 0.747158 0.666775
vt 0.762431 0.637995
vt 0.762431 0.659052
vt 0.728085 0.617248
vt 0.727381 0.617248
vt 0.727381 0.616908
vt 0.728085 0.616908
vt 0.759233 0.624530
vt 0.759437 0.624530
vt 0.780868 0.611903
vt 0.780868 0.611903
vt 0.759426 0.624533
vt 0.759222 0.624533
vt 0.717144 0.696247
vt 0.717144 0.696247
vt 0.717144 0.696247
vt 0.717144 0.696247
vt 0.787946 0.738531
vt 0.752712 0.738531
vt 0.752712 0.745656
vt 0.787946 0.745656
vt 0.684110 0.745656
vt 0.736225 0.745656
vt 0.736225 0.738531
vt 0.684110 0.738531
vt 0.631994 0.745656
vt 0.667497 0.745656
vt 0.667497 0.738531
vt 0.631994 0.738531
vt 0.731868 0.709499
vt 0.731868 0.709499
vt 0.731868 0.709499
vt 0.731868 0.709499
vt 0.731868 0.709499
vt 0.731868 0.709499
vt 0.731868 0.709499
vt 0.731868 0.709499
vt 0.745979 0.741617
vt 0.745979 0.741617
vt 0.745979 0.741617
vt 0.745979 0.741617
vt 0.731323 0.742296
vt 0.731323 0.742296
vt 0.731323 0.743164
vt 0.731323 0.743164
vt 0.731323 0.742296
vt 0.731323 0.743164
vt 0.731323 0.742296
vt 0.731323 0.743164
vt 0.756396 0.742481
vt 0.756396 0.742481
vt 0.756396 0.742481
vt 0.756396 0.742481
vt 0.756396 0.742481
vt 0.756396 0.742481
vt 0.756396 0.742481
vt 0.756396 0.742481
vn -0.003922 -0.723499 0.690314
vn -0.003922 -0.723499 0.690314
vn -0.003922 -0.723499 0.690314
vn -0.003922 -0.723499 0.690314
vn -0.002408 -0.690310 -0.723510
vn -0.002408 -0.690310 -0.723510
vn -0.002408 -0.690310 -0.723510
vn -0.002408 -0.690310 -0.723510
vn 0.003921 0.723499 -0.690314
vn 0.003921 0.723499 -0.690314
vn 0.003921 0.723499 -0.690314
vn 0.003921 0.723499 -0.690314
vn 0.002408 0.690311 0.723509
vn 0.002408 0.690311 0.723509
vn 0.002408 0.690311 0.723509
vn 0.002408 0.690311 0.723509
vn 0.999989 -0.004500 0.000965
vn 0.999989 -0.004500 0.000965
vn 0.999989 -0.004500 0.000965
vn 0.999989 -0.004500 0.000965
vn -0.999989 0.004499 -0.000965
vn -0.999989 0.004499 -0.000965
vn -0.999989 0.004499 -0.000965
vn -0.999989 0.004499 -0.000965
vn -0.003922 -0.723499 0.690315
vn -0.003922 -0.723499 0.690314
vn -0.003922 -0.723499 0.690315
vn -0.003922 -0.723499 0.690315
vn -0.003919 -0.723498 0.690315
vn -0.003919 -0.723498 0.690315
vn -0.003919 -0.723498 0.690315
vn -0.003919 -0.723498 0.690315
vn -0.003921 -0.723497 0.690317
vn -0.003921 -0.723497 0.690317
vn -0.003921 -0.723497 0.690317
vn -0.003921 -0.723497 0.690317
vn -0.003922 -0.723498 0.690316
vn -0.003922 -0.723498 0.690315
vn -0.003922 -0.723498 0.690316
vn -0.003922 -0.723498 0.690316
vn 0.002408 0.690311 0.723509
vn 0.002408 0.690311 0.723509
vn 0.002408 0.690311 0.723509
vn 0.002408 0.690311 0.723509
vn -0.999989 0.004500 -0.000965
vn -0.999989 0.004500 -0.000965
vn -0.999989 0.004500 -0.000965
vn -0.999989 0.004500 -0.000965
vn -0.002408 -0.690311 -0.723509
vn -0.002408 -0.690311 -0.723509
vn -0.002408 -0.690311 -0.723509
vn -0.002408 -0.690311 -0.723509
vn 0.999989 -0.004499 0.000965
vn 0.999989 -0.004499 0.000965
vn 0.999989 -0.004499 0.000965
vn 0.999989 -0.004499 0.000965
vn -0.999989 0.004500 -0.000965
vn -0.999989 0.004500 -0.000965
vn -0.999989 0.004500 -0.000965
vn 0.999989 -0.004499 0.000964
vn 0.999989 -0.004499 0.000964
vn 0.999989 -0.004499 0.000964
vn 0.999989 -0.004499 0.000964
vn -0.004462 -0.999355 -0.035642
vn -0.004462 -0.999355 -0.035642
vn -0.004462 -0.999355 -0.035642
vn -0.004462 -0.999355 -0.035642
vn -0.001125 -0.035644 0.999364
vn -0.001125 -0.035644 0.999364
vn -0.001125 -0.035644 0.999364
vn -0.001125 -0.035644 0.999364
vn 0.001125 0.035645 -0.999364
vn 0.001125 0.035645 -0.999364
vn 0.001125 0.035645 -0.999364
vn 0.001125 0.035645 -0.999364
vn 0.003729 0.915146 0.403106
vn 0.003729 0.915146 0.403106
vn 0.003729 0.915146 0.403106
vn 0.003729 0.915146 0.403106
vn -0.001124 -0.035646 0.999364
vn -0.001124 -0.035646 0.999364
vn -0.001124 -0.035646 0.999364
vn -0.001124 -0.035646 0.999364
vn -0.004462 -0.999355 -0.035642
vn -0.004462 -0.999355 -0.035642
vn -0.004462 -0.999355 -0.035642
vn -0.004462 -0.999355 -0.035642
vn 0.999989 -0.004499 0.000965
vn 0.999989 -0.004499 0.000965
vn 0.999989 -0.004499 0.000965
vn -0.999989 0.004500 -0.000965
vn -0.999989 0.004500 -0.000965
vn -0.999989 0.004500 -0.000965
vn -0.999989 0.004500 -0.000965
vn -0.999989 0.004500 -0.000965
vn -0.999989 0.004500 -0.000965
vn -0.999989 0.004500 -0.000965
vn 0.999989 -0.004500 0.000964
vn 0.999989 -0.004500 0.000964
vn 0.999989 -0.004500 0.000964
vn 0.004462 0.999355 0.035639
vn 0.004462 0.999355 0.035639
vn 0.004462 0.999355 0.035639
vn 0.004462 0.999355 0.035639
vn 0.004464 0.999355 0.035642
vn 0.004464 0.999355 0.035642
vn 0.004464 0.999355 0.035642
vn 0.004464 0.999355 0.035642
vn 0.004462 0.999355 0.035642
vn 0.004462 0.999355 0.035642
vn 0.004462 0.999355 0.035642
vn 0.004462 0.999355 0.035642
vn 0.004462 0.999355 0.035642
vn 0.004462 0.999355 0.035642
vn 0.004462 0.999355 0.035642
vn 0.004462 0.999355 0.035642
vn 0.001125 0.035650 -0.999364
vn 0.001125 0.035650 -0.999364
vn 0.001125 0.035650 -0.999364
vn 0.001125 0.035650 -0.999364
vn -0.999989 0.004500 -0.000965
vn -0.999989 0.004500 -0.000965
vn -0.999989 0.004500 -0.000965
vn -0.999989 0.004500 -0.000965
vn -0.001125 -0.035643 0.999364
vn -0.001125 -0.035643 0.999364
vn -0.001125 -0.035643 0.999364
vn -0.001125 -0.035643 0.999364
vn 0.999989 -0.004499 0.000965
vn 0.999989 -0.004499 0.000965
vn 0.999989 -0.004499 0.000965
vn 0.999989 -0.004499 0.000965
vn 0.004462 0.999355 0.035640
vn 0.004462 0.999355 0.035640
vn 0.004462 0.999355 0.035640
vn 0.004462 0.999355 0.035640
vn 0.004462 0.999355 0.035641
vn 0.004462 0.999355 0.035641
vn 0.004462 0.999355 0.035641
vn 0.004462 0.999355 0.035641
vn 0.004463 0.999355 0.035644
vn 0.004463 0.999355 0.035644
vn 0.004463 0.999355 0.035644
vn 0.004463 0.999355 0.035644
vn 0.004463 0.999355 0.035642
vn 0.004463 0.999355 0.035642
vn 0.004463 0.999355 0.035642
vn 0.004463 0.999355 0.035642
vn 0.001124 0.035644 -0.999364
vn 0.001124 0.035644 -0.999364
vn 0.001124 0.035644 -0.999364
vn 0.001124 0.035644 -0.999364
vn -0.999989 0.004500 -0.000965
vn -0.999989 0.004500 -0.000965
vn -0.999989 0.004500 -0.000965
vn -0.999989 0.004500 -0.000965
vn -0.001125 -0.035643 0.999364
vn -0.001125 -0.035643 0.999364
vn -0.001125 -0.035643 0.999364
vn -0.001125 -0.035643 0.999364
vn 0.999989 -0.004499 0.000965
vn 0.999989 -0.004499 0.000965
vn 0.999989 -0.004499 0.000965
vn 0.999989 -0.004499 0.000965
vn 0.001125 0.035644 -0.999364
vn 0.001125 0.035644 -0.999364
vn 0.001125 0.035644 -0.999364
vn 0.001125 0.035644 -0.999364
vn -0.999989 0.004500 -0.000966
vn -0.999989 0.004500 -0.000966
vn -0.999989 0.004500 -0.000966
vn -0.999989 0.004500 -0.000966
vn 0.000059 0.222237 0.974993
vn 0.000059 0.222237 0.974993
vn 0.000059 0.222237 0.974993
vn 0.000059 0.222237 0.974993
vn 0.999989 -0.004500 0.000965
vn 0.999989 -0.004500 0.000965
vn 0.999989 -0.004500 0.000965
vn 0.999989 -0.004500 0.000965
vn 0.999989 -0.004499 0.000965
vn 0.999989 -0.004499 0.000965
vn 0.999989 -0.004499 0.000965
vn -0.999989 0.004500 -0.000965
vn -0.999989 0.004500 -0.000965
vn -0.999989 0.004500 -0.000965
vn 0.001125 0.035641 -0.999364
vn 0.001125 0.035642 -0.999364
vn 0.001125 0.035641 -0.999364
vn 0.001125 0.035641 -0.999364
vn -0.004463 -0.999355 -0.035641
vn -0.004463 -0.999355 -0.035641
vn -0.004463 -0.999355 -0.035641
vn -0.004463 -0.999355 -0.035641
vn -0.999989 0.004500 -0.000965
vn -0.999989 0.004500 -0.000965
vn -0.999989 0.004500 -0.000965
vn -0.999989 0.004500 -0.000965
vn 0.004602 0.974339 -0.225039
vn 0.004602 0.974339 -0.225039
vn 0.004602 0.974339 -0.225039
vn 0.004602 0.974339 -0.225039
vn 0.999989 -0.004500 0.000965
vn 0.999989 -0.004500 0.000965
vn 0.999989 -0.004500 0.000965
vn 0.999989 -0.004500 0.000965
vn 0.004503 0.914099 -0.405466
vn 0.004503 0.914099 -0.405466
vn 0.004503 0.914099 -0.405466
vn 0.004503 0.914099 -0.405466
vn 0.302259 0.952608 0.034311
vn 0.302259 0.952608 0.034311
vn 0.302259 0.952608 0.034311
vn 0.302259 0.952608 0.034311
vn 0.003520 0.882897 0.469553
vn 0.003520 0.882897 0.469553
vn 0.003520 0.882897 0.469553
vn 0.003520 0.882897 0.469553
vn -0.293744 0.955289 0.033734
vn -0.293744 0.955289 0.033734
vn -0.293744 0.955289 0.033734
vn -0.293744 0.955289 0.033734
vn -0.004462 -0.999355 -0.035643
vn -0.004462 -0.999355 -0.035643
vn -0.004462 -0.999355 -0.035643
vn -0.004462 -0.999355 -0.035643
vn -0.999989 0.004499 -0.000965
vn -0.999989 0.004499 -0.000965
vn -0.999989 0.004499 -0.000965
vn -0.999989 0.004499 -0.000965
vn -0.001125 -0.035638 0.999364
vn -0.001125 -0.035638 0.999364
vn -0.001125 -0.035638 0.999364
vn -0.001125 -0.035638 0.999364
vn 0.999989 -0.004499 0.000965
vn 0.999989 -0.004499 0.000965
vn 0.999989 -0.004499 0.000965
vn 0.999989 -0.004499 0.000965
vn 0.001125 0.035636 -0.999364
vn 0.001125 0.035636 -0.999364
vn 0.001125 0.035636 -0.999364
vn 0.001125 0.035636 -0.999364
vn 0.999989 -0.004499 0.000965
vn 0.999989 -0.004499 0.000965
vn 0.999989 -0.004499 0.000965
vn 0.999989 -0.004499 0.000965
vn -0.004463 -0.999355 -0.035638
vn -0.004463 -0.999355 -0.035638
vn -0.004463 -0.999355 -0.035638
vn -0.004463 -0.999355 -0.035638
vn -0.999989 0.004499 -0.000965
vn -0.999989 0.004499 -0.000965
vn -0.999989 0.004499 -0.000965
vn -0.999989 0.004499 -0.000965
vn 0.004462 0.999355 0.035643
vn 0.004462 0.999355 0.035643
vn 0.004462 0.999355 0.035643
vn 0.004462 0.999355 0.035643
vn 0.004465 0.999355 0.035645
vn 0.004465 0.999355 0.035645
vn 0.004465 0.999355 0.035645
vn 0.004465 0.999355 0.035645
vn 0.004462 0.999355 0.035631
vn 0.004462 0.999355 0.035631
vn 0.004462 0.999355 0.035631
vn 0.004462 0.999355 0.035631
vn 0.004461 0.999355 0.035642
vn 0.004461 0.999355 0.035642
vn 0.004461 0.999355 0.035642
vn 0.004461 0.999355 0.035642
vn 0.004462 0.999355 0.035641
vn 0.004462 0.999355 0.035641
vn 0.004462 0.999355 0.035641
vn 0.004462 0.999355 0.035641
vn -0.999989 0.004512 -0.001283
vn -0.999989 0.004512 -0.001283
vn -0.999989 0.004512 -0.001283
vn -0.999989 0.004512 -0.001283
vn -0.000852 -0.035648 0.999364
vn -0.000852 -0.035648 0.999364
vn -0.000852 -0.035648 0.999364
vn -0.000852 -0.035648 0.999364
vn 0.999989 -0.004510 0.001283
vn 0.999989 -0.004510 0.001283
vn 0.999989 -0.004510 0.001283
vn 0.999989 -0.004510 0.001283
vn 0.000853 0.035652 -0.999364
vn 0.000853 0.035652 -0.999364
vn 0.000853 0.035652 -0.999364
vn 0.000853 0.035652 -0.999364
s off
f 13/1/1 14/2/2 15/3/3 16/4/4
f 4/5/5 1/6/6 2/7/7 3/8/8
f 3/9/9 2/10/10 5/11/11 6/12/12
f 6/13/13 5/14/14 7/15/15 8/16/16
f 6/17/17 8/18/18 4/19/19 3/20/20
f 5/21/21 2/22/22 1/23/23 7/24/24
f 1/25/25 4/26/26 10/27/27 9/28/28
f 4/26/29 8/29/30 11/30/31 10/27/32
f 8/29/33 7/31/34 12/32/35 11/30/36
f 7/31/37 1/25/38 9/28/39 12/32/40
f 9/28/41 10/27/42 14/2/43 13/1/44
f 10/27/45 11/30/46 15/3/47 14/2/48
f 11/30/49 12/32/50 16/4/51 15/3/52
f 12/32/53 9/28/54 13/1/55 16/4/56
f 17/33/57 18/34/58 23/35/59
f 24/36/60 22/37/61 20/38/62 26/39/63
f 18/40/64 17/41/65 22/42/66 21/43/67
f 24/44/68 23/45/69 18/46/70 21/47/71
f 22/48/72 17/49/73 19/50/74 20/51/75
f 45/52/76 46/53/77 47/54/78 48/55/79
f 26/56/80 25/57/81 27/58/82 28/59/83
f 23/45/84 24/44/85 28/60/86 27/61/87
f 24/36/88 26/39/89 28/62/90
f 25/63/91 23/35/92 27/64/93
f 17/33/94 23/35/95 25/63/96 19/65/97
f 22/37/98 24/36/99 21/66/100
f 20/67/101 19/68/102 30/69/103 29/70/104
f 19/68/105 25/71/106 31/72/107 30/69/108
f 25/71/109 26/73/110 32/74/111 31/72/112
f 26/73/113 20/67/114 29/70/115 32/74/116
f 29/75/117 30/76/118 34/77/119 33/78/120
f 30/79/121 31/80/122 35/81/123 34/82/124
f 31/83/125 32/84/126 36/85/127 35/86/128
f 32/87/129 29/88/130 33/89/131 36/90/132
f 33/91/133 34/92/134 38/93/135 37/94/136
f 34/92/137 35/95/138 39/96/139 38/93/140
f 35/95/141 36/97/142 40/98/143 39/96/144
f 36/97/145 33/91/146 37/94/147 40/98/148
f 37/99/149 38/100/150 55/101/151 56/102/152
f 38/103/153 39/104/154 58/105/155 55/106/156
f 39/107/157 40/108/158 57/109/159 58/110/160
f 40/111/161 37/112/162 56/113/163 57/114/164
f 41/115/165 42/116/166 50/117/167 49/118/168
f 42/119/169 43/120/170 47/121/171 50/122/172
f 43/123/173 44/124/174 48/125/175 47/126/176
f 44/127/177 41/128/178 49/129/179 48/130/180
f 48/130/181 49/129/182 45/131/183
f 50/122/184 47/121/185 46/132/186
f 52/133/187 51/134/188 53/135/189 54/136/190
f 49/137/191 50/138/192 51/139/193 52/140/194
f 50/122/195 46/132/196 53/141/197 51/142/198
f 46/53/199 45/52/200 54/143/201 53/144/202
f 45/131/203 49/129/204 52/145/205 54/146/206
f 56/147/207 55/148/208 42/149/209 41/150/210
f 57/114/211 56/113/212 41/151/213 44/152/214
f 58/110/215 57/109/216 44/153/217 43/154/218
f 55/106/219 58/105/220 43/155/221 42/156/222
f 69/157/223 70/158/224 59/159/225 62/160/226
f 59/161/227 70/162/228 67/163/229 63/164/230
f 65/165/231 64/166/232 60/167/233 61/168/234
f 66/169/235 68/170/236 69/171/237 62/172/238
f 59/173/239 63/174/240 66/175/241 62/176/242
f 69/171/243 68/170/244 65/165/245 61/168/246
f 60/177/247 70/178/248 69/179/249 61/180/250
f 67/163/251 70/162/252 60/167/253 64/166/254
f 75/181/255 76/182/256 77/183/257 78/184/258
f 65/185/259 68/186/260 72/187/261 71/188/262
f 68/186/263 67/189/264 73/190/265 72/187/266
f 67/189/267 64/191/268 74/192/269 73/190/270
f 64/191/271 65/185/272 71/188/273 74/192/274
f 71/193/275 72/194/276 76/195/277 75/196/278
f 72/194/279 73/197/280 77/198/281 76/195/282
f 73/197/283 74/199/284 78/200/285 77/198/286
f 74/199/287 71/193/288 75/196/289 78/200/290
