# This file uses meters as units for non-parametric coordinates.

v -0.742081 2.016532 0.168545
v 0.755386 2.016532 0.168545
v -0.742081 2.226584 0.168545
v 0.755386 2.226584 0.168545
v -0.742081 2.226584 -0.041508
v 0.755386 2.226584 -0.041508
v -0.742081 2.016532 -0.041508
v 0.755386 2.016532 -0.041508
v -0.742081 6.425687 0.168545
v 0.755386 6.425687 0.168545
v -0.742081 6.635738 0.168545
v 0.755386 6.635738 0.168545
v -0.742081 6.635738 -0.041508
v 0.755386 6.635738 -0.041508
v -0.742081 6.425687 -0.041508
v 0.755386 6.425687 -0.041508
v -0.740036 5.481864 0.168545
v 0.753311 5.370430 0.168545
v -0.724411 5.691335 0.168545
v 0.768936 5.579900 0.168545
v -0.724411 5.691335 -0.041508
v 0.768936 5.579900 -0.041508
v -0.740036 5.481864 -0.041508
v 0.753311 5.370430 -0.041508
v 0.342697 0.000000 0.039936
v 0.551193 0.000000 0.039936
v 0.342697 7.798604 0.039936
v 0.551193 7.798604 0.039936
v 0.342697 7.798604 -0.168545
v 0.551193 7.798604 -0.168545
v 0.342697 0.000000 -0.168545
v 0.551193 0.000000 -0.168545
v 0.287918 3.320627 -0.168545
v 0.287918 3.320627 0.039936
v 0.496399 3.320627 0.039936
v 0.496399 3.320627 -0.168545
v 0.608505 5.541164 0.039936
v 0.400040 5.541164 0.039936
v 0.400040 5.541163 -0.168545
v 0.608505 5.541163 -0.168545
v -0.346909 0.000000 0.039936
v -0.555405 0.000000 0.039936
v -0.346909 7.798604 0.039936
v -0.555405 7.798604 0.039936
v -0.346909 7.798604 -0.168545
v -0.555405 7.798604 -0.168545
v -0.346909 0.000000 -0.168545
v -0.555405 0.000000 -0.168545
v -0.382980 4.377579 -0.168545
v -0.382980 4.377579 0.039936
v -0.591476 4.377579 0.039936
v -0.591476 4.377579 -0.168545
v -0.449875 6.315978 0.039936
v -0.241409 6.315978 0.039936
v -0.241409 6.315978 -0.168545
v -0.449875 6.315978 -0.168545
v -0.740036 3.787535 0.168545
v 0.753342 3.898578 0.168545
v -0.755600 3.997009 0.168545
v 0.737762 4.108051 0.168545
v -0.755600 3.997009 -0.041508
v 0.737762 4.108051 -0.041508
v -0.740036 3.787535 -0.041508
v 0.753342 3.898578 -0.041508
v -0.739761 1.113025 0.168545
v 0.753021 0.994391 0.168545
v -0.723114 1.322416 0.168545
v 0.769669 1.203783 0.168545
v -0.723114 1.322416 -0.041508
v 0.769669 1.203783 -0.041508
v -0.739761 1.113025 -0.041508
v 0.753021 0.994391 -0.041508
vt 0.233800 0.512531
vt 0.233800 0.512531
vt 0.233800 0.512531
vt 0.233800 0.512531
vt 0.292747 0.512531
vt 0.292747 0.512531
vt 0.292747 0.512531
vt 0.292747 0.512531
vt 0.233800 0.512531
vt 0.233800 0.512531
vt 0.233800 0.512531
vt 0.233800 0.512531
vt 0.168561 0.512531
vt 0.168560 0.512531
vt 0.168560 0.512531
vt 0.168561 0.512531
vt 0.969334 0.521223
vt 0.969334 0.521223
vt 0.969334 0.521224
vt 0.969334 0.521224
vt 0.969334 0.521223
vt 0.969334 0.521223
vt 0.969334 0.521224
vt 0.969334 0.521224
vt 0.233800 0.512531
vt 0.233800 0.512531
vt 0.233800 0.512531
vt 0.233800 0.512531
vt 0.292747 0.512531
vt 0.292747 0.512531
vt 0.292747 0.512531
vt 0.292747 0.512531
vt 0.233800 0.512531
vt 0.233800 0.512531
vt 0.233800 0.512531
vt 0.233800 0.512531
vt 0.168561 0.512531
vt 0.168560 0.512531
vt 0.168560 0.512531
vt 0.168561 0.512531
vt 0.969334 0.521224
vt 0.969334 0.521224
vt 0.969334 0.521224
vt 0.969334 0.521224
vt 0.969334 0.521224
vt 0.969334 0.521224
vt 0.969334 0.521224
vt 0.969334 0.521224
vt 0.233800 0.512531
vt 0.233800 0.512531
vt 0.233800 0.512531
vt 0.233800 0.512531
vt 0.292747 0.512531
vt 0.292747 0.512531
vt 0.292747 0.512531
vt 0.292747 0.512531
vt 0.233800 0.512531
vt 0.233800 0.512531
vt 0.233800 0.512531
vt 0.233800 0.512531
vt 0.168561 0.512531
vt 0.168560 0.512531
vt 0.168560 0.512531
vt 0.168561 0.512531
vt 0.969334 0.521224
vt 0.969334 0.521224
vt 0.969334 0.521224
vt 0.969334 0.521224
vt 0.969334 0.521224
vt 0.969334 0.521224
vt 0.969334 0.521224
vt 0.969334 0.521224
vt 0.233800 0.512531
vt 0.233800 0.512531
vt 0.233800 0.512531
vt 0.233800 0.512531
vt 0.969334 0.521224
vt 0.969334 0.521224
vt 0.969334 0.521224
vt 0.969334 0.521224
vt 0.233800 0.512531
vt 0.233800 0.512531
vt 0.233800 0.512531
vt 0.233800 0.512531
vt 0.969334 0.521223
vt 0.969334 0.521223
vt 0.969334 0.521223
vt 0.969334 0.521223
vt 0.202033 0.512531
vt 0.202032 0.512531
vt 0.202032 0.512531
vt 0.202033 0.512531
vt 0.202033 0.512531
vt 0.202033 0.512531
vt 0.202033 0.512531
vt 0.202033 0.512531
vt 0.202033 0.512531
vt 0.202033 0.512531
vt 0.233800 0.512531
vt 0.233800 0.512531
vt 0.202033 0.512531
vt 0.202032 0.512531
vt 0.233800 0.512531
vt 0.233800 0.512531
vt 0.233800 0.512531
vt 0.233800 0.512531
vt 0.202033 0.512531
vt 0.202033 0.512531
vt 0.233800 0.512531
vt 0.233800 0.512531
vt 0.202032 0.512531
vt 0.202033 0.512531
vt 0.233800 0.512531
vt 0.233800 0.512531
vt 0.233800 0.512531
vt 0.233800 0.512531
vt 0.969334 0.521224
vt 0.969334 0.521224
vt 0.969334 0.521224
vt 0.969334 0.521224
vt 0.233800 0.512531
vt 0.233800 0.512531
vt 0.233800 0.512531
vt 0.233800 0.512531
vt 0.969334 0.521223
vt 0.969334 0.521223
vt 0.969334 0.521223
vt 0.969334 0.521223
vt 0.202033 0.512531
vt 0.202033 0.512531
vt 0.202032 0.512531
vt 0.202032 0.512531
vt 0.202033 0.512531
vt 0.202033 0.512531
vt 0.202033 0.512531
vt 0.202033 0.512531
vt 0.202033 0.512531
vt 0.202033 0.512531
vt 0.233800 0.512531
vt 0.233800 0.512531
vt 0.202033 0.512531
vt 0.202032 0.512531
vt 0.233800 0.512531
vt 0.233800 0.512531
vt 0.233800 0.512531
vt 0.233800 0.512531
vt 0.202033 0.512531
vt 0.202033 0.512531
vt 0.233800 0.512531
vt 0.233800 0.512531
vt 0.202033 0.512531
vt 0.202032 0.512531
vt 0.233800 0.512531
vt 0.233800 0.512531
vt 0.233800 0.512531
vt 0.233800 0.512531
vt 0.292747 0.512531
vt 0.292747 0.512531
vt 0.292747 0.512531
vt 0.292747 0.512531
vt 0.233800 0.512531
vt 0.233800 0.512531
vt 0.233800 0.512531
vt 0.233800 0.512531
vt 0.168561 0.512531
vt 0.168560 0.512531
vt 0.168560 0.512531
vt 0.168561 0.512531
vt 0.969334 0.521224
vt 0.969334 0.521224
vt 0.969334 0.521224
vt 0.969334 0.521224
vt 0.969334 0.521224
vt 0.969334 0.521224
vt 0.969334 0.521224
vt 0.969334 0.521224
vt 0.233800 0.512531
vt 0.233800 0.512531
vt 0.233800 0.512531
vt 0.233800 0.512531
vt 0.292747 0.512531
vt 0.292747 0.512531
vt 0.292747 0.512531
vt 0.292747 0.512531
vt 0.233800 0.512531
vt 0.233800 0.512531
vt 0.233800 0.512531
vt 0.233800 0.512531
vt 0.168561 0.512531
vt 0.168560 0.512531
vt 0.168560 0.512531
vt 0.168561 0.512531
vt 0.969334 0.521223
vt 0.969334 0.521223
vt 0.969334 0.521224
vt 0.969334 0.521224
vt 0.969334 0.521223
vt 0.969334 0.521223
vt 0.969334 0.521224
vt 0.969334 0.521224
vn 0.000000 0.000000 1.000000
vn 0.000000 0.000000 1.000000
vn 0.000000 0.000000 1.000000
vn 0.000000 0.000000 1.000000
vn 0.000000 1.000000 0.000000
vn 0.000000 1.000000 0.000000
vn 0.000000 1.000000 0.000000
vn 0.000000 1.000000 0.000000
vn 0.000000 0.000000 -1.000000
vn 0.000000 0.000000 -1.000000
vn 0.000000 0.000000 -1.000000
vn 0.000000 0.000000 -1.000000
vn 0.000000 -1.000000 0.000000
vn 0.000000 -1.000000 0.000000
vn 0.000000 -1.000000 0.000000
vn 0.000000 -1.000000 0.000000
vn 1.000000 0.000000 0.000000
vn 1.000000 0.000000 0.000000
vn 1.000000 0.000000 0.000000
vn 1.000000 0.000000 0.000000
vn -1.000000 0.000000 0.000000
vn -1.000000 0.000000 0.000000
vn -1.000000 0.000000 0.000000
vn -1.000000 0.000000 0.000000
vn 0.000000 0.000000 1.000000
vn 0.000000 0.000000 1.000000
vn 0.000000 0.000000 1.000000
vn 0.000000 0.000000 1.000000
vn 0.000000 1.000000 0.000000
vn 0.000000 1.000000 0.000000
vn 0.000000 1.000000 0.000000
vn 0.000000 1.000000 0.000000
vn 0.000000 0.000000 -1.000000
vn 0.000000 0.000000 -1.000000
vn 0.000000 0.000000 -1.000000
vn 0.000000 0.000000 -1.000000
vn 0.000000 -1.000000 0.000000
vn 0.000000 -1.000000 0.000000
vn 0.000000 -1.000000 0.000000
vn 0.000000 -1.000000 0.000000
vn 1.000000 0.000000 0.000000
vn 1.000000 0.000000 0.000000
vn 1.000000 0.000000 0.000000
vn 1.000000 0.000000 0.000000
vn -1.000000 0.000000 0.000000
vn -1.000000 0.000000 0.000000
vn -1.000000 0.000000 0.000000
vn -1.000000 0.000000 0.000000
vn 0.000000 0.000000 1.000000
vn 0.000000 0.000000 1.000000
vn 0.000000 0.000000 1.000000
vn 0.000000 0.000000 1.000000
vn 0.074413 0.997227 0.000000
vn 0.074413 0.997227 0.000000
vn 0.074413 0.997227 0.000000
vn 0.074413 0.997227 0.000000
vn 0.000002 0.000000 -1.000000
vn 0.000002 0.000000 -1.000000
vn 0.000002 0.000000 -1.000000
vn 0.000002 0.000000 -1.000000
vn -0.074414 -0.997227 0.000000
vn -0.074414 -0.997227 0.000000
vn -0.074414 -0.997227 0.000000
vn -0.074414 -0.997227 0.000000
vn 0.997226 -0.074440 0.000000
vn 0.997226 -0.074440 0.000000
vn 0.997226 -0.074440 0.000000
vn 0.997226 -0.074440 0.000000
vn -0.997232 0.074354 0.000000
vn -0.997232 0.074354 0.000000
vn -0.997232 0.074354 0.000000
vn -0.997232 0.074354 0.000000
vn 0.000000 0.000000 1.000000
vn 0.000000 0.000000 1.000000
vn 0.000000 0.000000 1.000000
vn 0.000000 0.000000 1.000000
vn 0.000000 1.000000 0.000000
vn 0.000000 1.000000 0.000000
vn 0.000000 1.000000 0.000000
vn 0.000000 1.000000 0.000000
vn 0.000000 0.000000 -1.000000
vn 0.000000 0.000000 -1.000000
vn 0.000000 0.000000 -1.000000
vn 0.000000 0.000000 -1.000000
vn 0.000000 -1.000000 0.000000
vn 0.000000 -1.000000 0.000000
vn 0.000000 -1.000000 0.000000
vn 0.000000 -1.000000 0.000000
vn 0.998728 -0.050423 0.000000
vn 0.998728 -0.050423 0.000000
vn 0.998728 -0.050423 0.000000
vn 0.998728 -0.050423 0.000000
vn -0.998728 0.050431 -0.000000
vn -0.998728 0.050431 -0.000000
vn -0.998728 0.050431 -0.000000
vn -0.998728 0.050431 -0.000000
vn -0.999988 -0.004927 0.000000
vn -0.999988 -0.004927 0.000000
vn -0.999988 -0.004927 0.000000
vn -0.999988 -0.004927 0.000000
vn 0.000000 0.000000 1.000000
vn 0.000000 0.000000 1.000000
vn 0.000000 0.000000 1.000000
vn 0.000000 0.000000 1.000000
vn 0.999988 0.004928 0.000000
vn 0.999988 0.004928 0.000000
vn 0.999988 0.004928 0.000000
vn 0.999988 0.004928 0.000000
vn 0.000000 0.000000 -1.000000
vn 0.000000 0.000000 -1.000000
vn 0.000000 0.000000 -1.000000
vn 0.000000 0.000000 -1.000000
vn 0.000000 0.000000 1.000000
vn 0.000000 0.000000 1.000000
vn 0.000000 0.000000 1.000000
vn 0.000000 0.000000 1.000000
vn -0.999678 -0.025394 0.000000
vn -0.999678 -0.025394 0.000000
vn -0.999678 -0.025394 0.000000
vn -0.999678 -0.025394 0.000000
vn 0.000000 0.000000 -1.000000
vn 0.000000 0.000000 -1.000000
vn 0.000000 0.000000 -1.000000
vn 0.000000 0.000000 -1.000000
vn 0.999678 0.025378 0.000000
vn 0.999678 0.025378 0.000000
vn 0.999678 0.025378 0.000000
vn 0.999678 0.025378 0.000000
vn 0.000000 0.000000 1.000000
vn 0.000000 0.000000 1.000000
vn 0.000000 0.000000 1.000000
vn 0.000000 0.000000 1.000000
vn 0.000000 1.000000 0.000000
vn 0.000000 1.000000 0.000000
vn 0.000000 1.000000 0.000000
vn 0.000000 1.000000 0.000000
vn 0.000000 0.000000 -1.000000
vn 0.000000 0.000000 -1.000000
vn 0.000000 0.000000 -1.000000
vn 0.000000 0.000000 -1.000000
vn 0.000000 -1.000000 0.000000
vn 0.000000 -1.000000 0.000000
vn 0.000000 -1.000000 0.000000
vn 0.000000 -1.000000 0.000000
vn -0.997342 0.072858 0.000000
vn -0.997342 0.072858 0.000000
vn -0.997342 0.072858 0.000000
vn -0.997342 0.072858 0.000000
vn 0.997344 -0.072839 0.000000
vn 0.997344 -0.072839 0.000000
vn 0.997344 -0.072839 0.000000
vn 0.997344 -0.072839 0.000000
vn 0.999996 0.002962 0.000000
vn 0.999996 0.002962 0.000000
vn 0.999996 0.002962 0.000000
vn 0.999996 0.002962 0.000000
vn 0.000000 0.000000 1.000000
vn 0.000000 0.000000 1.000000
vn 0.000000 0.000000 1.000000
vn 0.000000 0.000000 1.000000
vn -0.999996 -0.002963 0.000000
vn -0.999996 -0.002963 0.000000
vn -0.999996 -0.002963 0.000000
vn -0.999996 -0.002963 0.000000
vn 0.000000 0.000000 -1.000000
vn 0.000000 0.000000 -1.000000
vn 0.000000 0.000000 -1.000000
vn 0.000000 0.000000 -1.000000
vn 0.000000 0.000000 1.000000
vn 0.000000 0.000000 1.000000
vn 0.000000 0.000000 1.000000
vn 0.000000 0.000000 1.000000
vn 0.997478 0.070980 0.000000
vn 0.997478 0.070980 0.000000
vn 0.997478 0.070980 0.000000
vn 0.997478 0.070980 0.000000
vn 0.000000 0.000000 -1.000000
vn 0.000000 0.000000 -1.000000
vn 0.000000 0.000000 -1.000000
vn 0.000000 0.000000 -1.000000
vn -0.997477 -0.070992 0.000000
vn -0.997477 -0.070992 0.000000
vn -0.997477 -0.070992 0.000000
vn -0.997477 -0.070992 0.000000
vn 0.000002 0.000000 1.000000
vn 0.000002 0.000000 1.000000
vn 0.000002 0.000000 1.000000
vn 0.000002 0.000000 1.000000
vn -0.074152 0.997247 0.000000
vn -0.074152 0.997247 0.000000
vn -0.074152 0.997247 0.000000
vn -0.074152 0.997247 0.000000
vn 0.000002 0.000000 -1.000000
vn 0.000002 0.000000 -1.000000
vn 0.000002 0.000000 -1.000000
vn 0.000002 0.000000 -1.000000
vn 0.074153 -0.997247 0.000000
vn 0.074153 -0.997247 0.000000
vn 0.074153 -0.997247 0.000000
vn 0.074153 -0.997247 0.000000
vn 0.997245 0.074181 0.000000
vn 0.997245 0.074181 0.000000
vn 0.997245 0.074181 0.000000
vn 0.997245 0.074181 0.000000
vn -0.997251 -0.074095 0.000000
vn -0.997251 -0.074095 0.000000
vn -0.997251 -0.074095 0.000000
vn -0.997251 -0.074095 0.000000
vn 0.000000 0.000000 1.000000
vn 0.000000 0.000000 1.000000
vn 0.000000 0.000000 1.000000
vn 0.000000 0.000000 1.000000
vn 0.079221 0.996857 0.000000
vn 0.079221 0.996857 0.000000
vn 0.079221 0.996857 0.000000
vn 0.079221 0.996857 0.000000
vn 0.000000 0.000000 -1.000000
vn 0.000000 0.000000 -1.000000
vn 0.000000 0.000000 -1.000000
vn 0.000000 0.000000 -1.000000
vn -0.079222 -0.996857 0.000000
vn -0.079222 -0.996857 0.000000
vn -0.079222 -0.996857 0.000000
vn -0.079222 -0.996857 0.000000
vn 0.996852 -0.079282 0.000000
vn 0.996852 -0.079282 0.000000
vn 0.996852 -0.079282 0.000000
vn 0.996852 -0.079282 0.000000
vn -0.996859 0.079196 0.000000
vn -0.996859 0.079196 0.000000
vn -0.996859 0.079196 0.000000
vn -0.996859 0.079196 0.000000
s off
f 1/1/1 2/2/2 4/3/3 3/4/4
f 3/5/5 4/6/6 6/7/7 5/8/8
f 5/9/9 6/10/10 8/11/11 7/12/12
f 7/13/13 8/14/14 2/15/15 1/16/16
f 2/17/17 8/18/18 6/19/19 4/20/20
f 7/21/21 1/22/22 3/23/23 5/24/24
f 9/25/25 10/26/26 12/27/27 11/28/28
f 11/29/29 12/30/30 14/31/31 13/32/32
f 13/33/33 14/34/34 16/35/35 15/36/36
f 15/37/37 16/38/38 10/39/39 9/40/40
f 10/41/41 16/42/42 14/43/43 12/44/44
f 15/45/45 9/46/46 11/47/47 13/48/48
f 17/49/49 18/50/50 20/51/51 19/52/52
f 19/53/53 20/54/54 22/55/55 21/56/56
f 21/57/57 22/58/58 24/59/59 23/60/60
f 23/61/61 24/62/62 18/63/63 17/64/64
f 18/65/65 24/66/66 22/67/67 20/68/68
f 23/69/69 17/70/70 19/71/71 21/72/72
f 34/73/73 35/74/74 37/75/75 38/76/76
f 27/77/77 28/78/78 30/79/79 29/80/80
f 39/81/81 40/82/82 36/83/83 33/84/84
f 31/85/85 32/86/86 26/87/87 25/88/88
f 35/89/89 36/90/90 40/91/91 37/92/92
f 33/93/93 34/94/94 38/95/95 39/96/96
f 31/97/97 25/98/98 34/94/99 33/93/100
f 25/99/101 26/100/102 35/74/103 34/73/104
f 26/101/105 32/102/106 36/90/107 35/89/108
f 33/84/109 36/83/110 32/103/111 31/104/112
f 38/76/113 37/75/114 28/105/115 27/106/116
f 39/96/117 38/95/118 27/107/119 29/108/120
f 29/109/121 30/110/122 40/82/123 39/81/124
f 37/92/125 40/91/126 30/111/127 28/112/128
f 50/113/129 54/114/130 53/115/131 51/116/132
f 43/117/133 45/118/134 46/119/135 44/120/136
f 55/121/137 49/122/138 52/123/139 56/124/140
f 47/125/141 41/126/142 42/127/143 48/128/144
f 51/129/145 53/130/146 56/131/147 52/132/148
f 49/133/149 55/134/150 54/135/151 50/136/152
f 47/137/153 49/133/154 50/136/155 41/138/156
f 41/139/157 50/113/158 51/116/159 42/140/160
f 42/141/161 51/129/162 52/132/163 48/142/164
f 49/122/165 47/143/166 48/144/167 52/123/168
f 54/114/169 43/145/170 44/146/171 53/115/172
f 55/134/173 45/147/174 43/148/175 54/135/176
f 45/149/177 55/121/178 56/124/179 46/150/180
f 53/130/181 44/151/182 46/152/183 56/131/184
f 57/153/185 58/154/186 60/155/187 59/156/188
f 59/157/189 60/158/190 62/159/191 61/160/192
f 61/161/193 62/162/194 64/163/195 63/164/196
f 63/165/197 64/166/198 58/167/199 57/168/200
f 58/169/201 64/170/202 62/171/203 60/172/204
f 63/173/205 57/174/206 59/175/207 61/176/208
f 65/177/209 66/178/210 68/179/211 67/180/212
f 67/181/213 68/182/214 70/183/215 69/184/216
f 69/185/217 70/186/218 72/187/219 71/188/220
f 71/189/221 72/190/222 66/191/223 65/192/224
f 66/193/225 72/194/226 70/195/227 68/196/228
f 71/197/229 65/198/230 67/199/231 69/200/232
