# This file uses meters as units for non-parametric coordinates.

v 0.091858 0.868593 0.214042
v 0.207249 0.983485 0.208176
v 0.207737 1.146440 0.208151
v 0.093014 1.262003 0.213983
v -0.069740 1.262477 0.222257
v -0.185127 1.147585 0.228122
v -0.185616 0.984629 0.228147
v -0.070896 0.869066 0.222315
v 0.069679 0.868593 -0.222254
v 0.185070 0.983485 -0.228119
v 0.185558 1.146440 -0.228144
v 0.070835 1.262003 -0.222313
v -0.091919 1.262477 -0.214039
v -0.207306 1.147585 -0.208174
v -0.207794 0.984629 -0.208149
v -0.093075 0.869066 -0.213981
v 1.054344 0.621611 -0.195824
v 1.056969 1.503267 -0.195957
v 0.436127 2.128505 -0.164397
v -0.444389 2.131069 -0.119637
v -1.068829 1.509458 -0.087895
v -1.071388 0.627803 -0.087765
v -0.450607 0.002564 -0.119322
v 0.429970 0.000000 -0.164084
v 1.068638 0.621611 0.085338
v 1.071259 1.503267 0.085205
v 0.450417 2.128505 0.116764
v -0.430099 2.131069 0.161524
v -1.054535 1.509458 0.193267
v -1.057095 0.627803 0.193397
v -0.436317 0.002564 0.161840
v 0.444260 0.000000 0.117077
v -0.790745 0.743250 -0.102031
v -0.333694 0.282909 -0.125265
v -0.788857 1.392378 -0.102127
v -0.329060 1.850048 -0.125500
v 0.319210 1.848161 -0.158454
v 0.776260 1.387820 -0.181688
v 0.774372 0.738691 -0.181592
v 0.314640 0.281021 -0.158222
v 0.328934 0.281021 0.122940
v 0.788666 0.738691 0.099570
v 0.790554 1.387820 0.099474
v 0.333504 1.848161 0.122707
v -0.314770 1.850048 0.155662
v -0.774563 1.392378 0.179034
v -0.776451 0.743250 0.179131
v -0.319401 0.282909 0.155897
v 0.282028 0.944581 -0.156564
v 0.282700 1.184801 -0.156598
v 0.113544 1.355156 -0.148000
v -0.126320 1.355855 -0.135806
v -0.296509 1.186488 -0.127155
v -0.297180 0.946268 -0.127121
v -0.128025 0.775913 -0.135719
v 0.111897 0.775214 -0.147916
v 0.296318 0.944581 0.124598
v 0.296989 1.184801 0.124563
v 0.127838 1.355156 0.133162
v -0.112026 1.355855 0.145355
v -0.282219 1.186488 0.154007
v -0.282887 0.946268 0.154041
v -0.113735 0.775913 0.145442
v 0.126190 0.775214 0.133246
v -0.525452 0.437227 -0.044380
v -0.518372 0.437227 0.094875
v -0.631149 0.543042 -0.039007
v -0.624073 0.543042 0.100248
v 0.518185 1.693841 -0.097432
v 0.525261 1.693841 0.041823
v 0.623882 1.588027 -0.102805
v 0.630959 1.588027 0.036450
v -0.816338 0.990713 -0.029593
v -0.809258 0.990713 0.109662
v -0.816338 1.140357 -0.029593
v -0.809258 1.140357 0.109662
v 0.809067 1.140357 -0.112219
v 0.816147 1.140357 0.027036
v 0.809067 0.990713 -0.112219
v 0.816147 0.990713 0.027036
v -0.631149 1.588027 -0.039007
v -0.624073 1.588027 0.100248
v -0.525452 1.693841 -0.044380
v -0.518372 1.693841 0.094875
v 0.623882 0.543042 -0.102805
v 0.630959 0.543042 0.036450
v 0.518185 0.437227 -0.097432
v 0.525261 0.437227 0.041823
v -0.078339 1.879273 -0.067109
v -0.071259 1.879273 0.072146
v 0.071129 1.879273 -0.074707
v 0.078209 1.879273 0.064548
v 0.071129 0.251796 -0.074707
v 0.078209 0.251796 0.064548
v -0.078339 0.251796 -0.067109
v -0.071259 0.251796 0.072146
vt 0.267260 0.063760
vt 0.267260 0.063760
vt 0.267260 0.063760
vt 0.267260 0.063760
vt 0.267260 0.063760
vt 0.267260 0.063760
vt 0.267260 0.063760
vt 0.267260 0.063760
vt 0.234948 0.063760
vt 0.234948 0.063760
vt 0.234948 0.063760
vt 0.234948 0.063760
vt 0.234948 0.063760
vt 0.234948 0.063760
vt 0.234948 0.063760
vt 0.234948 0.063760
vt 0.234948 0.063760
vt 0.234948 0.063760
vt 0.234948 0.063760
vt 0.234948 0.063760
vt 0.234948 0.063760
vt 0.234948 0.063760
vt 0.234948 0.063760
vt 0.234948 0.063760
vt 0.234948 0.063760
vt 0.234948 0.063760
vt 0.234948 0.063760
vt 0.234948 0.063760
vt 0.234948 0.063760
vt 0.234948 0.063760
vt 0.234948 0.063760
vt 0.234948 0.063760
vt 0.234948 0.063760
vt 0.234948 0.063760
vt 0.234948 0.063760
vt 0.234948 0.063760
vt 0.234948 0.063760
vt 0.234948 0.063760
vt 0.234948 0.063760
vt 0.234948 0.063760
vt 0.263863 0.063760
vt 0.263863 0.063760
vt 0.263863 0.063760
vt 0.263863 0.063760
vt 0.263863 0.063760
vt 0.263863 0.063760
vt 0.263863 0.063760
vt 0.263863 0.063760
vt 0.237171 0.511573
vt 0.237171 0.511573
vt 0.237171 0.511573
vt 0.237171 0.511573
vt 0.237171 0.511573
vt 0.237171 0.511573
vt 0.237171 0.511573
vt 0.237171 0.511573
vt 0.237171 0.511573
vt 0.237171 0.511573
vt 0.237171 0.511573
vt 0.237171 0.511573
vt 0.237171 0.511573
vt 0.237171 0.511573
vt 0.237171 0.511573
vt 0.237171 0.511573
vt 0.237171 0.511573
vt 0.237171 0.511573
vt 0.237171 0.511573
vt 0.237171 0.511573
vt 0.237171 0.511573
vt 0.237171 0.511573
vt 0.237171 0.511573
vt 0.237171 0.511573
vt 0.237171 0.511573
vt 0.237171 0.511573
vt 0.237171 0.511573
vt 0.237171 0.511573
vt 0.237171 0.511573
vt 0.237171 0.511573
vt 0.237171 0.511573
vt 0.237171 0.511573
vt 0.208940 0.511573
vt 0.208940 0.511573
vt 0.208940 0.511573
vt 0.208940 0.511573
vt 0.208940 0.511573
vt 0.208940 0.511573
vt 0.208940 0.511573
vt 0.208940 0.511573
vt 0.208940 0.511573
vt 0.208940 0.511573
vt 0.208940 0.511573
vt 0.208940 0.511573
vt 0.208940 0.511573
vt 0.208940 0.511573
vt 0.208940 0.511573
vt 0.208940 0.511573
vt 0.208940 0.511573
vt 0.208940 0.511573
vt 0.208940 0.511573
vt 0.208940 0.511573
vt 0.208940 0.511573
vt 0.208940 0.511573
vt 0.208940 0.511573
vt 0.208940 0.511573
vt 0.208940 0.511573
vt 0.208940 0.511573
vt 0.208940 0.511573
vt 0.208940 0.511573
vt 0.208940 0.511573
vt 0.208940 0.511573
vt 0.208940 0.511573
vt 0.208940 0.511573
vt 0.142515 0.511573
vt 0.142515 0.511573
vt 0.142515 0.511573
vt 0.142515 0.511573
vt 0.142515 0.511573
vt 0.142515 0.511573
vt 0.142515 0.511573
vt 0.142515 0.511573
vt 0.142515 0.511573
vt 0.142515 0.511573
vt 0.142515 0.511573
vt 0.142515 0.511573
vt 0.142515 0.511573
vt 0.142515 0.511573
vt 0.142515 0.511573
vt 0.142515 0.511573
vt 0.142515 0.511573
vt 0.142515 0.511573
vt 0.142515 0.511573
vt 0.142515 0.511573
vt 0.142515 0.511573
vt 0.142515 0.511573
vt 0.142515 0.511573
vt 0.142515 0.511573
vt 0.142515 0.511573
vt 0.142515 0.511573
vt 0.142515 0.511573
vt 0.142515 0.511573
vt 0.142515 0.511573
vt 0.142515 0.511573
vt 0.142515 0.511573
vt 0.142515 0.511573
vt 0.237171 0.511573
vt 0.237171 0.511573
vt 0.237171 0.511573
vt 0.237171 0.511573
vt 0.237171 0.511573
vt 0.237171 0.511573
vt 0.237171 0.511573
vt 0.237171 0.511573
vt 0.237171 0.511573
vt 0.237171 0.511573
vt 0.237171 0.511573
vt 0.237171 0.511573
vt 0.237171 0.511573
vt 0.237171 0.511573
vt 0.237171 0.511573
vt 0.237171 0.511573
vt 0.237171 0.511573
vt 0.237171 0.511573
vt 0.237171 0.511573
vt 0.237171 0.511573
vt 0.237171 0.511573
vt 0.237171 0.511573
vt 0.237171 0.511573
vt 0.237171 0.511573
vt 0.237171 0.511573
vt 0.237171 0.511573
vt 0.237171 0.511573
vt 0.237171 0.511573
vt 0.237171 0.511573
vt 0.237171 0.511573
vt 0.237171 0.511573
vt 0.237171 0.511573
vt 0.208940 0.511573
vt 0.208940 0.511573
vt 0.208940 0.511573
vt 0.208940 0.511573
vt 0.208940 0.511573
vt 0.208940 0.511573
vt 0.208940 0.511573
vt 0.208940 0.511573
vt 0.208940 0.511573
vt 0.208940 0.511573
vt 0.208940 0.511573
vt 0.208940 0.511573
vt 0.208940 0.511573
vt 0.208940 0.511573
vt 0.208940 0.511573
vt 0.208940 0.511573
vt 0.358580 0.509867
vt 0.358580 0.509867
vt 0.358580 0.509867
vt 0.358580 0.509867
vt 0.326068 0.509867
vt 0.326068 0.509867
vt 0.326068 0.509867
vt 0.326068 0.509867
vt 0.298348 0.509867
vt 0.298348 0.509867
vt 0.298348 0.509867
vt 0.298348 0.509867
vt 0.298348 0.509867
vt 0.298348 0.509867
vt 0.298348 0.509867
vt 0.298348 0.509867
vt 0.358580 0.509867
vt 0.358580 0.509867
vt 0.358580 0.509867
vt 0.358580 0.509867
vt 0.326068 0.509867
vt 0.326068 0.509867
vt 0.326068 0.509867
vt 0.326068 0.509867
vt 0.298348 0.509867
vt 0.298348 0.509867
vt 0.298348 0.509867
vt 0.298348 0.509867
vt 0.298348 0.509867
vt 0.298348 0.509867
vt 0.298348 0.509867
vt 0.298348 0.509867
vt 0.358580 0.509867
vt 0.358580 0.509867
vt 0.358580 0.509867
vt 0.358580 0.509867
vt 0.326068 0.509867
vt 0.326068 0.509867
vt 0.326068 0.509867
vt 0.326068 0.509867
vt 0.298348 0.509867
vt 0.298348 0.509867
vt 0.298348 0.509867
vt 0.298348 0.509867
vt 0.298348 0.509867
vt 0.298348 0.509867
vt 0.298348 0.509867
vt 0.298348 0.509867
vt 0.358580 0.509867
vt 0.358580 0.509867
vt 0.358580 0.509867
vt 0.358580 0.509867
vt 0.326068 0.509867
vt 0.326068 0.509867
vt 0.326068 0.509867
vt 0.326068 0.509867
vt 0.298348 0.509867
vt 0.298348 0.509867
vt 0.298348 0.509867
vt 0.298348 0.509867
vt 0.298348 0.509867
vt 0.298348 0.509867
vt 0.298348 0.509867
vt 0.298348 0.509867
vn 0.050768 0.000000 0.998711
vn 0.050768 0.000000 0.998711
vn 0.050768 0.000000 0.998711
vn 0.050768 0.000000 0.998711
vn 0.050768 0.000000 0.998711
vn 0.050768 0.000000 0.998711
vn 0.050768 0.000000 0.998711
vn 0.050768 0.000000 0.998711
vn 0.704211 -0.709088 -0.035798
vn 0.704211 -0.709088 -0.035798
vn 0.704211 -0.709088 -0.035798
vn 0.704211 -0.709088 -0.035798
vn 0.998706 -0.002996 -0.050768
vn 0.998706 -0.002996 -0.050768
vn 0.998706 -0.002996 -0.050768
vn 0.998706 -0.002996 -0.050768
vn 0.708312 0.704981 -0.036006
vn 0.708312 0.704981 -0.036006
vn 0.708312 0.704981 -0.036006
vn 0.708312 0.704981 -0.036006
vn 0.002903 0.999996 -0.000148
vn 0.002903 0.999996 -0.000148
vn 0.002903 0.999996 -0.000148
vn 0.002903 0.999996 -0.000148
vn -0.704210 0.709089 0.035798
vn -0.704210 0.709089 0.035798
vn -0.704210 0.709089 0.035798
vn -0.704210 0.709089 0.035798
vn -0.998706 0.002996 0.050768
vn -0.998706 0.002996 0.050768
vn -0.998706 0.002996 0.050768
vn -0.998706 0.002996 0.050768
vn -0.708311 -0.704982 0.036006
vn -0.708311 -0.704982 0.036006
vn -0.708311 -0.704982 0.036006
vn -0.708311 -0.704982 0.036006
vn -0.002904 -0.999996 0.000148
vn -0.002904 -0.999996 0.000148
vn -0.002904 -0.999996 0.000148
vn -0.002904 -0.999996 0.000148
vn -0.050768 0.000041 -0.998711
vn -0.050768 0.000041 -0.998711
vn -0.050768 0.000041 -0.998711
vn -0.050768 0.000041 -0.998711
vn -0.050768 0.000041 -0.998711
vn -0.050768 0.000041 -0.998711
vn -0.050768 0.000041 -0.998711
vn -0.050768 0.000041 -0.998711
vn 0.998706 -0.002977 -0.050768
vn 0.998706 -0.002977 -0.050768
vn 0.998706 -0.002977 -0.050768
vn 0.998706 -0.002977 -0.050768
vn 0.708207 0.705086 -0.036001
vn 0.708207 0.705086 -0.036001
vn 0.708207 0.705086 -0.036001
vn 0.708207 0.705086 -0.036001
vn 0.002904 0.999996 -0.000148
vn 0.002904 0.999996 -0.000148
vn 0.002904 0.999996 -0.000148
vn 0.002904 0.999996 -0.000148
vn -0.704157 0.709141 0.035795
vn -0.704157 0.709141 0.035795
vn -0.704157 0.709141 0.035795
vn -0.704157 0.709141 0.035795
vn -0.998706 0.002908 0.050768
vn -0.998706 0.002908 0.050768
vn -0.998706 0.002908 0.050768
vn -0.998706 0.002908 0.050768
vn -0.708269 -0.705024 0.036004
vn -0.708269 -0.705024 0.036004
vn -0.708269 -0.705024 0.036004
vn -0.708269 -0.705024 0.036004
vn -0.002905 -0.999996 0.000148
vn -0.002905 -0.999996 0.000148
vn -0.002905 -0.999996 0.000148
vn -0.002905 -0.999996 0.000148
vn 0.704158 -0.709141 -0.035795
vn 0.704158 -0.709141 -0.035795
vn 0.704158 -0.709141 -0.035795
vn 0.704158 -0.709141 -0.035795
vn -0.050768 0.000000 -0.998711
vn -0.050768 0.000000 -0.998711
vn -0.050768 0.000000 -0.998711
vn -0.050768 0.000000 -0.998710
vn -0.050768 0.000000 -0.998711
vn -0.050768 0.000000 -0.998711
vn -0.050768 0.000000 -0.998711
vn -0.050768 0.000000 -0.998710
vn -0.050768 0.000071 -0.998711
vn -0.050768 0.000071 -0.998711
vn -0.050768 0.000071 -0.998710
vn -0.050768 0.000071 -0.998711
vn -0.050768 0.000027 -0.998711
vn -0.050768 0.000027 -0.998711
vn -0.050768 0.000027 -0.998711
vn -0.050768 0.000027 -0.998711
vn -0.050768 -0.000036 -0.998711
vn -0.050768 -0.000036 -0.998711
vn -0.050768 -0.000036 -0.998710
vn -0.050768 -0.000036 -0.998711
vn -0.050768 0.000000 -0.998711
vn -0.050768 0.000000 -0.998711
vn -0.050768 0.000000 -0.998711
vn -0.050768 0.000000 -0.998711
vn -0.050768 -0.000036 -0.998711
vn -0.050768 -0.000036 -0.998711
vn -0.050768 -0.000036 -0.998711
vn -0.050768 -0.000036 -0.998710
vn -0.050768 -0.000027 -0.998711
vn -0.050768 -0.000027 -0.998711
vn -0.050768 -0.000027 -0.998711
vn -0.050768 -0.000027 -0.998710
vn 0.050768 0.000018 0.998711
vn 0.050768 0.000018 0.998711
vn 0.050768 0.000018 0.998711
vn 0.050768 0.000018 0.998711
vn 0.050768 0.000036 0.998711
vn 0.050768 0.000036 0.998711
vn 0.050768 0.000036 0.998711
vn 0.050768 0.000036 0.998711
vn 0.050768 0.000000 0.998711
vn 0.050768 0.000000 0.998711
vn 0.050768 0.000000 0.998711
vn 0.050768 0.000000 0.998710
vn 0.050768 -0.000044 0.998711
vn 0.050768 -0.000044 0.998711
vn 0.050768 -0.000044 0.998711
vn 0.050768 -0.000044 0.998711
vn 0.050768 0.000053 0.998711
vn 0.050768 0.000053 0.998711
vn 0.050768 0.000053 0.998711
vn 0.050768 0.000053 0.998710
vn 0.050768 0.000000 0.998711
vn 0.050768 0.000000 0.998711
vn 0.050768 0.000000 0.998711
vn 0.050768 0.000000 0.998711
vn 0.050768 -0.000036 0.998711
vn 0.050768 -0.000036 0.998711
vn 0.050768 -0.000036 0.998711
vn 0.050768 -0.000036 0.998710
vn 0.050768 0.000044 0.998711
vn 0.050768 0.000044 0.998711
vn 0.050768 0.000044 0.998710
vn 0.050768 0.000044 0.998711
vn 0.708268 0.705025 -0.036004
vn 0.708268 0.705025 -0.036004
vn 0.708268 0.705025 -0.036004
vn 0.708268 0.705025 -0.036004
vn 0.998706 -0.002915 -0.050768
vn 0.998706 -0.002915 -0.050768
vn 0.998706 -0.002915 -0.050768
vn 0.998706 -0.002915 -0.050768
vn 0.704087 -0.709211 -0.035791
vn 0.704087 -0.709211 -0.035791
vn 0.704087 -0.709211 -0.035791
vn 0.704087 -0.709211 -0.035791
vn -0.002903 -0.999996 0.000148
vn -0.002903 -0.999996 0.000148
vn -0.002903 -0.999996 0.000148
vn -0.002903 -0.999996 0.000148
vn -0.708268 -0.705025 0.036004
vn -0.708268 -0.705025 0.036004
vn -0.708268 -0.705025 0.036004
vn -0.708268 -0.705025 0.036004
vn -0.998706 0.002915 0.050768
vn -0.998706 0.002915 0.050768
vn -0.998706 0.002915 0.050768
vn -0.998706 0.002915 0.050768
vn -0.704149 0.709149 0.035795
vn -0.704149 0.709149 0.035795
vn -0.704149 0.709149 0.035795
vn -0.704149 0.709149 0.035795
vn 0.002904 0.999996 -0.000148
vn 0.002904 0.999996 -0.000148
vn 0.002904 0.999996 -0.000148
vn 0.002904 0.999996 -0.000148
vn 0.998707 -0.002795 -0.050768
vn 0.998707 -0.002795 -0.050768
vn 0.998707 -0.002795 -0.050768
vn 0.998707 -0.002795 -0.050768
vn 0.708254 0.705039 -0.036003
vn 0.708254 0.705039 -0.036003
vn 0.708254 0.705039 -0.036003
vn 0.708254 0.705039 -0.036003
vn 0.002905 0.999996 -0.000148
vn 0.002905 0.999996 -0.000148
vn 0.002905 0.999996 -0.000148
vn 0.002905 0.999996 -0.000148
vn -0.704031 0.709267 0.035789
vn -0.704031 0.709267 0.035789
vn -0.704031 0.709267 0.035789
vn -0.704031 0.709267 0.035789
vn -0.998707 0.002795 0.050768
vn -0.998707 0.002795 0.050768
vn -0.998707 0.002795 0.050768
vn -0.998707 0.002795 0.050768
vn -0.708255 -0.705039 0.036003
vn -0.708255 -0.705039 0.036003
vn -0.708255 -0.705039 0.036003
vn -0.708255 -0.705039 0.036003
vn -0.002905 -0.999996 0.000148
vn -0.002905 -0.999996 0.000148
vn -0.002905 -0.999996 0.000148
vn -0.002905 -0.999996 0.000148
vn 0.704172 -0.709126 -0.035796
vn 0.704172 -0.709126 -0.035796
vn 0.704172 -0.709126 -0.035796
vn 0.704172 -0.709126 -0.035796
vn -0.050768 0.000002 -0.998711
vn -0.050768 0.000002 -0.998711
vn -0.050768 0.000002 -0.998711
vn -0.050768 0.000002 -0.998711
vn -0.050768 0.000002 -0.998711
vn -0.050768 0.000002 -0.998711
vn -0.050768 0.000002 -0.998711
vn -0.050768 0.000002 -0.998711
vn 0.050768 -0.000027 0.998710
vn 0.050768 -0.000027 0.998711
vn 0.050768 -0.000027 0.998711
vn 0.050768 -0.000027 0.998711
vn 0.050768 -0.000027 0.998711
vn 0.050768 -0.000027 0.998711
vn 0.050768 -0.000027 0.998711
vn 0.050768 -0.000027 0.998711
vn -0.706195 0.707107 0.035899
vn -0.706195 0.707107 0.035899
vn -0.706195 0.707107 0.035899
vn -0.706195 0.707107 0.035899
vn 0.706195 -0.707107 -0.035899
vn 0.706195 -0.707107 -0.035899
vn 0.706195 -0.707107 -0.035899
vn 0.706195 -0.707107 -0.035899
vn 0.050768 0.000008 0.998711
vn 0.050768 0.000008 0.998711
vn 0.050768 0.000008 0.998710
vn 0.050768 0.000008 0.998711
vn -0.050768 0.000000 -0.998711
vn -0.050768 0.000000 -0.998711
vn -0.050768 0.000000 -0.998711
vn -0.050768 0.000000 -0.998710
vn 0.000000 1.000000 0.000000
vn 0.000000 1.000000 0.000000
vn 0.000000 1.000000 0.000000
vn 0.000000 1.000000 0.000000
vn 0.000000 -1.000000 0.000000
vn 0.000000 -1.000000 0.000000
vn 0.000000 -1.000000 0.000000
vn 0.000000 -1.000000 0.000000
vn 0.050768 0.000000 0.998710
vn 0.050768 0.000000 0.998710
vn 0.050768 0.000000 0.998710
vn 0.050768 0.000000 0.998710
vn -0.050768 0.000000 -0.998710
vn -0.050768 0.000000 -0.998710
vn -0.050768 0.000000 -0.998710
vn -0.050768 0.000000 -0.998710
vn 0.706195 0.707107 -0.035899
vn 0.706195 0.707107 -0.035899
vn 0.706195 0.707107 -0.035899
vn 0.706195 0.707107 -0.035899
vn -0.706195 -0.707107 0.035899
vn -0.706195 -0.707107 0.035899
vn -0.706195 -0.707107 0.035899
vn -0.706195 -0.707107 0.035899
vn 0.050768 0.000055 0.998711
vn 0.050768 0.000055 0.998711
vn 0.050768 0.000055 0.998711
vn 0.050768 0.000055 0.998711
vn -0.050768 0.000000 -0.998711
vn -0.050768 0.000000 -0.998711
vn -0.050768 0.000000 -0.998710
vn -0.050768 0.000000 -0.998711
vn 0.998710 0.000000 -0.050768
vn 0.998710 0.000000 -0.050768
vn 0.998710 0.000000 -0.050768
vn 0.998710 0.000000 -0.050768
vn -0.998710 0.000000 0.050768
vn -0.998710 0.000000 0.050768
vn -0.998710 0.000000 0.050768
vn -0.998710 0.000000 0.050768
vn 0.050768 0.000000 0.998711
vn 0.050768 0.000000 0.998711
vn 0.050768 0.000000 0.998711
vn 0.050768 0.000000 0.998711
vn -0.050768 0.000000 -0.998711
vn -0.050768 0.000000 -0.998711
vn -0.050768 0.000000 -0.998711
vn -0.050768 0.000000 -0.998711
s off
f 1/1/1 2/2/2 3/3/3 4/4/4 5/5/5 6/6/6 7/7/7 8/8/8
f 9/9/9 10/10/10 2/11/11 1/12/12
f 10/13/13 11/14/14 3/15/15 2/16/16
f 11/17/17 12/18/18 4/19/19 3/20/20
f 12/21/21 13/22/22 5/23/23 4/24/24
f 13/25/25 14/26/26 6/27/27 5/28/28
f 14/29/29 15/30/30 7/31/31 6/32/32
f 15/33/33 16/34/34 8/35/35 7/36/36
f 16/37/37 9/38/38 1/39/39 8/40/40
f 10/41/41 9/42/42 16/43/43 15/44/44 14/45/45 13/46/46 12/47/47 11/48/48
f 17/49/49 18/50/50 26/51/51 25/52/52
f 18/53/53 19/54/54 27/55/55 26/56/56
f 19/57/57 20/58/58 28/59/59 27/60/60
f 20/61/61 21/62/62 29/63/63 28/64/64
f 21/65/65 22/66/66 30/67/67 29/68/68
f 22/69/69 23/70/70 31/71/71 30/72/72
f 23/73/73 24/74/74 32/75/75 31/76/76
f 24/77/77 17/78/78 25/79/79 32/80/80
f 23/81/81 22/82/82 33/83/83 34/84/84
f 22/82/85 21/85/86 35/86/87 33/83/88
f 21/85/89 20/87/90 36/88/91 35/86/92
f 20/87/93 19/89/94 37/90/95 36/88/96
f 19/89/97 18/91/98 38/92/99 37/90/100
f 18/91/101 17/93/102 39/94/103 38/92/104
f 17/93/105 24/95/106 40/96/107 39/94/108
f 24/95/109 23/81/110 34/84/111 40/96/112
f 32/97/113 25/98/114 42/99/115 41/100/116
f 25/98/117 26/101/118 43/102/119 42/99/120
f 26/101/121 27/103/122 44/104/123 43/102/124
f 27/103/125 28/105/126 45/106/127 44/104/128
f 28/105/129 29/107/130 46/108/131 45/106/132
f 29/107/133 30/109/134 47/110/135 46/108/136
f 30/109/137 31/111/138 48/112/139 47/110/140
f 31/111/141 32/97/142 41/100/143 48/112/144
f 34/113/145 33/114/146 47/115/147 48/116/148
f 33/117/149 35/118/150 46/119/151 47/120/152
f 35/121/153 36/122/154 45/123/155 46/124/156
f 36/125/157 37/126/158 44/127/159 45/128/160
f 37/129/161 38/130/162 43/131/163 44/132/164
f 38/133/165 39/134/166 42/135/167 43/136/168
f 39/137/169 40/138/170 41/139/171 42/140/172
f 40/141/173 34/142/174 48/143/175 41/144/176
f 49/145/177 50/146/178 58/147/179 57/148/180
f 50/149/181 51/150/182 59/151/183 58/152/184
f 51/153/185 52/154/186 60/155/187 59/156/188
f 52/157/189 53/158/190 61/159/191 60/160/192
f 53/161/193 54/162/194 62/163/195 61/164/196
f 54/165/197 55/166/198 63/167/199 62/168/200
f 55/169/201 56/170/202 64/171/203 63/172/204
f 56/173/205 49/174/206 57/175/207 64/176/208
f 49/177/209 56/178/210 55/179/211 54/180/212 53/181/213 52/182/214 51/183/215 50/184/216
f 64/185/217 57/186/218 58/187/219 59/188/220 60/189/221 61/190/222 62/191/223 63/192/224
f 67/193/225 68/194/226 70/195/227 69/196/228
f 71/197/229 72/198/230 66/199/231 65/200/232
f 66/201/233 72/202/234 70/203/235 68/204/236
f 71/205/237 65/206/238 67/207/239 69/208/240
f 75/209/241 76/210/242 78/211/243 77/212/244
f 79/213/245 80/214/246 74/215/247 73/216/248
f 74/217/249 80/218/250 78/219/251 76/220/252
f 79/221/253 73/222/254 75/223/255 77/224/256
f 83/225/257 84/226/258 86/227/259 85/228/260
f 87/229/261 88/230/262 82/231/263 81/232/264
f 82/233/265 88/234/266 86/235/267 84/236/268
f 87/237/269 81/238/270 83/239/271 85/240/272
f 91/241/273 92/242/274 94/243/275 93/244/276
f 95/245/277 96/246/278 90/247/279 89/248/280
f 90/249/281 96/250/282 94/251/283 92/252/284
f 95/253/285 89/254/286 91/255/287 93/256/288
