# This file uses meters as units for non-parametric coordinates.

v 0.172310 0.008784 0.026602
v 0.092937 0.008784 -0.015797
v 0.016531 0.008784 0.031743
v 0.019500 0.008784 0.121681
v 0.098873 0.008784 0.164080
v 0.175279 0.008784 0.116540
v 0.172310 0.034155 0.026602
v 0.092937 0.034155 -0.015797
v 0.016531 0.034155 0.031743
v 0.019500 0.034155 0.121681
v 0.098873 0.034155 0.164080
v 0.175279 0.034155 0.116540
v 0.095905 0.034155 0.074142
v -0.038109 0.008784 -0.093353
v -0.128059 0.008784 -0.095944
v -0.175279 0.008784 -0.019340
v -0.132547 0.008784 0.059855
v -0.042597 0.008784 0.062446
v 0.004623 0.008784 -0.014158
v -0.038109 0.034155 -0.093353
v -0.128059 0.034155 -0.095944
v -0.175279 0.034155 -0.019340
v -0.132547 0.034155 0.059855
v -0.042597 0.034155 0.062446
v 0.004623 0.034155 -0.014158
v -0.085328 0.034155 -0.016749
v 0.098886 0.001863 -0.083931
v 0.051727 0.000000 -0.160549
v -0.036593 0.017209 -0.159452
v -0.077755 0.036280 -0.081735
v -0.030596 0.038143 -0.005117
v 0.057724 0.020934 -0.006214
v 0.103649 0.026532 -0.087462
v 0.056490 0.024669 -0.164080
v -0.031830 0.041878 -0.162983
v -0.072992 0.060949 -0.085266
v -0.025833 0.062812 -0.008648
v 0.062487 0.045603 -0.009745
v 0.015328 0.043740 -0.086364
vt 0.578543 0.470127
vt 0.578543 0.470127
vt 0.578543 0.470127
vt 0.578543 0.470127
vt 0.578543 0.470127
vt 0.578543 0.470127
vt 0.578543 0.470127
vt 0.578543 0.470127
vt 0.578543 0.470127
vt 0.578543 0.470127
vt 0.578543 0.470127
vt 0.578543 0.470127
vt 0.578543 0.470127
vt 0.578543 0.470127
vt 0.649501 0.470127
vt 0.649501 0.470127
vt 0.649501 0.470127
vt 0.649501 0.470127
vt 0.649501 0.470127
vt 0.649501 0.470127
vt 0.649501 0.470127
vt 0.649501 0.470127
vt 0.649501 0.470127
vt 0.649501 0.470127
vt 0.578543 0.470127
vt 0.578543 0.470127
vt 0.578543 0.470127
vt 0.578543 0.470127
vt 0.578543 0.470127
vt 0.578543 0.470127
vt 0.578543 0.470127
vt 0.578543 0.470127
vt 0.578543 0.470127
vt 0.578543 0.470127
vt 0.578543 0.470127
vt 0.578543 0.470127
vt 0.578543 0.470127
vt 0.578543 0.470127
vt 0.649501 0.470127
vt 0.649501 0.470127
vt 0.649501 0.470127
vt 0.649501 0.470127
vt 0.649501 0.470127
vt 0.649501 0.470127
vt 0.649501 0.470127
vt 0.649501 0.470127
vt 0.649501 0.470127
vt 0.649501 0.470127
vt 0.578543 0.470127
vt 0.578543 0.470127
vt 0.578543 0.470127
vt 0.578543 0.470127
vt 0.578543 0.470127
vt 0.578543 0.470127
vt 0.578543 0.470127
vt 0.578543 0.470127
vt 0.578543 0.470127
vt 0.578543 0.470127
vt 0.578543 0.470127
vt 0.578543 0.470127
vt 0.578543 0.470127
vt 0.578543 0.470127
vt 0.649501 0.470127
vt 0.649501 0.470127
vt 0.649501 0.470127
vt 0.649501 0.470127
vt 0.649501 0.470127
vt 0.649501 0.470127
vt 0.649501 0.470127
vt 0.649501 0.470127
vt 0.649501 0.470127
vt 0.649501 0.470127
vn 0.471162 0.000000 -0.882046
vn 0.471162 0.000000 -0.882046
vn 0.471162 0.000000 -0.882046
vn 0.471162 0.000000 -0.882046
vn -0.528292 0.000000 -0.849063
vn -0.528292 0.000000 -0.849063
vn -0.528292 0.000000 -0.849063
vn -0.528292 0.000000 -0.849063
vn -0.999456 0.000000 0.032984
vn -0.999456 0.000000 0.032984
vn -0.999456 0.000000 0.032984
vn -0.999456 0.000000 0.032984
vn -0.471162 0.000000 0.882046
vn -0.471162 0.000000 0.882046
vn -0.471162 0.000000 0.882046
vn -0.471162 0.000000 0.882046
vn 0.528292 0.000000 0.849063
vn 0.528292 0.000000 0.849063
vn 0.528292 0.000000 0.849063
vn 0.528292 0.000000 0.849063
vn 0.999456 0.000000 -0.032984
vn 0.999456 0.000000 -0.032984
vn 0.999456 0.000000 -0.032984
vn 0.999456 0.000000 -0.032984
vn 0.000000 1.000000 0.000000
vn 0.000000 1.000000 -0.000000
vn 0.000000 1.000000 -0.000000
vn 0.000000 1.000000 -0.000000
vn 0.000000 1.000000 0.000000
vn 0.000000 1.000000 0.000000
vn 0.000000 1.000000 0.000000
vn 0.000000 1.000000 0.000000
vn 0.000000 1.000000 0.000000
vn 0.000000 1.000000 -0.000000
vn 0.028797 0.000000 -0.999585
vn 0.028797 0.000000 -0.999585
vn 0.028797 0.000000 -0.999585
vn 0.028797 0.000000 -0.999585
vn -0.851270 0.000000 -0.524729
vn -0.851270 0.000000 -0.524729
vn -0.851270 0.000000 -0.524729
vn -0.851270 0.000000 -0.524729
vn -0.880064 0.000000 0.474856
vn -0.880064 0.000000 0.474856
vn -0.880064 0.000000 0.474856
vn -0.880064 0.000000 0.474856
vn -0.028794 0.000000 0.999585
vn -0.028794 0.000000 0.999585
vn -0.028794 0.000000 0.999585
vn -0.028794 0.000000 0.999585
vn 0.851269 0.000000 0.524730
vn 0.851269 0.000000 0.524730
vn 0.851269 0.000000 0.524730
vn 0.851269 0.000000 0.524730
vn 0.880063 0.000000 -0.474856
vn 0.880063 0.000000 -0.474856
vn 0.880063 0.000000 -0.474856
vn 0.880063 0.000000 -0.474856
vn 0.000000 1.000000 0.000000
vn 0.000000 1.000000 0.000000
vn 0.000000 1.000000 0.000000
vn 0.000000 1.000000 0.000000
vn 0.000000 1.000000 0.000000
vn 0.000000 1.000000 0.000000
vn 0.000000 1.000000 0.000000
vn 0.000000 1.000000 0.000000
vn 0.000000 1.000000 0.000000
vn 0.000000 1.000000 0.000000
vn 0.830739 -0.232765 -0.505661
vn 0.830739 -0.232765 -0.505661
vn 0.830739 -0.232765 -0.505661
vn 0.830739 -0.232765 -0.505661
vn -0.038475 -0.134303 -0.990193
vn -0.038475 -0.134303 -0.990193
vn -0.038475 -0.134303 -0.990193
vn -0.038475 -0.134303 -0.990193
vn -0.869215 0.098461 -0.484532
vn -0.869215 0.098461 -0.484532
vn -0.869215 0.098461 -0.484532
vn -0.869215 0.098461 -0.484532
vn -0.830738 0.232768 0.505661
vn -0.830738 0.232768 0.505661
vn -0.830738 0.232768 0.505661
vn -0.830738 0.232768 0.505661
vn 0.038475 0.134303 0.990193
vn 0.038475 0.134303 0.990193
vn 0.038475 0.134303 0.990193
vn 0.038475 0.134303 0.990193
vn 0.869214 -0.098463 0.484532
vn 0.869214 -0.098463 0.484532
vn 0.869214 -0.098463 0.484532
vn 0.869214 -0.098463 0.484532
vn 0.187720 0.972312 -0.139178
vn 0.187720 0.972312 -0.139178
vn 0.187720 0.972312 -0.139178
vn 0.187720 0.972312 -0.139178
vn 0.187720 0.972312 -0.139178
vn 0.187720 0.972312 -0.139178
vn 0.187720 0.972312 -0.139178
vn 0.187720 0.972312 -0.139178
vn 0.187720 0.972312 -0.139178
vn 0.187720 0.972312 -0.139178
s off
f 1/1/1 2/2/2 8/9/3 7/8/4
f 2/2/5 3/3/6 9/10/7 8/9/8
f 3/3/9 4/4/10 10/11/11 9/10/12
f 4/4/13 5/5/14 11/12/15 10/11/16
f 5/5/17 6/6/18 12/13/19 11/12/20
f 6/6/21 1/7/22 7/14/23 12/13/24
f 13/22/25 9/17/26 10/16/27 11/15/28 12/21/29
f 13/23/30 12/20/31 7/19/32 8/18/33 9/24/34
f 14/25/35 15/26/36 21/27/37 20/28/38
f 15/26/39 16/29/40 22/30/41 21/27/42
f 16/29/43 17/31/44 23/32/45 22/30/46
f 17/31/47 18/33/48 24/34/49 23/32/50
f 18/33/51 19/35/52 25/36/53 24/34/54
f 19/35/55 14/37/56 20/38/57 25/36/58
f 26/43/59 22/42/60 23/44/61 24/45/62 25/46/63
f 26/48/64 25/47/65 20/39/66 21/40/67 22/41/68
f 27/49/69 28/50/70 34/51/71 33/52/72
f 28/50/73 29/53/74 35/54/75 34/51/76
f 29/53/77 30/55/78 36/56/79 35/54/80
f 30/55/81 31/57/82 37/58/83 36/56/84
f 31/57/85 32/59/86 38/60/87 37/58/88
f 32/59/89 27/61/90 33/62/91 38/60/92
f 39/64/93 33/63/94 34/65/95 35/66/96 36/67/97
f 39/69/98 36/68/99 37/70/100 38/71/101 33/72/102
