# This file uses meters as units for non-parametric coordinates.

v 0.089444 0.000000 0.198960
v 0.223085 0.000000 0.130832
v 0.089444 0.479366 0.198960
v 0.223085 0.479366 0.130832
v 0.021316 0.479366 0.065319
v 0.154957 0.479366 -0.002809
v 0.021316 0.000000 0.065319
v 0.154957 0.000000 -0.002809
v 0.194145 0.479366 0.121435
v 0.098840 0.479366 0.170021
v 0.145561 0.479366 0.026130
v 0.050256 0.479366 0.074716
v 0.194145 0.447583 0.121435
v 0.098840 0.447583 0.170021
v 0.145561 0.447583 0.026130
v 0.050256 0.447583 0.074716
v 0.141234 0.447583 0.104255
v 0.116020 0.447583 0.117109
v 0.128381 0.447583 0.079042
v 0.103167 0.447583 0.091896
v 0.141234 0.540202 0.104255
v 0.116020 0.540202 0.117109
v 0.128381 0.540202 0.079042
v 0.103167 0.540202 0.091896
v -0.197202 0.000000 0.034751
v 0.010626 0.000000 0.034751
v -0.197202 0.664154 0.034751
v 0.010626 0.664154 0.034751
v -0.197202 0.664154 -0.173078
v 0.010626 0.664154 -0.173078
v -0.197202 0.000000 -0.173078
v 0.010626 0.000000 -0.173078
v -0.019182 0.664154 0.004943
v -0.167394 0.664154 0.004943
v -0.019182 0.664154 -0.143269
v -0.167394 0.664154 -0.143269
v -0.019182 0.620119 0.004943
v -0.167394 0.620119 0.004943
v -0.019182 0.620119 -0.143269
v -0.167394 0.620119 -0.143269
v -0.073683 0.620119 -0.049558
v -0.112893 0.620119 -0.049558
v -0.073683 0.620119 -0.088769
v -0.112893 0.620119 -0.088769
v -0.073683 0.748441 -0.049558
v -0.112893 0.748441 -0.049558
v -0.073683 0.748441 -0.088769
v -0.112893 0.748441 -0.088769
vt 0.267054 0.443182
vt 0.267054 0.443182
vt 0.267054 0.443182
vt 0.267054 0.443182
vt 0.297511 0.443182
vt 0.297511 0.443182
vt 0.297511 0.443182
vt 0.297511 0.443182
vt 0.267054 0.443182
vt 0.267054 0.443182
vt 0.267054 0.443182
vt 0.267054 0.443182
vt 0.203689 0.443182
vt 0.203689 0.443182
vt 0.203689 0.443182
vt 0.203689 0.443182
vt 0.237280 0.443182
vt 0.237280 0.443182
vt 0.237280 0.443182
vt 0.237280 0.443182
vt 0.237280 0.443182
vt 0.237280 0.443182
vt 0.237280 0.443182
vt 0.237280 0.443182
vt 0.202036 0.443182
vt 0.170230 0.443182
vt 0.202036 0.443182
vt 0.170230 0.443182
vt 0.233842 0.443182
vt 0.233842 0.443182
vt 0.233842 0.443182
vt 0.233842 0.443182
vt 0.200820 0.063529
vt 0.175375 0.063529
vt 0.200820 0.063529
vt 0.175375 0.063529
vt 0.236443 0.063529
vt 0.175375 0.063529
vt 0.200820 0.063529
vt 0.175375 0.063529
vt 0.200820 0.063529
vt 0.236443 0.063529
vt 0.200820 0.063529
vt 0.175375 0.063529
vt 0.175375 0.063529
vt 0.236443 0.063529
vt 0.233842 0.443182
vt 0.200820 0.063529
vt 0.200820 0.063529
vt 0.236443 0.063529
vt 0.233842 0.443182
vt 0.175375 0.063529
vt 0.233842 0.443182
vt 0.175375 0.063529
vt 0.233842 0.443182
vt 0.200820 0.063529
vt 0.170230 0.443182
vt 0.202036 0.443182
vt 0.202036 0.443182
vt 0.170230 0.443182
vt 0.202036 0.443182
vt 0.170230 0.443182
vt 0.297511 0.443182
vt 0.202036 0.443182
vt 0.170230 0.443182
vt 0.202036 0.443182
vt 0.297511 0.443182
vt 0.170230 0.443182
vt 0.297511 0.443182
vt 0.170230 0.443182
vt 0.297511 0.443182
vt 0.202036 0.443182
vt 0.267054 0.443182
vt 0.267054 0.443182
vt 0.267054 0.443182
vt 0.267054 0.443182
vt 0.236443 0.063529
vt 0.236443 0.063529
vt 0.236443 0.063529
vt 0.236443 0.063529
vt 0.267054 0.443182
vt 0.267054 0.443182
vt 0.267054 0.443182
vt 0.267054 0.443182
vt 0.203689 0.443182
vt 0.203689 0.443182
vt 0.203689 0.443182
vt 0.203689 0.443182
vt 0.237280 0.443182
vt 0.237280 0.443182
vt 0.237280 0.443182
vt 0.237280 0.443182
vt 0.237280 0.443182
vt 0.237280 0.443182
vt 0.237280 0.443182
vt 0.237280 0.443182
vt 0.297511 0.443182
vt 0.297511 0.443182
vt 0.297511 0.443182
vt 0.297511 0.443182
vt 0.297511 0.443182
vt 0.297511 0.443182
vt 0.297511 0.443182
vt 0.297511 0.443182
vt 0.202036 0.443182
vt 0.202036 0.443182
vt 0.202036 0.443182
vt 0.202036 0.443182
vt 0.170230 0.443182
vt 0.170230 0.443182
vt 0.170230 0.443182
vt 0.170230 0.443182
vt 0.202036 0.443182
vt 0.202036 0.443182
vt 0.202036 0.443182
vt 0.202036 0.443182
vt 0.170230 0.443182
vt 0.170230 0.443182
vt 0.170230 0.443182
vt 0.170230 0.443182
vt 0.233842 0.443182
vt 0.233842 0.443182
vt 0.233842 0.443182
vt 0.233842 0.443182
vt 0.233842 0.443182
vt 0.233842 0.443182
vt 0.233842 0.443182
vt 0.233842 0.443182
vt 0.200820 0.063529
vt 0.200820 0.063529
vt 0.200820 0.063529
vt 0.200820 0.063529
vt 0.175375 0.063529
vt 0.175375 0.063529
vt 0.175375 0.063529
vt 0.175375 0.063529
vt 0.200820 0.063529
vt 0.200820 0.063529
vt 0.200820 0.063529
vt 0.200820 0.063529
vt 0.175375 0.063529
vt 0.175375 0.063529
vt 0.175375 0.063529
vt 0.175375 0.063529
vt 0.233842 0.443182
vt 0.233842 0.443182
vt 0.233842 0.443182
vt 0.233842 0.443182
vt 0.233842 0.443182
vt 0.233842 0.443182
vt 0.233842 0.443182
vt 0.233842 0.443182
vt 0.233842 0.443182
vt 0.233842 0.443182
vt 0.233842 0.443182
vt 0.233842 0.443182
vt 0.233842 0.443182
vt 0.233842 0.443182
vt 0.233842 0.443182
vt 0.233842 0.443182
vn 0.454176 0.000000 0.890912
vn 0.454176 0.000000 0.890912
vn 0.454176 0.000000 0.890912
vn 0.454176 0.000000 0.890912
vn 0.000000 1.000000 0.000001
vn 0.000000 1.000000 0.000001
vn 0.000000 1.000000 0.000001
vn 0.000000 1.000000 0.000001
vn -0.454176 0.000000 -0.890912
vn -0.454176 0.000000 -0.890912
vn -0.454176 0.000000 -0.890912
vn -0.454176 0.000000 -0.890912
vn 0.000000 -1.000000 -0.000000
vn 0.000000 -1.000000 -0.000000
vn 0.000000 -1.000000 -0.000000
vn 0.000000 -1.000000 -0.000000
vn 0.890915 0.000000 -0.454170
vn 0.890915 0.000000 -0.454170
vn 0.890915 0.000000 -0.454170
vn 0.890915 0.000000 -0.454170
vn -0.890915 0.000000 0.454170
vn -0.890915 0.000000 0.454170
vn -0.890915 0.000000 0.454170
vn -0.890915 0.000000 0.454170
vn 0.000000 1.000000 -0.000000
vn 0.000000 1.000000 -0.000000
vn 0.000000 1.000000 -0.000000
vn 0.000000 1.000000 -0.000000
vn 0.000000 1.000000 0.000000
vn 0.000000 1.000000 0.000000
vn 0.000000 1.000000 0.000000
vn 0.000000 1.000000 0.000000
vn 0.000000 1.000000 0.000000
vn 0.000000 1.000000 0.000000
vn 0.000000 1.000000 0.000000
vn 0.000000 1.000000 0.000000
vn 0.000000 1.000000 0.000000
vn 0.000000 1.000000 0.000000
vn 0.000000 1.000000 0.000000
vn 0.000000 1.000000 0.000000
vn -0.454179 0.000000 -0.890911
vn -0.454179 0.000000 -0.890911
vn -0.454179 0.000000 -0.890911
vn -0.454179 0.000000 -0.890911
vn -0.890917 0.000000 0.454165
vn -0.890917 0.000000 0.454165
vn -0.890917 0.000000 0.454165
vn -0.890917 0.000000 0.454165
vn 0.454179 0.000000 0.890911
vn 0.454179 0.000000 0.890911
vn 0.454179 0.000000 0.890911
vn 0.454179 0.000000 0.890911
vn 0.890918 0.000000 -0.454165
vn 0.890918 0.000000 -0.454165
vn 0.890918 0.000000 -0.454165
vn 0.890918 0.000000 -0.454165
vn 0.000000 1.000000 0.000000
vn 0.000000 1.000000 0.000000
vn 0.000000 1.000000 0.000000
vn 0.000000 1.000000 0.000000
vn 0.000000 1.000000 0.000001
vn 0.000000 1.000000 0.000001
vn 0.000000 1.000000 0.000001
vn 0.000000 1.000000 0.000001
vn 0.000000 1.000000 -0.000001
vn 0.000000 1.000000 -0.000001
vn 0.000000 1.000000 -0.000001
vn 0.000000 1.000000 -0.000001
vn 0.000000 1.000000 0.000000
vn 0.000000 1.000000 0.000000
vn 0.000000 1.000000 0.000000
vn 0.000000 1.000000 0.000000
vn 0.454180 0.000000 0.890910
vn 0.454180 0.000000 0.890910
vn 0.454180 0.000000 0.890910
vn 0.454180 0.000000 0.890910
vn 0.890917 0.000000 -0.454167
vn 0.890917 0.000000 -0.454167
vn 0.890917 0.000000 -0.454167
vn 0.890917 0.000000 -0.454167
vn -0.454174 0.000000 -0.890913
vn -0.454174 0.000000 -0.890913
vn -0.454174 0.000000 -0.890913
vn -0.454174 0.000000 -0.890913
vn -0.890910 0.000000 0.454180
vn -0.890910 0.000000 0.454180
vn -0.890910 0.000000 0.454180
vn -0.890910 0.000000 0.454180
vn 0.000000 0.000000 1.000000
vn 0.000000 0.000000 1.000000
vn 0.000000 0.000000 1.000000
vn 0.000000 0.000000 1.000000
vn 0.000000 1.000000 0.000000
vn 0.000000 1.000000 0.000000
vn 0.000000 1.000000 0.000000
vn 0.000000 1.000000 0.000000
vn 0.000000 0.000000 -1.000000
vn 0.000000 0.000000 -1.000000
vn 0.000000 0.000000 -1.000000
vn 0.000000 0.000000 -1.000000
vn 0.000000 -1.000000 0.000000
vn 0.000000 -1.000000 0.000000
vn 0.000000 -1.000000 0.000000
vn 0.000000 -1.000000 0.000000
vn 1.000000 0.000000 0.000000
vn 1.000000 0.000000 0.000000
vn 1.000000 0.000000 0.000000
vn 1.000000 0.000000 0.000000
vn -1.000000 0.000000 0.000000
vn -1.000000 0.000000 0.000000
vn -1.000000 0.000000 0.000000
vn -1.000000 0.000000 0.000000
vn 0.000000 1.000000 0.000001
vn 0.000000 1.000000 0.000001
vn 0.000000 1.000000 0.000001
vn 0.000000 1.000000 0.000001
vn 0.000000 1.000000 0.000000
vn 0.000000 1.000000 0.000000
vn 0.000000 1.000000 0.000000
vn 0.000000 1.000000 0.000000
vn 0.000000 1.000000 -0.000001
vn 0.000000 1.000000 -0.000001
vn 0.000000 1.000000 -0.000001
vn 0.000000 1.000000 -0.000001
vn 0.000000 1.000000 0.000000
vn 0.000000 1.000000 0.000000
vn 0.000000 1.000000 0.000000
vn 0.000000 1.000000 0.000000
vn 0.000000 0.000000 -1.000000
vn 0.000000 0.000000 -1.000000
vn 0.000000 0.000000 -1.000000
vn 0.000000 0.000000 -1.000000
vn -1.000000 0.000000 0.000000
vn -1.000000 0.000000 0.000000
vn -1.000000 0.000000 0.000000
vn -1.000000 0.000000 0.000000
vn 0.000000 0.000000 1.000000
vn 0.000000 0.000000 1.000000
vn 0.000000 0.000000 1.000000
vn 0.000000 0.000000 1.000000
vn 1.000000 0.000000 0.000000
vn 1.000000 0.000000 0.000000
vn 1.000000 0.000000 0.000000
vn 1.000000 0.000000 0.000000
vn 0.000000 1.000000 -0.000001
vn 0.000000 1.000000 -0.000001
vn 0.000000 1.000000 -0.000001
vn 0.000000 1.000000 -0.000001
vn 0.000000 1.000000 0.000000
vn 0.000000 1.000000 0.000000
vn 0.000000 1.000000 0.000000
vn 0.000000 1.000000 0.000000
vn 0.000000 1.000000 0.000001
vn 0.000000 1.000000 0.000001
vn 0.000000 1.000000 0.000001
vn 0.000000 1.000000 0.000001
vn 0.000000 1.000000 0.000000
vn 0.000000 1.000000 0.000000
vn 0.000000 1.000000 0.000000
vn 0.000000 1.000000 0.000000
vn 0.000000 0.000000 1.000000
vn 0.000000 0.000000 1.000000
vn 0.000000 0.000000 1.000000
vn 0.000000 0.000000 1.000000
vn 1.000000 0.000000 0.000000
vn 1.000000 0.000000 0.000000
vn 1.000000 0.000000 0.000000
vn 1.000000 0.000000 0.000000
vn 0.000000 0.000000 -1.000000
vn 0.000000 0.000000 -1.000000
vn 0.000000 0.000000 -1.000000
vn 0.000000 0.000000 -1.000000
vn -1.000000 0.000000 0.000000
vn -1.000000 0.000000 0.000000
vn -1.000000 0.000000 0.000000
vn -1.000000 0.000000 0.000000
s off
f 1/1/1 2/2/2 4/3/3 3/4/4
f 22/37/5 21/50/6 23/46/7 24/42/8
f 5/9/9 6/10/10 8/11/11 7/12/12
f 7/13/13 8/14/14 2/15/15 1/16/16
f 2/17/17 8/18/18 6/19/19 4/20/20
f 7/21/21 1/22/22 3/23/23 5/24/24
f 3/5/25 4/6/26 9/71/27 10/69/28
f 4/6/29 6/7/30 11/67/31 9/71/32
f 6/7/33 5/8/34 12/63/35 11/67/36
f 5/8/37 3/5/38 10/69/39 12/63/40
f 10/25/41 9/72/42 13/66/43 14/59/44
f 9/26/45 11/68/46 15/62/47 13/65/48
f 11/27/49 12/64/50 16/58/51 15/61/52
f 12/28/53 10/70/54 14/60/55 16/57/56
f 14/29/57 13/160/58 17/157/59 18/53/60
f 13/30/61 15/158/62 19/155/63 17/55/64
f 15/31/65 16/156/66 20/153/67 19/51/68
f 16/32/69 14/159/70 18/154/71 20/47/72
f 18/33/73 17/56/74 21/49/75 22/43/76
f 17/34/77 19/52/78 23/45/79 21/38/80
f 19/35/81 20/48/82 24/41/83 23/39/84
f 20/36/85 18/54/86 22/44/87 24/40/88
f 25/73/89 26/74/90 28/75/91 27/76/92
f 46/77/93 45/78/94 47/79/95 48/80/96
f 29/81/97 30/82/98 32/83/99 31/84/100
f 31/85/101 32/86/102 26/87/103 25/88/104
f 26/89/105 32/90/106 30/91/107 28/92/108
f 31/93/109 25/94/110 27/95/111 29/96/112
f 27/97/113 28/98/114 33/99/115 34/100/116
f 28/98/117 30/101/118 35/102/119 33/99/120
f 30/101/121 29/103/122 36/104/123 35/102/124
f 29/103/125 27/97/126 34/100/127 36/104/128
f 34/105/129 33/106/130 37/107/131 38/108/132
f 33/109/133 35/110/134 39/111/135 37/112/136
f 35/113/137 36/114/138 40/115/139 39/116/140
f 36/117/141 34/118/142 38/119/143 40/120/144
f 38/121/145 37/152/146 41/149/147 42/124/148
f 37/122/149 39/150/150 43/147/151 41/123/152
f 39/125/153 40/148/154 44/145/155 43/126/156
f 40/127/157 38/151/158 42/146/159 44/128/160
f 42/129/161 41/130/162 45/131/163 46/132/164
f 41/133/165 43/134/166 47/135/167 45/136/168
f 43/137/169 44/138/170 48/139/171 47/140/172
f 44/141/173 42/142/174 46/143/175 48/144/176
