# This file uses meters as units for non-parametric coordinates.

v -0.142670 -0.450144 0.142670
v 0.142685 -0.450144 0.142670
v -0.137192 0.450144 0.137199
v 0.137207 0.450144 0.137199
v -0.137192 0.450144 -0.137199
v 0.137207 0.450144 -0.137199
v -0.142670 -0.450144 -0.142670
v 0.142685 -0.450144 -0.142670
v -0.077179 0.450144 0.077187
v 0.077194 0.450144 0.077187
v 0.077194 0.450144 -0.077187
v -0.077179 0.450144 -0.077187
v -0.053055 0.368338 0.053062
v 0.053070 0.368338 0.053062
v 0.053070 0.368338 -0.053062
v -0.053055 0.368338 -0.053062
v -0.137192 0.368849 -0.137199
v -0.137192 0.368849 0.137199
v 0.137207 0.368849 0.137199
v 0.137207 0.368849 -0.137199
v -0.235626 0.130573 -0.235626
v -0.235626 0.130573 0.235626
v 0.235641 0.130573 0.235626
v 0.235641 0.130573 -0.235626
v -0.235626 -0.319277 -0.235626
v -0.235626 -0.319277 0.235626
v 0.235641 -0.319277 0.235626
v 0.235641 -0.319277 -0.235626
v 0.104797 0.248607 0.104782
v -0.104767 0.248607 0.104782
v -0.104767 0.248607 -0.104782
v 0.104797 0.248607 -0.104782
vt 0.640323 0.468851
vt 0.640323 0.468851
vt 0.640323 0.468851
vt 0.640323 0.468851
vt 0.548870 0.468851
vt 0.548870 0.468851
vt 0.548870 0.468851
vt 0.548870 0.468851
vt 0.640323 0.468851
vt 0.640323 0.468851
vt 0.640323 0.468851
vt 0.640323 0.468851
vt 0.575084 0.468851
vt 0.575084 0.468851
vt 0.575084 0.468851
vt 0.575084 0.468851
vt 0.608556 0.468851
vt 0.608556 0.468851
vt 0.608556 0.468851
vt 0.608556 0.468851
vt 0.608556 0.468851
vt 0.608556 0.468851
vt 0.608556 0.468851
vt 0.608556 0.468851
vt 0.671714 0.468851
vt 0.671714 0.468851
vt 0.671714 0.468851
vt 0.671714 0.468851
vt 0.671714 0.468851
vt 0.671714 0.468851
vt 0.671714 0.468851
vt 0.671714 0.468851
vt 0.671714 0.468851
vt 0.671714 0.468851
vt 0.671714 0.468851
vt 0.671714 0.468851
vt 0.671714 0.468851
vt 0.671714 0.468851
vt 0.671714 0.468851
vt 0.671714 0.468851
vt 0.643121 0.468851
vt 0.643121 0.468851
vt 0.643121 0.468851
vt 0.643121 0.468851
vt 0.615587 0.468851
vt 0.615587 0.468851
vt 0.615587 0.468851
vt 0.615587 0.468851
vt 0.643121 0.468851
vt 0.643121 0.468851
vt 0.643121 0.468851
vt 0.643121 0.468851
vt 0.615587 0.468851
vt 0.615587 0.468851
vt 0.615587 0.468851
vt 0.615587 0.468851
vt 0.645931 0.468851
vt 0.645931 0.468851
vt 0.645931 0.468851
vt 0.645931 0.468851
vt 0.677698 0.468851
vt 0.677698 0.468851
vt 0.677698 0.468851
vt 0.677698 0.468851
vt 0.645931 0.468851
vt 0.645931 0.468851
vt 0.645931 0.468851
vt 0.645931 0.468851
vt 0.677698 0.468851
vt 0.677698 0.468851
vt 0.677698 0.468851
vt 0.677698 0.468851
vt 0.608556 0.468851
vt 0.608556 0.468851
vt 0.608556 0.468851
vt 0.608556 0.468851
vt 0.640323 0.468851
vt 0.640323 0.468851
vt 0.640323 0.468851
vt 0.640323 0.468851
vt 0.608556 0.468851
vt 0.608556 0.468851
vt 0.608556 0.468851
vt 0.608556 0.468851
vt 0.640323 0.468851
vt 0.640323 0.468851
vt 0.640323 0.468851
vt 0.640323 0.468851
vt 0.576718 0.468851
vt 0.576718 0.468851
vt 0.576718 0.468851
vt 0.576718 0.468851
vt 0.608485 0.468851
vt 0.608485 0.468851
vt 0.608485 0.468851
vt 0.608485 0.468851
vt 0.576718 0.468851
vt 0.576718 0.468851
vt 0.576718 0.468851
vt 0.576718 0.468851
vt 0.608485 0.468851
vt 0.608485 0.468851
vt 0.608485 0.468851
vt 0.608485 0.468851
vt 0.614022 0.468851
vt 0.614022 0.468851
vt 0.614022 0.468851
vt 0.614022 0.468851
vt 0.582255 0.468851
vt 0.582255 0.468851
vt 0.582255 0.468851
vt 0.582255 0.468851
vt 0.614022 0.468851
vt 0.614022 0.468851
vt 0.614022 0.468851
vt 0.614022 0.468851
vt 0.582255 0.468851
vt 0.582255 0.468851
vt 0.582255 0.468851
vt 0.582255 0.468851
vn 0.000000 0.000000 1.000000
vn 0.000000 0.000000 1.000000
vn 0.000000 0.000000 1.000000
vn 0.000000 0.000000 1.000000
vn 0.000000 1.000000 0.000000
vn 0.000000 1.000000 0.000000
vn 0.000000 1.000000 0.000000
vn 0.000000 1.000000 0.000000
vn 0.000000 0.000000 -1.000000
vn 0.000000 0.000000 -1.000000
vn 0.000000 0.000000 -1.000000
vn 0.000000 0.000000 -1.000000
vn 0.000000 -1.000000 0.000000
vn 0.000000 -1.000000 0.000000
vn 0.000000 -1.000000 0.000000
vn 0.000000 -1.000000 0.000000
vn 1.000000 0.000000 0.000000
vn 1.000000 0.000000 0.000000
vn 1.000000 0.000000 0.000000
vn 1.000000 0.000000 0.000000
vn -1.000000 0.000000 0.000000
vn -1.000000 0.000000 0.000000
vn -1.000000 0.000000 0.000000
vn -1.000000 0.000000 0.000000
vn 0.000000 1.000000 -0.000001
vn 0.000000 1.000000 -0.000001
vn 0.000000 1.000000 -0.000001
vn 0.000000 1.000000 -0.000001
vn 0.000000 1.000000 0.000000
vn 0.000000 1.000000 0.000000
vn 0.000000 1.000000 0.000000
vn 0.000000 1.000000 0.000000
vn 0.000000 1.000000 0.000001
vn 0.000000 1.000000 0.000001
vn 0.000000 1.000000 0.000001
vn 0.000000 1.000000 0.000001
vn 0.000000 1.000000 0.000000
vn 0.000000 1.000000 0.000000
vn 0.000000 1.000000 0.000000
vn 0.000000 1.000000 0.000000
vn 0.000000 0.282832 -0.959170
vn 0.000000 0.282832 -0.959170
vn 0.000000 0.282832 -0.959170
vn 0.000000 0.282832 -0.959170
vn -0.959149 0.282903 0.000000
vn -0.959149 0.282903 0.000000
vn -0.959149 0.282903 0.000000
vn -0.959149 0.282903 0.000000
vn 0.000000 0.282832 0.959170
vn 0.000000 0.282832 0.959170
vn 0.000000 0.282832 0.959170
vn 0.000000 0.282832 0.959170
vn 0.959137 0.282942 0.000000
vn 0.959137 0.282942 0.000000
vn 0.959137 0.282942 0.000000
vn 0.959137 0.282942 0.000000
vn -0.669725 0.742609 0.000000
vn -0.669725 0.742609 0.000000
vn -0.669725 0.742609 0.000000
vn -0.669725 0.742609 0.000000
vn 0.000000 0.742511 0.669833
vn 0.000000 0.742511 0.669833
vn 0.000000 0.742512 0.669833
vn 0.000000 0.742511 0.669833
vn 0.669820 0.742524 0.000000
vn 0.669820 0.742524 0.000000
vn 0.669820 0.742524 0.000000
vn 0.669820 0.742524 0.000000
vn 0.000000 0.742512 -0.669833
vn 0.000000 0.742512 -0.669833
vn 0.000000 0.742512 -0.669833
vn 0.000000 0.742512 -0.669833
vn -1.000000 0.000000 0.000000
vn -1.000000 0.000000 0.000000
vn -1.000000 0.000000 0.000000
vn -1.000000 0.000000 0.000000
vn 0.000000 0.000000 1.000000
vn 0.000000 0.000000 1.000000
vn 0.000000 0.000000 1.000000
vn 0.000000 0.000000 1.000000
vn 1.000000 0.000000 0.000000
vn 1.000000 0.000000 0.000000
vn 1.000000 0.000000 0.000000
vn 1.000000 0.000000 0.000000
vn 0.000000 0.000000 -1.000000
vn 0.000000 0.000000 -1.000000
vn 0.000000 0.000000 -1.000000
vn 0.000000 0.000000 -1.000000
vn -0.815285 -0.579060 -0.000000
vn -0.815285 -0.579060 -0.000000
vn -0.815285 -0.579060 -0.000000
vn -0.815285 -0.579060 -0.000000
vn 0.000000 -0.579106 0.815253
vn 0.000000 -0.579106 0.815253
vn 0.000000 -0.579106 0.815253
vn 0.000000 -0.579106 0.815253
vn 0.815285 -0.579060 -0.000000
vn 0.815285 -0.579060 -0.000000
vn 0.815285 -0.579060 -0.000000
vn 0.815285 -0.579060 -0.000000
vn 0.000000 -0.579106 -0.815253
vn 0.000000 -0.579106 -0.815253
vn 0.000000 -0.579106 -0.815253
vn 0.000000 -0.579106 -0.815253
vn 0.000000 -0.260293 0.965530
vn 0.000000 -0.260293 0.965530
vn 0.000000 -0.260293 0.965530
vn 0.000000 -0.260293 0.965530
vn -0.965477 -0.260490 0.000000
vn -0.965477 -0.260490 0.000000
vn -0.965477 -0.260490 0.000000
vn -0.965477 -0.260490 0.000000
vn 0.000000 -0.260293 -0.965530
vn 0.000000 -0.260293 -0.965530
vn 0.000000 -0.260293 -0.965530
vn 0.000000 -0.260293 -0.965530
vn 0.965580 -0.260106 0.000000
vn 0.965580 -0.260106 0.000000
vn 0.965580 -0.260106 0.000000
vn 0.965580 -0.260106 0.000000
s off
f 18/1/1 19/2/2 4/3/3 3/4/4
f 13/5/5 14/6/6 15/7/7 16/8/8
f 5/9/9 6/10/10 20/11/11 17/12/12
f 7/13/13 8/14/14 2/15/15 1/16/16
f 19/17/17 20/18/18 6/19/19 4/20/20
f 17/21/21 18/22/22 3/23/23 5/24/24
f 3/25/25 4/26/26 10/27/27 9/28/28
f 4/29/29 6/30/30 11/31/31 10/32/32
f 6/33/33 5/34/34 12/35/35 11/36/36
f 5/37/37 3/38/38 9/39/39 12/40/40
f 9/41/41 10/42/42 14/43/43 13/44/44
f 10/45/45 11/46/46 15/47/47 14/48/48
f 11/49/49 12/50/50 16/51/51 15/52/52
f 12/53/53 9/54/54 13/55/55 16/56/56
f 21/57/57 22/58/58 30/59/59 31/60/60
f 22/61/61 23/62/62 29/63/63 30/64/64
f 23/65/65 24/66/66 32/67/67 29/68/68
f 31/69/69 32/70/70 24/71/71 21/72/72
f 25/73/73 26/74/74 22/75/75 21/76/76
f 26/77/77 27/78/78 23/79/79 22/80/80
f 27/81/81 28/82/82 24/83/83 23/84/84
f 21/85/85 24/86/86 28/87/87 25/88/88
f 7/89/89 1/90/90 26/91/91 25/92/92
f 1/93/93 2/94/94 27/95/95 26/96/96
f 2/97/97 8/98/98 28/99/99 27/100/100
f 25/101/101 28/102/102 8/103/103 7/104/104
f 30/105/105 29/106/106 19/107/107 18/108/108
f 31/109/109 30/110/110 18/111/111 17/112/112
f 17/113/113 20/114/114 32/115/115 31/116/116
f 29/117/117 32/118/118 20/119/119 19/120/120
