# This file uses meters as units for non-parametric coordinates.

v -0.074640 0.000000 0.052621
v 0.074640 0.000000 0.052621
v -0.074640 1.148061 0.052621
v 0.074640 1.148061 0.052621
v -0.074640 1.148061 -0.052621
v 0.074640 1.148061 -0.052621
v -0.074640 0.000000 -0.052621
v 0.074640 0.000000 -0.052621
v -0.074640 0.168957 0.052621
v 0.074640 0.168958 0.052621
v 0.074640 0.168957 -0.052621
v -0.074640 0.168958 -0.052621
v -0.074640 0.582109 0.052621
v 0.074640 0.582109 0.052621
v 0.074640 0.582109 -0.052621
v -0.074640 0.582109 -0.052621
v -0.074641 0.479849 0.052621
v 0.074640 0.479849 0.052621
v 0.074640 0.479849 -0.052621
v -0.074640 0.479849 -0.052621
v -0.074641 0.416491 0.052621
v 0.074640 0.416491 0.052621
v 0.074640 0.416491 -0.052621
v -0.074640 0.416491 -0.052621
v -0.074641 0.316139 0.052621
v 0.074640 0.316139 0.052621
v 0.074640 0.316139 -0.052621
v -0.074640 0.316139 -0.052621
v -0.074641 0.258756 0.052621
v 0.074640 0.258756 0.052621
v 0.074640 0.258756 -0.052621
v -0.074640 0.258756 -0.052621
v -0.241621 1.148061 0.085719
v 0.360913 1.148061 0.085719
v -0.241621 1.349954 0.085719
v 0.360913 1.243629 0.085719
v -0.241621 1.349954 -0.085719
v 0.360913 1.243629 -0.085719
v -0.241621 1.148061 -0.085719
v 0.360913 1.148061 -0.085719
v -0.000001 1.148061 0.085719
v -0.000001 1.349954 0.085719
v -0.000001 1.349954 -0.085719
v -0.000001 1.148061 -0.085719
vt 0.204190 0.513099
vt 0.204190 0.513099
vt 0.204190 0.513099
vt 0.204190 0.513099
vt 0.204190 0.513099
vt 0.204190 0.513099
vt 0.204190 0.513099
vt 0.204190 0.513099
vt 0.140825 0.513099
vt 0.140825 0.513099
vt 0.140825 0.513099
vt 0.140825 0.513099
vt 0.174416 0.513099
vt 0.174416 0.513099
vt 0.174416 0.513099
vt 0.174416 0.513099
vt 0.174416 0.513099
vt 0.174416 0.513099
vt 0.174416 0.513099
vt 0.174416 0.513099
vt 0.200159 0.443588
vt 0.174416 0.513099
vt 0.204190 0.513099
vt 0.174416 0.513099
vt 0.200159 0.443588
vt 0.174416 0.513099
vt 0.204190 0.513099
vt 0.174416 0.513099
vt 0.204190 0.513099
vt 0.174416 0.513099
vt 0.200159 0.443588
vt 0.174416 0.513099
vt 0.200159 0.443588
vt 0.170385 0.443588
vt 0.200159 0.443588
vt 0.174416 0.513099
vt 0.200159 0.443588
vt 0.170385 0.443588
vt 0.167488 0.443588
vt 0.170385 0.443588
vt 0.167488 0.443588
vt 0.137714 0.443588
vt 0.167488 0.443588
vt 0.170385 0.443588
vt 0.167488 0.443588
vt 0.137714 0.443588
vt 0.200159 0.443588
vt 0.137714 0.443588
vt 0.200159 0.443588
vt 0.170385 0.443588
vt 0.200159 0.443588
vt 0.137714 0.443588
vt 0.200159 0.443588
vt 0.170385 0.443588
vt 0.167488 0.443588
vt 0.170385 0.443588
vt 0.167487 0.443588
vt 0.137714 0.443588
vt 0.167488 0.443588
vt 0.170385 0.443588
vt 0.167488 0.443588
vt 0.137714 0.443588
vt 0.200159 0.443588
vt 0.170385 0.443588
vt 0.200159 0.443588
vt 0.170385 0.443588
vt 0.200159 0.443588
vt 0.170385 0.443588
vt 0.167488 0.443588
vt 0.137714 0.443588
vt 0.200159 0.443588
vt 0.170385 0.443588
vt 0.137714 0.443588
vt 0.167487 0.443588
vt 0.167488 0.443588
vt 0.137714 0.443588
vt 0.200159 0.443588
vt 0.137714 0.443588
vt 0.204190 0.513099
vt 0.170385 0.443588
vt 0.200159 0.443588
vt 0.137714 0.443588
vt 0.204190 0.513099
vt 0.170385 0.443588
vt 0.167488 0.443588
vt 0.137714 0.443588
vt 0.170385 0.443588
vt 0.200159 0.443588
vt 0.167488 0.443588
vt 0.170385 0.443588
vt 0.167488 0.443588
vt 0.170385 0.443588
vt 0.200159 0.443588
vt 0.170385 0.443588
vt 0.137714 0.443588
vt 0.167487 0.443588
vt 0.200159 0.443588
vt 0.137714 0.443588
vt 0.200159 0.443588
vt 0.137714 0.443588
vt 0.167488 0.443588
vt 0.137714 0.443588
vt 0.170385 0.443588
vt 0.200159 0.443588
vt 0.204190 0.513099
vt 0.170385 0.443588
vt 0.204190 0.513099
vt 0.170385 0.443588
vt 0.200159 0.443588
vt 0.170385 0.443588
vt 0.174416 0.513099
vt 0.204190 0.513099
vt 0.200159 0.443588
vt 0.170385 0.443588
vt 0.200159 0.443588
vt 0.170385 0.443588
vt 0.170522 0.063783
vt 0.170522 0.063783
vt 0.170522 0.063783
vt 0.170522 0.063783
vt 0.200979 0.063783
vt 0.200979 0.063783
vt 0.200979 0.063783
vt 0.200979 0.063783
vt 0.170522 0.063783
vt 0.170522 0.063783
vt 0.170522 0.063783
vt 0.170522 0.063783
vt 0.107157 0.063783
vt 0.107157 0.063783
vt 0.107157 0.063783
vt 0.107157 0.063783
vt 0.140748 0.063783
vt 0.140748 0.063783
vt 0.140748 0.063783
vt 0.140748 0.063783
vt 0.140748 0.063783
vt 0.140748 0.063783
vt 0.140748 0.063783
vt 0.140748 0.063783
vt 0.170522 0.063783
vt 0.170522 0.063783
vt 0.170522 0.063783
vt 0.170522 0.063783
vt 0.200979 0.063783
vt 0.200979 0.063783
vt 0.200979 0.063783
vt 0.200979 0.063783
vt 0.170522 0.063783
vt 0.170522 0.063783
vt 0.170522 0.063783
vt 0.170522 0.063783
vt 0.107157 0.063783
vt 0.107157 0.063783
vt 0.107157 0.063783
vt 0.107157 0.063783
vn 0.000000 0.000000 1.000000
vn 0.000000 0.000000 1.000000
vn 0.000000 0.000000 1.000000
vn 0.000000 0.000000 1.000000
vn 0.000000 0.000000 -1.000000
vn 0.000000 0.000000 -1.000000
vn -0.000000 0.000000 -1.000000
vn -0.000000 0.000000 -1.000000
vn 0.000000 -1.000000 0.000000
vn 0.000000 -1.000000 0.000000
vn 0.000000 -1.000000 0.000000
vn 0.000000 -1.000000 0.000000
vn 1.000000 0.000000 -0.000001
vn 1.000000 0.000000 -0.000001
vn 1.000000 0.000000 0.000000
vn 1.000000 0.000000 0.000000
vn -1.000000 0.000000 -0.000000
vn -1.000000 0.000000 -0.000000
vn -1.000000 0.000000 0.000000
vn -1.000000 0.000000 0.000000
vn 0.000000 0.000000 1.000000
vn 0.000000 0.000000 1.000000
vn -0.000000 0.000000 1.000000
vn -0.000000 0.000000 1.000000
vn 1.000000 0.000000 0.000000
vn 1.000000 0.000000 0.000000
vn 1.000000 -0.000000 -0.000002
vn 1.000000 0.000000 -0.000002
vn 0.000000 0.000000 -1.000000
vn 0.000000 0.000000 -1.000000
vn 0.000000 0.000000 -1.000000
vn 0.000000 0.000000 -1.000000
vn -1.000000 0.000000 0.000000
vn -1.000000 0.000000 0.000000
vn -1.000000 -0.000000 -0.000000
vn -1.000000 -0.000000 -0.000000
vn 0.000000 0.000000 1.000000
vn 0.000000 0.000000 1.000000
vn 0.000000 0.000000 1.000000
vn 0.000000 0.000000 1.000000
vn 1.000000 0.000000 -0.000002
vn 1.000000 0.000000 -0.000002
vn 1.000000 0.000000 -0.000001
vn 1.000000 0.000000 -0.000001
vn -0.000000 0.000000 -1.000000
vn -0.000000 0.000000 -1.000000
vn 0.000000 0.000000 -1.000000
vn 0.000000 0.000000 -1.000000
vn -1.000000 0.000001 -0.000002
vn -1.000000 0.000001 -0.000002
vn -1.000000 0.000000 -0.000000
vn -1.000000 0.000000 -0.000000
vn 0.000000 0.000000 1.000000
vn 0.000000 0.000000 1.000000
vn 0.000000 0.000000 1.000000
vn 0.000000 0.000000 1.000000
vn 1.000000 -0.000001 -0.000003
vn 1.000000 -0.000001 -0.000003
vn 1.000000 0.000000 -0.000002
vn 1.000000 0.000000 -0.000002
vn 0.000000 0.000000 -1.000000
vn 0.000000 0.000000 -1.000000
vn 0.000000 0.000000 -1.000000
vn 0.000000 0.000000 -1.000000
vn -1.000000 0.000000 -0.000002
vn -1.000000 0.000000 -0.000002
vn -1.000000 0.000001 -0.000002
vn -1.000000 0.000001 -0.000002
vn 0.000000 0.000000 1.000000
vn 0.000000 0.000000 1.000000
vn 0.000000 0.000000 1.000000
vn 0.000000 0.000000 1.000000
vn 1.000000 -0.000001 -0.000004
vn 1.000000 -0.000001 -0.000004
vn 1.000000 -0.000001 -0.000003
vn 1.000000 -0.000001 -0.000003
vn 0.000000 0.000000 -1.000000
vn 0.000000 0.000000 -1.000000
vn -0.000000 0.000000 -1.000000
vn -0.000000 0.000000 -1.000000
vn -1.000000 0.000000 -0.000002
vn -1.000000 0.000000 -0.000002
vn -1.000000 0.000000 -0.000002
vn -1.000000 0.000000 -0.000002
vn -0.000000 0.000000 1.000000
vn -0.000000 0.000000 1.000000
vn 0.000000 0.000000 1.000000
vn 0.000000 0.000000 1.000000
vn 1.000000 0.000001 -0.000004
vn 1.000000 0.000001 -0.000004
vn 1.000000 -0.000001 -0.000004
vn 1.000000 -0.000001 -0.000004
vn -0.000000 0.000000 -1.000000
vn -0.000000 0.000000 -1.000000
vn 0.000000 0.000000 -1.000000
vn 0.000000 0.000000 -1.000000
vn -1.000000 -0.000001 -0.000002
vn -1.000000 -0.000001 -0.000002
vn -1.000000 0.000000 -0.000002
vn -1.000000 0.000000 -0.000002
vn -0.000000 0.000000 1.000000
vn -0.000000 0.000000 1.000000
vn -0.000000 0.000000 1.000000
vn -0.000000 0.000000 1.000000
vn 1.000000 0.000000 -0.000002
vn 1.000000 -0.000000 -0.000002
vn 1.000000 0.000001 -0.000004
vn 1.000000 0.000001 -0.000004
vn 0.000000 0.000000 -1.000000
vn 0.000000 0.000000 -1.000000
vn 0.000000 0.000000 -1.000000
vn 0.000000 0.000000 -1.000000
vn -1.000000 -0.000000 -0.000000
vn -1.000000 -0.000000 -0.000000
vn -1.000000 -0.000001 -0.000002
vn -1.000000 -0.000001 -0.000002
vn 0.000000 0.000000 1.000000
vn 0.000000 0.000000 1.000000
vn 0.000000 0.000000 1.000000
vn 0.000000 0.000000 1.000000
vn 0.173778 0.984785 0.000000
vn 0.173778 0.984785 0.000000
vn 0.000000 1.000000 0.000000
vn 0.000000 1.000000 0.000000
vn 0.000000 0.000000 -1.000000
vn 0.000000 0.000000 -1.000000
vn 0.000000 0.000000 -1.000000
vn 0.000000 0.000000 -1.000000
vn 0.000000 -1.000000 0.000000
vn 0.000000 -1.000000 0.000000
vn 0.000000 -1.000000 0.000000
vn 0.000000 -1.000000 0.000000
vn 1.000000 0.000000 0.000000
vn 1.000000 0.000000 0.000000
vn 1.000000 0.000000 0.000000
vn 1.000000 0.000000 0.000000
vn -1.000000 0.000000 0.000000
vn -1.000000 0.000000 0.000000
vn -1.000000 0.000000 0.000000
vn -1.000000 0.000000 0.000000
vn 0.000000 0.000000 1.000000
vn 0.000000 0.000000 1.000000
vn 0.000000 0.000000 1.000000
vn 0.000000 0.000000 1.000000
vn 0.173778 0.984785 0.000000
vn 0.173778 0.984785 0.000000
vn 0.000000 1.000000 0.000000
vn 0.000000 1.000000 0.000000
vn 0.000000 0.000000 -1.000000
vn 0.000000 0.000000 -1.000000
vn 0.000000 0.000000 -1.000000
vn 0.000000 0.000000 -1.000000
vn 0.000000 -1.000000 0.000000
vn 0.000000 -1.000000 0.000000
vn 0.000000 -1.000000 0.000000
vn 0.000000 -1.000000 0.000000
s off
f 13/29/1 14/107/2 4/3/3 3/4/4
f 5/5/5 6/6/6 15/112/7 16/105/8
f 7/9/9 8/10/10 2/11/11 1/12/12
f 14/32/13 15/111/14 6/15/15 4/16/16
f 16/36/17 13/30/18 3/19/19 5/20/20
f 1/1/21 2/2/22 10/23/23 9/83/24
f 2/13/25 8/14/26 11/26/27 10/24/28
f 12/27/29 11/79/30 8/7/31 7/8/32
f 7/17/33 1/18/34 9/22/35 12/28/36
f 17/37/37 18/99/38 14/31/39 13/109/40
f 18/40/41 19/103/42 15/34/43 14/108/44
f 16/35/45 15/33/46 19/104/47 20/97/48
f 20/44/49 17/38/50 13/110/51 16/106/52
f 21/45/53 22/91/54 18/39/55 17/101/56
f 22/48/57 23/95/58 19/42/59 18/100/60
f 20/43/61 19/41/62 23/96/63 24/89/64
f 24/52/65 21/46/66 17/102/67 20/98/68
f 25/53/69 26/81/70 22/47/71 21/93/72
f 26/56/73 27/87/74 23/50/75 22/92/76
f 24/51/77 23/49/78 27/88/79 28/77/80
f 28/60/81 25/54/82 21/94/83 24/90/84
f 29/61/85 30/75/86 26/55/87 25/85/88
f 30/76/89 31/73/90 27/58/91 26/82/92
f 28/59/93 27/57/94 31/74/95 32/69/96
f 32/70/97 29/62/98 25/86/99 28/78/100
f 9/21/101 10/115/102 30/63/103 29/71/104
f 10/116/105 11/80/106 31/66/107 30/64/108
f 32/67/109 31/65/110 11/25/111 12/113/112
f 12/114/113 9/84/114 29/72/115 32/68/116
f 33/117/117 41/118/118 42/119/119 35/120/120
f 42/121/121 43/122/122 37/123/123 35/124/124
f 43/125/125 44/126/126 39/127/127 37/128/128
f 44/129/129 41/130/130 33/131/131 39/132/132
f 34/133/133 40/134/134 38/135/135 36/136/136
f 39/137/137 33/138/138 35/139/139 37/140/140
f 42/141/141 41/142/142 34/143/143 36/144/144
f 43/145/145 42/146/146 36/147/147 38/148/148
f 44/149/149 43/150/150 38/151/151 40/152/152
f 41/153/153 44/154/154 40/155/155 34/156/156
