# This file uses meters as units for non-parametric coordinates.

v -6.387604 0.000000 -1.331482
v -6.387604 0.020303 -1.331482
v -6.387604 0.020303 1.296356
v -6.387604 0.000000 1.296356
v 6.387604 0.000000 1.228363
v 6.387604 0.020303 1.228363
v 6.387604 0.020303 -1.399475
v 6.387604 0.000000 -1.399475
v 6.054535 0.020303 0.923645
v 6.054535 0.020303 -1.094788
v -6.054535 0.020303 -1.026779
v -6.054535 0.020303 0.991653
v 5.539673 0.020303 0.499847
v 5.539673 0.020303 -0.670975
v -5.539673 0.020303 -0.602982
v -5.539673 0.020303 0.567856
v 5.312347 0.020303 0.289337
v 5.312347 0.020303 -0.460464
v -5.312347 0.020303 -0.392456
v -5.312347 0.020303 0.357346
v -1.477020 0.000000 -1.399475
v -1.477020 0.020303 -1.399490
v -1.402557 0.020303 -1.094788
v -1.287445 0.020303 -0.670990
v -1.236633 0.020303 -0.460464
v -1.236633 0.020303 0.289337
v -1.287476 0.020303 0.499847
v -1.402557 0.020303 0.923645
v -1.477020 0.020303 1.228348
v -1.477020 0.000000 1.228348
v -2.529572 0.000000 -1.331467
v -2.529572 0.020303 -1.331482
v -2.381561 0.020303 -1.026779
v -2.152710 0.020303 -0.602982
v -2.051697 0.020303 -0.392456
v -2.051666 0.020303 0.357346
v -2.152740 0.020303 0.567856
v -2.381561 0.020303 0.991653
v -2.529572 0.020303 1.296356
v -2.529572 0.000000 1.296356
v -1.807953 0.034887 1.399490
v -1.808167 0.055189 1.399231
v -1.681702 0.054800 1.106293
v -1.491272 0.054283 0.700409
v -1.404694 0.054013 0.497955
v -1.325134 0.052667 -0.247604
v -1.367004 0.052182 -0.463791
v -1.467529 0.051177 -0.900726
v -1.618958 0.035720 -1.177750
v -1.677795 0.007637 -1.235397
v -2.041107 0.029312 -1.268097
v -2.041260 0.049614 -1.223160
v -1.952972 0.050364 -0.952515
v -1.811432 0.051437 -0.511215
v -1.751465 0.051953 -0.293106
v -1.831024 0.053299 0.452454
v -1.935730 0.053538 0.652985
v -2.167175 0.053987 1.054489
v -2.320160 0.054331 1.344604
v -2.319946 0.034029 1.344864
v 4.577271 0.000000 1.228363
v 4.577271 0.020303 1.228363
v 4.338013 0.020303 0.923645
v 3.968140 0.020303 0.499847
v 3.804871 0.020303 0.289337
v 3.804871 0.020303 -0.460464
v 3.968170 0.020303 -0.670975
v 4.338013 0.020303 -1.094788
v 4.577271 0.020303 -1.399475
v 4.577271 0.000000 -1.399475
v 3.751282 0.000000 -1.399475
v 3.751282 0.020303 -1.399475
v 3.554840 0.020303 -1.094788
v 3.251160 0.020303 -0.670975
v 3.117065 0.020303 -0.460464
v 3.117065 0.020303 0.289337
v 3.251129 0.020303 0.499847
v 3.554840 0.020303 0.923645
v 3.751282 0.020303 1.228363
v 3.751282 0.000000 1.228363
v 4.188934 0.000000 1.228363
v 4.188934 0.020303 1.228363
v 3.969818 0.020303 0.923645
v 3.631042 0.020303 0.499847
v 3.481476 0.020303 0.289337
v 3.412262 0.064503 -0.306183
v 3.561859 0.064503 -0.516708
v 3.900604 0.064503 -0.940506
v 4.119720 0.064503 -1.245209
v 4.119720 0.017862 -1.245209
vt 0.382546 0.584194
vt 0.382546 0.584194
vt 0.382546 0.584194
vt 0.382546 0.584194
vt 0.483539 0.584194
vt 0.483539 0.584194
vt 0.483539 0.584194
vt 0.483539 0.584194
vt 0.382546 0.584194
vt 0.382546 0.584194
vt 0.382546 0.584194
vt 0.382546 0.584194
vt 0.419505 0.584194
vt 0.419505 0.584194
vt 0.419505 0.584194
vt 0.419505 0.584194
vt 0.419505 0.584194
vt 0.419505 0.584194
vt 0.419505 0.584194
vt 0.419505 0.584194
vt 0.419505 0.584194
vt 0.419505 0.584194
vt 0.419505 0.584194
vt 0.419505 0.584194
vt 0.419505 0.584194
vt 0.419505 0.584194
vt 0.419505 0.584194
vt 0.419505 0.584194
vt 0.483539 0.584194
vt 0.483539 0.584194
vt 0.483539 0.584194
vt 0.483539 0.584194
vt 0.483539 0.584194
vt 0.483539 0.584194
vt 0.483539 0.584194
vt 0.483539 0.584194
vt 0.483539 0.584194
vt 0.483539 0.584194
vt 0.483539 0.584194
vt 0.483539 0.584194
vt 0.483539 0.584194
vt 0.483539 0.584194
vt 0.483539 0.584194
vt 0.483539 0.584194
vt 0.205720 0.064390
vt 0.205720 0.064390
vt 0.205720 0.064390
vt 0.205720 0.064390
vt 0.205720 0.064390
vt 0.205720 0.064390
vt 0.205721 0.064390
vt 0.205721 0.064390
vt 0.205721 0.064390
vt 0.205721 0.064390
vt 0.205721 0.064390
vt 0.205721 0.064390
vt 0.205720 0.064390
vt 0.205721 0.064390
vt 0.205721 0.064390
vt 0.205720 0.064390
vt 0.353877 0.582156
vt 0.353877 0.582156
vt 0.353877 0.582156
vt 0.353877 0.582156
vt 0.353876 0.582156
vt 0.353876 0.582156
vt 0.353876 0.582156
vt 0.353876 0.582156
vt 0.382546 0.584194
vt 0.382546 0.584194
vt 0.419505 0.584194
vt 0.393675 0.584194
vt 0.483539 0.584194
vt 0.457709 0.584194
vt 0.205720 0.064390
vt 0.457709 0.584194
vt 0.179890 0.064390
vt 0.457709 0.584194
vt 0.205720 0.064390
vt 0.457709 0.584194
vt 0.179890 0.064390
vt 0.393675 0.584194
vt 0.457709 0.584194
vt 0.382546 0.584194
vt 0.393675 0.584194
vt 0.382546 0.584194
vt 0.382546 0.584194
vt 0.382546 0.584194
vt 0.419505 0.584194
vt 0.419505 0.584194
vt 0.483539 0.584194
vt 0.483539 0.584194
vt 0.205721 0.064390
vt 0.457709 0.584194
vt 0.205721 0.064390
vt 0.483539 0.584194
vt 0.205721 0.064390
vt 0.457709 0.584194
vt 0.205721 0.064390
vt 0.393675 0.584194
vt 0.483539 0.584194
vt 0.382546 0.584194
vt 0.419505 0.584194
vt 0.382546 0.584194
vt 0.382546 0.584194
vt 0.382546 0.584194
vt 0.393675 0.584194
vt 0.393675 0.584194
vt 0.457709 0.584194
vt 0.457709 0.584194
vt 0.179890 0.064390
vt 0.483539 0.584194
vt 0.179890 0.064390
vt 0.457709 0.584194
vt 0.179890 0.064390
vt 0.483539 0.584194
vt 0.179890 0.064390
vt 0.419505 0.584194
vt 0.457709 0.584194
vt 0.382546 0.584194
vt 0.393675 0.584194
vt 0.382546 0.584194
vt 0.382546 0.584194
vt 0.382546 0.584194
vt 0.393675 0.584194
vt 0.393675 0.584194
vt 0.457709 0.584194
vt 0.457709 0.584194
vt 0.179890 0.064390
vt 0.457709 0.584194
vt 0.179890 0.064390
vt 0.457709 0.584194
vt 0.179890 0.064390
vt 0.457709 0.584194
vt 0.179890 0.064390
vt 0.393675 0.584194
vt 0.457709 0.584194
vt 0.382546 0.584194
vt 0.393675 0.584194
vt 0.382546 0.584194
vt 0.393675 0.584194
vt 0.483539 0.584194
vt 0.419505 0.584194
vt 0.457709 0.584194
vt 0.205720 0.064390
vt 0.483539 0.584194
vt 0.205721 0.064390
vt 0.457709 0.584194
vt 0.205720 0.064390
vt 0.483539 0.584194
vt 0.205721 0.064390
vt 0.419505 0.584194
vt 0.483539 0.584194
vt 0.419505 0.584194
vt 0.393675 0.584194
vt 0.419505 0.584194
vt 0.457709 0.584194
vt 0.483539 0.584194
vt 0.179890 0.064390
vt 0.483539 0.584194
vt 0.179890 0.064390
vt 0.483539 0.584194
vt 0.419505 0.584194
vt 0.419505 0.584194
vt 0.205720 0.064390
vt 0.483539 0.584194
vt 0.205720 0.064390
vt 0.483539 0.584194
vt 0.483539 0.584194
vt 0.419505 0.584194
vt 0.419505 0.584194
vt 0.205721 0.064390
vt 0.483539 0.584194
vt 0.483539 0.584194
vt 0.205721 0.064390
vt 0.205721 0.064390
vt 0.483539 0.584194
vt 0.483539 0.584194
vt 0.205721 0.064390
vt 0.419505 0.584194
vt 0.483539 0.584194
vt 0.419505 0.584194
vt 0.393675 0.584194
vt 0.419505 0.584194
vt 0.457709 0.584194
vt 0.483539 0.584194
vt 0.179890 0.064390
vt 0.483539 0.584194
vt 0.179890 0.064390
vt 0.457709 0.584194
vt 0.179890 0.064390
vt 0.457709 0.584194
vt 0.179890 0.064390
vt 0.393675 0.584194
vt 0.457709 0.584194
vt 0.393675 0.584194
vt 0.382546 0.584194
vt 0.382546 0.584194
vt 0.419505 0.584194
vt 0.419505 0.584194
vt 0.483539 0.584194
vt 0.483539 0.584194
vt 0.205720 0.064390
vt 0.483539 0.584194
vt 0.205720 0.064390
vt 0.450714 0.584194
vt 0.172896 0.064390
vt 0.450714 0.584194
vt 0.205720 0.064390
vt 0.386680 0.584194
vt 0.483539 0.584194
vt 0.382546 0.584194
vt 0.419505 0.584194
vt 0.382546 0.584194
vt 0.382546 0.584194
vt 0.382546 0.584194
vt 0.419505 0.584194
vt 0.419505 0.584194
vt 0.483539 0.584194
vt 0.483539 0.584194
vt 0.205720 0.064390
vt 0.483539 0.584194
vt 0.205720 0.064390
vt 0.483539 0.584194
vt 0.205720 0.064390
vt 0.483539 0.584194
vt 0.205720 0.064390
vt 0.419505 0.584194
vt 0.483539 0.584194
vt 0.382546 0.584194
vt 0.419505 0.584194
vt 0.382546 0.584194
vt 0.382546 0.584194
vt 0.382546 0.584194
vt 0.419505 0.584194
vt 0.419505 0.584194
vt 0.483539 0.584194
vt 0.483539 0.584194
vt 0.205720 0.064390
vt 0.483539 0.584194
vt 0.205720 0.064390
vt 0.450714 0.584194
vt 0.172896 0.064390
vt 0.450714 0.584194
vt 0.172896 0.064390
vt 0.386680 0.584194
vt 0.450714 0.584194
vt 0.382546 0.584194
vt 0.386680 0.584194
vt 0.382546 0.584194
vt 0.483539 0.584194
vt 0.450714 0.584194
vt 0.205720 0.064390
vt 0.483539 0.584194
vt 0.483539 0.584194
vt 0.419505 0.584194
vt 0.419505 0.584194
vt 0.205720 0.064390
vt 0.483539 0.584194
vt 0.483539 0.584194
vt 0.205720 0.064390
vt 0.386680 0.584194
vt 0.419505 0.584194
vt 0.450714 0.584194
vt 0.483539 0.584194
vt 0.172896 0.064390
vn -0.000003 0.000000 1.000000
vn -0.000003 0.000000 1.000000
vn 0.000000 0.000000 1.000000
vn 0.000000 0.000000 1.000000
vn 0.007849 0.999826 0.016915
vn -0.013609 0.997047 0.075583
vn -0.002049 0.999997 0.000996
vn -0.002403 0.000000 -0.999997
vn 0.000894 0.000000 -1.000000
vn 0.042430 -0.000337 -0.999099
vn 0.046252 -0.000334 -0.998930
vn 0.000000 1.000000 0.000000
vn 0.000000 1.000000 0.000000
vn 0.000000 1.000000 0.000000
vn 0.000000 1.000000 0.000000
vn -0.049940 0.998233 -0.032193
vn 0.035453 0.998935 0.029536
vn -0.013099 0.999874 -0.008932
vn -0.005419 0.999979 -0.003695
vn 0.000000 1.000000 0.000000
vn 0.000000 1.000000 0.000000
vn 0.000000 1.000000 0.000000
vn 0.000000 1.000000 0.000000
vn 0.000000 1.000000 0.000000
vn 0.000000 1.000000 0.000000
vn 0.000000 1.000000 0.000000
vn 0.000000 1.000000 0.000000
vn 0.000000 1.000000 0.000000
vn 0.000000 1.000000 0.000000
vn 0.000000 1.000000 0.000000
vn 0.000000 1.000000 0.000000
vn -0.057420 0.997485 -0.041561
vn 0.041420 0.998419 0.038010
vn -0.014786 0.999828 -0.011206
vn -0.005651 0.999975 -0.004283
vn 0.000000 1.000000 0.000000
vn 0.000000 1.000000 0.000000
vn 0.000000 1.000000 0.000000
vn 0.000000 1.000000 0.000000
vn 0.000000 1.000000 -0.000000
vn 0.000000 1.000000 -0.000000
vn 0.000000 1.000000 -0.000000
vn 0.000000 1.000000 -0.000000
vn 0.000000 1.000000 0.000000
vn 0.000000 1.000000 0.000000
vn 0.000000 1.000000 0.000000
vn 0.000000 1.000000 0.000000
vn -0.057294 0.997689 -0.036520
vn 0.038319 0.998759 0.031810
vn -0.014400 0.999849 -0.009703
vn -0.006496 0.999969 -0.004377
vn 0.000000 1.000000 0.000000
vn 0.000000 1.000000 0.000000
vn 0.000000 1.000000 0.000000
vn 0.000000 1.000000 0.000000
vn 0.000000 1.000000 -0.000000
vn 0.000000 1.000000 0.000000
vn 0.000000 1.000000 0.000000
vn 0.000000 1.000000 0.000000
vn -1.000000 0.000000 0.000000
vn -1.000000 0.000000 0.000000
vn -1.000000 0.000000 0.000000
vn -1.000000 0.000000 0.000000
vn 1.000000 0.000000 0.000000
vn 1.000000 0.000000 0.000000
vn 1.000000 0.000000 0.000000
vn 1.000000 0.000000 0.000000
vn -0.140254 0.894427 -0.424652
vn -0.029637 0.893882 -0.447322
vn 0.081057 0.825792 -0.558119
vn 0.082021 0.836296 -0.542108
vn 0.039901 0.998197 -0.044847
vn 0.041630 0.998100 -0.045427
vn -0.039330 0.999215 0.004837
vn -0.013267 0.999809 -0.014342
vn 0.028023 0.999565 -0.009214
vn 0.066049 0.997644 -0.018564
vn -0.050776 0.998511 0.019929
vn -0.025255 0.999644 0.008598
vn 0.029139 0.999540 -0.008467
vn 0.070588 0.997356 -0.017273
vn -0.059585 0.998011 0.020573
vn -0.028678 0.999552 0.008588
vn 0.024432 0.999701 -0.000493
vn 0.090834 0.995861 0.003279
vn -0.050822 0.998699 -0.004179
vn -0.041424 0.999135 -0.003757
vn 0.014116 0.999895 0.003268
vn 0.104506 0.993956 0.033613
vn -0.040018 0.998977 -0.021060
vn -0.057320 0.997916 -0.029631
vn 0.017717 0.999830 0.005178
vn 0.087524 0.995675 0.031166
vn -0.037057 0.999079 -0.021643
vn -0.059918 0.997614 -0.034284
vn 0.019971 0.999786 0.005369
vn 0.068183 0.997433 0.021859
vn -0.035954 0.999168 -0.019254
vn -0.059506 0.997745 -0.031062
vn -0.139395 0.009790 0.990189
vn -0.143654 0.009559 0.989582
vn 0.146663 0.010499 0.989131
vn 0.126948 0.010610 0.991853
vn 0.012591 0.127083 -0.991812
vn 0.011793 0.118995 -0.992825
vn 0.000000 0.000000 -1.000000
vn 0.000000 0.000000 -1.000000
vn -0.012040 0.999916 0.004722
vn -0.003156 0.999994 0.001238
vn 0.000000 1.000000 -0.000000
vn 0.000000 1.000000 -0.000000
vn -0.015640 0.999857 0.006474
vn -0.003702 0.999992 0.001533
vn 0.000000 1.000000 0.000000
vn 0.000000 1.000000 0.000000
vn -0.016839 0.999839 0.006139
vn -0.003954 0.999991 0.001441
vn 0.000000 1.000000 0.000000
vn 0.000000 1.000000 0.000000
vn -0.011240 0.999937 -0.000681
vn -0.007384 0.999973 -0.000447
vn 0.000000 1.000000 0.000000
vn 0.000000 1.000000 0.000000
vn -0.006814 0.999971 -0.003443
vn -0.012535 0.999901 -0.006334
vn 0.000000 1.000000 0.000000
vn 0.000000 1.000000 0.000000
vn -0.005811 0.999978 -0.003265
vn -0.013036 0.999888 -0.007324
vn 0.000000 1.000000 -0.000000
vn 0.000000 1.000000 -0.000000
vn -0.005609 0.999980 -0.002861
vn -0.012407 0.999903 -0.006329
vn 0.000000 1.000000 0.000000
vn 0.000000 1.000000 0.000000
vn -0.000002 0.000000 1.000000
vn -0.010809 0.000241 0.999942
vn -0.013072 0.000292 0.999915
vn -0.000002 0.000000 1.000000
vn 0.126948 0.010610 0.991853
vn 0.146663 0.010499 0.989131
vn 0.029059 0.000511 0.999578
vn 0.032498 0.000572 0.999472
vn 0.010562 0.999938 0.003502
vn 0.002731 0.999996 0.000906
vn 0.068183 0.997433 0.021859
vn 0.019971 0.999786 0.005369
vn 0.012187 0.999916 0.004450
vn 0.002048 0.999998 0.000748
vn 0.087524 0.995675 0.031166
vn 0.017717 0.999830 0.005178
vn 0.013665 0.999896 0.004516
vn 0.001870 0.999998 0.000618
vn 0.104506 0.993956 0.033613
vn 0.014116 0.999895 0.003268
vn 0.011279 0.999936 0.000564
vn 0.001982 0.999998 0.000099
vn 0.090834 0.995861 0.003279
vn 0.024432 0.999701 -0.000493
vn 0.009647 0.999951 -0.002140
vn 0.003321 0.999994 -0.000737
vn 0.070588 0.997356 -0.017273
vn 0.029139 0.999540 -0.008467
vn 0.008743 0.999959 -0.002230
vn 0.003049 0.999995 -0.000778
vn 0.066049 0.997644 -0.018564
vn 0.028023 0.999565 -0.009214
vn 0.004455 0.999986 -0.002967
vn 0.001970 0.999997 -0.001312
vn 0.041630 0.998100 -0.045427
vn 0.039901 0.998197 -0.044847
vn -0.040333 0.098391 -0.994330
vn -0.038290 0.093388 -0.994893
vn -0.029637 0.893882 -0.447322
vn -0.140254 0.894427 -0.424652
vn 0.082021 0.836296 -0.542108
vn 0.081057 0.825792 -0.558119
vn 0.011793 0.118995 -0.992825
vn 0.012591 0.127083 -0.991812
vn -0.013267 0.999809 -0.014342
vn -0.039330 0.999215 0.004837
vn -0.003156 0.999994 0.001238
vn -0.012040 0.999916 0.004722
vn -0.025255 0.999644 0.008598
vn -0.050776 0.998511 0.019929
vn -0.003702 0.999992 0.001533
vn -0.015640 0.999857 0.006474
vn -0.028678 0.999552 0.008588
vn -0.059585 0.998011 0.020573
vn -0.003954 0.999991 0.001441
vn -0.016839 0.999839 0.006139
vn -0.041424 0.999135 -0.003757
vn -0.050822 0.998699 -0.004179
vn -0.007384 0.999973 -0.000447
vn -0.011240 0.999937 -0.000681
vn -0.057320 0.997916 -0.029631
vn -0.040018 0.998977 -0.021060
vn -0.012535 0.999901 -0.006334
vn -0.006814 0.999971 -0.003443
vn -0.059918 0.997614 -0.034284
vn -0.037057 0.999079 -0.021643
vn -0.013036 0.999888 -0.007324
vn -0.005811 0.999978 -0.003265
vn -0.059506 0.997745 -0.031062
vn -0.035954 0.999168 -0.019254
vn -0.012407 0.999903 -0.006329
vn -0.005609 0.999980 -0.002861
vn -0.013072 0.000292 0.999915
vn -0.010809 0.000241 0.999942
vn -0.143654 0.009559 0.989582
vn -0.139395 0.009790 0.990189
vn 0.000000 0.000000 1.000000
vn 0.000000 0.000000 1.000000
vn -0.000002 0.000000 1.000000
vn -0.000002 0.000000 1.000000
vn 0.000000 1.000000 0.000000
vn 0.000000 1.000000 0.000000
vn 0.000000 1.000000 0.000000
vn 0.000000 1.000000 0.000000
vn 0.000000 1.000000 -0.000000
vn 0.000000 1.000000 0.000000
vn 0.000000 1.000000 0.000000
vn 0.000000 1.000000 -0.000000
vn 0.000000 1.000000 0.000000
vn 0.000000 1.000000 -0.000000
vn 0.000000 1.000000 -0.000000
vn 0.000000 1.000000 0.000000
vn 0.000000 1.000000 0.000000
vn 0.000000 1.000000 0.000000
vn 0.006850 0.999972 0.002955
vn 0.000000 1.000000 0.000000
vn 0.000000 1.000000 0.000000
vn 0.000000 1.000000 0.000000
vn 0.006847 0.999964 0.005088
vn 0.053452 0.997780 0.039723
vn 0.000000 1.000000 0.000000
vn 0.000000 1.000000 0.000000
vn 0.005895 0.999970 0.004928
vn 0.053513 0.997564 0.044736
vn 0.000000 1.000000 -0.000000
vn 0.000000 1.000000 -0.000000
vn 0.006262 0.999969 0.004710
vn 0.046310 0.998320 0.034834
vn 0.000000 0.000000 -1.000000
vn 0.000000 0.000000 -1.000000
vn -0.097046 0.000000 -0.995280
vn -0.102620 0.000000 -0.994721
vn 0.046252 -0.000334 -0.998930
vn 0.042430 -0.000337 -0.999099
vn -0.038290 0.093388 -0.994893
vn -0.040333 0.098391 -0.994330
vn -0.005419 0.999979 -0.003695
vn -0.013099 0.999874 -0.008932
vn 0.001970 0.999997 -0.001312
vn 0.004455 0.999986 -0.002967
vn -0.005651 0.999975 -0.004283
vn -0.014786 0.999828 -0.011206
vn 0.003049 0.999995 -0.000778
vn 0.008743 0.999959 -0.002230
vn -0.006496 0.999969 -0.004377
vn -0.014400 0.999849 -0.009703
vn 0.003321 0.999994 -0.000737
vn 0.009647 0.999951 -0.002140
vn 0.000000 1.000000 0.000000
vn -0.002049 0.999997 0.000996
vn 0.001982 0.999998 0.000099
vn 0.011279 0.999936 0.000564
vn 0.000000 1.000000 0.000000
vn 0.000000 1.000000 0.000000
vn 0.001870 0.999998 0.000618
vn 0.013665 0.999896 0.004516
vn 0.000000 1.000000 -0.000000
vn 0.000000 1.000000 -0.000000
vn 0.002048 0.999998 0.000748
vn 0.012187 0.999916 0.004450
vn 0.000000 1.000000 0.000000
vn 0.000000 1.000000 0.000000
vn 0.002731 0.999996 0.000906
vn 0.010562 0.999938 0.003502
vn 0.032498 0.000572 0.999472
vn 0.029059 0.000511 0.999578
vn -0.000003 0.000000 1.000000
vn -0.000003 0.000000 1.000000
vn 0.000000 0.000000 1.000000
vn 0.000000 0.000000 1.000000
vn 0.000000 0.000000 1.000000
vn 0.000000 0.000000 1.000000
vn 0.000000 1.000000 0.000000
vn 0.000000 1.000000 0.000000
vn 0.000000 1.000000 0.000000
vn 0.000000 1.000000 0.000000
vn 0.000000 1.000000 0.000000
vn 0.000000 1.000000 0.000000
vn 0.000000 1.000000 -0.000000
vn 0.000000 1.000000 -0.000000
vn 0.000000 1.000000 -0.000000
vn 0.000000 1.000000 -0.000000
vn 0.000000 1.000000 0.000000
vn 0.000000 1.000000 -0.000000
vn 0.007849 0.999826 0.016915
vn 0.006850 0.999972 0.002955
vn -0.013609 0.997047 0.075583
vn 0.053452 0.997780 0.039723
vn 0.006847 0.999964 0.005088
vn 0.038319 0.998759 0.031810
vn -0.057294 0.997689 -0.036520
vn 0.053513 0.997564 0.044736
vn 0.005895 0.999970 0.004928
vn 0.041420 0.998419 0.038010
vn -0.057420 0.997485 -0.041561
vn 0.046310 0.998320 0.034834
vn 0.006262 0.999969 0.004710
vn 0.035453 0.998935 0.029536
vn -0.049940 0.998233 -0.032193
vn -0.102620 0.000000 -0.994721
vn -0.097046 0.000000 -0.995280
vn 0.000894 0.000000 -1.000000
vn -0.002403 0.000000 -0.999997
vn 0.007849 0.999826 0.016915
vn -0.002049 0.999997 0.000996
vn 0.000000 1.000000 0.000000
vn 0.000000 1.000000 0.000000
vn 0.006850 0.999972 0.002955
vn 0.007849 0.999826 0.016915
s off
f 79/230/1 80/232/2 81/233/3 82/234/4
f 85/251/5 86/260/6 75/222/7
f 89/248/8 90/250/9 71/215/10 72/216/11
f 6/13/12 7/14/13 10/15/14 9/16/15
f 88/256/16 89/257/17 72/217/18 73/218/19
f 2/21/20 3/22/21 12/23/22 11/24/23
f 82/235/24 83/236/25 78/228/26 79/231/27
f 9/29/28 10/30/29 14/31/30 13/32/31
f 87/259/32 88/255/33 73/219/34 74/220/35
f 11/37/36 12/38/37 16/39/38 15/40/39
f 83/237/40 84/238/41 77/226/42 78/229/43
f 13/45/44 14/46/45 18/47/46 17/48/47
f 86/261/48 87/258/49 74/221/50 75/223/51
f 15/53/52 16/54/53 20/55/54 19/56/55
f 84/239/56 85/241/57 76/225/58 77/227/59
f 4/61/60 3/62/61 2/63/62 1/64/63
f 6/65/64 5/66/65 8/67/66 7/68/67
f 49/120/68 50/122/69 51/123/70 52/124/71
f 48/118/72 49/143/73 52/182/74 53/180/75
f 47/116/76 48/142/77 53/181/78 54/178/79
f 46/147/80 47/145/81 54/179/82 55/176/83
f 45/112/84 46/146/85 55/177/86 56/174/87
f 44/151/88 45/149/89 56/175/90 57/172/91
f 43/153/92 44/150/93 57/173/94 58/169/95
f 42/154/96 43/152/97 58/170/98 59/171/99
f 59/138/100 60/140/101 41/105/102 42/106/103
f 32/88/104 31/87/105 1/11/106 2/12/107
f 33/90/108 32/89/109 2/19/110 11/20/111
f 34/92/112 33/91/113 11/35/114 15/36/115
f 35/95/116 34/93/117 15/51/118 19/52/119
f 36/96/120 35/188/121 19/7/122 20/8/123
f 37/99/124 36/97/125 20/58/126 16/59/127
f 38/101/128 37/186/129 16/42/130 12/43/131
f 39/103/132 38/184/133 12/26/134 3/27/135
f 4/1/136 40/104/137 39/102/138 3/4/139
f 42/106/140 41/105/141 30/86/142 29/84/143
f 29/85/144 28/82/145 43/108/146 42/107/147
f 28/83/148 27/80/149 44/110/150 43/109/151
f 27/81/152 26/161/153 45/113/154 44/111/155
f 26/78/156 25/76/157 46/114/158 45/148/159
f 25/77/160 24/159/161 47/117/162 46/115/163
f 24/74/164 23/157/165 48/119/166 47/144/167
f 23/72/168 22/155/169 49/121/170 48/141/171
f 22/70/172 21/69/173 50/122/174 49/120/175
f 52/124/176 51/123/177 31/87/178 32/88/179
f 53/126/180 52/125/181 32/196/182 33/194/183
f 54/128/184 53/127/185 33/195/186 34/192/187
f 55/131/188 54/129/189 34/193/190 35/189/191
f 56/132/192 55/130/193 35/94/194 36/190/195
f 57/135/196 56/133/197 36/191/198 37/187/199
f 58/137/200 57/134/201 37/98/202 38/185/203
f 59/139/204 58/136/205 38/100/206 39/183/207
f 39/102/208 40/104/209 60/140/210 59/138/211
f 62/198/212 61/197/213 5/2/214 6/3/215
f 9/25/216 63/200/217 62/199/218 6/28/219
f 13/41/220 64/202/221 63/201/222 9/44/223
f 17/57/224 65/205/225 64/203/226 13/60/227
f 17/5/228 18/6/229 66/254/230 65/204/231
f 18/49/232 14/50/233 67/209/234 66/253/235
f 14/33/236 10/34/237 68/211/238 67/265/239
f 10/17/240 7/18/241 69/213/242 68/263/243
f 7/9/244 8/10/245 70/214/246 69/212/247
f 72/216/248 71/215/249 21/69/250 22/70/251
f 73/218/252 72/217/253 22/71/254 23/156/255
f 74/220/256 73/219/257 23/73/258 24/158/259
f 75/223/260 74/221/261 24/75/262 25/167/263
f 76/224/264 75/222/265 25/168/266 26/160/267
f 77/227/268 76/225/269 26/79/270 27/165/271
f 78/229/272 77/226/273 27/166/274 28/162/275
f 79/231/276 78/228/277 28/163/278 29/164/279
f 29/84/280 30/86/281 80/232/282 79/230/283
f 82/234/284 81/233/285 61/197/286 62/198/287
f 62/199/288 63/200/289 83/236/290 82/235/291
f 63/201/292 64/202/293 84/238/294 83/237/295
f 64/203/296 65/205/297 85/241/298 84/239/299
f 85/252/300 66/206/301 86/242/302
f 66/207/303 67/266/304 87/245/305 86/243/306
f 67/208/307 68/264/308 88/247/309 87/244/310
f 68/210/311 69/262/312 89/249/313 88/246/314
f 69/212/315 70/214/316 90/250/317 89/248/318
f 85/251/319 75/222/320 76/224/321
f 65/204/322 66/254/323 85/240/324
