# This file uses meters as units for non-parametric coordinates.

v -0.213549 0.014614 0.112892
v -0.209610 0.014614 0.187421
v -0.176949 0.014614 0.104133
v -0.155273 0.014614 0.188177
v -0.146798 0.014614 0.139845
v -0.232214 0.014614 0.147951
v -0.186687 0.014804 0.038844
v 0.007432 0.014804 0.079062
v -0.208784 0.014804 -0.183457
v 0.027630 0.014804 -0.161348
v -0.064342 0.014804 -0.188177
v -0.084539 0.014804 0.105891
v -0.235613 0.014804 -0.098147
v -0.095011 0.014804 -0.059494
v 0.040743 0.014804 -0.077465
v 0.108257 0.014732 0.063627
v 0.235613 0.014732 0.078721
v 0.104112 0.014732 -0.000908
v 0.225638 0.014732 0.000897
v 0.146268 0.014732 -0.027569
v 0.162174 0.014732 0.105473
vt 0.140181 0.180494
vt 0.140181 0.180494
vt 0.140181 0.180494
vt 0.140181 0.180494
vt 0.140181 0.180494
vt 0.140181 0.180494
vt 0.140181 0.180494
vt 0.140181 0.180494
vt 0.140181 0.180494
vt 0.140181 0.180494
vt 0.140181 0.180494
vt 0.140181 0.180494
vt 0.140181 0.180494
vt 0.140181 0.180494
vt 0.140181 0.180494
vt 0.140181 0.180494
vt 0.140181 0.180494
vt 0.140181 0.180494
vt 0.140181 0.180494
vt 0.140181 0.180494
vt 0.140181 0.180494
vn 0.000000 1.000000 0.000000
vn 0.000000 1.000000 0.000000
vn 0.000000 1.000000 0.000000
vn 0.000000 1.000000 0.000000
vn 0.000000 1.000000 0.000000
vn 0.000000 1.000000 0.000000
vn 0.000000 1.000000 -0.000000
vn 0.000000 1.000000 -0.000000
vn 0.000000 1.000000 -0.000000
vn 0.000000 1.000000 0.000000
vn 0.000000 1.000000 -0.000000
vn 0.000000 1.000000 -0.000000
vn 0.000000 1.000000 0.000000
vn 0.000000 1.000000 0.000000
vn 0.000000 1.000000 -0.000000
vn 0.000000 1.000000 0.000000
vn 0.000000 1.000000 0.000000
vn 0.000000 1.000000 0.000000
vn 0.000000 1.000000 0.000000
vn 0.000000 1.000000 0.000000
vn 0.000000 1.000000 0.000000
s 1
f 5/5/1 6/6/2 2/3/3 4/2/4
f 1/1/5 6/6/2 5/5/1 3/4/6
s 2
f 11/7/7 14/8/8 15/9/9 10/10/10
f 13/11/11 14/8/8 11/7/7 9/12/12
f 7/13/13 12/14/14 14/8/8 13/11/11
f 15/9/9 14/8/8 12/14/14 8/15/15
s 3
f 20/16/16 21/17/17 17/18/18 19/19/19
f 16/20/20 21/17/17 20/16/16 18/21/21
