# This file uses meters as units for non-parametric coordinates.

v -0.097817 0.000000 -0.002477
v 0.110012 0.000000 -0.002477
v -0.097817 0.664154 -0.002477
v 0.110012 0.664154 -0.002477
v -0.097817 0.664154 -0.210306
v 0.110012 0.664154 -0.210306
v -0.097817 0.000000 -0.210306
v 0.110012 0.000000 -0.210306
v 0.080204 0.664154 -0.032286
v -0.068008 0.664154 -0.032286
v 0.080204 0.664154 -0.180497
v -0.068008 0.664154 -0.180497
v 0.080204 0.620119 -0.032286
v -0.068008 0.620119 -0.032286
v 0.080204 0.620119 -0.180497
v -0.068008 0.620119 -0.180497
v 0.025703 0.620119 -0.086786
v -0.013507 0.620119 -0.086786
v 0.025703 0.620119 -0.125997
v -0.013507 0.620119 -0.125997
v 0.025703 0.748441 -0.086786
v -0.013507 0.748441 -0.086786
v 0.025703 0.748441 -0.125997
v -0.013507 0.748441 -0.125997
v 0.189919 0.000000 0.162079
v 0.322817 0.000000 0.092514
v 0.189919 0.479366 0.162079
v 0.322817 0.479366 0.092514
v 0.120355 0.479366 0.029180
v 0.253252 0.479366 -0.040385
v 0.120355 0.000000 0.029180
v 0.253252 0.000000 -0.040385
v 0.293778 0.479366 0.083431
v 0.199003 0.479366 0.133040
v 0.244169 0.479366 -0.011345
v 0.149394 0.479366 0.038264
v 0.293778 0.447583 0.083431
v 0.199003 0.447583 0.133040
v 0.244169 0.447583 -0.011345
v 0.149394 0.447583 0.038264
v 0.240685 0.447583 0.066822
v 0.215612 0.447583 0.079946
v 0.227560 0.447583 0.041748
v 0.202487 0.447583 0.054873
v 0.240685 0.540202 0.066822
v 0.215612 0.540202 0.079946
v 0.227560 0.540202 0.041748
v 0.202487 0.540202 0.054873
v -0.332847 0.000000 0.135619
v -0.191906 0.000000 0.246564
v -0.332847 0.234324 0.135619
v -0.191906 0.234324 0.246564
v -0.221901 0.234324 -0.005321
v -0.080960 0.234324 0.105623
v -0.221901 0.000000 -0.005321
v -0.080960 0.000000 0.105623
v -0.196208 0.234324 0.210437
v -0.296719 0.234324 0.131317
v -0.117088 0.234324 0.109926
v -0.217599 0.234324 0.030806
v -0.196208 0.218788 0.210437
v -0.296719 0.218788 0.131317
v -0.117088 0.218788 0.109926
v -0.217599 0.218788 0.030806
v -0.204075 0.218788 0.144383
v -0.230665 0.218788 0.123452
v -0.183143 0.218788 0.117791
v -0.209733 0.218788 0.096860
v -0.204075 0.264062 0.144383
v -0.230665 0.264062 0.123452
v -0.183143 0.264062 0.117791
v -0.209733 0.264062 0.096860
vt 0.267054 0.443182
vt 0.267054 0.443182
vt 0.267054 0.443182
vt 0.267054 0.443182
vt 0.297511 0.443182
vt 0.297511 0.443182
vt 0.297511 0.443182
vt 0.297511 0.443182
vt 0.267054 0.443182
vt 0.267054 0.443182
vt 0.267054 0.443182
vt 0.267054 0.443182
vt 0.203689 0.443182
vt 0.203689 0.443182
vt 0.203689 0.443182
vt 0.203689 0.443182
vt 0.237280 0.443182
vt 0.237280 0.443182
vt 0.237280 0.443182
vt 0.237280 0.443182
vt 0.237280 0.443182
vt 0.237280 0.443182
vt 0.237280 0.443182
vt 0.237280 0.443182
vt 0.200637 0.443182
vt 0.168830 0.443182
vt 0.200637 0.443182
vt 0.168830 0.443182
vt 0.232443 0.443182
vt 0.232443 0.443182
vt 0.232443 0.443182
vt 0.232443 0.443182
vt 0.200820 0.063529
vt 0.175375 0.063529
vt 0.200820 0.063529
vt 0.175375 0.063529
vt 0.236443 0.063529
vt 0.175375 0.063529
vt 0.200820 0.063529
vt 0.175375 0.063529
vt 0.200820 0.063529
vt 0.236443 0.063529
vt 0.200820 0.063529
vt 0.175375 0.063529
vt 0.175375 0.063529
vt 0.236443 0.063529
vt 0.232443 0.443182
vt 0.200820 0.063529
vt 0.200820 0.063529
vt 0.236443 0.063529
vt 0.232443 0.443182
vt 0.175375 0.063529
vt 0.232443 0.443182
vt 0.175375 0.063529
vt 0.232443 0.443182
vt 0.200820 0.063529
vt 0.168830 0.443182
vt 0.200637 0.443182
vt 0.200637 0.443182
vt 0.168830 0.443182
vt 0.200637 0.443182
vt 0.168830 0.443182
vt 0.297511 0.443182
vt 0.200637 0.443182
vt 0.168830 0.443182
vt 0.200637 0.443182
vt 0.297511 0.443182
vt 0.168830 0.443182
vt 0.297511 0.443182
vt 0.168830 0.443182
vt 0.297511 0.443182
vt 0.200637 0.443182
vt 0.267054 0.443182
vt 0.267054 0.443182
vt 0.267054 0.443182
vt 0.267054 0.443182
vt 0.236443 0.063529
vt 0.236443 0.063529
vt 0.236443 0.063529
vt 0.236443 0.063529
vt 0.267054 0.443182
vt 0.267054 0.443182
vt 0.267054 0.443182
vt 0.267054 0.443182
vt 0.203689 0.443182
vt 0.203689 0.443182
vt 0.203689 0.443182
vt 0.203689 0.443182
vt 0.237280 0.443182
vt 0.237280 0.443182
vt 0.237280 0.443182
vt 0.237280 0.443182
vt 0.237280 0.443182
vt 0.237280 0.443182
vt 0.237280 0.443182
vt 0.237280 0.443182
vt 0.297511 0.443182
vt 0.297511 0.443182
vt 0.297511 0.443182
vt 0.297511 0.443182
vt 0.297511 0.443182
vt 0.297511 0.443182
vt 0.297511 0.443182
vt 0.297511 0.443182
vt 0.200637 0.443182
vt 0.200637 0.443182
vt 0.200637 0.443182
vt 0.200637 0.443182
vt 0.168830 0.443182
vt 0.168830 0.443182
vt 0.168830 0.443182
vt 0.168830 0.443182
vt 0.200637 0.443182
vt 0.200637 0.443182
vt 0.200637 0.443182
vt 0.200637 0.443182
vt 0.168830 0.443182
vt 0.168830 0.443182
vt 0.168830 0.443182
vt 0.168830 0.443182
vt 0.232443 0.443182
vt 0.232443 0.443182
vt 0.232443 0.443182
vt 0.232443 0.443182
vt 0.232443 0.443182
vt 0.232443 0.443182
vt 0.232443 0.443182
vt 0.232443 0.443182
vt 0.200820 0.063529
vt 0.200820 0.063529
vt 0.200820 0.063529
vt 0.200820 0.063529
vt 0.175375 0.063529
vt 0.175375 0.063529
vt 0.175375 0.063529
vt 0.175375 0.063529
vt 0.200820 0.063529
vt 0.200820 0.063529
vt 0.200820 0.063529
vt 0.200820 0.063529
vt 0.175375 0.063529
vt 0.175375 0.063529
vt 0.175375 0.063529
vt 0.175375 0.063529
vt 0.267054 0.443182
vt 0.267054 0.443182
vt 0.267054 0.443182
vt 0.267054 0.443182
vt 0.236443 0.063529
vt 0.236443 0.063529
vt 0.236443 0.063529
vt 0.236443 0.063529
vt 0.267054 0.443182
vt 0.267054 0.443182
vt 0.267054 0.443182
vt 0.267054 0.443182
vt 0.203689 0.443182
vt 0.203689 0.443182
vt 0.203689 0.443182
vt 0.203689 0.443182
vt 0.237280 0.443182
vt 0.237280 0.443182
vt 0.237280 0.443182
vt 0.237280 0.443182
vt 0.237280 0.443182
vt 0.237280 0.443182
vt 0.237280 0.443182
vt 0.237280 0.443182
vt 0.297511 0.443182
vt 0.297511 0.443182
vt 0.297511 0.443182
vt 0.297511 0.443182
vt 0.297511 0.443182
vt 0.297511 0.443182
vt 0.297511 0.443182
vt 0.297511 0.443182
vt 0.200637 0.443182
vt 0.200637 0.443182
vt 0.200637 0.443182
vt 0.200637 0.443182
vt 0.168830 0.443182
vt 0.168830 0.443182
vt 0.168830 0.443182
vt 0.168830 0.443182
vt 0.200637 0.443182
vt 0.200637 0.443182
vt 0.200637 0.443182
vt 0.200637 0.443182
vt 0.168830 0.443182
vt 0.168830 0.443182
vt 0.168830 0.443182
vt 0.168830 0.443182
vt 0.232443 0.443182
vt 0.232443 0.443182
vt 0.232443 0.443182
vt 0.232443 0.443182
vt 0.232443 0.443182
vt 0.232443 0.443182
vt 0.232443 0.443182
vt 0.232443 0.443182
vt 0.200820 0.063529
vt 0.200820 0.063529
vt 0.200820 0.063529
vt 0.200820 0.063529
vt 0.175375 0.063529
vt 0.175375 0.063529
vt 0.175375 0.063529
vt 0.175375 0.063529
vt 0.200820 0.063529
vt 0.200820 0.063529
vt 0.200820 0.063529
vt 0.200820 0.063529
vt 0.175375 0.063529
vt 0.175375 0.063529
vt 0.175375 0.063529
vt 0.175375 0.063529
vt 0.232443 0.443182
vt 0.232443 0.443182
vt 0.232443 0.443182
vt 0.232443 0.443182
vt 0.232443 0.443182
vt 0.232443 0.443182
vt 0.232443 0.443182
vt 0.232443 0.443182
vt 0.232443 0.443182
vt 0.232443 0.443182
vt 0.232443 0.443182
vt 0.232443 0.443182
vt 0.232443 0.443182
vt 0.232443 0.443182
vt 0.232443 0.443182
vt 0.232443 0.443182
vt 0.232443 0.443182
vt 0.232443 0.443182
vt 0.232443 0.443182
vt 0.232443 0.443182
vt 0.232443 0.443182
vt 0.232443 0.443182
vt 0.232443 0.443182
vt 0.232443 0.443182
vn 0.000000 0.000000 1.000000
vn 0.000000 0.000000 1.000000
vn 0.000000 0.000000 1.000000
vn 0.000000 0.000000 1.000000
vn 0.000000 1.000000 0.000000
vn 0.000000 1.000000 0.000000
vn 0.000000 1.000000 0.000000
vn 0.000000 1.000000 0.000000
vn 0.000000 0.000000 -1.000000
vn 0.000000 0.000000 -1.000000
vn 0.000000 0.000000 -1.000000
vn 0.000000 0.000000 -1.000000
vn 0.000000 -1.000000 0.000000
vn 0.000000 -1.000000 0.000000
vn 0.000000 -1.000000 0.000000
vn 0.000000 -1.000000 0.000000
vn 1.000000 0.000000 0.000000
vn 1.000000 0.000000 0.000000
vn 1.000000 0.000000 0.000000
vn 1.000000 0.000000 0.000000
vn -1.000000 0.000000 0.000000
vn -1.000000 0.000000 0.000000
vn -1.000000 0.000000 0.000000
vn -1.000000 0.000000 0.000000
vn 0.000000 1.000000 0.000001
vn 0.000000 1.000000 0.000001
vn 0.000000 1.000000 0.000001
vn 0.000000 1.000000 0.000001
vn 0.000000 1.000000 0.000000
vn 0.000000 1.000000 0.000000
vn 0.000000 1.000000 0.000000
vn 0.000000 1.000000 0.000000
vn 0.000000 1.000000 -0.000002
vn 0.000000 1.000000 -0.000002
vn 0.000000 1.000000 -0.000002
vn 0.000000 1.000000 -0.000002
vn 0.000000 1.000000 0.000000
vn 0.000000 1.000000 0.000000
vn 0.000000 1.000000 0.000000
vn 0.000000 1.000000 0.000000
vn 0.000000 0.000000 -1.000000
vn 0.000000 0.000000 -1.000000
vn 0.000000 0.000000 -1.000000
vn 0.000000 0.000000 -1.000000
vn -1.000000 0.000000 0.000000
vn -1.000000 0.000000 0.000000
vn -1.000000 0.000000 0.000000
vn -1.000000 0.000000 0.000000
vn 0.000000 0.000000 1.000000
vn 0.000000 0.000000 1.000000
vn 0.000000 0.000000 1.000000
vn 0.000000 0.000000 1.000000
vn 1.000000 0.000000 0.000000
vn 1.000000 0.000000 0.000000
vn 1.000000 0.000000 0.000000
vn 1.000000 0.000000 0.000000
vn 0.000000 1.000000 -0.000001
vn 0.000000 1.000000 -0.000001
vn 0.000000 1.000000 -0.000001
vn 0.000000 1.000000 -0.000001
vn 0.000000 1.000000 0.000000
vn 0.000000 1.000000 0.000000
vn 0.000000 1.000000 0.000000
vn 0.000000 1.000000 0.000000
vn 0.000000 1.000000 0.000001
vn 0.000000 1.000000 0.000001
vn 0.000000 1.000000 0.000001
vn 0.000000 1.000000 0.000001
vn 0.000000 1.000000 0.000000
vn 0.000000 1.000000 0.000000
vn 0.000000 1.000000 0.000000
vn 0.000000 1.000000 0.000000
vn 0.000000 0.000000 1.000000
vn 0.000000 0.000000 1.000000
vn 0.000000 0.000000 1.000000
vn 0.000000 0.000000 1.000000
vn 1.000000 0.000000 0.000000
vn 1.000000 0.000000 0.000000
vn 1.000000 0.000000 0.000000
vn 1.000000 0.000000 0.000000
vn 0.000000 0.000000 -1.000000
vn 0.000000 0.000000 -1.000000
vn 0.000000 0.000000 -1.000000
vn 0.000000 0.000000 -1.000000
vn -1.000000 0.000000 0.000000
vn -1.000000 0.000000 0.000000
vn -1.000000 0.000000 0.000000
vn -1.000000 0.000000 0.000000
vn 0.463755 0.000000 0.885963
vn 0.463755 0.000000 0.885963
vn 0.463755 0.000000 0.885963
vn 0.463755 0.000000 0.885963
vn 0.000000 1.000000 0.000000
vn 0.000000 1.000000 0.000000
vn 0.000000 1.000000 0.000000
vn 0.000000 1.000000 0.000000
vn -0.463755 0.000000 -0.885963
vn -0.463755 0.000000 -0.885963
vn -0.463755 0.000000 -0.885963
vn -0.463755 0.000000 -0.885963
vn 0.000000 -1.000000 -0.000000
vn 0.000000 -1.000000 -0.000000
vn 0.000000 -1.000000 -0.000000
vn 0.000000 -1.000000 -0.000000
vn 0.885966 0.000000 -0.463751
vn 0.885966 0.000000 -0.463751
vn 0.885966 0.000000 -0.463751
vn 0.885966 0.000000 -0.463751
vn -0.885966 0.000000 0.463751
vn -0.885966 0.000000 0.463751
vn -0.885966 0.000000 0.463751
vn -0.885966 0.000000 0.463751
vn 0.000000 1.000000 -0.000000
vn 0.000000 1.000000 -0.000000
vn 0.000000 1.000000 -0.000000
vn 0.000000 1.000000 -0.000000
vn 0.000000 1.000000 -0.000000
vn 0.000000 1.000000 -0.000000
vn 0.000000 1.000000 -0.000000
vn 0.000000 1.000000 -0.000000
vn 0.000000 1.000000 0.000000
vn 0.000000 1.000000 0.000000
vn 0.000000 1.000000 0.000000
vn 0.000000 1.000000 0.000000
vn 0.000000 1.000000 0.000000
vn 0.000000 1.000000 0.000000
vn 0.000000 1.000000 0.000000
vn 0.000000 1.000000 0.000000
vn -0.463750 0.000000 -0.885966
vn -0.463750 0.000000 -0.885966
vn -0.463750 0.000000 -0.885966
vn -0.463750 0.000000 -0.885966
vn -0.885965 0.000000 0.463753
vn -0.885965 0.000000 0.463753
vn -0.885965 0.000000 0.463753
vn -0.885965 0.000000 0.463753
vn 0.463750 0.000000 0.885966
vn 0.463750 0.000000 0.885966
vn 0.463750 0.000000 0.885966
vn 0.463750 0.000000 0.885966
vn 0.885966 0.000000 -0.463751
vn 0.885966 0.000000 -0.463751
vn 0.885966 0.000000 -0.463751
vn 0.885966 0.000000 -0.463751
vn 0.000000 1.000000 -0.000000
vn 0.000000 1.000000 -0.000000
vn 0.000000 1.000000 -0.000000
vn 0.000000 1.000000 -0.000000
vn 0.000000 1.000000 0.000001
vn 0.000000 1.000000 0.000001
vn 0.000000 1.000000 0.000001
vn 0.000000 1.000000 0.000001
vn 0.000000 1.000000 -0.000000
vn 0.000000 1.000000 -0.000000
vn 0.000000 1.000000 -0.000000
vn 0.000000 1.000000 -0.000000
vn 0.000000 1.000000 0.000000
vn 0.000000 1.000000 0.000000
vn 0.000000 1.000000 0.000000
vn 0.000000 1.000000 0.000000
vn 0.463755 0.000000 0.885964
vn 0.463755 0.000000 0.885964
vn 0.463755 0.000000 0.885964
vn 0.463755 0.000000 0.885964
vn 0.885957 0.000000 -0.463767
vn 0.885957 0.000000 -0.463767
vn 0.885957 0.000000 -0.463767
vn 0.885957 0.000000 -0.463767
vn -0.463758 0.000000 -0.885962
vn -0.463758 0.000000 -0.885962
vn -0.463758 0.000000 -0.885962
vn -0.463758 0.000000 -0.885962
vn -0.885956 0.000000 0.463769
vn -0.885956 0.000000 0.463769
vn -0.885956 0.000000 0.463769
vn -0.885956 0.000000 0.463769
vn -0.618528 0.000000 0.785762
vn -0.618528 0.000000 0.785762
vn -0.618528 0.000000 0.785762
vn -0.618528 0.000000 0.785762
vn 0.000000 1.000000 0.000000
vn 0.000000 1.000000 0.000000
vn 0.000000 1.000000 0.000000
vn 0.000000 1.000000 0.000000
vn 0.618530 0.000000 -0.785761
vn 0.618530 0.000000 -0.785761
vn 0.618530 0.000000 -0.785761
vn 0.618530 0.000000 -0.785761
vn 0.000000 -1.000000 0.000000
vn 0.000000 -1.000000 0.000000
vn 0.000000 -1.000000 0.000000
vn 0.000000 -1.000000 0.000000
vn 0.785757 0.000000 0.618535
vn 0.785757 0.000000 0.618535
vn 0.785757 0.000000 0.618535
vn 0.785757 0.000000 0.618535
vn -0.785756 0.000000 -0.618536
vn -0.785756 0.000000 -0.618536
vn -0.785756 0.000000 -0.618536
vn -0.785756 0.000000 -0.618536
vn 0.000000 1.000000 0.000000
vn 0.000000 1.000000 0.000000
vn 0.000000 1.000000 0.000000
vn 0.000000 1.000000 0.000000
vn 0.000000 1.000000 0.000000
vn 0.000000 1.000000 0.000000
vn 0.000000 1.000000 0.000000
vn 0.000000 1.000000 0.000000
vn 0.000000 1.000000 0.000000
vn 0.000000 1.000000 0.000000
vn 0.000000 1.000000 0.000000
vn 0.000000 1.000000 0.000000
vn 0.000000 1.000000 -0.000000
vn 0.000000 1.000000 -0.000000
vn 0.000000 1.000000 -0.000000
vn 0.000000 1.000000 -0.000000
vn 0.618529 0.000000 -0.785762
vn 0.618529 0.000000 -0.785762
vn 0.618529 0.000000 -0.785762
vn 0.618529 0.000000 -0.785762
vn -0.785759 0.000000 -0.618533
vn -0.785759 0.000000 -0.618533
vn -0.785759 0.000000 -0.618533
vn -0.785759 0.000000 -0.618533
vn -0.618530 0.000000 0.785761
vn -0.618530 0.000000 0.785761
vn -0.618530 0.000000 0.785761
vn -0.618530 0.000000 0.785761
vn 0.785760 0.000000 0.618532
vn 0.785760 0.000000 0.618532
vn 0.785760 0.000000 0.618532
vn 0.785760 0.000000 0.618532
vn 0.000000 1.000000 -0.000000
vn 0.000000 1.000000 -0.000000
vn 0.000000 1.000000 -0.000000
vn 0.000000 1.000000 -0.000000
vn 0.000000 1.000000 -0.000000
vn 0.000000 1.000000 -0.000000
vn 0.000000 1.000000 -0.000000
vn 0.000000 1.000000 -0.000000
vn 0.000000 1.000000 0.000000
vn 0.000000 1.000000 0.000000
vn 0.000000 1.000000 0.000000
vn 0.000000 1.000000 0.000000
vn 0.000000 1.000000 0.000000
vn 0.000000 1.000000 0.000000
vn 0.000000 1.000000 0.000000
vn 0.000000 1.000000 0.000000
vn -0.618535 0.000000 0.785757
vn -0.618535 0.000000 0.785757
vn -0.618535 0.000000 0.785757
vn -0.618535 0.000000 0.785757
vn 0.785755 0.000000 0.618537
vn 0.785755 0.000000 0.618537
vn 0.785755 0.000000 0.618537
vn 0.785755 0.000000 0.618537
vn 0.618538 0.000000 -0.785755
vn 0.618538 0.000000 -0.785755
vn 0.618538 0.000000 -0.785755
vn 0.618538 0.000000 -0.785755
vn -0.785757 0.000000 -0.618536
vn -0.785757 0.000000 -0.618536
vn -0.785757 0.000000 -0.618536
vn -0.785757 0.000000 -0.618536
s off
f 1/1/1 2/2/2 4/3/3 3/4/4
f 22/37/5 21/50/6 23/46/7 24/42/8
f 5/9/9 6/10/10 8/11/11 7/12/12
f 7/13/13 8/14/14 2/15/15 1/16/16
f 2/17/17 8/18/18 6/19/19 4/20/20
f 7/21/21 1/22/22 3/23/23 5/24/24
f 3/5/25 4/6/26 9/71/27 10/69/28
f 4/6/29 6/7/30 11/67/31 9/71/32
f 6/7/33 5/8/34 12/63/35 11/67/36
f 5/8/37 3/5/38 10/69/39 12/63/40
f 10/25/41 9/72/42 13/66/43 14/59/44
f 9/26/45 11/68/46 15/62/47 13/65/48
f 11/27/49 12/64/50 16/58/51 15/61/52
f 12/28/53 10/70/54 14/60/55 16/57/56
f 14/29/57 13/240/58 17/237/59 18/53/60
f 13/30/61 15/238/62 19/235/63 17/55/64
f 15/31/65 16/236/66 20/233/67 19/51/68
f 16/32/69 14/239/70 18/234/71 20/47/72
f 18/33/73 17/56/74 21/49/75 22/43/76
f 17/34/77 19/52/78 23/45/79 21/38/80
f 19/35/81 20/48/82 24/41/83 23/39/84
f 20/36/85 18/54/86 22/44/87 24/40/88
f 25/73/89 26/74/90 28/75/91 27/76/92
f 46/77/93 45/78/94 47/79/95 48/80/96
f 29/81/97 30/82/98 32/83/99 31/84/100
f 31/85/101 32/86/102 26/87/103 25/88/104
f 26/89/105 32/90/106 30/91/107 28/92/108
f 31/93/109 25/94/110 27/95/111 29/96/112
f 27/97/113 28/98/114 33/99/115 34/100/116
f 28/98/117 30/101/118 35/102/119 33/99/120
f 30/101/121 29/103/122 36/104/123 35/102/124
f 29/103/125 27/97/126 34/100/127 36/104/128
f 34/105/129 33/106/130 37/107/131 38/108/132
f 33/109/133 35/110/134 39/111/135 37/112/136
f 35/113/137 36/114/138 40/115/139 39/116/140
f 36/117/141 34/118/142 38/119/143 40/120/144
f 38/121/145 37/232/146 41/229/147 42/124/148
f 37/122/149 39/230/150 43/227/151 41/123/152
f 39/125/153 40/228/154 44/225/155 43/126/156
f 40/127/157 38/231/158 42/226/159 44/128/160
f 42/129/161 41/130/162 45/131/163 46/132/164
f 41/133/165 43/134/166 47/135/167 45/136/168
f 43/137/169 44/138/170 48/139/171 47/140/172
f 44/141/173 42/142/174 46/143/175 48/144/176
f 49/145/177 50/146/178 52/147/179 51/148/180
f 70/149/181 69/150/182 71/151/183 72/152/184
f 53/153/185 54/154/186 56/155/187 55/156/188
f 55/157/189 56/158/190 50/159/191 49/160/192
f 50/161/193 56/162/194 54/163/195 52/164/196
f 55/165/197 49/166/198 51/167/199 53/168/200
f 51/169/201 52/170/202 57/171/203 58/172/204
f 52/170/205 54/173/206 59/174/207 57/171/208
f 54/173/209 53/175/210 60/176/211 59/174/212
f 53/175/213 51/169/214 58/172/215 60/176/216
f 58/177/217 57/178/218 61/179/219 62/180/220
f 57/181/221 59/182/222 63/183/223 61/184/224
f 59/185/225 60/186/226 64/187/227 63/188/228
f 60/189/229 58/190/230 62/191/231 64/192/232
f 62/193/233 61/224/234 65/221/235 66/196/236
f 61/194/237 63/222/238 67/219/239 65/195/240
f 63/197/241 64/220/242 68/217/243 67/198/244
f 64/199/245 62/223/246 66/218/247 68/200/248
f 66/201/249 65/202/250 69/203/251 70/204/252
f 65/205/253 67/206/254 71/207/255 69/208/256
f 67/209/257 68/210/258 72/211/259 71/212/260
f 68/213/261 66/214/262 70/215/263 72/216/264
