# This file uses meters as units for non-parametric coordinates.

v 0.102585 0.096412 -0.901886
v -0.070127 0.096539 -0.900558
v 0.102554 0.067466 -0.901699
v -0.070156 0.067590 -0.900379
v -0.086403 0.060404 0.577869
v -0.086378 0.089350 0.577698
v 0.086325 0.089223 0.576378
v 0.086309 0.060274 0.576550
v 0.013813 0.065684 -1.211971
v 0.013842 0.094629 -1.212158
v -0.000010 0.113044 0.576897
v -0.000067 0.036577 0.577358
v 0.016241 0.120233 -0.901360
v 0.016180 0.043766 -0.900890
v 0.072079 0.115928 1.082863
v -0.064322 0.116028 1.083904
v 0.072025 0.039613 1.083313
v -0.064379 0.039716 1.084358
v 0.069277 0.113755 0.717293
v -0.067129 0.113858 0.718346
v -0.067183 0.037543 0.718796
v 0.069220 0.037443 0.717754
v 0.112125 0.129235 0.716877
v -0.109964 0.129398 0.718586
v -0.110613 0.128900 0.634304
v 0.111475 0.128737 0.632595
v 0.111403 0.021405 0.633236
v -0.110687 0.021571 0.634937
v -0.110039 0.022066 0.719219
v 0.112045 0.021905 0.717522
v 0.086433 0.024782 1.083290
v -0.078823 0.024904 1.084557
v -0.078751 0.130859 1.083931
v 0.086506 0.130737 1.082657
v 0.086979 0.025204 1.154819
v -0.078278 0.025328 1.156094
v -0.078205 0.131283 1.155460
v 0.087053 0.131159 1.154194
v 0.040405 0.042612 1.211613
v -0.030804 0.042664 1.212158
v -0.030754 0.114550 1.211731
v 0.040455 0.114494 1.211185
v -0.133120 0.139801 0.634407
v 0.134005 0.139604 0.632359
v 0.133911 0.010502 0.633133
v -0.133213 0.010698 0.635181
v -0.109367 0.139412 0.572208
v 0.109295 0.139251 0.570526
v 0.109201 0.010149 0.571301
v -0.109455 0.010309 0.572971
v -0.257784 0.049743 0.584194
v -0.257750 0.100319 0.583897
v -0.236429 0.049411 0.530773
v -0.236395 0.099987 0.530468
v 0.257784 0.099940 0.579941
v 0.257753 0.049367 0.580242
v 0.235613 0.099640 0.526848
v 0.235579 0.049067 0.527145
v 0.069874 0.037943 0.802567
v 0.069925 0.114258 0.802109
v -0.066481 0.114361 0.803162
v -0.066534 0.038046 0.803612
v 0.070280 0.038265 0.856190
v 0.070337 0.114576 0.855736
v -0.066069 0.114680 0.856781
v -0.066122 0.038368 0.857231
v 0.070862 0.038717 0.931850
v 0.070919 0.115028 0.931396
v -0.065485 0.115129 0.932442
v -0.065542 0.038814 0.932896
v 0.071306 0.039055 0.989410
v 0.071358 0.115367 0.988953
v -0.065042 0.115468 0.989994
v -0.065102 0.039159 0.990456
vt 0.393473 0.057737
vt 0.393473 0.057737
vt 0.393473 0.057737
vt 0.393473 0.057737
vt 0.363598 0.057737
vt 0.363598 0.057737
vt 0.363598 0.057737
vt 0.363598 0.057737
vt 0.361943 0.063252
vt 0.332068 0.063252
vt 0.332068 0.063252
vt 0.361943 0.063252
vt 0.332062 0.057737
vt 0.332062 0.057737
vt 0.332062 0.057737
vt 0.332062 0.057737
vt 0.332068 0.063252
vt 0.361943 0.063252
vt 0.332068 0.063252
vt 0.332068 0.063252
vt 0.361938 0.057737
vt 0.361938 0.057737
vt 0.361938 0.057737
vt 0.361938 0.057737
vt 0.299226 0.063252
vt 0.299226 0.063252
vt 0.329101 0.063252
vt 0.299226 0.063252
vt 0.329101 0.063252
vt 0.329101 0.063252
vt 0.299226 0.063252
vt 0.299226 0.063252
vt 0.332068 0.063252
vt 0.299226 0.063252
vt 0.361943 0.063252
vt 0.329101 0.063252
vt 0.299226 0.063252
vt 0.332068 0.063252
vt 0.361943 0.063252
vt 0.299226 0.063252
vt 0.329101 0.063252
vt 0.361943 0.063252
vt 0.332068 0.063252
vt 0.329101 0.063252
vt 0.303948 0.062996
vt 0.303948 0.062996
vt 0.303948 0.062996
vt 0.303948 0.062996
vt 0.303948 0.062996
vt 0.303948 0.062996
vt 0.303948 0.062996
vt 0.303948 0.062996
vt 0.209942 0.061454
vt 0.209942 0.061454
vt 0.209942 0.061454
vt 0.209942 0.061454
vt 0.274174 0.062996
vt 0.274174 0.062996
vt 0.274174 0.062996
vt 0.274174 0.062996
vt 0.274174 0.062996
vt 0.274174 0.062996
vt 0.274174 0.062996
vt 0.274174 0.062996
vt 0.274428 0.510059
vt 0.274428 0.510059
vt 0.274428 0.510059
vt 0.274428 0.510059
vt 0.244654 0.510059
vt 0.244654 0.510059
vt 0.244654 0.510059
vt 0.244654 0.510059
vt 0.274428 0.510059
vt 0.274428 0.510059
vt 0.274428 0.510059
vt 0.274428 0.510059
vt 0.244654 0.510059
vt 0.244654 0.510059
vt 0.244654 0.510059
vt 0.244654 0.510059
vt 0.240922 0.063209
vt 0.240922 0.063209
vt 0.240922 0.063209
vt 0.240922 0.063209
vt 0.240922 0.063209
vt 0.240922 0.063209
vt 0.240922 0.063209
vt 0.240922 0.063209
vt 0.240922 0.063209
vt 0.240922 0.063209
vt 0.240922 0.063209
vt 0.240922 0.063209
vt 0.240922 0.063209
vt 0.240922 0.063209
vt 0.240922 0.063209
vt 0.240922 0.063209
vt 0.336889 0.063776
vt 0.336889 0.063776
vt 0.336889 0.063776
vt 0.336889 0.063776
vt 0.336889 0.063776
vt 0.336889 0.063776
vt 0.336889 0.063776
vt 0.336889 0.063776
vt 0.336889 0.063776
vt 0.336889 0.063776
vt 0.336889 0.063776
vt 0.336889 0.063776
vt 0.336889 0.063776
vt 0.336889 0.063776
vt 0.336889 0.063776
vt 0.336889 0.063776
vt 0.301899 0.062549
vt 0.301899 0.062549
vt 0.301899 0.062549
vt 0.301899 0.062549
vt 0.271247 0.062549
vt 0.271247 0.062549
vt 0.271247 0.062549
vt 0.271247 0.062549
vt 0.301899 0.062549
vt 0.301899 0.062549
vt 0.301899 0.062549
vt 0.301899 0.062549
vt 0.271247 0.062549
vt 0.271247 0.062549
vt 0.271247 0.062549
vt 0.271247 0.062549
vt 0.272342 0.062549
vt 0.272342 0.062549
vt 0.272342 0.062549
vt 0.272342 0.062549
vt 0.241689 0.062549
vt 0.241689 0.062549
vt 0.241689 0.062549
vt 0.241689 0.062549
vt 0.272342 0.062549
vt 0.272342 0.062549
vt 0.272342 0.062549
vt 0.272342 0.062549
vt 0.241689 0.062549
vt 0.241689 0.062549
vt 0.241689 0.062549
vt 0.241689 0.062549
vt 0.239458 0.060492
vt 0.239458 0.060492
vt 0.239458 0.060492
vt 0.239458 0.060492
vt 0.239458 0.060492
vt 0.239458 0.060492
vt 0.239458 0.060492
vt 0.239458 0.060492
vt 0.304048 0.061587
vt 0.304048 0.061587
vt 0.304048 0.061587
vt 0.304048 0.061587
vt 0.304048 0.061587
vt 0.304048 0.061587
vt 0.304048 0.061587
vt 0.304048 0.061587
vt 0.304048 0.061587
vt 0.304048 0.061587
vt 0.304048 0.061587
vt 0.304048 0.061587
vt 0.304048 0.061587
vt 0.304048 0.061587
vt 0.304048 0.061587
vt 0.304048 0.061587
vt 0.239458 0.060492
vt 0.239458 0.060492
vt 0.337984 0.064871
vt 0.337984 0.064871
vt 0.337984 0.064871
vt 0.337984 0.064871
vt 0.239458 0.060492
vt 0.239458 0.060492
vt 0.337984 0.064871
vt 0.337984 0.064871
vt 0.337984 0.064871
vt 0.337984 0.064871
vt 0.336889 0.063776
vt 0.336889 0.063776
vt 0.336889 0.063776
vt 0.336889 0.063776
vt 0.244654 0.510059
vt 0.274428 0.510059
vt 0.209329 0.510059
vt 0.274428 0.510059
vt 0.239103 0.510059
vt 0.244654 0.510059
vt 0.239103 0.510059
vt 0.209329 0.510059
vt 0.209329 0.510059
vt 0.239103 0.510059
vt 0.244654 0.510059
vt 0.239103 0.510059
vt 0.274428 0.510059
vt 0.209329 0.510059
vt 0.274428 0.510059
vt 0.244654 0.510059
vt 0.244654 0.510059
vt 0.274428 0.510059
vt 0.209329 0.510059
vt 0.274428 0.510059
vt 0.239103 0.510059
vt 0.244654 0.510059
vt 0.239103 0.510059
vt 0.209329 0.510059
vt 0.209329 0.510059
vt 0.239103 0.510059
vt 0.244654 0.510059
vt 0.274428 0.510059
vt 0.274428 0.510059
vt 0.244654 0.510059
vt 0.274428 0.510059
vt 0.244654 0.510059
vt 0.209329 0.510059
vt 0.239103 0.510059
vt 0.244654 0.510059
vt 0.274428 0.510059
vt 0.239103 0.510059
vt 0.209329 0.510059
vt 0.209329 0.510059
vt 0.239103 0.510059
vt 0.274428 0.510059
vt 0.209329 0.510059
vt 0.244654 0.510059
vt 0.239103 0.510059
vt 0.244654 0.510059
vt 0.274428 0.510059
vt 0.209329 0.510059
vt 0.239103 0.510059
vt 0.239103 0.510059
vt 0.244654 0.510059
vt 0.209329 0.510059
vt 0.274428 0.510059
vt 0.209329 0.510059
vt 0.239103 0.510059
vt 0.244654 0.510059
vt 0.274428 0.510059
vt 0.274428 0.510059
vt 0.209329 0.510059
vt 0.244654 0.510059
vt 0.239103 0.510059
vt 0.244654 0.510059
vt 0.274428 0.510059
vt 0.209329 0.510059
vt 0.239103 0.510059
vn -0.965556 -0.000881 -0.260194
vn -0.965556 -0.000881 -0.260194
vn -0.965556 -0.000881 -0.260194
vn -0.965556 -0.000881 -0.260194
vn -0.999970 0.000735 0.007670
vn -0.999970 0.000735 0.007670
vn -0.999970 0.000735 0.007670
vn -0.999970 0.000735 0.007670
vn -0.264449 0.961309 -0.077155
vn -0.264629 0.964319 -0.007732
vn -0.264635 0.964310 -0.008642
vn 0.999970 -0.000735 -0.007670
vn 0.999970 -0.000735 -0.007670
vn 0.999970 -0.000735 -0.007670
vn 0.999970 -0.000735 -0.007670
vn -0.265929 -0.963961 0.007764
vn -0.265929 -0.963961 0.007764
vn -0.265958 -0.963977 0.003726
vn -0.265964 -0.963979 0.002816
vn 0.961451 -0.002297 -0.274969
vn 0.961451 -0.002297 -0.274969
vn 0.961451 -0.002297 -0.274969
vn 0.961451 -0.002297 -0.274969
vn 0.265902 0.963928 -0.011802
vn 0.264652 0.960918 -0.081213
vn 0.265894 0.963918 -0.012712
vn 0.264573 -0.964366 -0.000343
vn 0.264606 -0.964349 0.003695
vn 0.264606 -0.964349 0.003695
vn 0.264565 -0.964367 -0.001253
vn 0.265935 0.963960 -0.007764
vn 0.265902 0.963928 -0.011802
vn 0.265894 0.963918 -0.012712
vn 0.265935 0.963960 -0.007764
vn -0.264629 0.964319 -0.007732
vn -0.264600 0.964351 -0.003695
vn -0.264600 0.964351 -0.003695
vn -0.264635 0.964310 -0.008642
vn 0.264573 -0.964366 -0.000343
vn 0.264565 -0.964367 -0.001253
vn 0.263327 -0.962179 -0.069785
vn -0.265958 -0.963977 0.003726
vn -0.265774 -0.961792 -0.065727
vn -0.265964 -0.963979 0.002816
vn 0.000689 0.999982 -0.005942
vn 0.000689 0.999982 -0.005942
vn 0.000689 0.999982 -0.005942
vn 0.000689 0.999982 -0.005942
vn -0.000689 -0.999982 0.005942
vn -0.000689 -0.999982 0.005942
vn -0.000689 -0.999982 0.005942
vn -0.000689 -0.999982 0.005942
vn 0.007674 0.005937 0.999953
vn 0.007674 0.005937 0.999953
vn 0.007674 0.005937 0.999953
vn 0.007674 0.005937 0.999953
vn -0.999970 0.000735 0.007670
vn -0.999970 0.000735 0.007670
vn -0.999970 0.000735 0.007670
vn -0.999970 0.000735 0.007670
vn 0.999970 -0.000735 -0.007670
vn 0.999970 -0.000735 -0.007670
vn 0.999970 -0.000735 -0.007670
vn 0.999970 -0.000735 -0.007670
vn 0.000689 0.999982 -0.005942
vn 0.000689 0.999982 -0.005942
vn 0.000689 0.999982 -0.005942
vn 0.000689 0.999982 -0.005942
vn -0.999970 0.000754 0.007663
vn -0.999970 0.000748 0.007658
vn -0.999970 0.000748 0.007658
vn -0.999970 0.000754 0.007663
vn -0.000689 -0.999982 0.005942
vn -0.000689 -0.999982 0.005950
vn -0.000689 -0.999982 0.005950
vn -0.000689 -0.999982 0.005942
vn 0.999970 -0.000740 -0.007663
vn 0.999970 -0.000735 -0.007670
vn 0.999970 -0.000735 -0.007670
vn 0.999970 -0.000740 -0.007663
vn 0.007674 0.005936 0.999953
vn 0.007674 0.005936 0.999953
vn 0.007674 0.005936 0.999953
vn 0.007674 0.005936 0.999953
vn 0.007674 0.005938 0.999953
vn 0.007674 0.005938 0.999953
vn 0.007674 0.005938 0.999953
vn 0.007674 0.005938 0.999953
vn 0.007674 0.005937 0.999953
vn 0.007674 0.005937 0.999953
vn 0.007674 0.005937 0.999953
vn 0.007674 0.005937 0.999953
vn 0.007674 0.005937 0.999953
vn 0.007674 0.005937 0.999953
vn 0.007674 0.005937 0.999953
vn 0.007674 0.005937 0.999953
vn -0.007674 -0.005937 -0.999953
vn -0.007674 -0.005937 -0.999953
vn -0.007674 -0.005937 -0.999953
vn -0.007674 -0.005937 -0.999953
vn -0.007674 -0.005937 -0.999953
vn -0.007674 -0.005937 -0.999953
vn -0.007674 -0.005937 -0.999953
vn -0.007674 -0.005937 -0.999953
vn -0.007674 -0.005937 -0.999953
vn -0.007674 -0.005937 -0.999953
vn -0.007674 -0.005937 -0.999953
vn -0.007674 -0.005937 -0.999953
vn -0.007674 -0.005937 -0.999953
vn -0.007674 -0.005937 -0.999953
vn -0.007674 -0.005937 -0.999953
vn -0.007674 -0.005937 -0.999953
vn -0.000689 -0.999982 0.005942
vn -0.000689 -0.999982 0.005942
vn -0.000689 -0.999982 0.005942
vn -0.000689 -0.999982 0.005942
vn -0.999970 0.000735 0.007670
vn -0.999970 0.000735 0.007670
vn -0.999970 0.000735 0.007670
vn -0.999970 0.000735 0.007670
vn 0.000689 0.999982 -0.005942
vn 0.000689 0.999982 -0.005942
vn 0.000689 0.999982 -0.005942
vn 0.000689 0.999982 -0.005942
vn 0.999970 -0.000735 -0.007670
vn 0.999970 -0.000735 -0.007670
vn 0.999970 -0.000735 -0.007670
vn 0.999970 -0.000735 -0.007670
vn 0.001554 -0.955742 0.294200
vn 0.001554 -0.955742 0.294200
vn 0.001554 -0.955742 0.294200
vn 0.001554 -0.955742 0.294200
vn -0.763817 0.004362 0.645418
vn -0.763817 0.004362 0.645418
vn -0.763817 0.004362 0.645418
vn -0.763817 0.004362 0.645418
vn 0.002874 0.959168 0.282821
vn 0.002874 0.959168 0.282821
vn 0.002874 0.959168 0.282821
vn 0.002874 0.959168 0.282821
vn 0.773689 0.003232 0.633557
vn 0.773689 0.003232 0.633557
vn 0.773689 0.003232 0.633557
vn 0.773689 0.003232 0.633557
vn 0.007674 0.005937 0.999953
vn 0.007674 0.005937 0.999953
vn 0.007674 0.005937 0.999953
vn 0.007674 0.005937 0.999953
vn 0.007674 0.005939 0.999953
vn 0.007674 0.005939 0.999953
vn 0.007674 0.005939 0.999953
vn 0.007674 0.005939 0.999953
vn 0.007674 0.005937 0.999953
vn 0.007674 0.005937 0.999953
vn 0.007674 0.005937 0.999953
vn 0.007674 0.005937 0.999953
vn 0.007674 0.005937 0.999953
vn 0.007674 0.005937 0.999953
vn 0.007674 0.005937 0.999953
vn 0.007674 0.005937 0.999953
vn 0.124159 0.990666 -0.056262
vn 0.074429 0.996576 -0.036007
vn -0.073511 0.996685 -0.034870
vn -0.123549 0.990849 -0.054356
vn -0.124915 -0.991253 -0.042578
vn -0.074885 -0.996926 -0.023024
vn 0.073055 -0.997035 -0.024160
vn 0.122793 -0.991435 -0.044483
vn -0.928571 -0.001566 -0.371152
vn -0.928571 -0.001566 -0.371152
vn -0.928571 -0.001566 -0.371152
vn -0.928571 -0.001566 -0.371152
vn 0.922752 -0.002926 -0.385384
vn 0.922752 -0.002926 -0.385384
vn 0.922752 -0.002926 -0.385384
vn 0.922752 -0.002926 -0.385384
vn -0.377187 0.005763 0.926119
vn -0.377187 0.005763 0.926119
vn -0.377187 0.005763 0.926119
vn -0.377187 0.005763 0.926119
vn -0.124915 -0.991253 -0.042578
vn -0.262539 -0.960087 -0.096464
vn -0.262539 -0.960087 -0.096464
vn -0.074885 -0.996926 -0.023024
vn 0.313767 -0.005858 -0.949482
vn 0.313767 -0.005858 -0.949482
vn 0.313767 -0.005858 -0.949482
vn 0.313767 -0.005858 -0.949482
vn -0.073511 0.996685 -0.034870
vn -0.261216 0.959234 -0.107870
vn -0.261216 0.959234 -0.107870
vn -0.123549 0.990849 -0.054356
vn 0.391358 0.005199 0.920224
vn 0.391358 0.005199 0.920224
vn 0.391358 0.005199 0.920224
vn 0.391358 0.005199 0.920224
vn 0.124159 0.990666 -0.056262
vn 0.260937 0.958850 -0.111883
vn 0.260937 0.958850 -0.111883
vn 0.074429 0.996576 -0.036007
vn -0.328303 -0.005387 -0.944557
vn -0.328303 -0.005387 -0.944557
vn -0.328303 -0.005387 -0.944557
vn -0.328303 -0.005387 -0.944557
vn 0.073055 -0.997035 -0.024160
vn 0.259614 -0.960471 -0.100478
vn 0.259614 -0.960471 -0.100478
vn 0.122793 -0.991435 -0.044483
vn -0.007674 -0.005937 -0.999953
vn -0.007674 -0.005937 -0.999953
vn -0.007674 -0.005937 -0.999953
vn -0.007674 -0.005937 -0.999953
vn 0.999970 -0.000748 -0.007670
vn 0.999970 -0.000740 -0.007663
vn 0.999970 -0.000740 -0.007663
vn 0.999970 -0.000748 -0.007670
vn 0.000689 0.999982 -0.005942
vn 0.000689 0.999982 -0.005942
vn 0.000689 0.999982 -0.005942
vn 0.000689 0.999982 -0.005942
vn -0.999970 0.000770 0.007678
vn -0.999970 0.000754 0.007663
vn -0.999970 0.000754 0.007663
vn -0.999970 0.000770 0.007678
vn -0.000689 -0.999982 0.005950
vn -0.000689 -0.999982 0.005950
vn -0.000689 -0.999982 0.005950
vn -0.000689 -0.999982 0.005950
vn 0.999970 -0.000743 -0.007678
vn 0.999970 -0.000748 -0.007670
vn 0.999970 -0.000748 -0.007670
vn 0.999970 -0.000743 -0.007678
vn 0.000689 0.999982 -0.005942
vn 0.000689 0.999982 -0.005942
vn 0.000689 0.999982 -0.005942
vn 0.000689 0.999982 -0.005942
vn -0.999970 0.000776 0.007670
vn -0.999970 0.000770 0.007678
vn -0.999970 0.000770 0.007678
vn -0.999970 0.000776 0.007670
vn -0.000689 -0.999982 0.005950
vn -0.000689 -0.999982 0.005942
vn -0.000689 -0.999982 0.005942
vn -0.000689 -0.999982 0.005950
vn 0.999970 -0.000735 -0.007670
vn 0.999970 -0.000743 -0.007678
vn 0.999970 -0.000743 -0.007678
vn 0.999970 -0.000735 -0.007670
vn 0.000689 0.999982 -0.005942
vn 0.000689 0.999982 -0.005942
vn 0.000689 0.999982 -0.005942
vn 0.000689 0.999982 -0.005942
vn -0.999970 0.000759 0.007670
vn -0.999970 0.000776 0.007670
vn -0.999970 0.000776 0.007670
vn -0.999970 0.000759 0.007670
vn -0.000689 -0.999982 0.005942
vn -0.000689 -0.999982 0.005935
vn -0.000689 -0.999982 0.005935
vn -0.000689 -0.999982 0.005942
vn 0.999970 -0.000735 -0.007670
vn 0.999970 -0.000735 -0.007670
vn 0.999970 -0.000735 -0.007670
vn 0.999970 -0.000735 -0.007670
vn 0.000689 0.999982 -0.005942
vn 0.000689 0.999982 -0.005942
vn 0.000689 0.999982 -0.005942
vn 0.000689 0.999982 -0.005942
vn -0.999970 0.000748 0.007681
vn -0.999970 0.000759 0.007670
vn -0.999970 0.000759 0.007670
vn -0.999970 0.000748 0.007681
vn -0.000689 -0.999982 0.005935
vn -0.000689 -0.999982 0.005931
vn -0.000689 -0.999982 0.005931
vn -0.000689 -0.999982 0.005935
s off
f 9/1/1 4/4/2 2/3/3 10/2/4
f 6/5/5 2/8/6 4/7/7 5/6/8
f 10/9/9 2/12/10 13/42/11
f 8/13/12 3/16/13 1/15/14 7/14/15
f 12/17/16 5/20/17 4/19/18 14/38/19
f 1/21/20 3/24/21 9/23/22 10/22/23
f 1/44/24 10/27/25 13/41/26
f 3/40/27 8/32/28 12/31/29 14/37/30
f 7/25/31 1/28/32 13/34/33 11/26/34
f 2/43/35 6/11/36 11/10/37 13/33/38
f 3/29/39 14/36/40 9/30/41
f 4/39/42 9/18/43 14/35/44
f 23/45/45 26/48/46 25/47/47 24/46/48
f 27/49/49 30/52/50 29/51/51 28/50/52
f 39/53/53 42/56/54 41/55/55 40/54/56
f 24/57/57 25/60/58 28/59/59 29/58/60
f 30/61/61 27/64/62 26/63/63 23/62/64
f 60/188/65 19/68/66 20/67/67 61/241/68
f 61/190/69 20/72/70 21/71/71 62/245/72
f 22/73/73 59/186/74 62/246/75 21/74/76
f 59/185/77 22/80/78 19/79/79 60/243/80
f 19/81/81 23/84/82 24/83/83 20/82/84
f 21/85/85 29/88/86 30/87/87 22/86/88
f 20/89/89 24/92/90 29/91/91 21/90/92
f 22/93/93 30/96/94 23/95/95 19/94/96
f 17/97/97 31/100/98 32/99/99 18/98/100
f 18/101/101 32/104/102 33/103/103 16/102/104
f 16/105/105 33/108/106 34/107/107 15/106/108
f 15/109/109 34/112/110 31/111/111 17/110/112
f 31/113/113 35/116/114 36/115/115 32/114/116
f 32/117/117 36/120/118 37/119/119 33/118/120
f 33/121/121 37/124/122 38/123/123 34/122/124
f 34/125/125 38/128/126 35/127/127 31/126/128
f 35/129/129 39/132/130 40/131/131 36/130/132
f 36/133/133 40/136/134 41/135/135 37/134/136
f 37/137/137 41/140/138 42/139/139 38/138/140
f 38/141/141 42/144/142 39/143/143 35/142/144
f 26/145/145 44/148/146 43/147/147 25/146/148
f 28/149/149 46/152/150 45/151/151 27/150/152
f 25/146/153 43/147/154 46/152/155 28/149/156
f 27/150/157 45/151/158 44/148/159 26/145/160
f 44/153/161 48/156/162 47/155/163 43/154/164
f 46/157/165 50/160/166 49/159/167 45/158/168
f 52/161/169 54/164/170 53/163/171 51/162/172
f 56/165/173 58/168/174 57/167/175 55/166/176
f 43/147/177 52/170/178 51/169/179 46/152/180
f 46/157/181 51/162/182 53/163/183 50/160/184
f 50/171/185 53/174/186 54/173/187 47/172/188
f 47/155/189 54/164/190 52/161/191 43/154/192
f 45/151/193 56/176/194 55/175/195 44/148/196
f 44/153/197 55/166/198 57/167/199 48/156/200
f 48/177/201 57/180/202 58/179/203 49/178/204
f 49/159/205 58/168/206 56/165/207 45/158/208
f 48/181/209 49/184/210 50/183/211 47/182/212
f 63/193/213 59/247/214 60/187/215 64/235/216
f 64/196/217 60/244/218 61/189/219 65/233/220
f 65/198/221 61/242/222 62/192/223 66/237/224
f 59/248/225 63/194/226 66/238/227 62/191/228
f 67/201/229 63/239/230 64/195/231 68/227/232
f 68/204/233 64/236/234 65/197/235 69/225/236
f 69/206/237 65/234/238 66/200/239 70/229/240
f 63/240/241 67/202/242 70/230/243 66/199/244
f 71/209/245 67/231/246 68/203/247 72/223/248
f 72/224/249 68/228/250 69/205/251 73/221/252
f 73/222/253 69/226/254 70/208/255 74/217/256
f 67/232/257 71/210/258 74/218/259 70/207/260
f 17/77/261 71/219/262 72/211/263 15/78/264
f 15/65/265 72/212/266 73/213/267 16/66/268
f 16/69/269 73/214/270 74/216/271 18/70/272
f 71/220/273 17/76/274 18/75/275 74/215/276
