# This file uses meters as units for non-parametric coordinates.

v -0.134563 0.535922 0.134565
v 0.134565 0.535922 0.134565
v -0.094351 1.373553 0.094351
v 0.094351 1.373553 0.094351
v -0.094351 1.373553 -0.094351
v 0.094351 1.373553 -0.094351
v -0.134563 0.535922 -0.134565
v 0.134565 0.535922 -0.134565
v 0.228040 0.646774 0.228040
v -0.228039 0.646774 0.228040
v -0.228039 0.646774 -0.228040
v 0.228040 0.646774 -0.228040
v 0.228040 0.808392 0.228040
v -0.228039 0.808392 0.228040
v -0.228039 0.808392 -0.228040
v 0.228040 0.808392 -0.228040
v 0.070585 1.051165 -0.070585
v 0.070585 1.051165 0.070585
v -0.070585 1.051165 0.070585
v -0.070585 1.051165 -0.070585
v 0.070585 1.301291 0.070585
v -0.070585 1.301291 0.070585
v -0.070585 1.301291 -0.070585
v 0.070585 1.301291 -0.070585
v 0.094351 1.322685 0.094351
v -0.094351 1.322685 0.094351
v -0.094351 1.322685 -0.094351
v 0.094351 1.322685 -0.094351
v -0.070585 1.139915 0.070585
v 0.070585 1.139915 0.070585
v 0.070585 1.139915 -0.070585
v -0.070585 1.139915 -0.070585
v 0.058382 1.373553 0.058381
v -0.058381 1.373553 0.058381
v 0.058382 1.373553 -0.058381
v -0.058381 1.373553 -0.058381
v -0.202957 0.582871 -0.202958
v -0.202957 0.582871 0.202958
v -0.298539 0.000000 -0.298541
v -0.298539 0.000000 0.298541
v -0.215842 0.508696 -0.141668
v -0.215842 0.508696 0.141668
v -0.298539 0.000000 0.195946
v -0.298541 0.000000 -0.195946
v -0.162135 0.000000 -0.195946
v -0.162135 0.000000 0.195946
v -0.117223 0.508696 0.141668
v -0.117223 0.508696 -0.141668
v -0.117223 0.508696 0.215844
v -0.117223 0.508696 -0.215844
v -0.162135 0.000000 0.298541
v -0.162135 0.000000 -0.298541
v -0.110224 0.582871 0.133211
v -0.110224 0.582871 -0.133211
v 0.202961 0.582871 -0.202958
v 0.202961 0.582871 0.202958
v 0.298541 0.000000 -0.298541
v 0.298541 0.000000 0.298541
v 0.215845 0.508696 -0.141668
v 0.215845 0.508696 0.141668
v 0.298541 0.000000 0.195946
v 0.298541 0.000000 -0.195946
v 0.162138 0.000000 -0.195946
v 0.162138 0.000000 0.195946
v 0.117226 0.508696 0.141668
v 0.117226 0.508696 -0.141668
v 0.117226 0.508696 0.215844
v 0.117226 0.508696 -0.215844
v 0.162138 0.000000 0.298541
v 0.162138 0.000000 -0.298541
v 0.110227 0.582871 0.133211
v 0.110227 0.582871 -0.133211
vt 0.168814 0.287703
vt 0.168814 0.287703
vt 0.328122 0.063783
vt 0.328122 0.063783
vt 0.358580 0.063783
vt 0.358580 0.063783
vt 0.358580 0.063783
vt 0.358580 0.063783
vt 0.328122 0.063783
vt 0.328122 0.063783
vt 0.168814 0.287703
vt 0.168814 0.287703
vt 0.105449 0.287703
vt 0.105449 0.287703
vt 0.105449 0.287703
vt 0.105449 0.287703
vt 0.139040 0.287703
vt 0.139040 0.287703
vt 0.298348 0.063783
vt 0.298348 0.063783
vt 0.139040 0.287703
vt 0.139040 0.287703
vt 0.298348 0.063783
vt 0.298348 0.063783
vt 0.168814 0.287703
vt 0.139040 0.287703
vt 0.200357 0.287703
vt 0.139040 0.287703
vt 0.200357 0.287703
vt 0.170583 0.287703
vt 0.200357 0.287703
vt 0.139040 0.287703
vt 0.200357 0.287703
vt 0.170583 0.287703
vt 0.231900 0.287703
vt 0.170583 0.287703
vt 0.231900 0.287703
vt 0.202126 0.287703
vt 0.231900 0.287703
vt 0.170583 0.287703
vt 0.231900 0.287703
vt 0.202126 0.287703
vt 0.200357 0.287703
vt 0.170583 0.287703
vt 0.200357 0.287703
vt 0.170583 0.287703
vt 0.200357 0.287703
vt 0.170583 0.287703
vt 0.202126 0.287703
vt 0.231900 0.287703
vt 0.170583 0.287703
vt 0.200357 0.287703
vt 0.231900 0.287703
vt 0.202126 0.287703
vt 0.202126 0.287703
vt 0.231900 0.287703
vt 0.200357 0.287703
vt 0.202126 0.287703
vt 0.200357 0.287703
vt 0.202126 0.287703
vt 0.231900 0.287703
vt 0.202126 0.287703
vt 0.170583 0.287703
vt 0.200357 0.287703
vt 0.168814 0.287703
vt 0.170583 0.287703
vt 0.200357 0.287703
vt 0.170583 0.287703
vt 0.139040 0.287703
vt 0.168814 0.287703
vt 0.168814 0.287703
vt 0.170583 0.287703
vt 0.328122 0.063783
vt 0.298348 0.063783
vt 0.294225 0.063783
vt 0.298348 0.063783
vt 0.294225 0.063783
vt 0.264451 0.063783
vt 0.294225 0.063783
vt 0.298348 0.063783
vt 0.294225 0.063783
vt 0.264451 0.063783
vt 0.328122 0.063783
vt 0.298348 0.063783
vt 0.328122 0.063783
vt 0.298348 0.063783
vt 0.328122 0.063783
vt 0.298348 0.063783
vt 0.294225 0.063783
vt 0.264451 0.063783
vt 0.328122 0.063783
vt 0.298348 0.063783
vt 0.264451 0.063783
vt 0.294225 0.063783
vt 0.294225 0.063783
vt 0.264451 0.063783
vt 0.328122 0.063783
vt 0.264451 0.063783
vt 0.328122 0.063783
vt 0.264451 0.063783
vt 0.294225 0.063783
vt 0.264451 0.063783
vt 0.298348 0.063783
vt 0.328122 0.063783
vt 0.328122 0.063783
vt 0.298348 0.063783
vt 0.200357 0.287703
vt 0.170583 0.287703
vt 0.200357 0.287703
vt 0.170583 0.287703
vt 0.200357 0.287703
vt 0.170583 0.287703
vt 0.328122 0.063783
vt 0.298348 0.063783
vt 0.200357 0.287703
vt 0.170583 0.287703
vt 0.298348 0.063783
vt 0.328122 0.063783
vt 0.328122 0.063783
vt 0.298348 0.063783
vt 0.298622 0.063783
vt 0.358580 0.063783
vt 0.358580 0.063783
vt 0.358580 0.063783
vt 0.298622 0.063783
vt 0.358580 0.063783
vt 0.298622 0.063783
vt 0.298622 0.063783
vt 0.267228 0.085439
vt 0.267228 0.085439
vt 0.267228 0.085439
vt 0.267228 0.085439
vt 0.237018 0.085439
vt 0.237018 0.085439
vt 0.237018 0.085439
vt 0.237018 0.085439
vt 0.236506 0.085439
vt 0.236506 0.085439
vt 0.236506 0.085439
vt 0.236506 0.085439
vt 0.265960 0.085439
vt 0.265960 0.085439
vt 0.265960 0.085439
vt 0.265960 0.085439
vt 0.265960 0.085439
vt 0.265960 0.085439
vt 0.265960 0.085439
vt 0.265960 0.085439
vt 0.236506 0.085439
vt 0.236506 0.085439
vt 0.236506 0.085439
vt 0.236506 0.085439
vt 0.267228 0.085439
vt 0.267228 0.085439
vt 0.267228 0.085439
vt 0.267228 0.085439
vt 0.237018 0.085439
vt 0.237018 0.085439
vt 0.237018 0.085439
vt 0.237018 0.085439
vt 0.236506 0.085439
vt 0.236506 0.085439
vt 0.236506 0.085439
vt 0.236506 0.085439
vt 0.205687 0.085439
vt 0.205687 0.085439
vt 0.205687 0.085439
vt 0.205687 0.085439
vt 0.237018 0.085439
vt 0.237018 0.085439
vt 0.237018 0.085439
vt 0.237018 0.085439
vt 0.299112 0.085439
vt 0.299112 0.085439
vt 0.299112 0.085439
vt 0.299112 0.085439
vt 0.211138 0.085439
vt 0.211138 0.085439
vt 0.211138 0.085439
vt 0.211138 0.085439
vt 0.267159 0.085439
vt 0.267159 0.085439
vt 0.267159 0.085439
vt 0.267159 0.085439
vt 0.267159 0.085439
vt 0.267159 0.085439
vt 0.267159 0.085439
vt 0.267159 0.085439
vt 0.267228 0.085439
vt 0.267228 0.085439
vt 0.267228 0.085439
vt 0.267228 0.085439
vt 0.237018 0.085439
vt 0.237018 0.085439
vt 0.237018 0.085439
vt 0.237018 0.085439
vt 0.236506 0.085439
vt 0.236506 0.085439
vt 0.236506 0.085439
vt 0.236506 0.085439
vt 0.265960 0.085439
vt 0.265960 0.085439
vt 0.265960 0.085439
vt 0.265960 0.085439
vt 0.265960 0.085439
vt 0.265960 0.085439
vt 0.265960 0.085439
vt 0.265960 0.085439
vt 0.236506 0.085439
vt 0.236506 0.085439
vt 0.236506 0.085439
vt 0.236506 0.085439
vt 0.267228 0.085439
vt 0.267228 0.085439
vt 0.267228 0.085439
vt 0.267228 0.085439
vt 0.237018 0.085439
vt 0.237018 0.085439
vt 0.237018 0.085439
vt 0.237018 0.085439
vt 0.236506 0.085439
vt 0.236506 0.085439
vt 0.236506 0.085439
vt 0.236506 0.085439
vt 0.205687 0.085439
vt 0.205687 0.085439
vt 0.205687 0.085439
vt 0.205687 0.085439
vt 0.237018 0.085439
vt 0.237018 0.085439
vt 0.237018 0.085439
vt 0.237018 0.085439
vt 0.299112 0.085439
vt 0.299112 0.085439
vt 0.299112 0.085439
vt 0.299112 0.085439
vt 0.298869 0.085439
vt 0.298869 0.085439
vt 0.298869 0.085439
vt 0.298869 0.085439
vt 0.267159 0.085439
vt 0.267159 0.085439
vt 0.267159 0.085439
vt 0.267159 0.085439
vt 0.211138 0.085439
vt 0.211138 0.085439
vt 0.211138 0.085439
vt 0.211138 0.085439
vt 0.267159 0.085439
vt 0.267159 0.085439
vt 0.267159 0.085439
vt 0.267159 0.085439
vt 0.298869 0.085439
vt 0.298869 0.085439
vt 0.298869 0.085439
vt 0.298869 0.085439
vn 0.000000 -0.644645 0.764482
vn 0.000000 -0.644645 0.764482
vn 0.000000 -0.644645 0.764482
vn 0.000000 -0.644645 0.764482
vn 0.000000 1.000000 0.000000
vn 0.000000 1.000000 0.000000
vn 0.000000 1.000000 0.000000
vn 0.000000 1.000000 0.000000
vn 0.000000 -0.644645 -0.764482
vn 0.000000 -0.644645 -0.764482
vn 0.000000 -0.644645 -0.764482
vn 0.000000 -0.644645 -0.764482
vn 0.000000 -1.000000 0.000000
vn 0.000000 -1.000000 0.000000
vn 0.000000 -1.000000 0.000000
vn 0.000000 -1.000000 0.000000
vn 0.764483 -0.644644 0.000000
vn 0.764483 -0.644644 0.000000
vn 0.764483 -0.644644 0.000000
vn 0.764483 -0.644644 0.000000
vn -0.764480 -0.644647 0.000000
vn -0.764480 -0.644647 0.000000
vn -0.764480 -0.644647 0.000000
vn -0.764480 -0.644647 0.000000
vn 0.000000 0.000000 1.000000
vn 0.000000 0.000000 1.000000
vn 0.000000 0.000000 1.000000
vn 0.000000 0.000000 1.000000
vn -1.000000 0.000000 0.000000
vn -1.000000 0.000000 0.000000
vn -1.000000 0.000000 0.000000
vn -1.000000 0.000000 0.000000
vn 0.000000 0.000000 -1.000000
vn 0.000000 0.000000 -1.000000
vn 0.000000 0.000000 -1.000000
vn 0.000000 0.000000 -1.000000
vn 1.000000 0.000000 0.000000
vn 1.000000 0.000000 0.000000
vn 1.000000 0.000000 0.000000
vn 1.000000 0.000000 0.000000
vn 0.000000 0.544145 0.838991
vn 0.000000 0.544145 0.838991
vn 0.000000 0.544145 0.838991
vn 0.000000 0.544145 0.838991
vn -0.838992 0.544144 0.000000
vn -0.838992 0.544144 0.000000
vn -0.838992 0.544144 0.000000
vn -0.838992 0.544144 0.000000
vn 0.000000 0.544145 -0.838991
vn 0.000000 0.544145 -0.838991
vn 0.000000 0.544145 -0.838991
vn 0.000000 0.544145 -0.838991
vn 0.838992 0.544144 0.000000
vn 0.838992 0.544144 0.000000
vn 0.838992 0.544144 0.000000
vn 0.838992 0.544144 0.000000
vn 1.000000 0.000000 0.000000
vn 1.000000 0.000000 0.000000
vn 1.000000 0.000000 0.000000
vn 1.000000 0.000000 0.000000
vn 0.000000 -0.000000 1.000000
vn 0.000000 -0.000000 1.000000
vn 0.000000 -0.000000 1.000000
vn 0.000000 -0.000000 1.000000
vn -1.000000 0.000000 0.000000
vn -1.000000 0.000000 0.000000
vn -1.000000 0.000000 0.000000
vn -1.000000 0.000000 0.000000
vn 0.000000 0.000000 -1.000000
vn 0.000000 0.000000 -1.000000
vn 0.000000 0.000000 -1.000000
vn 0.000000 0.000000 -1.000000
vn 0.000000 -0.743225 0.669042
vn 0.000000 -0.743225 0.669042
vn 0.000000 -0.743225 0.669042
vn 0.000000 -0.743225 0.669042
vn -0.669028 -0.743237 0.000000
vn -0.669028 -0.743237 0.000000
vn -0.669028 -0.743237 0.000000
vn -0.669028 -0.743237 0.000000
vn 0.000000 -0.743225 -0.669042
vn 0.000000 -0.743225 -0.669042
vn 0.000000 -0.743225 -0.669042
vn 0.000000 -0.743225 -0.669042
vn 0.669040 -0.743226 0.000000
vn 0.669040 -0.743226 0.000000
vn 0.669040 -0.743226 0.000000
vn 0.669040 -0.743226 0.000000
vn 0.000000 0.000000 1.000000
vn 0.000000 0.000000 1.000000
vn 0.000000 0.000000 1.000000
vn 0.000000 0.000000 1.000000
vn -1.000000 0.000000 0.000000
vn -1.000000 0.000000 0.000000
vn -1.000000 0.000000 0.000000
vn -1.000000 0.000000 0.000000
vn 0.000000 0.000000 -1.000000
vn 0.000000 0.000000 -1.000000
vn 0.000000 0.000000 -1.000000
vn 0.000000 0.000000 -1.000000
vn 1.000000 0.000000 0.000000
vn 1.000000 0.000000 0.000000
vn 1.000000 0.000000 0.000000
vn 1.000000 0.000000 0.000000
vn 0.000000 0.000000 1.000000
vn 0.000000 0.000000 1.000000
vn 0.000000 -0.000000 1.000000
vn 0.000000 -0.000000 1.000000
vn 1.000000 0.000000 0.000000
vn 1.000000 0.000000 0.000000
vn 1.000000 0.000000 0.000000
vn 1.000000 0.000000 0.000000
vn 0.000000 0.000000 -1.000000
vn 0.000000 0.000000 -1.000000
vn 0.000000 0.000000 -1.000000
vn 0.000000 0.000000 -1.000000
vn -1.000000 0.000000 0.000000
vn -1.000000 0.000000 0.000000
vn -1.000000 0.000000 0.000000
vn -1.000000 0.000000 0.000000
vn 0.000000 1.000000 0.000001
vn 0.000000 1.000000 0.000001
vn 0.000000 1.000000 0.000001
vn 0.000000 1.000000 0.000001
vn 0.000000 1.000000 0.000000
vn 0.000000 1.000000 0.000000
vn 0.000000 1.000000 0.000000
vn 0.000000 1.000000 0.000000
vn 0.000000 1.000000 0.000001
vn 0.000000 1.000000 0.000001
vn 0.000000 1.000000 0.000001
vn 0.000000 1.000000 0.000001
vn 0.000000 1.000000 0.000000
vn 0.000000 1.000000 0.000000
vn 0.000000 1.000000 0.000000
vn 0.000000 1.000000 0.000000
vn 0.000000 0.000000 -1.000000
vn 0.000000 0.000000 -1.000000
vn 0.000000 0.000000 -1.000000
vn 0.000000 0.000000 -1.000000
vn -1.000000 0.000002 -0.000011
vn -1.000000 0.000002 -0.000011
vn -1.000000 0.000002 -0.000011
vn -1.000000 0.000002 -0.000011
vn 1.000000 0.000000 0.000000
vn 1.000000 0.000000 0.000000
vn 1.000000 0.000000 0.000000
vn 1.000000 0.000000 0.000000
vn 0.000000 0.000000 1.000000
vn 0.000000 0.000000 1.000000
vn 0.000000 0.000000 1.000000
vn 0.000000 0.000000 1.000000
vn 0.000000 0.000000 -1.000000
vn 0.000000 0.000000 -1.000000
vn 0.000000 0.000000 -1.000000
vn 0.000000 0.000000 -1.000000
vn 1.000000 0.000000 0.000000
vn 1.000000 0.000000 0.000000
vn 1.000000 0.000000 0.000000
vn 1.000000 0.000000 0.000000
vn 0.000000 0.000000 1.000000
vn 0.000000 0.000000 1.000000
vn 0.000000 0.000000 1.000000
vn 0.000000 0.000000 1.000000
vn -1.000000 0.000000 0.000000
vn -1.000000 0.000000 0.000000
vn -1.000000 0.000000 0.000000
vn -1.000000 0.000000 0.000000
vn 1.000000 0.000000 0.000000
vn 1.000000 0.000000 0.000000
vn 1.000000 0.000000 0.000000
vn 1.000000 0.000000 0.000000
vn 0.000000 -1.000000 0.000000
vn 0.000000 -1.000000 0.000000
vn 0.000000 -1.000000 0.000000
vn 0.000000 -1.000000 0.000000
vn -1.000000 0.000000 0.000000
vn -1.000000 0.000000 0.000000
vn -1.000000 0.000000 0.000000
vn -1.000000 0.000000 0.000000
vn 0.000000 1.000000 0.000000
vn 0.000000 1.000000 0.000000
vn 0.000000 1.000000 0.000000
vn 0.000000 1.000000 0.000000
vn 0.000000 -1.000000 0.000000
vn 0.000000 -1.000000 0.000000
vn 0.000000 -1.000000 0.000000
vn 0.000000 -1.000000 0.000000
vn 0.000000 0.000000 1.000000
vn 0.000000 0.000000 1.000000
vn 0.000000 0.000000 1.000000
vn 0.000000 0.000000 1.000000
vn 0.000000 0.000000 -1.000000
vn 0.000000 0.000000 -1.000000
vn 0.000000 0.000000 -1.000000
vn 0.000000 0.000000 -1.000000
vn 0.000000 0.000000 -1.000000
vn 0.000000 0.000000 -1.000000
vn 0.000000 0.000000 -1.000000
vn 0.000000 0.000000 -1.000000
vn 1.000000 0.000000 0.000000
vn 1.000000 0.000000 0.000000
vn 1.000000 0.000000 0.000000
vn 1.000000 0.000000 0.000000
vn -1.000000 0.000000 0.000000
vn -1.000000 0.000000 0.000000
vn -1.000000 0.000000 0.000000
vn -1.000000 0.000000 0.000000
vn 0.000000 0.000000 1.000000
vn 0.000000 0.000000 1.000000
vn 0.000000 0.000000 1.000000
vn 0.000000 0.000000 1.000000
vn 0.000000 0.000000 -1.000000
vn 0.000000 0.000000 -1.000000
vn 0.000000 0.000000 -1.000000
vn 0.000000 0.000000 -1.000000
vn -1.000000 0.000000 0.000000
vn -1.000000 0.000000 0.000000
vn -1.000000 0.000000 0.000000
vn -1.000000 0.000000 0.000000
vn 0.000000 0.000000 1.000000
vn 0.000000 0.000000 1.000000
vn 0.000000 0.000000 1.000000
vn 0.000000 0.000000 1.000000
vn 1.000000 0.000000 0.000000
vn 1.000000 0.000000 0.000000
vn 1.000000 0.000000 0.000000
vn 1.000000 0.000000 0.000000
vn -1.000000 0.000000 0.000000
vn -1.000000 0.000000 0.000000
vn -1.000000 0.000000 0.000000
vn -1.000000 0.000000 0.000000
vn -0.000000 -1.000000 0.000000
vn -0.000000 -1.000000 0.000000
vn -0.000000 -1.000000 0.000000
vn -0.000000 -1.000000 0.000000
vn 1.000000 -0.000002 0.000000
vn 1.000000 -0.000002 0.000000
vn 1.000000 -0.000002 0.000000
vn 1.000000 -0.000002 0.000000
vn 0.000000 1.000000 0.000000
vn 0.000000 1.000000 0.000000
vn 0.000000 1.000000 0.000000
vn 0.000000 1.000000 0.000000
vn 0.000000 1.000000 0.000000
vn 0.000000 1.000000 0.000000
vn 0.000000 1.000000 0.000000
vn 0.000000 1.000000 0.000000
vn 0.000000 0.000000 -1.000000
vn 0.000000 0.000000 -1.000000
vn 0.000000 0.000000 -1.000000
vn 0.000000 0.000000 -1.000000
vn 0.000000 -1.000000 0.000000
vn 0.000000 -1.000000 0.000000
vn 0.000000 -1.000000 0.000000
vn 0.000000 -1.000000 0.000000
vn 0.000000 0.000000 1.000000
vn 0.000000 0.000000 1.000000
vn 0.000000 0.000000 1.000000
vn 0.000000 0.000000 1.000000
vn 0.000000 1.000000 0.000000
vn 0.000000 1.000000 0.000000
vn 0.000000 1.000000 0.000000
vn 0.000000 1.000000 0.000000
s off
f 1/1/1 2/2/2 9/25/3 10/71/4
f 34/121/5 33/128/6 35/127/7 36/125/8
f 11/70/9 12/65/10 8/11/11 7/12/12
f 7/13/13 8/14/14 2/15/15 1/16/16
f 2/17/17 8/18/18 12/32/19 9/26/20
f 7/21/21 1/22/22 10/28/23 11/69/24
f 10/27/25 9/67/26 13/33/27 14/57/28
f 11/30/29 10/72/30 14/36/31 15/63/32
f 15/64/33 16/59/34 12/31/35 11/29/36
f 9/68/37 12/66/38 16/40/39 13/34/40
f 14/35/41 13/61/42 18/56/43 19/53/44
f 15/38/45 14/58/46 19/54/47 20/49/48
f 20/50/49 17/41/50 16/39/51 15/37/52
f 13/62/53 16/60/54 17/42/55 18/55/56
f 30/120/57 31/117/58 24/80/59 21/74/60
f 29/105/61 30/119/62 21/73/63 22/99/64
f 32/114/65 29/106/66 22/76/67 23/103/68
f 23/104/69 24/97/70 31/118/71 32/113/72
f 22/75/73 21/101/74 25/81/75 26/95/76
f 23/78/77 22/100/78 26/96/79 27/93/80
f 27/94/81 28/89/82 24/79/83 23/77/84
f 21/102/85 24/98/86 28/90/87 25/82/88
f 26/83/89 25/91/90 4/3/91 3/4/92
f 27/86/93 26/84/94 3/23/95 5/24/96
f 5/9/97 6/10/98 28/87/99 27/85/100
f 25/92/101 28/88/102 6/19/103 4/20/104
f 19/45/105 18/43/106 30/107/107 29/115/108
f 18/44/109 17/51/110 31/110/111 30/108/112
f 32/111/113 31/109/114 17/52/115 20/47/116
f 20/48/117 19/46/118 29/116/119 32/112/120
f 3/5/121 4/6/122 33/122/123 34/126/124
f 4/6/125 6/7/126 35/123/127 33/122/128
f 6/7/129 5/8/130 36/124/131 35/123/132
f 5/8/133 3/5/134 34/126/135 36/124/136
f 39/129/137 37/130/138 50/131/139 52/132/140
f 44/133/141 41/134/142 37/135/143 39/136/144
f 48/137/145 45/138/146 52/139/147 50/140/148
f 45/141/149 48/142/150 41/143/151 44/144/152
f 43/145/153 42/146/154 47/147/155 46/148/156
f 46/149/157 47/150/158 49/151/159 51/152/160
f 38/153/161 40/154/162 51/155/163 49/156/164
f 42/157/165 43/158/166 40/159/167 38/160/168
f 47/161/169 48/162/170 54/163/171 53/164/172
f 42/165/173 41/166/174 48/167/175 47/168/176
f 41/169/177 42/170/178 38/171/179 37/172/180
f 37/173/181 38/174/182 53/175/183 54/176/184
f 49/177/185 47/178/186 65/179/187 67/180/188
f 38/181/189 49/182/190 67/183/191 56/184/192
f 47/185/193 53/186/194 71/187/195 65/188/196
f 57/189/197 70/190/198 68/191/199 55/192/200
f 62/193/201 57/194/202 55/195/203 59/196/204
f 66/197/205 68/198/206 70/199/207 63/200/208
f 63/201/209 62/202/210 59/203/211 66/204/212
f 61/205/213 64/206/214 65/207/215 60/208/216
f 64/209/217 69/210/218 67/211/219 65/212/220
f 56/213/221 67/214/222 69/215/223 58/216/224
f 60/217/225 56/218/226 58/219/227 61/220/228
f 65/221/229 71/222/230 72/223/231 66/224/232
f 60/225/233 65/226/234 66/227/235 59/228/236
f 59/229/237 55/230/238 56/231/239 60/232/240
f 55/233/241 72/234/242 71/235/243 56/236/244
f 38/237/245 56/238/246 71/239/247 53/240/248
f 37/241/249 55/242/250 68/243/251 50/244/252
f 50/245/253 68/246/254 66/247/255 48/248/256
f 48/249/257 66/250/258 72/251/259 54/252/260
f 54/253/261 72/254/262 55/255/263 37/256/264
