# This file uses meters as units for non-parametric coordinates.

v -0.236062 0.449642 -2.041607
v -0.023786 0.055186 2.060505
v -0.231513 0.589173 -2.028423
v -0.019237 0.194717 2.073689
v 0.358273 0.572977 -2.060505
v 0.570549 0.178521 2.041607
v 0.353724 0.433446 -2.073689
v 0.566000 0.038989 2.028423
v -0.255192 0.042307 -0.764657
v -0.094137 0.042307 -0.345517
v -0.174749 0.228685 -0.744287
v -0.048035 0.228685 -0.414517
v 0.156847 0.228685 -0.944578
v 0.443659 0.228685 -0.534741
v 0.173518 0.042307 -1.038976
v 0.538058 0.042307 -0.518070
v -0.382969 0.042307 0.821486
v -0.071961 0.042307 0.983194
v -0.332572 0.145064 0.805569
v -0.087877 0.145064 0.932801
v -0.205340 0.145064 0.560875
v 0.039353 0.145064 0.688107
v -0.221256 0.042307 0.510477
v 0.089751 0.042307 0.672191
v 1.027198 0.042307 0.141349
v 1.111664 0.042307 -0.322859
v 0.966125 0.449045 0.079110
v 1.032580 0.449045 -0.286119
v 0.559050 0.449045 0.077703
v 0.525557 0.449045 -0.446884
v 0.492504 0.042307 0.153320
v 0.449935 0.042307 -0.513424
v -0.579183 0.032093 -1.023026
v -1.034796 0.032093 -0.347534
v -0.550185 0.501132 -0.927969
v -0.935513 0.501132 -0.343069
v -0.139373 0.501132 -0.712366
v -0.507496 0.501132 0.086225
v -0.032310 0.032093 -0.753808
v -0.466054 0.032093 0.193288
v -1.580072 0.032093 0.353965
v -1.099821 0.032093 1.197821
v -1.438907 0.316717 0.392728
v -1.061055 0.316717 1.056655
v -0.774981 0.316717 0.014877
v -0.397130 0.316717 0.678804
v -0.736217 0.032093 -0.126288
v -0.255964 0.032093 0.717567
v -1.758362 0.032093 0.222741
v -1.385891 0.032093 0.416411
v -1.698004 0.155158 0.203679
v -1.404953 0.155158 0.356054
v -1.545629 0.155158 -0.089372
v -1.252577 0.155158 0.063004
v -1.564691 0.032093 -0.149729
v -1.192220 0.032093 0.043941
v 0.309960 0.032093 0.520481
v 0.411119 0.032093 -0.035469
v 0.236818 0.224803 0.445939
v 0.316407 0.224803 0.008532
v -0.485776 0.224803 0.349718
v -0.290819 0.224803 -0.184003
v -0.565472 0.032093 0.440284
v -0.381386 0.032093 -0.263698
v -1.292976 0.689650 0.100040
v 1.534302 0.026314 1.134167
v -1.270226 0.827775 0.108242
v 1.557053 0.164440 1.142365
v -1.068909 0.827589 -0.447285
v 1.758362 0.164254 0.586834
v -1.091660 0.689464 -0.455486
v 1.735611 0.026128 0.578636
v 0.784573 0.042307 -0.994547
v 1.095579 0.042307 -0.832837
v 0.834970 0.145064 -1.010464
v 1.079663 0.145064 -0.883230
v 0.962201 0.145064 -1.255157
v 1.206895 0.145064 -1.127924
v 0.946284 0.042307 -1.305554
v 1.257292 0.042307 -1.143842
v -0.748309 0.032093 1.293320
v -0.375837 0.032093 1.486990
v -0.687952 0.155158 1.274258
v -0.394900 0.155158 1.426633
v -0.535576 0.155158 0.981206
v -0.242524 0.155158 1.133581
v -0.554638 0.032093 0.920849
v -0.182167 0.032093 1.114520
v 1.422546 0.032093 1.669492
v 1.523705 0.032093 1.113543
v 1.349405 0.224803 1.594951
v 1.428993 0.224803 1.157543
v 0.626810 0.224803 1.498730
v 0.821768 0.224803 0.965009
v 0.547114 0.032093 1.589295
v 0.731201 0.032093 0.885314
vt 0.328122 0.511204
vt 0.328122 0.511204
vt 0.328122 0.511204
vt 0.328122 0.511204
vt 0.358580 0.511204
vt 0.358580 0.511204
vt 0.358580 0.511204
vt 0.358580 0.511204
vt 0.328122 0.511204
vt 0.328122 0.511204
vt 0.328122 0.511204
vt 0.328122 0.511204
vt 0.298348 0.511204
vt 0.298348 0.511204
vt 0.298348 0.511204
vt 0.298348 0.511204
vt 0.298348 0.511204
vt 0.298348 0.511204
vt 0.298348 0.511204
vt 0.298348 0.511204
vt 0.328122 0.063783
vt 0.328122 0.063783
vt 0.328122 0.063783
vt 0.328122 0.063783
vt 0.358580 0.063783
vt 0.358580 0.063783
vt 0.358580 0.063783
vt 0.358580 0.063783
vt 0.328122 0.063783
vt 0.328122 0.063783
vt 0.328122 0.063783
vt 0.328122 0.063783
vt 0.298348 0.063783
vt 0.298348 0.063783
vt 0.298348 0.063783
vt 0.298348 0.063783
vt 0.298348 0.063783
vt 0.298348 0.063783
vt 0.298348 0.063783
vt 0.298348 0.063783
vt 0.328122 0.063783
vt 0.328122 0.063783
vt 0.328122 0.063783
vt 0.328122 0.063783
vt 0.358580 0.063783
vt 0.358580 0.063783
vt 0.358580 0.063783
vt 0.358580 0.063783
vt 0.328122 0.063783
vt 0.328122 0.063783
vt 0.328122 0.063783
vt 0.328122 0.063783
vt 0.298348 0.063783
vt 0.298348 0.063783
vt 0.298348 0.063783
vt 0.298348 0.063783
vt 0.298348 0.063783
vt 0.298348 0.063783
vt 0.298348 0.063783
vt 0.298348 0.063783
vt 0.328122 0.063783
vt 0.328122 0.063783
vt 0.328122 0.063783
vt 0.328122 0.063783
vt 0.358580 0.063783
vt 0.358580 0.063783
vt 0.358580 0.063783
vt 0.358580 0.063783
vt 0.328122 0.063783
vt 0.328122 0.063783
vt 0.328122 0.063783
vt 0.328122 0.063783
vt 0.298348 0.063783
vt 0.298348 0.063783
vt 0.298348 0.063783
vt 0.298348 0.063783
vt 0.298348 0.063783
vt 0.298348 0.063783
vt 0.298348 0.063783
vt 0.298348 0.063783
vt 0.328122 0.063783
vt 0.328122 0.063783
vt 0.328122 0.063783
vt 0.328122 0.063783
vt 0.358580 0.063783
vt 0.358580 0.063783
vt 0.358580 0.063783
vt 0.358580 0.063783
vt 0.328122 0.063783
vt 0.328122 0.063783
vt 0.328122 0.063783
vt 0.328122 0.063783
vt 0.298348 0.063783
vt 0.298348 0.063783
vt 0.298348 0.063783
vt 0.298348 0.063783
vt 0.298348 0.063783
vt 0.298348 0.063783
vt 0.298348 0.063783
vt 0.298348 0.063783
vt 0.328122 0.063783
vt 0.328122 0.063783
vt 0.328122 0.063783
vt 0.328122 0.063783
vt 0.358580 0.063783
vt 0.358580 0.063783
vt 0.358580 0.063783
vt 0.358580 0.063783
vt 0.328122 0.063783
vt 0.328122 0.063783
vt 0.328122 0.063783
vt 0.328122 0.063783
vt 0.298348 0.063783
vt 0.298348 0.063783
vt 0.298348 0.063783
vt 0.298348 0.063783
vt 0.298348 0.063783
vt 0.298348 0.063783
vt 0.298348 0.063783
vt 0.298348 0.063783
vt 0.328122 0.063783
vt 0.328122 0.063783
vt 0.328122 0.063783
vt 0.328122 0.063783
vt 0.358580 0.063783
vt 0.358580 0.063783
vt 0.358580 0.063783
vt 0.358580 0.063783
vt 0.328122 0.063783
vt 0.328122 0.063783
vt 0.328122 0.063783
vt 0.328122 0.063783
vt 0.298348 0.063783
vt 0.298348 0.063783
vt 0.298348 0.063783
vt 0.298348 0.063783
vt 0.298348 0.063783
vt 0.298348 0.063783
vt 0.298348 0.063783
vt 0.298348 0.063783
vt 0.328122 0.063783
vt 0.328122 0.063783
vt 0.328122 0.063783
vt 0.328122 0.063783
vt 0.358580 0.063783
vt 0.358580 0.063783
vt 0.358580 0.063783
vt 0.358580 0.063783
vt 0.328122 0.063783
vt 0.328122 0.063783
vt 0.328122 0.063783
vt 0.328122 0.063783
vt 0.298348 0.063783
vt 0.298348 0.063783
vt 0.298348 0.063783
vt 0.298348 0.063783
vt 0.298348 0.063783
vt 0.298348 0.063783
vt 0.298348 0.063783
vt 0.298348 0.063783
vt 0.328122 0.511204
vt 0.328122 0.511204
vt 0.328122 0.511204
vt 0.328122 0.511204
vt 0.358580 0.511204
vt 0.358580 0.511204
vt 0.358580 0.511204
vt 0.358580 0.511204
vt 0.328122 0.511204
vt 0.328122 0.511204
vt 0.328122 0.511204
vt 0.328122 0.511204
vt 0.298348 0.511204
vt 0.298348 0.511204
vt 0.298348 0.511204
vt 0.298348 0.511204
vt 0.298348 0.511204
vt 0.298348 0.511204
vt 0.298348 0.511204
vt 0.298348 0.511204
vt 0.328122 0.063783
vt 0.328122 0.063783
vt 0.328122 0.063783
vt 0.328122 0.063783
vt 0.358580 0.063783
vt 0.358580 0.063783
vt 0.358580 0.063783
vt 0.358580 0.063783
vt 0.328122 0.063783
vt 0.328122 0.063783
vt 0.328122 0.063783
vt 0.328122 0.063783
vt 0.298348 0.063783
vt 0.298348 0.063783
vt 0.298348 0.063783
vt 0.298348 0.063783
vt 0.298348 0.063783
vt 0.298348 0.063783
vt 0.298348 0.063783
vt 0.298348 0.063783
vt 0.328122 0.063783
vt 0.328122 0.063783
vt 0.328122 0.063783
vt 0.328122 0.063783
vt 0.358580 0.063783
vt 0.358580 0.063783
vt 0.358580 0.063783
vt 0.358580 0.063783
vt 0.328122 0.063783
vt 0.328122 0.063783
vt 0.328122 0.063783
vt 0.328122 0.063783
vt 0.298348 0.063783
vt 0.298348 0.063783
vt 0.298348 0.063783
vt 0.298348 0.063783
vt 0.298348 0.063783
vt 0.298348 0.063783
vt 0.298348 0.063783
vt 0.298348 0.063783
vt 0.328122 0.063783
vt 0.328122 0.063783
vt 0.328122 0.063783
vt 0.328122 0.063783
vt 0.358580 0.063783
vt 0.358580 0.063783
vt 0.358580 0.063783
vt 0.358580 0.063783
vt 0.328122 0.063783
vt 0.328122 0.063783
vt 0.328122 0.063783
vt 0.328122 0.063783
vt 0.298348 0.063783
vt 0.298348 0.063783
vt 0.298348 0.063783
vt 0.298348 0.063783
vt 0.298348 0.063783
vt 0.298348 0.063783
vt 0.298348 0.063783
vt 0.298348 0.063783
vn -0.998149 0.027410 0.054289
vn -0.998149 0.027410 0.054289
vn -0.998149 0.027410 0.054289
vn -0.998149 0.027410 0.054289
vn 0.032438 0.995043 0.094004
vn 0.032438 0.995043 0.094004
vn 0.032438 0.995043 0.094004
vn 0.032438 0.995043 0.094004
vn 0.998149 -0.027410 -0.054289
vn 0.998149 -0.027410 -0.054289
vn 0.998149 -0.027410 -0.054289
vn 0.998149 -0.027410 -0.054289
vn 0.051443 -0.095591 0.994091
vn 0.051443 -0.095591 0.994091
vn 0.051443 -0.095591 0.994091
vn 0.051443 -0.095591 0.994091
vn -0.051443 0.095591 -0.994091
vn -0.051443 0.095591 -0.994091
vn -0.051443 0.095591 -0.994091
vn -0.051443 0.095591 -0.994091
vn -0.877244 0.341787 0.337082
vn -0.877244 0.341787 0.337082
vn -0.877244 0.341787 0.337082
vn -0.877244 0.341787 0.337082
vn 0.000000 1.000000 -0.000000
vn 0.000000 1.000000 -0.000000
vn 0.000000 1.000000 -0.000000
vn 0.000000 1.000000 -0.000000
vn 0.769962 0.341783 -0.538835
vn 0.769962 0.341783 -0.538835
vn 0.769962 0.341783 -0.538835
vn 0.769962 0.341783 -0.538835
vn 0.244269 0.247159 0.937681
vn 0.244269 0.247159 0.937681
vn 0.244269 0.247159 0.937681
vn 0.244269 0.247159 0.937681
vn -0.499527 0.331838 -0.800223
vn -0.499527 0.331838 -0.800223
vn -0.499527 0.331838 -0.800223
vn -0.499527 0.331838 -0.800223
vn -0.433543 0.341771 0.833806
vn -0.433543 0.341771 0.833806
vn -0.433543 0.341771 0.833806
vn -0.433543 0.341771 0.833806
vn 0.000000 1.000000 0.000000
vn 0.000000 1.000000 0.000000
vn 0.000000 1.000000 0.000000
vn 0.000000 1.000000 0.000000
vn 0.433547 0.341790 -0.833797
vn 0.433547 0.341790 -0.833797
vn 0.433547 0.341790 -0.833797
vn 0.433547 0.341790 -0.833797
vn 0.833802 0.341776 0.433548
vn 0.833802 0.341776 0.433548
vn 0.833802 0.341776 0.433548
vn 0.833802 0.341776 0.433548
vn -0.833801 0.341781 -0.433545
vn -0.833801 0.341781 -0.433545
vn -0.833801 0.341781 -0.433545
vn -0.833801 0.341781 -0.433545
vn 0.969098 0.172496 0.176333
vn 0.969099 0.172496 0.176333
vn 0.969098 0.172496 0.176333
vn 0.969098 0.172496 0.176333
vn 0.000000 1.000000 0.000000
vn 0.000000 1.000000 0.000000
vn 0.000000 1.000000 0.000000
vn 0.000000 1.000000 0.000000
vn -0.983009 0.172496 0.062762
vn -0.983009 0.172496 0.062762
vn -0.983009 0.172496 0.062762
vn -0.983009 0.172496 0.062762
vn 0.285730 0.121895 -0.950526
vn 0.285730 0.121895 -0.950526
vn 0.285730 0.121895 -0.950526
vn 0.285730 0.121895 -0.950526
vn 0.011060 0.167000 0.985895
vn 0.011060 0.167000 0.985895
vn 0.011060 0.167000 0.985895
vn 0.011060 0.167000 0.985895
vn -0.819718 0.170118 -0.546921
vn -0.819718 0.170118 -0.546921
vn -0.819718 0.170118 -0.546921
vn -0.819718 0.170118 -0.546921
vn 0.000000 1.000000 0.000000
vn 0.000000 1.000000 0.000000
vn 0.000000 1.000000 0.000000
vn 0.000000 1.000000 0.000000
vn 0.895408 0.170522 0.411299
vn 0.895408 0.170522 0.411299
vn 0.895408 0.170522 0.411299
vn 0.895408 0.170522 0.411299
vn -0.692382 0.120497 0.711398
vn -0.692382 0.120497 0.711398
vn -0.692382 0.120497 0.711398
vn -0.692382 0.120497 0.711398
vn 0.445464 0.165110 -0.879943
vn 0.445464 0.165111 -0.879943
vn 0.445464 0.165111 -0.879943
vn 0.445464 0.165111 -0.879943
vn -0.816767 0.341789 0.464835
vn -0.816767 0.341789 0.464835
vn -0.816767 0.341789 0.464835
vn -0.816767 0.341789 0.464835
vn 0.000000 1.000000 -0.000000
vn 0.000000 1.000000 -0.000000
vn 0.000000 1.000000 -0.000000
vn 0.000000 1.000000 -0.000000
vn 0.816767 0.341788 -0.464836
vn 0.816767 0.341788 -0.464836
vn 0.816767 0.341788 -0.464836
vn 0.816767 0.341788 -0.464836
vn 0.464837 0.341783 0.816769
vn 0.464837 0.341783 0.816769
vn 0.464837 0.341783 0.816769
vn 0.464837 0.341783 0.816769
vn -0.464837 0.341784 -0.816768
vn -0.464837 0.341784 -0.816768
vn -0.464837 0.341784 -0.816768
vn -0.464837 0.341784 -0.816768
vn -0.433544 0.341786 0.833800
vn -0.433544 0.341786 0.833800
vn -0.433544 0.341786 0.833800
vn -0.433544 0.341786 0.833800
vn 0.000000 1.000000 0.000000
vn 0.000000 1.000000 0.000000
vn 0.000000 1.000000 0.000000
vn 0.000000 1.000000 0.000000
vn 0.433543 0.341785 -0.833800
vn 0.433543 0.341785 -0.833800
vn 0.433543 0.341785 -0.833800
vn 0.433543 0.341785 -0.833800
vn 0.833799 0.341785 0.433546
vn 0.833799 0.341785 0.433546
vn 0.833799 0.341785 0.433546
vn 0.833799 0.341785 0.433546
vn -0.833799 0.341787 -0.433545
vn -0.833799 0.341787 -0.433545
vn -0.833799 0.341787 -0.433545
vn -0.833799 0.341787 -0.433545
vn 0.899645 0.404774 0.163696
vn 0.899645 0.404774 0.163696
vn 0.899645 0.404774 0.163695
vn 0.899645 0.404774 0.163695
vn 0.000000 1.000000 0.000000
vn 0.000000 1.000000 0.000000
vn 0.000000 1.000000 0.000000
vn 0.000000 1.000000 0.000000
vn -0.883407 0.382622 -0.270541
vn -0.883407 0.382622 -0.270541
vn -0.883407 0.382622 -0.270541
vn -0.883407 0.382622 -0.270541
vn 0.274934 0.296488 -0.914607
vn 0.274934 0.296488 -0.914607
vn 0.274934 0.296488 -0.914607
vn 0.274933 0.296488 -0.914607
vn -0.100892 0.393214 0.913895
vn -0.100892 0.393214 0.913895
vn -0.100892 0.393214 0.913895
vn -0.100892 0.393214 0.913895
vn -0.340703 0.000315 0.940171
vn -0.340703 0.000315 0.940171
vn -0.340703 0.000315 0.940171
vn -0.340703 0.000315 0.940171
vn 0.162238 0.985018 0.058463
vn 0.162238 0.985018 0.058463
vn 0.162238 0.985018 0.058463
vn 0.162238 0.985018 0.058463
vn 0.340703 -0.000315 -0.940171
vn 0.340703 -0.000315 -0.940171
vn 0.340703 -0.000315 -0.940171
vn 0.340703 -0.000315 -0.940171
vn 0.926067 -0.172450 0.335649
vn 0.926067 -0.172450 0.335649
vn 0.926067 -0.172450 0.335649
vn 0.926067 -0.172450 0.335649
vn -0.926067 0.172450 -0.335649
vn -0.926067 0.172450 -0.335649
vn -0.926067 0.172450 -0.335649
vn -0.926067 0.172450 -0.335649
vn -0.433547 0.341771 0.833804
vn -0.433547 0.341771 0.833804
vn -0.433547 0.341771 0.833804
vn -0.433547 0.341771 0.833804
vn 0.000000 1.000000 0.000000
vn 0.000000 1.000000 0.000000
vn 0.000000 1.000000 0.000000
vn 0.000000 1.000000 0.000000
vn 0.433545 0.341790 -0.833797
vn 0.433545 0.341790 -0.833797
vn 0.433545 0.341790 -0.833797
vn 0.433545 0.341790 -0.833797
vn 0.833803 0.341771 0.433549
vn 0.833803 0.341771 0.433549
vn 0.833803 0.341771 0.433549
vn 0.833803 0.341771 0.433549
vn -0.833800 0.341786 -0.433544
vn -0.833800 0.341786 -0.433545
vn -0.833800 0.341786 -0.433545
vn -0.833800 0.341786 -0.433545
vn -0.433543 0.341783 0.833801
vn -0.433543 0.341783 0.833801
vn -0.433543 0.341783 0.833801
vn -0.433543 0.341783 0.833802
vn 0.000000 1.000000 0.000000
vn 0.000000 1.000000 0.000000
vn 0.000000 1.000000 0.000000
vn 0.000000 1.000000 0.000000
vn 0.433545 0.341782 -0.833801
vn 0.433545 0.341782 -0.833801
vn 0.433545 0.341782 -0.833801
vn 0.433545 0.341782 -0.833801
vn 0.833798 0.341789 0.433544
vn 0.833799 0.341789 0.433544
vn 0.833798 0.341789 0.433544
vn 0.833798 0.341789 0.433544
vn -0.833800 0.341784 -0.433545
vn -0.833800 0.341784 -0.433545
vn -0.833800 0.341784 -0.433545
vn -0.833800 0.341784 -0.433545
vn 0.899646 0.404773 0.163695
vn 0.899646 0.404773 0.163695
vn 0.899646 0.404773 0.163695
vn 0.899646 0.404773 0.163695
vn 0.000000 1.000000 0.000000
vn 0.000000 1.000000 0.000000
vn 0.000000 1.000000 0.000000
vn 0.000000 1.000000 0.000000
vn -0.883407 0.382622 -0.270542
vn -0.883407 0.382622 -0.270542
vn -0.883407 0.382622 -0.270542
vn -0.883407 0.382622 -0.270542
vn 0.274934 0.296488 -0.914607
vn 0.274934 0.296488 -0.914607
vn 0.274934 0.296488 -0.914607
vn 0.274934 0.296488 -0.914607
vn -0.100891 0.393212 0.913896
vn -0.100891 0.393212 0.913896
vn -0.100891 0.393212 0.913896
vn -0.100891 0.393212 0.913896
s off
f 1/1/1 2/2/2 4/3/3 3/4/4
f 3/5/5 4/6/6 6/7/7 5/8/8
f 5/9/9 6/10/10 8/11/11 7/12/12
f 2/13/13 8/14/14 6/15/15 4/16/16
f 7/17/17 1/18/18 3/19/19 5/20/20
f 9/21/21 10/22/22 12/23/23 11/24/24
f 11/25/25 12/26/26 14/27/27 13/28/28
f 13/29/29 14/30/30 16/31/31 15/32/32
f 10/33/33 16/34/34 14/35/35 12/36/36
f 15/37/37 9/38/38 11/39/39 13/40/40
f 17/41/41 18/42/42 20/43/43 19/44/44
f 19/45/45 20/46/46 22/47/47 21/48/48
f 21/49/49 22/50/50 24/51/51 23/52/52
f 18/53/53 24/54/54 22/55/55 20/56/56
f 23/57/57 17/58/58 19/59/59 21/60/60
f 25/61/61 26/62/62 28/63/63 27/64/64
f 27/65/65 28/66/66 30/67/67 29/68/68
f 29/69/69 30/70/70 32/71/71 31/72/72
f 26/73/73 32/74/74 30/75/75 28/76/76
f 31/77/77 25/78/78 27/79/79 29/80/80
f 33/81/81 34/82/82 36/83/83 35/84/84
f 35/85/85 36/86/86 38/87/87 37/88/88
f 37/89/89 38/90/90 40/91/91 39/92/92
f 34/93/93 40/94/94 38/95/95 36/96/96
f 39/97/97 33/98/98 35/99/99 37/100/100
f 41/101/101 42/102/102 44/103/103 43/104/104
f 43/105/105 44/106/106 46/107/107 45/108/108
f 45/109/109 46/110/110 48/111/111 47/112/112
f 42/113/113 48/114/114 46/115/115 44/116/116
f 47/117/117 41/118/118 43/119/119 45/120/120
f 49/121/121 50/122/122 52/123/123 51/124/124
f 51/125/125 52/126/126 54/127/127 53/128/128
f 53/129/129 54/130/130 56/131/131 55/132/132
f 50/133/133 56/134/134 54/135/135 52/136/136
f 55/137/137 49/138/138 51/139/139 53/140/140
f 57/141/141 58/142/142 60/143/143 59/144/144
f 59/145/145 60/146/146 62/147/147 61/148/148
f 61/149/149 62/150/150 64/151/151 63/152/152
f 58/153/153 64/154/154 62/155/155 60/156/156
f 63/157/157 57/158/158 59/159/159 61/160/160
f 65/161/161 66/162/162 68/163/163 67/164/164
f 67/165/165 68/166/166 70/167/167 69/168/168
f 69/169/169 70/170/170 72/171/171 71/172/172
f 66/173/173 72/174/174 70/175/175 68/176/176
f 71/177/177 65/178/178 67/179/179 69/180/180
f 73/181/181 74/182/182 76/183/183 75/184/184
f 75/185/185 76/186/186 78/187/187 77/188/188
f 77/189/189 78/190/190 80/191/191 79/192/192
f 74/193/193 80/194/194 78/195/195 76/196/196
f 79/197/197 73/198/198 75/199/199 77/200/200
f 81/201/201 82/202/202 84/203/203 83/204/204
f 83/205/205 84/206/206 86/207/207 85/208/208
f 85/209/209 86/210/210 88/211/211 87/212/212
f 82/213/213 88/214/214 86/215/215 84/216/216
f 87/217/217 81/218/218 83/219/219 85/220/220
f 89/221/221 90/222/222 92/223/223 91/224/224
f 91/225/225 92/226/226 94/227/227 93/228/228
f 93/229/229 94/230/230 96/231/231 95/232/232
f 90/233/233 96/234/234 94/235/235 92/236/236
f 95/237/237 89/238/238 91/239/239 93/240/240
