# This file uses meters as units for non-parametric coordinates.

v -0.276717 0.258832 0.261975
v 0.276717 0.258832 0.261975
v -0.276717 1.526525 0.261975
v 0.276717 1.526525 0.261975
v -0.276717 1.526525 -0.261975
v 0.276717 1.526525 -0.261975
v -0.276717 0.258832 -0.261975
v 0.276717 0.258832 -0.261975
v -0.075490 1.526525 0.071468
v 0.075490 1.526525 0.071468
v 0.075490 1.526525 -0.071468
v -0.075490 1.526525 -0.071468
v 0.075490 6.735912 -0.071468
v 0.075490 6.735912 0.071468
v -0.075490 6.735912 0.071468
v -0.075490 6.735912 -0.071468
v -0.389830 0.258832 -0.369061
v 0.389830 0.258832 -0.369061
v 0.389830 0.000000 -0.369061
v -0.389830 0.000000 -0.369061
v 0.389830 0.258832 0.369061
v 0.389830 0.000000 0.369061
v -0.389830 0.258832 0.369061
v -0.389830 0.000000 0.369061
vt 0.435390 0.332811
vt 0.425434 0.332811
vt 0.425434 0.306670
vt 0.435390 0.306670
vt 0.404943 0.332811
vt 0.394987 0.332811
vt 0.394987 0.306670
vt 0.404943 0.306670
vt 0.300726 0.332811
vt 0.291300 0.332811
vt 0.291300 0.306670
vt 0.300726 0.306670
vt 0.290781 0.332811
vt 0.281355 0.332811
vt 0.281355 0.306670
vt 0.290781 0.306670
vt 0.543945 0.300872
vt 0.543945 0.288676
vt 0.547599 0.292536
vt 0.547599 0.297011
vt 0.555491 0.288676
vt 0.551836 0.292536
vt 0.555491 0.300872
vt 0.551836 0.297011
vt 0.467520 0.332811
vt 0.463866 0.332811
vt 0.339129 0.332811
vt 0.335669 0.332811
vt 0.335669 0.266968
vt 0.339129 0.266968
vt 0.468012 0.256198
vt 0.471666 0.256198
vt 0.335151 0.332811
vt 0.331692 0.332811
vt 0.331692 0.266968
vt 0.335151 0.266968
vt 0.468434 0.318636
vt 0.468434 0.287037
vt 0.475130 0.287037
vt 0.475130 0.318636
vt 0.279329 0.287037
vt 0.279329 0.316952
vt 0.272634 0.316952
vt 0.272634 0.287037
vt 0.411118 0.287037
vt 0.411118 0.318636
vt 0.404422 0.318636
vt 0.404422 0.287037
vt 0.271648 0.287037
vt 0.271648 0.316952
vt 0.264952 0.316952
vt 0.264952 0.287037
vt 0.606710 0.286549
vt 0.606710 0.274353
vt 0.609070 0.271861
vt 0.609070 0.289042
vt 0.595164 0.274353
vt 0.592804 0.271861
vt 0.595164 0.286549
vt 0.592804 0.289042
vt 0.609070 0.289042
vt 0.592804 0.289042
vt 0.592804 0.271861
vt 0.595164 0.286549
vt 0.609070 0.271861
vt 0.595164 0.274353
vt 0.606710 0.274353
vt 0.606710 0.286549
vt 0.547599 0.297011
vt 0.551836 0.297011
vt 0.551836 0.292536
vt 0.555491 0.300872
vt 0.547599 0.292536
vt 0.555491 0.288676
vt 0.543945 0.288676
vt 0.543945 0.300872
vt 0.471666 0.322040
vt 0.468012 0.322040
vt 0.463866 0.266968
vt 0.467520 0.266968
vt 0.394943 0.146761
vt 0.465418 0.146761
vt 0.465418 0.213481
vt 0.394943 0.213481
vn 0.000000 0.000000 1.000000
vn 0.000000 0.000000 1.000000
vn 0.000000 0.000000 1.000000
vn 0.000000 0.000000 1.000000
vn 0.000000 0.000000 -1.000000
vn 0.000000 0.000000 -1.000000
vn 0.000000 0.000000 -1.000000
vn 0.000000 0.000000 -1.000000
vn 1.000000 0.000000 0.000000
vn 1.000000 0.000000 0.000000
vn 1.000000 0.000000 0.000000
vn 1.000000 0.000000 0.000000
vn -1.000000 0.000000 0.000000
vn -1.000000 0.000000 0.000000
vn -1.000000 0.000000 0.000000
vn -1.000000 0.000000 0.000000
vn 0.000000 1.000000 0.000000
vn 0.000000 1.000000 0.000000
vn 0.000000 1.000000 0.000000
vn 0.000000 1.000000 0.000000
vn 0.000000 1.000000 0.000000
vn 0.000000 1.000000 -0.000000
vn 0.000000 1.000000 -0.000000
vn 0.000000 1.000000 0.000000
vn 0.000000 1.000000 -0.000000
vn 0.000000 1.000000 -0.000000
vn 0.000000 1.000000 -0.000000
vn 0.000000 1.000000 -0.000000
vn 0.000000 1.000000 -0.000000
vn 0.000000 1.000000 0.000000
vn 0.000000 1.000000 0.000000
vn 0.000000 1.000000 -0.000000
vn 0.000000 0.000000 1.000000
vn 0.000000 0.000000 1.000000
vn 0.000000 0.000000 1.000000
vn 0.000000 0.000000 1.000000
vn 1.000000 0.000000 0.000000
vn 1.000000 0.000000 0.000000
vn 1.000000 0.000000 0.000000
vn 1.000000 0.000000 0.000000
vn 0.000000 0.000000 -1.000000
vn 0.000000 0.000000 -1.000000
vn 0.000000 0.000000 -1.000000
vn 0.000000 0.000000 -1.000000
vn -1.000000 0.000000 0.000000
vn -1.000000 0.000000 0.000000
vn -1.000000 0.000000 0.000000
vn -1.000000 0.000000 0.000000
vn 0.000000 0.000000 -1.000000
vn 0.000000 0.000000 -1.000000
vn 0.000000 0.000000 -1.000000
vn 0.000000 0.000000 -1.000000
vn 1.000000 0.000000 0.000000
vn 1.000000 0.000000 0.000000
vn 1.000000 0.000000 0.000000
vn 1.000000 0.000000 0.000000
vn 0.000000 0.000000 1.000000
vn 0.000000 0.000000 1.000000
vn 0.000000 0.000000 1.000000
vn 0.000000 0.000000 1.000000
vn -1.000000 0.000000 0.000000
vn -1.000000 0.000000 0.000000
vn -1.000000 0.000000 0.000000
vn -1.000000 0.000000 0.000000
vn 0.000000 1.000000 0.000000
vn 0.000000 1.000000 0.000000
vn 0.000000 1.000000 0.000000
vn 0.000000 1.000000 0.000000
vn 0.000000 1.000000 0.000000
vn 0.000000 1.000000 -0.000000
vn 0.000000 1.000000 -0.000000
vn 0.000000 1.000000 0.000000
vn 0.000000 1.000000 -0.000000
vn 0.000000 1.000000 -0.000000
vn 0.000000 1.000000 -0.000000
vn 0.000000 1.000000 -0.000000
vn 0.000000 1.000000 -0.000000
vn 0.000000 1.000000 0.000000
vn 0.000000 1.000000 0.000000
vn 0.000000 1.000000 -0.000000
vn 0.000000 1.000000 0.000000
vn 0.000000 1.000000 0.000000
vn 0.000000 1.000000 0.000000
vn 0.000000 1.000000 0.000000
s off
f 1/1/1 2/2/2 4/3/3 3/4/4
f 5/5/5 6/6/6 8/7/7 7/8/8
f 2/9/9 8/10/10 6/11/11 4/12/12
f 7/13/13 1/14/14 3/15/15 5/16/16
f 3/17/17 4/75/18 10/73/19 9/20/20
f 4/18/21 6/74/22 11/71/23 10/19/24
f 6/21/25 5/72/26 12/70/27 11/22/28
f 5/23/29 3/76/30 9/69/31 12/24/32
f 9/25/33 10/26/34 14/79/35 15/80/36
f 10/27/37 11/28/38 13/29/39 14/30/40
f 11/31/41 12/32/42 16/77/43 13/78/44
f 12/33/45 9/34/46 15/35/47 16/36/48
f 17/37/49 18/38/50 19/39/51 20/40/52
f 18/41/53 21/42/54 22/43/55 19/44/56
f 21/45/57 23/46/58 24/47/59 22/48/60
f 23/49/61 17/50/62 20/51/63 24/52/64
f 7/53/65 8/67/66 18/65/67 17/56/68
f 8/54/69 2/66/70 21/63/71 18/55/72
f 2/57/73 1/64/74 23/62/75 21/58/76
f 1/59/77 7/68/78 17/61/79 23/60/80
f 15/81/81 14/82/82 13/83/83 16/84/84
