# This file uses meters as units for non-parametric coordinates.

v -2.525294 1.408923 0.911591
v 2.525294 1.408923 0.911591
v -2.525294 4.345303 0.911591
v 2.525294 4.345303 0.911591
v -2.525294 4.345303 0.697867
v 2.525294 4.345303 0.697867
v -2.525294 1.408923 0.697867
v 2.525294 1.408923 0.697867
v 0.000000 4.345303 0.911591
v 0.000000 4.345303 0.697867
v 0.000000 1.408923 0.697867
v 0.000000 1.408923 0.911591
v 2.132600 0.000000 1.134174
v 1.935959 0.000000 1.134174
v 1.935959 0.000000 0.948017
v 2.132600 0.000000 0.948017
v 2.132600 5.063998 1.134174
v 1.935959 5.063998 1.134174
v 1.935959 5.063998 0.948017
v 2.132600 5.063998 0.948017
v 2.089144 5.024442 0.955197
v 1.979414 5.024442 0.955197
v 1.979414 4.916881 0.955197
v 2.089144 4.916881 0.955197
v 2.089144 4.458007 -0.679372
v 1.979415 4.458007 -0.679366
v 1.979415 4.381955 -0.603320
v 2.089144 4.381966 -0.603320
v 1.850033 4.381955 -0.603320
v 1.850033 4.458007 -0.679366
v 1.850033 3.927136 -1.058123
v 1.850033 4.003198 -1.134174
v 2.218524 4.381966 -0.603320
v 2.218524 4.458007 -0.679372
v 2.218524 4.003198 -1.134174
v 2.218524 3.927136 -1.058129
v 2.089144 5.024442 0.204014
v 1.979414 5.024442 0.204025
v 1.979414 4.916881 0.204025
v 2.089144 4.916881 0.204014
v -1.865843 0.000000 1.134174
v -2.062481 0.000000 1.134174
v -2.062481 0.000000 0.948017
v -1.865843 0.000000 0.948017
v -1.865843 5.063998 1.134174
v -2.062481 5.063998 1.134174
v -2.062481 5.063998 0.948017
v -1.865843 5.063998 0.948017
v -1.909297 5.024442 0.955197
v -2.019017 5.024442 0.955197
v -2.019017 4.916881 0.955197
v -1.909297 4.916881 0.955197
v -1.909302 4.458007 -0.679372
v -2.019023 4.458007 -0.679366
v -2.019023 4.381955 -0.603320
v -1.909302 4.381966 -0.603320
v -2.148406 4.381955 -0.603320
v -2.148406 4.458007 -0.679366
v -2.148406 3.927136 -1.058123
v -2.148406 4.003198 -1.134174
v -1.779913 4.381966 -0.603320
v -1.779913 4.458007 -0.679372
v -1.779913 4.003198 -1.134174
v -1.779913 3.927136 -1.058129
v -1.909297 5.024442 0.204014
v -2.019028 5.024442 0.204025
v -2.019028 4.916881 0.204025
v -1.909297 4.916881 0.204014
vt 1.015082 -0.176718
vt 0.000347 -0.178389
vt 1.013319 -0.761802
vt 0.002731 -0.762949
vt 0.148295 -0.046315
vt 0.852144 -0.046315
vt 0.852144 -0.016119
vt 0.148295 -0.016119
vt 1.223481 0.084892
vt 1.927330 0.084892
vt 1.927330 0.101545
vt 1.223481 0.101545
vt 1.222819 0.007383
vt 1.926669 0.007383
vt 1.926670 0.024438
vt 1.222820 0.024438
vt 1.803342 0.059710
vt 1.803342 0.073962
vt 1.394122 0.073962
vt 1.394122 0.059709
vt 1.803342 0.059640
vt 1.803342 0.073893
vt 1.394121 0.073893
vt 1.394121 0.059640
vt 1.575406 0.084892
vt 0.500220 -0.016119
vt 0.507714 -0.177554
vt 1.575406 0.101545
vt 1.574744 0.007383
vt 0.508025 -0.762376
vt 0.500219 -0.046315
vt 1.574745 0.024438
vt 0.679264 1.101496
vt 0.679264 1.095058
vt 0.722022 1.095058
vt 0.722022 1.101496
vt 0.461443 1.133218
vt 0.457983 1.133218
vt 0.457983 1.119804
vt 0.461443 1.119804
vt 0.577724 1.042001
vt 0.581378 1.042001
vt 0.581378 1.055415
vt 0.577724 1.055415
vt 0.454006 1.119804
vt 0.457465 1.119804
vt 0.457465 1.133218
vt 0.454006 1.133218
vt 0.581870 1.037721
vt 0.585524 1.037721
vt 0.585524 1.051134
vt 0.581870 1.051134
vt 0.582678 1.051029
vt 0.584717 1.051029
vt 0.584717 1.050745
vt 0.582678 1.050745
vt 0.702391 1.096759
vt 0.700352 1.096759
vt 0.700352 1.094769
vt 0.702391 1.094769
vt 0.434199 1.127841
vt 0.436198 1.127841
vt 0.436198 1.129831
vt 0.434199 1.129831
vt 0.438799 1.127841
vt 0.436800 1.127841
vt 0.436800 1.125852
vt 0.438799 1.125852
vt 0.449044 1.126137
vt 0.451083 1.126137
vt 0.451083 1.128127
vt 0.449044 1.128127
vt 0.702391 1.094769
vt 0.700352 1.094769
vt 0.697947 1.094769
vt 0.697947 1.093065
vt 0.704795 1.093065
vt 0.704795 1.094769
vt 0.434217 1.124103
vt 0.436215 1.124103
vt 0.436215 1.125807
vt 0.434217 1.125807
vt 0.438695 1.125807
vt 0.436697 1.125807
vt 0.436697 1.124103
vt 0.438695 1.124103
vt 0.453487 1.128127
vt 0.453487 1.129831
vt 0.446640 1.129831
vt 0.446640 1.128127
vt 0.607955 1.020622
vt 0.583252 1.020622
vt 0.583252 1.009761
vt 0.607955 1.009761
vt 0.566734 1.046301
vt 0.564736 1.046301
vt 0.564736 1.045325
vt 0.566734 1.045325
vt 0.613908 1.009761
vt 0.638611 1.009761
vt 0.638611 1.020622
vt 0.613908 1.020622
vt 0.702391 1.098748
vt 0.700352 1.098748
vt 0.434199 1.125852
vt 0.436198 1.125852
vt 0.449044 1.124148
vt 0.451083 1.124148
vt 0.438799 1.129831
vt 0.436800 1.129831
vt 0.679263 1.101496
vt 0.679264 1.095058
vt 0.722021 1.095058
vt 0.722021 1.101496
vt 0.461443 1.133218
vt 0.457983 1.133218
vt 0.457983 1.119804
vt 0.461443 1.119804
vt 0.577724 1.042001
vt 0.581378 1.042001
vt 0.581378 1.055415
vt 0.577724 1.055415
vt 0.454006 1.119804
vt 0.457465 1.119804
vt 0.457465 1.133218
vt 0.454006 1.133218
vt 0.581870 1.037721
vt 0.585524 1.037721
vt 0.585524 1.051134
vt 0.581870 1.051134
vt 0.582678 1.051029
vt 0.584717 1.051029
vt 0.584717 1.050745
vt 0.582678 1.050745
vt 0.702391 1.096759
vt 0.700352 1.096759
vt 0.700352 1.094769
vt 0.702391 1.094769
vt 0.434199 1.127841
vt 0.436198 1.127841
vt 0.436198 1.129831
vt 0.434199 1.129831
vt 0.438799 1.127841
vt 0.436800 1.127841
vt 0.436800 1.125852
vt 0.438799 1.125852
vt 0.449044 1.126137
vt 0.451083 1.126137
vt 0.451083 1.128127
vt 0.449044 1.128127
vt 0.702391 1.094769
vt 0.700352 1.094769
vt 0.697947 1.094769
vt 0.697947 1.093065
vt 0.704795 1.093065
vt 0.704795 1.094769
vt 0.434217 1.124103
vt 0.436215 1.124103
vt 0.436215 1.125807
vt 0.434217 1.125807
vt 0.438695 1.125807
vt 0.436697 1.125807
vt 0.436697 1.124103
vt 0.438695 1.124103
vt 0.453487 1.128127
vt 0.453487 1.129831
vt 0.446640 1.129831
vt 0.446640 1.128127
vt 0.607955 1.020622
vt 0.583252 1.020622
vt 0.583252 1.009761
vt 0.607955 1.009761
vt 0.566734 1.046301
vt 0.564736 1.046301
vt 0.564736 1.045325
vt 0.566734 1.045325
vt 0.613908 1.009761
vt 0.638611 1.009761
vt 0.638611 1.020622
vt 0.613908 1.020622
vt 0.702391 1.098748
vt 0.700352 1.098748
vt 0.434199 1.125852
vt 0.436198 1.125852
vt 0.449044 1.124148
vt 0.451083 1.124148
vt 0.438799 1.129831
vt 0.436800 1.129831
vn 0.000000 0.000000 1.000000
vn 0.000000 0.000000 1.000000
vn 0.000000 0.000000 1.000000
vn 0.000000 0.000000 1.000000
vn 0.000000 1.000000 0.000000
vn 0.000000 1.000000 0.000000
vn 0.000000 1.000000 0.000000
vn 0.000000 1.000000 0.000000
vn 0.000000 0.000000 -1.000000
vn 0.000000 0.000000 -1.000000
vn 0.000000 0.000000 -1.000000
vn 0.000000 0.000000 -1.000000
vn 0.000000 -1.000000 0.000000
vn 0.000000 -1.000000 0.000000
vn 0.000000 -1.000000 0.000000
vn 0.000000 -1.000000 0.000000
vn 1.000000 0.000000 0.000000
vn 1.000000 0.000000 0.000000
vn 1.000000 0.000000 0.000000
vn 1.000000 0.000000 0.000000
vn -1.000000 0.000000 0.000000
vn -1.000000 0.000000 0.000000
vn -1.000000 0.000000 0.000000
vn -1.000000 0.000000 0.000000
vn 0.000000 1.000000 0.000000
vn 0.000000 1.000000 0.000000
vn 0.000000 1.000000 0.000000
vn 0.000000 1.000000 0.000000
vn 0.000000 0.000000 -1.000000
vn 0.000000 0.000000 -1.000000
vn 0.000000 0.000000 -1.000000
vn 0.000000 0.000000 -1.000000
vn 0.000000 -1.000000 0.000000
vn 0.000000 -1.000000 0.000000
vn 0.000000 -1.000000 0.000000
vn 0.000000 -1.000000 0.000000
vn 0.000000 0.000000 1.000000
vn 0.000000 0.000000 1.000000
vn 0.000000 0.000000 1.000000
vn 0.000000 0.000000 1.000000
vn 0.000000 1.000000 0.000000
vn 0.000000 1.000000 0.000000
vn 0.000000 1.000000 0.000000
vn 0.000000 1.000000 0.000000
vn -1.000000 0.000000 -0.000000
vn -1.000000 0.000000 -0.000000
vn -1.000000 0.000000 -0.000000
vn -1.000000 0.000000 -0.000000
vn -0.000000 0.000000 1.000000
vn -0.000000 0.000000 1.000000
vn -0.000000 0.000000 1.000000
vn -0.000000 0.000000 1.000000
vn 1.000000 0.000000 0.000000
vn 1.000000 0.000000 0.000000
vn 1.000000 0.000000 0.000000
vn 1.000000 0.000000 0.000000
vn 0.000000 0.000000 -1.000000
vn 0.000000 0.000000 -1.000000
vn 0.000000 0.000000 -1.000000
vn 0.000000 0.000000 -1.000000
vn 0.000000 0.000000 -1.000000
vn 0.163112 0.000000 -0.986608
vn 0.163112 0.000000 -0.986608
vn 0.000000 0.000000 -1.000000
vn 0.000000 -0.075446 -0.997150
vn 0.000000 0.000000 -1.000000
vn 0.000000 0.000000 -1.000000
vn 0.000000 -0.075446 -0.997150
vn 0.000000 -0.075446 -0.997150
vn 0.000000 0.000000 -1.000000
vn -0.163111 0.000000 -0.986608
vn 0.000000 0.000000 -1.000000
vn 0.000000 0.000000 -1.000000
vn -0.163111 0.000000 -0.986608
vn -0.163111 0.000000 -0.986608
vn 0.000000 0.000000 -1.000000
vn 0.000000 0.075447 -0.997150
vn 0.000000 0.000000 -1.000000
vn 0.163112 0.000000 -0.986608
vn 0.000000 0.075447 -0.997150
vn -0.000039 0.841809 -0.539775
vn 0.000000 1.000000 0.000000
vn 0.000000 1.000000 0.000000
vn -0.000039 0.841809 -0.539775
vn -1.000000 0.000000 -0.000001
vn -1.000000 0.000000 -0.000000
vn -1.000000 0.000000 -0.000000
vn -1.000000 0.000000 -0.000001
vn 1.000000 0.000001 0.000000
vn 1.000000 0.000000 0.000000
vn 1.000000 0.000000 0.000000
vn 1.000000 0.000001 0.000000
vn 0.000066 -0.833623 0.552334
vn 0.000000 -1.000000 0.000000
vn 0.000000 -1.000000 0.000000
vn 0.000066 -0.833623 0.552334
vn 0.000000 1.000000 0.000000
vn 0.000000 1.000000 0.000000
vn 0.000000 1.000000 0.000000
vn 0.000000 1.000000 0.000000
vn 0.000000 1.000000 0.000000
vn 0.000000 1.000000 0.000000
vn -1.000000 0.000000 -0.000000
vn -1.000000 0.000000 -0.000000
vn -1.000000 0.000000 -0.000000
vn -1.000000 0.000000 -0.000000
vn 1.000000 0.000000 0.000000
vn 1.000000 0.000000 0.000000
vn 1.000000 0.000000 0.000000
vn 1.000000 0.000000 0.000000
vn 0.000000 -1.000000 0.000000
vn 0.000000 -1.000000 0.000000
vn 0.000000 -1.000000 0.000000
vn 0.000000 -1.000000 0.000000
vn 0.000000 -1.000000 0.000000
vn 0.000000 -1.000000 0.000000
vn -0.000000 0.000000 1.000000
vn -0.000000 0.000000 1.000000
vn -0.000000 0.000000 1.000000
vn -0.000000 0.000000 1.000000
vn 0.000000 0.000000 -1.000000
vn 0.000000 0.000000 -1.000000
vn 0.000000 0.000000 -1.000000
vn 0.000000 0.000000 -1.000000
vn -0.000000 0.000000 1.000000
vn -0.000000 0.000000 1.000000
vn -0.000000 0.000000 1.000000
vn -0.000000 0.000000 1.000000
vn 0.000000 1.000000 0.000000
vn 0.000000 1.000000 0.000001
vn 0.000000 1.000000 0.000001
vn 0.000000 1.000000 0.000000
vn -1.000000 0.000000 -0.000000
vn -1.000000 0.000000 0.000000
vn -1.000000 0.000000 0.000000
vn -1.000000 0.000000 -0.000000
vn 0.000000 -1.000000 0.000000
vn 0.000000 -1.000000 0.000000
vn 0.000000 -1.000000 0.000000
vn 0.000000 -1.000000 0.000000
vn 1.000000 0.000000 0.000000
vn 1.000000 0.000000 0.000001
vn 1.000000 0.000000 0.000001
vn 1.000000 0.000000 0.000000
vn 0.000000 1.000000 0.000000
vn 0.000000 1.000000 0.000000
vn 0.000000 1.000000 0.000000
vn 0.000000 1.000000 0.000000
vn -1.000000 0.000000 -0.000000
vn -1.000000 0.000000 -0.000000
vn -1.000000 0.000000 -0.000000
vn -1.000000 0.000000 -0.000000
vn -0.000000 0.000000 1.000000
vn -0.000000 0.000000 1.000000
vn -0.000000 0.000000 1.000000
vn -0.000000 0.000000 1.000000
vn 1.000000 0.000000 0.000000
vn 1.000000 0.000000 0.000000
vn 1.000000 0.000000 0.000000
vn 1.000000 0.000000 0.000000
vn 0.000000 0.000000 -1.000000
vn 0.000000 0.000000 -1.000000
vn 0.000000 0.000000 -1.000000
vn 0.000000 0.000000 -1.000000
vn 0.000000 0.000000 -1.000000
vn 0.163112 0.000000 -0.986608
vn 0.163112 0.000000 -0.986608
vn 0.000000 0.000000 -1.000000
vn 0.000000 -0.075446 -0.997150
vn 0.000000 0.000000 -1.000000
vn 0.000000 0.000000 -1.000000
vn 0.000000 -0.075446 -0.997150
vn 0.000000 -0.075446 -0.997150
vn 0.000000 0.000000 -1.000000
vn -0.163111 0.000000 -0.986608
vn 0.000000 0.000000 -1.000000
vn 0.000000 0.000000 -1.000000
vn -0.163111 0.000000 -0.986608
vn -0.163111 0.000000 -0.986608
vn 0.000000 0.000000 -1.000000
vn 0.000000 0.075447 -0.997150
vn 0.000000 0.000000 -1.000000
vn 0.163112 0.000000 -0.986608
vn 0.000000 0.075447 -0.997150
vn -0.000039 0.841810 -0.539775
vn 0.000000 1.000000 0.000000
vn 0.000000 1.000000 0.000000
vn -0.000039 0.841810 -0.539775
vn -1.000000 -0.000002 -0.000005
vn -1.000000 0.000000 -0.000000
vn -1.000000 0.000000 -0.000000
vn -1.000000 -0.000002 -0.000005
vn 1.000000 -0.000002 -0.000005
vn 1.000000 0.000000 0.000000
vn 1.000000 0.000000 0.000000
vn 1.000000 -0.000002 -0.000005
vn 0.000066 -0.833622 0.552335
vn 0.000000 -1.000000 0.000000
vn 0.000000 -1.000000 0.000000
vn 0.000066 -0.833622 0.552335
vn 0.000000 1.000000 0.000000
vn 0.000000 1.000000 0.000000
vn 0.000000 1.000000 0.000000
vn 0.000000 1.000000 0.000000
vn 0.000000 1.000000 0.000000
vn 0.000000 1.000000 0.000000
vn -1.000000 0.000000 -0.000000
vn -1.000000 0.000000 -0.000000
vn -1.000000 0.000000 -0.000000
vn -1.000000 0.000000 -0.000000
vn 1.000000 0.000000 0.000000
vn 1.000000 0.000000 0.000000
vn 1.000000 0.000000 0.000000
vn 1.000000 0.000000 0.000000
vn 0.000000 -1.000000 0.000000
vn 0.000000 -1.000000 0.000000
vn 0.000000 -1.000000 0.000000
vn 0.000000 -1.000000 0.000000
vn 0.000000 -1.000000 0.000000
vn 0.000000 -1.000000 0.000000
vn -0.000000 0.000000 1.000000
vn -0.000000 0.000000 1.000000
vn -0.000000 0.000000 1.000000
vn -0.000000 0.000000 1.000000
vn 0.000000 0.000000 -1.000000
vn 0.000000 0.000000 -1.000000
vn 0.000000 0.000000 -1.000000
vn 0.000000 0.000000 -1.000000
vn -0.000000 0.000000 1.000000
vn -0.000000 0.000000 1.000000
vn -0.000000 0.000000 1.000000
vn -0.000000 0.000000 1.000000
vn 0.000000 1.000000 0.000000
vn 0.000000 1.000000 0.000000
vn 0.000000 1.000000 0.000000
vn 0.000000 1.000000 0.000000
vn -1.000000 0.000000 -0.000000
vn -1.000000 0.000000 0.000014
vn -1.000000 0.000000 0.000014
vn -1.000000 0.000000 -0.000000
vn 0.000000 -1.000000 0.000000
vn 0.000000 -1.000000 0.000000
vn 0.000000 -1.000000 0.000000
vn 0.000000 -1.000000 0.000000
vn 1.000000 0.000000 0.000000
vn 1.000000 0.000000 0.000000
vn 1.000000 0.000000 0.000000
vn 1.000000 0.000000 0.000000
s off
f 1/5/1 12/31/2 9/26/3 3/8/4
f 3/9/5 9/25/6 10/28/7 5/12/8
f 5/1/9 10/27/10 11/30/11 7/3/12
f 7/13/13 11/29/14 12/32/15 1/16/16
f 2/17/17 8/18/18 6/19/19 4/20/20
f 7/21/21 1/22/22 3/23/23 5/24/24
f 9/25/25 4/10/26 6/11/27 10/28/28
f 11/30/29 10/27/30 6/2/31 8/4/32
f 12/32/33 11/29/34 8/14/35 2/15/36
f 9/26/37 12/31/38 2/6/39 4/7/40
f 17/33/41 20/36/42 19/35/43 18/34/44
f 14/37/45 18/40/46 19/39/47 15/38/48
f 18/41/49 14/44/50 13/43/51 17/42/52
f 17/45/53 13/48/54 16/47/55 20/46/56
f 15/49/57 19/52/58 16/50/59
f 16/50/60 19/52/61 23/56/62
f 23/56/63 19/52/64 22/53/65
f 19/52/66 20/51/67 22/53/68
f 22/53/69 20/51/70 21/54/71
f 20/51/72 16/50/73 21/54/74
f 21/54/75 16/50/76 24/55/77
f 16/50/78 23/56/79 24/55/80
f 37/57/81 25/60/82 26/59/83 38/58/84
f 38/61/85 26/64/86 27/63/87 39/62/88
f 40/65/89 28/68/90 25/67/91 37/66/92
f 39/69/93 27/72/94 28/71/95 40/70/96
f 25/73/97 34/78/98 35/77/99 32/76/100 30/75/101 26/74/102
f 30/79/103 32/82/104 31/81/105 29/80/106
f 33/83/107 36/86/108 35/85/109 34/84/110
f 27/72/111 29/90/112 31/89/113 36/88/114 33/87/115 28/71/116
f 26/91/117 30/94/118 29/93/119 27/92/120
f 32/95/121 35/98/122 36/97/123 31/96/124
f 28/99/125 33/102/126 34/101/127 25/100/128
f 21/103/129 37/57/130 38/58/131 22/104/132
f 22/105/133 38/61/134 39/62/135 23/106/136
f 23/107/137 39/69/138 40/70/139 24/108/140
f 24/109/141 40/65/142 37/66/143 21/110/144
f 45/111/145 48/114/146 47/113/147 46/112/148
f 42/115/149 46/118/150 47/117/151 43/116/152
f 46/119/153 42/122/154 41/121/155 45/120/156
f 45/123/157 41/126/158 44/125/159 48/124/160
f 43/127/161 47/130/162 44/128/163
f 44/128/164 47/130/165 51/134/166
f 51/134/167 47/130/168 50/131/169
f 47/130/170 48/129/171 50/131/172
f 50/131/173 48/129/174 49/132/175
f 48/129/176 44/128/177 49/132/178
f 49/132/179 44/128/180 52/133/181
f 44/128/182 51/134/183 52/133/184
f 65/135/185 53/138/186 54/137/187 66/136/188
f 66/139/189 54/142/190 55/141/191 67/140/192
f 68/143/193 56/146/194 53/145/195 65/144/196
f 67/147/197 55/150/198 56/149/199 68/148/200
f 53/151/201 62/156/202 63/155/203 60/154/204 58/153/205 54/152/206
f 58/157/207 60/160/208 59/159/209 57/158/210
f 61/161/211 64/164/212 63/163/213 62/162/214
f 55/150/215 57/168/216 59/167/217 64/166/218 61/165/219 56/149/220
f 54/169/221 58/172/222 57/171/223 55/170/224
f 60/173/225 63/176/226 64/175/227 59/174/228
f 56/177/229 61/180/230 62/179/231 53/178/232
f 49/181/233 65/135/234 66/136/235 50/182/236
f 50/183/237 66/139/238 67/140/239 51/184/240
f 51/185/241 67/147/242 68/148/243 52/186/244
f 52/187/245 68/143/246 65/144/247 49/188/248
