# This file uses meters as units for non-parametric coordinates.

v -0.341499 0.306070 0.360721
v 0.341496 0.306070 0.360721
v 0.341496 0.306070 -0.360720
v -0.341499 0.306070 -0.360720
v -0.341499 0.657018 0.360721
v 0.341496 0.657018 0.360721
v 0.341496 0.657018 -0.360720
v -0.341499 0.657018 -0.360720
v -0.584236 -0.009698 0.617124
v 0.584236 -0.009698 0.617124
v 0.584236 -0.009698 -0.617124
v -0.584236 -0.009698 -0.617124
v -0.584236 0.341250 0.617124
v 0.584236 0.341250 0.617124
v 0.584236 0.341250 -0.617124
v -0.584236 0.341250 -0.617124
vt 0.056279 0.774253
vt 0.174574 0.774253
vt 0.174574 0.899207
vt 0.056279 0.899207
vt 0.698050 0.408899
vt 0.698050 0.614325
vt 0.657214 0.614325
vt 0.657214 0.408899
vt 0.257646 0.478739
vt 0.294679 0.478739
vt 0.294679 0.519119
vt 0.257646 0.519119
vt 0.808104 0.807834
vt 0.841574 0.807834
vt 0.841574 0.842384
vt 0.808104 0.842384
vt 0.144975 0.609334
vt 0.080979 0.609334
vt 0.080979 0.539554
vt 0.144975 0.539554
vt 0.459608 0.424656
vt 0.547903 0.424656
vt 0.547903 0.515801
vt 0.459608 0.515801
vt 0.056279 0.774253
vt 0.174574 0.774253
vt 0.174574 0.899207
vt 0.056279 0.899207
vt 0.698050 0.408899
vt 0.698050 0.614325
vt 0.657214 0.614325
vt 0.657214 0.408899
vt 0.257646 0.478739
vt 0.294679 0.478739
vt 0.294679 0.519119
vt 0.257646 0.519119
vt 0.808104 0.807834
vt 0.841574 0.807834
vt 0.841574 0.842384
vt 0.808104 0.842384
vt 0.144975 0.609334
vt 0.080979 0.609334
vt 0.080979 0.539554
vt 0.144975 0.539554
vt 0.459608 0.424656
vt 0.547903 0.424656
vt 0.547903 0.515801
vt 0.459608 0.515801
vn 0.000000 1.000000 0.000000
vn 0.000000 1.000000 0.000000
vn 0.000000 1.000000 0.000000
vn 0.000000 1.000000 0.000000
vn 0.000000 -1.000000 0.000000
vn 0.000000 -1.000000 0.000000
vn 0.000000 -1.000000 0.000000
vn 0.000000 -1.000000 0.000000
vn 0.000000 0.000000 1.000000
vn 0.000000 0.000000 1.000000
vn 0.000000 0.000000 1.000000
vn 0.000000 0.000000 1.000000
vn 1.000000 0.000000 0.000000
vn 1.000000 0.000000 0.000000
vn 1.000000 0.000000 0.000000
vn 1.000000 0.000000 0.000000
vn 0.000000 0.000000 -1.000000
vn 0.000000 0.000000 -1.000000
vn 0.000000 0.000000 -1.000000
vn 0.000000 0.000000 -1.000000
vn -1.000000 0.000000 0.000000
vn -1.000000 0.000000 0.000000
vn -1.000000 0.000000 0.000000
vn -1.000000 0.000000 0.000000
vn 0.000000 1.000000 0.000000
vn 0.000000 1.000000 0.000000
vn 0.000000 1.000000 0.000000
vn 0.000000 1.000000 0.000000
vn 0.000000 -1.000000 0.000000
vn 0.000000 -1.000000 0.000000
vn 0.000000 -1.000000 0.000000
vn 0.000000 -1.000000 0.000000
vn 0.000000 0.000000 1.000000
vn 0.000000 0.000000 1.000000
vn 0.000000 0.000000 1.000000
vn 0.000000 0.000000 1.000000
vn 1.000000 0.000000 0.000000
vn 1.000000 0.000000 0.000000
vn 1.000000 0.000000 0.000000
vn 1.000000 0.000000 0.000000
vn 0.000000 0.000000 -1.000000
vn 0.000000 0.000000 -1.000000
vn 0.000000 0.000000 -1.000000
vn 0.000000 0.000000 -1.000000
vn -1.000000 0.000000 0.000000
vn -1.000000 0.000000 0.000000
vn -1.000000 0.000000 0.000000
vn -1.000000 0.000000 0.000000
s off
f 5/1/1 6/2/2 7/3/3 8/4/4
f 3/5/5 2/6/6 1/7/7 4/8/8
f 1/9/9 2/10/10 6/11/11 5/12/12
f 2/13/13 3/14/14 7/15/15 6/16/16
f 3/17/17 4/18/18 8/19/19 7/20/20
f 4/21/21 1/22/22 5/23/23 8/24/24
f 13/25/25 14/26/26 15/27/27 16/28/28
f 11/29/29 10/30/30 9/31/31 12/32/32
f 9/33/33 10/34/34 14/35/35 13/36/36
f 10/37/37 11/38/38 15/39/39 14/40/40
f 11/41/41 12/42/42 16/43/43 15/44/44
f 12/45/45 9/46/46 13/47/47 16/48/48
