# This file uses meters as units for non-parametric coordinates.

v 4.999989 9.805204 -7.130871
v 4.999989 9.805204 0.000000
v -0.000000 9.805204 0.000000
v 4.999989 10.000000 -7.130871
v 4.999989 10.000000 -10.000000
v -0.000000 10.000000 -10.000000
v 4.999989 9.805204 -6.834679
v 2.499992 10.000000 -10.000000
v 2.499992 10.000000 -7.130871
v 2.499992 9.805204 -7.130871
v 2.499992 9.805204 -6.834679
v -0.000000 9.805204 -6.834679
v 0.000000 10.000000 -7.130871
v -0.000000 9.805204 -7.130871
v 4.999989 9.805204 -10.000000
v 2.499992 9.805204 -10.000000
v -0.000000 9.805204 -10.000000
v 3.518456 9.805204 0.000000
v 1.481529 9.805204 0.000000
v 3.518456 9.805204 -0.444885
v 1.481529 9.805204 -0.444885
v 0.000000 9.805204 7.130875
v -0.000000 10.000000 7.130875
v 0.000000 10.000000 10.000000
v 4.999985 10.000000 10.000000
v 0.000000 9.805204 6.834679
v 2.499992 10.000000 10.000000
v 2.499992 10.000000 7.130875
v 2.499992 9.805204 7.130875
v 2.499992 9.805204 6.834679
v 4.999992 9.805204 6.834679
v 4.999985 10.000000 7.130875
v 4.999985 9.805204 7.130875
v 1.481529 9.805204 0.444885
v 3.518456 9.805204 0.444885
v 0.000000 9.313904 9.999802
v 0.000000 10.578630 9.999802
v 0.000000 12.094013 9.999802
v 0.000000 12.094013 10.981415
v 0.000000 9.632065 10.981415
v 0.000000 8.858118 10.981415
v 0.000000 8.851166 10.981415
v 5.000000 9.632065 10.981415
v 5.000000 12.094013 10.981415
v 5.000000 12.094013 9.999802
v 5.000000 10.578630 9.999802
v 5.000000 9.313904 9.999802
v 5.000000 8.851166 10.981415
v 5.000000 8.851166 10.981415
v 0.000000 8.851166 0.000000
v 5.000000 8.851166 0.000000
v 0.000000 9.313904 -9.999802
v 0.000000 10.578630 -9.999802
v 0.000000 12.094013 -9.999802
v 0.000000 12.094013 -10.981415
v 0.000000 9.632065 -10.981415
v 0.000000 8.858118 -10.981415
v 0.000000 8.851166 -10.981415
v 5.000000 9.632065 -10.981415
v 5.000000 12.094013 -10.981415
v 5.000000 12.094013 -9.999802
v 5.000000 10.578630 -9.999802
v 5.000000 9.313904 -9.999802
v 5.000000 8.851166 -10.981415
v 5.000000 8.851166 -10.981415
v 2.435690 10.000000 7.130875
v 2.435690 10.000000 10.000000
v 2.435690 10.000000 -10.000000
v 2.435690 10.000000 -7.130871
vt 0.945832 0.589878
vt 0.945832 0.589878
vt 0.945832 0.589878
vt 0.990737 0.522088
vt 0.990737 0.643859
vt 0.959379 0.522088
vt 0.959379 0.643859
vt 0.671101 0.555947
vt 0.671101 0.588650
vt 0.658603 0.555036
vt 0.658603 0.588650
vt 0.507875 0.555036
vt 0.507875 0.588650
vt 0.674934 0.588650
vt 0.674934 0.555947
vt 0.507875 0.588650
vt 0.658603 0.588650
vt 0.263628 0.067673
vt 0.263628 0.067673
vt 0.671101 0.588650
vt 0.320500 0.064100
vt 0.320500 0.064100
vt 0.674934 0.588650
vt 0.945832 0.589878
vt 0.945832 0.589878
vt 0.945832 0.589878
vt 0.661207 0.535036
vt 0.662700 0.535036
vt 0.661207 0.540518
vt 0.662700 0.540518
vt 0.661207 0.535036
vt 0.662700 0.535036
vt 0.661207 0.540518
vt 0.662700 0.540518
vt 0.945832 0.589878
vt 0.945832 0.589878
vt 0.945832 0.589878
vt 0.945832 0.589878
vt 0.945832 0.589878
vt 0.945832 0.589878
vt 0.945832 0.589878
vt 0.990737 0.522088
vt 0.990737 0.643859
vt 0.959379 0.522088
vt 0.959379 0.643859
vt 0.671101 0.555036
vt 0.671101 0.521421
vt 0.658603 0.555036
vt 0.658603 0.521421
vt 0.507875 0.555036
vt 0.507875 0.521422
vt 0.674934 0.521421
vt 0.674934 0.555036
vt 0.507875 0.588650
vt 0.658603 0.588650
vt 0.263628 0.067673
vt 0.263628 0.067673
vt 0.671101 0.588650
vt 0.320500 0.064100
vt 0.320500 0.064100
vt 0.674934 0.588650
vt 0.945832 0.589878
vt 0.945832 0.589878
vt 0.945832 0.589878
vt 0.945832 0.589878
vt 0.945832 0.589878
vt 0.945832 0.589878
vt 0.945832 0.589878
vt 0.391701 0.061199
vt 0.391701 0.061199
vt 0.391701 0.061199
vt 0.391701 0.061199
vt 0.420769 0.065352
vt 0.420769 0.065352
vt 0.420769 0.065352
vt 0.420769 0.065352
vt 0.391701 0.061199
vt 0.391701 0.061199
vt 0.391701 0.061199
vt 0.391701 0.061199
vt 0.325260 0.065352
vt 0.325260 0.065352
vt 0.325260 0.065352
vt 0.325260 0.065352
vt 0.235863 0.066130
vt 0.235863 0.066130
vt 0.235863 0.066130
vt 0.235863 0.066130
vt 0.320500 0.064100
vt 0.320500 0.064100
vt 0.320500 0.064100
vt 0.320500 0.064100
vt 0.263628 0.067673
vt 0.263628 0.067673
vt 0.263628 0.067673
vt 0.263628 0.067673
vt 0.391701 0.061199
vt 0.391701 0.061199
vt 0.391701 0.061199
vt 0.391701 0.061199
vt 0.420769 0.065352
vt 0.420769 0.065352
vt 0.420769 0.065352
vt 0.420769 0.065352
vt 0.391701 0.061199
vt 0.391701 0.061199
vt 0.391701 0.061199
vt 0.391701 0.061199
vt 0.325260 0.065352
vt 0.325260 0.065352
vt 0.325260 0.065352
vt 0.325260 0.065352
vt 0.235863 0.066130
vt 0.235863 0.066130
vt 0.235863 0.066130
vt 0.235863 0.066130
vt 0.658603 0.538229
vt 0.507875 0.538229
vt 0.642209 0.555299
vt 0.642209 0.555299
vt 0.642209 0.555299
vt 0.642209 0.555299
vt 0.507875 0.571843
vt 0.661954 0.535036
vt 0.658603 0.571843
vt 0.641990 0.555797
vt 0.641990 0.555797
vt 0.641990 0.555797
vt 0.641990 0.555797
vn 0.000000 1.000000 0.000000
vn 0.000000 1.000000 0.000000
vn 0.000000 1.000000 0.000000
vn 0.000000 1.000000 0.000000
vn 0.000000 1.000000 0.000000
vn 0.000000 1.000000 -0.000000
vn 0.000000 1.000000 -0.000000
vn 0.000000 1.000000 0.000000
vn 0.000000 1.000000 0.000000
vn 0.000000 0.000000 1.000000
vn 0.000000 0.000000 1.000000
vn 0.000000 0.000000 1.000000
vn 0.000000 0.000000 1.000000
vn 0.000000 1.000000 0.000000
vn 0.000000 1.000000 0.000000
vn 0.000000 1.000000 0.000000
vn 0.000000 1.000000 0.000000
vn 0.000000 1.000000 0.000000
vn 0.000000 1.000000 0.000000
vn 0.000000 1.000000 0.000000
vn 0.000000 1.000000 0.000000
vn 0.000000 1.000000 0.000000
vn 0.000000 1.000000 0.000000
vn 0.000000 1.000000 0.000000
vn 0.000000 1.000000 0.000000
vn 0.000000 1.000000 0.000000
vn 0.000000 1.000000 0.000000
vn 0.000000 0.000000 1.000000
vn 0.000000 0.000000 1.000000
vn 0.000000 0.000000 1.000000
vn 0.000000 1.000000 0.000000
vn 0.000000 1.000000 0.000000
vn 0.000000 1.000000 0.000000
vn 0.000000 1.000000 0.000000
vn 0.000000 1.000000 0.000000
vn 0.000000 1.000000 0.000000
vn 0.000000 1.000000 0.000000
vn 0.000000 1.000000 -0.000000
vn 0.000000 1.000000 0.000000
vn 0.000000 0.000000 -1.000000
vn 0.000000 0.000000 -1.000000
vn 0.000000 0.000000 -1.000000
vn 0.000000 0.000000 -1.000000
vn 0.000000 0.000000 -1.000000
vn 0.000000 0.000000 -1.000000
vn 0.000000 0.000000 -1.000000
vn 0.000000 0.000000 -1.000000
vn 0.000000 0.000000 -1.000000
vn 0.000000 0.000000 -1.000000
vn 0.000000 0.000000 -1.000000
vn 0.000000 0.000000 -1.000000
vn 0.000000 0.000000 -1.000000
vn 0.000000 1.000000 0.000000
vn 0.000000 1.000000 0.000000
vn 0.000000 1.000000 -0.000000
vn 0.000000 1.000000 0.000000
vn 0.000000 1.000000 0.000000
vn 0.000000 1.000000 0.000000
vn 0.000000 1.000000 0.000000
vn 0.000000 1.000000 0.000000
vn 0.000000 1.000000 0.000000
vn 0.000000 1.000000 -0.000000
vn 0.000000 1.000000 0.000000
vn 0.000000 1.000000 -0.000000
vn 0.000000 1.000000 -0.000000
vn 0.000000 1.000000 -0.000000
vn 0.000000 1.000000 0.000000
vn 0.000000 1.000000 0.000000
vn 0.000000 1.000000 0.000000
vn 0.000000 1.000000 0.000000
vn 0.000000 1.000000 0.000000
vn 0.000000 1.000000 0.000000
vn 0.000000 1.000000 0.000000
vn 0.000000 1.000000 0.000000
vn 0.000000 1.000000 0.000000
vn 0.000000 1.000000 0.000000
vn 0.000000 0.000000 -1.000000
vn 0.000000 0.000000 -1.000000
vn 0.000000 0.000000 -1.000000
vn 0.000000 0.000000 -1.000000
vn 0.000000 1.000000 0.000000
vn 0.000000 1.000000 0.000000
vn 0.000000 1.000000 0.000000
vn 0.000000 1.000000 -0.000000
vn 0.000000 1.000000 -0.000000
vn 0.000000 1.000000 0.000000
vn 0.000000 1.000000 0.000000
vn 0.000000 1.000000 0.000000
vn 0.000000 1.000000 0.000000
vn 0.000000 1.000000 0.000000
vn 0.000000 1.000000 0.000000
vn 0.000000 1.000000 0.000000
vn 0.000000 1.000000 0.000000
vn 0.000000 1.000000 -0.000000
vn 0.000000 0.000000 -1.000000
vn 0.000000 0.000000 -1.000000
vn 0.000000 0.000000 -1.000000
vn 0.000000 0.000000 -1.000000
vn 0.000000 1.000000 0.000000
vn 0.000000 1.000000 0.000000
vn 0.000000 1.000000 0.000000
vn 0.000000 1.000000 0.000000
vn 0.000000 1.000000 0.000000
vn 0.000000 1.000000 0.000004
vn 0.000000 1.000000 0.000000
vn 0.000000 1.000000 0.000000
vn 0.000000 1.000000 0.000000
vn 0.000000 1.000000 0.000000
vn 0.000000 1.000000 0.000000
vn 0.000000 1.000000 0.000000
vn 0.000000 1.000000 0.000000
vn 0.000000 1.000000 0.000000
vn 0.000000 1.000000 0.000000
vn 0.000000 1.000000 0.000000
vn 0.000000 1.000000 0.000000
vn 0.000000 1.000000 0.000000
vn 0.000000 1.000000 0.000000
vn 0.000000 1.000000 0.000000
vn 0.000000 1.000000 0.000000
vn 0.000000 1.000000 0.000000
vn 0.000000 1.000000 0.000000
vn 0.000000 1.000000 0.000000
vn -0.000000 0.000000 1.000000
vn -0.000000 0.000000 1.000000
vn 0.000000 0.000000 1.000000
vn 0.000000 0.000000 1.000000
vn 0.000000 1.000000 0.000000
vn 0.000000 1.000000 0.000000
vn 0.000000 1.000000 0.000000
vn 0.000000 1.000000 0.000000
vn 0.000000 0.000000 -1.000000
vn 0.000000 0.000000 -1.000000
vn 0.000000 0.000000 -1.000000
vn 0.000000 0.000000 -1.000000
vn 0.000000 0.000000 -1.000000
vn 0.000000 0.000000 -1.000000
vn 0.000000 0.000000 -1.000000
vn 0.000000 0.000000 -1.000000
vn 0.000000 -1.000000 0.000000
vn 0.000000 -1.000000 0.000000
vn 0.000000 -1.000000 0.000000
vn 0.000000 -1.000000 0.000000
vn -0.000000 0.000000 1.000000
vn -0.000000 0.000000 1.000000
vn -0.000000 0.000000 1.000000
vn -0.000000 0.000000 1.000000
vn 0.000000 0.000000 0.000000
vn -0.000000 0.000000 1.000000
vn -0.000000 0.000000 1.000000
vn 0.000000 0.000000 1.000000
vn 0.000000 0.000000 -1.000000
vn 0.000000 0.000000 -1.000000
vn 0.000000 0.000000 -1.000000
vn 0.000000 0.000000 -1.000000
vn 0.000000 1.000000 0.000000
vn 0.000000 1.000000 0.000000
vn 0.000000 1.000000 0.000000
vn 0.000000 1.000000 0.000000
vn 0.000000 0.000000 1.000000
vn 0.000000 0.000000 1.000000
vn 0.000000 0.000000 1.000000
vn 0.000000 0.000000 1.000000
vn 0.000000 0.000000 1.000000
vn 0.000000 0.000000 1.000000
vn 0.000000 0.000000 1.000000
vn 0.000000 0.000000 1.000000
vn 0.000000 -1.000000 0.000000
vn 0.000000 -1.000000 0.000000
vn 0.000000 -1.000000 0.000000
vn 0.000000 -1.000000 0.000000
vn 0.000000 0.000000 -1.000000
vn 0.000000 0.000000 -1.000000
vn 0.000000 0.000000 -1.000000
vn 0.000000 0.000000 -1.000000
vn 0.000000 0.000000 -0.000000
vn 0.000000 0.000000 -1.000000
vn 0.000000 0.000000 -1.000000
vn 0.000000 0.000000 -1.000000
vn 0.000000 1.000000 -0.000000
vn 0.000000 1.000000 -0.000000
vn 0.000000 1.000000 -0.000000
vn 0.000000 1.000000 -0.000000
vn 0.000000 0.000000 -1.000000
vn 0.000000 0.000000 -1.000000
vn 0.000000 0.000000 -1.000000
vn 0.000000 1.000000 0.000000
vn 0.000000 1.000000 0.000000
vn 0.000000 1.000000 0.000000
vn 0.000000 1.000000 0.000000
vn 0.000000 0.000000 1.000000
vn 0.000000 0.000000 1.000000
vn 0.000000 0.000000 1.000000
vn 0.000000 0.000000 1.000000
s off
f 2/1/1 7/2/2 20/3/3
f 19/4/4 18/5/5 21/6/6
f 21/6/7 18/5/8 20/7/9
f 9/10/10 10/8/11 1/9/12 4/11/13
f 5/13/14 8/12/15 9/10/16 4/11/17
f 1/9/18 10/8/19 7/14/20
f 7/14/21 10/8/22 11/15/23
f 8/126/24 68/127/25 69/128/26 9/129/27
f 69/125/28 10/8/29 9/10/30
f 11/15/31 10/8/32 12/23/33
f 12/23/34 10/8/35 14/20/36
f 12/24/37 21/25/38 11/26/39
f 8/27/40 5/28/41 16/29/42
f 16/29/43 5/28/44 15/30/45
f 6/31/46 68/124/47 8/32/48 17/33/49
f 17/33/50 8/32/51 16/34/52
f 20/3/53 11/26/54 21/25/55
f 20/3/56 7/2/57 11/35/58
f 2/1/59 20/3/60 18/36/61
f 3/37/62 19/38/63 21/25/64
f 3/37/65 21/25/66 12/24/67
f 3/39/68 26/40/69 34/41/70
f 18/42/71 19/43/72 35/44/73
f 35/44/74 19/43/75 34/45/76
f 66/117/77 29/46/78 22/47/79 23/49/80
f 66/119/81 67/120/82 27/121/83 28/122/84
f 22/47/85 29/46/86 26/52/87
f 26/52/88 29/46/89 30/53/90
f 27/50/91 25/54/92 32/55/93 28/48/94
f 32/55/95 33/58/96 29/46/97 28/48/98
f 30/53/99 29/46/100 31/61/101
f 31/61/102 29/46/103 33/58/104
f 31/62/105 35/63/106 30/64/107
f 34/41/108 30/64/109 35/63/110
f 34/41/111 26/40/112 30/65/113
f 3/39/114 34/41/115 19/66/116
f 2/67/117 18/68/118 35/63/119
f 2/67/120 35/63/121 31/62/122
f 40/69/123 43/70/124 44/71/125 39/72/126
f 39/73/127 44/74/128 45/75/129 38/76/130
f 38/77/131 45/78/132 46/79/133 37/80/134
f 37/81/135 46/82/136 47/83/137 36/84/138
f 50/85/139 51/86/140 49/87/141 42/88/142
f 48/89/143 43/90/144 40/91/145 41/92/146
f 49/93/147 48/94/148 41/95/149 42/96/150
f 56/97/151 55/98/152 60/99/153 59/100/154
f 55/101/155 54/102/156 61/103/157 60/104/158
f 54/105/159 53/106/160 62/107/161 61/108/162
f 53/109/163 52/110/164 63/111/165 62/112/166
f 50/113/167 58/114/168 65/115/169 51/116/170
f 64/60/171 57/22/172 56/59/173 59/21/174
f 65/57/175 58/56/176 57/19/177 64/18/178
f 24/51/179 67/118/180 66/117/181 23/49/182
f 66/117/183 28/48/184 29/46/185
f 69/125/186 68/123/187 6/16/188 13/17/189
f 14/20/190 10/8/191 69/125/192 13/17/193
