# This file uses meters as units for non-parametric coordinates.

v -3.738882 -0.117553 2.673203
v -3.738882 -0.117553 -1.044449
v -4.301676 1.483153 2.110397
v -4.301676 1.483153 -0.481644
v -6.893728 1.483153 2.110397
v -6.893728 1.483153 -0.481644
v -7.456522 -0.117553 2.673203
v -7.456522 -0.117553 -1.044449
v -1.325006 -0.117553 2.576859
v -1.325006 -0.117553 -1.140793
v -1.887800 2.002693 2.014053
v -1.887800 2.002693 -0.577988
v -4.479853 2.002693 2.014053
v -4.479853 2.002693 -0.577988
v -5.042646 -0.117553 2.576859
v -5.042646 -0.117553 -1.140793
v 0.224880 -0.117553 1.859848
v 0.224880 -0.117553 -1.857803
v -0.337914 1.483153 1.297043
v -0.337914 1.483153 -1.294998
v -2.929966 1.483153 1.297043
v -2.929966 1.483153 -1.294998
v -3.492760 -0.117553 1.859848
v -3.492760 -0.117553 -1.857803
v 2.425964 -0.117553 3.073441
v 2.425964 -0.117553 -0.644211
v 1.863171 2.002693 2.510635
v 1.863171 2.002693 -0.081406
v -0.728882 2.002693 2.510635
v -0.728882 2.002693 -0.081406
v -1.291676 -0.117553 3.073441
v -1.291676 -0.117553 -0.644211
v 7.456522 -0.117553 3.332123
v 7.456522 -0.117553 -0.385529
v 6.893728 2.002693 2.769318
v 6.893728 2.002693 0.177277
v 4.301676 2.002693 2.769318
v 4.301676 2.002693 0.177277
v 3.738882 -0.117553 3.332123
v 3.738882 -0.117553 -0.385529
v 4.893648 -0.117553 2.567749
v 4.893648 -0.117553 -1.149902
v 4.330854 1.483153 2.004944
v 4.330854 1.483153 -0.587097
v 1.738802 1.483153 2.004944
v 1.738802 1.483153 -0.587097
v 1.176008 -0.117553 2.567749
v 1.176008 -0.117553 -1.149902
v -2.686922 -0.117553 0.182846
v -2.686922 -0.117553 -2.264664
v -3.057436 0.683216 -0.187668
v -3.057436 0.683216 -1.894150
v -4.763918 0.683216 -0.187668
v -4.763918 0.683216 -1.894150
v -5.134432 -0.117553 0.182846
v -5.134432 -0.117553 -2.264664
v 2.109705 -0.117553 0.279327
v 2.109705 -0.117553 -2.168182
v 1.603964 0.683216 -0.091187
v 1.603964 0.683216 -1.797668
v -0.725317 0.683216 -0.091187
v -0.725317 0.683216 -1.797668
v -1.231058 -0.117553 0.279327
v -1.231058 -0.117553 -2.168182
v 7.288601 -0.117553 0.445404
v 7.288601 -0.117553 -2.002106
v 6.782861 0.683216 0.074890
v 6.782861 0.683216 -1.631592
v 4.453580 0.683216 0.074890
v 4.453580 0.683216 -1.631592
v 3.947840 -0.117553 0.445404
v 3.947840 -0.117553 -2.002106
v -0.457304 -0.117553 -0.884613
v -0.457304 -0.117553 -3.332123
v -0.846167 1.145043 -1.255127
v -0.846167 1.145043 -2.961609
v -2.637148 1.145043 -1.255127
v -2.637148 1.145043 -2.961609
v -3.026011 -0.117553 -0.884613
v -3.026011 -0.117553 -3.332123
vt 0.228636 0.475672
vt 0.235841 0.475672
vt 0.234751 0.479275
vt 0.229726 0.479275
vt 0.295546 0.479155
vt 0.300570 0.479155
vt 0.300570 0.484179
vt 0.295546 0.484179
vt 0.228933 0.479302
vt 0.233958 0.479302
vt 0.235048 0.482905
vt 0.227843 0.482905
vt 0.263876 0.483602
vt 0.263876 0.483602
vt 0.263876 0.483602
vt 0.263876 0.483602
vt 0.263876 0.483602
vt 0.263876 0.483602
vt 0.263876 0.483602
vt 0.263876 0.483602
vt 0.228636 0.475672
vt 0.235841 0.475672
vt 0.234751 0.479275
vt 0.229726 0.479275
vt 0.295546 0.479155
vt 0.300570 0.479155
vt 0.300570 0.484179
vt 0.295546 0.484179
vt 0.228933 0.479302
vt 0.233958 0.479302
vt 0.235048 0.482905
vt 0.227843 0.482905
vt 0.263876 0.483602
vt 0.263876 0.483602
vt 0.263876 0.483602
vt 0.263876 0.483602
vt 0.263876 0.483602
vt 0.263876 0.483602
vt 0.263876 0.483602
vt 0.263876 0.483602
vt 0.228636 0.475672
vt 0.235841 0.475672
vt 0.234751 0.479275
vt 0.229726 0.479275
vt 0.295546 0.479155
vt 0.300570 0.479155
vt 0.300570 0.484179
vt 0.295546 0.484179
vt 0.228933 0.479302
vt 0.233958 0.479302
vt 0.235048 0.482905
vt 0.227843 0.482905
vt 0.263876 0.483602
vt 0.263876 0.483602
vt 0.263876 0.483602
vt 0.263876 0.483602
vt 0.263876 0.483602
vt 0.263876 0.483602
vt 0.263876 0.483602
vt 0.263876 0.483602
vt 0.228636 0.475672
vt 0.235841 0.475672
vt 0.234751 0.479275
vt 0.229726 0.479275
vt 0.295546 0.479155
vt 0.300570 0.479155
vt 0.300570 0.484179
vt 0.295546 0.484179
vt 0.228933 0.479302
vt 0.233958 0.479302
vt 0.235048 0.482905
vt 0.227843 0.482905
vt 0.263876 0.483602
vt 0.263876 0.483602
vt 0.263876 0.483602
vt 0.263876 0.483602
vt 0.263876 0.483602
vt 0.263876 0.483602
vt 0.263876 0.483602
vt 0.263876 0.483602
vt 0.228636 0.475672
vt 0.235841 0.475672
vt 0.234751 0.479275
vt 0.229726 0.479275
vt 0.295546 0.479155
vt 0.300570 0.479155
vt 0.300570 0.484179
vt 0.295546 0.484179
vt 0.228933 0.479302
vt 0.233958 0.479302
vt 0.235048 0.482905
vt 0.227843 0.482905
vt 0.263876 0.483602
vt 0.263876 0.483602
vt 0.263876 0.483602
vt 0.263876 0.483602
vt 0.263876 0.483602
vt 0.263876 0.483602
vt 0.263876 0.483602
vt 0.263876 0.483602
vt 0.228636 0.475672
vt 0.235841 0.475672
vt 0.234751 0.479275
vt 0.229726 0.479275
vt 0.295546 0.479155
vt 0.300570 0.479155
vt 0.300570 0.484179
vt 0.295546 0.484179
vt 0.228933 0.479302
vt 0.233958 0.479302
vt 0.235048 0.482905
vt 0.227843 0.482905
vt 0.263876 0.483602
vt 0.263876 0.483602
vt 0.263876 0.483602
vt 0.263876 0.483602
vt 0.263876 0.483602
vt 0.263876 0.483602
vt 0.263876 0.483602
vt 0.263876 0.483602
vt 0.228636 0.475672
vt 0.235841 0.475672
vt 0.234751 0.479275
vt 0.229726 0.479275
vt 0.295546 0.479155
vt 0.300570 0.479155
vt 0.300570 0.484179
vt 0.295546 0.484179
vt 0.228933 0.479302
vt 0.233958 0.479302
vt 0.235048 0.482905
vt 0.227843 0.482905
vt 0.263876 0.483602
vt 0.263876 0.483602
vt 0.263876 0.483602
vt 0.263876 0.483602
vt 0.263876 0.483602
vt 0.263876 0.483602
vt 0.263876 0.483602
vt 0.263876 0.483602
vt 0.228636 0.475672
vt 0.235841 0.475672
vt 0.234751 0.479275
vt 0.229726 0.479275
vt 0.295546 0.479155
vt 0.300570 0.479155
vt 0.300570 0.484179
vt 0.295546 0.484179
vt 0.228933 0.479302
vt 0.233958 0.479302
vt 0.235048 0.482905
vt 0.227843 0.482905
vt 0.263876 0.483602
vt 0.263876 0.483602
vt 0.263876 0.483602
vt 0.263876 0.483602
vt 0.263876 0.483602
vt 0.263876 0.483602
vt 0.263876 0.483602
vt 0.263876 0.483602
vt 0.228636 0.475672
vt 0.235841 0.475672
vt 0.234751 0.479275
vt 0.229726 0.479275
vt 0.295546 0.479155
vt 0.300570 0.479155
vt 0.300570 0.484179
vt 0.295546 0.484179
vt 0.228933 0.479302
vt 0.233958 0.479302
vt 0.235048 0.482905
vt 0.227843 0.482905
vt 0.263876 0.483602
vt 0.263876 0.483602
vt 0.263876 0.483602
vt 0.263876 0.483602
vt 0.263876 0.483602
vt 0.263876 0.483602
vt 0.263876 0.483602
vt 0.263876 0.483602
vt 0.228636 0.475672
vt 0.235841 0.475672
vt 0.234751 0.479275
vt 0.229726 0.479275
vt 0.295546 0.479155
vt 0.300570 0.479155
vt 0.300570 0.484179
vt 0.295546 0.484179
vt 0.228933 0.479302
vt 0.233958 0.479302
vt 0.235048 0.482905
vt 0.227843 0.482905
vt 0.263876 0.483602
vt 0.263876 0.483602
vt 0.263876 0.483602
vt 0.263876 0.483602
vt 0.263876 0.483602
vt 0.263876 0.483602
vt 0.263876 0.483602
vt 0.263876 0.483602
vn 0.943389 0.331687 0.000000
vn 0.943389 0.331687 0.000000
vn 0.943389 0.331687 0.000000
vn 0.943389 0.331687 0.000000
vn 0.000000 1.000000 0.000000
vn 0.000000 1.000000 0.000000
vn 0.000000 1.000000 0.000000
vn 0.000000 1.000000 0.000000
vn -0.943389 0.331687 0.000000
vn -0.943389 0.331687 0.000000
vn -0.943390 0.331687 0.000000
vn -0.943390 0.331687 0.000000
vn 0.000000 0.331693 -0.943387
vn 0.000000 0.331693 -0.943387
vn 0.000000 0.331693 -0.943387
vn 0.000000 0.331693 -0.943387
vn 0.000000 0.331693 0.943387
vn 0.000000 0.331693 0.943387
vn 0.000000 0.331693 0.943387
vn 0.000000 0.331693 0.943387
vn 0.966530 0.256554 0.000000
vn 0.966530 0.256554 0.000000
vn 0.966530 0.256554 0.000000
vn 0.966530 0.256554 0.000000
vn 0.000000 1.000000 0.000000
vn 0.000000 1.000000 0.000000
vn 0.000000 1.000000 0.000000
vn 0.000000 1.000000 0.000000
vn -0.966530 0.256554 0.000000
vn -0.966530 0.256554 0.000000
vn -0.966530 0.256554 0.000000
vn -0.966530 0.256554 0.000000
vn 0.000000 0.256559 -0.966529
vn 0.000000 0.256559 -0.966529
vn 0.000000 0.256559 -0.966529
vn 0.000000 0.256559 -0.966529
vn 0.000000 0.256559 0.966529
vn 0.000000 0.256559 0.966529
vn 0.000000 0.256559 0.966529
vn 0.000000 0.256559 0.966529
vn 0.943389 0.331687 0.000000
vn 0.943389 0.331687 0.000000
vn 0.943389 0.331687 0.000000
vn 0.943389 0.331687 0.000000
vn 0.000000 1.000000 0.000000
vn 0.000000 1.000000 0.000000
vn 0.000000 1.000000 0.000000
vn 0.000000 1.000000 0.000000
vn -0.943389 0.331687 0.000000
vn -0.943389 0.331687 0.000000
vn -0.943389 0.331687 0.000000
vn -0.943389 0.331687 0.000000
vn 0.000000 0.331693 -0.943387
vn 0.000000 0.331693 -0.943387
vn 0.000000 0.331693 -0.943387
vn 0.000000 0.331693 -0.943387
vn 0.000000 0.331693 0.943387
vn 0.000000 0.331693 0.943387
vn 0.000000 0.331693 0.943387
vn 0.000000 0.331693 0.943387
vn 0.966530 0.256554 0.000000
vn 0.966530 0.256554 0.000000
vn 0.966530 0.256554 0.000000
vn 0.966530 0.256554 0.000000
vn 0.000000 1.000000 0.000000
vn 0.000000 1.000000 0.000000
vn 0.000000 1.000000 0.000000
vn 0.000000 1.000000 0.000000
vn -0.966530 0.256554 0.000000
vn -0.966530 0.256554 0.000000
vn -0.966530 0.256554 0.000000
vn -0.966530 0.256554 0.000000
vn 0.000000 0.256559 -0.966529
vn 0.000000 0.256559 -0.966529
vn 0.000000 0.256559 -0.966529
vn 0.000000 0.256559 -0.966529
vn 0.000000 0.256559 0.966529
vn 0.000000 0.256559 0.966529
vn 0.000000 0.256559 0.966529
vn 0.000000 0.256559 0.966529
vn 0.966530 0.256554 0.000000
vn 0.966530 0.256554 0.000000
vn 0.966530 0.256554 0.000000
vn 0.966530 0.256554 0.000000
vn 0.000000 1.000000 0.000000
vn 0.000000 1.000000 0.000000
vn 0.000000 1.000000 0.000000
vn 0.000000 1.000000 0.000000
vn -0.966530 0.256554 0.000000
vn -0.966530 0.256554 0.000000
vn -0.966530 0.256554 0.000000
vn -0.966530 0.256554 0.000000
vn 0.000000 0.256559 -0.966529
vn 0.000000 0.256559 -0.966529
vn 0.000000 0.256559 -0.966529
vn 0.000000 0.256559 -0.966529
vn 0.000000 0.256559 0.966529
vn 0.000000 0.256559 0.966529
vn 0.000000 0.256559 0.966529
vn 0.000000 0.256559 0.966529
vn 0.943389 0.331687 0.000000
vn 0.943389 0.331687 0.000000
vn 0.943389 0.331687 0.000000
vn 0.943389 0.331687 0.000000
vn 0.000000 1.000000 0.000000
vn 0.000000 1.000000 0.000000
vn 0.000000 1.000000 0.000000
vn 0.000000 1.000000 0.000000
vn -0.943389 0.331687 0.000000
vn -0.943389 0.331687 0.000000
vn -0.943389 0.331687 0.000000
vn -0.943389 0.331687 0.000000
vn 0.000000 0.331693 -0.943387
vn 0.000000 0.331693 -0.943387
vn 0.000000 0.331693 -0.943387
vn 0.000000 0.331693 -0.943387
vn 0.000000 0.331693 0.943387
vn 0.000000 0.331693 0.943387
vn 0.000000 0.331693 0.943387
vn 0.000000 0.331693 0.943387
vn 0.907559 0.419925 0.000000
vn 0.907559 0.419925 0.000000
vn 0.907559 0.419925 0.000000
vn 0.907559 0.419925 0.000000
vn 0.000000 1.000000 0.000000
vn 0.000000 1.000000 0.000000
vn 0.000000 1.000000 0.000000
vn 0.000000 1.000000 0.000000
vn -0.907559 0.419925 0.000000
vn -0.907559 0.419925 0.000000
vn -0.907559 0.419925 0.000000
vn -0.907559 0.419925 0.000000
vn 0.000000 0.419925 -0.907559
vn 0.000000 0.419925 -0.907559
vn 0.000000 0.419925 -0.907559
vn 0.000000 0.419925 -0.907559
vn 0.000000 0.419925 0.907559
vn 0.000000 0.419925 0.907559
vn 0.000000 0.419925 0.907559
vn 0.000000 0.419925 0.907559
vn 0.845493 0.533987 0.000000
vn 0.845493 0.533987 0.000000
vn 0.845493 0.533987 0.000000
vn 0.845493 0.533987 0.000000
vn 0.000000 1.000000 0.000000
vn 0.000000 1.000000 0.000000
vn 0.000000 1.000000 0.000000
vn 0.000000 1.000000 0.000000
vn -0.845493 0.533987 0.000000
vn -0.845493 0.533987 0.000000
vn -0.845493 0.533987 0.000000
vn -0.845493 0.533987 0.000000
vn 0.000000 0.419925 -0.907559
vn 0.000000 0.419925 -0.907559
vn 0.000000 0.419925 -0.907559
vn 0.000000 0.419925 -0.907559
vn 0.000000 0.419925 0.907559
vn 0.000000 0.419925 0.907559
vn 0.000000 0.419925 0.907559
vn 0.000000 0.419925 0.907559
vn 0.845493 0.533986 0.000000
vn 0.845493 0.533986 0.000000
vn 0.845493 0.533986 0.000000
vn 0.845493 0.533986 0.000000
vn 0.000000 1.000000 0.000000
vn 0.000000 1.000000 0.000000
vn 0.000000 1.000000 0.000000
vn 0.000000 1.000000 0.000000
vn -0.845493 0.533986 0.000000
vn -0.845493 0.533986 0.000000
vn -0.845493 0.533986 0.000000
vn -0.845493 0.533986 0.000000
vn 0.000000 0.419925 -0.907559
vn 0.000000 0.419925 -0.907559
vn 0.000000 0.419925 -0.907559
vn 0.000000 0.419925 -0.907559
vn 0.000000 0.419925 0.907559
vn 0.000000 0.419925 0.907559
vn 0.000000 0.419925 0.907559
vn 0.000000 0.419925 0.907559
vn 0.955700 0.294343 0.000000
vn 0.955700 0.294343 0.000000
vn 0.955700 0.294343 0.000000
vn 0.955700 0.294343 0.000000
vn 0.000000 1.000000 0.000000
vn 0.000000 1.000000 0.000000
vn 0.000000 1.000000 0.000000
vn 0.000000 1.000000 0.000000
vn -0.955700 0.294343 0.000000
vn -0.955700 0.294343 0.000000
vn -0.955700 0.294343 0.000000
vn -0.955700 0.294343 0.000000
vn 0.000000 0.281580 -0.959538
vn 0.000000 0.281580 -0.959538
vn 0.000000 0.281580 -0.959538
vn 0.000000 0.281580 -0.959538
vn 0.000000 0.281580 0.959538
vn 0.000000 0.281580 0.959538
vn 0.000000 0.281580 0.959538
vn 0.000000 0.281580 0.959538
s off
f 1/1/1 2/2/2 4/3/3 3/4/4
f 3/5/5 4/6/6 6/7/7 5/8/8
f 5/9/9 6/10/10 8/11/11 7/12/12
f 2/13/13 8/14/14 6/15/15 4/16/16
f 7/17/17 1/18/18 3/19/19 5/20/20
f 9/21/21 10/22/22 12/23/23 11/24/24
f 11/25/25 12/26/26 14/27/27 13/28/28
f 13/29/29 14/30/30 16/31/31 15/32/32
f 10/33/33 16/34/34 14/35/35 12/36/36
f 15/37/37 9/38/38 11/39/39 13/40/40
f 17/41/41 18/42/42 20/43/43 19/44/44
f 19/45/45 20/46/46 22/47/47 21/48/48
f 21/49/49 22/50/50 24/51/51 23/52/52
f 18/53/53 24/54/54 22/55/55 20/56/56
f 23/57/57 17/58/58 19/59/59 21/60/60
f 25/61/61 26/62/62 28/63/63 27/64/64
f 27/65/65 28/66/66 30/67/67 29/68/68
f 29/69/69 30/70/70 32/71/71 31/72/72
f 26/73/73 32/74/74 30/75/75 28/76/76
f 31/77/77 25/78/78 27/79/79 29/80/80
f 33/81/81 34/82/82 36/83/83 35/84/84
f 35/85/85 36/86/86 38/87/87 37/88/88
f 37/89/89 38/90/90 40/91/91 39/92/92
f 34/93/93 40/94/94 38/95/95 36/96/96
f 39/97/97 33/98/98 35/99/99 37/100/100
f 41/101/101 42/102/102 44/103/103 43/104/104
f 43/105/105 44/106/106 46/107/107 45/108/108
f 45/109/109 46/110/110 48/111/111 47/112/112
f 42/113/113 48/114/114 46/115/115 44/116/116
f 47/117/117 41/118/118 43/119/119 45/120/120
f 49/121/121 50/122/122 52/123/123 51/124/124
f 51/125/125 52/126/126 54/127/127 53/128/128
f 53/129/129 54/130/130 56/131/131 55/132/132
f 50/133/133 56/134/134 54/135/135 52/136/136
f 55/137/137 49/138/138 51/139/139 53/140/140
f 57/141/141 58/142/142 60/143/143 59/144/144
f 59/145/145 60/146/146 62/147/147 61/148/148
f 61/149/149 62/150/150 64/151/151 63/152/152
f 58/153/153 64/154/154 62/155/155 60/156/156
f 63/157/157 57/158/158 59/159/159 61/160/160
f 65/161/161 66/162/162 68/163/163 67/164/164
f 67/165/165 68/166/166 70/167/167 69/168/168
f 69/169/169 70/170/170 72/171/171 71/172/172
f 66/173/173 72/174/174 70/175/175 68/176/176
f 71/177/177 65/178/178 67/179/179 69/180/180
f 73/181/181 74/182/182 76/183/183 75/184/184
f 75/185/185 76/186/186 78/187/187 77/188/188
f 77/189/189 78/190/190 80/191/191 79/192/192
f 74/193/193 80/194/194 78/195/195 76/196/196
f 79/197/197 73/198/198 75/199/199 77/200/200
