# This file uses meters as units for non-parametric coordinates.

v 5.000000 0.000000 -20.000004
v 0.000000 0.000000 -20.000004
v 5.000000 0.000000 0.000000
v 0.000000 0.000000 0.000000
v 5.000000 0.000000 -18.999998
v 0.000000 0.000000 -18.999998
v 5.000000 0.000000 -0.999999
v 0.000000 0.000000 -0.999999
v 5.000000 -2.999999 -18.999998
v 0.000000 -2.999999 -18.999998
v 5.000000 -2.999999 -0.999999
v 0.000000 -2.999999 -0.999999
vt 0.386365 0.064904
vt 0.386365 0.064904
vt 0.386365 0.064904
vt 0.386365 0.064904
vt 0.386365 0.064904
vt 0.386365 0.064904
vt 0.386365 0.064904
vt 0.386365 0.064904
vt 0.233733 0.061163
vt 0.233733 0.061163
vt 0.233733 0.061163
vt 0.233733 0.061163
vt 0.233733 0.061163
vt 0.233733 0.061163
vt 0.233733 0.061163
vt 0.233733 0.061163
vt 0.394396 0.329035
vt 0.394396 0.329035
vt 0.394396 0.329035
vt 0.394396 0.329035
vn 0.000000 1.000000 0.000000
vn 0.000000 1.000000 0.000000
vn 0.000000 1.000000 0.000000
vn 0.000000 1.000000 0.000000
vn 0.000000 1.000000 0.000000
vn 0.000000 1.000000 0.000000
vn 0.000000 1.000000 0.000000
vn 0.000000 1.000000 0.000000
vn 0.000000 0.000000 1.000000
vn 0.000000 0.000000 1.000000
vn 0.000000 0.000000 1.000000
vn 0.000000 0.000000 1.000000
vn 0.000000 0.000000 -1.000000
vn 0.000000 0.000000 -1.000000
vn 0.000000 0.000000 -1.000000
vn 0.000000 0.000000 -1.000000
vn 0.000000 1.000000 0.000000
vn 0.000000 1.000000 0.000000
vn 0.000000 1.000000 0.000000
vn 0.000000 1.000000 0.000000
s off
f 1/1/1 2/2/2 6/3/3 5/4/4
f 4/5/5 3/6/6 7/7/7 8/8/8
f 5/9/9 6/10/10 10/11/11 9/12/12
f 8/13/13 7/14/14 11/15/15 12/16/16
f 12/17/17 11/18/18 9/19/19 10/20/20
