# This file uses meters as units for non-parametric coordinates.

v 0.000000 -3.000000 -19.999998
v 5.000000 -3.000000 -19.999998
v 5.000000 -3.000000 -1.101282
v 0.000000 -3.000000 -1.101282
v 5.000000 -0.000000 -0.000000
v 5.000000 -0.000000 -1.101282
v 0.000000 -0.000000 -1.101282
v 0.000000 -0.000000 -0.000000
vt 0.394119 0.334496
vt 0.394119 0.334496
vt 0.203416 0.475554
vt 0.394396 0.329035
vt 0.324673 0.475554
vt 0.324673 0.475554
vt 0.324673 0.475554
vt 0.324673 0.475554
vt 0.203416 0.475554
vt 0.203416 0.475554
vt 0.203416 0.475554
vt 0.394396 0.329035
vn 0.000000 1.000000 0.000000
vn 0.000000 1.000000 0.000000
vn 0.000000 1.000000 0.000000
vn 0.000000 1.000000 0.000000
vn 0.000000 1.000000 0.000000
vn 0.000000 1.000000 0.000000
vn 0.000000 1.000000 0.000000
vn 0.000000 1.000000 0.000000
vn 0.000000 0.000000 -1.000000
vn 0.000000 0.000000 -1.000000
vn 0.000000 0.000000 -1.000000
vn 0.000000 0.000000 -1.000000
s off
f 3/12/1 2/1/2 1/2/3 4/4/4
f 5/6/5 6/5/6 7/8/7 8/7/8
f 3/3/9 4/11/10 7/10/11 6/9/12
