# This file uses meters as units for non-parametric coordinates.

v -1.450455 0.000000 3.904404
v 1.450462 0.000000 3.904404
v -1.450455 0.489771 3.904404
v 1.450462 0.489771 3.904404
v -1.450455 0.489771 -3.904404
v 1.450462 0.489771 -3.904404
v -1.450455 0.000000 -3.904404
v 1.450462 0.000000 -3.904404
v -1.162239 0.489771 3.611465
v 1.162247 0.489771 3.611465
v 1.162247 0.489771 -3.611481
v -1.162239 0.489771 -3.611481
v -0.704712 0.489771 -3.081512
v -0.704712 0.489771 3.111252
v 0.706558 0.489771 3.111252
v 0.706558 0.489771 -3.081512
v -0.704712 1.376953 -3.081512
v -0.704712 1.376953 3.111252
v 0.706558 1.376953 3.111252
v 0.706558 1.376953 -3.081512
vt 0.234499 0.478153
vt 0.169673 0.480554
vt 0.290521 0.483755
vt 0.290521 0.483755
vt 0.290521 0.483755
vt 0.290521 0.483755
vt 0.169673 0.480554
vt 0.169673 0.480554
vt 0.234499 0.478153
vt 0.234499 0.478153
vt 0.234499 0.478153
vt 0.234499 0.478153
vt 0.191281 0.398921
vt 0.290521 0.483755
vt 0.290521 0.483755
vt 0.290521 0.483755
vt 0.290521 0.483755
vt 0.191281 0.398921
vt 0.191281 0.398921
vt 0.191281 0.398921
vt 0.290521 0.483755
vt 0.290521 0.483755
vt 0.290521 0.483755
vt 0.169673 0.480554
vt 0.290521 0.483755
vt 0.290521 0.483755
vt 0.169673 0.480554
vt 0.290521 0.483755
vt 0.234499 0.478153
vt 0.169673 0.480554
vt 0.290521 0.483755
vt 0.169673 0.480554
vt 0.234499 0.478153
vt 0.290521 0.483755
vt 0.234499 0.478153
vt 0.169673 0.480554
vt 0.457785 0.156393
vt 0.457785 0.156393
vt 0.457785 0.156393
vt 0.457785 0.156393
vt 0.326318 0.155505
vt 0.326318 0.155505
vt 0.326318 0.155505
vt 0.326318 0.155505
vt 0.236601 0.155505
vt 0.236601 0.155505
vt 0.236601 0.155505
vt 0.236601 0.155505
vt 0.326318 0.155505
vt 0.326318 0.155505
vt 0.326318 0.155505
vt 0.326318 0.155505
vt 0.236601 0.155505
vt 0.236601 0.155505
vt 0.236601 0.155505
vt 0.236601 0.155505
vn 0.000000 0.000000 1.000000
vn 0.000000 0.000000 1.000000
vn 0.000000 0.000000 1.000000
vn 0.000000 0.000000 1.000000
vn 0.000000 1.000000 0.000000
vn 0.000000 1.000000 0.000000
vn 0.000000 1.000000 0.000000
vn 0.000000 1.000000 0.000000
vn 0.000000 0.000000 -1.000000
vn 0.000000 0.000000 -1.000000
vn 0.000000 0.000000 -1.000000
vn 0.000000 0.000000 -1.000000
vn 1.000000 0.000000 0.000000
vn 1.000000 0.000000 0.000000
vn 1.000000 0.000000 0.000000
vn 1.000000 0.000000 0.000000
vn -1.000000 0.000000 0.000000
vn -1.000000 0.000000 0.000000
vn -1.000000 0.000000 0.000000
vn -1.000000 0.000000 0.000000
vn 0.000000 1.000000 0.000000
vn 0.000000 1.000000 0.000000
vn 0.000000 1.000000 0.000000
vn 0.000000 1.000000 0.000000
vn 0.000000 1.000000 0.000000
vn 0.000000 1.000000 0.000000
vn 0.000000 1.000000 0.000000
vn 0.000000 1.000000 0.000000
vn 0.000000 1.000000 0.000000
vn 0.000000 1.000000 0.000000
vn 0.000000 1.000000 0.000000
vn 0.000000 1.000000 0.000000
vn 0.000000 1.000000 0.000000
vn 0.000000 1.000000 0.000000
vn 0.000000 1.000000 0.000000
vn 0.000000 1.000000 0.000000
vn 0.000000 1.000000 0.000000
vn 0.000000 1.000000 0.000000
vn 0.000000 1.000000 0.000000
vn 0.000000 1.000000 0.000000
vn -1.000000 0.000000 0.000000
vn -1.000000 0.000000 0.000000
vn -1.000000 0.000000 0.000000
vn -1.000000 0.000000 0.000000
vn 0.000000 0.000000 1.000000
vn 0.000000 0.000000 1.000000
vn 0.000000 0.000000 1.000000
vn 0.000000 0.000000 1.000000
vn 1.000000 0.000000 0.000000
vn 1.000000 0.000000 0.000000
vn 1.000000 0.000000 0.000000
vn 1.000000 0.000000 0.000000
vn 0.000000 0.000000 -1.000000
vn 0.000000 0.000000 -1.000000
vn 0.000000 0.000000 -1.000000
vn 0.000000 0.000000 -1.000000
s off
f 1/36/1 2/2/2 4/30/3 3/32/4
f 9/13/5 10/20/6 11/19/7 12/18/8
f 5/24/9 6/27/10 8/8/11 7/7/12
f 2/35/13 8/9/14 6/10/15 4/29/16
f 7/11/17 1/1/18 3/33/19 5/12/20
f 3/3/21 4/31/22 10/26/23 9/17/24
f 4/4/25 6/28/26 11/23/27 10/14/28
f 6/6/29 5/25/30 12/22/31 11/15/32
f 5/5/33 3/34/34 9/21/35 12/16/36
f 17/37/37 18/38/38 19/39/39 20/40/40
f 13/41/41 14/42/42 18/43/43 17/44/44
f 14/45/45 15/46/46 19/47/47 18/48/48
f 15/49/49 16/50/50 20/51/51 19/52/52
f 16/53/53 13/54/54 17/55/55 20/56/56
