# This file uses meters as units for non-parametric coordinates.

v 18.806046 -3.000000 -20.000004
v 0.000000 -0.000000 -20.000004
v 18.806046 -3.000000 0.000000
v 0.000000 -0.000000 0.000000
v 18.806046 -3.000000 -18.999996
v 0.000000 -0.000000 -18.999996
v 18.806046 -3.000000 -0.999998
v 0.000000 -0.000000 -0.999998
v 0.000000 -3.000000 -18.999996
v 0.000000 -3.000000 -0.999998
v 4.024194 0.000000 -20.000004
v 4.024194 0.000000 -18.999996
v 4.024194 0.000000 -0.999998
v 4.024194 0.000000 0.000000
v 19.999998 -3.000000 -20.000004
v 19.999998 -3.000000 -18.999996
v 19.999998 -3.000000 0.000000
v 19.999998 -3.000000 -0.999998
v 4.294926 -0.054254 -20.000004
v 4.306130 -0.057219 -18.999996
v 16.665524 -3.000000 -18.999996
v 16.665524 -3.000000 -0.999998
v 4.306131 -0.057219 -0.999998
v 4.294926 -0.054254 0.000000
v 16.697643 -2.572313 -20.000004
v 16.665524 -2.565577 -18.999996
v 16.665524 -2.565577 -0.999998
v 16.697643 -2.572313 0.000000
vt 0.386365 0.064904
vt 0.386365 0.064904
vt 0.386365 0.064904
vt 0.386365 0.064904
vt 0.386365 0.064904
vt 0.386365 0.064904
vt 0.386365 0.064904
vt 0.386365 0.064904
vt 0.233733 0.061163
vt 0.233733 0.061163
vt 0.233733 0.061163
vt 0.233733 0.061163
vt 0.233733 0.061163
vt 0.233733 0.061163
vt 0.394396 0.329035
vt 0.394396 0.329035
vt 0.394396 0.329035
vt 0.394396 0.329035
vt 0.386365 0.064904
vt 0.233733 0.061163
vt 0.386365 0.064904
vt 0.386365 0.064904
vt 0.233733 0.061163
vt 0.386365 0.064904
vt 0.394119 0.334496
vt 0.394119 0.334496
vt 0.394119 0.334496
vt 0.394119 0.334496
vt 0.394119 0.334496
vt 0.394119 0.334496
vt 0.394119 0.334496
vt 0.394119 0.334496
vt 0.394119 0.334496
vt 0.394119 0.334496
vt 0.394119 0.334496
vt 0.394119 0.334496
vt 0.386365 0.064904
vt 0.233733 0.061163
vt 0.386365 0.064904
vt 0.394396 0.329035
vt 0.233733 0.061163
vt 0.233733 0.061163
vt 0.394396 0.329035
vt 0.386365 0.064904
vt 0.233733 0.061163
vt 0.386365 0.064904
vt 0.386365 0.064904
vt 0.233733 0.061163
vt 0.386365 0.064904
vt 0.386365 0.064904
vt 0.233733 0.061163
vt 0.386365 0.064904
vn 0.198849 0.980030 -0.000107
vn 0.198918 0.980016 0.000181
vn 0.198919 0.980016 0.000185
vn 0.198849 0.980030 -0.000107
vn 0.198919 0.980016 -0.000181
vn 0.198849 0.980030 0.000107
vn 0.198849 0.980030 0.000107
vn 0.198920 0.980016 -0.000185
vn 0.000002 0.000000 1.000000
vn 0.000000 0.000000 1.000000
vn 0.000000 0.000000 1.000000
vn 0.000000 0.000000 -1.000000
vn 0.000000 0.000000 -1.000000
vn 0.000000 0.000000 -1.000000
vn 0.000000 1.000000 0.000000
vn -0.000000 1.000000 0.000000
vn -0.000000 1.000000 0.000000
vn 0.000000 1.000000 0.000000
vn -0.000000 1.000000 0.000000
vn -0.000000 1.000000 0.000000
vn -0.000000 1.000000 0.000000
vn -0.000000 1.000000 0.000000
vn -0.000000 0.000000 1.000000
vn -0.000000 0.000000 1.000000
vn 0.000000 0.000000 1.000000
vn 0.000000 0.000000 -1.000000
vn 0.000000 0.000000 -1.000000
vn 0.000000 0.000000 -1.000000
vn -0.000000 1.000000 0.000000
vn -0.000000 1.000000 0.000000
vn -0.000000 1.000000 0.000000
vn -0.000000 1.000000 0.000000
vn 0.000000 1.000000 0.000000
vn 0.000000 1.000000 0.000000
vn 0.000000 1.000000 0.000000
vn 0.000000 1.000000 0.000000
vn 0.000000 1.000000 0.000000
vn 0.000000 1.000000 0.000000
vn 0.000000 1.000000 0.000000
vn 0.000000 1.000000 0.000000
vn -0.000000 1.000000 0.000000
vn -0.000000 1.000000 0.000000
vn 0.000000 1.000000 0.000000
vn 0.000000 1.000000 0.000000
vn 0.198904 0.980019 0.000235
vn 0.197719 0.980259 0.000346
vn 0.197719 0.980259 0.000346
vn 0.198905 0.980019 0.000235
vn 0.000000 0.000000 1.000000
vn -0.000000 0.000000 1.000000
vn -0.000000 0.000000 1.000000
vn -0.000000 0.000000 1.000000
vn 0.000000 1.000000 0.000000
vn 0.000000 1.000000 0.000000
vn 0.000000 1.000000 0.000000
vn 0.000000 1.000000 0.000000
vn 0.000000 0.000000 -1.000000
vn 0.000000 0.000000 -1.000000
vn 0.000000 0.000000 -1.000000
vn 0.000000 0.000000 -1.000000
vn 0.197719 0.980259 -0.000346
vn 0.198904 0.980019 -0.000235
vn 0.198905 0.980019 -0.000235
vn 0.197719 0.980259 -0.000346
vn 0.198918 0.980016 0.000181
vn 0.198904 0.980019 0.000235
vn 0.198905 0.980019 0.000235
vn 0.198919 0.980016 0.000185
vn 0.000000 0.000000 1.000000
vn 0.000000 0.000000 1.000000
vn -0.000000 0.000000 1.000000
vn 0.000000 0.000000 -1.000000
vn 0.000000 0.000000 -1.000000
vn 0.000000 0.000000 -1.000000
vn 0.198904 0.980019 -0.000235
vn 0.198919 0.980016 -0.000181
vn 0.198920 0.980016 -0.000185
vn 0.198905 0.980019 -0.000235
s off
f 1/1/1 25/47/2 26/49/3 5/4/4
f 28/52/5 3/6/6 7/7/7 27/50/8
f 5/9/9 26/48/10 21/41/11
f 27/51/12 7/13/13 22/42/14
f 22/43/15 7/16/16 5/17/17 21/40/18
f 11/19/19 2/2/20 6/3/21 12/21/22
f 9/11/23 12/20/24 6/10/25
f 8/12/26 13/23/27 10/14/28
f 4/5/29 14/24/30 13/22/31 8/8/32
f 1/25/33 5/26/34 16/27/35 15/28/36
f 7/29/37 3/30/38 17/31/39 18/32/40
f 5/33/41 7/34/42 18/35/43 16/36/44
f 19/37/45 11/19/46 12/21/47 20/39/48
f 21/41/49 20/38/50 12/20/51 9/11/52
f 10/15/53 22/43/54 21/40/55 9/18/56
f 13/23/57 23/45/58 22/42/59 10/14/60
f 14/24/61 24/46/62 23/44/63 13/22/64
f 25/47/65 19/37/66 20/39/67 26/49/68
f 21/41/69 26/48/70 20/38/71
f 23/45/72 27/51/73 22/42/74
f 24/46/75 28/52/76 27/50/77 23/44/78
