# This file uses meters as units for non-parametric coordinates.

v -2.341134 0.000000 2.889343
v 2.782877 0.000000 2.889343
v -1.565437 2.562006 2.113647
v 2.007181 2.562006 2.113647
v -1.565437 2.562006 -1.458984
v 2.007181 2.562006 -1.458984
v -2.341134 0.000000 -2.234680
v 2.782877 0.000000 -2.234680
v -4.183635 0.000000 2.180603
v -0.738248 0.000000 2.180603
v -3.662056 1.722693 1.659027
v -1.259827 1.722693 1.659027
v -3.662056 1.722693 -0.743195
v -1.259827 1.722693 -0.743195
v -4.183635 0.000000 -1.264771
v -0.738248 0.000000 -1.264771
v -0.810884 0.000000 -0.586578
v 2.634503 0.000000 -0.586578
v -0.289305 1.722693 -1.108154
v 2.112924 1.722693 -1.108154
v -0.289305 1.722693 -3.510376
v 2.112924 1.722693 -3.510376
v -0.810884 0.000000 -4.031952
v 2.634503 0.000000 -4.031952
v -3.479004 0.000000 -0.355301
v 0.443226 0.000000 -0.355301
v -2.885239 1.285526 -0.744522
v -0.150539 1.285526 -0.744522
v -2.885239 1.285526 -2.537125
v -0.150539 1.285526 -2.537125
v -3.479004 0.000000 -2.926346
v 0.443226 0.000000 -2.926346
v -1.606982 0.000000 -2.079330
v 0.094581 0.000000 -2.079330
v -1.349392 0.850781 -2.336929
v -0.163010 0.850781 -2.336929
v -1.349392 0.850781 -3.523300
v -0.163010 0.850781 -3.523300
v -1.606982 0.000000 -3.780899
v 0.094581 0.000000 -3.780899
v -1.399105 0.740351 1.931961
v 1.834977 0.740351 1.931961
v -0.909514 3.302357 1.442383
v 1.345387 3.302357 1.442383
v -0.909514 3.302357 -0.812531
v 1.345387 3.302357 -0.812531
v -1.399105 0.740351 -1.302109
v 1.834977 0.740351 -1.302109
v 0.738248 0.000000 0.860916
v 4.183635 0.000000 0.860916
v 1.259826 2.186519 0.339340
v 3.662056 2.186519 0.339340
v 1.259826 2.186519 -2.062881
v 3.662056 2.186519 -2.062881
v 0.738248 0.000000 -2.584457
v 4.183635 0.000000 -2.584457
v -0.229490 0.000000 3.212372
v 3.692739 0.000000 3.212372
v 0.364275 1.826018 2.671646
v 3.098974 1.826018 2.671646
v 0.364275 1.826018 0.181229
v 3.098974 1.826018 0.181229
v -0.229490 0.000000 -0.359497
v 3.692739 0.000000 -0.359497
v -1.330555 0.000000 4.031952
v 1.426513 0.000000 4.031952
v -0.913177 1.283570 3.651855
v 1.009136 1.283570 3.651855
v -0.913177 1.283570 1.901276
v 1.009136 1.283570 1.901276
v -1.330555 0.000000 1.521179
v 1.426513 0.000000 1.521179
vt 0.228636 0.475672
vt 0.235841 0.475672
vt 0.234751 0.479275
vt 0.229726 0.479275
vt 0.295546 0.479155
vt 0.300570 0.479155
vt 0.300570 0.484179
vt 0.295546 0.484179
vt 0.228933 0.479302
vt 0.233958 0.479302
vt 0.235048 0.482905
vt 0.227843 0.482905
vt 0.263876 0.483602
vt 0.263876 0.483602
vt 0.263876 0.483602
vt 0.263876 0.483602
vt 0.263876 0.483602
vt 0.263876 0.483602
vt 0.263876 0.483602
vt 0.263876 0.483602
vt 0.228636 0.475672
vt 0.235841 0.475672
vt 0.234751 0.479275
vt 0.229726 0.479275
vt 0.295546 0.479155
vt 0.300570 0.479155
vt 0.300570 0.484179
vt 0.295546 0.484179
vt 0.228933 0.479302
vt 0.233958 0.479302
vt 0.235048 0.482905
vt 0.227843 0.482905
vt 0.263876 0.483602
vt 0.263876 0.483602
vt 0.263876 0.483602
vt 0.263876 0.483602
vt 0.263876 0.483602
vt 0.263876 0.483602
vt 0.263876 0.483602
vt 0.263876 0.483602
vt 0.228636 0.475672
vt 0.235841 0.475672
vt 0.234751 0.479275
vt 0.229726 0.479275
vt 0.295546 0.479155
vt 0.300570 0.479155
vt 0.300570 0.484179
vt 0.295546 0.484179
vt 0.228933 0.479302
vt 0.233958 0.479302
vt 0.235048 0.482905
vt 0.227843 0.482905
vt 0.263876 0.483602
vt 0.263876 0.483602
vt 0.263876 0.483602
vt 0.263876 0.483602
vt 0.263876 0.483602
vt 0.263876 0.483602
vt 0.263876 0.483602
vt 0.263876 0.483602
vt 0.228636 0.475672
vt 0.235841 0.475672
vt 0.234751 0.479275
vt 0.229726 0.479275
vt 0.295546 0.479155
vt 0.300570 0.479155
vt 0.300570 0.484179
vt 0.295546 0.484179
vt 0.228933 0.479302
vt 0.233958 0.479302
vt 0.235048 0.482905
vt 0.227843 0.482905
vt 0.263876 0.483602
vt 0.263876 0.483602
vt 0.263876 0.483602
vt 0.263876 0.483602
vt 0.263876 0.483602
vt 0.263876 0.483602
vt 0.263876 0.483602
vt 0.263876 0.483602
vt 0.228636 0.475672
vt 0.235841 0.475672
vt 0.234751 0.479275
vt 0.229726 0.479275
vt 0.295546 0.479155
vt 0.300570 0.479155
vt 0.300570 0.484179
vt 0.295546 0.484179
vt 0.228933 0.479302
vt 0.233958 0.479302
vt 0.235048 0.482905
vt 0.227843 0.482905
vt 0.263876 0.483602
vt 0.263876 0.483602
vt 0.263876 0.483602
vt 0.263876 0.483602
vt 0.263876 0.483602
vt 0.263876 0.483602
vt 0.263876 0.483602
vt 0.263876 0.483602
vt 0.228636 0.475672
vt 0.235841 0.475672
vt 0.234751 0.479275
vt 0.229726 0.479275
vt 0.295546 0.479155
vt 0.300570 0.479155
vt 0.300570 0.484179
vt 0.295546 0.484179
vt 0.228933 0.479302
vt 0.233958 0.479302
vt 0.235048 0.482905
vt 0.227843 0.482905
vt 0.199294 0.473210
vt 0.206500 0.473210
vt 0.206500 0.480416
vt 0.199294 0.480416
vt 0.263876 0.483602
vt 0.263876 0.483602
vt 0.263876 0.483602
vt 0.263876 0.483602
vt 0.263876 0.483602
vt 0.263876 0.483602
vt 0.263876 0.483602
vt 0.263876 0.483602
vt 0.228636 0.475672
vt 0.235841 0.475672
vt 0.234751 0.479275
vt 0.229726 0.479275
vt 0.295546 0.479155
vt 0.300570 0.479155
vt 0.300570 0.484179
vt 0.295546 0.484179
vt 0.228933 0.479302
vt 0.233958 0.479302
vt 0.235048 0.482905
vt 0.227843 0.482905
vt 0.263876 0.483602
vt 0.263876 0.483602
vt 0.263876 0.483602
vt 0.263876 0.483602
vt 0.263876 0.483602
vt 0.263876 0.483602
vt 0.263876 0.483602
vt 0.263876 0.483602
vt 0.228636 0.475672
vt 0.235841 0.475672
vt 0.234751 0.479275
vt 0.229726 0.479275
vt 0.295546 0.479155
vt 0.300570 0.479155
vt 0.300570 0.484179
vt 0.295546 0.484179
vt 0.228933 0.479302
vt 0.233958 0.479302
vt 0.235048 0.482905
vt 0.227843 0.482905
vt 0.263876 0.483602
vt 0.263876 0.483602
vt 0.263876 0.483602
vt 0.263876 0.483602
vt 0.263876 0.483602
vt 0.263876 0.483602
vt 0.263876 0.483602
vt 0.263876 0.483602
vt 0.228636 0.475672
vt 0.235841 0.475672
vt 0.234751 0.479275
vt 0.229726 0.479275
vt 0.295546 0.479155
vt 0.300570 0.479155
vt 0.300570 0.484179
vt 0.295546 0.484179
vt 0.228933 0.479302
vt 0.233958 0.479302
vt 0.235048 0.482905
vt 0.227843 0.482905
vt 0.263876 0.483602
vt 0.263876 0.483602
vt 0.263876 0.483602
vt 0.263876 0.483602
vt 0.263876 0.483602
vt 0.263876 0.483602
vt 0.263876 0.483602
vt 0.263876 0.483602
vn 0.000000 0.289778 0.957094
vn 0.000000 0.289778 0.957094
vn 0.000000 0.289778 0.957094
vn 0.000000 0.289778 0.957094
vn 0.000000 1.000000 0.000000
vn 0.000000 1.000000 0.000000
vn 0.000000 1.000000 0.000000
vn 0.000000 1.000000 0.000000
vn 0.000000 0.289778 -0.957094
vn 0.000000 0.289778 -0.957094
vn 0.000000 0.289778 -0.957094
vn 0.000000 0.289778 -0.957094
vn 0.957094 0.289779 0.000000
vn 0.957094 0.289779 0.000000
vn 0.957094 0.289779 0.000000
vn 0.957094 0.289779 0.000000
vn -0.957094 0.289779 0.000000
vn -0.957094 0.289779 0.000000
vn -0.957094 0.289779 0.000000
vn -0.957094 0.289779 0.000000
vn 0.000000 0.289777 0.957094
vn 0.000000 0.289777 0.957094
vn 0.000000 0.289777 0.957094
vn 0.000000 0.289777 0.957094
vn 0.000000 1.000000 0.000000
vn 0.000000 1.000000 0.000000
vn 0.000000 1.000000 0.000000
vn 0.000000 1.000000 0.000000
vn 0.000000 0.289777 -0.957094
vn 0.000000 0.289777 -0.957094
vn 0.000000 0.289777 -0.957094
vn 0.000000 0.289777 -0.957094
vn 0.957094 0.289779 0.000000
vn 0.957094 0.289779 0.000000
vn 0.957094 0.289779 0.000000
vn 0.957094 0.289779 0.000000
vn -0.957094 0.289779 0.000000
vn -0.957094 0.289779 0.000000
vn -0.957094 0.289779 0.000000
vn -0.957094 0.289779 0.000000
vn 0.000000 0.289777 0.957094
vn 0.000000 0.289777 0.957094
vn 0.000000 0.289777 0.957094
vn 0.000000 0.289777 0.957094
vn 0.000000 1.000000 0.000000
vn 0.000000 1.000000 0.000000
vn 0.000000 1.000000 0.000000
vn 0.000000 1.000000 0.000000
vn 0.000000 0.289777 -0.957094
vn 0.000000 0.289777 -0.957094
vn 0.000000 0.289777 -0.957094
vn 0.000000 0.289777 -0.957094
vn 0.957094 0.289779 0.000000
vn 0.957094 0.289779 0.000000
vn 0.957094 0.289779 0.000000
vn 0.957094 0.289779 0.000000
vn -0.957094 0.289779 0.000000
vn -0.957094 0.289779 0.000000
vn -0.957094 0.289779 0.000000
vn -0.957094 0.289779 0.000000
vn 0.000000 0.289781 0.957093
vn 0.000000 0.289781 0.957093
vn 0.000000 0.289781 0.957093
vn 0.000000 0.289781 0.957093
vn 0.000000 1.000000 0.000000
vn 0.000000 1.000000 0.000000
vn 0.000000 1.000000 0.000000
vn 0.000000 1.000000 0.000000
vn 0.000000 0.289781 -0.957093
vn 0.000000 0.289781 -0.957093
vn 0.000000 0.289781 -0.957093
vn 0.000000 0.289781 -0.957093
vn 0.907840 0.419317 0.000000
vn 0.907840 0.419317 0.000000
vn 0.907840 0.419318 0.000000
vn 0.907840 0.419318 0.000000
vn -0.907840 0.419318 0.000000
vn -0.907840 0.419318 0.000000
vn -0.907840 0.419317 0.000000
vn -0.907840 0.419317 0.000000
vn 0.000000 0.289787 0.957091
vn 0.000000 0.289787 0.957091
vn 0.000000 0.289787 0.957091
vn 0.000000 0.289787 0.957091
vn 0.000000 1.000000 0.000000
vn 0.000000 1.000000 0.000000
vn 0.000000 1.000000 0.000000
vn 0.000000 1.000000 0.000000
vn 0.000000 0.289787 -0.957091
vn 0.000000 0.289787 -0.957091
vn 0.000000 0.289787 -0.957091
vn 0.000000 0.289787 -0.957091
vn 0.957094 0.289778 0.000000
vn 0.957094 0.289778 0.000000
vn 0.957094 0.289778 0.000000
vn 0.957094 0.289778 0.000000
vn -0.957094 0.289778 0.000000
vn -0.957094 0.289778 0.000000
vn -0.957094 0.289778 0.000000
vn -0.957094 0.289778 0.000000
vn 0.000000 0.187696 0.982227
vn 0.000000 0.187696 0.982227
vn 0.000000 0.187696 0.982227
vn 0.000000 0.187696 0.982227
vn 0.000000 1.000000 0.000000
vn 0.000000 1.000000 0.000000
vn 0.000000 1.000000 0.000000
vn 0.000000 1.000000 0.000000
vn 0.000000 0.187696 -0.982227
vn 0.000000 0.187696 -0.982227
vn 0.000000 0.187696 -0.982227
vn 0.000000 0.187696 -0.982227
vn 0.000000 -1.000000 0.000000
vn 0.000000 -1.000000 0.000000
vn 0.000000 -1.000000 0.000000
vn 0.000000 -1.000000 0.000000
vn 0.982226 0.187700 0.000000
vn 0.982226 0.187700 0.000000
vn 0.982226 0.187700 0.000000
vn 0.982226 0.187700 0.000000
vn -0.982226 0.187700 0.000000
vn -0.982226 0.187700 0.000000
vn -0.982226 0.187700 0.000000
vn -0.982226 0.187700 0.000000
vn 0.000000 0.232031 0.972708
vn 0.000000 0.232031 0.972708
vn 0.000000 0.232031 0.972708
vn 0.000000 0.232031 0.972708
vn 0.000000 1.000000 0.000000
vn 0.000000 1.000000 0.000000
vn 0.000000 1.000000 0.000000
vn 0.000000 1.000000 0.000000
vn 0.000000 0.232031 -0.972708
vn 0.000000 0.232031 -0.972708
vn 0.000000 0.232031 -0.972708
vn 0.000000 0.232031 -0.972708
vn 0.972708 0.232033 0.000000
vn 0.972708 0.232033 0.000000
vn 0.972708 0.232033 0.000000
vn 0.972708 0.232033 0.000000
vn -0.972708 0.232032 0.000000
vn -0.972708 0.232032 0.000000
vn -0.972708 0.232032 0.000000
vn -0.972708 0.232032 0.000000
vn 0.000000 0.283936 0.958843
vn 0.000000 0.283936 0.958843
vn 0.000000 0.283936 0.958843
vn 0.000000 0.283936 0.958843
vn 0.000000 1.000000 0.000000
vn 0.000000 1.000000 0.000000
vn 0.000000 1.000000 0.000000
vn 0.000000 1.000000 0.000000
vn 0.000000 0.283936 -0.958843
vn 0.000000 0.283936 -0.958843
vn 0.000000 0.283936 -0.958843
vn 0.000000 0.283936 -0.958843
vn 0.950987 0.309232 0.000000
vn 0.950987 0.309232 0.000000
vn 0.950987 0.309232 0.000000
vn 0.950987 0.309232 0.000000
vn -0.950987 0.309232 0.000000
vn -0.950987 0.309232 0.000000
vn -0.950987 0.309232 0.000000
vn -0.950987 0.309232 0.000000
vn 0.000000 0.283937 0.958843
vn 0.000000 0.283937 0.958843
vn 0.000000 0.283937 0.958843
vn 0.000000 0.283937 0.958843
vn 0.000000 1.000000 0.000000
vn 0.000000 1.000000 0.000000
vn 0.000000 1.000000 0.000000
vn 0.000000 1.000000 0.000000
vn 0.000000 0.283937 -0.958843
vn 0.000000 0.283937 -0.958843
vn 0.000000 0.283937 -0.958843
vn 0.000000 0.283937 -0.958843
vn 0.950987 0.309232 0.000000
vn 0.950987 0.309232 0.000000
vn 0.950987 0.309232 0.000000
vn 0.950987 0.309232 0.000000
vn -0.950987 0.309232 0.000000
vn -0.950987 0.309232 0.000000
vn -0.950987 0.309232 0.000000
vn -0.950987 0.309232 0.000000
s off
f 1/1/1 2/2/2 4/3/3 3/4/4
f 3/5/5 4/6/6 6/7/7 5/8/8
f 5/9/9 6/10/10 8/11/11 7/12/12
f 2/13/13 8/14/14 6/15/15 4/16/16
f 7/17/17 1/18/18 3/19/19 5/20/20
f 9/21/21 10/22/22 12/23/23 11/24/24
f 11/25/25 12/26/26 14/27/27 13/28/28
f 13/29/29 14/30/30 16/31/31 15/32/32
f 10/33/33 16/34/34 14/35/35 12/36/36
f 15/37/37 9/38/38 11/39/39 13/40/40
f 17/41/41 18/42/42 20/43/43 19/44/44
f 19/45/45 20/46/46 22/47/47 21/48/48
f 21/49/49 22/50/50 24/51/51 23/52/52
f 18/53/53 24/54/54 22/55/55 20/56/56
f 23/57/57 17/58/58 19/59/59 21/60/60
f 25/61/61 26/62/62 28/63/63 27/64/64
f 27/65/65 28/66/66 30/67/67 29/68/68
f 29/69/69 30/70/70 32/71/71 31/72/72
f 26/73/73 32/74/74 30/75/75 28/76/76
f 31/77/77 25/78/78 27/79/79 29/80/80
f 33/81/81 34/82/82 36/83/83 35/84/84
f 35/85/85 36/86/86 38/87/87 37/88/88
f 37/89/89 38/90/90 40/91/91 39/92/92
f 34/93/93 40/94/94 38/95/95 36/96/96
f 39/97/97 33/98/98 35/99/99 37/100/100
f 41/101/101 42/102/102 44/103/103 43/104/104
f 43/105/105 44/106/106 46/107/107 45/108/108
f 45/109/109 46/110/110 48/111/111 47/112/112
f 47/113/113 48/114/114 42/115/115 41/116/116
f 42/117/117 48/118/118 46/119/119 44/120/120
f 47/121/121 41/122/122 43/123/123 45/124/124
f 49/125/125 50/126/126 52/127/127 51/128/128
f 51/129/129 52/130/130 54/131/131 53/132/132
f 53/133/133 54/134/134 56/135/135 55/136/136
f 50/137/137 56/138/138 54/139/139 52/140/140
f 55/141/141 49/142/142 51/143/143 53/144/144
f 57/145/145 58/146/146 60/147/147 59/148/148
f 59/149/149 60/150/150 62/151/151 61/152/152
f 61/153/153 62/154/154 64/155/155 63/156/156
f 58/157/157 64/158/158 62/159/159 60/160/160
f 63/161/161 57/162/162 59/163/163 61/164/164
f 65/165/165 66/166/166 68/167/167 67/168/168
f 67/169/169 68/170/170 70/171/171 69/172/172
f 69/173/173 70/174/174 72/175/175 71/176/176
f 66/177/177 72/178/178 70/179/179 68/180/180
f 71/181/181 65/182/182 67/183/183 69/184/184
