# This file uses meters as units for non-parametric coordinates.

v 1.000000 -0.000001 0.000004
v 1.000000 -0.000002 -1.000000
v 1.000000 -3.000002 -1.000000
v 20.000000 -0.000002 0.000004
v 20.000000 -0.000002 -1.000000
v 20.000000 -3.000002 -1.000000
v 0.000000 -0.000002 -1.000000
v -0.000015 0.000000 -20.000000
v 0.999985 0.000000 -20.000000
v 0.999985 -3.000000 -20.000000
v 18.999985 -3.000000 -19.000000
v 20.000000 -0.000001 -19.000000
v 19.999985 0.000000 -20.000000
v 18.999985 -0.000001 -19.000000
v 18.999985 0.000000 -20.000000
v 18.999985 -3.000000 -20.000000
v 20.000000 -3.000000 -19.000000
v 0.000000 -0.000002 0.000000
v 1.000000 -0.000002 0.000000
vt 0.386365 0.064904
vt 0.386365 0.064904
vt 0.386365 0.064904
vt 0.386365 0.064904
vt 0.233733 0.061163
vt 0.233733 0.061163
vt 0.233733 0.061163
vt 0.233733 0.061163
vt 0.386365 0.064904
vt 0.386365 0.064904
vt 0.386365 0.064904
vt 0.386365 0.064904
vt 0.233733 0.061163
vt 0.233733 0.061163
vt 0.233733 0.061163
vt 0.233733 0.061163
vt 0.394396 0.329035
vt 0.394396 0.329035
vt 0.394396 0.329035
vt 0.394396 0.329035
vt 0.394396 0.329035
vt 0.394396 0.329035
vt 0.386365 0.064904
vt 0.386365 0.064904
vt 0.386365 0.064904
vt 0.386365 0.064904
vt 0.233733 0.061163
vt 0.233733 0.061163
vt 0.233733 0.061163
vt 0.233733 0.061163
vt 0.394396 0.329035
vt 0.394396 0.329035
vt 0.394396 0.329035
vt 0.232286 0.061390
vt 0.232286 0.061390
vt 0.232286 0.061390
vt 0.232286 0.061390
vt 0.399864 0.333497
vt 0.399864 0.333497
vt 0.399864 0.333497
vt 0.396546 0.071345
vt 0.396546 0.071345
vt 0.396546 0.071345
vt 0.396546 0.071345
vn 0.000000 1.000000 -0.000000
vn 0.000000 1.000000 -0.000000
vn 0.000000 1.000000 -0.000000
vn 0.000000 1.000000 -0.000000
vn 0.000000 0.000000 -1.000000
vn 0.000000 0.000000 -1.000000
vn 0.000000 0.000000 -1.000000
vn 0.000000 0.000000 -1.000000
vn -0.000000 1.000000 0.000000
vn -0.000000 1.000000 0.000000
vn -0.000000 1.000000 0.000000
vn -0.000000 1.000000 0.000000
vn 1.000000 0.000000 -0.000001
vn 1.000000 0.000000 -0.000001
vn 1.000000 0.000000 -0.000001
vn 1.000000 0.000000 -0.000001
vn 0.000000 1.000000 0.000000
vn 0.000000 1.000000 0.000000
vn 0.000000 1.000000 0.000000
vn 0.000000 1.000000 0.000000
vn 0.000000 1.000000 0.000000
vn 0.000000 1.000000 0.000000
vn 0.000000 1.000000 0.000001
vn 0.000000 1.000000 0.000001
vn 0.000000 1.000000 0.000001
vn 0.000000 1.000000 0.000001
vn -1.000000 0.000000 0.000000
vn -1.000000 0.000000 0.000000
vn -1.000000 0.000000 0.000000
vn -1.000000 0.000000 0.000000
vn -0.000000 1.000000 0.000001
vn 0.000000 1.000000 0.000000
vn 0.000000 1.000000 0.000000
vn 0.000000 0.000000 1.000000
vn 0.000000 0.000000 1.000000
vn 0.000000 0.000000 1.000000
vn 0.000000 0.000000 1.000000
vn 0.000000 1.000000 0.000000
vn 0.000000 1.000000 0.000000
vn 0.000000 1.000000 0.000000
vn -0.000000 1.000000 0.000000
vn -0.000001 1.000000 0.000000
vn -0.000001 1.000000 0.000000
vn -0.000000 1.000000 0.000000
s off
f 5/1/1 2/2/2 1/3/3 4/4/4
f 3/5/5 2/6/6 5/7/7 6/8/8
f 7/9/9 2/10/10 9/11/11 8/12/12
f 2/13/13 3/14/14 10/15/15 9/16/16
f 6/17/17 10/18/18 3/19/19
f 11/20/20 10/21/21 6/22/22
f 13/23/23 15/24/24 14/25/25 12/26/26
f 15/27/27 16/28/28 11/29/29 14/30/30
f 16/31/31 10/32/32 11/33/33
f 11/34/34 17/35/35 12/36/36 14/37/37
f 6/38/38 17/39/39 11/40/40
f 7/41/41 18/42/42 19/43/43 2/44/44
