# This file uses meters as units for non-parametric coordinates.

v -0.000000 -0.000000 0.000000
v 0.000000 -0.000000 -19.000008
v 1.000000 0.000000 -19.000008
v -0.000000 -0.000000 -1.000007
v -0.000000 -3.000000 -1.000007
v 0.000000 -3.000000 -19.000008
v 1.000000 -3.000000 -19.000008
v 19.000000 -2.999998 -19.000000
v 20.000000 0.000002 0.000009
v 20.000000 0.000002 -0.999999
v 20.000000 -2.999998 -0.999999
v 19.000000 0.000001 -19.000000
v 20.000000 0.000002 -19.000000
v 20.000000 -2.999998 -19.000000
v 20.000004 0.000000 -20.000004
v 0.000001 0.000000 -20.000004
v 19.000000 0.000000 -20.000004
v 1.000000 0.000000 -20.000004
v 19.000000 -3.000000 -20.000004
v 1.000000 -3.000000 -20.000004
vt 0.233733 0.061163
vt 0.233733 0.061163
vt 0.233733 0.061163
vt 0.233733 0.061163
vt 0.394396 0.329035
vt 0.394396 0.329035
vt 0.394396 0.329035
vt 0.394396 0.329035
vt 0.394396 0.329035
vt 0.394396 0.329035
vt 0.386365 0.064904
vt 0.386365 0.064904
vt 0.386365 0.064904
vt 0.386365 0.064904
vt 0.233733 0.061163
vt 0.233733 0.061163
vt 0.233733 0.061163
vt 0.233733 0.061163
vt 0.394396 0.329035
vt 0.394396 0.329035
vt 0.394396 0.329035
vt 0.233733 0.061163
vt 0.233733 0.061163
vt 0.233733 0.061163
vt 0.233733 0.061163
vt 0.394396 0.329035
vt 0.394396 0.329035
vt 0.394396 0.329035
vt 0.386365 0.064904
vt 0.386365 0.064904
vt 0.386365 0.064904
vt 0.386365 0.064904
vt 0.386365 0.064904
vt 0.386365 0.064904
vt 0.386365 0.064904
vt 0.386365 0.064904
vt 0.233733 0.061163
vt 0.233733 0.061163
vt 0.233733 0.061163
vt 0.233733 0.061163
vt 0.233733 0.061163
vt 0.233733 0.061163
vt 0.233733 0.061163
vt 0.233733 0.061163
vt 0.394396 0.329035
vt 0.394396 0.329035
vt 0.394396 0.329035
vt 0.394396 0.329035
vn -0.000001 0.000000 1.000000
vn -0.000001 0.000000 1.000000
vn -0.000001 0.000000 1.000000
vn -0.000001 0.000000 1.000000
vn -0.000000 1.000000 -0.000000
vn 0.000000 1.000000 0.000000
vn -0.000000 1.000000 -0.000000
vn -0.000000 1.000000 -0.000000
vn -0.000000 1.000000 -0.000000
vn -0.000000 1.000000 -0.000000
vn -0.000000 1.000000 0.000000
vn -0.000000 1.000000 0.000000
vn -0.000000 1.000000 0.000000
vn -0.000000 1.000000 0.000000
vn 0.000000 0.000000 -1.000000
vn 0.000000 0.000000 -1.000000
vn 0.000000 0.000000 -1.000000
vn 0.000000 0.000000 -1.000000
vn -0.000000 1.000000 -0.000000
vn -0.000000 1.000000 -0.000000
vn -0.000000 1.000000 0.000000
vn -0.000001 0.000000 1.000000
vn -0.000001 0.000000 1.000000
vn -0.000001 0.000000 1.000000
vn -0.000001 0.000000 1.000000
vn -0.000000 1.000000 0.000000
vn -0.000000 1.000000 -0.000000
vn -0.000000 1.000000 0.000000
vn -0.000000 1.000000 -0.000001
vn -0.000000 1.000000 -0.000001
vn -0.000000 1.000000 -0.000001
vn -0.000000 1.000000 -0.000001
vn -0.000000 1.000000 0.000000
vn -0.000000 1.000000 0.000000
vn -0.000000 1.000000 0.000000
vn -0.000000 1.000000 0.000000
vn -1.000000 0.000000 0.000000
vn -1.000000 0.000000 0.000000
vn -1.000000 0.000000 0.000000
vn -1.000000 0.000000 0.000000
vn 1.000000 0.000000 0.000000
vn 1.000000 0.000000 0.000000
vn 1.000000 0.000000 0.000000
vn 1.000000 0.000000 0.000000
vn -0.000000 1.000000 -0.000001
vn -0.000000 1.000000 -0.000000
vn -0.000000 1.000000 -0.000000
vn -0.000000 1.000000 -0.000001
s off
f 3/1/1 2/2/2 6/3/3 7/4/4
f 7/5/5 6/6/6 5/7/7
f 8/8/8 7/9/9 5/10/10
f 1/11/11 9/12/12 10/13/13 4/14/14
f 4/15/15 10/16/16 11/17/17 5/18/18
f 8/19/19 5/20/20 11/21/21
f 13/22/22 12/23/23 8/24/24 14/25/25
f 14/26/26 8/27/27 11/28/28
f 13/29/29 15/30/30 17/31/31 12/32/32
f 16/33/33 2/34/34 3/35/35 18/36/36
f 12/37/37 17/38/38 19/39/39 8/40/40
f 18/41/41 3/42/42 7/43/43 20/44/44
f 20/45/45 7/46/46 8/47/47 19/48/48
