# This file uses meters as units for non-parametric coordinates.

v 5.000000 -2.999999 -18.806046
v 5.000000 0.000000 0.000000
v 0.000000 -2.999999 -18.806046
v 4.000002 -2.999999 -18.806046
v 4.000002 0.000000 0.000000
v 4.000002 0.000001 -4.024194
v 5.000000 0.000001 -4.024194
v 0.000000 -2.999999 -19.999998
v 5.000000 -2.999999 -19.999998
v 4.000002 -2.999999 -19.999998
v 0.000000 -3.000000 -16.665524
v 4.000002 -3.000000 -16.665524
v 4.000002 -0.057219 -4.306131
v 5.000000 -0.054254 -4.294926
v 4.000002 -2.565577 -16.665524
v 5.000000 -2.572312 -16.697643
v 4.000002 0.000000 -1.101282
v 5.000000 0.000000 -1.101282
v 4.000002 -2.999999 -1.101282
v 0.000000 -2.999999 -1.101282
v 4.000002 0.000000 0.000000
v 4.000002 0.000000 -1.101282
v 0.000000 0.000000 -1.101282
v 0.000000 0.000000 0.000000
vt 0.386365 0.064904
vt 0.386365 0.064904
vt 0.386365 0.064904
vt 0.386365 0.064904
vt 0.233733 0.061163
vt 0.394396 0.329035
vt 0.394396 0.329035
vt 0.386365 0.064904
vt 0.233733 0.061163
vt 0.386365 0.064904
vt 0.394119 0.334496
vt 0.394119 0.334496
vt 0.394119 0.334496
vt 0.394119 0.334496
vt 0.394119 0.334496
vt 0.394119 0.334496
vt 0.394119 0.334496
vt 0.394119 0.334496
vt 0.394396 0.329035
vt 0.233733 0.061163
vt 0.394396 0.329035
vt 0.386365 0.064904
vt 0.233733 0.061163
vt 0.386365 0.064904
vt 0.386365 0.064904
vt 0.233733 0.061163
vt 0.386365 0.064904
vt 0.386365 0.064904
vt 0.233733 0.061163
vt 0.386365 0.064904
vt 0.233733 0.061163
vt 0.203416 0.475554
vt 0.394396 0.329035
vt 0.324673 0.475554
vt 0.324673 0.475554
vt 0.324673 0.475554
vt 0.324673 0.475554
vt 0.203416 0.475554
vt 0.203416 0.475554
vt 0.203416 0.475554
vt 0.394396 0.329035
vn 0.000107 0.980030 -0.198849
vn 0.000107 0.980030 -0.198849
vn 0.000107 0.980030 -0.198849
vn 0.000107 0.980030 -0.198849
vn -1.000000 0.000000 0.000000
vn -1.000000 0.000000 0.000000
vn -1.000000 0.000000 0.000000
vn 0.000000 1.000000 0.000000
vn 0.000000 1.000000 0.000000
vn 0.000000 1.000000 0.000000
vn 0.000000 1.000000 0.000000
vn 0.000000 1.000000 0.000000
vn 0.000000 1.000000 0.000000
vn 0.000000 1.000000 0.000000
vn 0.000000 1.000000 0.000000
vn 0.000000 1.000000 0.000000
vn 0.000000 1.000000 0.000000
vn 0.000000 1.000000 0.000000
vn 0.000000 1.000000 0.000000
vn 0.000000 1.000000 0.000000
vn 0.000000 1.000000 0.000000
vn 0.000000 1.000000 0.000000
vn 0.000000 1.000000 0.000000
vn 0.000000 1.000000 0.000000
vn 0.000000 1.000000 0.000000
vn 0.000000 1.000000 0.000000
vn 0.000000 1.000000 0.000000
vn -0.000346 0.980259 -0.197719
vn -0.000346 0.980259 -0.197719
vn -0.000346 0.980259 -0.197719
vn -0.000346 0.980259 -0.197719
vn -1.000000 0.000000 0.000000
vn -1.000000 0.000000 0.000000
vn -1.000000 0.000000 0.000000
vn -0.000233 0.980013 -0.198931
vn -0.000233 0.980013 -0.198931
vn -0.000233 0.980013 -0.198931
vn -0.000233 0.980013 -0.198931
vn 0.000000 1.000000 0.000000
vn 0.000000 1.000000 0.000000
vn 0.000000 1.000000 0.000000
vn 0.000000 1.000000 0.000000
vn -1.000000 0.000000 0.000000
vn -1.000000 0.000000 0.000000
vn -1.000000 0.000000 0.000000
vn -1.000000 0.000000 0.000000
vn -1.000000 0.000000 0.000000
vn -1.000000 0.000000 0.000000
vn -1.000000 0.000000 0.000000
vn 0.000000 1.000000 -0.000000
vn 0.000000 1.000000 -0.000000
vn 0.000000 1.000000 -0.000000
vn 0.000000 1.000000 -0.000000
vn 0.000000 0.000000 -1.000000
vn 0.000000 0.000000 -1.000000
vn 0.000000 0.000000 -1.000000
vn 0.000000 0.000000 -1.000000
s off
f 16/27/1 1/2/2 4/3/3 15/25/4
f 15/26/5 4/5/6 12/20/7
f 12/21/8 4/6/9 3/7/10 11/19/11
f 17/28/12 18/30/13 7/10/14 6/8/15
f 4/11/16 1/12/17 9/13/18 10/14/19
f 3/15/20 4/16/21 10/17/22 8/18/23
f 21/35/24 22/34/25 23/37/26 24/36/27
f 7/10/28 14/24/29 13/22/30 6/8/31
f 13/23/32 15/26/33 12/20/34
f 14/24/35 16/27/36 15/25/37 13/22/38
f 2/1/39 18/30/40 17/28/41 5/4/42
f 19/31/43 17/29/44 6/9/45
f 6/9/46 13/23/47 12/20/48 19/31/49
f 20/33/50 19/41/51 12/21/52 11/19/53
f 19/32/54 20/40/55 23/39/56 22/38/57
