# This file uses meters as units for non-parametric coordinates.

v 0.073895 0.475462 0.000000
v 0.073895 -0.475462 0.000000
v 0.073895 0.475462 -1.892042
v 0.073895 -0.475462 -1.892042
v -0.073895 0.475462 0.000000
v -0.073895 -0.475462 0.000000
v -0.073895 -0.475462 -1.892042
v -0.073895 0.475462 -1.892042
vt 0.640877 0.278319
vt 0.640877 0.073824
vt 0.993276 0.278319
vt 0.993276 0.073824
vt 0.640877 0.278319
vt 0.640877 0.073824
vt 0.993276 0.073824
vt 0.993276 0.278319
vt 0.640877 0.278319
vt 0.640877 0.073824
vt 0.993276 0.073824
vt 0.993276 0.278319
vn -1.000000 0.000000 0.000000
vn -1.000000 0.000000 0.000000
vn -1.000000 0.000000 0.000000
vn -1.000000 0.000000 0.000000
vn 1.000000 0.000000 0.000000
vn 1.000000 0.000000 0.000000
vn 1.000000 0.000000 0.000000
vn 1.000000 0.000000 0.000000
vn 0.000000 0.000000 1.000000
vn 0.000000 0.000000 1.000000
vn 0.000000 0.000000 1.000000
vn 0.000000 0.000000 1.000000
vn 0.000000 -1.000000 0.000000
vn 0.000000 -1.000000 0.000000
vn 0.000000 -1.000000 0.000000
vn 0.000000 -1.000000 0.000000
vn 0.000000 0.000000 -1.000000
vn 0.000000 0.000000 -1.000000
vn 0.000000 0.000000 -1.000000
vn 0.000000 0.000000 -1.000000
vn 0.000000 1.000000 0.000000
vn 0.000000 1.000000 0.000000
vn 0.000000 1.000000 0.000000
vn 0.000000 1.000000 0.000000
s off
f 5/9/1 8/12/2 7/11/3 6/10/4
f 1/5/5 2/6/6 4/7/7 3/8/8
f 1/1/9 5/9/10 6/10/11 2/2/12
f 2/2/13 6/10/14 7/11/15 4/4/16
f 4/4/17 7/11/18 8/12/19 3/3/20
f 3/3/21 8/12/22 5/9/23 1/1/24
