# This file uses meters as units for non-parametric coordinates.

v -0.081169 0.025178 0.077106
v 0.079796 0.025178 0.077106
v -0.081169 0.025178 -0.078239
v 0.079796 0.025178 -0.078239
v -0.221027 0.021338 0.220690
v 0.029068 0.021338 0.220690
v -0.221027 0.021338 -0.014194
v 0.029068 0.021338 -0.014194
v -0.039906 0.021338 0.024376
v 0.221027 0.021338 0.024376
v -0.039906 0.021338 -0.220692
v 0.221027 0.021338 -0.220692
vt 0.296884 0.791972
vt 0.337393 0.791972
vt 0.296884 0.836816
vt 0.337393 0.836816
vt 0.522099 0.033194
vt 0.562608 0.033194
vt 0.562608 0.078038
vt 0.522099 0.078038
vt 0.522099 0.033194
vt 0.562608 0.033194
vt 0.562608 0.078038
vt 0.522099 0.078038
vn 0.000000 1.000000 0.000000
vn 0.000000 1.000000 0.000000
vn 0.000000 1.000000 0.000000
vn 0.000000 1.000000 0.000000
vn 0.000000 1.000000 0.000000
vn 0.000000 1.000000 0.000000
vn 0.000000 1.000000 0.000000
vn 0.000000 1.000000 0.000000
vn 0.000000 1.000000 0.000000
vn 0.000000 1.000000 0.000000
vn 0.000000 1.000000 0.000000
vn 0.000000 1.000000 0.000000
s off
f 1/1/1 2/2/2 4/4/3 3/3/4
f 5/5/5 6/6/6 8/7/7 7/8/8
f 9/9/9 10/10/10 12/11/11 11/12/12
