# This file uses meters as units for non-parametric coordinates.

v -0.336449 0.147826 0.322479
v 0.336472 0.147826 0.322479
v -0.336449 1.366969 0.322479
v 0.336472 1.366969 0.322479
v -0.336449 1.366969 -0.322483
v 0.336468 1.366969 -0.322483
v -0.336449 0.147826 -0.322483
v 0.336468 0.147826 -0.322483
v -0.083946 1.786383 0.080467
v 0.083969 1.786383 0.080467
v 0.083969 1.786383 -0.080467
v -0.083946 1.786383 -0.080467
v -0.083946 3.716989 0.080467
v 0.083969 3.716989 0.080467
v 0.083969 3.716989 -0.080467
v -0.083946 3.716989 -0.080467
v -0.083946 3.234255 -0.080467
v 0.083969 3.234255 -0.080467
v 0.083969 3.234255 0.080467
v -0.083946 3.234255 0.080467
v -0.083946 3.061669 -0.080467
v 0.083969 3.061669 -0.080467
v 0.083969 3.061669 0.080467
v -0.083946 3.061669 0.080467
v 0.536049 3.061669 -0.080467
v 0.536049 3.061669 0.080467
v 0.536049 3.234255 -0.080467
v 0.536049 3.234255 0.080467
v -0.536026 3.061669 0.080467
v -0.536026 3.061669 -0.080466
v -0.536026 3.234255 0.080467
v -0.536026 3.234255 -0.080466
v -0.599117 0.000000 0.542488
v 0.599117 0.000000 0.542488
v -0.599117 0.234847 0.542488
v 0.599117 0.234847 0.542488
v -0.599117 0.234847 -0.542488
v 0.599117 0.234847 -0.542488
v -0.599117 0.000000 -0.542488
v 0.599117 0.000000 -0.542488
v -0.267265 1.206804 -0.306019
v 0.273815 1.206804 -0.306019
v -0.267265 1.206804 -0.401314
v 0.273815 1.206804 -0.401314
v -0.267265 0.850759 -0.401314
v 0.273815 0.850759 -0.401314
v -0.267265 0.850759 -0.306019
v 0.273815 0.850759 -0.306019
v -0.215710 1.122795 -0.401314
v 0.222260 1.122795 -0.401314
v 0.222260 0.934768 -0.401314
v -0.215710 0.934768 -0.401314
v 0.273815 0.921968 -0.306019
v 0.273815 0.921968 -0.401314
v 0.222260 0.960770 -0.401314
v -0.215710 0.960770 -0.401314
v -0.267265 0.921968 -0.401314
v -0.267265 0.921968 -0.306019
v 0.273815 0.993177 -0.306019
v 0.273815 0.993177 -0.401314
v 0.222260 1.013943 -0.401314
v -0.215710 1.013943 -0.401314
v -0.267265 0.993177 -0.401314
v -0.267265 0.993177 -0.306019
v 0.273815 1.064386 -0.306019
v 0.273815 1.064386 -0.401314
v 0.222260 1.043620 -0.401314
v -0.215710 1.043620 -0.401314
v -0.267265 1.064386 -0.401314
v -0.267265 1.064386 -0.306019
v 0.273815 1.135595 -0.306019
v 0.273815 1.135595 -0.401314
v 0.222260 1.096793 -0.401314
v -0.215710 1.096793 -0.401314
v -0.267265 1.135595 -0.401314
v -0.267265 1.135595 -0.306019
vt 0.411418 0.293114
vt 0.415271 0.293114
vt 0.415271 0.298186
vt 0.411418 0.298186
vt 0.559069 0.314751
vt 0.298108 0.146159
vt 0.413241 0.146159
vt 0.307397 0.179708
vt 0.415348 0.293114
vt 0.419200 0.293114
vt 0.419200 0.298186
vt 0.415348 0.298186
vt 0.160424 0.138672
vt 0.163481 0.138672
vt 0.163481 0.153212
vt 0.160424 0.153212
vt 0.163186 0.153326
vt 0.166244 0.153326
vt 0.166244 0.167866
vt 0.163186 0.167866
vt 0.433965 0.307798
vt 0.288984 0.290326
vt 0.447914 0.259302
vt 0.298272 0.323875
vt 0.559069 0.314751
vt 0.288984 0.290326
vt 0.447914 0.259302
vt 0.298272 0.323875
vt 0.413241 0.179708
vt 0.413241 0.146159
vt 0.413241 0.179708
vt 0.307397 0.146159
vt 0.298108 0.179708
vt 0.307397 0.179708
vt 0.298108 0.146159
vt 0.307397 0.146159
vt 0.559069 0.281201
vt 0.298108 0.179708
vt 0.447914 0.292852
vt 0.298272 0.290326
vt 0.447914 0.292852
vt 0.298272 0.290326
vt 0.433965 0.307798
vt 0.433965 0.274249
vt 0.559069 0.281201
vt 0.433965 0.274249
vt 0.559069 0.314751
vt 0.288984 0.323875
vt 0.288984 0.323875
vt 0.568358 0.314751
vt 0.559069 0.281201
vt 0.568358 0.281201
vt 0.447914 0.292852
vt 0.423120 0.319011
vt 0.460412 0.152507
vt 0.447914 0.259302
vt 0.433965 0.274249
vt 0.467337 0.280597
vt 0.451123 0.186057
vt 0.433965 0.307798
vt 0.447914 0.292852
vt 0.298272 0.323875
vt 0.423120 0.285462
vt 0.447914 0.259302
vt 0.433965 0.274249
vt 0.288984 0.290326
vt 0.467337 0.314147
vt 0.433965 0.307798
vt 0.288984 0.290326
vt 0.423120 0.285462
vt 0.460412 0.152507
vt 0.467337 0.280597
vt 0.298272 0.323875
vt 0.467337 0.314147
vt 0.451123 0.186057
vt 0.423120 0.319011
vt 0.423120 0.319011
vt 0.460412 0.186057
vt 0.298272 0.323875
vt 0.423120 0.319011
vt 0.298272 0.290326
vt 0.423120 0.285462
vt 0.423120 0.285462
vt 0.298272 0.290326
vt 0.288984 0.323875
vt 0.467337 0.314147
vt 0.467337 0.314147
vt 0.288984 0.323875
vt 0.467337 0.280597
vt 0.451123 0.152507
vt 0.288984 0.290326
vt 0.467337 0.280597
vt 0.288984 0.323875
vt 0.298272 0.323875
vt 0.460412 0.186057
vt 0.288984 0.323875
vt 0.298272 0.290326
vt 0.288984 0.290326
vt 0.451123 0.152507
vt 0.298272 0.290326
vt 0.433965 0.307798
vt 0.433965 0.307798
vt 0.433965 0.274249
vt 0.433965 0.274249
vt 0.411418 0.293114
vt 0.415271 0.293114
vt 0.415271 0.298186
vt 0.411418 0.298186
vt 0.325482 0.307451
vt 0.325482 0.273902
vt 0.334770 0.273902
vt 0.334770 0.307451
vt 0.415348 0.293114
vt 0.419200 0.293114
vt 0.419200 0.298186
vt 0.415348 0.298186
vt 0.160424 0.138672
vt 0.163481 0.138672
vt 0.163481 0.153212
vt 0.160424 0.153212
vt 0.163186 0.153326
vt 0.166244 0.153326
vt 0.166244 0.167866
vt 0.163186 0.167866
vt 0.581950 0.283093
vt 0.570817 0.283093
vt 0.570817 0.271960
vt 0.581950 0.271960
vt 0.055544 0.182942
vt 0.044411 0.182942
vt 0.044411 0.180716
vt 0.055544 0.180716
vt 0.169263 0.173320
vt 0.158130 0.173320
vt 0.158130 0.162187
vt 0.169263 0.162187
vt 0.190070 0.162059
vt 0.187843 0.162059
vt 0.187843 0.150926
vt 0.190070 0.150926
vt 0.169782 0.162059
vt 0.167556 0.162059
vt 0.167556 0.150926
vt 0.169782 0.150926
vt 0.298059 0.184581
vt 0.286926 0.184581
vt 0.286926 0.184581
vt 0.298059 0.184581
vt 0.286926 0.182354
vt 0.286926 0.182354
vt 0.286926 0.173448
vt 0.298059 0.173448
vt 0.298059 0.173448
vt 0.286926 0.173448
vt 0.298059 0.182354
vt 0.298059 0.182354
vt 0.181163 0.162059
vt 0.178937 0.162059
vt 0.178937 0.150926
vt 0.181163 0.150926
vt 0.286926 0.175675
vt 0.286926 0.175675
vt 0.055544 0.174036
vt 0.044411 0.174036
vt 0.044411 0.171809
vt 0.055544 0.171809
vt 0.298059 0.175675
vt 0.298059 0.175675
vt 0.178689 0.162059
vt 0.176462 0.162059
vt 0.176462 0.150926
vt 0.178689 0.150926
vt 0.183390 0.162059
vt 0.183390 0.150926
vt 0.286926 0.177901
vt 0.286926 0.177901
vt 0.298059 0.177901
vt 0.298059 0.177901
vt 0.174236 0.162059
vt 0.174236 0.150926
vt 0.185617 0.162059
vt 0.185617 0.150926
vt 0.286926 0.180128
vt 0.286926 0.180128
vt 0.055544 0.178489
vt 0.044411 0.178489
vt 0.044411 0.176263
vt 0.055544 0.176263
vt 0.298059 0.180128
vt 0.298059 0.180128
vt 0.172009 0.162059
vt 0.172009 0.150926
vn 0.000000 0.000000 1.000000
vn 0.000000 0.000000 1.000000
vn 0.000000 0.000000 1.000000
vn 0.000000 0.000000 1.000000
vn 0.000000 1.000000 0.000000
vn 0.000000 1.000000 0.000000
vn 0.000000 1.000000 0.000000
vn 0.000000 1.000000 0.000000
vn 0.000000 0.000000 -1.000000
vn 0.000000 0.000000 -1.000000
vn 0.000000 0.000000 -1.000000
vn 0.000000 0.000000 -1.000000
vn 1.000000 0.000000 -0.000006
vn 1.000000 0.000000 -0.000006
vn 1.000000 0.000000 -0.000006
vn 1.000000 0.000000 -0.000006
vn -1.000000 0.000000 0.000000
vn -1.000000 0.000000 0.000000
vn -1.000000 0.000000 0.000000
vn -1.000000 0.000000 0.000000
vn 0.000000 0.499788 0.866148
vn 0.000000 0.499788 0.866148
vn 0.000000 0.499788 0.866148
vn 0.000000 0.499788 0.866148
vn 0.856724 0.515775 -0.000004
vn 0.856724 0.515775 -0.000004
vn 0.856724 0.515775 -0.000004
vn 0.856724 0.515775 -0.000004
vn 0.000000 0.499794 -0.866144
vn 0.000000 0.499794 -0.866144
vn 0.000000 0.499794 -0.866144
vn 0.000000 0.499794 -0.866144
vn -0.856722 0.515778 0.000000
vn -0.856722 0.515778 0.000000
vn -0.856722 0.515778 0.000000
vn -0.856722 0.515778 0.000000
vn 0.000000 0.000000 1.000000
vn 0.000000 0.000000 1.000000
vn 0.000000 0.000000 1.000000
vn 0.000000 0.000000 1.000000
vn 1.000000 0.000000 0.000000
vn 1.000000 0.000000 0.000000
vn 1.000000 0.000000 0.000000
vn 1.000000 0.000000 0.000000
vn 0.000000 0.000000 -1.000000
vn 0.000000 0.000000 -1.000000
vn 0.000000 0.000000 -1.000000
vn 0.000000 0.000000 -1.000000
vn -1.000000 0.000000 0.000000
vn -1.000000 0.000000 0.000000
vn -1.000000 0.000000 0.000000
vn -1.000000 0.000000 0.000000
vn 0.000000 0.000000 -1.000000
vn 0.000000 0.000000 -1.000000
vn 0.000000 0.000000 -1.000000
vn 0.000000 0.000000 -1.000000
vn 1.000000 0.000000 0.000000
vn 1.000000 0.000000 0.000000
vn 1.000000 0.000000 0.000000
vn 1.000000 0.000000 0.000000
vn 0.000000 0.000000 1.000000
vn 0.000000 0.000000 1.000000
vn 0.000000 0.000000 1.000000
vn 0.000000 0.000000 1.000000
vn -1.000000 0.000000 0.000000
vn -1.000000 0.000000 0.000000
vn -1.000000 0.000000 0.000000
vn -1.000000 0.000000 0.000000
vn 0.000000 0.000000 -1.000000
vn 0.000000 0.000000 -1.000000
vn 0.000000 0.000000 -1.000000
vn 0.000000 0.000000 -1.000000
vn 1.000000 0.000000 0.000000
vn 1.000000 0.000000 0.000000
vn 1.000000 0.000000 0.000000
vn 1.000000 0.000000 0.000000
vn 0.000000 0.000000 1.000000
vn 0.000000 0.000000 1.000000
vn 0.000000 0.000000 1.000000
vn 0.000000 0.000000 1.000000
vn -1.000000 0.000000 0.000000
vn -1.000000 0.000000 0.000000
vn -1.000000 0.000000 0.000000
vn -1.000000 0.000000 0.000000
vn 0.000000 -1.000000 0.000000
vn 0.000000 -1.000000 0.000000
vn 0.000000 -1.000000 0.000000
vn 0.000000 -1.000000 0.000000
vn 0.000000 0.000000 -1.000000
vn 0.000000 0.000000 -1.000000
vn 0.000000 0.000000 -1.000000
vn 0.000000 0.000000 -1.000000
vn 0.000000 1.000000 0.000000
vn 0.000000 1.000000 0.000000
vn 0.000000 1.000000 0.000000
vn 0.000000 1.000000 0.000000
vn 0.000000 0.000000 1.000000
vn 0.000000 0.000000 1.000000
vn 0.000000 0.000000 1.000000
vn 0.000000 0.000000 1.000000
vn 0.000000 -1.000000 0.000000
vn 0.000000 -1.000000 0.000000
vn 0.000000 -1.000000 0.000000
vn 0.000000 -1.000000 0.000000
vn 0.000000 0.000000 1.000000
vn 0.000000 0.000000 1.000000
vn 0.000000 0.000000 1.000000
vn 0.000000 0.000000 1.000000
vn 0.000000 1.000000 0.000000
vn 0.000000 1.000000 0.000000
vn 0.000000 1.000000 0.000000
vn 0.000000 1.000000 0.000000
vn -0.000002 0.000000 -1.000000
vn -0.000002 0.000000 -1.000000
vn -0.000002 0.000000 -1.000000
vn -0.000002 0.000000 -1.000000
vn 0.000000 0.000000 1.000000
vn 0.000000 0.000000 1.000000
vn 0.000000 0.000000 1.000000
vn 0.000000 0.000000 1.000000
vn 0.000000 1.000000 0.000000
vn 0.000000 1.000000 0.000000
vn 0.000000 1.000000 0.000000
vn 0.000000 1.000000 0.000000
vn 0.000000 0.000000 -1.000000
vn 0.000000 0.000000 -1.000000
vn 0.000000 0.000000 -1.000000
vn 0.000000 0.000000 -1.000000
vn 1.000000 0.000000 0.000000
vn 1.000000 0.000000 0.000000
vn 1.000000 0.000000 0.000000
vn 1.000000 0.000000 0.000000
vn -1.000000 0.000000 0.000000
vn -1.000000 0.000000 0.000000
vn -1.000000 0.000000 0.000000
vn -1.000000 0.000000 0.000000
vn 0.000000 1.000000 0.000000
vn 0.000000 1.000000 0.000000
vn 0.000000 1.000000 0.000000
vn 0.000000 1.000000 0.000000
vn 0.000000 0.000000 -1.000000
vn 0.000000 0.000000 -1.000000
vn 0.000000 0.000000 -1.000000
vn 0.000000 0.000000 -1.000000
vn 0.000000 -1.000000 0.000000
vn 0.000000 -1.000000 0.000000
vn 0.000000 -1.000000 0.000000
vn 0.000000 -1.000000 0.000000
vn 1.000000 0.000000 0.000000
vn 1.000000 0.000000 0.000000
vn 1.000000 0.000000 0.000000
vn 1.000000 0.000000 0.000000
vn -1.000000 0.000000 0.000000
vn -1.000000 0.000000 0.000000
vn -1.000000 0.000000 0.000000
vn -1.000000 0.000000 0.000000
vn 0.000000 0.000000 -1.000000
vn 0.000000 0.000000 -1.000000
vn 0.000000 0.000000 -1.000000
vn 0.000000 0.000000 -1.000000
vn 0.000000 0.000000 -1.000000
vn 0.000000 0.000000 -1.000000
vn 0.000000 0.000000 -1.000000
vn 0.000000 0.000000 -1.000000
vn 0.000000 0.000000 -1.000000
vn 0.000000 0.000000 -1.000000
vn 0.000000 0.000000 -1.000000
vn 0.000000 0.000000 -1.000000
vn -0.000000 0.000000 -1.000000
vn -0.000000 0.000000 -1.000000
vn -0.000000 0.000000 -1.000000
vn -0.000000 0.000000 -1.000000
vn 1.000000 0.000000 0.000000
vn 1.000000 0.000000 0.000000
vn 1.000000 0.000000 0.000000
vn 1.000000 0.000000 0.000000
vn 0.000001 0.000000 -1.000000
vn 0.000001 0.000000 -1.000000
vn 0.000001 0.000000 -1.000000
vn 0.000001 0.000000 -1.000000
vn 0.000000 0.000000 -1.000000
vn 0.000000 0.000000 -1.000000
vn 0.000000 0.000000 -1.000000
vn 0.000000 0.000000 -1.000000
vn -0.000001 0.000000 -1.000000
vn -0.000001 0.000000 -1.000000
vn -0.000001 0.000000 -1.000000
vn -0.000001 0.000000 -1.000000
vn -1.000000 0.000000 0.000000
vn -1.000000 0.000000 0.000000
vn -1.000000 0.000000 0.000000
vn -1.000000 0.000000 0.000000
vn 1.000000 0.000000 0.000000
vn 1.000000 0.000000 0.000000
vn 1.000000 0.000000 0.000000
vn 1.000000 0.000000 0.000000
vn 0.000000 0.000000 -1.000000
vn 0.000000 0.000000 -1.000000
vn 0.000001 0.000000 -1.000000
vn 0.000001 0.000000 -1.000000
vn 0.000000 0.000000 -1.000000
vn 0.000000 0.000000 -1.000000
vn 0.000000 0.000000 -1.000000
vn 0.000000 0.000000 -1.000000
vn -0.000001 0.000000 -1.000000
vn -0.000000 0.000000 -1.000000
vn -0.000000 0.000000 -1.000000
vn -0.000001 0.000000 -1.000000
vn -1.000000 0.000000 0.000000
vn -1.000000 0.000000 0.000000
vn -1.000000 0.000000 0.000000
vn -1.000000 0.000000 0.000000
vn 1.000000 0.000000 0.000000
vn 1.000000 0.000000 0.000000
vn 1.000000 0.000000 0.000000
vn 1.000000 0.000000 0.000000
vn 0.000000 0.000000 -1.000000
vn 0.000000 0.000000 -1.000000
vn 0.000000 0.000000 -1.000000
vn 0.000000 0.000000 -1.000000
vn 0.000000 0.000000 -1.000000
vn 0.000000 0.000000 -1.000000
vn 0.000000 0.000000 -1.000000
vn 0.000000 0.000000 -1.000000
vn -0.000000 0.000000 -1.000000
vn 0.000000 0.000000 -1.000000
vn 0.000000 0.000000 -1.000000
vn -0.000000 0.000000 -1.000000
vn -1.000000 0.000000 0.000000
vn -1.000000 0.000000 0.000000
vn -1.000000 0.000000 0.000000
vn -1.000000 0.000000 0.000000
vn 1.000000 0.000000 0.000000
vn 1.000000 0.000000 0.000000
vn 1.000000 0.000000 0.000000
vn 1.000000 0.000000 0.000000
vn 0.000000 0.000000 -1.000000
vn 0.000000 0.000000 -1.000000
vn 0.000000 0.000000 -1.000000
vn 0.000000 0.000000 -1.000000
vn 0.000000 0.000000 -1.000000
vn 0.000000 0.000000 -1.000000
vn 0.000000 0.000000 -1.000000
vn 0.000000 0.000000 -1.000000
vn 0.000000 0.000000 -1.000000
vn -0.000000 0.000000 -1.000000
vn -0.000000 0.000000 -1.000000
vn 0.000000 0.000000 -1.000000
vn -1.000000 0.000000 0.000000
vn -1.000000 0.000000 0.000000
vn -1.000000 0.000000 0.000000
vn -1.000000 0.000000 0.000000
s off
f 1/1/1 2/2/2 4/3/3 3/4/4
f 13/25/5 14/51/6 15/52/7 16/50/8
f 5/9/9 6/10/10 8/11/11 7/12/12
f 2/13/13 8/14/14 6/15/15 4/16/16
f 7/17/17 1/18/18 3/19/19 5/20/20
f 3/5/21 4/37/22 10/45/23 9/47/24
f 4/6/25 6/32/26 11/36/27 10/35/28
f 6/7/29 5/31/30 12/29/31 11/30/32
f 5/8/33 3/38/34 9/33/35 12/34/36
f 9/21/37 10/46/38 23/65/39 24/102/40
f 10/22/41 11/42/42 22/84/43 23/66/44
f 11/23/45 12/41/46 21/61/47 22/64/48
f 12/24/49 9/48/50 24/88/51 21/62/52
f 18/56/53 17/53/54 16/39/55 15/27/56
f 19/91/57 18/100/58 15/40/59 14/26/60
f 20/60/61 19/103/62 14/44/63 13/43/64
f 17/79/65 20/96/66 13/49/67 16/28/68
f 22/64/69 21/61/70 17/53/71 18/56/72
f 26/69/73 25/81/74 27/97/75 28/98/76
f 24/68/77 23/104/78 19/57/79 20/101/80
f 30/73/81 29/85/82 31/93/83 32/94/84
f 23/66/85 22/84/86 25/81/87 26/69/88
f 22/63/89 18/83/90 27/82/91 25/70/92
f 18/55/93 19/99/94 28/90/95 27/71/96
f 19/58/97 23/92/98 26/89/99 28/72/100
f 21/62/101 24/88/102 29/85/103 30/73/104
f 24/67/105 20/87/106 31/86/107 29/74/108
f 20/59/109 17/95/110 32/78/111 31/75/112
f 17/54/113 21/80/114 30/77/115 32/76/116
f 33/105/117 34/106/118 36/107/119 35/108/120
f 35/109/121 36/110/122 38/111/123 37/112/124
f 37/113/125 38/114/126 40/115/127 39/116/128
f 34/117/129 40/118/130 38/119/131 36/120/132
f 39/121/133 33/122/134 35/123/135 37/124/136
f 41/125/137 42/126/138 44/127/139 43/128/140
f 49/129/141 50/130/142 73/131/143 74/132/144
f 45/133/145 46/134/146 48/135/147 47/136/148
f 42/137/149 71/138/150 72/139/151 44/140/152
f 76/141/153 41/142/154 43/143/155 75/144/156
f 43/145/157 44/146/158 50/147/159 49/148/160
f 44/146/161 72/149/162 73/150/163 50/147/164
f 46/151/165 45/152/166 52/153/167 51/154/168
f 75/155/169 43/145/170 49/148/171 74/156/172
f 53/157/173 48/158/174 46/159/175 54/160/176
f 55/161/177 54/162/178 46/151/179 51/154/180
f 56/163/181 55/164/182 51/165/183 52/166/184
f 45/152/185 57/167/186 56/168/187 52/153/188
f 47/169/189 58/170/190 57/171/191 45/172/192
f 59/173/193 53/157/194 54/160/195 60/174/196
f 61/175/197 60/176/198 54/162/199 55/161/200
f 62/177/201 61/175/202 55/161/203 56/168/204
f 57/167/205 63/178/206 62/177/207 56/168/208
f 58/170/209 64/179/210 63/180/211 57/171/212
f 65/181/213 59/173/214 60/174/215 66/182/216
f 67/183/217 66/184/218 60/176/219 61/175/220
f 68/185/221 67/186/222 61/187/223 62/188/224
f 63/178/225 69/189/226 68/190/227 62/177/228
f 64/179/229 70/191/230 69/192/231 63/180/232
f 71/138/233 65/181/234 66/182/235 72/139/236
f 73/150/237 72/149/238 66/184/239 67/183/240
f 74/156/241 73/150/242 67/183/243 68/190/244
f 69/189/245 75/155/246 74/156/247 68/190/248
f 70/191/249 76/141/250 75/144/251 69/192/252
