# This file uses meters as units for non-parametric coordinates.

v -0.787048 0.391093 0.787048
v 0.787041 0.391093 0.787048
v -0.787048 0.716700 0.787048
v 0.787041 0.716700 0.787048
v -0.787048 0.716700 -0.787045
v 0.787041 0.716700 -0.787045
v -0.787048 0.391093 -0.787045
v 0.787041 0.391093 -0.787045
v -0.568348 0.716700 0.568350
v 0.568340 0.716700 0.568350
v 0.568340 0.716700 -0.568342
v -0.568348 0.716700 -0.568342
v -0.336430 4.145070 0.336430
v 0.336422 4.145070 0.336430
v 0.336422 4.145070 -0.336422
v -0.336430 4.145070 -0.336422
v -0.076851 4.647968 0.076851
v 0.076847 4.647968 0.076851
v 0.076847 4.647968 -0.076845
v -0.076851 4.647968 -0.076845
v -0.414810 1.591021 -0.465248
v 0.414810 1.591021 -0.465248
v -0.414810 1.591021 -0.611361
v 0.414810 1.591021 -0.611361
v -0.414810 1.045108 -0.611361
v 0.414810 1.045108 -0.611361
v -0.414810 1.045108 -0.465248
v 0.414810 1.045108 -0.465248
v -0.335762 1.462213 -0.611361
v 0.335762 1.462213 -0.611361
v 0.335762 1.173916 -0.611361
v -0.335762 1.173916 -0.611361
v 0.414810 1.154290 -0.465248
v 0.414810 1.154290 -0.611361
v 0.335762 1.213785 -0.611361
v -0.335762 1.213785 -0.611361
v -0.414810 1.154290 -0.611361
v -0.414810 1.154290 -0.465248
v 0.414810 1.263473 -0.465248
v 0.414810 1.263473 -0.611361
v 0.335762 1.295313 -0.611361
v -0.335762 1.295313 -0.611361
v -0.414810 1.263473 -0.611361
v -0.414810 1.263473 -0.465248
v 0.414810 1.372656 -0.465248
v 0.414810 1.372656 -0.611361
v 0.335762 1.340816 -0.611361
v -0.335762 1.340816 -0.611361
v -0.414810 1.372656 -0.611361
v -0.414810 1.372656 -0.465248
v 0.414810 1.481838 -0.465248
v 0.414810 1.481838 -0.611361
v 0.335762 1.422344 -0.611361
v -0.335762 1.422344 -0.611361
v -0.414810 1.481838 -0.611361
v -0.414810 1.481838 -0.465248
v -2.342133 0.000000 2.342133
v 2.342133 0.000000 2.342133
v -2.342133 0.168042 2.342133
v 2.342133 0.168042 2.342133
v -2.342133 0.168042 -2.342131
v 2.342133 0.168042 -2.342131
v -2.342133 0.000000 -2.342131
v 2.342133 0.000000 -2.342131
v -1.817696 0.016056 1.817698
v 1.817696 0.016056 1.817698
v -1.817696 0.341663 1.817698
v 1.817696 0.341663 1.817698
v -1.817696 0.341663 -1.817696
v 1.817696 0.341663 -1.817696
v -1.817696 0.016056 -1.817696
v 1.817696 0.016056 -1.817696
v -1.302402 0.194101 1.302404
v 1.302402 0.194101 1.302404
v -1.302402 0.519708 1.302404
v 1.302402 0.519708 1.302404
v -1.302402 0.519708 -1.302402
v 1.302402 0.519708 -1.302402
v -1.302402 0.194101 -1.302402
v 1.302402 0.194101 -1.302402
vt 0.441033 0.163844
vt 0.441033 0.155408
vt 0.448400 0.155408
vt 0.448400 0.163844
vt 0.550368 0.132983
vt 0.559592 0.132983
vt 0.559592 0.142206
vt 0.550368 0.142206
vt 0.398929 0.163844
vt 0.398929 0.155408
vt 0.406295 0.155408
vt 0.406295 0.163844
vt 0.670042 0.001992
vt 0.764506 0.001992
vt 0.764506 0.096456
vt 0.670042 0.096456
vt 0.418504 0.302004
vt 0.418504 0.270303
vt 0.445890 0.270303
vt 0.445890 0.302004
vt 0.448118 0.302004
vt 0.448118 0.270303
vt 0.475503 0.270303
vt 0.475503 0.302004
vt 0.520956 0.113634
vt 0.615420 0.113634
vt 0.602295 0.126759
vt 0.534081 0.126759
vt 0.615420 0.208098
vt 0.602295 0.194974
vt 0.520956 0.208098
vt 0.534081 0.194974
vt 0.562132 0.269482
vt 0.566363 0.269482
vt 0.565500 0.323363
vt 0.575214 0.158266
vt 0.586694 0.217239
vt 0.582425 0.217239
vt 0.432552 0.255273
vt 0.436225 0.255273
vt 0.435476 0.302049
vt 0.439320 0.179951
vt 0.444308 0.205572
vt 0.442453 0.205572
vt 0.456193 0.193170
vt 0.438384 0.193170
vt 0.442018 0.143859
vt 0.556211 0.220084
vt 0.544732 0.161111
vt 0.549001 0.161111
vt 0.440591 0.255273
vt 0.444264 0.255273
vt 0.443515 0.302049
vt 0.469339 0.179951
vt 0.474326 0.205572
vt 0.472472 0.205572
vt 0.537522 0.220084
vt 0.452560 0.143859
vt 0.477459 0.179951
vt 0.441340 0.302049
vt 0.433301 0.302049
vt 0.447440 0.179951
vt 0.562995 0.323363
vt 0.593904 0.158266
vt 0.581950 0.283093
vt 0.570817 0.283093
vt 0.570817 0.271960
vt 0.581950 0.271960
vt 0.055544 0.182942
vt 0.044411 0.182942
vt 0.044411 0.180716
vt 0.055544 0.180716
vt 0.169263 0.173320
vt 0.158130 0.173320
vt 0.158130 0.162187
vt 0.169263 0.162187
vt 0.190070 0.162059
vt 0.187843 0.162059
vt 0.187843 0.150926
vt 0.190070 0.150926
vt 0.169782 0.162059
vt 0.167556 0.162059
vt 0.167556 0.150926
vt 0.169782 0.150926
vt 0.298059 0.184581
vt 0.286926 0.184581
vt 0.286926 0.184581
vt 0.298059 0.184581
vt 0.286926 0.182354
vt 0.286926 0.182354
vt 0.286926 0.173448
vt 0.298059 0.173448
vt 0.298059 0.173448
vt 0.286926 0.173448
vt 0.298059 0.182354
vt 0.298059 0.182354
vt 0.181163 0.162059
vt 0.178937 0.162059
vt 0.178937 0.150926
vt 0.181163 0.150926
vt 0.286926 0.175675
vt 0.286926 0.175675
vt 0.055544 0.174036
vt 0.044411 0.174036
vt 0.044411 0.171809
vt 0.055544 0.171809
vt 0.298059 0.175675
vt 0.298059 0.175675
vt 0.178689 0.162059
vt 0.176462 0.162059
vt 0.176462 0.150926
vt 0.178689 0.150926
vt 0.183390 0.162059
vt 0.183390 0.150926
vt 0.286926 0.177901
vt 0.286926 0.177901
vt 0.298059 0.177901
vt 0.298059 0.177901
vt 0.174236 0.162059
vt 0.174236 0.150926
vt 0.185617 0.162059
vt 0.185617 0.150926
vt 0.286926 0.180128
vt 0.286926 0.180128
vt 0.055544 0.178489
vt 0.044411 0.178489
vt 0.044411 0.176263
vt 0.055544 0.176263
vt 0.298059 0.180128
vt 0.298059 0.180128
vt 0.172009 0.162059
vt 0.172009 0.150926
vt 0.399676 0.131875
vt 0.419216 0.131875
vt 0.419216 0.151415
vt 0.399676 0.151415
vt 0.540579 0.143014
vt 0.594257 0.143014
vt 0.594257 0.196692
vt 0.540579 0.196692
vt 0.436194 0.151640
vt 0.455734 0.151640
vt 0.455734 0.171179
vt 0.436194 0.171179
vt 0.274850 0.183886
vt 0.294390 0.183886
vt 0.294390 0.203426
vt 0.274850 0.203426
vt 0.294825 0.183886
vt 0.314364 0.183886
vt 0.314364 0.203426
vt 0.294825 0.203426
vt 0.399676 0.131875
vt 0.419216 0.131875
vt 0.419216 0.151415
vt 0.399676 0.151415
vt 0.540579 0.143014
vt 0.594257 0.143014
vt 0.594257 0.196692
vt 0.540579 0.196692
vt 0.436194 0.151640
vt 0.455734 0.151640
vt 0.455734 0.171179
vt 0.436194 0.171179
vt 0.274850 0.183886
vt 0.294390 0.183886
vt 0.294390 0.203426
vt 0.274850 0.203426
vt 0.294825 0.183886
vt 0.314364 0.183886
vt 0.314364 0.203426
vt 0.294825 0.203426
vt 0.399676 0.131875
vt 0.419216 0.131875
vt 0.419216 0.151415
vt 0.399676 0.151415
vt 0.540579 0.143014
vt 0.594257 0.143014
vt 0.594257 0.196692
vt 0.540579 0.196692
vt 0.436194 0.151640
vt 0.455734 0.151640
vt 0.455734 0.171179
vt 0.436194 0.171179
vt 0.274850 0.183886
vt 0.294390 0.183886
vt 0.294390 0.203426
vt 0.274850 0.203426
vt 0.294825 0.183886
vt 0.314364 0.183886
vt 0.314364 0.203426
vt 0.294825 0.203426
vn 0.000000 0.000000 1.000000
vn 0.000000 0.000000 1.000000
vn 0.000000 0.000000 1.000000
vn 0.000000 0.000000 1.000000
vn 0.000000 1.000000 0.000000
vn 0.000000 1.000000 0.000000
vn 0.000000 1.000000 0.000000
vn 0.000000 1.000000 0.000000
vn 0.000000 0.000000 -1.000000
vn 0.000000 0.000000 -1.000000
vn 0.000000 0.000000 -1.000000
vn 0.000000 0.000000 -1.000000
vn 0.000000 -1.000000 0.000000
vn 0.000000 -1.000000 0.000000
vn 0.000000 -1.000000 0.000000
vn 0.000000 -1.000000 0.000000
vn 1.000000 0.000000 0.000000
vn 1.000000 0.000000 0.000000
vn 1.000000 0.000000 0.000000
vn 1.000000 0.000000 0.000000
vn -1.000000 0.000000 0.000000
vn -1.000000 0.000000 0.000000
vn -1.000000 0.000000 0.000000
vn -1.000000 0.000000 0.000000
vn 0.000000 1.000000 -0.000000
vn 0.000000 1.000000 -0.000000
vn 0.000000 1.000000 -0.000000
vn 0.000000 1.000000 -0.000000
vn 0.000000 1.000000 0.000000
vn 0.000000 1.000000 0.000000
vn 0.000000 1.000000 0.000000
vn 0.000000 1.000000 0.000000
vn 0.000000 1.000000 0.000000
vn 0.000000 1.000000 0.000000
vn 0.000000 1.000000 0.000000
vn 0.000000 1.000000 0.000000
vn 0.000000 1.000000 0.000000
vn 0.000000 1.000000 0.000000
vn 0.000000 1.000000 0.000000
vn 0.000000 1.000000 0.000000
vn 0.000000 0.067493 0.997720
vn 0.000000 0.067493 0.997720
vn 0.000000 0.067493 0.997720
vn 0.000000 0.067493 0.997720
vn 0.997720 0.067493 0.000000
vn 0.997720 0.067493 0.000000
vn 0.997720 0.067493 0.000000
vn 0.997720 0.067493 0.000000
vn 0.000000 0.067493 -0.997720
vn 0.000000 0.067493 -0.997720
vn 0.000000 0.067493 -0.997720
vn 0.000000 0.067493 -0.997720
vn -0.997720 0.067493 0.000000
vn -0.997720 0.067493 0.000000
vn -0.997720 0.067493 0.000000
vn -0.997720 0.067493 0.000000
vn 0.000000 0.458669 0.888607
vn 0.000000 0.458669 0.888607
vn 0.000000 0.458669 0.888607
vn 0.000000 0.458669 0.888607
vn 0.888610 0.458664 0.000000
vn 0.888610 0.458664 0.000000
vn 0.888610 0.458663 0.000000
vn 0.888610 0.458664 0.000000
vn 0.000000 0.458667 -0.888608
vn 0.000000 0.458667 -0.888608
vn 0.000000 0.458667 -0.888608
vn 0.000000 0.458667 -0.888608
vn -0.888607 0.458669 0.000000
vn -0.888607 0.458669 0.000000
vn -0.888607 0.458669 0.000000
vn -0.888607 0.458669 0.000000
vn 0.000000 1.000000 0.000000
vn 0.000000 1.000000 0.000000
vn 0.000000 1.000000 0.000000
vn 0.000000 1.000000 0.000000
vn 0.000000 0.000000 -1.000000
vn 0.000000 0.000000 -1.000000
vn 0.000000 0.000000 -1.000000
vn 0.000000 0.000000 -1.000000
vn 0.000000 -1.000000 0.000000
vn 0.000000 -1.000000 0.000000
vn 0.000000 -1.000000 0.000000
vn 0.000000 -1.000000 0.000000
vn 1.000000 0.000000 0.000000
vn 1.000000 0.000000 0.000000
vn 1.000000 0.000000 0.000000
vn 1.000000 0.000000 0.000000
vn -1.000000 0.000000 0.000000
vn -1.000000 0.000000 0.000000
vn -1.000000 0.000000 0.000000
vn -1.000000 0.000000 0.000000
vn 0.000000 0.000000 -1.000000
vn 0.000000 0.000000 -1.000000
vn 0.000000 0.000000 -1.000000
vn 0.000000 0.000000 -1.000000
vn 0.000001 0.000000 -1.000000
vn 0.000001 0.000000 -1.000000
vn 0.000001 0.000000 -1.000000
vn 0.000001 0.000000 -1.000000
vn 0.000000 0.000000 -1.000000
vn 0.000000 0.000000 -1.000000
vn 0.000000 0.000000 -1.000000
vn 0.000000 0.000000 -1.000000
vn -0.000000 0.000000 -1.000000
vn 0.000000 0.000000 -1.000000
vn 0.000000 0.000000 -1.000000
vn -0.000000 0.000000 -1.000000
vn 1.000000 0.000000 0.000000
vn 1.000000 0.000000 0.000000
vn 1.000000 0.000000 0.000000
vn 1.000000 0.000000 0.000000
vn -0.000000 0.000000 -1.000000
vn 0.000001 0.000000 -1.000000
vn 0.000001 0.000000 -1.000000
vn 0.000001 0.000000 -1.000000
vn 0.000000 0.000000 -1.000000
vn 0.000000 0.000000 -1.000000
vn 0.000000 0.000000 -1.000000
vn 0.000000 0.000000 -1.000000
vn -0.000001 0.000000 -1.000000
vn -0.000001 0.000000 -1.000000
vn 0.000000 0.000000 -1.000000
vn -0.000001 0.000000 -1.000000
vn -1.000000 0.000000 0.000000
vn -1.000000 0.000000 0.000000
vn -1.000000 0.000000 0.000000
vn -1.000000 0.000000 0.000000
vn 1.000000 0.000000 0.000000
vn 1.000000 0.000000 0.000000
vn 1.000000 0.000000 0.000000
vn 1.000000 0.000000 0.000000
vn 0.000000 0.000000 -1.000000
vn -0.000000 0.000000 -1.000000
vn 0.000001 0.000000 -1.000000
vn -0.000000 0.000000 -1.000000
vn 0.000000 0.000000 -1.000000
vn 0.000000 0.000000 -1.000000
vn 0.000000 0.000000 -1.000000
vn 0.000000 0.000000 -1.000000
vn -0.000001 0.000000 -1.000000
vn 0.000000 0.000000 -1.000000
vn -0.000000 0.000000 -1.000000
vn 0.000000 0.000000 -1.000000
vn -1.000000 0.000000 0.000000
vn -1.000000 0.000000 0.000000
vn -1.000000 0.000000 0.000000
vn -1.000000 0.000000 0.000000
vn 1.000000 0.000000 0.000000
vn 1.000000 0.000000 0.000000
vn 1.000000 0.000000 0.000000
vn 1.000000 0.000000 0.000000
vn 0.000001 0.000000 -1.000000
vn 0.000001 0.000000 -1.000000
vn -0.000000 0.000000 -1.000000
vn 0.000000 0.000000 -1.000000
vn 0.000000 0.000000 -1.000000
vn 0.000000 0.000000 -1.000000
vn 0.000000 0.000000 -1.000000
vn 0.000000 0.000000 -1.000000
vn 0.000000 0.000000 -1.000000
vn -0.000000 0.000000 -1.000000
vn -0.000001 0.000000 -1.000000
vn -0.000000 0.000000 -1.000000
vn -1.000000 0.000000 0.000000
vn -1.000000 0.000000 0.000000
vn -1.000000 0.000000 0.000000
vn -1.000000 0.000000 0.000000
vn 1.000000 0.000000 0.000000
vn 1.000000 0.000000 0.000000
vn 1.000000 0.000000 0.000000
vn 1.000000 0.000000 0.000000
vn 0.000001 0.000000 -1.000000
vn 0.000001 0.000000 -1.000000
vn 0.000001 0.000000 -1.000000
vn 0.000001 0.000000 -1.000000
vn 0.000000 0.000000 -1.000000
vn 0.000000 0.000000 -1.000000
vn 0.000000 0.000000 -1.000000
vn 0.000000 0.000000 -1.000000
vn -0.000000 0.000000 -1.000000
vn -0.000000 0.000000 -1.000000
vn -0.000000 0.000000 -1.000000
vn -0.000001 0.000000 -1.000000
vn -1.000000 0.000000 0.000000
vn -1.000000 0.000000 0.000000
vn -1.000000 0.000000 0.000000
vn -1.000000 0.000000 0.000000
vn 0.000000 0.000000 1.000000
vn 0.000000 0.000000 1.000000
vn 0.000000 0.000000 1.000000
vn 0.000000 0.000000 1.000000
vn 0.000000 1.000000 0.000000
vn 0.000000 1.000000 0.000000
vn 0.000000 1.000000 0.000000
vn 0.000000 1.000000 0.000000
vn 0.000000 0.000000 -1.000000
vn 0.000000 0.000000 -1.000000
vn 0.000000 0.000000 -1.000000
vn 0.000000 0.000000 -1.000000
vn 1.000000 0.000000 0.000000
vn 1.000000 0.000000 0.000000
vn 1.000000 0.000000 0.000000
vn 1.000000 0.000000 0.000000
vn -1.000000 0.000000 0.000000
vn -1.000000 0.000000 0.000000
vn -1.000000 0.000000 0.000000
vn -1.000000 0.000000 0.000000
vn 0.000000 0.000000 1.000000
vn 0.000000 0.000000 1.000000
vn 0.000000 0.000000 1.000000
vn 0.000000 0.000000 1.000000
vn 0.000000 1.000000 0.000000
vn 0.000000 1.000000 0.000000
vn 0.000000 1.000000 0.000000
vn 0.000000 1.000000 0.000000
vn 0.000000 0.000000 -1.000000
vn 0.000000 0.000000 -1.000000
vn 0.000000 0.000000 -1.000000
vn 0.000000 0.000000 -1.000000
vn 1.000000 0.000000 0.000000
vn 1.000000 0.000000 0.000000
vn 1.000000 0.000000 0.000000
vn 1.000000 0.000000 0.000000
vn -1.000000 0.000000 0.000000
vn -1.000000 0.000000 0.000000
vn -1.000000 0.000000 0.000000
vn -1.000000 0.000000 0.000000
vn 0.000000 0.000000 1.000000
vn 0.000000 0.000000 1.000000
vn 0.000000 0.000000 1.000000
vn 0.000000 0.000000 1.000000
vn 0.000000 1.000000 0.000000
vn 0.000000 1.000000 0.000000
vn 0.000000 1.000000 0.000000
vn 0.000000 1.000000 0.000000
vn 0.000000 0.000000 -1.000000
vn 0.000000 0.000000 -1.000000
vn 0.000000 0.000000 -1.000000
vn 0.000000 0.000000 -1.000000
vn 1.000000 0.000000 0.000000
vn 1.000000 0.000000 0.000000
vn 1.000000 0.000000 0.000000
vn 1.000000 0.000000 0.000000
vn -1.000000 0.000000 0.000000
vn -1.000000 0.000000 0.000000
vn -1.000000 0.000000 0.000000
vn -1.000000 0.000000 0.000000
s off
f 1/1/1 2/2/2 4/3/3 3/4/4
f 17/5/5 18/6/6 19/7/7 20/8/8
f 5/9/9 6/10/10 8/11/11 7/12/12
f 7/13/13 8/14/14 2/15/15 1/16/16
f 2/17/17 8/18/18 6/19/19 4/20/20
f 7/21/21 1/22/22 3/23/23 5/24/24
f 3/25/25 4/26/26 10/27/27 9/28/28
f 4/26/29 6/29/30 11/30/31 10/27/32
f 6/29/33 5/31/34 12/32/35 11/30/36
f 5/31/37 3/25/38 9/28/39 12/32/40
f 9/33/41 10/34/42 14/35/43 13/63/44
f 10/39/45 11/40/46 15/41/47 14/61/48
f 11/45/49 12/46/50 16/47/51 15/58/52
f 12/51/53 9/52/54 13/53/55 16/60/56
f 13/36/57 14/64/58 18/37/59 17/38/60
f 14/42/61 15/62/62 19/43/63 18/44/64
f 15/48/65 16/57/66 20/49/67 19/50/68
f 16/54/69 13/59/70 17/55/71 20/56/72
f 21/65/73 22/66/74 24/67/75 23/68/76
f 29/69/77 30/70/78 53/71/79 54/72/80
f 25/73/81 26/74/82 28/75/83 27/76/84
f 22/77/85 51/78/86 52/79/87 24/80/88
f 56/81/89 21/82/90 23/83/91 55/84/92
f 23/85/93 24/86/94 30/87/95 29/88/96
f 24/86/97 52/89/98 53/90/99 30/87/100
f 26/91/101 25/92/102 32/93/103 31/94/104
f 55/95/105 23/85/106 29/88/107 54/96/108
f 33/97/109 28/98/110 26/99/111 34/100/112
f 35/101/113 34/102/114 26/91/115 31/94/116
f 36/103/117 35/104/118 31/105/119 32/106/120
f 25/92/121 37/107/122 36/108/123 32/93/124
f 27/109/125 38/110/126 37/111/127 25/112/128
f 39/113/129 33/97/130 34/100/131 40/114/132
f 41/115/133 40/116/134 34/102/135 35/101/136
f 42/117/137 41/115/138 35/101/139 36/108/140
f 37/107/141 43/118/142 42/117/143 36/108/144
f 38/110/145 44/119/146 43/120/147 37/111/148
f 45/121/149 39/113/150 40/114/151 46/122/152
f 47/123/153 46/124/154 40/116/155 41/115/156
f 48/125/157 47/126/158 41/127/159 42/128/160
f 43/118/161 49/129/162 48/130/163 42/117/164
f 44/119/165 50/131/166 49/132/167 43/120/168
f 51/78/169 45/121/170 46/122/171 52/79/172
f 53/90/173 52/89/174 46/124/175 47/123/176
f 54/96/177 53/90/178 47/123/179 48/130/180
f 49/129/181 55/95/182 54/96/183 48/130/184
f 50/131/185 56/81/186 55/84/187 49/132/188
f 57/133/189 58/134/190 60/135/191 59/136/192
f 59/137/193 60/138/194 62/139/195 61/140/196
f 61/141/197 62/142/198 64/143/199 63/144/200
f 58/145/201 64/146/202 62/147/203 60/148/204
f 63/149/205 57/150/206 59/151/207 61/152/208
f 65/153/209 66/154/210 68/155/211 67/156/212
f 67/157/213 68/158/214 70/159/215 69/160/216
f 69/161/217 70/162/218 72/163/219 71/164/220
f 66/165/221 72/166/222 70/167/223 68/168/224
f 71/169/225 65/170/226 67/171/227 69/172/228
f 73/173/229 74/174/230 76/175/231 75/176/232
f 75/177/233 76/178/234 78/179/235 77/180/236
f 77/181/237 78/182/238 80/183/239 79/184/240
f 74/185/241 80/186/242 78/187/243 76/188/244
f 79/189/245 73/190/246 75/191/247 77/192/248
