# This file uses meters as units for non-parametric coordinates.

v 1.396568 0.096103 5.000002
v 1.396568 -0.098693 5.000002
v 1.392456 0.096103 1.397995
v 1.392456 -0.098693 1.397995
v -0.001427 0.096103 5.000002
v -0.001427 0.096103 1.397995
v -1.399422 0.096103 5.000002
v -1.399422 -0.098693 5.000002
v -1.396790 0.096103 1.397995
v -1.396790 -0.098693 1.397995
v 1.104595 0.096103 1.397995
v 1.106422 0.096103 5.000002
v -1.103649 0.096103 1.397995
v -1.104763 0.096103 5.000002
v -1.399418 0.096103 -5.000000
v -1.399418 -0.098693 -5.000000
v -1.396790 0.096103 -1.397995
v -1.396790 -0.098693 -1.397995
v -0.001423 0.096103 -5.000000
v -0.001423 0.096103 -1.397991
v 1.396572 0.096103 -5.000000
v 1.396572 -0.098693 -5.000000
v 1.392456 0.096103 -1.397995
v 1.392456 -0.098693 -1.397995
v 1.106659 0.096103 -1.397995
v 1.110554 0.096103 -5.000000
v -1.109375 0.096103 -1.397995
v -1.116215 0.096103 -5.000000
v -2.797409 -0.098693 1.397995
v -2.797409 0.096103 1.397995
v 2.794563 0.096103 1.397995
v 2.794563 -0.098693 1.397995
v -2.797409 0.096103 0.000000
v 2.794563 0.096103 0.000000
v -2.797409 -0.098693 -1.397995
v -2.797409 0.096103 -1.397995
v 2.794563 0.096103 -1.397995
v 2.794563 -0.098693 -1.397995
v -5.000000 0.096103 1.397995
v -5.000000 -0.098693 1.397995
v -5.000000 0.096103 0.000000
v -5.000000 0.096103 -1.397995
v -5.000000 -0.098693 -1.397995
v 5.000000 0.096103 -1.397995
v 5.000000 -0.098693 -1.397995
v 5.000000 0.096103 0.000000
v 5.000000 0.096103 1.397995
v 5.000000 -0.098693 1.397995
v -1.394157 0.096103 0.000000
v 1.388344 0.096103 0.000000
v 1.102768 0.096103 0.000000
v -1.102535 0.096103 0.000000
v -0.001072 0.096103 -0.000008
v 1.049744 0.096103 4.999998
v 1.048008 0.096103 1.397995
v 1.046291 0.096103 0.000000
v 1.049965 0.096103 -1.397995
v 1.053661 0.096103 -5.000000
v -1.070881 0.096103 -5.000000
v -1.064320 0.096103 -1.397995
v -1.057743 0.096103 0.000000
v -1.058826 0.096103 1.397995
v -1.059895 0.096103 5.000002
v 5.000000 0.096103 -1.049599
v 2.794563 0.096103 -1.049599
v 1.391430 0.096103 -1.049599
v 1.105690 0.096103 -1.049599
v 1.049049 0.096103 -1.049599
v -0.001335 0.096103 -1.049599
v -1.062679 0.096103 -1.049599
v -1.107670 0.096103 -1.049599
v -1.396133 0.096103 -1.049599
v -2.797409 0.096103 -1.049599
v -5.000000 0.096103 -1.049599
v 5.000000 0.096103 1.063305
v 2.794563 0.096103 1.063305
v 1.391472 0.096103 1.063305
v 1.104156 0.096103 1.063305
v 1.047600 0.096103 1.063305
v -0.001343 0.096103 1.063301
v -1.058567 0.096103 1.063305
v -1.103382 0.096103 1.063305
v -1.396156 0.096103 1.063305
v -2.797409 0.096103 1.063305
v -5.000000 0.096103 1.063305
vt 0.341073 0.511548
vt 0.317897 0.511548
vt 0.317897 0.237547
vt 0.341073 0.238381
vt 0.166986 0.511548
vt 0.166986 0.105264
vt 0.341073 0.511548
vt 0.317897 0.511548
vt 0.341073 0.238381
vt 0.317897 0.237547
vt 0.166986 0.511548
vt 0.166986 0.105264
vt 0.286577 0.237546
vt 0.286577 0.511548
vt 0.286089 0.237546
vt 0.286089 0.511548
vt 0.341073 0.511548
vt 0.317897 0.511548
vt 0.341073 0.238381
vt 0.317897 0.237547
vt 0.287326 0.511548
vt 0.287326 0.237546
vt 0.341073 0.511548
vt 0.317897 0.511548
vt 0.341073 0.238381
vt 0.317897 0.237547
vt 0.166986 0.511548
vt 0.287022 0.511548
vt 0.166986 0.105264
vt 0.287022 0.237546
vt 0.166986 0.105264
vt 0.166986 0.511548
vt 0.341073 0.749060
vt 0.317897 0.749060
vt 0.317897 1.000000
vt 0.341073 1.000000
vt 0.166986 0.749060
vt 0.166986 1.000000
vt 0.341073 0.749060
vt 0.341073 1.000000
vt 0.317897 1.000000
vt 0.317897 0.749060
vt 0.166986 0.749060
vt 0.166986 1.000000
vt 0.341073 0.511548
vt 0.317897 0.511548
vt 0.341073 0.238381
vt 0.317897 0.237547
vt 0.166986 0.511548
vt 0.166986 0.237542
vt 0.341073 0.511548
vt 0.317897 0.511548
vt 0.341073 0.238381
vt 0.317897 0.237547
vt 0.166986 0.511548
vt 0.166986 0.237542
vt 0.341073 0.511548
vt 0.317897 0.511548
vt 0.341073 0.238381
vt 0.317897 0.237547
vt 0.166986 0.511548
vt 0.166986 0.237542
vt 0.341073 0.511548
vt 0.317897 0.511548
vt 0.341073 0.238381
vt 0.317897 0.237547
vt 0.166986 0.511548
vt 0.166986 0.237542
vt 0.317897 0.696910
vt 0.166986 0.696910
vt 0.166986 0.696910
vt 0.317897 0.696910
vt 0.341073 0.238381
vt 0.317897 0.237547
vt 0.317897 0.369545
vt 0.341073 0.369960
vt 0.166986 0.237542
vt 0.166986 0.369543
vt 0.166986 0.237542
vt 0.317897 0.237547
vt 0.317897 0.369545
vt 0.166986 0.369543
vt 0.341073 0.238381
vt 0.341073 0.369960
vt 0.317897 0.396352
vt 0.166986 0.396350
vt 0.317897 0.396352
vt 0.166986 0.396350
vt 0.239145 0.980245
vt 0.077713 0.502126
vt 0.239087 0.753033
vt 0.072423 0.501209
vt 0.077713 0.501945
vt 0.046333 0.502319
vt 0.072423 0.501245
vt 0.239144 0.525824
vt 0.046333 0.501410
vt 0.280458 0.511548
vt 0.077713 0.496841
vt 0.280458 0.105267
vt 0.068863 0.753034
vt 0.280881 0.105267
vt 0.068266 0.525823
vt 0.280881 0.511548
vt 0.282432 0.511548
vt 0.046333 0.497238
vt 0.282432 0.105267
vt 0.066825 0.753034
vt 0.281246 0.105267
vt 0.067001 0.980245
vt 0.281246 0.511548
vt 0.280288 0.511548
vt 0.280288 0.237545
vt 0.280288 0.237545
vt 0.280288 0.369545
vt 0.078871 0.502229
vt 0.280288 0.396351
vt 0.068415 0.582446
vt 0.239130 0.582447
vt 0.078871 0.497391
vt 0.280288 0.696910
vt 0.078871 0.501569
vt 0.280288 0.749060
vt 0.280288 1.000000
vt 0.280288 0.237545
vt 0.280288 0.511548
vt 0.281768 0.511548
vt 0.281768 0.237545
vt 0.281768 0.237545
vt 0.281768 0.369545
vt 0.110473 0.501259
vt 0.281768 0.396351
vt 0.068651 0.925849
vt 0.239131 0.925848
vt 0.110473 0.499608
vt 0.281768 0.696910
vt 0.110473 0.501215
vt 0.281768 0.749060
vt 0.281768 0.237545
vt 0.281768 1.000000
vt 0.281768 0.511548
vt 0.046454 0.497776
vt 0.046454 0.501969
vt 0.077713 0.497751
vt 0.046454 0.502086
vt 0.046454 0.496803
vt 0.067627 0.582447
vt 0.034864 0.501061
vt 0.034864 0.501314
vt 0.078871 0.496939
vt 0.046333 0.497024
vt 0.067894 0.525823
vt 0.068584 0.980245
vt 0.066959 0.925849
vt 0.072423 0.501245
vt 0.110473 0.499235
vt 0.072423 0.499188
vt 0.072423 0.499188
vt 0.072423 0.501209
vt 0.034864 0.499460
vt 0.072423 0.499637
vt 0.072423 0.499637
vt 0.034864 0.499287
vn 0.999999 0.000000 -0.001184
vn 0.999999 0.000000 -0.001184
vn 0.999999 0.000000 -0.001184
vn 0.999999 0.000000 -0.001184
vn 0.000000 1.000000 -0.000000
vn 0.000000 1.000000 -0.000000
vn 0.000000 1.000000 -0.000000
vn 0.000000 1.000000 -0.000000
vn -1.000000 0.000000 -0.000758
vn -1.000000 0.000000 -0.000758
vn -1.000000 0.000000 -0.000758
vn -1.000000 0.000000 -0.000758
vn 0.000000 1.000000 0.000000
vn 0.000000 1.000000 0.000000
vn 0.000000 1.000000 0.000000
vn 0.000000 1.000000 0.000000
vn 0.000000 1.000000 -0.000000
vn 0.000000 1.000000 -0.000000
vn 0.000000 1.000000 -0.000000
vn 0.000000 1.000000 -0.000000
vn 0.000000 1.000000 0.000000
vn 0.000000 1.000000 0.000000
vn 0.000000 1.000000 0.000000
vn 0.000000 1.000000 0.000000
vn -1.000000 0.000000 0.000757
vn -1.000000 0.000000 0.000757
vn -1.000000 0.000000 0.000757
vn -1.000000 0.000000 0.000757
vn 0.000000 1.000000 0.000000
vn 0.000000 1.000000 0.000000
vn 0.000000 1.000000 0.000000
vn 0.000000 1.000000 0.000000
vn 0.999999 0.000000 0.001185
vn 0.999999 0.000000 0.001185
vn 0.999999 0.000000 0.001185
vn 0.999999 0.000000 0.001185
vn 0.000000 1.000000 0.000000
vn 0.000000 1.000000 0.000000
vn 0.000000 1.000000 0.000000
vn 0.000000 1.000000 0.000000
vn 0.000000 1.000000 0.000000
vn 0.000000 1.000000 0.000000
vn 0.000000 1.000000 0.000000
vn 0.000000 1.000000 0.000000
vn 0.000000 1.000000 0.000000
vn 0.000000 1.000000 0.000000
vn 0.000000 1.000000 0.000000
vn 0.000000 1.000000 0.000000
vn 0.000000 0.000000 1.000000
vn 0.000000 0.000000 1.000000
vn 0.000000 0.000000 1.000000
vn 0.000000 0.000000 1.000000
vn 0.000000 1.000000 0.000000
vn 0.000000 1.000000 0.000000
vn 0.000000 1.000000 0.000000
vn 0.000000 1.000000 0.000000
vn 0.000000 0.000000 -1.000000
vn 0.000000 0.000000 -1.000000
vn 0.000000 0.000000 -1.000000
vn 0.000000 0.000000 -1.000000
vn 0.000000 1.000000 -0.000000
vn 0.000000 1.000000 -0.000000
vn 0.000000 1.000000 0.000000
vn 0.000000 1.000000 0.000000
vn 0.000000 0.000000 1.000000
vn 0.000000 0.000000 1.000000
vn 0.000000 0.000000 1.000000
vn 0.000000 0.000000 1.000000
vn -0.000000 1.000000 0.000000
vn -0.000000 1.000000 0.000000
vn -0.000000 1.000000 0.000000
vn -0.000000 1.000000 0.000000
vn 0.000000 0.000000 -1.000000
vn 0.000000 0.000000 -1.000000
vn 0.000000 0.000000 -1.000000
vn 0.000000 0.000000 -1.000000
vn 0.000000 1.000000 0.000000
vn 0.000000 1.000000 0.000000
vn 0.000000 1.000000 0.000000
vn 0.000000 1.000000 0.000000
vn 0.000000 0.000000 -1.000000
vn 0.000000 0.000000 -1.000000
vn 0.000000 0.000000 -1.000000
vn 0.000000 0.000000 -1.000000
vn 0.000000 1.000000 0.000000
vn 0.000000 1.000000 0.000000
vn 0.000000 1.000000 0.000000
vn 0.000000 1.000000 0.000000
vn 0.000000 0.000000 1.000000
vn 0.000000 0.000000 1.000000
vn 0.000000 0.000000 1.000000
vn 0.000000 0.000000 1.000000
vn 0.000000 1.000000 0.000000
vn 0.000000 1.000000 0.000000
vn 0.000000 1.000000 0.000000
vn 0.000000 1.000000 0.000000
vn 0.000000 1.000000 0.000000
vn 0.000000 1.000000 0.000000
vn 0.000000 1.000000 0.000000
vn 0.000000 1.000000 0.000000
vn 0.000000 1.000000 -0.000000
vn 0.000000 1.000000 -0.000000
vn 0.000000 1.000000 -0.000000
vn 0.000000 1.000000 -0.000000
vn -0.000000 0.000000 1.000000
vn -0.000000 0.000000 1.000000
vn -0.000000 0.000000 1.000000
vn -0.000000 0.000000 1.000000
vn -0.000000 1.000000 0.000000
vn -0.000000 1.000000 0.000000
vn -0.000000 1.000000 0.000000
vn -0.000000 1.000000 0.000000
vn -0.000000 1.000000 -0.000000
vn -0.000000 1.000000 -0.000000
vn -0.000000 1.000000 -0.000000
vn -0.000000 1.000000 -0.000000
vn -0.000000 0.000000 -1.000000
vn -0.000000 0.000000 -1.000000
vn -0.000000 0.000000 -1.000000
vn -0.000000 0.000000 -1.000000
vn -0.000000 1.000000 0.000000
vn 0.000000 1.000000 0.000000
vn 0.000000 1.000000 0.000000
vn -0.000000 1.000000 0.000000
vn -0.000000 1.000000 -0.000000
vn -0.000000 1.000000 -0.000000
vn 0.000000 1.000000 -0.000000
vn 0.000000 1.000000 0.000000
vn 0.000000 1.000000 0.000000
vn 0.000000 1.000000 0.000000
vn 0.000000 1.000000 0.000000
vn 0.000000 1.000000 0.000000
vn 0.000000 1.000000 0.000000
vn 0.000000 1.000000 0.000000
vn 0.000000 1.000000 0.000000
vn 0.000000 1.000000 0.000000
vn 0.000000 1.000000 -0.000000
vn 0.000000 1.000000 -0.000000
vn 0.000000 1.000000 0.000000
vn 0.000000 1.000000 0.000000
vn -0.000000 1.000000 -0.000000
vn 0.000000 1.000000 -0.000000
vn 0.000000 1.000000 0.000000
vn -0.000000 1.000000 0.000000
vn 0.000000 1.000000 -0.000000
vn 0.000000 1.000000 -0.000000
vn 0.000000 1.000000 -0.000000
vn 0.000000 1.000000 -0.000000
vn 0.000000 1.000000 0.000000
vn 0.000000 1.000000 0.000000
vn 0.000000 1.000000 0.000000
vn 0.000000 1.000000 -0.000000
vn 0.000000 1.000000 0.000000
vn 0.000000 1.000000 -0.000000
vn 0.000000 1.000000 0.000000
vn 0.000000 1.000000 0.000000
vn 0.000000 1.000000 0.000000
vn 0.000000 1.000000 0.000000
vn 0.000000 1.000000 0.000000
vn 0.000000 1.000000 0.000000
vn 0.000000 1.000000 0.000000
vn 0.000000 1.000000 0.000000
vn 0.000000 1.000000 0.000000
vn 0.000000 1.000000 0.000000
vn 0.000000 1.000000 0.000000
vn 0.000000 1.000000 0.000000
vn 0.000000 1.000000 -0.000000
vn 0.000000 1.000000 0.000000
vn 0.000000 1.000000 0.000000
vn 0.000000 1.000000 -0.000000
vn 0.000000 1.000000 -0.000000
vn 0.000000 1.000000 0.000000
vn 0.000000 1.000000 0.000000
vn 0.000000 1.000000 0.000000
vn 0.000000 1.000000 0.000000
vn 0.000000 1.000000 0.000000
vn 0.000000 1.000000 0.000000
vn 0.000000 1.000000 0.000000
vn 0.000000 1.000000 0.000000
vn 0.000000 1.000000 0.000000
vn -0.000000 1.000000 -0.000000
vn -0.000000 1.000000 -0.000000
vn -0.000000 1.000000 0.000000
vn -0.000000 1.000000 -0.000000
vn 0.000000 1.000000 -0.000000
vn -0.000000 1.000000 -0.000000
vn -0.000000 1.000000 -0.000000
vn 0.000000 1.000000 -0.000000
vn 0.000000 1.000000 0.000000
vn 0.000000 1.000000 0.000000
vn 0.000000 1.000000 0.000000
vn 0.000000 1.000000 0.000000
vn 0.000000 1.000000 0.000000
vn 0.000000 1.000000 0.000000
vn 0.000000 1.000000 0.000000
vn 0.000000 1.000000 0.000000
vn 0.000000 1.000000 0.000000
vn 0.000000 1.000000 0.000000
vn 0.000000 1.000000 0.000000
vn 0.000000 1.000000 0.000000
vn 0.000000 1.000000 -0.000000
vn 0.000000 1.000000 0.000000
vn 0.000000 1.000000 0.000000
vn 0.000000 1.000000 -0.000000
vn 0.000000 1.000000 -0.000000
vn 0.000000 1.000000 -0.000000
vn 0.000000 1.000000 0.000000
vn 0.000000 1.000000 0.000000
vn 0.000000 1.000000 0.000000
vn 0.000000 1.000000 -0.000000
vn 0.000000 1.000000 0.000000
vn 0.000000 1.000000 0.000000
vn 0.000000 1.000000 0.000000
vn 0.000000 1.000000 0.000000
vn 0.000000 1.000000 0.000000
vn 0.000000 1.000000 0.000000
vn 0.000000 1.000000 0.000000
vn 0.000000 1.000000 0.000000
vn 0.000000 1.000000 0.000000
vn 0.000000 1.000000 0.000000
vn -0.000000 1.000000 0.000000
vn -0.000000 1.000000 -0.000000
vn -0.000000 1.000000 0.000000
vn -0.000000 1.000000 0.000000
vn -0.000000 1.000000 -0.000000
vn 0.000000 1.000000 -0.000000
vn 0.000000 1.000000 0.000000
vn -0.000000 1.000000 0.000000
vn 0.000000 1.000000 -0.000000
vn 0.000000 1.000000 0.000000
vn 0.000000 1.000000 -0.000000
vn 0.000000 1.000000 -0.000000
vn 0.000000 1.000000 -0.000000
vn 0.000000 1.000000 0.000000
vn 0.000000 1.000000 0.000000
vn 0.000000 1.000000 -0.000000
vn -0.000000 1.000000 -0.000000
vn -0.000000 1.000000 -0.000000
vn 0.000000 1.000000 -0.000000
vn -0.000000 1.000000 -0.000000
vn 0.000000 1.000000 -0.000000
vn 0.000000 1.000000 -0.000000
vn -0.000000 1.000000 -0.000000
vn 0.000000 1.000000 -0.000000
vn 0.000000 1.000000 -0.000000
vn 0.000000 1.000000 -0.000000
vn 0.000000 1.000000 0.000000
vn 0.000000 1.000000 0.000000
vn 0.000000 1.000000 -0.000000
vn 0.000000 1.000000 -0.000000
vn 0.000000 1.000000 0.000000
vn 0.000000 1.000000 0.000000
vn -0.000000 1.000000 -0.000000
vn -0.000000 1.000000 -0.000000
vn -0.000000 1.000000 0.000000
vn -0.000000 1.000000 0.000000
s off
f 4/4/1 3/3/2 1/2/3 2/1/4
f 11/13/5 12/14/6 1/2/7 3/3/8
f 10/9/9 8/7/10 7/8/11 9/10/12
f 6/12/13 62/109/14 63/111/15 5/11/16
f 6/6/17 5/5/18 54/98/19 55/100/20
f 13/15/21 9/10/22 7/8/23 14/16/24
f 18/19/25 17/20/26 15/18/27 16/17/28
f 27/22/29 28/21/30 15/18/31 17/20/32
f 24/25/33 22/23/34 21/24/35 23/26/36
f 20/29/37 57/102/38 58/104/39 19/27/40
f 25/30/41 23/26/42 21/24/43 26/28/44
f 20/31/45 19/32/46 59/105/47 60/107/48
f 10/33/49 9/34/50 30/35/51 29/36/52
f 83/138/53 84/140/54 30/35/55 9/34/56
f 18/39/57 35/40/58 36/41/59 17/42/60
f 49/43/61 72/123/62 73/124/63 33/44/64
f 29/47/65 30/48/66 39/46/67 40/45/68
f 84/139/69 85/141/70 39/46/71 30/48/72
f 35/53/73 43/51/74 42/52/75 36/54/76
f 33/56/77 73/125/78 74/126/79 41/55/80
f 38/59/81 37/60/82 44/58/83 45/57/84
f 34/62/85 46/61/86 64/112/87 65/114/88
f 32/65/89 48/63/90 47/64/91 31/66/92
f 76/128/93 31/66/94 47/64/95 75/127/96
f 82/136/97 83/138/98 9/34/99 13/69/100
f 52/71/101 71/121/102 72/123/103 49/43/104
f 32/73/105 31/74/106 3/75/107 4/76/108
f 76/129/109 77/130/110 3/75/111 31/74/112
f 34/79/113 65/113/114 66/115/115 50/82/116
f 38/83/117 24/84/118 23/81/119 37/80/120
f 77/130/121 78/132/122 11/85/123 3/75/124
f 50/82/125 66/115/126 67/117/127 51/88/128
f 80/134/129 6/89/130 55/153/131 79/133/132
f 53/91/133 69/119/134 70/147/135 61/108/136
f 53/91/137 56/101/138 68/118/139 69/119/140
f 80/134/141 81/154/142 62/110/143 6/89/144
f 55/100/145 54/98/146 12/14/147 11/13/148
f 79/146/149 55/99/150 11/90/151 78/145/152
f 68/163/153 56/157/154 51/159/155 67/149/156
f 58/104/157 57/102/158 25/30/159 26/28/160
f 60/107/161 59/105/162 28/21/163 27/22/164
f 61/162/165 70/160/166 71/148/167 52/95/168
f 62/144/169 81/142/170 82/143/171 13/93/172
f 63/111/173 62/109/174 13/15/175 14/16/176
f 65/114/177 64/112/178 44/58/179 37/60/180
f 66/115/181 65/113/182 37/80/183 23/81/184
f 67/117/185 66/115/186 23/81/187 25/87/188
f 57/151/189 68/150/190 67/116/191 25/94/192
f 69/119/193 68/118/194 57/103/195 20/96/196
f 70/147/197 69/119/198 20/96/199 60/152/200
f 71/122/201 70/120/202 60/106/203 27/97/204
f 72/123/205 71/121/206 27/72/207 17/42/208
f 73/124/209 72/123/210 17/42/211 36/41/212
f 74/126/213 73/125/214 36/54/215 42/52/216
f 34/68/217 76/128/218 75/127/219 46/67/220
f 34/77/221 50/78/222 77/130/223 76/129/224
f 50/78/225 51/86/226 78/132/227 77/130/228
f 56/158/229 79/156/230 78/131/231 51/92/232
f 53/91/233 80/134/234 79/133/235 56/101/236
f 53/91/237 61/108/238 81/154/239 80/134/240
f 82/137/241 81/135/242 61/161/243 52/155/244
f 52/70/245 49/37/246 83/138/247 82/136/248
f 49/37/249 33/38/250 84/140/251 83/138/252
f 33/50/253 41/49/254 85/141/255 84/139/256
