# This file uses meters as units for non-parametric coordinates.

v -0.233563 6.808340 -0.259845
v -0.233563 6.808340 0.259845
v -0.233563 6.941263 -0.259845
v -0.233563 6.941263 0.259845
v 0.258439 6.941263 -0.259845
v 0.258439 6.941263 0.259845
v 0.258439 6.808340 -0.259845
v 0.258439 6.808340 0.259845
v -0.339628 0.087875 -0.302640
v -0.339628 0.087875 0.302640
v -0.339628 0.391058 -0.302640
v -0.339628 0.391058 0.302640
v 0.233403 0.391058 -0.302640
v 0.233403 0.391058 0.302640
v 0.233403 0.087875 -0.302640
v 0.233403 0.087875 0.302640
v -0.158259 0.391058 -0.111063
v -0.158259 0.391058 0.111063
v 0.052034 0.391058 0.111063
v 0.052034 0.391058 -0.111063
v 0.052034 9.808111 0.111063
v -0.158259 9.808111 0.111063
v -0.158259 9.808111 -0.111063
v 0.052034 9.808111 -0.111063
v -0.158259 9.569677 -0.111063
v 0.052034 9.569677 -0.111063
v 0.052034 9.569677 0.111063
v -0.158259 9.569677 0.111063
v 0.339628 9.569677 -0.111063
v 0.339628 9.569677 0.111063
v 0.339628 9.808111 -0.111063
v 0.339628 9.808111 0.111063
v -0.233563 3.214601 -0.259845
v -0.233563 3.214601 0.259845
v -0.233563 3.347525 -0.259845
v -0.233563 3.347525 0.259845
v 0.258439 3.347525 -0.259845
v 0.258439 3.347525 0.259845
v 0.258439 3.214601 -0.259845
v 0.258439 3.214601 0.259845
vt 0.435390 0.332811
vt 0.425434 0.332811
vt 0.425434 0.306670
vt 0.435390 0.306670
vt 0.404943 0.332811
vt 0.394987 0.332811
vt 0.394987 0.306670
vt 0.404943 0.306670
vt 0.300726 0.332811
vt 0.291300 0.332811
vt 0.291300 0.306670
vt 0.300726 0.306670
vt 0.290781 0.332811
vt 0.281355 0.332811
vt 0.281355 0.306670
vt 0.290781 0.306670
vt 0.543945 0.300872
vt 0.543945 0.288676
vt 0.555491 0.288676
vt 0.555491 0.300872
vt 0.281112 0.255707
vt 0.350807 0.255707
vt 0.350807 0.329324
vt 0.281112 0.329324
vt 0.435390 0.332811
vt 0.425434 0.332811
vt 0.425434 0.306670
vt 0.435390 0.306670
vt 0.404943 0.332811
vt 0.394987 0.332811
vt 0.394987 0.306670
vt 0.404943 0.306670
vt 0.300726 0.332811
vt 0.291300 0.332811
vt 0.291300 0.306670
vt 0.300726 0.306670
vt 0.290781 0.332811
vt 0.281355 0.332811
vt 0.281355 0.306670
vt 0.290781 0.306670
vt 0.543945 0.300872
vt 0.543945 0.288676
vt 0.547599 0.292536
vt 0.547599 0.297011
vt 0.543945 0.288676
vt 0.555491 0.288676
vt 0.551836 0.292536
vt 0.547599 0.292536
vt 0.555491 0.288676
vt 0.555491 0.300872
vt 0.551836 0.297011
vt 0.551836 0.292536
vt 0.555491 0.300872
vt 0.543945 0.300872
vt 0.547599 0.297011
vt 0.551836 0.297011
vt 0.467520 0.332811
vt 0.463866 0.332811
vt 0.463866 0.268635
vt 0.467520 0.268635
vt 0.339129 0.332811
vt 0.335669 0.332811
vt 0.335669 0.268635
vt 0.339129 0.268635
vt 0.468012 0.256198
vt 0.471666 0.256198
vt 0.471666 0.320373
vt 0.468012 0.320373
vt 0.335151 0.332811
vt 0.331692 0.332811
vt 0.331692 0.268635
vt 0.335151 0.268635
vt 0.534617 0.271298
vt 0.583823 0.271298
vt 0.583823 0.323273
vt 0.534617 0.323273
vt 0.331692 0.266968
vt 0.335151 0.266968
vt 0.468012 0.320373
vt 0.471666 0.320373
vt 0.471666 0.322040
vt 0.468012 0.322040
vt 0.335669 0.266968
vt 0.339129 0.266968
vt 0.463866 0.266968
vt 0.467520 0.266968
vt 0.316649 0.308449
vt 0.316649 0.310116
vt 0.316649 0.310116
vt 0.316649 0.308449
vt 0.583755 0.302961
vt 0.580101 0.302961
vt 0.580101 0.302961
vt 0.583755 0.302961
vt 0.312995 0.310116
vt 0.312995 0.308449
vt 0.312995 0.308449
vt 0.312995 0.310116
vt 0.435390 0.332811
vt 0.425434 0.332811
vt 0.425434 0.306670
vt 0.435390 0.306670
vt 0.404943 0.332811
vt 0.394987 0.332811
vt 0.394987 0.306670
vt 0.404943 0.306670
vt 0.300726 0.332811
vt 0.291300 0.332811
vt 0.291300 0.306670
vt 0.300726 0.306670
vt 0.290781 0.332811
vt 0.281355 0.332811
vt 0.281355 0.306670
vt 0.290781 0.306670
vt 0.555491 0.300872
vt 0.543945 0.300872
vt 0.543945 0.288676
vt 0.555491 0.288676
vt 0.281112 0.255707
vt 0.350807 0.255707
vt 0.350807 0.329324
vt 0.281112 0.329324
vn -1.000000 0.000000 0.000000
vn -1.000000 0.000000 0.000000
vn -1.000000 0.000000 0.000000
vn -1.000000 0.000000 0.000000
vn 1.000000 0.000000 0.000000
vn 1.000000 0.000000 0.000000
vn 1.000000 0.000000 0.000000
vn 1.000000 0.000000 0.000000
vn 0.000000 0.000000 1.000000
vn 0.000000 0.000000 1.000000
vn 0.000000 0.000000 1.000000
vn 0.000000 0.000000 1.000000
vn 0.000000 0.000000 -1.000000
vn 0.000000 0.000000 -1.000000
vn 0.000000 0.000000 -1.000000
vn 0.000000 0.000000 -1.000000
vn 0.000000 1.000000 0.000000
vn 0.000000 1.000000 0.000000
vn 0.000000 1.000000 0.000000
vn 0.000000 1.000000 0.000000
vn 0.000000 -1.000000 0.000000
vn 0.000000 -1.000000 0.000000
vn 0.000000 -1.000000 0.000000
vn 0.000000 -1.000000 0.000000
vn -1.000000 0.000000 0.000000
vn -1.000000 0.000000 0.000000
vn -1.000000 0.000000 0.000000
vn -1.000000 0.000000 0.000000
vn 1.000000 0.000000 0.000000
vn 1.000000 0.000000 0.000000
vn 1.000000 0.000000 0.000000
vn 1.000000 0.000000 0.000000
vn 0.000000 0.000000 1.000000
vn 0.000000 0.000000 1.000000
vn 0.000000 0.000000 1.000000
vn 0.000000 0.000000 1.000000
vn 0.000000 0.000000 -1.000000
vn 0.000000 0.000000 -1.000000
vn 0.000000 0.000000 -1.000000
vn 0.000000 0.000000 -1.000000
vn 0.000000 1.000000 -0.000000
vn 0.000000 1.000000 0.000000
vn 0.000000 1.000000 0.000000
vn 0.000000 1.000000 -0.000000
vn 0.000000 1.000000 0.000000
vn 0.000000 1.000000 0.000000
vn 0.000000 1.000000 0.000000
vn 0.000000 1.000000 0.000000
vn 0.000000 1.000000 0.000000
vn 0.000000 1.000000 -0.000000
vn 0.000000 1.000000 -0.000000
vn 0.000000 1.000000 0.000000
vn 0.000000 1.000000 -0.000000
vn 0.000000 1.000000 -0.000000
vn 0.000000 1.000000 -0.000000
vn 0.000000 1.000000 -0.000000
vn -1.000000 0.000000 0.000000
vn -1.000000 0.000000 0.000000
vn -1.000000 0.000000 0.000000
vn -1.000000 0.000000 0.000000
vn 0.000000 0.000000 1.000000
vn 0.000000 0.000000 1.000000
vn 0.000000 0.000000 1.000000
vn 0.000000 0.000000 1.000000
vn 1.000000 0.000000 0.000000
vn 1.000000 0.000000 0.000000
vn 1.000000 0.000000 0.000000
vn 1.000000 0.000000 0.000000
vn 0.000000 0.000000 -1.000000
vn 0.000000 0.000000 -1.000000
vn 0.000000 0.000000 -1.000000
vn 0.000000 0.000000 -1.000000
vn 0.000000 1.000000 0.000000
vn 0.000000 1.000000 0.000000
vn 0.000000 1.000000 0.000000
vn 0.000000 1.000000 0.000000
vn 0.000000 0.000000 -1.000000
vn 0.000000 0.000000 -1.000000
vn 0.000000 0.000000 -1.000000
vn 0.000000 0.000000 -1.000000
vn 1.000000 0.000000 0.000000
vn 1.000000 0.000000 0.000000
vn 1.000000 0.000000 0.000000
vn 1.000000 0.000000 0.000000
vn 0.000000 0.000000 1.000000
vn 0.000000 0.000000 1.000000
vn 0.000000 0.000000 1.000000
vn 0.000000 0.000000 1.000000
vn -1.000000 0.000000 0.000000
vn -1.000000 0.000000 0.000000
vn -1.000000 0.000000 0.000000
vn -1.000000 0.000000 0.000000
vn 0.000000 -1.000000 0.000000
vn 0.000000 -1.000000 0.000000
vn 0.000000 -1.000000 0.000000
vn 0.000000 -1.000000 0.000000
vn 0.000000 0.000000 -1.000000
vn 0.000000 0.000000 -1.000000
vn 0.000000 0.000000 -1.000000
vn 0.000000 0.000000 -1.000000
vn 0.000000 1.000000 0.000000
vn 0.000000 1.000000 0.000000
vn 0.000000 1.000000 0.000000
vn 0.000000 1.000000 0.000000
vn 0.000000 0.000000 1.000000
vn 0.000000 0.000000 1.000000
vn 0.000000 0.000000 1.000000
vn 0.000000 0.000000 1.000000
vn -1.000000 0.000000 0.000000
vn -1.000000 0.000000 0.000000
vn -1.000000 0.000000 0.000000
vn -1.000000 0.000000 0.000000
vn 1.000000 0.000000 0.000000
vn 1.000000 0.000000 0.000000
vn 1.000000 0.000000 0.000000
vn 1.000000 0.000000 0.000000
vn 0.000000 0.000000 1.000000
vn 0.000000 0.000000 1.000000
vn 0.000000 0.000000 1.000000
vn 0.000000 0.000000 1.000000
vn 0.000000 0.000000 -1.000000
vn 0.000000 0.000000 -1.000000
vn 0.000000 0.000000 -1.000000
vn 0.000000 0.000000 -1.000000
vn 0.000000 1.000000 0.000000
vn 0.000000 1.000000 0.000000
vn 0.000000 1.000000 0.000000
vn 0.000000 1.000000 0.000000
vn 0.000000 -1.000000 0.000000
vn 0.000000 -1.000000 0.000000
vn 0.000000 -1.000000 0.000000
vn 0.000000 -1.000000 0.000000
s off
f 1/1/1 2/2/2 4/3/3 3/4/4
f 5/5/5 6/6/6 8/7/7 7/8/8
f 2/9/9 8/10/10 6/11/11 4/12/12
f 7/13/13 1/14/14 3/15/15 5/16/16
f 5/20/17 3/17/18 4/18/19 6/19/20
f 1/21/21 7/22/22 8/23/23 2/24/24
f 9/25/25 10/26/26 12/27/27 11/28/28
f 13/29/29 14/30/30 16/31/31 15/32/32
f 10/33/33 16/34/34 14/35/35 12/36/36
f 15/37/37 9/38/38 11/39/39 13/40/40
f 11/41/41 12/42/42 18/43/43 17/44/44
f 12/45/45 14/46/46 19/47/47 18/48/48
f 14/49/49 13/50/50 20/51/51 19/52/52
f 13/53/53 11/54/54 17/55/55 20/56/56
f 17/57/57 18/58/58 28/59/59 25/60/60
f 18/61/61 19/62/62 27/63/63 28/64/64
f 19/65/65 20/66/66 26/67/67 27/68/68
f 20/69/69 17/70/70 25/71/71 26/72/72
f 24/73/73 23/74/74 22/75/75 21/76/76
f 26/72/77 25/71/78 23/77/79 24/78/80
f 30/79/81 29/80/82 31/81/83 32/82/84
f 28/64/85 27/63/86 21/83/87 22/84/88
f 25/60/89 28/59/90 22/85/91 23/86/92
f 27/68/93 26/67/94 29/80/95 30/79/96
f 26/87/97 24/88/98 31/89/99 29/90/100
f 24/91/101 21/92/102 32/93/103 31/94/104
f 21/95/105 27/96/106 30/97/107 32/98/108
f 33/99/109 34/100/110 36/101/111 35/102/112
f 37/103/113 38/104/114 40/105/115 39/106/116
f 34/107/117 40/108/118 38/109/119 36/110/120
f 39/111/121 33/112/122 35/113/123 37/114/124
f 37/115/125 35/116/126 36/117/127 38/118/128
f 33/119/129 39/120/130 40/121/131 34/122/132
