# This file uses meters as units for non-parametric coordinates.

v -6.894167 7.126738 -0.118168
v -1.764870 7.126738 -0.118168
v -6.894167 9.388721 -0.118168
v -1.764870 9.388721 -0.118168
v -6.894167 9.388721 -0.201038
v -1.764870 9.388721 -0.201038
v -6.894167 7.126738 -0.201038
v -1.764870 7.126738 -0.201038
v -6.738258 9.245687 -0.201038
v -1.920784 9.245687 -0.201038
v -1.920784 7.269773 -0.201038
v -6.738258 7.269773 -0.201038
v -6.655628 9.176507 -0.201038
v -2.003418 9.176507 -0.201038
v -2.003418 7.338954 -0.201038
v -6.655628 7.338954 -0.201038
v -7.994083 8.837066 0.109295
v -7.994083 8.837066 -0.119762
v -7.994083 8.394537 -0.119762
v -7.994083 8.394537 0.109295
v -0.185314 8.064674 0.109295
v -0.185314 8.064674 -0.119762
v -0.185314 7.802119 -0.119762
v -0.185314 7.802119 0.109295
v -7.994083 8.064674 0.109295
v -7.994083 8.064674 -0.119762
v -7.994083 7.802119 -0.119762
v -7.994083 7.802119 0.109295
v 0.371719 0.256160 0.388638
v 0.371719 0.256160 -0.399113
v 0.371719 2.488788 0.388638
v 0.371719 2.488788 -0.399113
v -0.374062 2.488788 0.388638
v -0.374062 2.488788 -0.399113
v -0.374062 0.256160 0.388638
v -0.374062 0.256160 -0.399113
v 0.182972 2.488788 0.189266
v 0.182972 2.488788 -0.199734
v -0.185314 2.488788 -0.199734
v -0.185314 2.488788 0.189266
v -0.185314 9.040236 -0.199734
v 0.182972 9.040236 -0.199734
v 0.182972 9.040236 0.189266
v -0.185314 9.040236 0.189266
v -0.185314 8.837066 0.109295
v -0.185314 8.837066 -0.119762
v -0.185314 8.394537 -0.119762
v -0.185314 8.394537 0.109295
v -0.526489 0.256160 0.549641
v -0.526489 0.256160 -0.560116
v -0.526489 -0.002672 -0.560116
v -0.526489 -0.002672 0.549641
v 0.524147 0.256160 -0.560116
v 0.524147 -0.002672 -0.560116
v 0.524147 0.256160 0.549641
v 0.524147 -0.002672 0.549641
vt 0.043347 0.237903
vt 0.232863 0.472781
vt 0.239919 0.240927
vt 0.043347 0.237903
vt 0.109656 0.241267
vt 0.109656 0.241267
vt 0.109656 0.241267
vt 0.109656 0.241267
vt 0.043347 0.237903
vt 0.043347 0.237903
vt 0.043347 0.237903
vt 0.043347 0.237903
vt 0.043347 0.237903
vt 0.043347 0.237903
vt 0.387096 0.475806
vt 0.387096 0.475806
vt 0.387096 0.475806
vt 0.387096 0.475806
vt 0.387096 0.475806
vt 0.387096 0.475806
vt 0.387096 0.475806
vt 0.387096 0.475806
vt 0.387096 0.475806
vt 0.387096 0.475806
vt 0.387096 0.475806
vt 0.109656 0.241267
vt 0.387096 0.475806
vt 0.387096 0.475806
vt 0.109656 0.241267
vt 0.387096 0.475806
vt 0.109656 0.241267
vt 0.387096 0.475806
vt 0.109656 0.241267
vt 0.387096 0.475806
vt 0.043347 0.237903
vt 0.232863 0.472781
vt 0.239919 0.240927
vt 0.232863 0.472781
vt 0.232863 0.472781
vt 0.043347 0.237903
vt 0.043347 0.237903
vt 0.043347 0.237903
vt 0.239919 0.240927
vt 0.239919 0.240927
vt 0.338809 0.727783
vt 0.097779 0.727783
vt 0.097779 0.634064
vt 0.338809 0.634064
vt 0.323948 0.482616
vt 0.323948 0.482616
vt 0.323948 0.482616
vt 0.323948 0.482616
vt 0.198335 0.476005
vt 0.198335 0.476005
vt 0.198335 0.476005
vt 0.198335 0.476005
vt 0.198335 0.476005
vt 0.198335 0.476005
vt 0.198335 0.476005
vt 0.198335 0.476005
vt 0.175196 0.476005
vt 0.175196 0.476005
vt 0.175196 0.476005
vt 0.175196 0.476005
vt 0.264447 0.482616
vt 0.264447 0.482616
vt 0.264447 0.482616
vt 0.264447 0.482616
vt 0.264447 0.482616
vt 0.264447 0.482616
vt 0.264447 0.482616
vt 0.264447 0.482616
vt 0.198335 0.476005
vt 0.198335 0.476005
vt 0.198335 0.476005
vt 0.198335 0.476005
vt 0.198335 0.476005
vt 0.198335 0.476005
vt 0.198335 0.476005
vt 0.198335 0.476005
vt 0.323948 0.482616
vt 0.323948 0.482616
vt 0.323948 0.482616
vt 0.323948 0.482616
vt 0.323948 0.482616
vt 0.323948 0.482616
vt 0.323948 0.482616
vt 0.323948 0.482616
vt 0.323948 0.482616
vt 0.323948 0.482616
vt 0.323948 0.482616
vt 0.323948 0.482616
vt 0.323948 0.482616
vt 0.323948 0.482616
vt 0.323948 0.482616
vt 0.323948 0.482616
vt 0.264447 0.482616
vt 0.264447 0.482616
vt 0.264447 0.482616
vt 0.264447 0.482616
vt 0.198335 0.476005
vt 0.198335 0.476005
vt 0.198335 0.476005
vt 0.198335 0.476005
vt 0.267753 0.472699
vt 0.267753 0.472699
vt 0.267753 0.472699
vt 0.267753 0.472699
vt 0.198335 0.476005
vt 0.198335 0.476005
vt 0.198335 0.476005
vt 0.198335 0.476005
vt 0.323948 0.482616
vt 0.323948 0.482616
vt 0.323948 0.482616
vt 0.323948 0.482616
vt 0.198335 0.476005
vt 0.198335 0.476005
vt 0.198335 0.476005
vt 0.198335 0.476005
vt 0.198335 0.476005
vt 0.198335 0.476005
vt 0.198335 0.476005
vt 0.198335 0.476005
vt 0.175196 0.476005
vt 0.175196 0.476005
vt 0.175196 0.476005
vt 0.175196 0.476005
vt 0.264447 0.482616
vt 0.264447 0.482616
vt 0.264447 0.482616
vt 0.264447 0.482616
vt 0.198335 0.476005
vt 0.198335 0.476005
vt 0.198335 0.476005
vt 0.198335 0.476005
vt 0.264447 0.482616
vt 0.264447 0.482616
vt 0.264447 0.482616
vt 0.264447 0.482616
vt 0.198335 0.476005
vt 0.198335 0.476005
vt 0.198335 0.476005
vt 0.198335 0.476005
vt 0.323948 0.482616
vt 0.323948 0.482616
vt 0.323948 0.482616
vt 0.323948 0.482616
vt 0.323948 0.482616
vt 0.323948 0.482616
vt 0.323948 0.482616
vt 0.323948 0.482616
vt 0.323948 0.482616
vt 0.323948 0.482616
vt 0.323948 0.482616
vt 0.323948 0.482616
vt 0.323948 0.482616
vt 0.323948 0.482616
vt 0.323948 0.482616
vt 0.323948 0.482616
vt 0.323948 0.482616
vt 0.323948 0.482616
vt 0.323948 0.482616
vt 0.323948 0.482616
vt 0.323948 0.482616
vt 0.323948 0.482616
vt 0.176906 0.464538
vt 0.176906 0.464538
vt 0.176906 0.464538
vt 0.176906 0.464538
vt 0.176906 0.464538
vt 0.176906 0.464538
vt 0.176906 0.464538
vt 0.176906 0.464538
vn 0.000000 0.000000 1.000000
vn 0.000000 0.000000 1.000000
vn 0.000000 0.000000 1.000000
vn 0.000000 0.000000 1.000000
vn 0.000000 1.000000 0.000000
vn 0.000000 1.000000 0.000000
vn 0.000000 1.000000 0.000000
vn 0.000000 1.000000 0.000000
vn 0.000000 0.000000 -1.000000
vn 0.000000 0.000000 -1.000000
vn 0.000000 0.000000 -1.000000
vn 0.000000 0.000000 -1.000000
vn 0.000000 -1.000000 0.000000
vn 0.000000 -1.000000 0.000000
vn 0.000000 -1.000000 0.000000
vn 0.000000 -1.000000 0.000000
vn 1.000000 0.000000 0.000000
vn 1.000000 0.000000 0.000000
vn 1.000000 0.000000 0.000000
vn 1.000000 0.000000 0.000000
vn -1.000000 0.000000 0.000000
vn -1.000000 0.000000 0.000000
vn -1.000000 0.000000 0.000000
vn -1.000000 0.000000 0.000000
vn 0.000000 0.000000 -1.000000
vn 0.000000 0.000000 -1.000000
vn 0.000000 0.000000 -1.000000
vn 0.000000 0.000000 -1.000000
vn 0.000000 0.000000 -1.000000
vn 0.000000 0.000000 -1.000000
vn 0.000000 0.000000 -1.000000
vn 0.000000 0.000000 -1.000000
vn 0.000000 0.000000 -1.000000
vn 0.000000 0.000000 -1.000000
vn 0.000000 0.000000 -1.000000
vn 0.000000 0.000000 -1.000000
vn 0.000000 0.000000 -1.000000
vn 0.000000 0.000000 -1.000000
vn 0.000000 0.000000 -1.000000
vn 0.000000 0.000000 -1.000000
vn 0.000000 0.000000 -1.000000
vn 0.000000 0.000000 -1.000000
vn 0.000000 0.000000 -1.000000
vn 0.000000 0.000000 -1.000000
vn -0.000000 0.000000 -1.000000
vn -0.000000 0.000000 -1.000000
vn -0.000000 0.000000 -1.000000
vn -0.000000 0.000000 -1.000000
vn 0.000000 0.000000 -1.000000
vn 0.000000 0.000000 -1.000000
vn 0.000000 0.000000 -1.000000
vn 0.000000 0.000000 -1.000000
vn 0.000000 0.000000 -1.000000
vn 0.000000 0.000000 -1.000000
vn 0.000000 0.000000 -1.000000
vn 0.000000 0.000000 -1.000000
vn 0.000000 1.000000 0.000000
vn 0.000000 1.000000 0.000000
vn 0.000000 1.000000 0.000000
vn 0.000000 1.000000 0.000000
vn 0.000000 0.000000 -1.000000
vn 0.000000 0.000000 -1.000000
vn 0.000000 0.000000 -1.000000
vn 0.000000 0.000000 -1.000000
vn -0.000000 0.000000 1.000000
vn -0.000000 0.000000 1.000000
vn -0.000000 0.000000 1.000000
vn -0.000000 0.000000 1.000000
vn 0.000000 -1.000000 0.000000
vn 0.000000 -1.000000 0.000000
vn 0.000000 -1.000000 0.000000
vn 0.000000 -1.000000 0.000000
vn 1.000000 0.000000 0.000000
vn 1.000000 0.000000 0.000000
vn 1.000000 0.000000 0.000000
vn 1.000000 0.000000 0.000000
vn -1.000000 0.000000 -0.000000
vn -1.000000 0.000000 -0.000000
vn -1.000000 0.000000 -0.000000
vn -1.000000 0.000000 -0.000000
vn 0.000000 0.000000 -1.000000
vn 0.000000 0.000000 -1.000000
vn 0.000000 0.000000 -1.000000
vn 0.000000 0.000000 -1.000000
vn -0.000000 0.000000 1.000000
vn -0.000000 0.000000 1.000000
vn -0.000000 0.000000 1.000000
vn -0.000000 0.000000 1.000000
vn 0.000000 1.000000 0.000000
vn 0.000000 1.000000 0.000000
vn 0.000000 1.000000 0.000000
vn 0.000000 1.000000 0.000000
vn 0.000000 1.000000 0.000000
vn 0.000000 1.000000 0.000000
vn 0.000000 1.000000 0.000000
vn 0.000000 1.000000 0.000000
vn 0.000000 1.000000 0.000000
vn 0.000000 1.000000 0.000000
vn 0.000000 1.000000 0.000000
vn 0.000000 1.000000 0.000000
vn 0.000000 1.000000 0.000000
vn 0.000000 1.000000 0.000000
vn 0.000000 1.000000 0.000000
vn 0.000000 1.000000 0.000000
vn 1.000000 0.000000 0.000000
vn 1.000000 0.000000 0.000000
vn 1.000000 0.000000 0.000000
vn 1.000000 0.000000 0.000000
vn 0.000000 0.000000 -1.000000
vn 0.000000 0.000000 -1.000000
vn 0.000000 0.000000 -1.000000
vn 0.000000 0.000000 -1.000000
vn -1.000000 0.000000 -0.000000
vn -1.000000 0.000000 -0.000000
vn -0.999999 0.001128 -0.000567
vn -0.999999 0.001128 0.000567
vn -0.000000 0.000000 1.000000
vn -0.000000 0.000000 1.000000
vn -0.000000 0.000000 1.000000
vn -0.000000 0.000000 1.000000
vn 0.000000 1.000000 0.000000
vn 0.000000 1.000000 0.000000
vn 0.000000 1.000000 0.000000
vn 0.000000 1.000000 0.000000
vn 0.000000 0.000000 -1.000000
vn 0.000000 0.000000 -1.000000
vn 0.000000 0.000000 -1.000000
vn 0.000000 0.000000 -1.000000
vn -0.000000 0.000000 1.000000
vn -0.000000 0.000000 1.000000
vn -0.000000 0.000000 1.000000
vn -0.000000 0.000000 1.000000
vn 0.000000 -1.000000 0.000000
vn 0.000000 -1.000000 0.000000
vn 0.000000 -1.000000 0.000000
vn 0.000000 -1.000000 0.000000
vn -1.000000 0.000000 -0.000000
vn -1.000000 0.000000 -0.000000
vn -1.000000 0.000000 -0.000000
vn -1.000000 0.000000 -0.000000
vn 0.000000 0.000000 -1.000000
vn 0.000000 0.000000 -1.000000
vn 0.000000 0.000000 -1.000000
vn 0.000000 0.000000 -1.000000
vn 1.000000 0.000000 0.000000
vn 1.000000 0.000000 0.000000
vn 1.000000 0.000000 0.000000
vn 1.000000 0.000000 0.000000
vn -0.000000 0.000000 1.000000
vn -0.000000 0.000000 1.000000
vn -0.000000 0.000000 1.000000
vn -0.000000 0.000000 1.000000
vn -0.000000 1.000000 -0.000000
vn -0.000000 1.000000 -0.000000
vn -0.000000 1.000000 -0.000000
vn -0.000000 1.000000 -0.000000
vn -0.000000 1.000000 -0.000000
vn 0.000000 1.000000 0.000000
vn 0.000000 1.000000 0.000000
vn -0.000000 1.000000 -0.000000
vn 0.000000 1.000000 0.000000
vn 0.000000 1.000000 0.000000
vn 0.000000 1.000000 0.000000
vn 0.000000 1.000000 0.000000
vn 0.000000 1.000000 0.000000
vn -0.000000 1.000000 -0.000000
vn -0.000000 1.000000 -0.000000
vn 0.000000 1.000000 0.000000
vn 0.000000 1.000000 0.000000
vn 0.000000 1.000000 0.000000
vn 0.000000 1.000000 0.000000
vn 0.000000 1.000000 0.000000
vn 0.000000 1.000000 0.000000
vn 0.000000 1.000000 0.000000
vn -1.000000 0.000000 0.000000
vn -1.000000 0.000000 0.000000
vn -1.000000 0.000000 0.000000
vn -1.000000 0.000000 0.000000
vn -1.000000 0.000000 0.000000
vn -1.000000 0.000000 0.000000
vn -1.000000 0.000000 0.000000
vn -1.000000 0.000000 0.000000
s off
f 1/38/1 2/2/2 4/36/3 3/39/4
f 3/3/5 4/37/6 6/43/7 5/44/8
f 13/45/9 14/46/10 15/47/11 16/48/12
f 7/42/13 8/41/14 2/10/15 1/9/16
f 2/35/17 8/11/18 6/12/19 4/4/20
f 7/13/21 1/1/22 3/40/23 5/14/24
f 5/5/25 6/6/26 10/31/27 9/33/28
f 6/6/29 8/8/30 11/29/31 10/31/32
f 8/8/33 7/7/34 12/26/35 11/29/36
f 7/7/37 5/5/38 9/33/39 12/26/40
f 9/15/41 10/32/42 14/28/43 13/22/44
f 10/16/45 11/30/46 15/25/47 14/19/48
f 11/17/49 12/27/50 16/24/51 15/20/52
f 12/18/53 9/34/54 13/23/55 16/21/56
f 21/49/57 22/50/58 26/51/59 25/52/60
f 22/53/61 23/54/62 27/55/63 26/56/64
f 24/57/65 21/58/66 25/59/67 28/60/68
f 23/61/69 24/62/70 28/63/71 27/64/72
f 29/65/73 30/66/74 32/67/75 31/68/76
f 33/69/77 34/70/78 36/71/79 35/72/80
f 30/73/81 36/74/82 34/75/83 32/76/84
f 35/77/85 29/78/86 31/79/87 33/80/88
f 31/81/89 32/82/90 38/83/91 37/84/92
f 32/85/93 34/86/94 39/87/95 38/88/96
f 34/89/97 33/90/98 40/91/99 39/92/100
f 33/93/101 31/94/102 37/95/103 40/96/104
f 37/97/105 38/98/106 42/99/107 43/100/108
f 38/101/109 39/102/110 41/103/111 42/104/112
f 39/105/113 40/106/114 44/107/115 41/108/116
f 40/109/117 37/110/118 43/111/119 44/112/120
f 45/113/121 46/114/122 18/115/123 17/116/124
f 46/117/125 47/118/126 19/119/127 18/120/128
f 48/121/129 45/122/130 17/123/131 20/124/132
f 47/125/133 48/126/134 20/127/135 19/128/136
f 49/129/137 50/130/138 51/131/139 52/132/140
f 50/133/141 53/134/142 54/135/143 51/136/144
f 53/137/145 55/138/146 56/139/147 54/140/148
f 55/141/149 49/142/150 52/143/151 56/144/152
f 35/145/153 36/146/154 50/147/155 49/148/156
f 36/149/157 30/150/158 53/151/159 50/152/160
f 30/153/161 29/154/162 55/155/163 53/156/164
f 29/157/165 35/158/166 49/159/167 55/160/168
f 41/161/169 44/162/170 42/163/171
f 44/164/172 43/165/173 42/166/174
f 18/167/175 19/168/176 20/169/177 17/170/178
f 26/171/179 27/172/180 28/173/181 25/174/182
