# This file uses meters as units for non-parametric coordinates.

v -2.282336 2.930626 2.282321
v 2.282336 2.930626 2.282321
v -2.282336 3.223641 2.282321
v 2.282336 3.223641 2.282321
v -2.282336 3.223641 -2.282340
v 2.282336 3.223641 -2.282340
v -2.282336 2.930626 -2.282340
v 2.282336 2.930626 -2.282340
v -0.527469 4.299749 0.527451
v 0.527471 4.299749 0.527451
v 0.527471 4.299749 -0.527481
v -0.527469 4.299749 -0.527481
v -0.527469 4.006734 -0.527481
v 0.527471 4.006734 -0.527481
v 0.527471 4.006734 0.527451
v -0.527469 4.006734 0.527451
v -0.118319 0.000000 0.118302
v 0.118319 0.000000 0.118302
v -0.118319 4.017880 0.118302
v 0.118319 4.017880 0.118302
v -0.118319 4.017880 -0.118338
v 0.118319 4.017880 -0.118338
v -0.118319 0.000000 -0.118338
v 0.118319 0.000000 -0.118338
vt 0.349196 0.355561
vt 0.361009 0.475960
vt 0.395209 0.475425
vt 0.381793 0.353423
vt 0.381793 0.353423
vt 0.395209 0.475425
vt 0.301012 0.475425
vt 0.254999 0.355561
vt 0.254999 0.355561
vt 0.291953 0.480455
vt 0.349196 0.355561
vt 0.349196 0.355561
vt 0.349196 0.355561
vt 0.349196 0.355561
vt 0.411184 0.354492
vt 0.381793 0.353423
vt 0.395209 0.475425
vt 0.381793 0.353423
vt 0.291953 0.480455
vt 0.254999 0.355561
vt 0.291953 0.480455
vt 0.254999 0.355561
vt 0.196989 0.481556
vt 0.240822 0.479430
vt 0.197281 0.481848
vt 0.240149 0.480102
vt 0.239648 0.479437
vt 0.239661 0.479437
vt 0.239648 0.478751
vt 0.239661 0.478751
vt 0.197573 0.481556
vt 0.197573 0.481848
vt 0.196697 0.481556
vt 0.196697 0.481848
vt 0.395209 0.475425
vt 0.381793 0.353423
vt 0.395209 0.475425
vt 0.411184 0.354492
vt 0.381793 0.353423
vt 0.411184 0.354492
vt 0.361009 0.475960
vt 0.395209 0.475425
vt 0.395209 0.475425
vt 0.411184 0.354492
vt 0.361009 0.475960
vt 0.381793 0.353423
vt 0.349196 0.355561
vt 0.395209 0.475425
vt 0.361009 0.475960
vt 0.381793 0.353423
vt 0.361009 0.475960
vt 0.349196 0.355561
vt 0.361009 0.475960
vt 0.361009 0.475960
vt 0.361009 0.475960
vt 0.349196 0.355561
vt 0.301012 0.475425
vt 0.254999 0.355561
vt 0.291953 0.480455
vt 0.291953 0.480455
vt 0.254999 0.355561
vt 0.291953 0.480455
vt 0.291953 0.480455
vt 0.301012 0.475425
vt 0.291953 0.480455
vt 0.254999 0.355561
vt 0.301012 0.475425
vt 0.254999 0.355561
vt 0.197281 0.481556
vt 0.240149 0.479430
vt 0.240822 0.480102
vt 0.196989 0.481848
vn 0.000000 0.000000 1.000000
vn 0.000000 0.000000 1.000000
vn 0.000000 0.000000 1.000000
vn 0.000000 0.000000 1.000000
vn 0.000000 1.000000 0.000000
vn 0.000000 1.000000 0.000000
vn 0.000000 1.000000 0.000000
vn 0.000000 1.000000 0.000000
vn 0.000000 0.000000 -1.000000
vn 0.000000 0.000000 -1.000000
vn 0.000000 0.000000 -1.000000
vn 0.000000 0.000000 -1.000000
vn 0.000000 -1.000000 0.000000
vn 0.000000 -1.000000 0.000000
vn 0.000000 -1.000000 0.000000
vn 0.000000 -1.000000 0.000000
vn 1.000000 0.000000 0.000000
vn 1.000000 0.000000 0.000000
vn 1.000000 0.000000 0.000000
vn 1.000000 0.000000 0.000000
vn -1.000000 0.000000 0.000000
vn -1.000000 0.000000 0.000000
vn -1.000000 0.000000 0.000000
vn -1.000000 0.000000 0.000000
vn 0.000000 0.852483 0.522755
vn 0.000000 0.852483 0.522755
vn 0.000000 0.852483 0.522755
vn 0.000000 0.852483 0.522755
vn 0.522755 0.852483 0.000000
vn 0.522755 0.852483 0.000000
vn 0.522755 0.852483 0.000000
vn 0.522755 0.852483 0.000000
vn 0.000000 0.852484 -0.522753
vn 0.000000 0.852484 -0.522753
vn 0.000000 0.852484 -0.522753
vn 0.000000 0.852484 -0.522753
vn -0.522754 0.852483 0.000000
vn -0.522754 0.852484 0.000000
vn -0.522754 0.852484 0.000000
vn -0.522754 0.852484 0.000000
vn 0.000000 -0.852484 0.522754
vn 0.000000 -0.852484 0.522754
vn 0.000000 -0.852484 0.522754
vn 0.000000 -0.852484 0.522754
vn -0.522755 -0.852483 0.000000
vn -0.522755 -0.852483 0.000000
vn -0.522755 -0.852483 0.000000
vn -0.522755 -0.852483 0.000000
vn 0.000000 -0.852483 -0.522755
vn 0.000000 -0.852483 -0.522755
vn 0.000000 -0.852483 -0.522755
vn 0.000000 -0.852483 -0.522755
vn 0.522754 -0.852483 0.000000
vn 0.522754 -0.852483 0.000000
vn 0.522754 -0.852483 0.000000
vn 0.522754 -0.852483 0.000000
vn 0.000000 0.000000 1.000000
vn 0.000000 0.000000 1.000000
vn 0.000000 0.000000 1.000000
vn 0.000000 0.000000 1.000000
vn 0.000000 0.000000 -1.000000
vn 0.000000 0.000000 -1.000000
vn 0.000000 0.000000 -1.000000
vn 0.000000 0.000000 -1.000000
vn 1.000000 0.000000 0.000000
vn 1.000000 0.000000 0.000000
vn 1.000000 0.000000 0.000000
vn 1.000000 0.000000 0.000000
vn -1.000000 0.000000 0.000000
vn -1.000000 0.000000 0.000000
vn -1.000000 0.000000 0.000000
vn -1.000000 0.000000 0.000000
s off
f 1/54/1 2/2/2 4/55/3 3/49/4
f 9/15/5 10/44/6 11/40/7 12/38/8
f 5/41/9 6/45/10 8/51/11 7/53/12
f 13/19/13 14/65/14 15/62/15 16/60/16
f 2/52/17 8/11/18 6/12/19 4/47/20
f 7/13/21 1/1/22 3/56/23 5/14/24
f 3/3/25 4/48/26 10/43/27 9/35/28
f 4/4/29 6/46/30 11/39/31 10/16/32
f 6/6/33 5/42/34 12/37/35 11/17/36
f 5/5/37 3/50/38 9/36/39 12/18/40
f 7/7/41 8/67/42 14/64/43 13/57/44
f 8/8/45 2/66/46 15/61/47 14/20/48
f 2/10/49 1/63/50 16/59/51 15/21/52
f 1/9/53 7/68/54 13/58/55 16/22/56
f 17/70/57 18/24/58 20/71/59 19/26/60
f 21/28/61 22/27/62 24/29/63 23/30/64
f 18/69/65 24/31/66 22/32/67 20/25/68
f 23/33/69 17/23/70 19/72/71 21/34/72
