# This file uses meters as units for non-parametric coordinates.

v -0.880344 0.190126 -1.336029
v -0.715818 0.190126 -1.336029
v -0.880344 0.000000 -1.410034
v -0.715818 0.000000 -1.410034
v -0.880344 0.190126 0.372253
v -0.880344 0.000000 0.446243
v -0.715818 0.000000 0.446243
v -0.715818 0.190126 0.372253
v -0.880344 0.452643 -1.650345
v -0.715818 0.452643 -1.650345
v -0.715818 0.452643 -1.912949
v -0.880344 0.452643 -1.912949
v -0.715818 0.452643 0.686554
v -0.880344 0.452643 0.686554
v -0.880344 0.452643 0.949188
v -0.715818 0.452643 0.949188
v -0.964197 1.615621 2.269424
v 0.964197 1.615621 2.269424
v -0.964197 1.871538 2.086899
v 0.964197 1.871538 2.086899
v -0.964197 0.766976 -2.269424
v 0.964197 0.766976 -2.269424
v -0.964197 0.452643 -2.269424
v 0.964197 0.452643 -2.269424
v -0.964197 0.766976 0.863846
v -0.964197 0.452643 1.024521
v 0.964197 0.452643 1.024521
v 0.964197 0.766976 0.863846
v 0.724031 0.190126 -1.336029
v 0.888558 0.190126 -1.336029
v 0.724031 0.000000 -1.410034
v 0.888558 0.000000 -1.410034
v 0.724031 0.190126 0.372253
v 0.724031 0.000000 0.446243
v 0.888558 0.000000 0.446243
v 0.888558 0.190126 0.372253
v 0.724031 0.452643 -1.650345
v 0.888558 0.452643 -1.650345
v 0.888558 0.452643 -1.912949
v 0.724031 0.452643 -1.912949
v 0.888558 0.452643 0.686554
v 0.724031 0.452643 0.686554
v 0.724031 0.452643 0.949188
v 0.888558 0.452643 0.949188
v 0.707164 0.766976 0.863846
v 0.707164 0.452643 1.024521
v -0.707164 0.766976 0.863846
v -0.707164 0.452643 1.024521
v -0.707164 1.449984 2.092117
v 0.707164 1.449984 2.092117
v 0.707164 1.714220 1.912720
v -0.707164 1.714220 1.912720
v -0.707164 0.766976 -2.022247
v -0.707164 0.452643 -2.010483
v 0.707164 0.452643 -2.010483
v 0.707164 0.766976 -2.022247
vt 0.231614 0.474866
vt 0.231614 0.474866
vt 0.231614 0.474866
vt 0.231614 0.474866
vt 0.231614 0.474866
vt 0.231614 0.474866
vt 0.199343 0.474866
vt 0.165831 0.481072
vt 0.199343 0.474866
vt 0.165831 0.481072
vt 0.199343 0.474866
vt 0.199343 0.474866
vt 0.199343 0.474866
vt 0.199343 0.474866
vt 0.164589 0.477348
vt 0.164589 0.477348
vt 0.164589 0.477348
vt 0.164589 0.477348
vt 0.164589 0.477348
vt 0.164589 0.477348
vt 0.164589 0.477348
vt 0.164589 0.477348
vt 0.138524 0.479831
vt 0.134801 0.472384
vt 0.138524 0.479831
vt 0.134801 0.472384
vt 0.134801 0.472384
vt 0.134801 0.472384
vt 0.134801 0.472384
vt 0.134801 0.472384
vt 0.198102 0.087611
vt 0.198102 0.087611
vt 0.232856 0.083888
vt 0.232856 0.083888
vt 0.232856 0.083888
vt 0.232856 0.083888
vt 0.232856 0.083888
vt 0.232856 0.083888
vt 0.232856 0.083888
vt 0.162107 0.080164
vt 0.162107 0.080164
vt 0.195619 0.086370
vt 0.162107 0.080164
vt 0.162107 0.080164
vt 0.195619 0.086370
vt 0.195619 0.086370
vt 0.162107 0.080164
vt 0.162107 0.080164
vt 0.195620 0.086370
vt 0.195619 0.086370
vt 0.195620 0.086370
vt 0.298639 0.085129
vt 0.267609 0.082646
vt 0.325946 0.447560
vt 0.267609 0.082646
vt 0.298639 0.085129
vt 0.294916 0.445077
vt 0.294916 0.445077
vt 0.298639 0.085129
vt 0.267609 0.082646
vt 0.267609 0.082646
vt 0.267609 0.082646
vt 0.268850 0.088852
vt 0.231614 0.474866
vt 0.231614 0.474866
vt 0.231614 0.474866
vt 0.231614 0.474866
vt 0.231614 0.474866
vt 0.231614 0.474866
vt 0.134801 0.472384
vt 0.134801 0.472384
vt 0.134801 0.472384
vt 0.134801 0.472384
vt 0.134801 0.472384
vt 0.134801 0.472384
vt 0.134801 0.472384
vt 0.134801 0.472384
vt 0.164589 0.477348
vt 0.164589 0.477348
vt 0.164589 0.477348
vt 0.164589 0.477348
vt 0.164589 0.477348
vt 0.164589 0.477348
vt 0.164589 0.477349
vt 0.164589 0.477349
vt 0.199343 0.474866
vt 0.199343 0.474866
vt 0.199343 0.474866
vt 0.199343 0.474866
vt 0.199343 0.474866
vt 0.199343 0.474866
vt 0.199343 0.474866
vt 0.199343 0.474866
vt 0.134801 0.472384
vt 0.134801 0.472384
vt 0.134801 0.472384
vt 0.134801 0.472384
vt 0.138524 0.479831
vt 0.134801 0.472384
vt 0.134801 0.472384
vt 0.138524 0.479831
vt 0.165831 0.481072
vt 0.199343 0.474866
vt 0.199343 0.474866
vt 0.165831 0.481072
vt 0.231614 0.474866
vt 0.231614 0.474866
vt 0.231614 0.474866
vt 0.231614 0.474866
vt 0.231614 0.474866
vt 0.231614 0.474866
vt 0.231614 0.474866
vt 0.231614 0.474866
vt 0.231614 0.474866
vt 0.231614 0.474866
vt 0.231614 0.474866
vt 0.231614 0.474866
vt 0.164589 0.477348
vt 0.164589 0.477348
vt 0.164589 0.477348
vt 0.164589 0.477348
vt 0.164589 0.477348
vt 0.164589 0.477348
vt 0.164589 0.477348
vt 0.164589 0.477348
vt 0.298639 0.085129
vt 0.325946 0.447560
vt 0.298639 0.085129
vt 0.298639 0.085129
vt 0.232856 0.083888
vt 0.298639 0.085129
vt 0.162107 0.080164
vt 0.232856 0.083888
vt 0.162107 0.080164
vt 0.162107 0.080164
vt 0.162107 0.080164
vt 0.195619 0.086370
vt 0.232856 0.083888
vt 0.162107 0.080164
vt 0.162107 0.080164
vt 0.195620 0.086370
vt 0.195620 0.086370
vt 0.162107 0.080164
vt 0.232856 0.083888
vt 0.162107 0.080164
vt 0.195619 0.086370
vt 0.195619 0.086370
vt 0.162107 0.080164
vt 0.298639 0.085129
vt 0.232856 0.083888
vt 0.232856 0.083888
vt 0.162107 0.080164
vt 0.198102 0.087611
vt 0.298639 0.085129
vt 0.294916 0.445077
vt 0.267609 0.082646
vt 0.232856 0.083888
vt 0.267609 0.082646
vt 0.267609 0.082646
vt 0.267609 0.082646
vt 0.298639 0.085129
vt 0.325946 0.447560
vt 0.294916 0.445077
vt 0.325946 0.447560
vt 0.298639 0.085129
vt 0.267609 0.082646
vt 0.298639 0.085129
vt 0.232856 0.083888
vt 0.195620 0.086370
vt 0.195620 0.086370
vt 0.195619 0.086370
vt 0.195619 0.086370
vt 0.268850 0.088852
vt 0.195619 0.086370
vt 0.232856 0.083888
vt 0.267609 0.082646
vt 0.267609 0.082646
vt 0.268850 0.088852
vt 0.198102 0.087611
vt 0.268850 0.088852
vn -1.000000 0.000000 0.000000
vn -1.000000 0.000000 0.000000
vn -1.000000 0.000000 0.000000
vn -1.000000 0.000000 0.000000
vn 0.000000 -1.000000 0.000000
vn 0.000000 -1.000000 0.000000
vn 0.000000 -1.000000 0.000000
vn 0.000000 -1.000000 0.000000
vn 1.000000 0.000000 0.000000
vn 1.000000 0.000000 0.000000
vn 1.000000 0.000000 0.000000
vn 1.000000 0.000000 0.000000
vn 0.000000 1.000000 0.000000
vn 0.000000 1.000000 0.000000
vn 0.000000 1.000000 0.000000
vn 0.000000 1.000000 0.000000
vn 0.000000 0.767515 0.641031
vn 0.000000 0.767515 0.641031
vn 0.000000 0.767515 0.641031
vn 0.000000 0.767515 0.641031
vn 1.000000 0.000000 0.000000
vn 1.000000 0.000000 0.000000
vn 1.000000 0.000000 0.000000
vn 1.000000 0.000000 0.000000
vn 0.000000 -0.743279 -0.668981
vn 0.000000 -0.743279 -0.668981
vn 0.000000 -0.743279 -0.668981
vn 0.000000 -0.743279 -0.668981
vn -1.000000 0.000000 0.000000
vn -1.000000 0.000000 0.000000
vn -1.000000 0.000000 0.000000
vn -1.000000 0.000000 0.000000
vn 0.000000 0.767499 -0.641050
vn 0.000000 0.767499 -0.641050
vn 0.000000 0.767499 -0.641050
vn 0.000000 0.767499 -0.641050
vn -1.000000 0.000000 0.000000
vn -1.000000 0.000000 0.000000
vn -1.000000 0.000000 0.000000
vn -1.000000 0.000000 0.000000
vn 0.000000 -0.743299 0.668959
vn 0.000000 -0.743299 0.668959
vn 0.000000 -0.743299 0.668959
vn 0.000000 -0.743299 0.668959
vn 1.000000 0.000000 0.000000
vn 1.000000 0.000000 0.000000
vn 1.000000 0.000000 0.000000
vn 1.000000 0.000000 0.000000
vn -1.000000 -0.000000 0.000000
vn -1.000000 -0.000000 0.000000
vn -1.000000 -0.000000 0.000000
vn -1.000000 -0.000000 0.000000
vn 0.000000 -1.000000 0.000000
vn 0.000000 -1.000000 0.000000
vn 0.000000 -1.000000 0.000000
vn 0.000000 -1.000000 0.000000
vn 1.000000 0.000000 0.000000
vn 1.000000 0.000000 0.000000
vn 1.000000 0.000000 0.000000
vn 1.000000 0.000000 0.000000
vn 0.000000 1.000000 0.000000
vn 0.000000 1.000000 0.000000
vn 0.000000 1.000000 0.000000
vn 0.000000 1.000000 0.000000
vn -1.000000 0.000000 0.000000
vn -1.000000 0.000000 0.000000
vn -1.000000 0.000000 0.000000
vn -1.000000 0.000000 0.000000
vn 0.000000 -1.000000 0.000000
vn 0.000000 -1.000000 0.000000
vn 0.000000 -1.000000 0.000000
vn 0.000000 -1.000000 0.000000
vn 1.000000 0.000000 0.000000
vn 1.000000 0.000000 0.000000
vn 1.000000 0.000000 0.000000
vn 1.000000 0.000000 0.000000
vn 0.000000 1.000000 0.000000
vn 0.000000 1.000000 0.000000
vn 0.000000 1.000000 0.000000
vn 0.000000 1.000000 0.000000
vn 0.000000 0.767515 0.641031
vn 0.000000 0.767515 0.641031
vn 0.000000 0.767515 0.641031
vn 0.000000 0.767515 0.641031
vn 1.000000 0.000000 0.000000
vn 1.000000 0.000000 0.000000
vn 1.000000 0.000000 0.000000
vn 1.000000 0.000000 0.000000
vn 0.000000 -0.743279 -0.668981
vn 0.000000 -0.743279 -0.668981
vn 0.000000 -0.743279 -0.668981
vn 0.000000 -0.743279 -0.668981
vn -1.000000 0.000000 0.000000
vn -1.000000 0.000000 0.000000
vn -1.000000 0.000000 0.000000
vn -1.000000 0.000000 0.000000
vn 0.000000 0.767500 -0.641050
vn 0.000000 0.767500 -0.641050
vn 0.000000 0.767500 -0.641050
vn 0.000000 0.767500 -0.641050
vn -1.000000 0.000000 0.000000
vn -1.000000 0.000000 0.000000
vn -1.000000 0.000000 0.000000
vn -1.000000 0.000000 0.000000
vn 0.000000 -0.743299 0.668959
vn 0.000000 -0.743299 0.668959
vn 0.000000 -0.743299 0.668959
vn 0.000000 -0.743299 0.668959
vn 1.000000 0.000000 0.000000
vn 1.000000 0.000000 0.000000
vn 1.000000 0.000000 0.000000
vn 1.000000 0.000000 0.000000
vn 0.000000 1.000000 0.000000
vn 0.000000 1.000000 0.000000
vn 0.000000 1.000000 0.000000
vn 0.000000 1.000000 0.000000
vn 0.000000 -1.000000 0.000000
vn 0.000000 -1.000000 0.000000
vn 0.000000 -1.000000 0.000000
vn 0.000000 -1.000000 0.000000
vn 0.000011 0.742130 -0.670256
vn -0.000011 0.742130 -0.670256
vn -0.000004 0.742140 -0.670245
vn 0.000004 0.742140 -0.670245
vn 0.000000 1.000000 0.000000
vn 0.000000 1.000000 0.000000
vn 0.000000 1.000000 0.000000
vn 0.000000 1.000000 0.000000
vn 0.000000 0.000000 -1.000000
vn 0.000000 0.000000 -1.000000
vn 0.000000 0.000000 -1.000000
vn 0.000000 0.000000 -1.000000
vn 0.000000 -1.000000 0.000000
vn 0.000000 -1.000000 0.000000
vn 0.000000 -1.000000 0.000000
vn 0.000000 -1.000000 0.000000
vn 0.000001 -0.730744 0.682651
vn 0.000000 -0.730743 0.682653
vn -0.000000 -0.730743 0.682653
vn -0.000001 -0.730744 0.682651
vn 0.000000 0.580665 0.814143
vn 0.000000 0.580665 0.814143
vn 0.000000 0.580665 0.814143
vn 0.000000 0.580665 0.814143
vn -1.000000 -0.000000 0.000000
vn -1.000000 -0.000000 0.000000
vn -1.000000 -0.000000 0.000000
vn -1.000000 -0.000000 0.000000
vn 0.000003 -0.730742 0.682653
vn 0.000000 -0.730742 0.682654
vn 0.000000 -0.730743 0.682653
vn 0.000001 -0.730744 0.682651
vn -0.000000 -0.730743 0.682653
vn 0.000000 -0.730743 0.682653
vn 0.000000 -0.730742 0.682654
vn -0.000000 -0.730742 0.682654
vn -0.000001 -0.730744 0.682651
vn -0.000000 -0.730743 0.682653
vn -0.000000 -0.730742 0.682654
vn -0.000003 -0.730742 0.682653
vn 1.000000 0.000000 0.000000
vn 1.000000 0.000000 0.000000
vn 1.000000 0.000000 0.000000
vn 1.000000 0.000000 0.000000
vn -0.000004 0.742140 -0.670245
vn -0.000011 0.742130 -0.670256
vn -0.000020 0.742144 -0.670240
vn -0.000003 0.742146 -0.670238
vn 0.000004 0.742140 -0.670245
vn -0.000004 0.742140 -0.670245
vn -0.000003 0.742146 -0.670238
vn 0.000003 0.742146 -0.670238
vn 0.000011 0.742130 -0.670256
vn 0.000004 0.742140 -0.670245
vn 0.000003 0.742146 -0.670238
vn 0.000020 0.742144 -0.670240
vn 0.000000 -1.000000 0.000000
vn 0.000000 -1.000000 0.000000
vn 0.000000 -1.000000 0.000000
vn 0.000000 -1.000000 0.000000
vn 0.000000 1.000000 0.000000
vn 0.000000 1.000000 0.000000
vn 0.000000 1.000000 0.000000
vn 0.000000 1.000000 0.000000
s off
f 3/105/1 6/8/2 5/102/3 1/10/4
f 3/15/5 4/125/6 7/17/7 6/123/8
f 8/23/9 7/98/10 4/25/11 2/101/12
f 5/4/13 8/114/14 2/3/15 1/117/16
f 1/2/17 2/116/18 10/1/19 9/115/20
f 2/26/21 4/100/22 11/29/23 10/30/24
f 4/16/25 3/124/26 12/19/27 11/20/28
f 3/7/29 1/104/30 9/13/31 12/14/32
f 8/5/33 5/113/34 14/6/35 13/112/36
f 5/9/37 6/103/38 15/11/39 14/12/40
f 6/18/41 7/122/42 16/21/43 15/22/44
f 7/24/45 8/99/46 13/27/47 16/28/48
f 23/144/49 26/38/50 25/175/51 21/150/52
f 23/145/53 54/139/54 48/41/55 26/152/56
f 28/36/57 27/138/58 24/133/59 22/130/60
f 25/52/61 47/161/62 53/128/63 21/149/64
f 31/96/65 34/71/66 33/95/67 29/73/68
f 31/78/69 32/121/70 35/80/71 34/119/72
f 36/86/73 35/87/74 32/88/75 30/89/76
f 33/67/77 36/108/78 30/66/79 29/111/80
f 29/65/81 30/110/82 38/64/83 37/109/84
f 30/89/85 32/88/86 39/92/87 38/93/88
f 32/79/89 31/120/90 40/82/91 39/83/92
f 31/70/93 29/97/94 37/76/95 40/77/96
f 36/68/97 33/107/98 42/69/99 41/106/100
f 33/72/101 34/94/102 43/74/103 42/75/104
f 34/81/105 35/118/106 44/84/107 43/85/108
f 35/87/109 36/86/110 41/90/111 44/91/112
f 56/126/113 45/165/114 28/167/115 22/131/116
f 46/143/117 55/136/118 24/132/119 27/48/120
f 19/177/121 20/61/122 51/160/123 52/156/124
f 56/127/125 53/54/126 47/162/127 45/164/128
f 23/31/129 21/153/130 22/32/131 24/179/132
f 48/148/133 54/140/134 55/135/135 46/44/136
f 17/174/137 49/172/138 50/170/139 18/51/140
f 19/178/141 17/173/142 18/63/143 20/180/144
f 26/151/145 17/37/146 19/157/147 25/39/148
f 26/42/149 48/146/150 49/171/151 17/46/152
f 50/169/153 49/45/154 48/147/155 46/141/156
f 18/50/157 50/49/158 46/142/159 27/137/160
f 20/34/161 18/33/162 27/35/163 28/168/164
f 51/159/165 20/62/166 28/60/167 45/166/168
f 52/155/169 51/58/170 45/57/171 47/163/172
f 19/158/173 52/55/174 47/53/175 25/176/176
f 55/134/177 54/40/178 23/43/179 24/47/180
f 21/154/181 53/129/182 56/56/183 22/59/184
