# This file uses meters as units for non-parametric coordinates.

v -6.894167 7.126738 -0.118172
v -1.764870 7.126738 -0.118172
v -6.894167 9.388721 -0.118172
v -1.764870 9.388721 -0.118172
v -6.894167 9.388721 -0.201042
v -1.764870 9.388721 -0.201042
v -6.894167 7.126738 -0.201042
v -1.764870 7.126738 -0.201042
v -6.738258 9.245687 -0.201042
v -1.920784 9.245687 -0.201042
v -1.920784 7.269773 -0.201042
v -6.738258 7.269773 -0.201042
v -6.655628 9.176507 -0.201042
v -2.003418 9.176507 -0.201042
v -2.003418 7.338954 -0.201042
v -6.655628 7.338954 -0.201042
v -16.464052 6.583706 -0.119652
v -8.448927 6.583706 -0.119652
v -16.464052 10.198888 -0.119652
v -8.448927 10.198888 -0.119652
v -16.464052 10.198888 -0.202522
v -8.448927 10.198888 -0.202522
v -16.464052 6.583706 -0.202522
v -8.448927 6.583706 -0.202522
v -16.220428 9.987178 -0.202522
v -8.692562 9.987178 -0.202522
v -8.692562 6.795418 -0.202522
v -16.220428 6.795418 -0.202522
v -16.136856 9.910841 -0.202522
v -8.776136 9.910841 -0.202522
v -8.776136 6.871753 -0.202522
v -16.136856 6.871753 -0.202522
v -17.348236 0.256160 0.388638
v -17.348236 0.256160 -0.399117
v -17.348236 2.488788 0.388638
v -17.348236 2.488788 -0.399117
v -16.602455 2.488788 0.388638
v -16.602455 2.488788 -0.399117
v -16.602455 0.256160 0.388638
v -16.602455 0.256160 -0.399117
v -17.159489 2.488788 0.189266
v -17.159489 2.488788 -0.199738
v -16.791203 2.488788 -0.199738
v -16.791203 2.488788 0.189266
v -16.791203 9.040236 -0.199738
v -17.159489 9.040236 -0.199738
v -17.159489 9.040236 0.189266
v -16.791203 9.040236 0.189266
v -16.791203 8.837066 0.109291
v -16.791203 8.837066 -0.119766
v -16.791203 8.394537 -0.119766
v -16.791203 8.394537 0.109291
v -8.488258 8.837066 0.109291
v -8.488258 8.837066 -0.119766
v -8.488258 8.394537 -0.119766
v -8.488258 8.394537 0.109291
v -16.450027 0.256160 0.549641
v -16.450027 0.256160 -0.560120
v -16.450027 -0.002672 -0.560120
v -16.450027 -0.002672 0.549641
v -17.500664 0.256160 -0.560120
v -17.500664 -0.002672 -0.560120
v -17.500664 0.256160 0.549641
v -17.500664 -0.002672 0.549641
v -0.185314 8.064674 0.109291
v -0.185314 8.064674 -0.119766
v -0.185314 7.802119 -0.119766
v -0.185314 7.802119 0.109291
v -8.488258 8.064674 0.109291
v -8.488258 8.064674 -0.119766
v -8.488258 7.802119 -0.119766
v -8.488258 7.802119 0.109291
v 0.371719 0.256160 0.388638
v 0.371719 0.256160 -0.399117
v 0.371719 2.488788 0.388638
v 0.371719 2.488788 -0.399117
v -0.374062 2.488788 0.388638
v -0.374062 2.488788 -0.399117
v -0.374062 0.256160 0.388638
v -0.374062 0.256160 -0.399117
v 0.182972 2.488788 0.189266
v 0.182972 2.488788 -0.199738
v -0.185314 2.488788 -0.199738
v -0.185314 2.488788 0.189266
v -0.185314 9.040236 -0.199738
v 0.182972 9.040236 -0.199738
v 0.182972 9.040236 0.189266
v -0.185314 9.040236 0.189266
v -0.185314 8.837066 0.109291
v -0.185314 8.837066 -0.119766
v -0.185314 8.394537 -0.119766
v -0.185314 8.394537 0.109291
v -0.526489 0.256160 0.549641
v -0.526489 0.256160 -0.560120
v -0.526489 -0.002672 -0.560120
v -0.526489 -0.002672 0.549641
v 0.524147 0.256160 -0.560120
v 0.524147 -0.002672 -0.560120
v 0.524147 0.256160 0.549641
v 0.524147 -0.002672 0.549641
v -16.791203 8.064674 0.109291
v -16.791203 8.064674 -0.119766
v -16.791203 7.802119 -0.119766
v -16.791203 7.802119 0.109291
vt 0.043347 0.237903
vt 0.232863 0.472781
vt 0.239919 0.240927
vt 0.043347 0.237903
vt 0.109656 0.241267
vt 0.109656 0.241267
vt 0.109656 0.241267
vt 0.109656 0.241267
vt 0.043347 0.237903
vt 0.043347 0.237903
vt 0.043347 0.237903
vt 0.043347 0.237903
vt 0.043347 0.237903
vt 0.043347 0.237903
vt 0.387096 0.475806
vt 0.387096 0.475806
vt 0.387096 0.475806
vt 0.387096 0.475806
vt 0.387096 0.475806
vt 0.387096 0.475806
vt 0.387096 0.475806
vt 0.387096 0.475806
vt 0.387096 0.475806
vt 0.387096 0.475806
vt 0.387096 0.475806
vt 0.109656 0.241267
vt 0.387096 0.475806
vt 0.387096 0.475806
vt 0.109656 0.241267
vt 0.387096 0.475806
vt 0.109656 0.241267
vt 0.387096 0.475806
vt 0.109656 0.241267
vt 0.387096 0.475806
vt 0.043347 0.237903
vt 0.232863 0.472781
vt 0.239919 0.240927
vt 0.232863 0.472781
vt 0.232863 0.472781
vt 0.043347 0.237903
vt 0.043347 0.237903
vt 0.043347 0.237903
vt 0.239919 0.240927
vt 0.239919 0.240927
vt 0.338809 0.727783
vt 0.097779 0.727783
vt 0.097779 0.634064
vt 0.338809 0.634064
vt 0.232863 0.472781
vt 0.232863 0.472781
vt 0.232863 0.472781
vt 0.232863 0.472781
vt 0.239919 0.240927
vt 0.239919 0.240927
vt 0.239919 0.240927
vt 0.239919 0.240927
vt 0.353157 0.622289
vt 0.094610 0.622289
vt 0.094610 0.526525
vt 0.353157 0.526525
vt 0.043347 0.237903
vt 0.043347 0.237903
vt 0.043347 0.237903
vt 0.043347 0.237903
vt 0.043347 0.237903
vt 0.043347 0.237903
vt 0.043347 0.237903
vt 0.043347 0.237903
vt 0.043347 0.237903
vt 0.043347 0.237903
vt 0.043347 0.237903
vt 0.043347 0.237903
vt 0.109656 0.241267
vt 0.109656 0.241267
vt 0.109656 0.241267
vt 0.109656 0.241267
vt 0.109656 0.241267
vt 0.109656 0.241267
vt 0.109656 0.241267
vt 0.109656 0.241267
vt 0.387096 0.492573
vt 0.387096 0.492573
vt 0.387096 0.492573
vt 0.387096 0.492573
vt 0.387096 0.492573
vt 0.387096 0.492573
vt 0.387096 0.492573
vt 0.387096 0.492573
vt 0.387096 0.492573
vt 0.387096 0.492573
vt 0.387096 0.492573
vt 0.387096 0.492573
vt 0.387096 0.492573
vt 0.387096 0.492573
vt 0.387096 0.492573
vt 0.387096 0.492573
vt 0.264447 0.482616
vt 0.264447 0.482616
vt 0.264447 0.482616
vt 0.264447 0.482616
vt 0.264447 0.482616
vt 0.264447 0.482616
vt 0.264447 0.482616
vt 0.264447 0.482616
vt 0.198335 0.476005
vt 0.198335 0.476005
vt 0.198335 0.476005
vt 0.198335 0.476005
vt 0.198335 0.476005
vt 0.198335 0.476005
vt 0.198335 0.476005
vt 0.198335 0.476005
vt 0.323948 0.482616
vt 0.323948 0.482616
vt 0.323948 0.482616
vt 0.323948 0.482616
vt 0.323948 0.482616
vt 0.323948 0.482616
vt 0.323948 0.482616
vt 0.323948 0.482616
vt 0.323948 0.482616
vt 0.323948 0.482616
vt 0.323948 0.482616
vt 0.323948 0.482616
vt 0.323948 0.482616
vt 0.323948 0.482616
vt 0.323948 0.482616
vt 0.323948 0.482616
vt 0.264447 0.482616
vt 0.264447 0.482616
vt 0.264447 0.482616
vt 0.264447 0.482616
vt 0.198335 0.476005
vt 0.198335 0.476005
vt 0.198335 0.476005
vt 0.198335 0.476005
vt 0.267753 0.472699
vt 0.267753 0.472699
vt 0.267753 0.472699
vt 0.267753 0.472699
vt 0.198335 0.476005
vt 0.198335 0.476005
vt 0.198335 0.476005
vt 0.198335 0.476005
vt 0.323948 0.482616
vt 0.323948 0.482616
vt 0.323948 0.482616
vt 0.323948 0.482616
vt 0.198335 0.476005
vt 0.198335 0.476005
vt 0.198335 0.476005
vt 0.198335 0.476005
vt 0.198335 0.476005
vt 0.198335 0.476005
vt 0.198335 0.476005
vt 0.198335 0.476005
vt 0.175196 0.476005
vt 0.175196 0.476005
vt 0.175196 0.476005
vt 0.175196 0.476005
vt 0.264447 0.482616
vt 0.264447 0.482616
vt 0.264447 0.482616
vt 0.264447 0.482616
vt 0.198335 0.476005
vt 0.198335 0.476005
vt 0.198335 0.476005
vt 0.198335 0.476005
vt 0.264447 0.482616
vt 0.264447 0.482616
vt 0.264447 0.482616
vt 0.264447 0.482616
vt 0.198335 0.476005
vt 0.198335 0.476005
vt 0.198335 0.476005
vt 0.198335 0.476005
vt 0.323948 0.482616
vt 0.323948 0.482616
vt 0.323948 0.482616
vt 0.323948 0.482616
vt 0.323948 0.482616
vt 0.323948 0.482616
vt 0.323948 0.482616
vt 0.323948 0.482616
vt 0.323948 0.482616
vt 0.323948 0.482616
vt 0.323948 0.482616
vt 0.323948 0.482616
vt 0.323948 0.482616
vt 0.323948 0.482616
vt 0.323948 0.482616
vt 0.323948 0.482616
vt 0.323948 0.482616
vt 0.323948 0.482616
vt 0.323948 0.482616
vt 0.323948 0.482616
vt 0.323948 0.482616
vt 0.323948 0.482616
vt 0.323948 0.482616
vt 0.323948 0.482616
vt 0.323948 0.482616
vt 0.323948 0.482616
vt 0.198335 0.476005
vt 0.198335 0.476005
vt 0.198335 0.476005
vt 0.198335 0.476005
vt 0.198335 0.476005
vt 0.198335 0.476005
vt 0.198335 0.476005
vt 0.198335 0.476005
vt 0.175196 0.476005
vt 0.175196 0.476005
vt 0.175196 0.476005
vt 0.175196 0.476005
vt 0.264447 0.482616
vt 0.264447 0.482616
vt 0.264447 0.482616
vt 0.264447 0.482616
vt 0.264447 0.482616
vt 0.264447 0.482616
vt 0.264447 0.482616
vt 0.264447 0.482616
vt 0.198335 0.476005
vt 0.198335 0.476005
vt 0.198335 0.476005
vt 0.198335 0.476005
vt 0.198335 0.476005
vt 0.198335 0.476005
vt 0.198335 0.476005
vt 0.198335 0.476005
vt 0.323948 0.482616
vt 0.323948 0.482616
vt 0.323948 0.482616
vt 0.323948 0.482616
vt 0.323948 0.482616
vt 0.323948 0.482616
vt 0.323948 0.482616
vt 0.323948 0.482616
vt 0.323948 0.482616
vt 0.323948 0.482616
vt 0.323948 0.482616
vt 0.323948 0.482616
vt 0.323948 0.482616
vt 0.323948 0.482616
vt 0.323948 0.482616
vt 0.323948 0.482616
vt 0.264447 0.482616
vt 0.264447 0.482616
vt 0.264447 0.482616
vt 0.264447 0.482616
vt 0.198335 0.476005
vt 0.198335 0.476005
vt 0.198335 0.476005
vt 0.198335 0.476005
vt 0.267753 0.472699
vt 0.267753 0.472699
vt 0.267753 0.472699
vt 0.267753 0.472699
vt 0.198335 0.476005
vt 0.198335 0.476005
vt 0.198335 0.476005
vt 0.198335 0.476005
vt 0.323948 0.482616
vt 0.323948 0.482616
vt 0.323948 0.482616
vt 0.323948 0.482616
vt 0.198335 0.476005
vt 0.198335 0.476005
vt 0.198335 0.476005
vt 0.198335 0.476005
vt 0.198335 0.476005
vt 0.198335 0.476005
vt 0.198335 0.476005
vt 0.198335 0.476005
vt 0.175196 0.476005
vt 0.175196 0.476005
vt 0.175196 0.476005
vt 0.175196 0.476005
vt 0.264447 0.482616
vt 0.264447 0.482616
vt 0.264447 0.482616
vt 0.264447 0.482616
vt 0.198335 0.476005
vt 0.198335 0.476005
vt 0.198335 0.476005
vt 0.198335 0.476005
vt 0.264447 0.482616
vt 0.264447 0.482616
vt 0.264447 0.482616
vt 0.264447 0.482616
vt 0.198335 0.476005
vt 0.198335 0.476005
vt 0.198335 0.476005
vt 0.198335 0.476005
vt 0.323948 0.482616
vt 0.323948 0.482616
vt 0.323948 0.482616
vt 0.323948 0.482616
vt 0.323948 0.482616
vt 0.323948 0.482616
vt 0.323948 0.482616
vt 0.323948 0.482616
vt 0.323948 0.482616
vt 0.323948 0.482616
vt 0.323948 0.482616
vt 0.323948 0.482616
vt 0.323948 0.482616
vt 0.323948 0.482616
vt 0.323948 0.482616
vt 0.323948 0.482616
vt 0.323948 0.482616
vt 0.323948 0.482616
vt 0.323948 0.482616
vt 0.323948 0.482616
vt 0.323948 0.482616
vt 0.323948 0.482616
vt 0.323948 0.482616
vt 0.323948 0.482616
vt 0.323948 0.482616
vt 0.323948 0.482616
vt 0.198335 0.476005
vt 0.198335 0.476005
vt 0.198335 0.476005
vt 0.198335 0.476005
vt 0.198335 0.476005
vt 0.198335 0.476005
vt 0.198335 0.476005
vt 0.198335 0.476005
vt 0.175196 0.476005
vt 0.175196 0.476005
vt 0.175196 0.476005
vt 0.175196 0.476005
vn 0.000000 0.000000 1.000000
vn 0.000000 0.000000 1.000000
vn 0.000000 0.000000 1.000000
vn 0.000000 0.000000 1.000000
vn 0.000000 1.000000 0.000000
vn 0.000000 1.000000 0.000000
vn 0.000000 1.000000 0.000000
vn 0.000000 1.000000 0.000000
vn 0.000000 0.000000 -1.000000
vn 0.000000 0.000000 -1.000000
vn 0.000000 0.000000 -1.000000
vn 0.000000 0.000000 -1.000000
vn 0.000000 -1.000000 0.000000
vn 0.000000 -1.000000 0.000000
vn 0.000000 -1.000000 0.000000
vn 0.000000 -1.000000 0.000000
vn 1.000000 0.000000 0.000000
vn 1.000000 0.000000 0.000000
vn 1.000000 0.000000 0.000000
vn 1.000000 0.000000 0.000000
vn -1.000000 0.000000 0.000000
vn -1.000000 0.000000 0.000000
vn -1.000000 0.000000 0.000000
vn -1.000000 0.000000 0.000000
vn 0.000000 0.000000 -1.000000
vn 0.000000 0.000000 -1.000000
vn 0.000000 0.000000 -1.000000
vn 0.000000 0.000000 -1.000000
vn 0.000000 0.000000 -1.000000
vn 0.000000 0.000000 -1.000000
vn 0.000000 0.000000 -1.000000
vn 0.000000 0.000000 -1.000000
vn 0.000000 0.000000 -1.000000
vn 0.000000 0.000000 -1.000000
vn 0.000000 0.000000 -1.000000
vn 0.000000 0.000000 -1.000000
vn -0.000000 0.000000 -1.000000
vn -0.000000 0.000000 -1.000000
vn -0.000000 0.000000 -1.000000
vn -0.000000 0.000000 -1.000000
vn 0.000000 0.000000 -1.000000
vn 0.000000 0.000000 -1.000000
vn 0.000000 0.000000 -1.000000
vn 0.000000 0.000000 -1.000000
vn -0.000000 0.000000 -1.000000
vn -0.000000 0.000000 -1.000000
vn -0.000000 0.000000 -1.000000
vn -0.000000 0.000000 -1.000000
vn 0.000000 0.000000 -1.000000
vn 0.000000 0.000000 -1.000000
vn 0.000000 0.000000 -1.000000
vn 0.000000 0.000000 -1.000000
vn 0.000000 0.000000 -1.000000
vn 0.000000 0.000000 -1.000000
vn 0.000000 0.000000 -1.000000
vn 0.000000 0.000000 -1.000000
vn 0.000000 0.000000 1.000000
vn 0.000000 0.000000 1.000000
vn 0.000000 0.000000 1.000000
vn 0.000000 0.000000 1.000000
vn 0.000000 1.000000 0.000000
vn 0.000000 1.000000 0.000000
vn 0.000000 1.000000 0.000000
vn 0.000000 1.000000 0.000000
vn 0.000000 0.000000 -1.000000
vn 0.000000 0.000000 -1.000000
vn 0.000000 0.000000 -1.000000
vn 0.000000 0.000000 -1.000000
vn 0.000000 -1.000000 0.000000
vn 0.000000 -1.000000 0.000000
vn 0.000000 -1.000000 0.000000
vn 0.000000 -1.000000 0.000000
vn 1.000000 0.000000 0.000000
vn 1.000000 0.000000 0.000000
vn 1.000000 0.000000 0.000000
vn 1.000000 0.000000 0.000000
vn -1.000000 0.000000 0.000000
vn -1.000000 0.000000 0.000000
vn -1.000000 0.000000 0.000000
vn -1.000000 0.000000 0.000000
vn 0.000000 0.000000 -1.000000
vn 0.000000 0.000000 -1.000000
vn 0.000000 0.000000 -1.000000
vn 0.000000 0.000000 -1.000000
vn -0.000000 0.000000 -1.000000
vn -0.000000 0.000000 -1.000000
vn -0.000000 0.000000 -1.000000
vn -0.000000 0.000000 -1.000000
vn 0.000000 0.000000 -1.000000
vn 0.000000 0.000000 -1.000000
vn 0.000000 0.000000 -1.000000
vn 0.000000 0.000000 -1.000000
vn -0.000000 0.000000 -1.000000
vn -0.000000 0.000000 -1.000000
vn -0.000000 0.000000 -1.000000
vn -0.000000 0.000000 -1.000000
vn 0.000000 0.000000 -1.000000
vn 0.000000 0.000000 -1.000000
vn 0.000000 0.000000 -1.000000
vn 0.000000 0.000000 -1.000000
vn -0.000000 0.000000 -1.000000
vn -0.000000 0.000000 -1.000000
vn -0.000000 0.000000 -1.000000
vn -0.000000 0.000000 -1.000000
vn 0.000000 0.000000 -1.000000
vn 0.000000 0.000000 -1.000000
vn 0.000000 0.000000 -1.000000
vn 0.000000 0.000000 -1.000000
vn 0.000000 0.000000 -1.000000
vn 0.000000 0.000000 -1.000000
vn 0.000000 0.000000 -1.000000
vn 0.000000 0.000000 -1.000000
vn -1.000000 0.000000 0.000000
vn -1.000000 0.000000 0.000000
vn -1.000000 0.000000 0.000000
vn -1.000000 0.000000 0.000000
vn 1.000000 0.000000 -0.000000
vn 1.000000 0.000000 -0.000000
vn 1.000000 0.000000 -0.000000
vn 1.000000 0.000000 -0.000000
vn -0.000000 0.000000 -1.000000
vn -0.000000 0.000000 -1.000000
vn -0.000000 0.000000 -1.000000
vn -0.000000 0.000000 -1.000000
vn 0.000000 0.000000 1.000000
vn 0.000000 0.000000 1.000000
vn 0.000000 0.000000 1.000000
vn 0.000000 0.000000 1.000000
vn 0.000000 1.000000 0.000000
vn 0.000000 1.000000 0.000000
vn 0.000000 1.000000 0.000000
vn 0.000000 1.000000 0.000000
vn 0.000000 1.000000 0.000000
vn 0.000000 1.000000 0.000000
vn 0.000000 1.000000 0.000000
vn 0.000000 1.000000 0.000000
vn 0.000000 1.000000 0.000000
vn 0.000000 1.000000 0.000000
vn 0.000000 1.000000 0.000000
vn 0.000000 1.000000 0.000000
vn 0.000000 1.000000 0.000000
vn 0.000000 1.000000 0.000000
vn 0.000000 1.000000 0.000000
vn 0.000000 1.000000 0.000000
vn -1.000000 0.000000 0.000000
vn -1.000000 0.000000 0.000000
vn -1.000000 0.000000 0.000000
vn -1.000000 0.000000 0.000000
vn -0.000000 0.000000 -1.000000
vn -0.000000 0.000000 -1.000000
vn -0.000000 0.000000 -1.000000
vn -0.000000 0.000000 -1.000000
vn 1.000000 0.000000 -0.000000
vn 0.999999 0.001128 0.000567
vn 0.999999 0.001128 -0.000567
vn 1.000000 0.000000 -0.000000
vn 0.000000 0.000000 1.000000
vn 0.000000 0.000000 1.000000
vn 0.000000 0.000000 1.000000
vn 0.000000 0.000000 1.000000
vn 0.000000 1.000000 0.000000
vn 0.000000 1.000000 0.000000
vn 0.000000 1.000000 0.000000
vn 0.000000 1.000000 0.000000
vn -0.000000 0.000000 -1.000000
vn -0.000000 0.000000 -1.000000
vn -0.000000 0.000000 -1.000000
vn -0.000000 0.000000 -1.000000
vn 0.000000 0.000000 1.000000
vn 0.000000 0.000000 1.000000
vn 0.000000 0.000000 1.000000
vn 0.000000 0.000000 1.000000
vn 0.000000 -1.000000 0.000000
vn 0.000000 -1.000000 0.000000
vn 0.000000 -1.000000 0.000000
vn 0.000000 -1.000000 0.000000
vn 1.000000 0.000000 -0.000000
vn 1.000000 0.000000 -0.000000
vn 1.000000 0.000000 -0.000000
vn 1.000000 0.000000 -0.000000
vn -0.000000 0.000000 -1.000000
vn -0.000000 0.000000 -1.000000
vn -0.000000 0.000000 -1.000000
vn -0.000000 0.000000 -1.000000
vn -1.000000 0.000000 0.000000
vn -1.000000 0.000000 0.000000
vn -1.000000 0.000000 0.000000
vn -1.000000 0.000000 0.000000
vn 0.000000 0.000000 1.000000
vn 0.000000 0.000000 1.000000
vn 0.000000 0.000000 1.000000
vn 0.000000 0.000000 1.000000
vn 0.000000 1.000000 -0.000000
vn 0.000000 1.000000 -0.000000
vn 0.000000 1.000000 -0.000000
vn 0.000000 1.000000 -0.000000
vn 0.000000 1.000000 -0.000000
vn 0.000000 1.000000 -0.000000
vn -0.000000 1.000000 0.000000
vn -0.000000 1.000000 0.000000
vn -0.000000 1.000000 0.000000
vn -0.000000 1.000000 0.000000
vn -0.000000 1.000000 0.000000
vn -0.000000 1.000000 0.000000
vn -0.000000 1.000000 0.000000
vn -0.000000 1.000000 0.000000
vn 0.000000 1.000000 -0.000000
vn 0.000000 1.000000 -0.000000
vn 0.000000 1.000000 0.000000
vn 0.000000 1.000000 0.000000
vn 0.000000 1.000000 0.000000
vn 0.000000 1.000000 0.000000
vn 0.000000 1.000000 0.000000
vn 0.000000 1.000000 0.000000
vn 0.000000 1.000000 0.000000
vn 0.000000 1.000000 0.000000
vn 0.000000 1.000000 0.000000
vn 0.000000 1.000000 0.000000
vn 0.000000 0.000000 -1.000000
vn 0.000000 0.000000 -1.000000
vn 0.000000 0.000000 -1.000000
vn 0.000000 0.000000 -1.000000
vn -0.000000 0.000000 1.000000
vn -0.000000 0.000000 1.000000
vn -0.000000 0.000000 1.000000
vn -0.000000 0.000000 1.000000
vn 0.000000 -1.000000 0.000000
vn 0.000000 -1.000000 0.000000
vn 0.000000 -1.000000 0.000000
vn 0.000000 -1.000000 0.000000
vn 1.000000 0.000000 0.000000
vn 1.000000 0.000000 0.000000
vn 1.000000 0.000000 0.000000
vn 1.000000 0.000000 0.000000
vn -1.000000 0.000000 -0.000000
vn -1.000000 0.000000 -0.000000
vn -1.000000 0.000000 -0.000000
vn -1.000000 0.000000 -0.000000
vn 0.000000 0.000000 -1.000000
vn 0.000000 0.000000 -1.000000
vn 0.000000 0.000000 -1.000000
vn 0.000000 0.000000 -1.000000
vn -0.000000 0.000000 1.000000
vn -0.000000 0.000000 1.000000
vn -0.000000 0.000000 1.000000
vn -0.000000 0.000000 1.000000
vn 0.000000 1.000000 0.000000
vn 0.000000 1.000000 0.000000
vn 0.000000 1.000000 0.000000
vn 0.000000 1.000000 0.000000
vn 0.000000 1.000000 0.000000
vn 0.000000 1.000000 0.000000
vn 0.000000 1.000000 0.000000
vn 0.000000 1.000000 0.000000
vn 0.000000 1.000000 0.000000
vn 0.000000 1.000000 0.000000
vn 0.000000 1.000000 0.000000
vn 0.000000 1.000000 0.000000
vn 0.000000 1.000000 0.000000
vn 0.000000 1.000000 0.000000
vn 0.000000 1.000000 0.000000
vn 0.000000 1.000000 0.000000
vn 1.000000 0.000000 0.000000
vn 1.000000 0.000000 0.000000
vn 1.000000 0.000000 0.000000
vn 1.000000 0.000000 0.000000
vn 0.000000 0.000000 -1.000000
vn 0.000000 0.000000 -1.000000
vn 0.000000 0.000000 -1.000000
vn 0.000000 0.000000 -1.000000
vn -1.000000 0.000000 -0.000000
vn -1.000000 0.000000 -0.000000
vn -0.999999 0.001128 -0.000567
vn -0.999999 0.001128 0.000567
vn -0.000000 0.000000 1.000000
vn -0.000000 0.000000 1.000000
vn -0.000000 0.000000 1.000000
vn -0.000000 0.000000 1.000000
vn 0.000000 1.000000 0.000000
vn 0.000000 1.000000 0.000000
vn 0.000000 1.000000 0.000000
vn 0.000000 1.000000 0.000000
vn 0.000000 0.000000 -1.000000
vn 0.000000 0.000000 -1.000000
vn 0.000000 0.000000 -1.000000
vn 0.000000 0.000000 -1.000000
vn -0.000000 0.000000 1.000000
vn -0.000000 0.000000 1.000000
vn -0.000000 0.000000 1.000000
vn -0.000000 0.000000 1.000000
vn 0.000000 -1.000000 0.000000
vn 0.000000 -1.000000 0.000000
vn 0.000000 -1.000000 0.000000
vn 0.000000 -1.000000 0.000000
vn -1.000000 0.000000 -0.000000
vn -1.000000 0.000000 -0.000000
vn -1.000000 0.000000 -0.000000
vn -1.000000 0.000000 -0.000000
vn 0.000000 0.000000 -1.000000
vn 0.000000 0.000000 -1.000000
vn 0.000000 0.000000 -1.000000
vn 0.000000 0.000000 -1.000000
vn 1.000000 0.000000 0.000000
vn 1.000000 0.000000 0.000000
vn 1.000000 0.000000 0.000000
vn 1.000000 0.000000 0.000000
vn -0.000000 0.000000 1.000000
vn -0.000000 0.000000 1.000000
vn -0.000000 0.000000 1.000000
vn -0.000000 0.000000 1.000000
vn -0.000000 1.000000 -0.000000
vn -0.000000 1.000000 -0.000000
vn -0.000000 1.000000 -0.000000
vn -0.000000 1.000000 -0.000000
vn -0.000000 1.000000 -0.000000
vn 0.000000 1.000000 0.000000
vn 0.000000 1.000000 0.000000
vn -0.000000 1.000000 -0.000000
vn 0.000000 1.000000 0.000000
vn 0.000000 1.000000 0.000000
vn 0.000000 1.000000 0.000000
vn 0.000000 1.000000 0.000000
vn 0.000000 1.000000 0.000000
vn -0.000000 1.000000 -0.000000
vn -0.000000 1.000000 -0.000000
vn 0.000000 1.000000 0.000000
vn 0.000000 1.000000 0.000000
vn 0.000000 1.000000 0.000000
vn 0.000000 1.000000 0.000000
vn 0.000000 1.000000 0.000000
vn 0.000000 1.000000 0.000000
vn 0.000000 1.000000 0.000000
vn 0.000000 1.000000 0.000000
vn 0.000000 1.000000 0.000000
vn 0.000000 1.000000 0.000000
vn 0.000000 1.000000 0.000000
vn -0.000000 0.000000 -1.000000
vn -0.000000 0.000000 -1.000000
vn -0.000000 0.000000 -1.000000
vn -0.000000 0.000000 -1.000000
vn 0.000000 0.000000 1.000000
vn 0.000000 0.000000 1.000000
vn 0.000000 0.000000 1.000000
vn 0.000000 0.000000 1.000000
vn 0.000000 -1.000000 0.000000
vn 0.000000 -1.000000 0.000000
vn 0.000000 -1.000000 0.000000
vn 0.000000 -1.000000 0.000000
s off
f 1/38/1 2/2/2 4/36/3 3/39/4
f 3/3/5 4/37/6 6/43/7 5/44/8
f 13/45/9 14/46/10 15/47/11 16/48/12
f 7/42/13 8/41/14 2/10/15 1/9/16
f 2/35/17 8/11/18 6/12/19 4/4/20
f 7/13/21 1/1/22 3/40/23 5/14/24
f 5/5/25 6/6/26 10/31/27 9/33/28
f 6/6/29 8/8/30 11/29/31 10/31/32
f 8/8/33 7/7/34 12/26/35 11/29/36
f 7/7/37 5/5/38 9/33/39 12/26/40
f 9/15/41 10/32/42 14/28/43 13/22/44
f 10/16/45 11/30/46 15/25/47 14/19/48
f 11/17/49 12/27/50 16/24/51 15/20/52
f 12/18/53 9/34/54 13/23/55 16/21/56
f 17/49/57 18/50/58 20/51/59 19/52/60
f 19/53/61 20/54/62 22/55/63 21/56/64
f 29/57/65 30/58/66 31/59/67 32/60/68
f 23/61/69 24/62/70 18/63/71 17/64/72
f 18/65/73 24/66/74 22/67/75 20/68/76
f 23/69/77 17/70/78 19/71/79 21/72/80
f 21/73/81 22/74/82 26/75/83 25/76/84
f 22/74/85 24/77/86 27/78/87 26/75/88
f 24/77/89 23/79/90 28/80/91 27/78/92
f 23/79/93 21/73/94 25/76/95 28/80/96
f 25/81/97 26/82/98 30/83/99 29/84/100
f 26/85/101 27/86/102 31/87/103 30/88/104
f 27/89/105 28/90/106 32/91/107 31/92/108
f 28/93/109 25/94/110 29/95/111 32/96/112
f 33/97/113 35/98/114 36/99/115 34/100/116
f 37/101/117 39/102/118 40/103/119 38/104/120
f 34/105/121 36/106/122 38/107/123 40/108/124
f 39/109/125 37/110/126 35/111/127 33/112/128
f 35/113/129 41/114/130 42/115/131 36/116/132
f 36/117/133 42/118/134 43/119/135 38/120/136
f 38/121/137 43/122/138 44/123/139 37/124/140
f 37/125/141 44/126/142 41/127/143 35/128/144
f 41/129/145 47/130/146 46/131/147 42/132/148
f 42/133/149 46/134/150 45/135/151 43/136/152
f 43/137/153 45/138/154 48/139/155 44/140/156
f 44/141/157 48/142/158 47/143/159 41/144/160
f 49/145/161 53/146/162 54/147/163 50/148/164
f 50/149/165 54/150/166 55/151/167 51/152/168
f 52/153/169 56/154/170 53/155/171 49/156/172
f 51/157/173 55/158/174 56/159/175 52/160/176
f 57/161/177 60/162/178 59/163/179 58/164/180
f 58/165/181 59/166/182 62/167/183 61/168/184
f 61/169/185 62/170/186 64/171/187 63/172/188
f 63/173/189 64/174/190 60/175/191 57/176/192
f 39/177/193 57/178/194 58/179/195 40/180/196
f 40/181/197 58/182/198 61/183/199 34/184/200
f 34/185/201 61/186/202 63/187/203 33/188/204
f 33/189/205 63/190/206 57/191/207 39/192/208
f 45/193/209 46/194/210 48/195/211
f 48/196/212 46/197/213 47/198/214
f 65/199/215 66/200/216 70/201/217 69/202/218
f 66/203/219 67/204/220 71/205/221 70/206/222
f 68/207/223 65/208/224 69/209/225 72/210/226
f 67/211/227 68/212/228 72/213/229 71/214/230
f 73/215/231 74/216/232 76/217/233 75/218/234
f 77/219/235 78/220/236 80/221/237 79/222/238
f 74/223/239 80/224/240 78/225/241 76/226/242
f 79/227/243 73/228/244 75/229/245 77/230/246
f 75/231/247 76/232/248 82/233/249 81/234/250
f 76/235/251 78/236/252 83/237/253 82/238/254
f 78/239/255 77/240/256 84/241/257 83/242/258
f 77/243/259 75/244/260 81/245/261 84/246/262
f 81/247/263 82/248/264 86/249/265 87/250/266
f 82/251/267 83/252/268 85/253/269 86/254/270
f 83/255/271 84/256/272 88/257/273 85/258/274
f 84/259/275 81/260/276 87/261/277 88/262/278
f 89/263/279 90/264/280 54/265/281 53/266/282
f 90/267/283 91/268/284 55/269/285 54/270/286
f 92/271/287 89/272/288 53/273/289 56/274/290
f 91/275/291 92/276/292 56/277/293 55/278/294
f 93/279/295 94/280/296 95/281/297 96/282/298
f 94/283/299 97/284/300 98/285/301 95/286/302
f 97/287/303 99/288/304 100/289/305 98/290/306
f 99/291/307 93/292/308 96/293/309 100/294/310
f 79/295/311 80/296/312 94/297/313 93/298/314
f 80/299/315 74/300/316 97/301/317 94/302/318
f 74/303/319 73/304/320 99/305/321 97/306/322
f 73/307/323 79/308/324 93/309/325 99/310/326
f 85/311/327 88/312/328 86/313/329
f 88/314/330 87/315/331 86/316/332
f 101/317/333 69/318/334 70/319/335 102/320/336
f 102/321/337 70/322/338 71/323/339 103/324/340
f 104/325/341 72/326/342 69/327/343 101/328/344
f 103/329/345 71/330/346 72/331/347 104/332/348
