# This file uses meters as units for non-parametric coordinates.

v -0.605380 3.623636 0.612320
v 0.605379 3.623636 0.612320
v -0.605380 3.893540 0.612320
v 0.605379 3.893540 0.612320
v -0.605380 3.893540 -0.608368
v 0.605379 3.893540 -0.608368
v -0.605380 3.623636 -0.608368
v 0.605379 3.623636 -0.608368
v -0.082065 4.268717 0.084702
v 0.082063 4.268717 0.084702
v -0.082065 4.824450 0.084702
v 0.082063 4.824450 0.084702
v -0.082065 4.824450 -0.080780
v 0.082063 4.824450 -0.080780
v -0.082065 4.268717 -0.080780
v 0.082063 4.268717 -0.080780
v -0.252241 4.824450 0.256317
v 0.252240 4.824450 0.256317
v 0.252240 4.824450 -0.252335
v -0.252241 4.824450 -0.252335
v -0.252241 5.070615 0.256317
v 0.252240 5.070615 0.256317
v 0.252240 5.070615 -0.252335
v -0.252241 5.070615 -0.252335
v -0.121165 5.494784 0.124130
v 0.121165 5.494784 0.124130
v 0.121165 5.494784 -0.120193
v -0.121165 5.494784 -0.120193
v -0.765635 2.593671 0.773880
v 0.765633 2.593671 0.773880
v -0.765635 2.807892 0.773880
v 0.765633 2.807892 0.773880
v -0.765635 2.807892 -0.769928
v 0.765633 2.807892 -0.769928
v -0.765635 2.593671 -0.769928
v 0.765633 2.593671 -0.769928
v -0.315111 1.189424 0.319656
v 0.315110 1.189424 0.319656
v -0.315111 4.268717 0.319656
v 0.315110 4.268717 0.319656
v -0.315111 4.268717 -0.315735
v 0.315110 4.268717 -0.315735
v -0.315111 1.189424 -0.315735
v 0.315110 1.189424 -0.315735
v 0.657590 0.000000 -1.140961
v -0.657591 0.000000 -1.140961
v -1.315181 0.000000 -0.001968
v -0.657592 0.000000 1.137009
v 0.657588 0.000000 1.137009
v 1.315179 0.000000 -0.001968
v 0.657590 1.218774 -1.137009
v -0.657591 1.218774 -1.137009
v -1.315181 1.218774 0.001968
v -0.657592 1.218774 1.137009
v 0.657588 1.218774 1.140961
v 1.315179 1.218774 0.001968
v -0.000001 0.000000 -0.001968
v -0.000001 1.218774 0.001968
v 0.657590 0.971773 -1.140961
v 1.315179 0.971773 -0.001968
v 0.657588 0.971773 1.137009
v -0.657592 0.971773 1.137009
v -1.315181 0.971773 -0.001968
v -0.657591 0.971773 -1.140961
vt 0.298228 0.220593
vt 0.330774 0.220593
vt 0.357895 0.223848
vt 0.330774 0.220593
vt 0.330774 0.220593
vt 0.357895 0.223848
vt 0.232052 0.215169
vt 0.330774 0.220593
vt 0.232052 0.215169
vt 0.232052 0.215169
vt 0.330774 0.220593
vt 0.330774 0.220593
vt 0.298228 0.220593
vt 0.298228 0.220593
vt 0.207658 0.062627
vt 0.233288 0.066783
vt 0.174491 0.479413
vt 0.174491 0.479413
vt 0.290605 0.376126
vt 0.201494 0.380851
vt 0.267652 0.378151
vt 0.201494 0.380851
vt 0.174491 0.479413
vt 0.174491 0.479413
vt 0.233288 0.066783
vt 0.298228 0.220593
vt 0.298228 0.220593
vt 0.298228 0.220593
vt 0.207658 0.062627
vt 0.207658 0.062627
vt 0.207658 0.062627
vt 0.207658 0.062627
vt 0.174491 0.479413
vt 0.198794 0.480088
vt 0.198794 0.480088
vt 0.174491 0.479413
vt 0.201494 0.380851
vt 0.267652 0.378151
vt 0.267652 0.378151
vt 0.201494 0.380851
vt 0.298228 0.220593
vt 0.330774 0.220593
vt 0.298228 0.220593
vt 0.357895 0.223848
vt 0.357895 0.223848
vt 0.330774 0.220593
vt 0.330774 0.220593
vt 0.232052 0.215169
vt 0.232052 0.215169
vt 0.232052 0.215169
vt 0.298228 0.220593
vt 0.298228 0.220593
vt 0.298228 0.220593
vt 0.298228 0.220593
vt 0.298228 0.220593
vt 0.330774 0.220593
vt 0.298228 0.220593
vt 0.357895 0.223848
vt 0.357895 0.223848
vt 0.330774 0.220593
vt 0.330774 0.220593
vt 0.298228 0.220593
vt 0.298228 0.220593
vt 0.298228 0.220593
vt 0.298228 0.220593
vt 0.298228 0.220593
vt 0.298228 0.220593
vt 0.298228 0.220593
vt 0.202025 0.059667
vt 0.202025 0.059667
vt 0.298228 0.220593
vt 0.202025 0.059667
vt 0.232401 0.059667
vt 0.328604 0.220593
vt 0.202025 0.059667
vt 0.298228 0.220593
vt 0.169479 0.059667
vt 0.265682 0.220593
vt 0.202025 0.059667
vt 0.298228 0.220593
vt 0.232401 0.059667
vt 0.232401 0.059667
vt 0.169479 0.062922
vt 0.169479 0.062922
vt 0.169479 0.062922
vt 0.169479 0.062922
vt 0.169479 0.062922
vt 0.169479 0.062922
vt 0.169479 0.062922
vt 0.364404 0.216254
vt 0.364404 0.216254
vt 0.364404 0.216254
vt 0.364404 0.216254
vt 0.364404 0.216254
vt 0.364404 0.216254
vt 0.364404 0.216254
vt 0.328604 0.220593
vt 0.298228 0.220593
vt 0.265682 0.220593
vt 0.298228 0.220593
vt 0.328604 0.220593
vt 0.298228 0.220593
vt 0.298228 0.220593
vt 0.232401 0.059667
vt 0.202025 0.059667
vt 0.328604 0.220593
vt 0.298228 0.220593
vt 0.202025 0.059667
vt 0.232401 0.059667
vt 0.169479 0.059667
vt 0.202025 0.059667
vt 0.202025 0.059667
vt 0.169479 0.059667
vt 0.232401 0.059667
vt 0.202025 0.059667
vt 0.169479 0.062922
vt 0.169479 0.062922
vt 0.169479 0.062922
vt 0.169479 0.062922
vt 0.169479 0.062922
vt 0.232401 0.059667
vt 0.169479 0.062922
vt 0.202025 0.059667
vt 0.169479 0.062922
vt 0.169479 0.059667
vt 0.169479 0.062922
vt 0.202025 0.059667
vt 0.169479 0.062922
vt 0.232401 0.059667
vt 0.169479 0.062922
vt 0.169479 0.062922
vt 0.298228 0.220593
vt 0.328604 0.220593
vt 0.328604 0.220593
vt 0.298228 0.220593
vt 0.328604 0.220593
vt 0.328604 0.220593
vt 0.298228 0.220593
vt 0.265682 0.220593
vt 0.265682 0.220593
vt 0.298228 0.220593
vt 0.330774 0.220593
vt 0.298228 0.220593
vt 0.357895 0.223848
vt 0.330774 0.220593
vt 0.298228 0.220593
vt 0.330774 0.220593
vt 0.357895 0.223848
vt 0.330774 0.220593
vt 0.330774 0.220593
vt 0.298228 0.220593
vt 0.330774 0.220593
vt 0.232052 0.215169
vt 0.357895 0.223848
vt 0.330774 0.220593
vt 0.298228 0.220593
vt 0.330774 0.220593
vt 0.357895 0.223848
vt 0.330774 0.220593
vt 0.330774 0.220593
vt 0.298228 0.220593
vt 0.232052 0.215169
vt 0.330774 0.220593
vt 0.330774 0.220593
vt 0.357895 0.223848
vt 0.330774 0.220593
vt 0.330774 0.220593
vt 0.357895 0.223848
vt 0.330774 0.220593
vt 0.330774 0.220593
vt 0.298228 0.220593
vt 0.364404 0.216254
vt 0.364404 0.216254
vt 0.364404 0.216254
vt 0.364404 0.216254
vt 0.364404 0.216254
vt 0.364404 0.216254
vt 0.364404 0.216254
vt 0.364404 0.216254
vt 0.364404 0.216254
vt 0.364404 0.216254
vt 0.364404 0.216254
vt 0.298228 0.220593
vt 0.207658 0.062627
vt 0.233288 0.066783
vt 0.233288 0.066783
vt 0.233288 0.066783
vt 0.233288 0.066783
vt 0.207658 0.062627
vt 0.233288 0.066783
vt 0.233288 0.066783
vt 0.207658 0.062627
vt 0.267652 0.378151
vt 0.201494 0.380851
vt 0.267652 0.378151
vt 0.290605 0.376126
vt 0.201494 0.380851
vt 0.290605 0.376126
vt 0.174491 0.479413
vt 0.267652 0.378151
vt 0.267652 0.378151
vt 0.290605 0.376126
vt 0.198794 0.480088
vt 0.201494 0.380851
vt 0.174491 0.479413
vt 0.267652 0.378151
vt 0.198794 0.480088
vt 0.201494 0.380851
vt 0.174491 0.479413
vt 0.198794 0.480088
vt 0.174491 0.479413
vt 0.174491 0.479413
vt 0.174491 0.479413
vt 0.198794 0.480088
vt 0.198794 0.480088
vt 0.174491 0.479413
vt 0.174491 0.479413
vt 0.174491 0.479413
vt 0.174491 0.479413
vt 0.174491 0.479413
vt 0.198794 0.480088
vt 0.174491 0.479413
vt 0.174491 0.479413
vt 0.174491 0.479413
vt 0.174491 0.479413
vt 0.174491 0.479413
vt 0.174491 0.479413
vt 0.174491 0.479413
vn 0.000000 0.000000 1.000000
vn 0.000000 0.000000 1.000000
vn 0.000000 0.000000 1.000000
vn 0.000000 0.000000 1.000000
vn 0.000000 1.000000 0.000000
vn 0.000000 1.000000 0.000000
vn 0.000000 1.000000 0.000000
vn 0.000000 1.000000 0.000000
vn 0.000000 0.000000 -1.000000
vn 0.000000 0.000000 -1.000000
vn 0.000000 0.000000 -1.000000
vn 0.000000 0.000000 -1.000000
vn 0.000000 -1.000000 0.000000
vn 0.000000 -1.000000 0.000000
vn 0.000000 -1.000000 0.000000
vn 0.000000 -1.000000 0.000000
vn 1.000000 0.000000 0.000000
vn 1.000000 0.000000 0.000000
vn 1.000000 0.000000 0.000000
vn 1.000000 0.000000 0.000000
vn -1.000000 0.000000 0.000000
vn -1.000000 0.000000 0.000000
vn -1.000000 0.000000 0.000000
vn -1.000000 0.000000 0.000000
vn 0.000000 0.000000 1.000000
vn 0.000000 0.000000 1.000000
vn 0.000000 0.000000 1.000000
vn 0.000000 0.000000 1.000000
vn 0.000000 1.000000 0.000000
vn 0.000000 1.000000 0.000000
vn 0.000000 1.000000 0.000000
vn 0.000000 1.000000 0.000000
vn 0.000000 0.000000 -1.000000
vn 0.000000 0.000000 -1.000000
vn 0.000000 0.000000 -1.000000
vn 0.000000 0.000000 -1.000000
vn 0.000000 -1.000000 0.000000
vn 0.000000 -1.000000 0.000000
vn 0.000000 -1.000000 0.000000
vn 0.000000 -1.000000 0.000000
vn 1.000000 0.000000 0.000000
vn 1.000000 0.000000 0.000000
vn 1.000000 0.000000 0.000000
vn 1.000000 0.000000 0.000000
vn -1.000000 0.000000 0.000000
vn -1.000000 0.000000 0.000000
vn -1.000000 0.000000 0.000000
vn -1.000000 0.000000 0.000000
vn 0.000000 -1.000000 0.000000
vn 0.000000 -1.000000 0.000000
vn 0.000000 -1.000000 0.000000
vn 0.000000 -1.000000 0.000000
vn 0.000000 -1.000000 0.000000
vn 0.000000 -1.000000 0.000000
vn 0.000000 -1.000000 0.000000
vn 0.000000 -1.000000 0.000000
vn 0.000000 -1.000000 0.000001
vn 0.000000 -1.000000 0.000001
vn 0.000000 -1.000000 0.000001
vn 0.000000 -1.000000 0.000001
vn 0.000000 -1.000000 0.000000
vn 0.000000 -1.000000 0.000000
vn 0.000000 -1.000000 0.000000
vn 0.000000 -1.000000 0.000000
vn 0.000000 0.000000 1.000000
vn 0.000000 0.000000 1.000000
vn 0.000000 0.000000 1.000000
vn 0.000000 0.000000 1.000000
vn 1.000000 0.000000 0.000000
vn 1.000000 0.000000 0.000000
vn 1.000000 0.000000 0.000000
vn 1.000000 0.000000 0.000000
vn 0.000000 0.000000 -1.000000
vn 0.000000 0.000000 -1.000000
vn 0.000000 0.000000 -1.000000
vn 0.000000 0.000000 -1.000000
vn -1.000000 0.000000 0.000000
vn -1.000000 0.000000 0.000000
vn -1.000000 0.000000 0.000000
vn -1.000000 0.000000 0.000000
vn 0.000000 0.297524 0.954714
vn 0.000000 0.297524 0.954714
vn 0.000000 0.297524 0.954714
vn 0.000000 0.297524 0.954714
vn 0.955423 0.295240 0.000000
vn 0.955423 0.295240 0.000000
vn 0.955423 0.295240 0.000000
vn 0.955423 0.295240 0.000000
vn 0.000000 0.297430 -0.954744
vn 0.000000 0.297430 -0.954744
vn 0.000000 0.297430 -0.954744
vn 0.000000 0.297430 -0.954744
vn -0.955422 0.295242 0.000000
vn -0.955422 0.295242 0.000000
vn -0.955422 0.295242 0.000000
vn -0.955422 0.295242 0.000000
vn 0.000000 0.000000 1.000000
vn 0.000000 0.000000 1.000000
vn 0.000000 0.000000 1.000000
vn 0.000000 0.000000 1.000000
vn 0.000000 1.000000 0.000000
vn 0.000000 1.000000 0.000000
vn 0.000000 1.000000 0.000000
vn 0.000000 1.000000 0.000000
vn 0.000000 0.000000 -1.000000
vn 0.000000 0.000000 -1.000000
vn 0.000000 0.000000 -1.000000
vn 0.000000 0.000000 -1.000000
vn 0.000000 -1.000000 0.000000
vn 0.000000 -1.000000 0.000000
vn 0.000000 -1.000000 0.000000
vn 0.000000 -1.000000 0.000000
vn 1.000000 0.000000 0.000000
vn 1.000000 0.000000 0.000000
vn 1.000000 0.000000 0.000000
vn 1.000000 0.000000 0.000000
vn -1.000000 0.000000 0.000000
vn -1.000000 0.000000 0.000000
vn -1.000000 0.000000 0.000000
vn -1.000000 0.000000 0.000000
vn 0.000000 0.000000 1.000000
vn 0.000000 0.000000 1.000000
vn 0.000000 0.000000 1.000000
vn 0.000000 0.000000 1.000000
vn 0.000000 1.000000 0.000000
vn 0.000000 1.000000 0.000000
vn 0.000000 1.000000 0.000000
vn 0.000000 1.000000 0.000000
vn 0.000000 0.000000 -1.000000
vn 0.000000 0.000000 -1.000000
vn 0.000000 0.000000 -1.000000
vn 0.000000 0.000000 -1.000000
vn 0.000000 -1.000000 0.000000
vn 0.000000 -1.000000 0.000000
vn 0.000000 -1.000000 0.000000
vn 0.000000 -1.000000 0.000000
vn 1.000000 0.000000 0.000000
vn 1.000000 0.000000 0.000000
vn 1.000000 0.000000 0.000000
vn 1.000000 0.000000 0.000000
vn -1.000000 0.000000 0.000000
vn -1.000000 0.000000 0.000000
vn -1.000000 0.000000 0.000000
vn -1.000000 0.000000 0.000000
vn 0.000000 0.000000 -1.000000
vn 0.000000 0.000000 -1.000000
vn 0.000000 0.003243 -0.999995
vn 0.000000 0.003243 -0.999995
vn -0.866028 0.000000 -0.499996
vn -0.866028 0.000000 -0.499996
vn -0.866026 0.001630 -0.499996
vn -0.866027 0.001607 -0.499996
vn -0.866025 0.000000 0.500000
vn -0.866025 0.000000 0.500000
vn -0.865949 -0.000808 0.500131
vn -0.865950 -0.000802 0.500130
vn 0.000000 0.000000 1.000000
vn 0.000000 0.000000 1.000000
vn -0.000304 -0.001621 0.999999
vn -0.000304 -0.001621 0.999999
vn 0.866025 0.000000 0.500001
vn 0.866025 0.000000 0.500001
vn 0.866024 -0.001607 0.500000
vn 0.866024 -0.001630 0.500000
vn 0.866028 0.000000 -0.499995
vn 0.866028 0.000000 -0.499995
vn 0.866027 0.001607 -0.499995
vn 0.866027 0.001629 -0.499995
vn 0.000000 -1.000000 0.000000
vn 0.000000 -1.000000 0.000000
vn 0.000000 -1.000000 0.000000
vn 0.000000 -1.000000 0.000000
vn 0.000000 -1.000000 0.000000
vn 0.000000 -1.000000 0.000000
vn 0.000000 -1.000000 0.000000
vn 0.000000 -1.000000 0.000000
vn 0.000000 -1.000000 0.000000
vn 0.000000 -1.000000 0.000000
vn 0.000000 -1.000000 0.000000
vn 0.000000 -1.000000 0.000000
vn 0.000000 -1.000000 0.000000
vn 0.000000 -1.000000 0.000000
vn 0.000000 -1.000000 0.000000
vn 0.000000 -1.000000 0.000000
vn 0.000000 -1.000000 0.000000
vn 0.000000 -1.000000 0.000000
vn 0.000000 1.000000 -0.000000
vn 0.000000 1.000000 -0.000000
vn 0.000000 1.000000 -0.000000
vn 0.000000 1.000000 -0.000000
vn 0.000000 1.000000 0.000000
vn 0.000000 1.000000 -0.000000
vn 0.000000 1.000000 0.000000
vn 0.000000 1.000000 0.000000
vn 0.000000 1.000000 -0.000000
vn 0.000000 1.000000 0.000000
vn 0.000000 1.000000 0.000000
vn 0.000000 1.000000 -0.000000
vn 0.000000 1.000000 0.000000
vn 0.000000 1.000000 -0.000000
vn 0.000000 1.000000 -0.000000
vn 0.000000 1.000000 -0.000000
vn 0.000000 1.000000 -0.000000
vn 0.000000 1.000000 -0.000000
vn 0.866027 0.001629 -0.499995
vn 0.866027 0.001607 -0.499995
vn 0.865999 0.007984 -0.499982
vn 0.865999 0.007984 -0.499982
vn 0.866024 -0.001630 0.500000
vn 0.866024 -0.001607 0.500000
vn 0.865999 -0.007984 0.499983
vn 0.865999 -0.007984 0.499983
vn -0.000304 -0.001621 0.999999
vn -0.000304 -0.001621 0.999999
vn -0.001502 -0.008000 0.999967
vn -0.001502 -0.008000 0.999967
vn -0.865950 -0.000802 0.500130
vn -0.865949 -0.000808 0.500131
vn -0.865644 -0.003989 0.500645
vn -0.865644 -0.003989 0.500645
vn -0.866027 0.001607 -0.499996
vn -0.866026 0.001630 -0.499996
vn -0.865999 0.007985 -0.499982
vn -0.865999 0.007985 -0.499982
vn 0.000000 0.003243 -0.999995
vn 0.000000 0.003243 -0.999995
vn 0.000000 0.015998 -0.999872
vn 0.000000 0.015998 -0.999872
s off
f 1/169/1 2/2/2 4/167/3 3/170/4
f 3/3/5 4/168/6 6/6/7 5/165/8
f 5/5/9 6/164/10 8/8/11 7/166/12
f 7/7/13 8/162/14 2/10/15 1/9/16
f 2/163/17 8/11/18 6/12/19 4/4/20
f 7/13/21 1/1/22 3/171/23 5/14/24
f 9/186/25 10/16/26 12/190/27 11/191/28
f 25/19/29 26/202/30 27/198/31 28/196/32
f 13/188/33 14/187/34 16/25/35 15/185/36
f 15/26/37 16/183/38 10/27/39 9/28/40
f 10/184/41 16/29/42 14/30/43 12/189/44
f 15/31/45 9/15/46 11/192/47 13/32/48
f 11/18/49 12/227/50 18/220/51 17/222/52
f 12/17/53 14/226/54 19/217/55 18/219/56
f 14/24/57 13/225/58 20/213/59 19/216/60
f 13/23/61 11/228/62 17/223/63 20/212/64
f 17/34/65 18/221/66 22/215/67 21/207/68
f 18/33/69 19/218/70 23/211/71 22/205/72
f 19/35/73 20/214/74 24/210/75 23/203/76
f 20/36/77 17/224/78 21/209/79 24/199/80
f 21/38/81 22/206/82 26/201/83 25/193/84
f 22/37/85 23/204/86 27/197/87 26/20/88
f 23/39/89 24/200/90 28/195/91 27/21/92
f 24/40/93 21/208/94 25/194/95 28/22/96
f 29/159/97 30/42/98 32/157/99 31/160/100
f 31/44/101 32/158/102 34/45/103 33/154/104
f 33/46/105 34/152/106 36/47/107 35/155/108
f 35/48/109 36/153/110 30/49/111 29/50/112
f 30/156/113 36/51/114 34/52/115 32/43/116
f 35/53/117 29/41/118 31/161/119 33/54/120
f 37/149/121 38/56/122 40/147/123 39/150/124
f 39/58/125 40/148/126 42/59/127 41/144/128
f 41/60/129 42/142/130 44/61/131 43/145/132
f 43/62/133 44/143/134 38/63/135 37/64/136
f 38/146/137 44/65/138 42/66/139 40/57/140
f 43/67/141 37/55/142 39/151/143 41/68/144
f 45/69/145 46/70/146 64/105/147 59/72/148
f 46/129/149 47/73/150 63/109/151 64/104/152
f 47/127/153 48/75/154 62/111/155 63/108/156
f 48/125/157 49/77/158 61/113/159 62/110/160
f 49/123/161 50/79/162 60/115/163 61/112/164
f 50/121/165 45/81/166 59/82/167 60/114/168
f 46/83/169 45/131/170 57/116/171
f 47/86/172 46/130/173 57/117/174
f 48/87/175 47/128/176 57/118/177
f 49/88/178 48/126/179 57/119/180
f 50/89/181 49/124/182 57/120/183
f 45/84/184 50/122/185 57/85/186
f 51/182/187 52/91/188 58/176/189
f 52/181/190 53/93/191 58/175/192
f 53/180/193 54/94/194 58/174/195
f 54/179/196 55/95/197 58/173/198
f 55/178/199 56/96/200 58/92/201
f 56/172/202 51/90/203 58/177/204
f 60/136/205 59/106/206 51/97/207 56/137/208
f 61/138/209 60/80/210 56/98/211 55/141/212
f 62/139/213 61/78/214 55/99/215 54/140/216
f 63/132/217 62/76/218 54/100/219 53/135/220
f 64/133/221 63/74/222 53/101/223 52/134/224
f 59/107/225 64/71/226 52/102/227 51/103/228
