# This file uses meters as units for non-parametric coordinates.

v 0.000000 -0.194796 -2.869128
v 0.000000 -0.194796 -10.000000
v 4.999990 -0.194796 -10.000000
v 0.000000 0.000000 -2.869128
v 0.000000 0.000000 0.000000
v 4.999990 0.000000 0.000000
v 0.000000 -0.194796 -3.165322
v 2.499995 0.000000 0.000000
v 2.499995 0.000000 -2.869128
v 2.499995 -0.194796 -2.869128
v 2.499995 -0.194796 -3.165322
v 2.499995 -0.194796 -10.000000
v 4.999990 -0.194796 -3.165322
v 4.999990 0.000000 -2.869128
v 4.999990 -0.194796 -2.869128
v 0.000000 -0.194796 0.000000
v 2.499995 -0.194796 0.000000
v 4.999990 -0.194796 0.000000
vt 0.375414 0.006424
vt 0.993029 0.006424
vt 0.993029 0.006424
vt 0.341073 0.006424
vt 0.317897 0.006424
vt 0.007688 0.006424
vt 0.007688 0.006424
vt 0.007688 0.500000
vt 0.317897 0.500000
vt 0.341073 0.500000
vt 0.375414 0.488971
vt 0.993029 0.488971
vt 0.375414 0.006424
vt 0.317897 0.006424
vt 0.341073 0.006424
vt 0.341073 0.500000
vt 0.375414 0.488971
vt 0.007688 0.500000
vt 0.317897 0.500000
vt 0.993029 0.488971
vt 0.332407 0.464906
vt 0.324431 0.464906
vt 0.324431 0.456929
vt 0.332407 0.456929
vt 0.332407 0.464906
vt 0.324431 0.464906
vt 0.324431 0.456929
vt 0.332407 0.456929
vn 0.000000 1.000000 0.000000
vn 0.000000 1.000000 0.000000
vn 0.000000 1.000000 0.000000
vn 0.000000 1.000000 0.000000
vn 0.000000 0.000000 -1.000000
vn 0.000000 0.000000 -1.000000
vn 0.000000 0.000000 -1.000000
vn 0.000000 0.000000 -1.000000
vn 0.000000 1.000000 0.000000
vn 0.000000 1.000000 0.000000
vn 0.000000 1.000000 0.000000
vn 0.000000 1.000000 0.000000
vn 0.000000 1.000000 0.000000
vn 0.000000 1.000000 0.000000
vn 0.000000 1.000000 0.000000
vn 0.000000 1.000000 0.000000
vn 0.000000 1.000000 0.000000
vn 0.000000 1.000000 0.000000
vn 0.000000 1.000000 0.000000
vn 0.000000 1.000000 0.000000
vn 0.000000 0.000000 -1.000000
vn 0.000000 0.000000 -1.000000
vn 0.000000 0.000000 -1.000000
vn 0.000000 0.000000 -1.000000
vn 0.000000 1.000000 0.000000
vn 0.000000 1.000000 0.000000
vn 0.000000 1.000000 0.000000
vn 0.000000 1.000000 0.000000
vn 0.000000 1.000000 0.000000
vn 0.000000 1.000000 0.000000
vn 0.000000 1.000000 0.000000
vn 0.000000 1.000000 0.000000
vn 0.000000 0.000000 1.000000
vn 0.000000 0.000000 1.000000
vn 0.000000 0.000000 1.000000
vn 0.000000 0.000000 1.000000
vn 0.000000 0.000000 1.000000
vn 0.000000 0.000000 1.000000
vn 0.000000 0.000000 1.000000
vn 0.000000 0.000000 1.000000
s off
f 7/1/1 11/17/2 12/20/3 2/3/4
f 10/16/5 1/4/6 4/5/7 9/19/8
f 8/8/9 9/19/10 4/5/11 5/7/12
f 1/4/13 10/16/14 11/17/15 7/1/16
f 6/6/17 14/14/18 9/9/19 8/18/20
f 15/15/21 10/10/22 9/9/23 14/14/24
f 11/11/25 10/10/26 15/15/27 13/13/28
f 12/12/29 11/11/30 13/13/31 3/2/32
f 8/21/33 5/22/34 16/23/35 17/24/36
f 6/25/37 8/26/38 17/27/39 18/28/40
