# This file uses meters as units for non-parametric coordinates.

v -4.999990 -0.194796 -2.869128
v -4.999990 -0.194796 -10.000000
v -4.999990 0.000000 -2.869128
v -4.999990 0.000000 0.000000
v 0.000000 0.000000 0.000000
v -4.999990 -0.194796 -3.165322
v -2.869121 0.000000 0.000000
v -2.869121 0.000000 -2.869128
v -3.157721 -0.194796 -3.165322
v -3.157721 -0.194796 -10.000000
v 0.000000 0.000000 -2.869128
v -0.000001 0.000000 -10.000000
v -2.869122 -0.194796 -2.869128
v -2.869121 0.000000 -10.000000
v -2.869121 -0.194796 -10.000000
v -2.869121 0.000000 -2.540592
v -2.541754 0.000000 -2.869128
v -2.535686 0.000000 -2.543855
v -4.999990 -0.194796 0.000000
v -2.869121 -0.194796 0.000000
v 0.000000 -0.194796 0.000000
v 0.000000 -0.194796 -2.869128
v -0.000001 -0.194796 -10.000000
v -4.999990 -0.194796 -3.165322
v -3.157721 -0.194796 -3.165322
v -3.157721 -0.194796 -10.000000
vt 0.575060 0.771264
vt 0.599346 0.771264
vt 0.341073 1.000000
vt 0.317897 1.000000
vt 0.009884 1.000000
vt 0.009884 1.000000
vt 0.009884 0.501405
vt 0.284980 1.000000
vt 0.375414 0.514704
vt 0.009884 0.501405
vt 0.317897 0.501405
vt 0.599346 0.743440
vt 0.009884 1.000000
vt 0.317897 1.000000
vt 0.317897 0.010317
vt 0.009884 0.010317
vt 0.341073 1.000000
vt 0.341073 0.514704
vt 0.332341 0.494995
vt 0.323039 0.501438
vt 0.349804 0.316209
vt 0.362687 0.474351
vt 0.358531 0.475045
vt 0.252984 0.499249
vt 0.281495 0.501407
vt 0.281625 0.010318
vt 0.285314 0.557168
vt 0.253114 0.557854
vt 0.281400 0.492457
vt 0.281514 0.467561
vt 0.282014 0.492897
vt 0.318205 0.492493
vt 0.339274 0.572872
vt 0.339274 0.585478
vt 0.333388 0.585478
vt 0.333388 0.572872
vt 0.339274 0.598085
vt 0.333388 0.598085
vt 0.331568 0.572872
vt 0.331568 0.585478
vt 0.325683 0.585478
vt 0.325683 0.572872
vt 0.331568 0.616810
vt 0.325683 0.616810
vt 0.000000 0.000000
vt 1.000000 0.000000
vt 1.000000 1.000000
vt 0.000000 1.000000
vt 0.000000 0.000000
vt 1.000000 0.000000
vt 1.000000 1.000000
vt 0.000000 1.000000
vt 0.375414 1.000000
vt 0.575060 0.743440
vn 0.000000 1.000000 0.000000
vn 0.000000 1.000000 0.000000
vn 0.000000 1.000000 0.000000
vn 0.000000 1.000000 0.000000
vn 0.000000 1.000000 0.000000
vn 0.000000 1.000000 0.000000
vn 0.000000 0.000000 -1.000000
vn 0.000000 0.000000 -1.000000
vn 0.000000 0.000000 -1.000000
vn 0.000000 0.000000 -1.000000
vn 0.000000 0.000000 -1.000000
vn 0.000000 0.000000 -1.000000
vn -0.000000 1.000000 0.000000
vn 0.000000 1.000000 0.000000
vn -0.000000 1.000000 0.000000
vn -0.000000 1.000000 0.000000
vn 0.000000 1.000000 0.000000
vn 0.000000 1.000000 0.000000
vn 0.000000 1.000000 0.000000
vn 0.000000 1.000000 0.000000
vn 0.000000 1.000000 0.000000
vn 0.000000 1.000000 0.000000
vn 0.000000 1.000000 0.000000
vn 0.000000 1.000000 0.000000
vn -0.000000 1.000000 0.000000
vn -0.000000 1.000000 0.000000
vn 0.000000 1.000000 0.000000
vn 0.000000 1.000000 0.000000
vn 0.000000 1.000000 0.000000
vn -0.000000 1.000000 0.000000
vn 0.000000 1.000000 0.000000
vn 0.000000 1.000000 -0.000000
vn 0.000000 1.000000 -0.000000
vn -1.000000 0.000000 -0.000000
vn -1.000000 0.000000 0.000000
vn -1.000000 0.000005 -0.000003
vn -1.000000 0.000005 -0.000003
vn -1.000000 0.000000 0.000000
vn -1.000000 0.000000 0.000000
vn 0.000000 1.000000 -0.000000
vn -0.000000 1.000000 0.000000
vn 0.000000 1.000000 0.000000
vn 0.000000 1.000000 -0.000000
vn 0.000000 1.000000 0.000000
vn 0.000000 1.000000 -0.000000
vn 0.000000 1.000000 0.000000
vn 0.000000 1.000000 -0.000000
vn 0.000000 1.000000 0.000000
vn -0.000000 1.000000 0.000000
vn -0.000000 1.000000 0.000000
vn 0.000000 1.000000 0.000000
vn -0.000000 1.000000 0.000000
vn 0.000000 1.000000 -0.000000
vn 0.000000 1.000000 0.000000
vn 0.000000 1.000000 0.000000
vn 0.000000 1.000000 0.000000
vn 0.000000 1.000000 -0.000000
vn -0.000000 1.000000 0.000000
vn -0.000000 1.000000 0.000000
vn 0.000000 1.000000 0.000000
vn 0.000000 0.000000 1.000000
vn 0.000000 0.000000 1.000000
vn 0.000000 0.000000 1.000000
vn 0.000000 0.000000 1.000000
vn 0.000000 0.000000 1.000000
vn 0.000000 0.000000 1.000000
vn 1.000000 0.000000 0.000000
vn 1.000000 0.000000 0.000000
vn 1.000000 0.000000 -0.000000
vn 1.000000 0.000000 -0.000000
vn 1.000000 0.000000 0.000000
vn 1.000000 0.000000 -0.000000
vn 0.000000 0.000000 1.000000
vn 0.000000 0.000000 1.000000
vn 0.000000 0.000000 1.000000
vn 0.000000 0.000000 1.000000
vn 0.000000 0.000000 1.000000
vn 0.000000 0.000000 1.000000
vn 1.000000 0.000000 -0.000000
vn 1.000000 0.000000 -0.000000
vn 1.000000 0.000000 -0.000000
vn 1.000000 0.000000 -0.000000
vn 1.000000 0.000000 -0.000000
vn 1.000000 0.000000 -0.000000
vn 0.000000 0.000000 0.000000
vn 0.000000 0.000000 0.000000
vn 0.000000 0.000000 0.000000
vn 0.000000 0.000000 0.000000
vn 0.000000 0.000000 0.000000
vn 0.000000 0.000000 0.000000
vn 0.000000 0.000000 0.000000
vn 0.000000 0.000000 0.000000
vn 0.000000 0.000000 0.000000
vn 0.000000 0.000000 0.000000
vn 0.000000 0.000000 0.000000
vn 0.000000 0.000000 0.000000
vn 0.000000 1.000000 0.000000
vn 0.000000 1.000000 0.000000
vn 0.000000 1.000000 0.000000
vn 0.000000 1.000000 0.000000
vn 0.000000 1.000000 0.000000
vn 0.000000 1.000000 0.000000
s off
f 6/1/1 9/54/2 2/2/3
f 2/2/4 9/54/5 10/12/6
f 1/3/7 3/4/8 13/20/9
f 13/20/10 3/4/11 8/19/12
f 8/11/13 3/4/14 16/25/15
f 16/25/16 3/4/17 4/6/18
f 13/21/19 15/23/20 9/9/21
f 9/9/22 15/23/23 10/22/24
f 16/24/25 7/10/26 18/28/27
f 5/5/28 18/28/29 7/10/30
f 12/13/31 17/26/32 11/16/33
f 8/15/34 14/14/35 13/18/36
f 13/18/37 14/14/38 15/17/39
f 17/29/40 8/32/41 18/30/42
f 17/27/43 18/28/44 11/8/45
f 5/5/46 11/8/47 18/28/48
f 7/7/49 16/25/50 4/6/51
f 8/15/52 17/26/53 14/14/54
f 12/13/55 14/14/56 17/26/57
f 8/32/58 16/31/59 18/30/60
f 4/33/61 19/36/62 7/34/63
f 7/34/64 19/36/65 20/35/66
f 5/39/67 21/42/68 11/40/69
f 11/40/70 21/42/71 22/41/72
f 7/34/73 20/35/74 5/37/75
f 5/37/76 20/35/77 21/38/78
f 11/40/79 22/41/80 12/43/81
f 12/43/82 22/41/83 23/44/84
f 24/48/85 6/45/86 25/47/87
f 6/45/88 9/46/89 25/47/90
f 25/52/91 9/49/92 26/51/93
f 9/49/94 10/50/95 26/51/96
f 6/53/97 1/3/98 9/9/99
f 9/9/100 1/3/101 13/21/102
