# This file uses meters as units for non-parametric coordinates.

v 2.869121 -0.194796 -2.869128
v -0.000003 -0.194796 -10.000000
v 2.869121 0.000000 -2.869128
v 0.000000 0.000000 0.000000
v 3.165314 -0.194796 -3.165322
v -0.000003 -0.194796 -3.165322
v -0.000003 0.000000 -2.869128
v -0.000003 -0.194796 -2.869128
v 9.999975 -0.194796 -9.999999
v 9.999980 -0.194796 -0.000002
v 3.165316 -0.194796 -0.000002
v 2.869121 0.000000 -0.000002
v 2.869121 -0.194796 -0.000002
vt 0.375414 0.000000
vt 0.341073 0.000000
vt 0.317897 0.000000
vt 0.012259 0.000000
vt 0.375414 0.250000
vt 0.317897 0.237547
vt 0.341073 0.238381
vt 0.646184 0.755363
vt 0.588925 0.755363
vt 0.588925 0.785512
vt 0.646184 0.785512
vt 0.012259 0.000000
vt 0.317897 0.000000
vt 0.317897 0.237547
vt 0.341073 0.000000
vt 0.341073 0.238381
vt 0.375414 0.250000
vt 0.375414 0.000000
vt 0.646184 0.755363
vt 0.588925 0.755363
vt 0.588925 0.785512
vt 0.646184 0.785512
vn 0.000000 1.000000 -0.000000
vn 0.000000 1.000000 -0.000000
vn 0.000000 1.000000 -0.000000
vn -0.000000 0.000000 -1.000000
vn -0.000000 0.000000 -1.000000
vn -0.000000 0.000000 -1.000000
vn -0.000000 0.000000 -1.000000
vn -0.000000 0.000000 -1.000000
vn -0.000000 0.000000 -1.000000
vn 0.000000 1.000000 0.000000
vn -0.000000 1.000000 0.000000
vn -0.000000 1.000000 0.000000
vn -0.000000 1.000000 0.000000
vn -0.000000 1.000000 0.000000
vn -0.000000 1.000000 0.000000
vn -0.000000 1.000000 0.000000
vn -0.000000 1.000000 0.000000
vn -0.000000 1.000000 0.000000
vn -0.000000 1.000000 0.000000
vn -0.000000 1.000000 0.000000
vn -0.000000 1.000000 0.000000
vn 0.000000 1.000000 -0.000000
vn 0.000000 1.000000 0.000000
vn 0.000000 1.000000 -0.000000
vn 1.000000 0.000000 0.000000
vn 1.000000 0.000000 0.000000
vn 1.000000 0.000000 0.000000
vn 1.000000 0.000000 0.000000
vn 1.000000 0.000000 0.000000
vn 1.000000 0.000000 0.000000
vn -0.000000 1.000000 0.000000
vn -0.000000 1.000000 0.000000
vn -0.000000 1.000000 0.000000
vn -0.000000 1.000000 0.000000
vn -0.000000 1.000000 0.000000
vn -0.000000 1.000000 0.000000
vn -0.000000 1.000000 0.000000
vn -0.000000 1.000000 0.000000
vn -0.000000 1.000000 0.000000
vn -0.000000 1.000000 0.000000
vn -0.000000 1.000000 0.000000
vn -0.000000 1.000000 0.000000
s off
f 4/4/1 3/3/2 7/6/3
f 1/2/4 8/7/5 3/3/6
f 3/3/7 8/7/8 7/6/9
f 8/7/10 1/2/11 6/5/12
f 6/5/13 1/2/14 5/1/15
f 6/9/16 5/10/17 2/8/18
f 2/8/19 5/10/20 9/11/21
f 4/12/22 12/14/23 3/13/24
f 1/15/25 3/13/26 13/16/27
f 13/16/28 3/13/29 12/14/30
f 5/18/31 1/15/32 11/17/33
f 11/17/34 1/15/35 13/16/36
f 9/22/37 5/21/38 10/19/39
f 10/19/40 5/21/41 11/20/42
