# This file uses meters as units for non-parametric coordinates.

v 0.000000 0.000000 -7.000000
v 4.999990 0.000000 -7.000000
v 0.000000 0.000000 0.000000
v 4.999990 0.000000 0.000000
v 3.518459 0.000000 -0.444885
v 1.481531 0.000000 -0.444885
v 1.481531 0.000000 -6.555115
v 3.518459 0.000000 -6.555115
v 3.518459 0.000000 -7.000000
v 1.481531 0.000000 -7.000000
v 1.481531 0.000000 0.000000
v 3.518459 0.000000 0.000000
vt 0.725792 0.790894
vt 0.725792 0.790894
vt 0.725792 0.790894
vt 0.725792 0.790894
vt 0.725792 0.747863
vt 0.725792 0.754650
vt 0.725792 0.749260
vt 0.725792 0.755077
vt 0.725792 0.764189
vt 0.725792 0.756828
vt 0.725792 0.765081
vt 0.725792 0.756522
vt 0.710584 0.265795
vt 0.710584 0.507709
vt 0.657572 0.265795
vt 0.657572 0.507709
vt 0.710584 0.265795
vt 0.710584 0.507709
vt 0.657572 0.265795
vt 0.657572 0.507709
vn 0.000000 1.000000 0.000000
vn 0.000000 1.000000 0.000000
vn 0.000000 1.000000 0.000000
vn 0.000000 1.000000 0.000000
vn 0.000000 1.000000 0.000000
vn 0.000000 1.000000 0.000000
vn 0.000000 1.000000 0.000000
vn 0.000000 1.000000 0.000000
vn 0.000000 1.000000 0.000000
vn 0.000000 1.000000 0.000000
vn 0.000000 1.000000 0.000000
vn 0.000000 1.000000 0.000000
vn 0.000000 1.000000 0.000000
vn 0.000000 1.000000 0.000000
vn 0.000000 1.000000 0.000000
vn 0.000000 1.000000 0.000000
vn 0.000000 1.000000 0.000000
vn 0.000000 1.000000 0.000000
vn 0.000000 1.000000 0.000000
vn 0.000000 1.000000 0.000000
vn 0.000000 1.000000 0.000000
vn 0.000000 1.000000 0.000000
vn 0.000000 1.000000 0.000000
vn 0.000000 1.000000 0.000000
vn 0.000000 1.000000 0.000000
vn 0.000000 1.000000 0.000000
vn 0.000000 1.000000 0.000000
vn 0.000000 1.000000 0.000000
vn 0.000000 1.000000 0.000000
vn 0.000000 1.000000 0.000000
vn 0.000000 1.000000 0.000000
vn 0.000000 1.000000 0.000000
vn 0.000000 1.000000 0.000000
vn 0.000000 1.000000 0.000000
vn 0.000000 1.000000 0.000000
vn 0.000000 1.000000 0.000000
vn 0.000000 1.000000 0.000000
vn 0.000000 1.000000 0.000000
vn 0.000000 1.000000 0.000000
vn 0.000000 1.000000 0.000000
vn 0.000000 1.000000 0.000000
vn 0.000000 1.000000 0.000000
s off
f 5/5/1 8/8/2 6/6/3
f 6/6/4 8/8/5 7/7/6
f 8/8/7 2/2/8 9/9/9
f 6/6/10 3/1/11 11/11/12
f 6/6/13 7/7/14 3/1/15
f 3/1/16 7/7/17 1/3/18
f 1/3/19 7/7/20 10/10/21
f 4/4/22 2/2/23 5/5/24
f 5/5/25 2/2/26 8/8/27
f 4/4/28 5/5/29 12/12/30
f 11/13/31 12/14/32 6/15/33
f 6/15/34 12/14/35 5/16/36
f 9/17/37 10/18/38 8/19/39
f 8/19/40 10/18/41 7/20/42
