# This file uses meters as units for non-parametric coordinates.

v 0.365789 -0.003288 0.386374
v 0.365789 -0.003288 -0.386374
v 0.448640 1.095865 0.473888
v 0.448640 1.095865 -0.473888
v -0.448640 1.095865 0.473888
v -0.448640 1.095865 -0.473888
v -0.365789 -0.003288 0.386374
v -0.365789 -0.003288 -0.386374
v 0.340984 1.095865 0.360174
v 0.340984 1.095865 -0.360174
v -0.340985 1.095865 0.360174
v -0.340985 1.095865 -0.360174
v -0.438753 0.964706 -0.463445
v -0.438753 0.964706 0.463445
v 0.438753 0.964706 0.463445
v 0.438753 0.964706 -0.463445
v 0.104245 1.095865 0.110112
v 0.104245 1.095865 -0.110112
v -0.104247 1.095865 0.110112
v -0.104247 1.095865 -0.110112
v 0.104245 1.200039 0.110112
v 0.104245 1.200039 -0.110112
v -0.104247 1.200039 0.110112
v -0.104247 1.200039 -0.110112
vt 0.400142 0.277919
vt 0.418717 0.277919
vt 0.313241 0.269652
vt 0.294247 0.269652
vt 0.401686 0.258520
vt 0.417173 0.258520
vt 0.313647 0.247625
vt 0.332641 0.247625
vt 0.332432 0.250253
vt 0.419542 0.261149
vt 0.436573 0.280548
vt 0.421086 0.280548
vt 0.345219 0.268113
vt 0.210269 0.159160
vt 0.210467 0.161788
vt 0.192485 0.161788
vt 0.346681 0.248714
vt 0.361342 0.248714
vt 0.348499 0.290382
vt 0.366085 0.290382
vt 0.213748 0.184057
vt 0.195766 0.184057
vt 0.349961 0.270983
vt 0.364623 0.270983
vt 0.520618 0.347426
vt 0.520618 0.249992
vt 0.543263 0.273910
vt 0.543263 0.323507
vt 0.612862 0.249992
vt 0.590217 0.273910
vt 0.612862 0.347426
vt 0.590217 0.323507
vt 0.156595 0.150775
vt 0.156595 0.170534
vt 0.137889 0.170534
vt 0.137889 0.150775
vt 0.313032 0.267024
vt 0.192684 0.159160
vt 0.438117 0.261149
vt 0.362804 0.268113
vt 0.213550 0.181428
vt 0.294457 0.267024
vt 0.313857 0.250253
vt 0.195964 0.181428
vt 0.543263 0.273910
vt 0.590217 0.273910
vt 0.543263 0.323507
vt 0.590217 0.323507
vt 0.612862 0.249992
vt 0.612862 0.347426
vt 0.520618 0.249992
vt 0.520618 0.347426
vt 0.263533 0.328295
vt 0.263533 0.267625
vt 0.283472 0.288686
vt 0.283472 0.307234
vt 0.320971 0.267625
vt 0.301032 0.288686
vt 0.320971 0.328295
vt 0.301032 0.307234
vt 0.181736 0.294173
vt 0.181736 0.286605
vt 0.185315 0.286605
vt 0.185315 0.294173
vt 0.187776 0.294292
vt 0.187776 0.301860
vt 0.184196 0.301860
vt 0.184196 0.294292
vt 0.173085 0.318643
vt 0.173085 0.311478
vt 0.176665 0.311478
vt 0.176665 0.318643
vt 0.169323 0.318643
vt 0.169323 0.311478
vt 0.172903 0.311478
vt 0.172903 0.318643
vt 0.534040 0.329477
vt 0.534040 0.266055
vt 0.594083 0.266055
vt 0.594083 0.329477
vn 0.997171 -0.075164 0.000000
vn 0.997171 -0.075164 0.000000
vn 0.997171 -0.075166 0.000000
vn 0.997171 -0.075166 0.000000
vn -0.997171 -0.075166 0.000000
vn -0.997171 -0.075166 0.000000
vn -0.997171 -0.075164 0.000000
vn -0.997171 -0.075164 0.000000
vn 0.000000 -0.079368 -0.996845
vn 0.000000 -0.079368 -0.996845
vn 0.000000 -0.079370 -0.996845
vn 0.000000 -0.079370 -0.996845
vn 0.000000 -0.079368 0.996845
vn 0.000000 -0.079368 0.996845
vn 0.000000 -0.079370 0.996845
vn 0.000000 -0.079370 0.996845
vn 0.000000 1.000000 0.000000
vn 0.000000 1.000000 0.000000
vn 0.000000 1.000000 0.000000
vn 0.000000 1.000000 0.000000
vn 0.000000 1.000000 0.000000
vn 0.000000 1.000000 0.000000
vn 0.000000 1.000000 0.000000
vn 0.000000 1.000000 0.000000
vn 0.000000 1.000000 0.000000
vn 0.000000 1.000000 0.000000
vn 0.000000 1.000000 0.000000
vn 0.000000 1.000000 0.000000
vn 0.000000 1.000000 0.000000
vn 0.000000 1.000000 0.000000
vn 0.000000 1.000000 0.000000
vn 0.000000 1.000000 0.000000
vn 0.000000 -1.000000 0.000000
vn 0.000000 -1.000000 0.000000
vn 0.000000 -1.000000 0.000000
vn 0.000000 -1.000000 0.000000
vn -0.997171 -0.075164 0.000000
vn -0.997171 -0.075164 0.000000
vn -0.997171 -0.075163 0.000000
vn -0.997171 -0.075163 0.000000
vn 0.000000 -0.079368 0.996845
vn 0.000000 -0.079368 0.996845
vn 0.000000 -0.079368 0.996845
vn 0.000000 -0.079368 0.996845
vn 0.997171 -0.075164 0.000000
vn 0.997171 -0.075164 0.000000
vn 0.997171 -0.075164 0.000000
vn 0.997171 -0.075164 0.000000
vn 0.000000 -0.079368 -0.996845
vn 0.000000 -0.079368 -0.996845
vn 0.000000 -0.079368 -0.996845
vn 0.000000 -0.079368 -0.996845
vn 0.000000 1.000000 0.000000
vn 0.000000 1.000000 0.000000
vn 0.000000 1.000000 0.000000
vn 0.000000 1.000000 0.000000
vn 0.000000 1.000000 0.000000
vn 0.000000 1.000000 0.000000
vn 0.000000 1.000000 0.000000
vn 0.000000 1.000000 0.000000
vn 0.000000 1.000000 0.000000
vn 0.000000 1.000000 0.000000
vn 0.000000 1.000000 0.000000
vn 0.000000 1.000000 0.000000
vn 0.000000 1.000000 0.000000
vn 0.000000 1.000000 0.000000
vn 0.000000 1.000000 0.000000
vn 0.000000 1.000000 0.000000
vn 1.000000 0.000000 0.000000
vn 1.000000 0.000000 0.000000
vn 1.000000 0.000000 0.000000
vn 1.000000 0.000000 0.000000
vn -1.000000 0.000000 0.000000
vn -1.000000 0.000000 0.000000
vn -1.000000 0.000000 0.000000
vn -1.000000 0.000000 0.000000
vn 0.000000 0.000000 1.000000
vn 0.000000 0.000000 1.000000
vn 0.000000 0.000000 1.000000
vn 0.000000 0.000000 1.000000
vn 0.000000 0.000000 -1.000000
vn 0.000000 0.000000 -1.000000
vn 0.000000 0.000000 -1.000000
vn 0.000000 0.000000 -1.000000
vn 0.000000 1.000000 0.000000
vn 0.000000 1.000000 0.000000
vn 0.000000 1.000000 0.000000
vn 0.000000 1.000000 0.000000
s off
f 15/42/1 16/37/2 4/3/3 3/4/4
f 5/7/5 6/8/6 13/9/7 14/43/8
f 16/38/9 13/14/10 6/15/11 4/16/12
f 14/44/13 15/41/14 3/21/15 5/22/16
f 3/52/17 4/26/18 10/45/19 9/28/20
f 6/29/21 5/50/22 11/48/23 12/30/24
f 5/31/25 3/25/26 9/47/27 11/32/28
f 4/51/29 6/49/30 12/46/31 10/27/32
f 8/36/33 2/33/34 1/34/35 7/35/36
f 14/10/37 13/39/38 8/11/39 7/12/40
f 7/23/41 1/24/42 15/20/43 14/19/44
f 1/5/45 2/6/46 16/2/47 15/1/48
f 2/17/49 8/18/50 13/40/51 16/13/52
f 9/53/53 10/54/54 18/55/55 17/56/56
f 12/57/57 11/59/58 19/60/59 20/58/60
f 11/59/61 9/53/62 17/56/63 19/60/64
f 10/54/65 12/57/66 20/58/67 18/55/68
f 17/61/69 18/62/70 22/63/71 21/64/72
f 20/65/73 19/66/74 23/67/75 24/68/76
f 19/69/77 17/70/78 21/71/79 23/72/80
f 18/73/81 20/74/82 24/75/83 22/76/84
f 24/79/85 23/80/86 21/77/87 22/78/88
