# This file uses meters as units for non-parametric coordinates.

v -0.173801 0.137564 0.186444
v 0.182560 0.137564 0.186444
v -0.173801 0.137564 -0.189975
v 0.182560 0.137564 -0.189975
v 0.182560 2.924364 0.186444
v -0.173801 2.924364 0.186444
v -0.173801 2.924364 -0.189975
v 0.182560 2.924364 -0.189975
v -0.355587 -0.000506 0.378461
v 0.364346 -0.000506 0.378461
v -0.355587 -0.000506 -0.381990
v 0.364346 -0.000506 -0.381990
v 0.364346 0.245106 0.378461
v -0.355587 0.245106 0.378461
v -0.355587 0.245106 -0.381990
v 0.364346 0.245106 -0.381990
v -0.975693 2.486078 1.030610
v 0.975689 2.486078 1.030610
v 0.975689 2.486078 -1.030610
v -0.975693 2.486078 -1.030610
v -0.975693 4.455385 1.030610
v 0.975689 4.455385 1.030610
v 0.975689 4.455385 -1.030610
v -0.975693 4.455385 -1.030610
vt 0.430123 0.217021
vt 0.430123 0.210866
vt 0.436704 0.210866
vt 0.436703 0.217021
vt 0.412744 0.179165
vt 0.412744 0.173010
vt 0.419324 0.173010
vt 0.419324 0.179165
vt 0.197845 0.194804
vt 0.197845 0.188303
vt 0.204426 0.188303
vt 0.204426 0.194804
vt 0.197743 0.182185
vt 0.197743 0.175684
vt 0.204323 0.175684
vt 0.204323 0.182185
vt 0.702657 0.188605
vt 0.702657 0.182451
vt 0.709237 0.182451
vt 0.709237 0.188605
vt 0.685277 0.150749
vt 0.685277 0.144595
vt 0.691857 0.144594
vt 0.691857 0.150749
vt 0.401923 0.113432
vt 0.401923 0.106930
vt 0.408503 0.106930
vt 0.408503 0.113432
vt 0.401820 0.100813
vt 0.401820 0.094312
vt 0.408400 0.094312
vt 0.408400 0.100813
vt 0.159107 0.074381
vt 0.238824 0.074381
vt 0.238824 0.149850
vt 0.159107 0.149850
vt 0.056279 0.774253
vt 0.174574 0.774253
vt 0.174574 0.899207
vt 0.056279 0.899207
vt 0.698050 0.408899
vt 0.698050 0.614325
vt 0.657214 0.614325
vt 0.657214 0.408899
vt 0.257646 0.478739
vt 0.294679 0.478739
vt 0.294679 0.519119
vt 0.257646 0.519119
vt 0.808104 0.807834
vt 0.841574 0.807834
vt 0.841574 0.842384
vt 0.808104 0.842384
vt 0.144975 0.609334
vt 0.080979 0.609334
vt 0.080979 0.539554
vt 0.144975 0.539554
vt 0.459608 0.424656
vt 0.547903 0.424656
vt 0.547903 0.515801
vt 0.459608 0.515801
vn 0.000000 0.000000 1.000000
vn 0.000000 0.000000 1.000000
vn 0.000000 0.000000 1.000000
vn 0.000000 0.000000 1.000000
vn 0.000000 0.000000 -1.000000
vn 0.000000 0.000000 -1.000000
vn 0.000000 0.000000 -1.000000
vn 0.000000 0.000000 -1.000000
vn 1.000000 0.000000 0.000000
vn 1.000000 0.000000 0.000000
vn 1.000000 0.000000 0.000000
vn 1.000000 0.000000 0.000000
vn -1.000000 0.000000 0.000000
vn -1.000000 0.000000 0.000000
vn -1.000000 0.000000 0.000000
vn -1.000000 0.000000 0.000000
vn 0.000000 0.000000 1.000000
vn 0.000000 0.000000 1.000000
vn 0.000000 0.000000 1.000000
vn 0.000000 0.000000 1.000000
vn 0.000000 0.000000 -1.000000
vn 0.000000 0.000000 -1.000000
vn 0.000000 0.000000 -1.000000
vn 0.000000 0.000000 -1.000000
vn 1.000000 0.000000 0.000000
vn 1.000000 0.000000 0.000000
vn 1.000000 0.000000 0.000000
vn 1.000000 0.000000 0.000000
vn -1.000000 0.000000 0.000000
vn -1.000000 0.000000 0.000000
vn -1.000000 0.000000 0.000000
vn -1.000000 0.000000 0.000000
vn 0.000000 1.000000 0.000000
vn 0.000000 1.000000 0.000000
vn 0.000000 1.000000 0.000000
vn 0.000000 1.000000 0.000000
vn 0.000000 1.000000 0.000000
vn 0.000000 1.000000 0.000000
vn 0.000000 1.000000 0.000000
vn 0.000000 1.000000 0.000000
vn 0.000000 -1.000000 0.000000
vn 0.000000 -1.000000 0.000000
vn 0.000000 -1.000000 0.000000
vn 0.000000 -1.000000 0.000000
vn 0.000000 0.000000 1.000000
vn 0.000000 0.000000 1.000000
vn 0.000000 0.000000 1.000000
vn 0.000000 0.000000 1.000000
vn 1.000000 0.000000 0.000000
vn 1.000000 0.000000 0.000000
vn 1.000000 0.000000 0.000000
vn 1.000000 0.000000 0.000000
vn 0.000000 0.000000 -1.000000
vn 0.000000 0.000000 -1.000000
vn 0.000000 0.000000 -1.000000
vn 0.000000 0.000000 -1.000000
vn -1.000000 0.000000 0.000000
vn -1.000000 0.000000 0.000000
vn -1.000000 0.000000 0.000000
vn -1.000000 0.000000 0.000000
s off
f 1/1/1 2/2/2 5/3/3 6/4/4
f 7/5/5 8/6/6 4/7/7 3/8/8
f 2/9/9 4/10/10 8/11/11 5/12/12
f 3/13/13 1/14/14 6/15/15 7/16/16
f 9/17/17 10/18/18 13/19/19 14/20/20
f 15/21/21 16/22/22 12/23/23 11/24/24
f 10/25/25 12/26/26 16/27/27 13/28/28
f 11/29/29 9/30/30 14/31/31 15/32/32
f 13/33/33 16/34/34 15/35/35 14/36/36
f 21/37/37 22/38/38 23/39/39 24/40/40
f 19/41/41 18/42/42 17/43/43 20/44/44
f 17/45/45 18/46/46 22/47/47 21/48/48
f 18/49/49 19/50/50 23/51/51 22/52/52
f 19/53/53 20/54/54 24/55/55 23/56/56
f 20/57/57 17/58/58 21/59/59 24/60/60
