# This file uses meters as units for non-parametric coordinates.

v -0.175896 -0.014153 0.241262
v 0.180466 -0.014153 0.241262
v -0.175896 -0.014153 -0.135157
v 0.180466 -0.014153 -0.135157
v 0.180466 2.772648 0.241262
v -0.175896 2.772648 0.241262
v -0.175896 2.772648 -0.135157
v 0.180466 2.772648 -0.135157
v 0.958508 2.016364 0.397968
v -0.089638 2.016364 0.397968
v -0.089638 2.016364 1.505110
v 0.958508 2.016364 1.505110
v 0.958508 3.159245 0.397968
v -0.089638 3.159245 0.397968
v -0.089638 3.159245 1.505110
v 0.958508 3.159245 1.505110
v -1.052135 2.284875 0.967009
v -0.044907 2.284875 0.967009
v -0.044907 2.284875 -0.096916
v -1.052135 2.284875 -0.096916
v -1.052135 3.383144 0.967009
v -0.044907 3.383144 0.967009
v -0.044907 3.383144 -0.096916
v -1.052135 3.383144 -0.096916
v -0.309753 2.210818 -0.430264
v 0.877453 2.210818 -0.430264
v 0.877453 2.210818 -1.505110
v -0.309753 2.210818 -1.505110
v -0.309753 3.320360 -0.430264
v 0.877453 3.320360 -0.430264
v 0.877453 3.320360 -1.505110
v -0.309753 3.320360 -1.505110
v -1.009548 1.983407 0.023695
v 0.072319 1.983407 0.023695
v 0.072319 1.983407 -1.119070
v -1.009548 1.983407 -1.119070
v -1.009548 3.163059 0.023695
v 0.072319 3.163059 0.023695
v 0.072319 3.163059 -1.119070
v -1.009548 3.163059 -1.119070
v -0.641430 2.982510 0.634775
v 0.689659 2.982510 0.634775
v 0.689659 2.982510 -0.771238
v -0.641430 2.982510 -0.771238
v -0.641430 4.433909 0.634775
v 0.689659 4.433909 0.634775
v 0.689659 4.433909 -0.771238
v -0.641430 4.433909 -0.771238
v 0.338303 2.062593 -0.466648
v 0.338303 2.062593 0.550922
v 1.413151 2.062593 0.550922
v 1.413151 2.062593 -0.466648
v 0.338303 3.172135 -0.466648
v 0.338303 3.172135 0.550922
v 1.413151 3.172135 0.550922
v 1.413151 3.172135 -0.466648
v -1.413155 1.833050 0.423616
v -0.494175 1.833050 0.423616
v -0.494175 1.833050 -0.547091
v -1.413155 1.833050 -0.547091
v -1.413155 2.835091 0.423616
v -0.494175 2.835091 0.423616
v -0.494175 2.835091 -0.547091
v -1.413155 2.835091 -0.547091
vt 0.430123 0.217021
vt 0.430123 0.210866
vt 0.436704 0.210866
vt 0.436703 0.217021
vt 0.412744 0.179165
vt 0.412744 0.173010
vt 0.419324 0.173010
vt 0.419324 0.179165
vt 0.197845 0.194804
vt 0.197845 0.188303
vt 0.204426 0.188303
vt 0.204426 0.194804
vt 0.197743 0.182185
vt 0.197743 0.175684
vt 0.204323 0.175684
vt 0.204323 0.182185
vt 0.056279 0.774253
vt 0.174574 0.774253
vt 0.174574 0.899207
vt 0.056279 0.899207
vt 0.938547 0.471843
vt 0.938547 0.566397
vt 0.849032 0.566397
vt 0.849032 0.471843
vt 0.879416 0.430745
vt 0.928300 0.430745
vt 0.928300 0.484047
vt 0.879416 0.484047
vt 0.479812 0.603569
vt 0.490520 0.603569
vt 0.490520 0.614623
vt 0.479812 0.614623
vt 0.371453 0.559956
vt 0.334419 0.559956
vt 0.334419 0.519576
vt 0.371453 0.519576
vt 0.102891 0.532709
vt 0.136361 0.532709
vt 0.136361 0.567260
vt 0.102891 0.567260
vt 0.056279 0.774253
vt 0.174574 0.774253
vt 0.174574 0.899207
vt 0.056279 0.899207
vt 0.854406 0.438120
vt 0.854406 0.449587
vt 0.843550 0.449587
vt 0.843550 0.438120
vt 0.257646 0.478739
vt 0.294679 0.478739
vt 0.294679 0.519119
vt 0.257646 0.519119
vt 0.295526 0.478739
vt 0.334644 0.478739
vt 0.334644 0.519119
vt 0.295526 0.519119
vt 0.371453 0.559956
vt 0.334419 0.559956
vt 0.334419 0.519576
vt 0.371453 0.519576
vt 0.521703 0.614748
vt 0.532412 0.614748
vt 0.532412 0.625802
vt 0.521703 0.625802
vt 0.056279 0.774253
vt 0.174574 0.774253
vt 0.174574 0.899207
vt 0.056279 0.899207
vt 0.938547 0.471843
vt 0.938547 0.566397
vt 0.849032 0.566397
vt 0.849032 0.471843
vt 0.879416 0.430745
vt 0.928300 0.430745
vt 0.928300 0.484047
vt 0.879416 0.484047
vt 0.808104 0.807834
vt 0.841574 0.807834
vt 0.841574 0.842384
vt 0.808104 0.842384
vt 0.160026 0.473868
vt 0.096031 0.473868
vt 0.096031 0.404089
vt 0.160026 0.404089
vt 0.654254 0.337142
vt 0.705890 0.337142
vt 0.705890 0.390445
vt 0.654254 0.390445
vt 0.056279 0.774253
vt 0.174574 0.774253
vt 0.174574 0.899207
vt 0.056279 0.899207
vt 0.938547 0.471843
vt 0.938547 0.566397
vt 0.849032 0.566397
vt 0.849032 0.471843
vt 0.271504 0.375433
vt 0.344674 0.375433
vt 0.344674 0.455217
vt 0.271504 0.455217
vt 0.808104 0.807834
vt 0.841574 0.807834
vt 0.841574 0.842384
vt 0.808104 0.842384
vt 0.160026 0.473868
vt 0.096031 0.473868
vt 0.096031 0.404089
vt 0.160026 0.404089
vt 0.335062 0.539489
vt 0.345770 0.539489
vt 0.345770 0.550543
vt 0.335062 0.550543
vt 0.056279 0.774253
vt 0.174574 0.774253
vt 0.174574 0.899207
vt 0.056279 0.899207
vt 0.698050 0.408899
vt 0.698050 0.614325
vt 0.657214 0.614325
vt 0.657214 0.408899
vt 0.257646 0.478739
vt 0.294679 0.478739
vt 0.294679 0.519119
vt 0.257646 0.519119
vt 0.808104 0.807834
vt 0.841574 0.807834
vt 0.841574 0.842384
vt 0.808104 0.842384
vt 0.144975 0.609334
vt 0.080979 0.609334
vt 0.080979 0.539554
vt 0.144975 0.539554
vt 0.459608 0.424656
vt 0.547903 0.424656
vt 0.547903 0.515801
vt 0.459608 0.515801
vt 0.056279 0.774253
vt 0.174574 0.774253
vt 0.174574 0.899207
vt 0.056279 0.899207
vt 0.938547 0.471843
vt 0.938547 0.566397
vt 0.849032 0.566397
vt 0.849032 0.471843
vt 0.879416 0.430745
vt 0.928300 0.430745
vt 0.928300 0.484047
vt 0.879416 0.484047
vt 0.295526 0.478739
vt 0.334644 0.478739
vt 0.334644 0.519119
vt 0.295526 0.519119
vt 0.873068 0.877325
vt 0.841382 0.877325
vt 0.841382 0.842775
vt 0.873068 0.842775
vt 0.346319 0.404089
vt 0.413916 0.404089
vt 0.413916 0.473868
vt 0.346319 0.473868
vt 0.056279 0.774253
vt 0.174574 0.774253
vt 0.174574 0.899207
vt 0.056279 0.899207
vt 0.854406 0.438120
vt 0.854406 0.449587
vt 0.843550 0.449587
vt 0.843550 0.438120
vt 0.257646 0.478739
vt 0.294679 0.478739
vt 0.294679 0.519119
vt 0.257646 0.519119
vt 0.295526 0.478739
vt 0.334644 0.478739
vt 0.334644 0.519119
vt 0.295526 0.519119
vt 0.689998 0.577111
vt 0.682237 0.577111
vt 0.682237 0.568648
vt 0.689998 0.568648
vt 0.459608 0.424656
vt 0.547903 0.424656
vt 0.547903 0.515801
vt 0.459608 0.515801
vn 0.000000 0.000000 1.000000
vn 0.000000 0.000000 1.000000
vn 0.000000 0.000000 1.000000
vn 0.000000 0.000000 1.000000
vn 0.000000 0.000000 -1.000000
vn 0.000000 0.000000 -1.000000
vn 0.000000 0.000000 -1.000000
vn 0.000000 0.000000 -1.000000
vn 1.000000 0.000000 0.000000
vn 1.000000 0.000000 0.000000
vn 1.000000 0.000000 0.000000
vn 1.000000 0.000000 0.000000
vn -1.000000 0.000000 0.000000
vn -1.000000 0.000000 0.000000
vn -1.000000 0.000000 0.000000
vn -1.000000 0.000000 0.000000
vn 0.000000 1.000000 0.000000
vn 0.000000 1.000000 0.000000
vn 0.000000 1.000000 0.000000
vn 0.000000 1.000000 0.000000
vn 0.000000 -1.000000 0.000000
vn 0.000000 -1.000000 0.000000
vn 0.000000 -1.000000 0.000000
vn 0.000000 -1.000000 0.000000
vn 0.000000 0.000000 -1.000000
vn 0.000000 0.000000 -1.000000
vn 0.000000 0.000000 -1.000000
vn 0.000000 0.000000 -1.000000
vn -1.000000 0.000000 0.000000
vn -1.000000 0.000000 0.000000
vn -1.000000 0.000000 0.000000
vn -1.000000 0.000000 0.000000
vn 0.000000 0.000000 1.000000
vn 0.000000 0.000000 1.000000
vn 0.000000 0.000000 1.000000
vn 0.000000 0.000000 1.000000
vn 1.000000 0.000000 0.000000
vn 1.000000 0.000000 0.000000
vn 1.000000 0.000000 0.000000
vn 1.000000 0.000000 0.000000
vn 0.000000 1.000000 0.000000
vn 0.000000 1.000000 0.000000
vn 0.000000 1.000000 0.000000
vn 0.000000 1.000000 0.000000
vn 0.000000 -1.000000 0.000000
vn 0.000000 -1.000000 0.000000
vn 0.000000 -1.000000 0.000000
vn 0.000000 -1.000000 0.000000
vn 0.000000 0.000000 1.000000
vn 0.000000 0.000000 1.000000
vn 0.000000 0.000000 1.000000
vn 0.000000 0.000000 1.000000
vn 1.000000 0.000000 0.000000
vn 1.000000 0.000000 0.000000
vn 1.000000 0.000000 0.000000
vn 1.000000 0.000000 0.000000
vn 0.000000 0.000000 -1.000000
vn 0.000000 0.000000 -1.000000
vn 0.000000 0.000000 -1.000000
vn 0.000000 0.000000 -1.000000
vn -1.000000 0.000000 0.000000
vn -1.000000 0.000000 0.000000
vn -1.000000 0.000000 0.000000
vn -1.000000 0.000000 0.000000
vn 0.000000 1.000000 0.000000
vn 0.000000 1.000000 0.000000
vn 0.000000 1.000000 0.000000
vn 0.000000 1.000000 0.000000
vn 0.000000 -1.000000 0.000000
vn 0.000000 -1.000000 0.000000
vn 0.000000 -1.000000 0.000000
vn 0.000000 -1.000000 0.000000
vn 0.000000 0.000000 1.000000
vn 0.000000 0.000000 1.000000
vn 0.000000 0.000000 1.000000
vn 0.000000 0.000000 1.000000
vn 1.000000 0.000000 0.000000
vn 1.000000 0.000000 0.000000
vn 1.000000 0.000000 0.000000
vn 1.000000 0.000000 0.000000
vn 0.000000 0.000000 -1.000000
vn 0.000000 0.000000 -1.000000
vn 0.000000 0.000000 -1.000000
vn 0.000000 0.000000 -1.000000
vn -1.000000 0.000000 0.000000
vn -1.000000 0.000000 0.000000
vn -1.000000 0.000000 0.000000
vn -1.000000 0.000000 0.000000
vn 0.000000 1.000000 0.000000
vn 0.000000 1.000000 0.000000
vn 0.000000 1.000000 0.000000
vn 0.000000 1.000000 0.000000
vn 0.000000 -1.000000 0.000000
vn 0.000000 -1.000000 0.000000
vn 0.000000 -1.000000 0.000000
vn 0.000000 -1.000000 0.000000
vn 0.000000 0.000000 1.000000
vn 0.000000 0.000000 1.000000
vn 0.000000 0.000000 1.000000
vn 0.000000 0.000000 1.000000
vn 1.000000 0.000000 0.000000
vn 1.000000 0.000000 0.000000
vn 1.000000 0.000000 0.000000
vn 1.000000 0.000000 0.000000
vn 0.000000 0.000000 -1.000000
vn 0.000000 0.000000 -1.000000
vn 0.000000 0.000000 -1.000000
vn 0.000000 0.000000 -1.000000
vn -1.000000 0.000000 0.000000
vn -1.000000 0.000000 0.000000
vn -1.000000 0.000000 0.000000
vn -1.000000 0.000000 0.000000
vn 0.000000 1.000000 0.000000
vn 0.000000 1.000000 0.000000
vn 0.000000 1.000000 0.000000
vn 0.000000 1.000000 0.000000
vn 0.000000 -1.000000 0.000000
vn 0.000000 -1.000000 0.000000
vn 0.000000 -1.000000 0.000000
vn 0.000000 -1.000000 0.000000
vn 0.000000 0.000000 1.000000
vn 0.000000 0.000000 1.000000
vn 0.000000 0.000000 1.000000
vn 0.000000 0.000000 1.000000
vn 1.000000 0.000000 0.000000
vn 1.000000 0.000000 0.000000
vn 1.000000 0.000000 0.000000
vn 1.000000 0.000000 0.000000
vn 0.000000 0.000000 -1.000000
vn 0.000000 0.000000 -1.000000
vn 0.000000 0.000000 -1.000000
vn 0.000000 0.000000 -1.000000
vn -1.000000 0.000000 0.000000
vn -1.000000 0.000000 0.000000
vn -1.000000 0.000000 0.000000
vn -1.000000 0.000000 0.000000
vn 0.000000 1.000000 0.000000
vn 0.000000 1.000000 0.000000
vn 0.000000 1.000000 0.000000
vn 0.000000 1.000000 0.000000
vn 0.000000 -1.000000 0.000000
vn 0.000000 -1.000000 0.000000
vn 0.000000 -1.000000 0.000000
vn 0.000000 -1.000000 0.000000
vn -1.000000 0.000000 0.000000
vn -1.000000 0.000000 0.000000
vn -1.000000 0.000000 0.000000
vn -1.000000 0.000000 0.000000
vn 0.000000 0.000000 1.000000
vn 0.000000 0.000000 1.000000
vn 0.000000 0.000000 1.000000
vn 0.000000 0.000000 1.000000
vn 1.000000 0.000000 0.000000
vn 1.000000 0.000000 0.000000
vn 1.000000 0.000000 0.000000
vn 1.000000 0.000000 0.000000
vn 0.000000 0.000000 -1.000000
vn 0.000000 0.000000 -1.000000
vn 0.000000 0.000000 -1.000000
vn 0.000000 0.000000 -1.000000
vn 0.000000 1.000000 0.000000
vn 0.000000 1.000000 0.000000
vn 0.000000 1.000000 0.000000
vn 0.000000 1.000000 0.000000
vn 0.000000 -1.000000 0.000000
vn 0.000000 -1.000000 0.000000
vn 0.000000 -1.000000 0.000000
vn 0.000000 -1.000000 0.000000
vn 0.000000 0.000000 1.000000
vn 0.000000 0.000000 1.000000
vn 0.000000 0.000000 1.000000
vn 0.000000 0.000000 1.000000
vn 1.000000 0.000000 0.000000
vn 1.000000 0.000000 0.000000
vn 1.000000 0.000000 0.000000
vn 1.000000 0.000000 0.000000
vn 0.000000 0.000000 -1.000000
vn 0.000000 0.000000 -1.000000
vn 0.000000 0.000000 -1.000000
vn 0.000000 0.000000 -1.000000
vn -1.000000 0.000000 0.000000
vn -1.000000 0.000000 0.000000
vn -1.000000 0.000000 0.000000
vn -1.000000 0.000000 0.000000
s off
f 1/1/1 2/2/2 5/3/3 6/4/4
f 7/5/5 8/6/6 4/7/7 3/8/8
f 2/9/9 4/10/10 8/11/11 5/12/12
f 3/13/13 1/14/14 6/15/15 7/16/16
f 13/17/17 14/18/18 15/19/19 16/20/20
f 11/21/21 10/22/22 9/23/23 12/24/24
f 9/25/25 10/26/26 14/27/27 13/28/28
f 10/29/29 11/30/30 15/31/31 14/32/32
f 11/33/33 12/34/34 16/35/35 15/36/36
f 12/37/37 9/38/38 13/39/39 16/40/40
f 21/41/41 22/42/42 23/43/43 24/44/44
f 19/45/45 18/46/46 17/47/47 20/48/48
f 17/49/49 18/50/50 22/51/51 21/52/52
f 18/53/53 19/54/54 23/55/55 22/56/56
f 19/57/57 20/58/58 24/59/59 23/60/60
f 20/61/61 17/62/62 21/63/63 24/64/64
f 29/65/65 30/66/66 31/67/67 32/68/68
f 27/69/69 26/70/70 25/71/71 28/72/72
f 25/73/73 26/74/74 30/75/75 29/76/76
f 26/77/77 27/78/78 31/79/79 30/80/80
f 27/81/81 28/82/82 32/83/83 31/84/84
f 28/85/85 25/86/86 29/87/87 32/88/88
f 37/89/89 38/90/90 39/91/91 40/92/92
f 35/93/93 34/94/94 33/95/95 36/96/96
f 33/97/97 34/98/98 38/99/99 37/100/100
f 34/101/101 35/102/102 39/103/103 38/104/104
f 35/105/105 36/106/106 40/107/107 39/108/108
f 36/109/109 33/110/110 37/111/111 40/112/112
f 45/113/113 46/114/114 47/115/115 48/116/116
f 43/117/117 42/118/118 41/119/119 44/120/120
f 41/121/121 42/122/122 46/123/123 45/124/124
f 42/125/125 43/126/126 47/127/127 46/128/128
f 43/129/129 44/130/130 48/131/131 47/132/132
f 44/133/133 41/134/134 45/135/135 48/136/136
f 53/137/137 54/138/138 55/139/139 56/140/140
f 51/141/141 50/142/142 49/143/143 52/144/144
f 49/145/145 50/146/146 54/147/147 53/148/148
f 50/149/149 51/150/150 55/151/151 54/152/152
f 51/153/153 52/154/154 56/155/155 55/156/156
f 52/157/157 49/158/158 53/159/159 56/160/160
f 61/161/161 62/162/162 63/163/163 64/164/164
f 59/165/165 58/166/166 57/167/167 60/168/168
f 57/169/169 58/170/170 62/171/171 61/172/172
f 58/173/173 59/174/174 63/175/175 62/176/176
f 59/177/177 60/178/178 64/179/179 63/180/180
f 60/181/181 57/182/182 61/183/183 64/184/184
